M48
;Layer_Color=9474304
;FILE_FORMAT=2:5
INCH
;TYPE=PLATED
T1F00S00C0.00787
T2F00S00C0.01000
T3F00S00C0.01000
T5F00S00C0.03799
T6F00S00C0.04000
T7F00S00C0.04016
T8F00S00C0.04528
;TYPE=NON_PLATED
T9F00S00C0.03543
T10F00S00C0.03900
T11F00S00C0.12500
%
T01
X0082460Y0718400
X0086200Y0720664
Y0716136
X0089940Y0718400
T02
X0158700Y0189400
X0163200Y0199400
X0193700Y0196400
X0196200Y0189400
X0207700
X0205396Y0196081
X0219200Y0189400
X0223700Y0199400
X0215200Y0234900
X0199600Y0237600
Y0221000
X0183200Y0228400
X0180300Y0243300
X0187800Y0243100
X0175700Y0248400
X0180400Y0259000
X0186800Y0261100
X0189200Y0263400
X0194200Y0262400
X0199600Y0261000
X0207600Y0255300
X0224200Y0258400
X0225200Y0250900
X0230200
X0232200Y0268400
X0234200Y0271400
X0224200Y0280400
X0223300Y0288300
Y0293300
X0214200Y0285400
X0215200Y0276400
X0201157Y0275443
X0191200Y0270400
X0192700Y0285400
Y0289900
X0185700Y0288900
X0186700Y0285600
X0185700Y0293400
X0189200Y0304900
X0194700
X0170200Y0298834
X0166200Y0286400
X0163200Y0283400
X0163700Y0278400
X0163157Y0275443
X0177200Y0276400
X0163200Y0253400
X0163700Y0239400
X0241200Y0234900
X0256200Y0272900
X0243700Y0285900
X0246700Y0311400
X0150700Y0308900
X0151200Y0305400
Y0298400
X0139700Y0304400
X0115200Y0302400
X0118200Y0294400
X0111700Y0264900
X0123700Y0254300
X0131700Y0253900
X0130200Y0239900
X0145200Y0237400
X0149700Y0242900
X0145700Y0256400
X0140850Y0261250
X0145700Y0272400
X0088200Y0258400
X0134200Y0196400
X0136700Y0189400
X0148200
X0145200Y0196400
X0136200Y0318900
X0153200Y0358400
Y0374400
X0150200Y0395400
X0151200Y0404400
X0156200Y0400400
X0144900Y0408400
X0153200Y0419400
X0156200Y0422400
X0151000Y0439200
X0152200Y0445400
X0138200Y0430400
X0127200Y0435400
Y0419400
X0121200Y0418900
X0122200Y0395400
X0121200Y0379900
X0124200Y0377900
Y0373400
Y0365400
X0105200Y0396400
X0104200Y0468400
X0120200Y0457400
X0131200Y0453900
X0160200Y0449400
X0163700Y0451900
X0157200Y0445900
X0169200Y0442400
X0174700Y0436400
X0169700Y0430400
X0172700Y0423400
X0178200Y0420000
X0165700Y0415900
X0162200Y0415400
X0161100Y0410300
X0158700Y0411900
X0159200Y0422400
X0172700Y0405400
X0171800Y0398800
X0177200Y0393400
X0185700Y0389400
X0185200Y0402400
X0191200Y0408400
X0200200Y0409400
X0203200
X0206200Y0410400
X0205200Y0406900
X0209200Y0412400
X0209700Y0416900
X0212700Y0419900
X0214000Y0428900
X0211100Y0431800
X0202700Y0436900
X0199200Y0439400
X0193700Y0439900
X0197200Y0434900
X0193200Y0427400
Y0422400
X0198200
X0199800Y0425900
X0201100Y0417800
X0195200Y0417400
X0212200Y0400400
X0222700Y0398400
X0222200Y0407400
X0226100Y0410400
X0232200Y0418400
X0230200Y0421400
X0236400Y0415500
X0236200Y0401400
X0232500Y0389600
X0229200Y0390400
X0220800Y0389700
X0220500Y0380700
X0224200Y0374400
X0231700Y0375400
X0235200Y0376900
X0238200Y0374400
X0240200Y0369400
X0249200Y0363400
X0250200Y0377400
X0265200Y0403400
X0267200Y0418400
X0249200Y0419400
Y0427400
X0251200Y0434400
X0227200Y0437400
X0217200Y0439400
X0213400Y0443400
X0210600Y0445800
X0210074Y0451619
X0207200Y0451400
X0202200Y0454200
X0201200Y0459400
X0209200Y0458400
X0218200Y0459400
X0219200Y0449400
X0176200Y0450400
X0179200Y0453741
X0172700Y0459900
X0166200Y0462900
X0169200Y0387400
X0171500Y0384800
X0175200Y0379700
X0169200Y0367400
Y0351400
X0162200Y0357400
X0158200Y0373400
X0194200
X0195838Y0377676
X0195200Y0380400
X0196200Y0383400
X0198000Y0385700
X0204200Y0375400
X0202200Y0372400
X0192200Y0368400
X0192700Y0362400
X0186200Y0357400
X0189200Y0343900
X0195200
X0199200Y0338400
X0202200Y0329900
X0195200Y0329400
X0189200
Y0319400
X0195200
X0170200Y0318400
X0157200Y0320900
X0204200Y0349400
X0216200Y0369400
X0248200Y0325400
X0246200Y0470400
X0248200Y0488400
X0233200Y0483400
X0221200Y0479400
X0203400Y0469500
X0198100
X0185200Y0469400
X0182300Y0470400
X0189200Y0480400
X0193200
X0187200Y0488400
X0180200
X0157200Y0489400
X0171050Y0538886
X0180200Y0538400
X0185700Y0539400
X0187200Y0562400
X0176200
X0181700Y0573900
X0171050Y0577414
X0178200Y0595900
X0213700Y0590900
X0216700Y0589900
X0228200Y0581400
X0226700Y0578900
X0237200Y0589900
X0239700Y0591400
X0241200Y0558400
X0244200Y0553400
X0230200Y0554400
X0228200Y0548400
X0230700Y0538400
X0228200Y0514900
X0230700Y0510400
X0240200Y0504400
X0246200Y0508400
X0250200Y0524400
X0255200Y0547400
X0254700Y0565400
X0280200Y0585400
X0287700Y0579900
X0288200Y0607400
X0290200Y0618400
X0278200
X0274200Y0615400
X0169200Y0551900
X0167200Y0549400
X0146200Y0545400
X0149700Y0538400
X0151200Y0524400
X0152200Y0520400
X0140200Y0504400
X0136400Y0503300
X0132700Y0504400
X0131600Y0498400
X0136200Y0487500
X0145200Y0492600
X0150200Y0484400
X0145200Y0476500
X0123200Y0531400
Y0536400
X0133200Y0549800
X0139300
X0129200Y0554400
X0109200Y0618400
X0101700Y0622900
X0089200Y0508400
X0105800Y0641700
X0114800Y0650500
X0122200Y0644400
X0128200Y0634600
Y0626400
X0134500Y0660600
X0142600Y0665500
X0142200Y0681400
X0140900Y0691800
X0134200Y0686400
X0127700Y0691900
X0125700Y0681400
X0125600Y0665500
X0114200Y0696400
X0113200Y0702400
X0105700Y0695400
X0087900Y0706300
X0086700Y0709400
X0090039Y0710561
X0088700Y0727400
X0095200Y0731400
X0108700Y0735900
Y0739400
X0113581Y0743400
X0117000Y0741000
X0127700Y0735900
X0135200Y0738400
X0140200
X0140900Y0726900
X0140800Y0721900
X0110700
X0111200Y0726400
X0178400Y0722000
X0190700Y0722400
X0192700Y0718400
X0193700Y0710900
X0193200Y0703400
X0194200Y0697400
X0189200Y0699400
X0187200Y0713400
X0186200Y0727400
X0192200Y0743400
X0200200
X0208000Y0724700
X0214200Y0727100
X0225200Y0725900
X0235200Y0724400
X0247300Y0726800
X0249200Y0736400
X0257200Y0739400
X0260200Y0737400
Y0728400
X0270200Y0723400
X0265200Y0717900
Y0710900
X0270200Y0705400
X0275200
X0277200Y0694400
X0264200Y0690900
Y0685400
Y0681400
X0254800Y0683300
X0254700Y0678600
X0257700Y0673900
X0253600Y0666500
X0237200Y0664400
X0227200Y0666400
X0228400Y0675900
X0233100Y0675700
X0239400
X0244200
X0243700Y0683400
X0243200Y0705800
Y0710700
X0243500Y0716300
X0254600
X0254800Y0711600
Y0698900
X0264300Y0700600
X0280200Y0714400
X0281200Y0724400
X0293200Y0719400
Y0709400
Y0729400
X0272200Y0742400
X0263200Y0758400
X0230200Y0736400
X0227200
X0204161Y0716361
X0204200Y0702400
X0208200Y0697400
X0205200Y0693400
X0203500Y0683300
X0214600Y0683400
X0214200Y0675900
X0216200Y0665400
X0209200Y0662400
X0211200Y0659400
X0213200Y0656400
X0218200Y0651400
X0224200Y0652400
X0234200
X0239200
X0244200Y0635900
X0248200Y0630400
X0234200Y0634900
X0213200
X0212700Y0645400
X0209200Y0646400
X0206200Y0651400
X0175700Y0663400
X0163700Y0656900
X0172200Y0688900
X0271700Y0676400
X0277200Y0669400
Y0664400
Y0659400
Y0654400
X0282200Y0646400
X0288200Y0650400
X0290200Y0638900
X0287700Y0631900
X0287200Y0628900
X0283200
X0282200Y0631900
X0274700Y0625400
X0268700Y0632900
T03
X0192700Y0351400
X0200200Y0378400
X0243500Y0362190
T05
X0175200Y0215400
X0134200Y0438400
X0161200Y0379400
X0219200Y0347400
X0276200Y0335400
X0225200Y0445400
T06
X0174200Y0178400
X0184200
X0194200
X0204200
X0214200Y0178500
X0154200
X0144200Y0178400
X0134200
X0124200
X0114200
X0104200Y0338400
X0094200
Y0348400
X0104200
X0264200
Y0358400
Y0368400
Y0378400
Y0388400
X0274200
Y0378400
Y0368400
Y0358400
Y0348400
X0194200Y0608400
X0184200
X0174200
X0164200
Y0618400
X0174200
X0184200
X0194200
T07
X0264200Y0228400
X0274200
Y0238400
Y0248400
Y0258400
Y0268400
Y0278400
Y0288400
Y0298400
Y0308400
X0264200
Y0298400
Y0288400
Y0278400
Y0268400
Y0258400
Y0248400
Y0238400
X0104200
Y0248400
Y0258400
Y0268400
Y0278400
Y0288400
Y0298400
Y0308400
X0094200
Y0298400
Y0288400
Y0278400
Y0268400
Y0258400
Y0248400
Y0238400
Y0228400
X0104200
Y0318400
X0094200
X0264200
X0274200
Y0478400
Y0488400
Y0498400
Y0508400
Y0518400
Y0528400
Y0538400
Y0548400
Y0558400
Y0568400
X0264200
Y0558400
Y0548400
Y0538400
Y0528400
Y0518400
Y0508400
Y0498400
Y0488400
Y0478400
X0104200
Y0488400
Y0498400
Y0508400
Y0518400
Y0528400
Y0538400
Y0548400
Y0558400
Y0568400
X0094200
Y0558400
Y0548400
Y0538400
Y0528400
Y0518400
Y0508400
Y0498400
Y0488400
Y0478400
T08
X0234200Y0178400
X0244200
X0254200
X0274200Y0188400
Y0198400
Y0208400
X0094200
Y0198400
Y0188400
Y0398400
Y0408400
Y0438400
Y0448400
Y0458400
X0274200
Y0448400
Y0438400
X0104200Y0588400
Y0598400
X0100200Y0668400
Y0678400
X0114200
Y0668400
X0086200
Y0678400
T09
X0288578Y0588872
Y0597928
T10
X0283200Y0704400
X0291200
X0287200Y0734400
T11
X0289200Y0163400
X0079200
Y0758400
X0289200
M30
