%TF.GenerationSoftware,KiCad,Pcbnew,9.0.0*%
%TF.CreationDate,2025-05-26T21:52:58-04:00*%
%TF.ProjectId,Custom Inverter PCB,43757374-6f6d-4204-996e-766572746572,2*%
%TF.SameCoordinates,Original*%
%TF.FileFunction,Paste,Top*%
%TF.FilePolarity,Positive*%
%FSLAX46Y46*%
G04 Gerber Fmt 4.6, Leading zero omitted, Abs format (unit mm)*
G04 Created by KiCad (PCBNEW 9.0.0) date 2025-05-26 21:52:58*
%MOMM*%
%LPD*%
G01*
G04 APERTURE LIST*
G04 Aperture macros list*
%AMRoundRect*
0 Rectangle with rounded corners*
0 $1 Rounding radius*
0 $2 $3 $4 $5 $6 $7 $8 $9 X,Y pos of 4 corners*
0 Add a 4 corners polygon primitive as box body*
4,1,4,$2,$3,$4,$5,$6,$7,$8,$9,$2,$3,0*
0 Add four circle primitives for the rounded corners*
1,1,$1+$1,$2,$3*
1,1,$1+$1,$4,$5*
1,1,$1+$1,$6,$7*
1,1,$1+$1,$8,$9*
0 Add four rect primitives between the rounded corners*
20,1,$1+$1,$2,$3,$4,$5,0*
20,1,$1+$1,$4,$5,$6,$7,0*
20,1,$1+$1,$6,$7,$8,$9,0*
20,1,$1+$1,$8,$9,$2,$3,0*%
G04 Aperture macros list end*
%ADD10C,0.010000*%
%ADD11RoundRect,0.250000X0.262500X0.450000X-0.262500X0.450000X-0.262500X-0.450000X0.262500X-0.450000X0*%
%ADD12R,2.514600X3.225800*%
%ADD13RoundRect,0.250000X0.250000X0.475000X-0.250000X0.475000X-0.250000X-0.475000X0.250000X-0.475000X0*%
%ADD14RoundRect,0.250000X-0.475000X0.250000X-0.475000X-0.250000X0.475000X-0.250000X0.475000X0.250000X0*%
%ADD15RoundRect,0.225000X-0.250000X0.225000X-0.250000X-0.225000X0.250000X-0.225000X0.250000X0.225000X0*%
%ADD16R,3.911600X0.990600*%
%ADD17R,3.911600X1.346200*%
%ADD18R,11.455400X10.464800*%
%ADD19RoundRect,0.250000X-0.450000X0.262500X-0.450000X-0.262500X0.450000X-0.262500X0.450000X0.262500X0*%
%ADD20R,7.500000X2.500000*%
%ADD21RoundRect,0.250000X0.450000X-0.262500X0.450000X0.262500X-0.450000X0.262500X-0.450000X-0.262500X0*%
%ADD22RoundRect,0.225000X0.225000X0.250000X-0.225000X0.250000X-0.225000X-0.250000X0.225000X-0.250000X0*%
%ADD23RoundRect,0.250000X-0.325000X-1.100000X0.325000X-1.100000X0.325000X1.100000X-0.325000X1.100000X0*%
%ADD24R,3.225800X2.514600*%
%ADD25RoundRect,0.250000X-0.262500X-0.450000X0.262500X-0.450000X0.262500X0.450000X-0.262500X0.450000X0*%
%ADD26R,0.558800X1.981200*%
G04 APERTURE END LIST*
D10*
%TO.C,Q4*%
X121273000Y-61707000D02*
X120507000Y-61707000D01*
X120507000Y-61199000D01*
X121273000Y-61199000D01*
X121273000Y-61707000D01*
G36*
X121273000Y-61707000D02*
G01*
X120507000Y-61707000D01*
X120507000Y-61199000D01*
X121273000Y-61199000D01*
X121273000Y-61707000D01*
G37*
X121273000Y-62977000D02*
X120507000Y-62977000D01*
X120507000Y-62469000D01*
X121273000Y-62469000D01*
X121273000Y-62977000D01*
G36*
X121273000Y-62977000D02*
G01*
X120507000Y-62977000D01*
X120507000Y-62469000D01*
X121273000Y-62469000D01*
X121273000Y-62977000D01*
G37*
X121273000Y-64247000D02*
X120507000Y-64247000D01*
X120507000Y-63739000D01*
X121273000Y-63739000D01*
X121273000Y-64247000D01*
G36*
X121273000Y-64247000D02*
G01*
X120507000Y-64247000D01*
X120507000Y-63739000D01*
X121273000Y-63739000D01*
X121273000Y-64247000D01*
G37*
X121273000Y-65517000D02*
X120507000Y-65517000D01*
X120507000Y-65009000D01*
X121273000Y-65009000D01*
X121273000Y-65517000D01*
G36*
X121273000Y-65517000D02*
G01*
X120507000Y-65517000D01*
X120507000Y-65009000D01*
X121273000Y-65009000D01*
X121273000Y-65517000D01*
G37*
X122853000Y-62162000D02*
X121559000Y-62162000D01*
X121559000Y-61416000D01*
X122853000Y-61416000D01*
X122853000Y-62162000D01*
G36*
X122853000Y-62162000D02*
G01*
X121559000Y-62162000D01*
X121559000Y-61416000D01*
X122853000Y-61416000D01*
X122853000Y-62162000D01*
G37*
X122853000Y-63208000D02*
X121559000Y-63208000D01*
X121559000Y-62462000D01*
X122853000Y-62462000D01*
X122853000Y-63208000D01*
G36*
X122853000Y-63208000D02*
G01*
X121559000Y-63208000D01*
X121559000Y-62462000D01*
X122853000Y-62462000D01*
X122853000Y-63208000D01*
G37*
X122853000Y-64254000D02*
X121559000Y-64254000D01*
X121559000Y-63508000D01*
X122853000Y-63508000D01*
X122853000Y-64254000D01*
G36*
X122853000Y-64254000D02*
G01*
X121559000Y-64254000D01*
X121559000Y-63508000D01*
X122853000Y-63508000D01*
X122853000Y-64254000D01*
G37*
X122853000Y-65300000D02*
X121559000Y-65300000D01*
X121559000Y-64554000D01*
X122853000Y-64554000D01*
X122853000Y-65300000D01*
G36*
X122853000Y-65300000D02*
G01*
X121559000Y-65300000D01*
X121559000Y-64554000D01*
X122853000Y-64554000D01*
X122853000Y-65300000D01*
G37*
X124497000Y-62162000D02*
X123203000Y-62162000D01*
X123203000Y-61416000D01*
X124497000Y-61416000D01*
X124497000Y-62162000D01*
G36*
X124497000Y-62162000D02*
G01*
X123203000Y-62162000D01*
X123203000Y-61416000D01*
X124497000Y-61416000D01*
X124497000Y-62162000D01*
G37*
X124497000Y-63208000D02*
X123203000Y-63208000D01*
X123203000Y-62462000D01*
X124497000Y-62462000D01*
X124497000Y-63208000D01*
G36*
X124497000Y-63208000D02*
G01*
X123203000Y-63208000D01*
X123203000Y-62462000D01*
X124497000Y-62462000D01*
X124497000Y-63208000D01*
G37*
X124497000Y-64254000D02*
X123203000Y-64254000D01*
X123203000Y-63508000D01*
X124497000Y-63508000D01*
X124497000Y-64254000D01*
G36*
X124497000Y-64254000D02*
G01*
X123203000Y-64254000D01*
X123203000Y-63508000D01*
X124497000Y-63508000D01*
X124497000Y-64254000D01*
G37*
X124497000Y-65300000D02*
X123203000Y-65300000D01*
X123203000Y-64554000D01*
X124497000Y-64554000D01*
X124497000Y-65300000D01*
G36*
X124497000Y-65300000D02*
G01*
X123203000Y-65300000D01*
X123203000Y-64554000D01*
X124497000Y-64554000D01*
X124497000Y-65300000D01*
G37*
X127093000Y-61734000D02*
X126021000Y-61734000D01*
X126021000Y-61172000D01*
X127093000Y-61172000D01*
X127093000Y-61734000D01*
G36*
X127093000Y-61734000D02*
G01*
X126021000Y-61734000D01*
X126021000Y-61172000D01*
X127093000Y-61172000D01*
X127093000Y-61734000D01*
G37*
X127093000Y-63004000D02*
X126021000Y-63004000D01*
X126021000Y-62442000D01*
X127093000Y-62442000D01*
X127093000Y-63004000D01*
G36*
X127093000Y-63004000D02*
G01*
X126021000Y-63004000D01*
X126021000Y-62442000D01*
X127093000Y-62442000D01*
X127093000Y-63004000D01*
G37*
X127093000Y-64274000D02*
X126021000Y-64274000D01*
X126021000Y-63712000D01*
X127093000Y-63712000D01*
X127093000Y-64274000D01*
G36*
X127093000Y-64274000D02*
G01*
X126021000Y-64274000D01*
X126021000Y-63712000D01*
X127093000Y-63712000D01*
X127093000Y-64274000D01*
G37*
X127093000Y-65544000D02*
X126021000Y-65544000D01*
X126021000Y-64982000D01*
X127093000Y-64982000D01*
X127093000Y-65544000D01*
G36*
X127093000Y-65544000D02*
G01*
X126021000Y-65544000D01*
X126021000Y-64982000D01*
X127093000Y-64982000D01*
X127093000Y-65544000D01*
G37*
%TO.C,Q6*%
X121773000Y-39657000D02*
X121007000Y-39657000D01*
X121007000Y-39149000D01*
X121773000Y-39149000D01*
X121773000Y-39657000D01*
G36*
X121773000Y-39657000D02*
G01*
X121007000Y-39657000D01*
X121007000Y-39149000D01*
X121773000Y-39149000D01*
X121773000Y-39657000D01*
G37*
X121773000Y-40927000D02*
X121007000Y-40927000D01*
X121007000Y-40419000D01*
X121773000Y-40419000D01*
X121773000Y-40927000D01*
G36*
X121773000Y-40927000D02*
G01*
X121007000Y-40927000D01*
X121007000Y-40419000D01*
X121773000Y-40419000D01*
X121773000Y-40927000D01*
G37*
X121773000Y-42197000D02*
X121007000Y-42197000D01*
X121007000Y-41689000D01*
X121773000Y-41689000D01*
X121773000Y-42197000D01*
G36*
X121773000Y-42197000D02*
G01*
X121007000Y-42197000D01*
X121007000Y-41689000D01*
X121773000Y-41689000D01*
X121773000Y-42197000D01*
G37*
X121773000Y-43467000D02*
X121007000Y-43467000D01*
X121007000Y-42959000D01*
X121773000Y-42959000D01*
X121773000Y-43467000D01*
G36*
X121773000Y-43467000D02*
G01*
X121007000Y-43467000D01*
X121007000Y-42959000D01*
X121773000Y-42959000D01*
X121773000Y-43467000D01*
G37*
X123353000Y-40112000D02*
X122059000Y-40112000D01*
X122059000Y-39366000D01*
X123353000Y-39366000D01*
X123353000Y-40112000D01*
G36*
X123353000Y-40112000D02*
G01*
X122059000Y-40112000D01*
X122059000Y-39366000D01*
X123353000Y-39366000D01*
X123353000Y-40112000D01*
G37*
X123353000Y-41158000D02*
X122059000Y-41158000D01*
X122059000Y-40412000D01*
X123353000Y-40412000D01*
X123353000Y-41158000D01*
G36*
X123353000Y-41158000D02*
G01*
X122059000Y-41158000D01*
X122059000Y-40412000D01*
X123353000Y-40412000D01*
X123353000Y-41158000D01*
G37*
X123353000Y-42204000D02*
X122059000Y-42204000D01*
X122059000Y-41458000D01*
X123353000Y-41458000D01*
X123353000Y-42204000D01*
G36*
X123353000Y-42204000D02*
G01*
X122059000Y-42204000D01*
X122059000Y-41458000D01*
X123353000Y-41458000D01*
X123353000Y-42204000D01*
G37*
X123353000Y-43250000D02*
X122059000Y-43250000D01*
X122059000Y-42504000D01*
X123353000Y-42504000D01*
X123353000Y-43250000D01*
G36*
X123353000Y-43250000D02*
G01*
X122059000Y-43250000D01*
X122059000Y-42504000D01*
X123353000Y-42504000D01*
X123353000Y-43250000D01*
G37*
X124997000Y-40112000D02*
X123703000Y-40112000D01*
X123703000Y-39366000D01*
X124997000Y-39366000D01*
X124997000Y-40112000D01*
G36*
X124997000Y-40112000D02*
G01*
X123703000Y-40112000D01*
X123703000Y-39366000D01*
X124997000Y-39366000D01*
X124997000Y-40112000D01*
G37*
X124997000Y-41158000D02*
X123703000Y-41158000D01*
X123703000Y-40412000D01*
X124997000Y-40412000D01*
X124997000Y-41158000D01*
G36*
X124997000Y-41158000D02*
G01*
X123703000Y-41158000D01*
X123703000Y-40412000D01*
X124997000Y-40412000D01*
X124997000Y-41158000D01*
G37*
X124997000Y-42204000D02*
X123703000Y-42204000D01*
X123703000Y-41458000D01*
X124997000Y-41458000D01*
X124997000Y-42204000D01*
G36*
X124997000Y-42204000D02*
G01*
X123703000Y-42204000D01*
X123703000Y-41458000D01*
X124997000Y-41458000D01*
X124997000Y-42204000D01*
G37*
X124997000Y-43250000D02*
X123703000Y-43250000D01*
X123703000Y-42504000D01*
X124997000Y-42504000D01*
X124997000Y-43250000D01*
G36*
X124997000Y-43250000D02*
G01*
X123703000Y-43250000D01*
X123703000Y-42504000D01*
X124997000Y-42504000D01*
X124997000Y-43250000D01*
G37*
X127593000Y-39684000D02*
X126521000Y-39684000D01*
X126521000Y-39122000D01*
X127593000Y-39122000D01*
X127593000Y-39684000D01*
G36*
X127593000Y-39684000D02*
G01*
X126521000Y-39684000D01*
X126521000Y-39122000D01*
X127593000Y-39122000D01*
X127593000Y-39684000D01*
G37*
X127593000Y-40954000D02*
X126521000Y-40954000D01*
X126521000Y-40392000D01*
X127593000Y-40392000D01*
X127593000Y-40954000D01*
G36*
X127593000Y-40954000D02*
G01*
X126521000Y-40954000D01*
X126521000Y-40392000D01*
X127593000Y-40392000D01*
X127593000Y-40954000D01*
G37*
X127593000Y-42224000D02*
X126521000Y-42224000D01*
X126521000Y-41662000D01*
X127593000Y-41662000D01*
X127593000Y-42224000D01*
G36*
X127593000Y-42224000D02*
G01*
X126521000Y-42224000D01*
X126521000Y-41662000D01*
X127593000Y-41662000D01*
X127593000Y-42224000D01*
G37*
X127593000Y-43494000D02*
X126521000Y-43494000D01*
X126521000Y-42932000D01*
X127593000Y-42932000D01*
X127593000Y-43494000D01*
G36*
X127593000Y-43494000D02*
G01*
X126521000Y-43494000D01*
X126521000Y-42932000D01*
X127593000Y-42932000D01*
X127593000Y-43494000D01*
G37*
%TO.C,Q1*%
X112946600Y-84052600D02*
X112180600Y-84052600D01*
X112180600Y-83544600D01*
X112946600Y-83544600D01*
X112946600Y-84052600D01*
G36*
X112946600Y-84052600D02*
G01*
X112180600Y-84052600D01*
X112180600Y-83544600D01*
X112946600Y-83544600D01*
X112946600Y-84052600D01*
G37*
X112946600Y-85322600D02*
X112180600Y-85322600D01*
X112180600Y-84814600D01*
X112946600Y-84814600D01*
X112946600Y-85322600D01*
G36*
X112946600Y-85322600D02*
G01*
X112180600Y-85322600D01*
X112180600Y-84814600D01*
X112946600Y-84814600D01*
X112946600Y-85322600D01*
G37*
X112946600Y-86592600D02*
X112180600Y-86592600D01*
X112180600Y-86084600D01*
X112946600Y-86084600D01*
X112946600Y-86592600D01*
G36*
X112946600Y-86592600D02*
G01*
X112180600Y-86592600D01*
X112180600Y-86084600D01*
X112946600Y-86084600D01*
X112946600Y-86592600D01*
G37*
X112946600Y-87862600D02*
X112180600Y-87862600D01*
X112180600Y-87354600D01*
X112946600Y-87354600D01*
X112946600Y-87862600D01*
G36*
X112946600Y-87862600D02*
G01*
X112180600Y-87862600D01*
X112180600Y-87354600D01*
X112946600Y-87354600D01*
X112946600Y-87862600D01*
G37*
X114526600Y-84507600D02*
X113232600Y-84507600D01*
X113232600Y-83761600D01*
X114526600Y-83761600D01*
X114526600Y-84507600D01*
G36*
X114526600Y-84507600D02*
G01*
X113232600Y-84507600D01*
X113232600Y-83761600D01*
X114526600Y-83761600D01*
X114526600Y-84507600D01*
G37*
X114526600Y-85553600D02*
X113232600Y-85553600D01*
X113232600Y-84807600D01*
X114526600Y-84807600D01*
X114526600Y-85553600D01*
G36*
X114526600Y-85553600D02*
G01*
X113232600Y-85553600D01*
X113232600Y-84807600D01*
X114526600Y-84807600D01*
X114526600Y-85553600D01*
G37*
X114526600Y-86599600D02*
X113232600Y-86599600D01*
X113232600Y-85853600D01*
X114526600Y-85853600D01*
X114526600Y-86599600D01*
G36*
X114526600Y-86599600D02*
G01*
X113232600Y-86599600D01*
X113232600Y-85853600D01*
X114526600Y-85853600D01*
X114526600Y-86599600D01*
G37*
X114526600Y-87645600D02*
X113232600Y-87645600D01*
X113232600Y-86899600D01*
X114526600Y-86899600D01*
X114526600Y-87645600D01*
G36*
X114526600Y-87645600D02*
G01*
X113232600Y-87645600D01*
X113232600Y-86899600D01*
X114526600Y-86899600D01*
X114526600Y-87645600D01*
G37*
X116170600Y-84507600D02*
X114876600Y-84507600D01*
X114876600Y-83761600D01*
X116170600Y-83761600D01*
X116170600Y-84507600D01*
G36*
X116170600Y-84507600D02*
G01*
X114876600Y-84507600D01*
X114876600Y-83761600D01*
X116170600Y-83761600D01*
X116170600Y-84507600D01*
G37*
X116170600Y-85553600D02*
X114876600Y-85553600D01*
X114876600Y-84807600D01*
X116170600Y-84807600D01*
X116170600Y-85553600D01*
G36*
X116170600Y-85553600D02*
G01*
X114876600Y-85553600D01*
X114876600Y-84807600D01*
X116170600Y-84807600D01*
X116170600Y-85553600D01*
G37*
X116170600Y-86599600D02*
X114876600Y-86599600D01*
X114876600Y-85853600D01*
X116170600Y-85853600D01*
X116170600Y-86599600D01*
G36*
X116170600Y-86599600D02*
G01*
X114876600Y-86599600D01*
X114876600Y-85853600D01*
X116170600Y-85853600D01*
X116170600Y-86599600D01*
G37*
X116170600Y-87645600D02*
X114876600Y-87645600D01*
X114876600Y-86899600D01*
X116170600Y-86899600D01*
X116170600Y-87645600D01*
G36*
X116170600Y-87645600D02*
G01*
X114876600Y-87645600D01*
X114876600Y-86899600D01*
X116170600Y-86899600D01*
X116170600Y-87645600D01*
G37*
X118766600Y-84079600D02*
X117694600Y-84079600D01*
X117694600Y-83517600D01*
X118766600Y-83517600D01*
X118766600Y-84079600D01*
G36*
X118766600Y-84079600D02*
G01*
X117694600Y-84079600D01*
X117694600Y-83517600D01*
X118766600Y-83517600D01*
X118766600Y-84079600D01*
G37*
X118766600Y-85349600D02*
X117694600Y-85349600D01*
X117694600Y-84787600D01*
X118766600Y-84787600D01*
X118766600Y-85349600D01*
G36*
X118766600Y-85349600D02*
G01*
X117694600Y-85349600D01*
X117694600Y-84787600D01*
X118766600Y-84787600D01*
X118766600Y-85349600D01*
G37*
X118766600Y-86619600D02*
X117694600Y-86619600D01*
X117694600Y-86057600D01*
X118766600Y-86057600D01*
X118766600Y-86619600D01*
G36*
X118766600Y-86619600D02*
G01*
X117694600Y-86619600D01*
X117694600Y-86057600D01*
X118766600Y-86057600D01*
X118766600Y-86619600D01*
G37*
X118766600Y-87889600D02*
X117694600Y-87889600D01*
X117694600Y-87327600D01*
X118766600Y-87327600D01*
X118766600Y-87889600D01*
G36*
X118766600Y-87889600D02*
G01*
X117694600Y-87889600D01*
X117694600Y-87327600D01*
X118766600Y-87327600D01*
X118766600Y-87889600D01*
G37*
%TO.C,Q2*%
X120716600Y-86417600D02*
X119950600Y-86417600D01*
X119950600Y-85909600D01*
X120716600Y-85909600D01*
X120716600Y-86417600D01*
G36*
X120716600Y-86417600D02*
G01*
X119950600Y-86417600D01*
X119950600Y-85909600D01*
X120716600Y-85909600D01*
X120716600Y-86417600D01*
G37*
X120716600Y-87687600D02*
X119950600Y-87687600D01*
X119950600Y-87179600D01*
X120716600Y-87179600D01*
X120716600Y-87687600D01*
G36*
X120716600Y-87687600D02*
G01*
X119950600Y-87687600D01*
X119950600Y-87179600D01*
X120716600Y-87179600D01*
X120716600Y-87687600D01*
G37*
X120716600Y-88957600D02*
X119950600Y-88957600D01*
X119950600Y-88449600D01*
X120716600Y-88449600D01*
X120716600Y-88957600D01*
G36*
X120716600Y-88957600D02*
G01*
X119950600Y-88957600D01*
X119950600Y-88449600D01*
X120716600Y-88449600D01*
X120716600Y-88957600D01*
G37*
X120716600Y-90227600D02*
X119950600Y-90227600D01*
X119950600Y-89719600D01*
X120716600Y-89719600D01*
X120716600Y-90227600D01*
G36*
X120716600Y-90227600D02*
G01*
X119950600Y-90227600D01*
X119950600Y-89719600D01*
X120716600Y-89719600D01*
X120716600Y-90227600D01*
G37*
X122296600Y-86872600D02*
X121002600Y-86872600D01*
X121002600Y-86126600D01*
X122296600Y-86126600D01*
X122296600Y-86872600D01*
G36*
X122296600Y-86872600D02*
G01*
X121002600Y-86872600D01*
X121002600Y-86126600D01*
X122296600Y-86126600D01*
X122296600Y-86872600D01*
G37*
X122296600Y-87918600D02*
X121002600Y-87918600D01*
X121002600Y-87172600D01*
X122296600Y-87172600D01*
X122296600Y-87918600D01*
G36*
X122296600Y-87918600D02*
G01*
X121002600Y-87918600D01*
X121002600Y-87172600D01*
X122296600Y-87172600D01*
X122296600Y-87918600D01*
G37*
X122296600Y-88964600D02*
X121002600Y-88964600D01*
X121002600Y-88218600D01*
X122296600Y-88218600D01*
X122296600Y-88964600D01*
G36*
X122296600Y-88964600D02*
G01*
X121002600Y-88964600D01*
X121002600Y-88218600D01*
X122296600Y-88218600D01*
X122296600Y-88964600D01*
G37*
X122296600Y-90010600D02*
X121002600Y-90010600D01*
X121002600Y-89264600D01*
X122296600Y-89264600D01*
X122296600Y-90010600D01*
G36*
X122296600Y-90010600D02*
G01*
X121002600Y-90010600D01*
X121002600Y-89264600D01*
X122296600Y-89264600D01*
X122296600Y-90010600D01*
G37*
X123940600Y-86872600D02*
X122646600Y-86872600D01*
X122646600Y-86126600D01*
X123940600Y-86126600D01*
X123940600Y-86872600D01*
G36*
X123940600Y-86872600D02*
G01*
X122646600Y-86872600D01*
X122646600Y-86126600D01*
X123940600Y-86126600D01*
X123940600Y-86872600D01*
G37*
X123940600Y-87918600D02*
X122646600Y-87918600D01*
X122646600Y-87172600D01*
X123940600Y-87172600D01*
X123940600Y-87918600D01*
G36*
X123940600Y-87918600D02*
G01*
X122646600Y-87918600D01*
X122646600Y-87172600D01*
X123940600Y-87172600D01*
X123940600Y-87918600D01*
G37*
X123940600Y-88964600D02*
X122646600Y-88964600D01*
X122646600Y-88218600D01*
X123940600Y-88218600D01*
X123940600Y-88964600D01*
G36*
X123940600Y-88964600D02*
G01*
X122646600Y-88964600D01*
X122646600Y-88218600D01*
X123940600Y-88218600D01*
X123940600Y-88964600D01*
G37*
X123940600Y-90010600D02*
X122646600Y-90010600D01*
X122646600Y-89264600D01*
X123940600Y-89264600D01*
X123940600Y-90010600D01*
G36*
X123940600Y-90010600D02*
G01*
X122646600Y-90010600D01*
X122646600Y-89264600D01*
X123940600Y-89264600D01*
X123940600Y-90010600D01*
G37*
X126536600Y-86444600D02*
X125464600Y-86444600D01*
X125464600Y-85882600D01*
X126536600Y-85882600D01*
X126536600Y-86444600D01*
G36*
X126536600Y-86444600D02*
G01*
X125464600Y-86444600D01*
X125464600Y-85882600D01*
X126536600Y-85882600D01*
X126536600Y-86444600D01*
G37*
X126536600Y-87714600D02*
X125464600Y-87714600D01*
X125464600Y-87152600D01*
X126536600Y-87152600D01*
X126536600Y-87714600D01*
G36*
X126536600Y-87714600D02*
G01*
X125464600Y-87714600D01*
X125464600Y-87152600D01*
X126536600Y-87152600D01*
X126536600Y-87714600D01*
G37*
X126536600Y-88984600D02*
X125464600Y-88984600D01*
X125464600Y-88422600D01*
X126536600Y-88422600D01*
X126536600Y-88984600D01*
G36*
X126536600Y-88984600D02*
G01*
X125464600Y-88984600D01*
X125464600Y-88422600D01*
X126536600Y-88422600D01*
X126536600Y-88984600D01*
G37*
X126536600Y-90254600D02*
X125464600Y-90254600D01*
X125464600Y-89692600D01*
X126536600Y-89692600D01*
X126536600Y-90254600D01*
G36*
X126536600Y-90254600D02*
G01*
X125464600Y-90254600D01*
X125464600Y-89692600D01*
X126536600Y-89692600D01*
X126536600Y-90254600D01*
G37*
%TO.C,U3*%
X121639200Y-53265000D02*
X121239200Y-53265000D01*
X121239200Y-50645000D01*
X121639200Y-50645000D01*
X121639200Y-53265000D01*
G36*
X121639200Y-53265000D02*
G01*
X121239200Y-53265000D01*
X121239200Y-50645000D01*
X121639200Y-50645000D01*
X121639200Y-53265000D01*
G37*
X121639200Y-55520000D02*
X121239200Y-55520000D01*
X121239200Y-53465000D01*
X121639200Y-53465000D01*
X121639200Y-55520000D01*
G36*
X121639200Y-55520000D02*
G01*
X121239200Y-55520000D01*
X121239200Y-53465000D01*
X121639200Y-53465000D01*
X121639200Y-55520000D01*
G37*
X121639200Y-59145000D02*
X121239200Y-59145000D01*
X121239200Y-56525000D01*
X121639200Y-56525000D01*
X121639200Y-59145000D01*
G36*
X121639200Y-59145000D02*
G01*
X121239200Y-59145000D01*
X121239200Y-56525000D01*
X121639200Y-56525000D01*
X121639200Y-59145000D01*
G37*
X122289200Y-57120000D02*
X121839200Y-57120000D01*
X121839200Y-56525000D01*
X122289200Y-56525000D01*
X122289200Y-57120000D01*
G36*
X122289200Y-57120000D02*
G01*
X121839200Y-57120000D01*
X121839200Y-56525000D01*
X122289200Y-56525000D01*
X122289200Y-57120000D01*
G37*
X122289200Y-59145000D02*
X121839200Y-59145000D01*
X121839200Y-57920000D01*
X122289200Y-57920000D01*
X122289200Y-59145000D01*
G36*
X122289200Y-59145000D02*
G01*
X121839200Y-59145000D01*
X121839200Y-57920000D01*
X122289200Y-57920000D01*
X122289200Y-59145000D01*
G37*
X122702200Y-51920000D02*
X121839200Y-51920000D01*
X121839200Y-50645000D01*
X122702200Y-50645000D01*
X122702200Y-51920000D01*
G36*
X122702200Y-51920000D02*
G01*
X121839200Y-51920000D01*
X121839200Y-50645000D01*
X122702200Y-50645000D01*
X122702200Y-51920000D01*
G37*
X122702200Y-54220000D02*
X121839200Y-54220000D01*
X121839200Y-52720000D01*
X122702200Y-52720000D01*
X122702200Y-54220000D01*
G36*
X122702200Y-54220000D02*
G01*
X121839200Y-54220000D01*
X121839200Y-52720000D01*
X122702200Y-52720000D01*
X122702200Y-54220000D01*
G37*
X122702200Y-55520000D02*
X121839200Y-55520000D01*
X121839200Y-55020000D01*
X122702200Y-55020000D01*
X122702200Y-55520000D01*
G36*
X122702200Y-55520000D02*
G01*
X121839200Y-55520000D01*
X121839200Y-55020000D01*
X122702200Y-55020000D01*
X122702200Y-55520000D01*
G37*
X123439200Y-53265000D02*
X122902200Y-53265000D01*
X122902200Y-50645000D01*
X123439200Y-50645000D01*
X123439200Y-53265000D01*
G36*
X123439200Y-53265000D02*
G01*
X122902200Y-53265000D01*
X122902200Y-50645000D01*
X123439200Y-50645000D01*
X123439200Y-53265000D01*
G37*
X123439200Y-59145000D02*
X122489200Y-59145000D01*
X122489200Y-56525000D01*
X123439200Y-56525000D01*
X123439200Y-59145000D01*
G36*
X123439200Y-59145000D02*
G01*
X122489200Y-59145000D01*
X122489200Y-56525000D01*
X123439200Y-56525000D01*
X123439200Y-59145000D01*
G37*
X124339200Y-51920000D02*
X123639200Y-51920000D01*
X123639200Y-50645000D01*
X124339200Y-50645000D01*
X124339200Y-51920000D01*
G36*
X124339200Y-51920000D02*
G01*
X123639200Y-51920000D01*
X123639200Y-50645000D01*
X124339200Y-50645000D01*
X124339200Y-51920000D01*
G37*
X124339200Y-53265000D02*
X123639200Y-53265000D01*
X123639200Y-52720000D01*
X124339200Y-52720000D01*
X124339200Y-53265000D01*
G36*
X124339200Y-53265000D02*
G01*
X123639200Y-53265000D01*
X123639200Y-52720000D01*
X124339200Y-52720000D01*
X124339200Y-53265000D01*
G37*
X124339200Y-54720000D02*
X123639200Y-54720000D01*
X123639200Y-54265000D01*
X124339200Y-54265000D01*
X124339200Y-54720000D01*
G36*
X124339200Y-54720000D02*
G01*
X123639200Y-54720000D01*
X123639200Y-54265000D01*
X124339200Y-54265000D01*
X124339200Y-54720000D01*
G37*
X124339200Y-57120000D02*
X123639200Y-57120000D01*
X123639200Y-55520000D01*
X124339200Y-55520000D01*
X124339200Y-57120000D01*
G36*
X124339200Y-57120000D02*
G01*
X123639200Y-57120000D01*
X123639200Y-55520000D01*
X124339200Y-55520000D01*
X124339200Y-57120000D01*
G37*
X124339200Y-59145000D02*
X123639200Y-59145000D01*
X123639200Y-57920000D01*
X124339200Y-57920000D01*
X124339200Y-59145000D01*
G36*
X124339200Y-59145000D02*
G01*
X123639200Y-59145000D01*
X123639200Y-57920000D01*
X124339200Y-57920000D01*
X124339200Y-59145000D01*
G37*
X129290200Y-52095000D02*
X128790200Y-52095000D01*
X128790200Y-51695000D01*
X129290200Y-51695000D01*
X129290200Y-52095000D01*
G36*
X129290200Y-52095000D02*
G01*
X128790200Y-52095000D01*
X128790200Y-51695000D01*
X129290200Y-51695000D01*
X129290200Y-52095000D01*
G37*
X129290200Y-58095000D02*
X128790200Y-58095000D01*
X128790200Y-57695000D01*
X129290200Y-57695000D01*
X129290200Y-58095000D01*
G36*
X129290200Y-58095000D02*
G01*
X128790200Y-58095000D01*
X128790200Y-57695000D01*
X129290200Y-57695000D01*
X129290200Y-58095000D01*
G37*
X129990200Y-51545000D02*
X128790200Y-51545000D01*
X128790200Y-51245000D01*
X129990200Y-51245000D01*
X129990200Y-51545000D01*
G36*
X129990200Y-51545000D02*
G01*
X128790200Y-51545000D01*
X128790200Y-51245000D01*
X129990200Y-51245000D01*
X129990200Y-51545000D01*
G37*
X129990200Y-52545000D02*
X128790200Y-52545000D01*
X128790200Y-52245000D01*
X129990200Y-52245000D01*
X129990200Y-52545000D01*
G36*
X129990200Y-52545000D02*
G01*
X128790200Y-52545000D01*
X128790200Y-52245000D01*
X129990200Y-52245000D01*
X129990200Y-52545000D01*
G37*
X129990200Y-53545000D02*
X128790200Y-53545000D01*
X128790200Y-53245000D01*
X129990200Y-53245000D01*
X129990200Y-53545000D01*
G36*
X129990200Y-53545000D02*
G01*
X128790200Y-53545000D01*
X128790200Y-53245000D01*
X129990200Y-53245000D01*
X129990200Y-53545000D01*
G37*
X129990200Y-54545000D02*
X128790200Y-54545000D01*
X128790200Y-54245000D01*
X129990200Y-54245000D01*
X129990200Y-54545000D01*
G36*
X129990200Y-54545000D02*
G01*
X128790200Y-54545000D01*
X128790200Y-54245000D01*
X129990200Y-54245000D01*
X129990200Y-54545000D01*
G37*
X129990200Y-55545000D02*
X128790200Y-55545000D01*
X128790200Y-55245000D01*
X129990200Y-55245000D01*
X129990200Y-55545000D01*
G36*
X129990200Y-55545000D02*
G01*
X128790200Y-55545000D01*
X128790200Y-55245000D01*
X129990200Y-55245000D01*
X129990200Y-55545000D01*
G37*
X129990200Y-56545000D02*
X128790200Y-56545000D01*
X128790200Y-56245000D01*
X129990200Y-56245000D01*
X129990200Y-56545000D01*
G36*
X129990200Y-56545000D02*
G01*
X128790200Y-56545000D01*
X128790200Y-56245000D01*
X129990200Y-56245000D01*
X129990200Y-56545000D01*
G37*
X129990200Y-57545000D02*
X128790200Y-57545000D01*
X128790200Y-57245000D01*
X129990200Y-57245000D01*
X129990200Y-57545000D01*
G36*
X129990200Y-57545000D02*
G01*
X128790200Y-57545000D01*
X128790200Y-57245000D01*
X129990200Y-57245000D01*
X129990200Y-57545000D01*
G37*
X129990200Y-58545000D02*
X128790200Y-58545000D01*
X128790200Y-58245000D01*
X129990200Y-58245000D01*
X129990200Y-58545000D01*
G36*
X129990200Y-58545000D02*
G01*
X128790200Y-58545000D01*
X128790200Y-58245000D01*
X129990200Y-58245000D01*
X129990200Y-58545000D01*
G37*
%TO.C,U4*%
X121639200Y-31290400D02*
X121239200Y-31290400D01*
X121239200Y-28670400D01*
X121639200Y-28670400D01*
X121639200Y-31290400D01*
G36*
X121639200Y-31290400D02*
G01*
X121239200Y-31290400D01*
X121239200Y-28670400D01*
X121639200Y-28670400D01*
X121639200Y-31290400D01*
G37*
X121639200Y-33545400D02*
X121239200Y-33545400D01*
X121239200Y-31490400D01*
X121639200Y-31490400D01*
X121639200Y-33545400D01*
G36*
X121639200Y-33545400D02*
G01*
X121239200Y-33545400D01*
X121239200Y-31490400D01*
X121639200Y-31490400D01*
X121639200Y-33545400D01*
G37*
X121639200Y-37170400D02*
X121239200Y-37170400D01*
X121239200Y-34550400D01*
X121639200Y-34550400D01*
X121639200Y-37170400D01*
G36*
X121639200Y-37170400D02*
G01*
X121239200Y-37170400D01*
X121239200Y-34550400D01*
X121639200Y-34550400D01*
X121639200Y-37170400D01*
G37*
X122289200Y-35145400D02*
X121839200Y-35145400D01*
X121839200Y-34550400D01*
X122289200Y-34550400D01*
X122289200Y-35145400D01*
G36*
X122289200Y-35145400D02*
G01*
X121839200Y-35145400D01*
X121839200Y-34550400D01*
X122289200Y-34550400D01*
X122289200Y-35145400D01*
G37*
X122289200Y-37170400D02*
X121839200Y-37170400D01*
X121839200Y-35945400D01*
X122289200Y-35945400D01*
X122289200Y-37170400D01*
G36*
X122289200Y-37170400D02*
G01*
X121839200Y-37170400D01*
X121839200Y-35945400D01*
X122289200Y-35945400D01*
X122289200Y-37170400D01*
G37*
X122702200Y-29945400D02*
X121839200Y-29945400D01*
X121839200Y-28670400D01*
X122702200Y-28670400D01*
X122702200Y-29945400D01*
G36*
X122702200Y-29945400D02*
G01*
X121839200Y-29945400D01*
X121839200Y-28670400D01*
X122702200Y-28670400D01*
X122702200Y-29945400D01*
G37*
X122702200Y-32245400D02*
X121839200Y-32245400D01*
X121839200Y-30745400D01*
X122702200Y-30745400D01*
X122702200Y-32245400D01*
G36*
X122702200Y-32245400D02*
G01*
X121839200Y-32245400D01*
X121839200Y-30745400D01*
X122702200Y-30745400D01*
X122702200Y-32245400D01*
G37*
X122702200Y-33545400D02*
X121839200Y-33545400D01*
X121839200Y-33045400D01*
X122702200Y-33045400D01*
X122702200Y-33545400D01*
G36*
X122702200Y-33545400D02*
G01*
X121839200Y-33545400D01*
X121839200Y-33045400D01*
X122702200Y-33045400D01*
X122702200Y-33545400D01*
G37*
X123439200Y-31290400D02*
X122902200Y-31290400D01*
X122902200Y-28670400D01*
X123439200Y-28670400D01*
X123439200Y-31290400D01*
G36*
X123439200Y-31290400D02*
G01*
X122902200Y-31290400D01*
X122902200Y-28670400D01*
X123439200Y-28670400D01*
X123439200Y-31290400D01*
G37*
X123439200Y-37170400D02*
X122489200Y-37170400D01*
X122489200Y-34550400D01*
X123439200Y-34550400D01*
X123439200Y-37170400D01*
G36*
X123439200Y-37170400D02*
G01*
X122489200Y-37170400D01*
X122489200Y-34550400D01*
X123439200Y-34550400D01*
X123439200Y-37170400D01*
G37*
X124339200Y-29945400D02*
X123639200Y-29945400D01*
X123639200Y-28670400D01*
X124339200Y-28670400D01*
X124339200Y-29945400D01*
G36*
X124339200Y-29945400D02*
G01*
X123639200Y-29945400D01*
X123639200Y-28670400D01*
X124339200Y-28670400D01*
X124339200Y-29945400D01*
G37*
X124339200Y-31290400D02*
X123639200Y-31290400D01*
X123639200Y-30745400D01*
X124339200Y-30745400D01*
X124339200Y-31290400D01*
G36*
X124339200Y-31290400D02*
G01*
X123639200Y-31290400D01*
X123639200Y-30745400D01*
X124339200Y-30745400D01*
X124339200Y-31290400D01*
G37*
X124339200Y-32745400D02*
X123639200Y-32745400D01*
X123639200Y-32290400D01*
X124339200Y-32290400D01*
X124339200Y-32745400D01*
G36*
X124339200Y-32745400D02*
G01*
X123639200Y-32745400D01*
X123639200Y-32290400D01*
X124339200Y-32290400D01*
X124339200Y-32745400D01*
G37*
X124339200Y-35145400D02*
X123639200Y-35145400D01*
X123639200Y-33545400D01*
X124339200Y-33545400D01*
X124339200Y-35145400D01*
G36*
X124339200Y-35145400D02*
G01*
X123639200Y-35145400D01*
X123639200Y-33545400D01*
X124339200Y-33545400D01*
X124339200Y-35145400D01*
G37*
X124339200Y-37170400D02*
X123639200Y-37170400D01*
X123639200Y-35945400D01*
X124339200Y-35945400D01*
X124339200Y-37170400D01*
G36*
X124339200Y-37170400D02*
G01*
X123639200Y-37170400D01*
X123639200Y-35945400D01*
X124339200Y-35945400D01*
X124339200Y-37170400D01*
G37*
X129290200Y-30120400D02*
X128790200Y-30120400D01*
X128790200Y-29720400D01*
X129290200Y-29720400D01*
X129290200Y-30120400D01*
G36*
X129290200Y-30120400D02*
G01*
X128790200Y-30120400D01*
X128790200Y-29720400D01*
X129290200Y-29720400D01*
X129290200Y-30120400D01*
G37*
X129290200Y-36120400D02*
X128790200Y-36120400D01*
X128790200Y-35720400D01*
X129290200Y-35720400D01*
X129290200Y-36120400D01*
G36*
X129290200Y-36120400D02*
G01*
X128790200Y-36120400D01*
X128790200Y-35720400D01*
X129290200Y-35720400D01*
X129290200Y-36120400D01*
G37*
X129990200Y-29570400D02*
X128790200Y-29570400D01*
X128790200Y-29270400D01*
X129990200Y-29270400D01*
X129990200Y-29570400D01*
G36*
X129990200Y-29570400D02*
G01*
X128790200Y-29570400D01*
X128790200Y-29270400D01*
X129990200Y-29270400D01*
X129990200Y-29570400D01*
G37*
X129990200Y-30570400D02*
X128790200Y-30570400D01*
X128790200Y-30270400D01*
X129990200Y-30270400D01*
X129990200Y-30570400D01*
G36*
X129990200Y-30570400D02*
G01*
X128790200Y-30570400D01*
X128790200Y-30270400D01*
X129990200Y-30270400D01*
X129990200Y-30570400D01*
G37*
X129990200Y-31570400D02*
X128790200Y-31570400D01*
X128790200Y-31270400D01*
X129990200Y-31270400D01*
X129990200Y-31570400D01*
G36*
X129990200Y-31570400D02*
G01*
X128790200Y-31570400D01*
X128790200Y-31270400D01*
X129990200Y-31270400D01*
X129990200Y-31570400D01*
G37*
X129990200Y-32570400D02*
X128790200Y-32570400D01*
X128790200Y-32270400D01*
X129990200Y-32270400D01*
X129990200Y-32570400D01*
G36*
X129990200Y-32570400D02*
G01*
X128790200Y-32570400D01*
X128790200Y-32270400D01*
X129990200Y-32270400D01*
X129990200Y-32570400D01*
G37*
X129990200Y-33570400D02*
X128790200Y-33570400D01*
X128790200Y-33270400D01*
X129990200Y-33270400D01*
X129990200Y-33570400D01*
G36*
X129990200Y-33570400D02*
G01*
X128790200Y-33570400D01*
X128790200Y-33270400D01*
X129990200Y-33270400D01*
X129990200Y-33570400D01*
G37*
X129990200Y-34570400D02*
X128790200Y-34570400D01*
X128790200Y-34270400D01*
X129990200Y-34270400D01*
X129990200Y-34570400D01*
G36*
X129990200Y-34570400D02*
G01*
X128790200Y-34570400D01*
X128790200Y-34270400D01*
X129990200Y-34270400D01*
X129990200Y-34570400D01*
G37*
X129990200Y-35570400D02*
X128790200Y-35570400D01*
X128790200Y-35270400D01*
X129990200Y-35270400D01*
X129990200Y-35570400D01*
G36*
X129990200Y-35570400D02*
G01*
X128790200Y-35570400D01*
X128790200Y-35270400D01*
X129990200Y-35270400D01*
X129990200Y-35570400D01*
G37*
X129990200Y-36570400D02*
X128790200Y-36570400D01*
X128790200Y-36270400D01*
X129990200Y-36270400D01*
X129990200Y-36570400D01*
G36*
X129990200Y-36570400D02*
G01*
X128790200Y-36570400D01*
X128790200Y-36270400D01*
X129990200Y-36270400D01*
X129990200Y-36570400D01*
G37*
%TO.C,Q5*%
X113233000Y-37147000D02*
X112467000Y-37147000D01*
X112467000Y-36639000D01*
X113233000Y-36639000D01*
X113233000Y-37147000D01*
G36*
X113233000Y-37147000D02*
G01*
X112467000Y-37147000D01*
X112467000Y-36639000D01*
X113233000Y-36639000D01*
X113233000Y-37147000D01*
G37*
X113233000Y-38417000D02*
X112467000Y-38417000D01*
X112467000Y-37909000D01*
X113233000Y-37909000D01*
X113233000Y-38417000D01*
G36*
X113233000Y-38417000D02*
G01*
X112467000Y-38417000D01*
X112467000Y-37909000D01*
X113233000Y-37909000D01*
X113233000Y-38417000D01*
G37*
X113233000Y-39687000D02*
X112467000Y-39687000D01*
X112467000Y-39179000D01*
X113233000Y-39179000D01*
X113233000Y-39687000D01*
G36*
X113233000Y-39687000D02*
G01*
X112467000Y-39687000D01*
X112467000Y-39179000D01*
X113233000Y-39179000D01*
X113233000Y-39687000D01*
G37*
X113233000Y-40957000D02*
X112467000Y-40957000D01*
X112467000Y-40449000D01*
X113233000Y-40449000D01*
X113233000Y-40957000D01*
G36*
X113233000Y-40957000D02*
G01*
X112467000Y-40957000D01*
X112467000Y-40449000D01*
X113233000Y-40449000D01*
X113233000Y-40957000D01*
G37*
X114813000Y-37602000D02*
X113519000Y-37602000D01*
X113519000Y-36856000D01*
X114813000Y-36856000D01*
X114813000Y-37602000D01*
G36*
X114813000Y-37602000D02*
G01*
X113519000Y-37602000D01*
X113519000Y-36856000D01*
X114813000Y-36856000D01*
X114813000Y-37602000D01*
G37*
X114813000Y-38648000D02*
X113519000Y-38648000D01*
X113519000Y-37902000D01*
X114813000Y-37902000D01*
X114813000Y-38648000D01*
G36*
X114813000Y-38648000D02*
G01*
X113519000Y-38648000D01*
X113519000Y-37902000D01*
X114813000Y-37902000D01*
X114813000Y-38648000D01*
G37*
X114813000Y-39694000D02*
X113519000Y-39694000D01*
X113519000Y-38948000D01*
X114813000Y-38948000D01*
X114813000Y-39694000D01*
G36*
X114813000Y-39694000D02*
G01*
X113519000Y-39694000D01*
X113519000Y-38948000D01*
X114813000Y-38948000D01*
X114813000Y-39694000D01*
G37*
X114813000Y-40740000D02*
X113519000Y-40740000D01*
X113519000Y-39994000D01*
X114813000Y-39994000D01*
X114813000Y-40740000D01*
G36*
X114813000Y-40740000D02*
G01*
X113519000Y-40740000D01*
X113519000Y-39994000D01*
X114813000Y-39994000D01*
X114813000Y-40740000D01*
G37*
X116457000Y-37602000D02*
X115163000Y-37602000D01*
X115163000Y-36856000D01*
X116457000Y-36856000D01*
X116457000Y-37602000D01*
G36*
X116457000Y-37602000D02*
G01*
X115163000Y-37602000D01*
X115163000Y-36856000D01*
X116457000Y-36856000D01*
X116457000Y-37602000D01*
G37*
X116457000Y-38648000D02*
X115163000Y-38648000D01*
X115163000Y-37902000D01*
X116457000Y-37902000D01*
X116457000Y-38648000D01*
G36*
X116457000Y-38648000D02*
G01*
X115163000Y-38648000D01*
X115163000Y-37902000D01*
X116457000Y-37902000D01*
X116457000Y-38648000D01*
G37*
X116457000Y-39694000D02*
X115163000Y-39694000D01*
X115163000Y-38948000D01*
X116457000Y-38948000D01*
X116457000Y-39694000D01*
G36*
X116457000Y-39694000D02*
G01*
X115163000Y-39694000D01*
X115163000Y-38948000D01*
X116457000Y-38948000D01*
X116457000Y-39694000D01*
G37*
X116457000Y-40740000D02*
X115163000Y-40740000D01*
X115163000Y-39994000D01*
X116457000Y-39994000D01*
X116457000Y-40740000D01*
G36*
X116457000Y-40740000D02*
G01*
X115163000Y-40740000D01*
X115163000Y-39994000D01*
X116457000Y-39994000D01*
X116457000Y-40740000D01*
G37*
X119053000Y-37174000D02*
X117981000Y-37174000D01*
X117981000Y-36612000D01*
X119053000Y-36612000D01*
X119053000Y-37174000D01*
G36*
X119053000Y-37174000D02*
G01*
X117981000Y-37174000D01*
X117981000Y-36612000D01*
X119053000Y-36612000D01*
X119053000Y-37174000D01*
G37*
X119053000Y-38444000D02*
X117981000Y-38444000D01*
X117981000Y-37882000D01*
X119053000Y-37882000D01*
X119053000Y-38444000D01*
G36*
X119053000Y-38444000D02*
G01*
X117981000Y-38444000D01*
X117981000Y-37882000D01*
X119053000Y-37882000D01*
X119053000Y-38444000D01*
G37*
X119053000Y-39714000D02*
X117981000Y-39714000D01*
X117981000Y-39152000D01*
X119053000Y-39152000D01*
X119053000Y-39714000D01*
G36*
X119053000Y-39714000D02*
G01*
X117981000Y-39714000D01*
X117981000Y-39152000D01*
X119053000Y-39152000D01*
X119053000Y-39714000D01*
G37*
X119053000Y-40984000D02*
X117981000Y-40984000D01*
X117981000Y-40422000D01*
X119053000Y-40422000D01*
X119053000Y-40984000D01*
G36*
X119053000Y-40984000D02*
G01*
X117981000Y-40984000D01*
X117981000Y-40422000D01*
X119053000Y-40422000D01*
X119053000Y-40984000D01*
G37*
%TO.C,Q3*%
X113503000Y-59292000D02*
X112737000Y-59292000D01*
X112737000Y-58784000D01*
X113503000Y-58784000D01*
X113503000Y-59292000D01*
G36*
X113503000Y-59292000D02*
G01*
X112737000Y-59292000D01*
X112737000Y-58784000D01*
X113503000Y-58784000D01*
X113503000Y-59292000D01*
G37*
X113503000Y-60562000D02*
X112737000Y-60562000D01*
X112737000Y-60054000D01*
X113503000Y-60054000D01*
X113503000Y-60562000D01*
G36*
X113503000Y-60562000D02*
G01*
X112737000Y-60562000D01*
X112737000Y-60054000D01*
X113503000Y-60054000D01*
X113503000Y-60562000D01*
G37*
X113503000Y-61832000D02*
X112737000Y-61832000D01*
X112737000Y-61324000D01*
X113503000Y-61324000D01*
X113503000Y-61832000D01*
G36*
X113503000Y-61832000D02*
G01*
X112737000Y-61832000D01*
X112737000Y-61324000D01*
X113503000Y-61324000D01*
X113503000Y-61832000D01*
G37*
X113503000Y-63102000D02*
X112737000Y-63102000D01*
X112737000Y-62594000D01*
X113503000Y-62594000D01*
X113503000Y-63102000D01*
G36*
X113503000Y-63102000D02*
G01*
X112737000Y-63102000D01*
X112737000Y-62594000D01*
X113503000Y-62594000D01*
X113503000Y-63102000D01*
G37*
X115083000Y-59747000D02*
X113789000Y-59747000D01*
X113789000Y-59001000D01*
X115083000Y-59001000D01*
X115083000Y-59747000D01*
G36*
X115083000Y-59747000D02*
G01*
X113789000Y-59747000D01*
X113789000Y-59001000D01*
X115083000Y-59001000D01*
X115083000Y-59747000D01*
G37*
X115083000Y-60793000D02*
X113789000Y-60793000D01*
X113789000Y-60047000D01*
X115083000Y-60047000D01*
X115083000Y-60793000D01*
G36*
X115083000Y-60793000D02*
G01*
X113789000Y-60793000D01*
X113789000Y-60047000D01*
X115083000Y-60047000D01*
X115083000Y-60793000D01*
G37*
X115083000Y-61839000D02*
X113789000Y-61839000D01*
X113789000Y-61093000D01*
X115083000Y-61093000D01*
X115083000Y-61839000D01*
G36*
X115083000Y-61839000D02*
G01*
X113789000Y-61839000D01*
X113789000Y-61093000D01*
X115083000Y-61093000D01*
X115083000Y-61839000D01*
G37*
X115083000Y-62885000D02*
X113789000Y-62885000D01*
X113789000Y-62139000D01*
X115083000Y-62139000D01*
X115083000Y-62885000D01*
G36*
X115083000Y-62885000D02*
G01*
X113789000Y-62885000D01*
X113789000Y-62139000D01*
X115083000Y-62139000D01*
X115083000Y-62885000D01*
G37*
X116727000Y-59747000D02*
X115433000Y-59747000D01*
X115433000Y-59001000D01*
X116727000Y-59001000D01*
X116727000Y-59747000D01*
G36*
X116727000Y-59747000D02*
G01*
X115433000Y-59747000D01*
X115433000Y-59001000D01*
X116727000Y-59001000D01*
X116727000Y-59747000D01*
G37*
X116727000Y-60793000D02*
X115433000Y-60793000D01*
X115433000Y-60047000D01*
X116727000Y-60047000D01*
X116727000Y-60793000D01*
G36*
X116727000Y-60793000D02*
G01*
X115433000Y-60793000D01*
X115433000Y-60047000D01*
X116727000Y-60047000D01*
X116727000Y-60793000D01*
G37*
X116727000Y-61839000D02*
X115433000Y-61839000D01*
X115433000Y-61093000D01*
X116727000Y-61093000D01*
X116727000Y-61839000D01*
G36*
X116727000Y-61839000D02*
G01*
X115433000Y-61839000D01*
X115433000Y-61093000D01*
X116727000Y-61093000D01*
X116727000Y-61839000D01*
G37*
X116727000Y-62885000D02*
X115433000Y-62885000D01*
X115433000Y-62139000D01*
X116727000Y-62139000D01*
X116727000Y-62885000D01*
G36*
X116727000Y-62885000D02*
G01*
X115433000Y-62885000D01*
X115433000Y-62139000D01*
X116727000Y-62139000D01*
X116727000Y-62885000D01*
G37*
X119323000Y-59319000D02*
X118251000Y-59319000D01*
X118251000Y-58757000D01*
X119323000Y-58757000D01*
X119323000Y-59319000D01*
G36*
X119323000Y-59319000D02*
G01*
X118251000Y-59319000D01*
X118251000Y-58757000D01*
X119323000Y-58757000D01*
X119323000Y-59319000D01*
G37*
X119323000Y-60589000D02*
X118251000Y-60589000D01*
X118251000Y-60027000D01*
X119323000Y-60027000D01*
X119323000Y-60589000D01*
G36*
X119323000Y-60589000D02*
G01*
X118251000Y-60589000D01*
X118251000Y-60027000D01*
X119323000Y-60027000D01*
X119323000Y-60589000D01*
G37*
X119323000Y-61859000D02*
X118251000Y-61859000D01*
X118251000Y-61297000D01*
X119323000Y-61297000D01*
X119323000Y-61859000D01*
G36*
X119323000Y-61859000D02*
G01*
X118251000Y-61859000D01*
X118251000Y-61297000D01*
X119323000Y-61297000D01*
X119323000Y-61859000D01*
G37*
X119323000Y-63129000D02*
X118251000Y-63129000D01*
X118251000Y-62567000D01*
X119323000Y-62567000D01*
X119323000Y-63129000D01*
G36*
X119323000Y-63129000D02*
G01*
X118251000Y-63129000D01*
X118251000Y-62567000D01*
X119323000Y-62567000D01*
X119323000Y-63129000D01*
G37*
%TO.C,U2*%
X121082800Y-78573600D02*
X120682800Y-78573600D01*
X120682800Y-75953600D01*
X121082800Y-75953600D01*
X121082800Y-78573600D01*
G36*
X121082800Y-78573600D02*
G01*
X120682800Y-78573600D01*
X120682800Y-75953600D01*
X121082800Y-75953600D01*
X121082800Y-78573600D01*
G37*
X121082800Y-80828600D02*
X120682800Y-80828600D01*
X120682800Y-78773600D01*
X121082800Y-78773600D01*
X121082800Y-80828600D01*
G36*
X121082800Y-80828600D02*
G01*
X120682800Y-80828600D01*
X120682800Y-78773600D01*
X121082800Y-78773600D01*
X121082800Y-80828600D01*
G37*
X121082800Y-84453600D02*
X120682800Y-84453600D01*
X120682800Y-81833600D01*
X121082800Y-81833600D01*
X121082800Y-84453600D01*
G36*
X121082800Y-84453600D02*
G01*
X120682800Y-84453600D01*
X120682800Y-81833600D01*
X121082800Y-81833600D01*
X121082800Y-84453600D01*
G37*
X121732800Y-82428600D02*
X121282800Y-82428600D01*
X121282800Y-81833600D01*
X121732800Y-81833600D01*
X121732800Y-82428600D01*
G36*
X121732800Y-82428600D02*
G01*
X121282800Y-82428600D01*
X121282800Y-81833600D01*
X121732800Y-81833600D01*
X121732800Y-82428600D01*
G37*
X121732800Y-84453600D02*
X121282800Y-84453600D01*
X121282800Y-83228600D01*
X121732800Y-83228600D01*
X121732800Y-84453600D01*
G36*
X121732800Y-84453600D02*
G01*
X121282800Y-84453600D01*
X121282800Y-83228600D01*
X121732800Y-83228600D01*
X121732800Y-84453600D01*
G37*
X122145800Y-77228600D02*
X121282800Y-77228600D01*
X121282800Y-75953600D01*
X122145800Y-75953600D01*
X122145800Y-77228600D01*
G36*
X122145800Y-77228600D02*
G01*
X121282800Y-77228600D01*
X121282800Y-75953600D01*
X122145800Y-75953600D01*
X122145800Y-77228600D01*
G37*
X122145800Y-79528600D02*
X121282800Y-79528600D01*
X121282800Y-78028600D01*
X122145800Y-78028600D01*
X122145800Y-79528600D01*
G36*
X122145800Y-79528600D02*
G01*
X121282800Y-79528600D01*
X121282800Y-78028600D01*
X122145800Y-78028600D01*
X122145800Y-79528600D01*
G37*
X122145800Y-80828600D02*
X121282800Y-80828600D01*
X121282800Y-80328600D01*
X122145800Y-80328600D01*
X122145800Y-80828600D01*
G36*
X122145800Y-80828600D02*
G01*
X121282800Y-80828600D01*
X121282800Y-80328600D01*
X122145800Y-80328600D01*
X122145800Y-80828600D01*
G37*
X122882800Y-78573600D02*
X122345800Y-78573600D01*
X122345800Y-75953600D01*
X122882800Y-75953600D01*
X122882800Y-78573600D01*
G36*
X122882800Y-78573600D02*
G01*
X122345800Y-78573600D01*
X122345800Y-75953600D01*
X122882800Y-75953600D01*
X122882800Y-78573600D01*
G37*
X122882800Y-84453600D02*
X121932800Y-84453600D01*
X121932800Y-81833600D01*
X122882800Y-81833600D01*
X122882800Y-84453600D01*
G36*
X122882800Y-84453600D02*
G01*
X121932800Y-84453600D01*
X121932800Y-81833600D01*
X122882800Y-81833600D01*
X122882800Y-84453600D01*
G37*
X123782800Y-77228600D02*
X123082800Y-77228600D01*
X123082800Y-75953600D01*
X123782800Y-75953600D01*
X123782800Y-77228600D01*
G36*
X123782800Y-77228600D02*
G01*
X123082800Y-77228600D01*
X123082800Y-75953600D01*
X123782800Y-75953600D01*
X123782800Y-77228600D01*
G37*
X123782800Y-78573600D02*
X123082800Y-78573600D01*
X123082800Y-78028600D01*
X123782800Y-78028600D01*
X123782800Y-78573600D01*
G36*
X123782800Y-78573600D02*
G01*
X123082800Y-78573600D01*
X123082800Y-78028600D01*
X123782800Y-78028600D01*
X123782800Y-78573600D01*
G37*
X123782800Y-80028600D02*
X123082800Y-80028600D01*
X123082800Y-79573600D01*
X123782800Y-79573600D01*
X123782800Y-80028600D01*
G36*
X123782800Y-80028600D02*
G01*
X123082800Y-80028600D01*
X123082800Y-79573600D01*
X123782800Y-79573600D01*
X123782800Y-80028600D01*
G37*
X123782800Y-82428600D02*
X123082800Y-82428600D01*
X123082800Y-80828600D01*
X123782800Y-80828600D01*
X123782800Y-82428600D01*
G36*
X123782800Y-82428600D02*
G01*
X123082800Y-82428600D01*
X123082800Y-80828600D01*
X123782800Y-80828600D01*
X123782800Y-82428600D01*
G37*
X123782800Y-84453600D02*
X123082800Y-84453600D01*
X123082800Y-83228600D01*
X123782800Y-83228600D01*
X123782800Y-84453600D01*
G36*
X123782800Y-84453600D02*
G01*
X123082800Y-84453600D01*
X123082800Y-83228600D01*
X123782800Y-83228600D01*
X123782800Y-84453600D01*
G37*
X128733800Y-77403600D02*
X128233800Y-77403600D01*
X128233800Y-77003600D01*
X128733800Y-77003600D01*
X128733800Y-77403600D01*
G36*
X128733800Y-77403600D02*
G01*
X128233800Y-77403600D01*
X128233800Y-77003600D01*
X128733800Y-77003600D01*
X128733800Y-77403600D01*
G37*
X128733800Y-83403600D02*
X128233800Y-83403600D01*
X128233800Y-83003600D01*
X128733800Y-83003600D01*
X128733800Y-83403600D01*
G36*
X128733800Y-83403600D02*
G01*
X128233800Y-83403600D01*
X128233800Y-83003600D01*
X128733800Y-83003600D01*
X128733800Y-83403600D01*
G37*
X129433800Y-76853600D02*
X128233800Y-76853600D01*
X128233800Y-76553600D01*
X129433800Y-76553600D01*
X129433800Y-76853600D01*
G36*
X129433800Y-76853600D02*
G01*
X128233800Y-76853600D01*
X128233800Y-76553600D01*
X129433800Y-76553600D01*
X129433800Y-76853600D01*
G37*
X129433800Y-77853600D02*
X128233800Y-77853600D01*
X128233800Y-77553600D01*
X129433800Y-77553600D01*
X129433800Y-77853600D01*
G36*
X129433800Y-77853600D02*
G01*
X128233800Y-77853600D01*
X128233800Y-77553600D01*
X129433800Y-77553600D01*
X129433800Y-77853600D01*
G37*
X129433800Y-78853600D02*
X128233800Y-78853600D01*
X128233800Y-78553600D01*
X129433800Y-78553600D01*
X129433800Y-78853600D01*
G36*
X129433800Y-78853600D02*
G01*
X128233800Y-78853600D01*
X128233800Y-78553600D01*
X129433800Y-78553600D01*
X129433800Y-78853600D01*
G37*
X129433800Y-79853600D02*
X128233800Y-79853600D01*
X128233800Y-79553600D01*
X129433800Y-79553600D01*
X129433800Y-79853600D01*
G36*
X129433800Y-79853600D02*
G01*
X128233800Y-79853600D01*
X128233800Y-79553600D01*
X129433800Y-79553600D01*
X129433800Y-79853600D01*
G37*
X129433800Y-80853600D02*
X128233800Y-80853600D01*
X128233800Y-80553600D01*
X129433800Y-80553600D01*
X129433800Y-80853600D01*
G36*
X129433800Y-80853600D02*
G01*
X128233800Y-80853600D01*
X128233800Y-80553600D01*
X129433800Y-80553600D01*
X129433800Y-80853600D01*
G37*
X129433800Y-81853600D02*
X128233800Y-81853600D01*
X128233800Y-81553600D01*
X129433800Y-81553600D01*
X129433800Y-81853600D01*
G36*
X129433800Y-81853600D02*
G01*
X128233800Y-81853600D01*
X128233800Y-81553600D01*
X129433800Y-81553600D01*
X129433800Y-81853600D01*
G37*
X129433800Y-82853600D02*
X128233800Y-82853600D01*
X128233800Y-82553600D01*
X129433800Y-82553600D01*
X129433800Y-82853600D01*
G36*
X129433800Y-82853600D02*
G01*
X128233800Y-82853600D01*
X128233800Y-82553600D01*
X129433800Y-82553600D01*
X129433800Y-82853600D01*
G37*
X129433800Y-83853600D02*
X128233800Y-83853600D01*
X128233800Y-83553600D01*
X129433800Y-83553600D01*
X129433800Y-83853600D01*
G36*
X129433800Y-83853600D02*
G01*
X128233800Y-83853600D01*
X128233800Y-83553600D01*
X129433800Y-83553600D01*
X129433800Y-83853600D01*
G37*
%TD*%
D11*
%TO.C,R15*%
X136125000Y-54808000D03*
X134300000Y-54808000D03*
%TD*%
D12*
%TO.C,F4*%
X140511600Y-23808000D03*
X149300000Y-23808000D03*
%TD*%
D13*
%TO.C,C28*%
X78076000Y-85368000D03*
X76176000Y-85368000D03*
%TD*%
D11*
%TO.C,R17*%
X135300000Y-32308000D03*
X133475000Y-32308000D03*
%TD*%
D14*
%TO.C,C23*%
X139625000Y-57308000D03*
X139625000Y-59208000D03*
%TD*%
D12*
%TO.C,F2*%
X137011600Y-70308000D03*
X145800000Y-70308000D03*
%TD*%
D15*
%TO.C,C12*%
X161388000Y-110220000D03*
X161388000Y-111770000D03*
%TD*%
D16*
%TO.C,CR4*%
X72767400Y-136128000D03*
D17*
X72767400Y-138668000D03*
D16*
X72767400Y-141208000D03*
D18*
X81644700Y-138668000D03*
%TD*%
D11*
%TO.C,R11*%
X167484000Y-110220000D03*
X165659000Y-110220000D03*
%TD*%
D19*
%TO.C,R5*%
X175070000Y-88055400D03*
X175070000Y-89880400D03*
%TD*%
D20*
%TO.C,C10*%
X72634000Y-75808000D03*
X59134000Y-75808000D03*
%TD*%
D21*
%TO.C,R48*%
X169570000Y-83380400D03*
X169570000Y-81555400D03*
%TD*%
D12*
%TO.C,F3*%
X138011600Y-44808000D03*
X146800000Y-44808000D03*
%TD*%
D22*
%TO.C,C13*%
X139675000Y-54808000D03*
X138125000Y-54808000D03*
%TD*%
D19*
%TO.C,R10*%
X163420000Y-109919000D03*
X163420000Y-111744000D03*
%TD*%
D11*
%TO.C,R12*%
X135125000Y-79808000D03*
X133300000Y-79808000D03*
%TD*%
%TO.C,R13*%
X135125000Y-77308000D03*
X133300000Y-77308000D03*
%TD*%
D19*
%TO.C,R8*%
X165570000Y-94380400D03*
X165570000Y-96205400D03*
%TD*%
%TO.C,R46*%
X168030000Y-94380400D03*
X168030000Y-96205400D03*
%TD*%
D22*
%TO.C,C11*%
X138625000Y-79808000D03*
X137075000Y-79808000D03*
%TD*%
D14*
%TO.C,C2*%
X72644700Y-143372000D03*
X72644700Y-145272000D03*
%TD*%
%TO.C,C21*%
X138975000Y-34908000D03*
X138975000Y-36808000D03*
%TD*%
D23*
%TO.C,C6*%
X114779000Y-90535000D03*
X117729000Y-90535000D03*
%TD*%
D13*
%TO.C,C15*%
X164470000Y-83380400D03*
X162570000Y-83380400D03*
%TD*%
D24*
%TO.C,F1*%
X74520000Y-29380000D03*
X74520000Y-38168400D03*
%TD*%
D21*
%TO.C,R9*%
X173800000Y-83380400D03*
X173800000Y-81555400D03*
%TD*%
D11*
%TO.C,R45*%
X179570000Y-87880400D03*
X177745000Y-87880400D03*
%TD*%
D25*
%TO.C,R47*%
X177570000Y-84880400D03*
X179395000Y-84880400D03*
%TD*%
D14*
%TO.C,C24*%
X138625000Y-82308000D03*
X138625000Y-84208000D03*
%TD*%
D26*
%TO.C,U6*%
X168260000Y-91308000D03*
X169530000Y-91308000D03*
X170800000Y-91308000D03*
X172070000Y-91308000D03*
X172070000Y-86380400D03*
X170800000Y-86380400D03*
X169530000Y-86380400D03*
X168260000Y-86380400D03*
%TD*%
D25*
%TO.C,R36*%
X134650000Y-34808000D03*
X136475000Y-34808000D03*
%TD*%
D23*
%TO.C,C7*%
X115385000Y-65643000D03*
X118335000Y-65643000D03*
%TD*%
%TO.C,C8*%
X117030000Y-46443000D03*
X119980000Y-46443000D03*
%TD*%
D20*
%TO.C,C9*%
X72920000Y-53780000D03*
X59420000Y-53780000D03*
%TD*%
D25*
%TO.C,R32*%
X134800000Y-82308000D03*
X136625000Y-82308000D03*
%TD*%
%TO.C,R35*%
X135625000Y-57308000D03*
X137450000Y-57308000D03*
%TD*%
D11*
%TO.C,R44*%
X78076000Y-87868000D03*
X76251000Y-87868000D03*
%TD*%
%TO.C,R14*%
X136125000Y-52308000D03*
X134300000Y-52308000D03*
%TD*%
D22*
%TO.C,C14*%
X138975000Y-32308000D03*
X137425000Y-32308000D03*
%TD*%
D11*
%TO.C,R16*%
X135300000Y-29808000D03*
X133475000Y-29808000D03*
%TD*%
D25*
%TO.C,R43*%
X76251000Y-82788000D03*
X78076000Y-82788000D03*
%TD*%
D13*
%TO.C,C1*%
X69308000Y-138668000D03*
X67408000Y-138668000D03*
%TD*%
D21*
%TO.C,R18*%
X167070000Y-83380400D03*
X167070000Y-81555400D03*
%TD*%
M02*
