%TF.GenerationSoftware,KiCad,Pcbnew,9.0.0*%
%TF.CreationDate,2025-05-26T21:52:58-04:00*%
%TF.ProjectId,Custom Inverter PCB,43757374-6f6d-4204-996e-766572746572,2*%
%TF.SameCoordinates,Original*%
%TF.FileFunction,Legend,Bot*%
%TF.FilePolarity,Positive*%
%FSLAX46Y46*%
G04 Gerber Fmt 4.6, Leading zero omitted, Abs format (unit mm)*
G04 Created by KiCad (PCBNEW 9.0.0) date 2025-05-26 21:52:58*
%MOMM*%
%LPD*%
G01*
G04 APERTURE LIST*
%ADD10C,0.150000*%
%ADD11C,0.120000*%
%ADD12C,0.152400*%
%ADD13C,0.127000*%
%ADD14C,0.000000*%
G04 APERTURE END LIST*
D10*
X119287166Y-35616819D02*
X119620499Y-35140628D01*
X119858594Y-35616819D02*
X119858594Y-34616819D01*
X119858594Y-34616819D02*
X119477642Y-34616819D01*
X119477642Y-34616819D02*
X119382404Y-34664438D01*
X119382404Y-34664438D02*
X119334785Y-34712057D01*
X119334785Y-34712057D02*
X119287166Y-34807295D01*
X119287166Y-34807295D02*
X119287166Y-34950152D01*
X119287166Y-34950152D02*
X119334785Y-35045390D01*
X119334785Y-35045390D02*
X119382404Y-35093009D01*
X119382404Y-35093009D02*
X119477642Y-35140628D01*
X119477642Y-35140628D02*
X119858594Y-35140628D01*
X118430023Y-34616819D02*
X118620499Y-34616819D01*
X118620499Y-34616819D02*
X118715737Y-34664438D01*
X118715737Y-34664438D02*
X118763356Y-34712057D01*
X118763356Y-34712057D02*
X118858594Y-34854914D01*
X118858594Y-34854914D02*
X118906213Y-35045390D01*
X118906213Y-35045390D02*
X118906213Y-35426342D01*
X118906213Y-35426342D02*
X118858594Y-35521580D01*
X118858594Y-35521580D02*
X118810975Y-35569200D01*
X118810975Y-35569200D02*
X118715737Y-35616819D01*
X118715737Y-35616819D02*
X118525261Y-35616819D01*
X118525261Y-35616819D02*
X118430023Y-35569200D01*
X118430023Y-35569200D02*
X118382404Y-35521580D01*
X118382404Y-35521580D02*
X118334785Y-35426342D01*
X118334785Y-35426342D02*
X118334785Y-35188247D01*
X118334785Y-35188247D02*
X118382404Y-35093009D01*
X118382404Y-35093009D02*
X118430023Y-35045390D01*
X118430023Y-35045390D02*
X118525261Y-34997771D01*
X118525261Y-34997771D02*
X118715737Y-34997771D01*
X118715737Y-34997771D02*
X118810975Y-35045390D01*
X118810975Y-35045390D02*
X118858594Y-35093009D01*
X118858594Y-35093009D02*
X118906213Y-35188247D01*
X130159580Y-70641333D02*
X130207200Y-70593714D01*
X130207200Y-70593714D02*
X130254819Y-70450857D01*
X130254819Y-70450857D02*
X130254819Y-70355619D01*
X130254819Y-70355619D02*
X130207200Y-70212762D01*
X130207200Y-70212762D02*
X130111961Y-70117524D01*
X130111961Y-70117524D02*
X130016723Y-70069905D01*
X130016723Y-70069905D02*
X129826247Y-70022286D01*
X129826247Y-70022286D02*
X129683390Y-70022286D01*
X129683390Y-70022286D02*
X129492914Y-70069905D01*
X129492914Y-70069905D02*
X129397676Y-70117524D01*
X129397676Y-70117524D02*
X129302438Y-70212762D01*
X129302438Y-70212762D02*
X129254819Y-70355619D01*
X129254819Y-70355619D02*
X129254819Y-70450857D01*
X129254819Y-70450857D02*
X129302438Y-70593714D01*
X129302438Y-70593714D02*
X129350057Y-70641333D01*
X130254819Y-71641333D02*
X129778628Y-71308000D01*
X130254819Y-71069905D02*
X129254819Y-71069905D01*
X129254819Y-71069905D02*
X129254819Y-71450857D01*
X129254819Y-71450857D02*
X129302438Y-71546095D01*
X129302438Y-71546095D02*
X129350057Y-71593714D01*
X129350057Y-71593714D02*
X129445295Y-71641333D01*
X129445295Y-71641333D02*
X129588152Y-71641333D01*
X129588152Y-71641333D02*
X129683390Y-71593714D01*
X129683390Y-71593714D02*
X129731009Y-71546095D01*
X129731009Y-71546095D02*
X129778628Y-71450857D01*
X129778628Y-71450857D02*
X129778628Y-71069905D01*
X129350057Y-72022286D02*
X129302438Y-72069905D01*
X129302438Y-72069905D02*
X129254819Y-72165143D01*
X129254819Y-72165143D02*
X129254819Y-72403238D01*
X129254819Y-72403238D02*
X129302438Y-72498476D01*
X129302438Y-72498476D02*
X129350057Y-72546095D01*
X129350057Y-72546095D02*
X129445295Y-72593714D01*
X129445295Y-72593714D02*
X129540533Y-72593714D01*
X129540533Y-72593714D02*
X129683390Y-72546095D01*
X129683390Y-72546095D02*
X130254819Y-71974667D01*
X130254819Y-71974667D02*
X130254819Y-72593714D01*
X130984819Y-69217200D02*
X131222914Y-69217200D01*
X131127676Y-68979105D02*
X131222914Y-69217200D01*
X131222914Y-69217200D02*
X131127676Y-69455295D01*
X131413390Y-69074343D02*
X131222914Y-69217200D01*
X131222914Y-69217200D02*
X131413390Y-69360057D01*
X130984819Y-69217200D02*
X131222914Y-69217200D01*
X131127676Y-68979105D02*
X131222914Y-69217200D01*
X131222914Y-69217200D02*
X131127676Y-69455295D01*
X131413390Y-69074343D02*
X131222914Y-69217200D01*
X131222914Y-69217200D02*
X131413390Y-69360057D01*
X138069580Y-70826333D02*
X138117200Y-70778714D01*
X138117200Y-70778714D02*
X138164819Y-70635857D01*
X138164819Y-70635857D02*
X138164819Y-70540619D01*
X138164819Y-70540619D02*
X138117200Y-70397762D01*
X138117200Y-70397762D02*
X138021961Y-70302524D01*
X138021961Y-70302524D02*
X137926723Y-70254905D01*
X137926723Y-70254905D02*
X137736247Y-70207286D01*
X137736247Y-70207286D02*
X137593390Y-70207286D01*
X137593390Y-70207286D02*
X137402914Y-70254905D01*
X137402914Y-70254905D02*
X137307676Y-70302524D01*
X137307676Y-70302524D02*
X137212438Y-70397762D01*
X137212438Y-70397762D02*
X137164819Y-70540619D01*
X137164819Y-70540619D02*
X137164819Y-70635857D01*
X137164819Y-70635857D02*
X137212438Y-70778714D01*
X137212438Y-70778714D02*
X137260057Y-70826333D01*
X137164819Y-71731095D02*
X137164819Y-71254905D01*
X137164819Y-71254905D02*
X137641009Y-71207286D01*
X137641009Y-71207286D02*
X137593390Y-71254905D01*
X137593390Y-71254905D02*
X137545771Y-71350143D01*
X137545771Y-71350143D02*
X137545771Y-71588238D01*
X137545771Y-71588238D02*
X137593390Y-71683476D01*
X137593390Y-71683476D02*
X137641009Y-71731095D01*
X137641009Y-71731095D02*
X137736247Y-71778714D01*
X137736247Y-71778714D02*
X137974342Y-71778714D01*
X137974342Y-71778714D02*
X138069580Y-71731095D01*
X138069580Y-71731095D02*
X138117200Y-71683476D01*
X138117200Y-71683476D02*
X138164819Y-71588238D01*
X138164819Y-71588238D02*
X138164819Y-71350143D01*
X138164819Y-71350143D02*
X138117200Y-71254905D01*
X138117200Y-71254905D02*
X138069580Y-71207286D01*
X133966666Y-56667580D02*
X134014285Y-56715200D01*
X134014285Y-56715200D02*
X134157142Y-56762819D01*
X134157142Y-56762819D02*
X134252380Y-56762819D01*
X134252380Y-56762819D02*
X134395237Y-56715200D01*
X134395237Y-56715200D02*
X134490475Y-56619961D01*
X134490475Y-56619961D02*
X134538094Y-56524723D01*
X134538094Y-56524723D02*
X134585713Y-56334247D01*
X134585713Y-56334247D02*
X134585713Y-56191390D01*
X134585713Y-56191390D02*
X134538094Y-56000914D01*
X134538094Y-56000914D02*
X134490475Y-55905676D01*
X134490475Y-55905676D02*
X134395237Y-55810438D01*
X134395237Y-55810438D02*
X134252380Y-55762819D01*
X134252380Y-55762819D02*
X134157142Y-55762819D01*
X134157142Y-55762819D02*
X134014285Y-55810438D01*
X134014285Y-55810438D02*
X133966666Y-55858057D01*
X133633332Y-55762819D02*
X133014285Y-55762819D01*
X133014285Y-55762819D02*
X133347618Y-56143771D01*
X133347618Y-56143771D02*
X133204761Y-56143771D01*
X133204761Y-56143771D02*
X133109523Y-56191390D01*
X133109523Y-56191390D02*
X133061904Y-56239009D01*
X133061904Y-56239009D02*
X133014285Y-56334247D01*
X133014285Y-56334247D02*
X133014285Y-56572342D01*
X133014285Y-56572342D02*
X133061904Y-56667580D01*
X133061904Y-56667580D02*
X133109523Y-56715200D01*
X133109523Y-56715200D02*
X133204761Y-56762819D01*
X133204761Y-56762819D02*
X133490475Y-56762819D01*
X133490475Y-56762819D02*
X133585713Y-56715200D01*
X133585713Y-56715200D02*
X133633332Y-56667580D01*
X119497766Y-80373419D02*
X119831099Y-79897228D01*
X120069194Y-80373419D02*
X120069194Y-79373419D01*
X120069194Y-79373419D02*
X119688242Y-79373419D01*
X119688242Y-79373419D02*
X119593004Y-79421038D01*
X119593004Y-79421038D02*
X119545385Y-79468657D01*
X119545385Y-79468657D02*
X119497766Y-79563895D01*
X119497766Y-79563895D02*
X119497766Y-79706752D01*
X119497766Y-79706752D02*
X119545385Y-79801990D01*
X119545385Y-79801990D02*
X119593004Y-79849609D01*
X119593004Y-79849609D02*
X119688242Y-79897228D01*
X119688242Y-79897228D02*
X120069194Y-79897228D01*
X118545385Y-80373419D02*
X119116813Y-80373419D01*
X118831099Y-80373419D02*
X118831099Y-79373419D01*
X118831099Y-79373419D02*
X118926337Y-79516276D01*
X118926337Y-79516276D02*
X119021575Y-79611514D01*
X119021575Y-79611514D02*
X119116813Y-79659133D01*
X83365904Y-115258819D02*
X83365904Y-116068342D01*
X83365904Y-116068342D02*
X83318285Y-116163580D01*
X83318285Y-116163580D02*
X83270666Y-116211200D01*
X83270666Y-116211200D02*
X83175428Y-116258819D01*
X83175428Y-116258819D02*
X82984952Y-116258819D01*
X82984952Y-116258819D02*
X82889714Y-116211200D01*
X82889714Y-116211200D02*
X82842095Y-116163580D01*
X82842095Y-116163580D02*
X82794476Y-116068342D01*
X82794476Y-116068342D02*
X82794476Y-115258819D01*
X81842095Y-115258819D02*
X82318285Y-115258819D01*
X82318285Y-115258819D02*
X82365904Y-115735009D01*
X82365904Y-115735009D02*
X82318285Y-115687390D01*
X82318285Y-115687390D02*
X82223047Y-115639771D01*
X82223047Y-115639771D02*
X81984952Y-115639771D01*
X81984952Y-115639771D02*
X81889714Y-115687390D01*
X81889714Y-115687390D02*
X81842095Y-115735009D01*
X81842095Y-115735009D02*
X81794476Y-115830247D01*
X81794476Y-115830247D02*
X81794476Y-116068342D01*
X81794476Y-116068342D02*
X81842095Y-116163580D01*
X81842095Y-116163580D02*
X81889714Y-116211200D01*
X81889714Y-116211200D02*
X81984952Y-116258819D01*
X81984952Y-116258819D02*
X82223047Y-116258819D01*
X82223047Y-116258819D02*
X82318285Y-116211200D01*
X82318285Y-116211200D02*
X82365904Y-116163580D01*
X139744654Y-68262819D02*
X139744654Y-69072342D01*
X139744654Y-69072342D02*
X139697035Y-69167580D01*
X139697035Y-69167580D02*
X139649416Y-69215200D01*
X139649416Y-69215200D02*
X139554178Y-69262819D01*
X139554178Y-69262819D02*
X139363702Y-69262819D01*
X139363702Y-69262819D02*
X139268464Y-69215200D01*
X139268464Y-69215200D02*
X139220845Y-69167580D01*
X139220845Y-69167580D02*
X139173226Y-69072342D01*
X139173226Y-69072342D02*
X139173226Y-68262819D01*
X138173226Y-69262819D02*
X138744654Y-69262819D01*
X138458940Y-69262819D02*
X138458940Y-68262819D01*
X138458940Y-68262819D02*
X138554178Y-68405676D01*
X138554178Y-68405676D02*
X138649416Y-68500914D01*
X138649416Y-68500914D02*
X138744654Y-68548533D01*
X142189499Y-59149289D02*
X142189499Y-59387384D01*
X142427594Y-59292146D02*
X142189499Y-59387384D01*
X142189499Y-59387384D02*
X141951404Y-59292146D01*
X142332356Y-59577860D02*
X142189499Y-59387384D01*
X142189499Y-59387384D02*
X142046642Y-59577860D01*
X142189499Y-59149289D02*
X142189499Y-59387384D01*
X142427594Y-59292146D02*
X142189499Y-59387384D01*
X142189499Y-59387384D02*
X141951404Y-59292146D01*
X142332356Y-59577860D02*
X142189499Y-59387384D01*
X142189499Y-59387384D02*
X142046642Y-59577860D01*
X127322766Y-82460919D02*
X127656099Y-81984728D01*
X127894194Y-82460919D02*
X127894194Y-81460919D01*
X127894194Y-81460919D02*
X127513242Y-81460919D01*
X127513242Y-81460919D02*
X127418004Y-81508538D01*
X127418004Y-81508538D02*
X127370385Y-81556157D01*
X127370385Y-81556157D02*
X127322766Y-81651395D01*
X127322766Y-81651395D02*
X127322766Y-81794252D01*
X127322766Y-81794252D02*
X127370385Y-81889490D01*
X127370385Y-81889490D02*
X127418004Y-81937109D01*
X127418004Y-81937109D02*
X127513242Y-81984728D01*
X127513242Y-81984728D02*
X127894194Y-81984728D01*
X126941813Y-81556157D02*
X126894194Y-81508538D01*
X126894194Y-81508538D02*
X126798956Y-81460919D01*
X126798956Y-81460919D02*
X126560861Y-81460919D01*
X126560861Y-81460919D02*
X126465623Y-81508538D01*
X126465623Y-81508538D02*
X126418004Y-81556157D01*
X126418004Y-81556157D02*
X126370385Y-81651395D01*
X126370385Y-81651395D02*
X126370385Y-81746633D01*
X126370385Y-81746633D02*
X126418004Y-81889490D01*
X126418004Y-81889490D02*
X126989432Y-82460919D01*
X126989432Y-82460919D02*
X126370385Y-82460919D01*
X122594666Y-53412819D02*
X122927999Y-52936628D01*
X123166094Y-53412819D02*
X123166094Y-52412819D01*
X123166094Y-52412819D02*
X122785142Y-52412819D01*
X122785142Y-52412819D02*
X122689904Y-52460438D01*
X122689904Y-52460438D02*
X122642285Y-52508057D01*
X122642285Y-52508057D02*
X122594666Y-52603295D01*
X122594666Y-52603295D02*
X122594666Y-52746152D01*
X122594666Y-52746152D02*
X122642285Y-52841390D01*
X122642285Y-52841390D02*
X122689904Y-52889009D01*
X122689904Y-52889009D02*
X122785142Y-52936628D01*
X122785142Y-52936628D02*
X123166094Y-52936628D01*
X122261332Y-52412819D02*
X121642285Y-52412819D01*
X121642285Y-52412819D02*
X121975618Y-52793771D01*
X121975618Y-52793771D02*
X121832761Y-52793771D01*
X121832761Y-52793771D02*
X121737523Y-52841390D01*
X121737523Y-52841390D02*
X121689904Y-52889009D01*
X121689904Y-52889009D02*
X121642285Y-52984247D01*
X121642285Y-52984247D02*
X121642285Y-53222342D01*
X121642285Y-53222342D02*
X121689904Y-53317580D01*
X121689904Y-53317580D02*
X121737523Y-53365200D01*
X121737523Y-53365200D02*
X121832761Y-53412819D01*
X121832761Y-53412819D02*
X122118475Y-53412819D01*
X122118475Y-53412819D02*
X122213713Y-53365200D01*
X122213713Y-53365200D02*
X122261332Y-53317580D01*
X129466666Y-65352580D02*
X129514285Y-65400200D01*
X129514285Y-65400200D02*
X129657142Y-65447819D01*
X129657142Y-65447819D02*
X129752380Y-65447819D01*
X129752380Y-65447819D02*
X129895237Y-65400200D01*
X129895237Y-65400200D02*
X129990475Y-65304961D01*
X129990475Y-65304961D02*
X130038094Y-65209723D01*
X130038094Y-65209723D02*
X130085713Y-65019247D01*
X130085713Y-65019247D02*
X130085713Y-64876390D01*
X130085713Y-64876390D02*
X130038094Y-64685914D01*
X130038094Y-64685914D02*
X129990475Y-64590676D01*
X129990475Y-64590676D02*
X129895237Y-64495438D01*
X129895237Y-64495438D02*
X129752380Y-64447819D01*
X129752380Y-64447819D02*
X129657142Y-64447819D01*
X129657142Y-64447819D02*
X129514285Y-64495438D01*
X129514285Y-64495438D02*
X129466666Y-64543057D01*
X128609523Y-64781152D02*
X128609523Y-65447819D01*
X128847618Y-64400200D02*
X129085713Y-65114485D01*
X129085713Y-65114485D02*
X128466666Y-65114485D01*
X127879166Y-57612819D02*
X128212499Y-57136628D01*
X128450594Y-57612819D02*
X128450594Y-56612819D01*
X128450594Y-56612819D02*
X128069642Y-56612819D01*
X128069642Y-56612819D02*
X127974404Y-56660438D01*
X127974404Y-56660438D02*
X127926785Y-56708057D01*
X127926785Y-56708057D02*
X127879166Y-56803295D01*
X127879166Y-56803295D02*
X127879166Y-56946152D01*
X127879166Y-56946152D02*
X127926785Y-57041390D01*
X127926785Y-57041390D02*
X127974404Y-57089009D01*
X127974404Y-57089009D02*
X128069642Y-57136628D01*
X128069642Y-57136628D02*
X128450594Y-57136628D01*
X127022023Y-56946152D02*
X127022023Y-57612819D01*
X127260118Y-56565200D02*
X127498213Y-57279485D01*
X127498213Y-57279485D02*
X126879166Y-57279485D01*
X133485419Y-52764666D02*
X133437800Y-52812285D01*
X133437800Y-52812285D02*
X133390180Y-52955142D01*
X133390180Y-52955142D02*
X133390180Y-53050380D01*
X133390180Y-53050380D02*
X133437800Y-53193237D01*
X133437800Y-53193237D02*
X133533038Y-53288475D01*
X133533038Y-53288475D02*
X133628276Y-53336094D01*
X133628276Y-53336094D02*
X133818752Y-53383713D01*
X133818752Y-53383713D02*
X133961609Y-53383713D01*
X133961609Y-53383713D02*
X134152085Y-53336094D01*
X134152085Y-53336094D02*
X134247323Y-53288475D01*
X134247323Y-53288475D02*
X134342561Y-53193237D01*
X134342561Y-53193237D02*
X134390180Y-53050380D01*
X134390180Y-53050380D02*
X134390180Y-52955142D01*
X134390180Y-52955142D02*
X134342561Y-52812285D01*
X134342561Y-52812285D02*
X134294942Y-52764666D01*
X133390180Y-51764666D02*
X133866371Y-52097999D01*
X133390180Y-52336094D02*
X134390180Y-52336094D01*
X134390180Y-52336094D02*
X134390180Y-51955142D01*
X134390180Y-51955142D02*
X134342561Y-51859904D01*
X134342561Y-51859904D02*
X134294942Y-51812285D01*
X134294942Y-51812285D02*
X134199704Y-51764666D01*
X134199704Y-51764666D02*
X134056847Y-51764666D01*
X134056847Y-51764666D02*
X133961609Y-51812285D01*
X133961609Y-51812285D02*
X133913990Y-51859904D01*
X133913990Y-51859904D02*
X133866371Y-51955142D01*
X133866371Y-51955142D02*
X133866371Y-52336094D01*
X133390180Y-50812285D02*
X133390180Y-51383713D01*
X133390180Y-51097999D02*
X134390180Y-51097999D01*
X134390180Y-51097999D02*
X134247323Y-51193237D01*
X134247323Y-51193237D02*
X134152085Y-51288475D01*
X134152085Y-51288475D02*
X134104466Y-51383713D01*
X137345180Y-54189099D02*
X137107085Y-54189099D01*
X137202323Y-54427194D02*
X137107085Y-54189099D01*
X137107085Y-54189099D02*
X137202323Y-53951004D01*
X136916609Y-54331956D02*
X137107085Y-54189099D01*
X137107085Y-54189099D02*
X136916609Y-54046242D01*
X134729719Y-54200000D02*
X134967814Y-54200000D01*
X134872576Y-53961905D02*
X134967814Y-54200000D01*
X134967814Y-54200000D02*
X134872576Y-54438095D01*
X135158290Y-54057143D02*
X134967814Y-54200000D01*
X134967814Y-54200000D02*
X135158290Y-54342857D01*
X134159580Y-74885433D02*
X134207200Y-74837814D01*
X134207200Y-74837814D02*
X134254819Y-74694957D01*
X134254819Y-74694957D02*
X134254819Y-74599719D01*
X134254819Y-74599719D02*
X134207200Y-74456862D01*
X134207200Y-74456862D02*
X134111961Y-74361624D01*
X134111961Y-74361624D02*
X134016723Y-74314005D01*
X134016723Y-74314005D02*
X133826247Y-74266386D01*
X133826247Y-74266386D02*
X133683390Y-74266386D01*
X133683390Y-74266386D02*
X133492914Y-74314005D01*
X133492914Y-74314005D02*
X133397676Y-74361624D01*
X133397676Y-74361624D02*
X133302438Y-74456862D01*
X133302438Y-74456862D02*
X133254819Y-74599719D01*
X133254819Y-74599719D02*
X133254819Y-74694957D01*
X133254819Y-74694957D02*
X133302438Y-74837814D01*
X133302438Y-74837814D02*
X133350057Y-74885433D01*
X134254819Y-75885433D02*
X133778628Y-75552100D01*
X134254819Y-75314005D02*
X133254819Y-75314005D01*
X133254819Y-75314005D02*
X133254819Y-75694957D01*
X133254819Y-75694957D02*
X133302438Y-75790195D01*
X133302438Y-75790195D02*
X133350057Y-75837814D01*
X133350057Y-75837814D02*
X133445295Y-75885433D01*
X133445295Y-75885433D02*
X133588152Y-75885433D01*
X133588152Y-75885433D02*
X133683390Y-75837814D01*
X133683390Y-75837814D02*
X133731009Y-75790195D01*
X133731009Y-75790195D02*
X133778628Y-75694957D01*
X133778628Y-75694957D02*
X133778628Y-75314005D01*
X133254819Y-76218767D02*
X133254819Y-76837814D01*
X133254819Y-76837814D02*
X133635771Y-76504481D01*
X133635771Y-76504481D02*
X133635771Y-76647338D01*
X133635771Y-76647338D02*
X133683390Y-76742576D01*
X133683390Y-76742576D02*
X133731009Y-76790195D01*
X133731009Y-76790195D02*
X133826247Y-76837814D01*
X133826247Y-76837814D02*
X134064342Y-76837814D01*
X134064342Y-76837814D02*
X134159580Y-76790195D01*
X134159580Y-76790195D02*
X134207200Y-76742576D01*
X134207200Y-76742576D02*
X134254819Y-76647338D01*
X134254819Y-76647338D02*
X134254819Y-76361624D01*
X134254819Y-76361624D02*
X134207200Y-76266386D01*
X134207200Y-76266386D02*
X134159580Y-76218767D01*
X135484819Y-73456600D02*
X135722914Y-73456600D01*
X135627676Y-73218505D02*
X135722914Y-73456600D01*
X135722914Y-73456600D02*
X135627676Y-73694695D01*
X135913390Y-73313743D02*
X135722914Y-73456600D01*
X135722914Y-73456600D02*
X135913390Y-73599457D01*
X135484819Y-73456600D02*
X135722914Y-73456600D01*
X135627676Y-73218505D02*
X135722914Y-73456600D01*
X135722914Y-73456600D02*
X135627676Y-73694695D01*
X135913390Y-73313743D02*
X135722914Y-73456600D01*
X135722914Y-73456600D02*
X135913390Y-73599457D01*
X127166666Y-41476819D02*
X127499999Y-41000628D01*
X127738094Y-41476819D02*
X127738094Y-40476819D01*
X127738094Y-40476819D02*
X127357142Y-40476819D01*
X127357142Y-40476819D02*
X127261904Y-40524438D01*
X127261904Y-40524438D02*
X127214285Y-40572057D01*
X127214285Y-40572057D02*
X127166666Y-40667295D01*
X127166666Y-40667295D02*
X127166666Y-40810152D01*
X127166666Y-40810152D02*
X127214285Y-40905390D01*
X127214285Y-40905390D02*
X127261904Y-40953009D01*
X127261904Y-40953009D02*
X127357142Y-41000628D01*
X127357142Y-41000628D02*
X127738094Y-41000628D01*
X126833332Y-40476819D02*
X126166666Y-40476819D01*
X126166666Y-40476819D02*
X126595237Y-41476819D01*
D11*
%TO.C,R6*%
X118893436Y-32777000D02*
X119347564Y-32777000D01*
X118893436Y-34247000D02*
X119347564Y-34247000D01*
D12*
%TO.C,CR2*%
X130729900Y-72341400D02*
X130729900Y-70284000D01*
X132330100Y-70284000D02*
X132330100Y-72341400D01*
D11*
%TO.C,C5*%
X135295000Y-71254252D02*
X135295000Y-70731748D01*
X136765000Y-71254252D02*
X136765000Y-70731748D01*
%TO.C,C3*%
X135295000Y-56231748D02*
X135295000Y-56754252D01*
X136765000Y-56231748D02*
X136765000Y-56754252D01*
%TO.C,R1*%
X119558164Y-80833600D02*
X119104036Y-80833600D01*
X119558164Y-82303600D02*
X119104036Y-82303600D01*
D13*
%TO.C,U5*%
X37084000Y-96774000D02*
X193294000Y-96774000D01*
X37084000Y-155194000D02*
X37084000Y-96774000D01*
X193294000Y-96774000D02*
X193294000Y-155194000D01*
X193294000Y-155194000D02*
X37084000Y-155194000D01*
D12*
%TO.C,U1*%
X136800183Y-60689007D02*
X141165317Y-60689007D01*
X141165317Y-67547007D02*
X136800183Y-67547007D01*
D14*
G36*
X135071150Y-61383570D02*
G01*
X134817150Y-61383570D01*
X134817150Y-61002570D01*
X135071150Y-61002570D01*
X135071150Y-61383570D01*
G37*
G36*
X143148350Y-67233444D02*
G01*
X142894350Y-67233444D01*
X142894350Y-66852444D01*
X143148350Y-66852444D01*
X143148350Y-67233444D01*
G37*
D11*
%TO.C,R2*%
X127383164Y-82921100D02*
X126929036Y-82921100D01*
X127383164Y-84391100D02*
X126929036Y-84391100D01*
%TO.C,R3*%
X122200936Y-50573000D02*
X122655064Y-50573000D01*
X122200936Y-52043000D02*
X122655064Y-52043000D01*
%TO.C,C4*%
X130795000Y-65254252D02*
X130795000Y-64731748D01*
X132265000Y-65254252D02*
X132265000Y-64731748D01*
%TO.C,R4*%
X127939564Y-58073000D02*
X127485436Y-58073000D01*
X127939564Y-59543000D02*
X127485436Y-59543000D01*
D12*
%TO.C,CR1*%
X135274900Y-53492000D02*
X135274900Y-51434600D01*
X136875100Y-51434600D02*
X136875100Y-53492000D01*
%TO.C,CR3*%
X135229900Y-76580800D02*
X135229900Y-74523400D01*
X136830100Y-74523400D02*
X136830100Y-76580800D01*
D11*
%TO.C,R7*%
X127227064Y-41937000D02*
X126772936Y-41937000D01*
X127227064Y-43407000D02*
X126772936Y-43407000D01*
%TD*%
M02*
