%TF.GenerationSoftware,KiCad,Pcbnew,9.0.0*%
%TF.CreationDate,2025-05-26T21:52:58-04:00*%
%TF.ProjectId,Custom Inverter PCB,43757374-6f6d-4204-996e-766572746572,2*%
%TF.SameCoordinates,Original*%
%TF.FileFunction,Soldermask,Bot*%
%TF.FilePolarity,Negative*%
%FSLAX46Y46*%
G04 Gerber Fmt 4.6, Leading zero omitted, Abs format (unit mm)*
G04 Created by KiCad (PCBNEW 9.0.0) date 2025-05-26 21:52:58*
%MOMM*%
%LPD*%
G01*
G04 APERTURE LIST*
G04 Aperture macros list*
%AMRoundRect*
0 Rectangle with rounded corners*
0 $1 Rounding radius*
0 $2 $3 $4 $5 $6 $7 $8 $9 X,Y pos of 4 corners*
0 Add a 4 corners polygon primitive as box body*
4,1,4,$2,$3,$4,$5,$6,$7,$8,$9,$2,$3,0*
0 Add four circle primitives for the rounded corners*
1,1,$1+$1,$2,$3*
1,1,$1+$1,$4,$5*
1,1,$1+$1,$6,$7*
1,1,$1+$1,$8,$9*
0 Add four rect primitives between the rounded corners*
20,1,$1+$1,$2,$3,$4,$5,0*
20,1,$1+$1,$4,$5,$6,$7,0*
20,1,$1+$1,$6,$7,$8,$9,0*
20,1,$1+$1,$8,$9,$2,$3,0*%
G04 Aperture macros list end*
%ADD10C,1.530000*%
%ADD11R,1.950000X1.950000*%
%ADD12C,1.950000*%
%ADD13R,1.508000X1.508000*%
%ADD14C,1.508000*%
%ADD15R,1.635000X1.635000*%
%ADD16C,1.635000*%
%ADD17C,2.970000*%
%ADD18C,3.076000*%
%ADD19RoundRect,0.250000X-0.262500X-0.450000X0.262500X-0.450000X0.262500X0.450000X-0.262500X0.450000X0*%
%ADD20R,0.457200X1.168400*%
%ADD21RoundRect,0.250000X0.475000X-0.250000X0.475000X0.250000X-0.475000X0.250000X-0.475000X-0.250000X0*%
%ADD22RoundRect,0.250000X-0.475000X0.250000X-0.475000X-0.250000X0.475000X-0.250000X0.475000X0.250000X0*%
%ADD23RoundRect,0.250000X0.262500X0.450000X-0.262500X0.450000X-0.262500X-0.450000X0.262500X-0.450000X0*%
%ADD24C,3.175000*%
%ADD25C,1.524000*%
%ADD26C,1.725000*%
%ADD27R,1.409700X0.355600*%
G04 APERTURE END LIST*
D10*
%TO.C,TP2*%
X117473600Y-78703600D03*
%TD*%
%TO.C,TP5*%
X130030000Y-61443000D03*
%TD*%
%TO.C,TP8*%
X130030000Y-39624000D03*
%TD*%
D11*
%TO.C,J7*%
X86528500Y-74534000D03*
D12*
X96048500Y-74534000D03*
%TD*%
D11*
%TO.C,J1*%
X49850000Y-56250000D03*
D12*
X49850000Y-65770000D03*
%TD*%
D11*
%TO.C,J3*%
X186650000Y-47650500D03*
D12*
X186650000Y-41300500D03*
X186650000Y-34950500D03*
%TD*%
D10*
%TO.C,TP4*%
X129473600Y-86703600D03*
%TD*%
D13*
%TO.C,J6*%
X187500000Y-85020500D03*
D14*
X187500000Y-87520500D03*
X187500000Y-90020500D03*
X187500000Y-92520500D03*
%TD*%
D10*
%TO.C,TP3*%
X117348000Y-53340000D03*
%TD*%
D11*
%TO.C,J8*%
X49900000Y-81080500D03*
D12*
X49900000Y-90600500D03*
%TD*%
D10*
%TO.C,TP7*%
X119030000Y-30893000D03*
%TD*%
%TO.C,TP6*%
X147300000Y-48808000D03*
%TD*%
D15*
%TO.C,K2*%
X86261000Y-60945000D03*
D16*
X96421000Y-60945000D03*
D17*
X82451000Y-48245000D03*
D18*
X100231000Y-45705000D03*
%TD*%
D10*
%TO.C,TP1*%
X145800000Y-74308000D03*
%TD*%
%TO.C,TP9*%
X149800000Y-28808000D03*
%TD*%
D11*
%TO.C,J2*%
X98747500Y-29050000D03*
D12*
X89227500Y-29050000D03*
%TD*%
D19*
%TO.C,R6*%
X118208000Y-33512000D03*
X120033000Y-33512000D03*
%TD*%
D20*
%TO.C,CR2*%
X131530000Y-70182400D03*
X131530000Y-72443000D03*
%TD*%
D21*
%TO.C,C5*%
X136030000Y-71943000D03*
X136030000Y-70043000D03*
%TD*%
D22*
%TO.C,C3*%
X136030000Y-55543000D03*
X136030000Y-57443000D03*
%TD*%
D23*
%TO.C,R1*%
X120243600Y-81568600D03*
X118418600Y-81568600D03*
%TD*%
D24*
%TO.C,U5*%
X190754000Y-99314000D03*
X39624000Y-99314000D03*
X190754000Y-152654000D03*
X39624000Y-152654000D03*
D25*
X87884000Y-103124000D03*
X90424000Y-103124000D03*
X92964000Y-103124000D03*
X95504000Y-103124000D03*
X98044000Y-103124000D03*
X100584000Y-103124000D03*
X103124000Y-103124000D03*
X105664000Y-103124000D03*
X108204000Y-103124000D03*
X110744000Y-103124000D03*
X110744000Y-148844000D03*
X108204000Y-148844000D03*
X105664000Y-148844000D03*
X103124000Y-148844000D03*
X100584000Y-148844000D03*
X98044000Y-148844000D03*
X95504000Y-148844000D03*
X92964000Y-148844000D03*
X90424000Y-148844000D03*
X87884000Y-148844000D03*
X87884000Y-105664000D03*
X90424000Y-105664000D03*
X92964000Y-105664000D03*
X95504000Y-105664000D03*
X98044000Y-105664000D03*
X100584000Y-105664000D03*
X103124000Y-105664000D03*
X105664000Y-105664000D03*
X108204000Y-105664000D03*
X110744000Y-105664000D03*
X110744000Y-146304000D03*
X108204000Y-146304000D03*
X105664000Y-146304000D03*
X103124000Y-146304000D03*
X100584000Y-146304000D03*
X98044000Y-146304000D03*
X95504000Y-146304000D03*
X92964000Y-146304000D03*
X90424000Y-146304000D03*
X87884000Y-146304000D03*
X151384000Y-103124000D03*
X153924000Y-103124000D03*
X156464000Y-103124000D03*
X159004000Y-103124000D03*
X161544000Y-103124000D03*
X164084000Y-103124000D03*
X166624000Y-103124000D03*
X169164000Y-103124000D03*
X171704000Y-103124000D03*
X174244000Y-103124000D03*
X174244000Y-148844000D03*
X171704000Y-148844000D03*
X169164000Y-148844000D03*
X166624000Y-148844000D03*
X164084000Y-148844000D03*
X161544000Y-148844000D03*
X159004000Y-148844000D03*
X156464000Y-148844000D03*
X153924000Y-148844000D03*
X151384000Y-148844000D03*
X151384000Y-105664000D03*
X153924000Y-105664000D03*
X156464000Y-105664000D03*
X159004000Y-105664000D03*
X161544000Y-105664000D03*
X164084000Y-105664000D03*
X166624000Y-105664000D03*
X169164000Y-105664000D03*
X171704000Y-105664000D03*
X174244000Y-105664000D03*
X174244000Y-146304000D03*
X171704000Y-146304000D03*
X169164000Y-146304000D03*
X166624000Y-146304000D03*
X164084000Y-146304000D03*
X161544000Y-146304000D03*
X159004000Y-146304000D03*
X156464000Y-146304000D03*
X153924000Y-146304000D03*
X151384000Y-146304000D03*
X133604000Y-146304000D03*
X133604000Y-148844000D03*
X136144000Y-146304000D03*
X136144000Y-148844000D03*
X138684000Y-146304000D03*
X138684000Y-148844000D03*
X141224000Y-146304000D03*
X141224000Y-148844000D03*
X143764000Y-146304000D03*
X143764000Y-148844000D03*
X186918600Y-133604000D03*
X186944000Y-131064000D03*
X186944000Y-128524000D03*
X186944000Y-125984000D03*
X186944000Y-123444000D03*
X186918600Y-118364000D03*
X186944000Y-115824000D03*
X186944000Y-113284000D03*
X186944000Y-110744000D03*
X186944000Y-108204000D03*
D26*
X186944000Y-143764000D03*
X186944000Y-141224000D03*
X186944000Y-138684000D03*
X128524000Y-103124000D03*
X131064000Y-103124000D03*
X120904000Y-148844000D03*
X118364000Y-148844000D03*
X115824000Y-148844000D03*
X120904000Y-103124000D03*
X118364000Y-103124000D03*
X115824000Y-103124000D03*
X184404000Y-148844000D03*
X181864000Y-148844000D03*
X179324000Y-148844000D03*
X184404000Y-103124000D03*
X181864000Y-103124000D03*
X179324000Y-103124000D03*
%TD*%
D27*
%TO.C,U1*%
X141935500Y-61193070D03*
X141935500Y-61843056D03*
X141935500Y-62493042D03*
X141935500Y-63143028D03*
X141935500Y-63793014D03*
X141935500Y-64443000D03*
X141935500Y-65092986D03*
X141935500Y-65742972D03*
X141935500Y-66392958D03*
X141935500Y-67042944D03*
X136030000Y-67042944D03*
X136030000Y-66392958D03*
X136030000Y-65742972D03*
X136030000Y-65092986D03*
X136030000Y-64443000D03*
X136030000Y-63793014D03*
X136030000Y-63143028D03*
X136030000Y-62493042D03*
X136030000Y-61843056D03*
X136030000Y-61193070D03*
%TD*%
D23*
%TO.C,R2*%
X128068600Y-83656100D03*
X126243600Y-83656100D03*
%TD*%
D19*
%TO.C,R3*%
X121515500Y-51308000D03*
X123340500Y-51308000D03*
%TD*%
D21*
%TO.C,C4*%
X131530000Y-65943000D03*
X131530000Y-64043000D03*
%TD*%
D23*
%TO.C,R4*%
X128625000Y-58808000D03*
X126800000Y-58808000D03*
%TD*%
D20*
%TO.C,CR1*%
X136075000Y-53593600D03*
X136075000Y-51333000D03*
%TD*%
%TO.C,CR3*%
X136030000Y-74421800D03*
X136030000Y-76682400D03*
%TD*%
D23*
%TO.C,R7*%
X127912500Y-42672000D03*
X126087500Y-42672000D03*
%TD*%
M02*
