%TF.GenerationSoftware,KiCad,Pcbnew,9.0.0*%
%TF.CreationDate,2025-05-26T21:52:58-04:00*%
%TF.ProjectId,Custom Inverter PCB,43757374-6f6d-4204-996e-766572746572,2*%
%TF.SameCoordinates,Original*%
%TF.FileFunction,Legend,Top*%
%TF.FilePolarity,Positive*%
%FSLAX46Y46*%
G04 Gerber Fmt 4.6, Leading zero omitted, Abs format (unit mm)*
G04 Created by KiCad (PCBNEW 9.0.0) date 2025-05-26 21:52:58*
%MOMM*%
%LPD*%
G01*
G04 APERTURE LIST*
%ADD10C,0.200000*%
%ADD11C,0.300000*%
%ADD12C,0.150000*%
%ADD13C,0.120000*%
%ADD14C,0.127000*%
%ADD15C,0.152400*%
G04 APERTURE END LIST*
D10*
X40237494Y-55150625D02*
X40318446Y-54998244D01*
X40318446Y-54998244D02*
X40318446Y-54769673D01*
X40318446Y-54769673D02*
X40237494Y-54541101D01*
X40237494Y-54541101D02*
X40075589Y-54388720D01*
X40075589Y-54388720D02*
X39913684Y-54312530D01*
X39913684Y-54312530D02*
X39589875Y-54236339D01*
X39589875Y-54236339D02*
X39347018Y-54236339D01*
X39347018Y-54236339D02*
X39023208Y-54312530D01*
X39023208Y-54312530D02*
X38861303Y-54388720D01*
X38861303Y-54388720D02*
X38699399Y-54541101D01*
X38699399Y-54541101D02*
X38618446Y-54769673D01*
X38618446Y-54769673D02*
X38618446Y-54922054D01*
X38618446Y-54922054D02*
X38699399Y-55150625D01*
X38699399Y-55150625D02*
X38780351Y-55226816D01*
X38780351Y-55226816D02*
X39347018Y-55226816D01*
X39347018Y-55226816D02*
X39347018Y-54922054D01*
X38618446Y-55912530D02*
X40318446Y-55912530D01*
X40318446Y-55912530D02*
X38618446Y-56826816D01*
X38618446Y-56826816D02*
X40318446Y-56826816D01*
X38618446Y-57588720D02*
X40318446Y-57588720D01*
X40318446Y-57588720D02*
X40318446Y-57969672D01*
X40318446Y-57969672D02*
X40237494Y-58198244D01*
X40237494Y-58198244D02*
X40075589Y-58350625D01*
X40075589Y-58350625D02*
X39913684Y-58426815D01*
X39913684Y-58426815D02*
X39589875Y-58503006D01*
X39589875Y-58503006D02*
X39347018Y-58503006D01*
X39347018Y-58503006D02*
X39023208Y-58426815D01*
X39023208Y-58426815D02*
X38861303Y-58350625D01*
X38861303Y-58350625D02*
X38699399Y-58198244D01*
X38699399Y-58198244D02*
X38618446Y-57969672D01*
X38618446Y-57969672D02*
X38618446Y-57588720D01*
D11*
X38584021Y-144192855D02*
X38512593Y-144121427D01*
X38512593Y-144121427D02*
X38441164Y-143978570D01*
X38441164Y-143978570D02*
X38441164Y-143621427D01*
X38441164Y-143621427D02*
X38512593Y-143478570D01*
X38512593Y-143478570D02*
X38584021Y-143407141D01*
X38584021Y-143407141D02*
X38726878Y-143335712D01*
X38726878Y-143335712D02*
X38869736Y-143335712D01*
X38869736Y-143335712D02*
X39084021Y-143407141D01*
X39084021Y-143407141D02*
X39941164Y-144264284D01*
X39941164Y-144264284D02*
X39941164Y-143335712D01*
X38441164Y-142407141D02*
X38441164Y-142264284D01*
X38441164Y-142264284D02*
X38512593Y-142121427D01*
X38512593Y-142121427D02*
X38584021Y-142049999D01*
X38584021Y-142049999D02*
X38726878Y-141978570D01*
X38726878Y-141978570D02*
X39012593Y-141907141D01*
X39012593Y-141907141D02*
X39369736Y-141907141D01*
X39369736Y-141907141D02*
X39655450Y-141978570D01*
X39655450Y-141978570D02*
X39798307Y-142049999D01*
X39798307Y-142049999D02*
X39869736Y-142121427D01*
X39869736Y-142121427D02*
X39941164Y-142264284D01*
X39941164Y-142264284D02*
X39941164Y-142407141D01*
X39941164Y-142407141D02*
X39869736Y-142549999D01*
X39869736Y-142549999D02*
X39798307Y-142621427D01*
X39798307Y-142621427D02*
X39655450Y-142692856D01*
X39655450Y-142692856D02*
X39369736Y-142764284D01*
X39369736Y-142764284D02*
X39012593Y-142764284D01*
X39012593Y-142764284D02*
X38726878Y-142692856D01*
X38726878Y-142692856D02*
X38584021Y-142621427D01*
X38584021Y-142621427D02*
X38512593Y-142549999D01*
X38512593Y-142549999D02*
X38441164Y-142407141D01*
X38584021Y-141335713D02*
X38512593Y-141264285D01*
X38512593Y-141264285D02*
X38441164Y-141121428D01*
X38441164Y-141121428D02*
X38441164Y-140764285D01*
X38441164Y-140764285D02*
X38512593Y-140621428D01*
X38512593Y-140621428D02*
X38584021Y-140549999D01*
X38584021Y-140549999D02*
X38726878Y-140478570D01*
X38726878Y-140478570D02*
X38869736Y-140478570D01*
X38869736Y-140478570D02*
X39084021Y-140549999D01*
X39084021Y-140549999D02*
X39941164Y-141407142D01*
X39941164Y-141407142D02*
X39941164Y-140478570D01*
X38441164Y-139121428D02*
X38441164Y-139835714D01*
X38441164Y-139835714D02*
X39155450Y-139907142D01*
X39155450Y-139907142D02*
X39084021Y-139835714D01*
X39084021Y-139835714D02*
X39012593Y-139692857D01*
X39012593Y-139692857D02*
X39012593Y-139335714D01*
X39012593Y-139335714D02*
X39084021Y-139192857D01*
X39084021Y-139192857D02*
X39155450Y-139121428D01*
X39155450Y-139121428D02*
X39298307Y-139049999D01*
X39298307Y-139049999D02*
X39655450Y-139049999D01*
X39655450Y-139049999D02*
X39798307Y-139121428D01*
X39798307Y-139121428D02*
X39869736Y-139192857D01*
X39869736Y-139192857D02*
X39941164Y-139335714D01*
X39941164Y-139335714D02*
X39941164Y-139692857D01*
X39941164Y-139692857D02*
X39869736Y-139835714D01*
X39869736Y-139835714D02*
X39798307Y-139907142D01*
X39798307Y-136407143D02*
X39869736Y-136478571D01*
X39869736Y-136478571D02*
X39941164Y-136692857D01*
X39941164Y-136692857D02*
X39941164Y-136835714D01*
X39941164Y-136835714D02*
X39869736Y-137050000D01*
X39869736Y-137050000D02*
X39726878Y-137192857D01*
X39726878Y-137192857D02*
X39584021Y-137264286D01*
X39584021Y-137264286D02*
X39298307Y-137335714D01*
X39298307Y-137335714D02*
X39084021Y-137335714D01*
X39084021Y-137335714D02*
X38798307Y-137264286D01*
X38798307Y-137264286D02*
X38655450Y-137192857D01*
X38655450Y-137192857D02*
X38512593Y-137050000D01*
X38512593Y-137050000D02*
X38441164Y-136835714D01*
X38441164Y-136835714D02*
X38441164Y-136692857D01*
X38441164Y-136692857D02*
X38512593Y-136478571D01*
X38512593Y-136478571D02*
X38584021Y-136407143D01*
X38441164Y-135764286D02*
X39655450Y-135764286D01*
X39655450Y-135764286D02*
X39798307Y-135692857D01*
X39798307Y-135692857D02*
X39869736Y-135621429D01*
X39869736Y-135621429D02*
X39941164Y-135478571D01*
X39941164Y-135478571D02*
X39941164Y-135192857D01*
X39941164Y-135192857D02*
X39869736Y-135050000D01*
X39869736Y-135050000D02*
X39798307Y-134978571D01*
X39798307Y-134978571D02*
X39655450Y-134907143D01*
X39655450Y-134907143D02*
X38441164Y-134907143D01*
X39869736Y-134264285D02*
X39941164Y-134050000D01*
X39941164Y-134050000D02*
X39941164Y-133692857D01*
X39941164Y-133692857D02*
X39869736Y-133550000D01*
X39869736Y-133550000D02*
X39798307Y-133478571D01*
X39798307Y-133478571D02*
X39655450Y-133407142D01*
X39655450Y-133407142D02*
X39512593Y-133407142D01*
X39512593Y-133407142D02*
X39369736Y-133478571D01*
X39369736Y-133478571D02*
X39298307Y-133550000D01*
X39298307Y-133550000D02*
X39226878Y-133692857D01*
X39226878Y-133692857D02*
X39155450Y-133978571D01*
X39155450Y-133978571D02*
X39084021Y-134121428D01*
X39084021Y-134121428D02*
X39012593Y-134192857D01*
X39012593Y-134192857D02*
X38869736Y-134264285D01*
X38869736Y-134264285D02*
X38726878Y-134264285D01*
X38726878Y-134264285D02*
X38584021Y-134192857D01*
X38584021Y-134192857D02*
X38512593Y-134121428D01*
X38512593Y-134121428D02*
X38441164Y-133978571D01*
X38441164Y-133978571D02*
X38441164Y-133621428D01*
X38441164Y-133621428D02*
X38512593Y-133407142D01*
X38441164Y-132978571D02*
X38441164Y-132121429D01*
X39941164Y-132550000D02*
X38441164Y-132550000D01*
X38441164Y-131335714D02*
X38441164Y-131050000D01*
X38441164Y-131050000D02*
X38512593Y-130907143D01*
X38512593Y-130907143D02*
X38655450Y-130764286D01*
X38655450Y-130764286D02*
X38941164Y-130692857D01*
X38941164Y-130692857D02*
X39441164Y-130692857D01*
X39441164Y-130692857D02*
X39726878Y-130764286D01*
X39726878Y-130764286D02*
X39869736Y-130907143D01*
X39869736Y-130907143D02*
X39941164Y-131050000D01*
X39941164Y-131050000D02*
X39941164Y-131335714D01*
X39941164Y-131335714D02*
X39869736Y-131478572D01*
X39869736Y-131478572D02*
X39726878Y-131621429D01*
X39726878Y-131621429D02*
X39441164Y-131692857D01*
X39441164Y-131692857D02*
X38941164Y-131692857D01*
X38941164Y-131692857D02*
X38655450Y-131621429D01*
X38655450Y-131621429D02*
X38512593Y-131478572D01*
X38512593Y-131478572D02*
X38441164Y-131335714D01*
X39941164Y-130050000D02*
X38441164Y-130050000D01*
X38441164Y-130050000D02*
X39512593Y-129550000D01*
X39512593Y-129550000D02*
X38441164Y-129050000D01*
X38441164Y-129050000D02*
X39941164Y-129050000D01*
X39941164Y-127192857D02*
X38441164Y-127192857D01*
X39941164Y-126478571D02*
X38441164Y-126478571D01*
X38441164Y-126478571D02*
X39941164Y-125621428D01*
X39941164Y-125621428D02*
X38441164Y-125621428D01*
X38441164Y-125121427D02*
X39941164Y-124621427D01*
X39941164Y-124621427D02*
X38441164Y-124121427D01*
X39155450Y-123621428D02*
X39155450Y-123121428D01*
X39941164Y-122907142D02*
X39941164Y-123621428D01*
X39941164Y-123621428D02*
X38441164Y-123621428D01*
X38441164Y-123621428D02*
X38441164Y-122907142D01*
X39941164Y-121407142D02*
X39226878Y-121907142D01*
X39941164Y-122264285D02*
X38441164Y-122264285D01*
X38441164Y-122264285D02*
X38441164Y-121692856D01*
X38441164Y-121692856D02*
X38512593Y-121549999D01*
X38512593Y-121549999D02*
X38584021Y-121478570D01*
X38584021Y-121478570D02*
X38726878Y-121407142D01*
X38726878Y-121407142D02*
X38941164Y-121407142D01*
X38941164Y-121407142D02*
X39084021Y-121478570D01*
X39084021Y-121478570D02*
X39155450Y-121549999D01*
X39155450Y-121549999D02*
X39226878Y-121692856D01*
X39226878Y-121692856D02*
X39226878Y-122264285D01*
X38441164Y-120978570D02*
X38441164Y-120121428D01*
X39941164Y-120549999D02*
X38441164Y-120549999D01*
X39155450Y-119621428D02*
X39155450Y-119121428D01*
X39941164Y-118907142D02*
X39941164Y-119621428D01*
X39941164Y-119621428D02*
X38441164Y-119621428D01*
X38441164Y-119621428D02*
X38441164Y-118907142D01*
X39941164Y-117407142D02*
X39226878Y-117907142D01*
X39941164Y-118264285D02*
X38441164Y-118264285D01*
X38441164Y-118264285D02*
X38441164Y-117692856D01*
X38441164Y-117692856D02*
X38512593Y-117549999D01*
X38512593Y-117549999D02*
X38584021Y-117478570D01*
X38584021Y-117478570D02*
X38726878Y-117407142D01*
X38726878Y-117407142D02*
X38941164Y-117407142D01*
X38941164Y-117407142D02*
X39084021Y-117478570D01*
X39084021Y-117478570D02*
X39155450Y-117549999D01*
X39155450Y-117549999D02*
X39226878Y-117692856D01*
X39226878Y-117692856D02*
X39226878Y-118264285D01*
X38441164Y-115835713D02*
X39941164Y-115335713D01*
X39941164Y-115335713D02*
X38441164Y-114835713D01*
X38584021Y-114407142D02*
X38512593Y-114335714D01*
X38512593Y-114335714D02*
X38441164Y-114192857D01*
X38441164Y-114192857D02*
X38441164Y-113835714D01*
X38441164Y-113835714D02*
X38512593Y-113692857D01*
X38512593Y-113692857D02*
X38584021Y-113621428D01*
X38584021Y-113621428D02*
X38726878Y-113549999D01*
X38726878Y-113549999D02*
X38869736Y-113549999D01*
X38869736Y-113549999D02*
X39084021Y-113621428D01*
X39084021Y-113621428D02*
X39941164Y-114478571D01*
X39941164Y-114478571D02*
X39941164Y-113549999D01*
X39798307Y-112907143D02*
X39869736Y-112835714D01*
X39869736Y-112835714D02*
X39941164Y-112907143D01*
X39941164Y-112907143D02*
X39869736Y-112978571D01*
X39869736Y-112978571D02*
X39798307Y-112907143D01*
X39798307Y-112907143D02*
X39941164Y-112907143D01*
X39941164Y-111407142D02*
X39941164Y-112264285D01*
X39941164Y-111835714D02*
X38441164Y-111835714D01*
X38441164Y-111835714D02*
X38655450Y-111978571D01*
X38655450Y-111978571D02*
X38798307Y-112121428D01*
X38798307Y-112121428D02*
X38869736Y-112264285D01*
X42356080Y-132692857D02*
X40856080Y-132692857D01*
X40856080Y-132692857D02*
X41927509Y-132192857D01*
X41927509Y-132192857D02*
X40856080Y-131692857D01*
X40856080Y-131692857D02*
X42356080Y-131692857D01*
X42213223Y-130978571D02*
X42284652Y-130907142D01*
X42284652Y-130907142D02*
X42356080Y-130978571D01*
X42356080Y-130978571D02*
X42284652Y-131049999D01*
X42284652Y-131049999D02*
X42213223Y-130978571D01*
X42213223Y-130978571D02*
X42356080Y-130978571D01*
X42356080Y-130264285D02*
X40856080Y-130264285D01*
X40856080Y-130264285D02*
X42356080Y-129407142D01*
X42356080Y-129407142D02*
X40856080Y-129407142D01*
X41356080Y-128049999D02*
X42570366Y-128049999D01*
X42570366Y-128049999D02*
X42713223Y-128121427D01*
X42713223Y-128121427D02*
X42784652Y-128192856D01*
X42784652Y-128192856D02*
X42856080Y-128335713D01*
X42856080Y-128335713D02*
X42856080Y-128549999D01*
X42856080Y-128549999D02*
X42784652Y-128692856D01*
X42284652Y-128049999D02*
X42356080Y-128192856D01*
X42356080Y-128192856D02*
X42356080Y-128478570D01*
X42356080Y-128478570D02*
X42284652Y-128621427D01*
X42284652Y-128621427D02*
X42213223Y-128692856D01*
X42213223Y-128692856D02*
X42070366Y-128764284D01*
X42070366Y-128764284D02*
X41641794Y-128764284D01*
X41641794Y-128764284D02*
X41498937Y-128692856D01*
X41498937Y-128692856D02*
X41427509Y-128621427D01*
X41427509Y-128621427D02*
X41356080Y-128478570D01*
X41356080Y-128478570D02*
X41356080Y-128192856D01*
X41356080Y-128192856D02*
X41427509Y-128049999D01*
X41356080Y-126692856D02*
X42356080Y-126692856D01*
X41356080Y-127335713D02*
X42141794Y-127335713D01*
X42141794Y-127335713D02*
X42284652Y-127264284D01*
X42284652Y-127264284D02*
X42356080Y-127121427D01*
X42356080Y-127121427D02*
X42356080Y-126907141D01*
X42356080Y-126907141D02*
X42284652Y-126764284D01*
X42284652Y-126764284D02*
X42213223Y-126692856D01*
X41356080Y-126121427D02*
X42356080Y-125764284D01*
X41356080Y-125407141D02*
X42356080Y-125764284D01*
X42356080Y-125764284D02*
X42713223Y-125907141D01*
X42713223Y-125907141D02*
X42784652Y-125978570D01*
X42784652Y-125978570D02*
X42856080Y-126121427D01*
X42284652Y-124264284D02*
X42356080Y-124407141D01*
X42356080Y-124407141D02*
X42356080Y-124692856D01*
X42356080Y-124692856D02*
X42284652Y-124835713D01*
X42284652Y-124835713D02*
X42141794Y-124907141D01*
X42141794Y-124907141D02*
X41570366Y-124907141D01*
X41570366Y-124907141D02*
X41427509Y-124835713D01*
X41427509Y-124835713D02*
X41356080Y-124692856D01*
X41356080Y-124692856D02*
X41356080Y-124407141D01*
X41356080Y-124407141D02*
X41427509Y-124264284D01*
X41427509Y-124264284D02*
X41570366Y-124192856D01*
X41570366Y-124192856D02*
X41713223Y-124192856D01*
X41713223Y-124192856D02*
X41856080Y-124907141D01*
X41356080Y-123549999D02*
X42356080Y-123549999D01*
X41498937Y-123549999D02*
X41427509Y-123478570D01*
X41427509Y-123478570D02*
X41356080Y-123335713D01*
X41356080Y-123335713D02*
X41356080Y-123121427D01*
X41356080Y-123121427D02*
X41427509Y-122978570D01*
X41427509Y-122978570D02*
X41570366Y-122907142D01*
X41570366Y-122907142D02*
X42356080Y-122907142D01*
X44628139Y-131728571D02*
X44699568Y-131799999D01*
X44699568Y-131799999D02*
X44770996Y-132014285D01*
X44770996Y-132014285D02*
X44770996Y-132157142D01*
X44770996Y-132157142D02*
X44699568Y-132371428D01*
X44699568Y-132371428D02*
X44556710Y-132514285D01*
X44556710Y-132514285D02*
X44413853Y-132585714D01*
X44413853Y-132585714D02*
X44128139Y-132657142D01*
X44128139Y-132657142D02*
X43913853Y-132657142D01*
X43913853Y-132657142D02*
X43628139Y-132585714D01*
X43628139Y-132585714D02*
X43485282Y-132514285D01*
X43485282Y-132514285D02*
X43342425Y-132371428D01*
X43342425Y-132371428D02*
X43270996Y-132157142D01*
X43270996Y-132157142D02*
X43270996Y-132014285D01*
X43270996Y-132014285D02*
X43342425Y-131799999D01*
X43342425Y-131799999D02*
X43413853Y-131728571D01*
X44628139Y-131085714D02*
X44699568Y-131014285D01*
X44699568Y-131014285D02*
X44770996Y-131085714D01*
X44770996Y-131085714D02*
X44699568Y-131157142D01*
X44699568Y-131157142D02*
X44628139Y-131085714D01*
X44628139Y-131085714D02*
X44770996Y-131085714D01*
X43270996Y-130085713D02*
X43270996Y-129799999D01*
X43270996Y-129799999D02*
X43342425Y-129657142D01*
X43342425Y-129657142D02*
X43485282Y-129514285D01*
X43485282Y-129514285D02*
X43770996Y-129442856D01*
X43770996Y-129442856D02*
X44270996Y-129442856D01*
X44270996Y-129442856D02*
X44556710Y-129514285D01*
X44556710Y-129514285D02*
X44699568Y-129657142D01*
X44699568Y-129657142D02*
X44770996Y-129799999D01*
X44770996Y-129799999D02*
X44770996Y-130085713D01*
X44770996Y-130085713D02*
X44699568Y-130228571D01*
X44699568Y-130228571D02*
X44556710Y-130371428D01*
X44556710Y-130371428D02*
X44270996Y-130442856D01*
X44270996Y-130442856D02*
X43770996Y-130442856D01*
X43770996Y-130442856D02*
X43485282Y-130371428D01*
X43485282Y-130371428D02*
X43342425Y-130228571D01*
X43342425Y-130228571D02*
X43270996Y-130085713D01*
X43270996Y-128728570D02*
X43556710Y-128871427D01*
X43985282Y-127585713D02*
X44056710Y-127371427D01*
X44056710Y-127371427D02*
X44128139Y-127299998D01*
X44128139Y-127299998D02*
X44270996Y-127228570D01*
X44270996Y-127228570D02*
X44485282Y-127228570D01*
X44485282Y-127228570D02*
X44628139Y-127299998D01*
X44628139Y-127299998D02*
X44699568Y-127371427D01*
X44699568Y-127371427D02*
X44770996Y-127514284D01*
X44770996Y-127514284D02*
X44770996Y-128085713D01*
X44770996Y-128085713D02*
X43270996Y-128085713D01*
X43270996Y-128085713D02*
X43270996Y-127585713D01*
X43270996Y-127585713D02*
X43342425Y-127442856D01*
X43342425Y-127442856D02*
X43413853Y-127371427D01*
X43413853Y-127371427D02*
X43556710Y-127299998D01*
X43556710Y-127299998D02*
X43699568Y-127299998D01*
X43699568Y-127299998D02*
X43842425Y-127371427D01*
X43842425Y-127371427D02*
X43913853Y-127442856D01*
X43913853Y-127442856D02*
X43985282Y-127585713D01*
X43985282Y-127585713D02*
X43985282Y-128085713D01*
X44770996Y-126585713D02*
X43770996Y-126585713D01*
X44056710Y-126585713D02*
X43913853Y-126514284D01*
X43913853Y-126514284D02*
X43842425Y-126442856D01*
X43842425Y-126442856D02*
X43770996Y-126299998D01*
X43770996Y-126299998D02*
X43770996Y-126157141D01*
X44770996Y-125657142D02*
X43770996Y-125657142D01*
X43270996Y-125657142D02*
X43342425Y-125728570D01*
X43342425Y-125728570D02*
X43413853Y-125657142D01*
X43413853Y-125657142D02*
X43342425Y-125585713D01*
X43342425Y-125585713D02*
X43270996Y-125657142D01*
X43270996Y-125657142D02*
X43413853Y-125657142D01*
X44699568Y-124371427D02*
X44770996Y-124514284D01*
X44770996Y-124514284D02*
X44770996Y-124799999D01*
X44770996Y-124799999D02*
X44699568Y-124942856D01*
X44699568Y-124942856D02*
X44556710Y-125014284D01*
X44556710Y-125014284D02*
X43985282Y-125014284D01*
X43985282Y-125014284D02*
X43842425Y-124942856D01*
X43842425Y-124942856D02*
X43770996Y-124799999D01*
X43770996Y-124799999D02*
X43770996Y-124514284D01*
X43770996Y-124514284D02*
X43842425Y-124371427D01*
X43842425Y-124371427D02*
X43985282Y-124299999D01*
X43985282Y-124299999D02*
X44128139Y-124299999D01*
X44128139Y-124299999D02*
X44270996Y-125014284D01*
X43770996Y-123657142D02*
X44770996Y-123657142D01*
X43913853Y-123657142D02*
X43842425Y-123585713D01*
X43842425Y-123585713D02*
X43770996Y-123442856D01*
X43770996Y-123442856D02*
X43770996Y-123228570D01*
X43770996Y-123228570D02*
X43842425Y-123085713D01*
X43842425Y-123085713D02*
X43985282Y-123014285D01*
X43985282Y-123014285D02*
X44770996Y-123014285D01*
X47185912Y-132335714D02*
X45685912Y-132335714D01*
X45685912Y-132335714D02*
X45685912Y-131978571D01*
X45685912Y-131978571D02*
X45757341Y-131764285D01*
X45757341Y-131764285D02*
X45900198Y-131621428D01*
X45900198Y-131621428D02*
X46043055Y-131549999D01*
X46043055Y-131549999D02*
X46328769Y-131478571D01*
X46328769Y-131478571D02*
X46543055Y-131478571D01*
X46543055Y-131478571D02*
X46828769Y-131549999D01*
X46828769Y-131549999D02*
X46971626Y-131621428D01*
X46971626Y-131621428D02*
X47114484Y-131764285D01*
X47114484Y-131764285D02*
X47185912Y-131978571D01*
X47185912Y-131978571D02*
X47185912Y-132335714D01*
X47043055Y-130835714D02*
X47114484Y-130764285D01*
X47114484Y-130764285D02*
X47185912Y-130835714D01*
X47185912Y-130835714D02*
X47114484Y-130907142D01*
X47114484Y-130907142D02*
X47043055Y-130835714D01*
X47043055Y-130835714D02*
X47185912Y-130835714D01*
X47185912Y-130121428D02*
X45685912Y-130121428D01*
X45685912Y-130121428D02*
X45685912Y-129549999D01*
X45685912Y-129549999D02*
X45757341Y-129407142D01*
X45757341Y-129407142D02*
X45828769Y-129335713D01*
X45828769Y-129335713D02*
X45971626Y-129264285D01*
X45971626Y-129264285D02*
X46185912Y-129264285D01*
X46185912Y-129264285D02*
X46328769Y-129335713D01*
X46328769Y-129335713D02*
X46400198Y-129407142D01*
X46400198Y-129407142D02*
X46471626Y-129549999D01*
X46471626Y-129549999D02*
X46471626Y-130121428D01*
X47185912Y-128407142D02*
X47114484Y-128549999D01*
X47114484Y-128549999D02*
X47043055Y-128621428D01*
X47043055Y-128621428D02*
X46900198Y-128692856D01*
X46900198Y-128692856D02*
X46471626Y-128692856D01*
X46471626Y-128692856D02*
X46328769Y-128621428D01*
X46328769Y-128621428D02*
X46257341Y-128549999D01*
X46257341Y-128549999D02*
X46185912Y-128407142D01*
X46185912Y-128407142D02*
X46185912Y-128192856D01*
X46185912Y-128192856D02*
X46257341Y-128049999D01*
X46257341Y-128049999D02*
X46328769Y-127978571D01*
X46328769Y-127978571D02*
X46471626Y-127907142D01*
X46471626Y-127907142D02*
X46900198Y-127907142D01*
X46900198Y-127907142D02*
X47043055Y-127978571D01*
X47043055Y-127978571D02*
X47114484Y-128049999D01*
X47114484Y-128049999D02*
X47185912Y-128192856D01*
X47185912Y-128192856D02*
X47185912Y-128407142D01*
X47114484Y-127335713D02*
X47185912Y-127192856D01*
X47185912Y-127192856D02*
X47185912Y-126907142D01*
X47185912Y-126907142D02*
X47114484Y-126764285D01*
X47114484Y-126764285D02*
X46971626Y-126692856D01*
X46971626Y-126692856D02*
X46900198Y-126692856D01*
X46900198Y-126692856D02*
X46757341Y-126764285D01*
X46757341Y-126764285D02*
X46685912Y-126907142D01*
X46685912Y-126907142D02*
X46685912Y-127121428D01*
X46685912Y-127121428D02*
X46614484Y-127264285D01*
X46614484Y-127264285D02*
X46471626Y-127335713D01*
X46471626Y-127335713D02*
X46400198Y-127335713D01*
X46400198Y-127335713D02*
X46257341Y-127264285D01*
X46257341Y-127264285D02*
X46185912Y-127121428D01*
X46185912Y-127121428D02*
X46185912Y-126907142D01*
X46185912Y-126907142D02*
X46257341Y-126764285D01*
X47185912Y-125407142D02*
X46400198Y-125407142D01*
X46400198Y-125407142D02*
X46257341Y-125478570D01*
X46257341Y-125478570D02*
X46185912Y-125621427D01*
X46185912Y-125621427D02*
X46185912Y-125907142D01*
X46185912Y-125907142D02*
X46257341Y-126049999D01*
X47114484Y-125407142D02*
X47185912Y-125549999D01*
X47185912Y-125549999D02*
X47185912Y-125907142D01*
X47185912Y-125907142D02*
X47114484Y-126049999D01*
X47114484Y-126049999D02*
X46971626Y-126121427D01*
X46971626Y-126121427D02*
X46828769Y-126121427D01*
X46828769Y-126121427D02*
X46685912Y-126049999D01*
X46685912Y-126049999D02*
X46614484Y-125907142D01*
X46614484Y-125907142D02*
X46614484Y-125549999D01*
X46614484Y-125549999D02*
X46543055Y-125407142D01*
X47185912Y-124478570D02*
X47114484Y-124621427D01*
X47114484Y-124621427D02*
X46971626Y-124692856D01*
X46971626Y-124692856D02*
X45685912Y-124692856D01*
X47185912Y-123264285D02*
X46400198Y-123264285D01*
X46400198Y-123264285D02*
X46257341Y-123335713D01*
X46257341Y-123335713D02*
X46185912Y-123478570D01*
X46185912Y-123478570D02*
X46185912Y-123764285D01*
X46185912Y-123764285D02*
X46257341Y-123907142D01*
X47114484Y-123264285D02*
X47185912Y-123407142D01*
X47185912Y-123407142D02*
X47185912Y-123764285D01*
X47185912Y-123764285D02*
X47114484Y-123907142D01*
X47114484Y-123907142D02*
X46971626Y-123978570D01*
X46971626Y-123978570D02*
X46828769Y-123978570D01*
X46828769Y-123978570D02*
X46685912Y-123907142D01*
X46685912Y-123907142D02*
X46614484Y-123764285D01*
X46614484Y-123764285D02*
X46614484Y-123407142D01*
X46614484Y-123407142D02*
X46543055Y-123264285D01*
X49172257Y-132264285D02*
X49172257Y-131550000D01*
X49600828Y-132407142D02*
X48100828Y-131907142D01*
X48100828Y-131907142D02*
X49600828Y-131407142D01*
X49457971Y-130907143D02*
X49529400Y-130835714D01*
X49529400Y-130835714D02*
X49600828Y-130907143D01*
X49600828Y-130907143D02*
X49529400Y-130978571D01*
X49529400Y-130978571D02*
X49457971Y-130907143D01*
X49457971Y-130907143D02*
X49600828Y-130907143D01*
X48100828Y-130407142D02*
X48100828Y-129550000D01*
X49600828Y-129978571D02*
X48100828Y-129978571D01*
X49600828Y-129050000D02*
X48600828Y-129050000D01*
X48886542Y-129050000D02*
X48743685Y-128978571D01*
X48743685Y-128978571D02*
X48672257Y-128907143D01*
X48672257Y-128907143D02*
X48600828Y-128764285D01*
X48600828Y-128764285D02*
X48600828Y-128621428D01*
X48600828Y-127478572D02*
X49600828Y-127478572D01*
X48600828Y-128121429D02*
X49386542Y-128121429D01*
X49386542Y-128121429D02*
X49529400Y-128050000D01*
X49529400Y-128050000D02*
X49600828Y-127907143D01*
X49600828Y-127907143D02*
X49600828Y-127692857D01*
X49600828Y-127692857D02*
X49529400Y-127550000D01*
X49529400Y-127550000D02*
X49457971Y-127478572D01*
X49600828Y-126550000D02*
X49529400Y-126692857D01*
X49529400Y-126692857D02*
X49457971Y-126764286D01*
X49457971Y-126764286D02*
X49315114Y-126835714D01*
X49315114Y-126835714D02*
X48886542Y-126835714D01*
X48886542Y-126835714D02*
X48743685Y-126764286D01*
X48743685Y-126764286D02*
X48672257Y-126692857D01*
X48672257Y-126692857D02*
X48600828Y-126550000D01*
X48600828Y-126550000D02*
X48600828Y-126335714D01*
X48600828Y-126335714D02*
X48672257Y-126192857D01*
X48672257Y-126192857D02*
X48743685Y-126121429D01*
X48743685Y-126121429D02*
X48886542Y-126050000D01*
X48886542Y-126050000D02*
X49315114Y-126050000D01*
X49315114Y-126050000D02*
X49457971Y-126121429D01*
X49457971Y-126121429D02*
X49529400Y-126192857D01*
X49529400Y-126192857D02*
X49600828Y-126335714D01*
X49600828Y-126335714D02*
X49600828Y-126550000D01*
X48600828Y-125407143D02*
X49600828Y-125407143D01*
X48743685Y-125407143D02*
X48672257Y-125335714D01*
X48672257Y-125335714D02*
X48600828Y-125192857D01*
X48600828Y-125192857D02*
X48600828Y-124978571D01*
X48600828Y-124978571D02*
X48672257Y-124835714D01*
X48672257Y-124835714D02*
X48815114Y-124764286D01*
X48815114Y-124764286D02*
X49600828Y-124764286D01*
X48600828Y-123407143D02*
X49815114Y-123407143D01*
X49815114Y-123407143D02*
X49957971Y-123478571D01*
X49957971Y-123478571D02*
X50029400Y-123550000D01*
X50029400Y-123550000D02*
X50100828Y-123692857D01*
X50100828Y-123692857D02*
X50100828Y-123907143D01*
X50100828Y-123907143D02*
X50029400Y-124050000D01*
X49529400Y-123407143D02*
X49600828Y-123550000D01*
X49600828Y-123550000D02*
X49600828Y-123835714D01*
X49600828Y-123835714D02*
X49529400Y-123978571D01*
X49529400Y-123978571D02*
X49457971Y-124050000D01*
X49457971Y-124050000D02*
X49315114Y-124121428D01*
X49315114Y-124121428D02*
X48886542Y-124121428D01*
X48886542Y-124121428D02*
X48743685Y-124050000D01*
X48743685Y-124050000D02*
X48672257Y-123978571D01*
X48672257Y-123978571D02*
X48600828Y-123835714D01*
X48600828Y-123835714D02*
X48600828Y-123550000D01*
X48600828Y-123550000D02*
X48672257Y-123407143D01*
D10*
X38818446Y-81150625D02*
X38818446Y-80236339D01*
X38818446Y-80693482D02*
X40518446Y-80693482D01*
X40518446Y-80693482D02*
X40275589Y-80541101D01*
X40275589Y-80541101D02*
X40113684Y-80388720D01*
X40113684Y-80388720D02*
X40032732Y-80236339D01*
X40356541Y-81760149D02*
X40437494Y-81836340D01*
X40437494Y-81836340D02*
X40518446Y-81988721D01*
X40518446Y-81988721D02*
X40518446Y-82369673D01*
X40518446Y-82369673D02*
X40437494Y-82522054D01*
X40437494Y-82522054D02*
X40356541Y-82598245D01*
X40356541Y-82598245D02*
X40194637Y-82674435D01*
X40194637Y-82674435D02*
X40032732Y-82674435D01*
X40032732Y-82674435D02*
X39789875Y-82598245D01*
X39789875Y-82598245D02*
X38818446Y-81683959D01*
X38818446Y-81683959D02*
X38818446Y-82674435D01*
X40518446Y-83131578D02*
X38818446Y-83664912D01*
X38818446Y-83664912D02*
X40518446Y-84198245D01*
X38980351Y-86864913D02*
X38899399Y-86788722D01*
X38899399Y-86788722D02*
X38818446Y-86560151D01*
X38818446Y-86560151D02*
X38818446Y-86407770D01*
X38818446Y-86407770D02*
X38899399Y-86179198D01*
X38899399Y-86179198D02*
X39061303Y-86026817D01*
X39061303Y-86026817D02*
X39223208Y-85950627D01*
X39223208Y-85950627D02*
X39547018Y-85874436D01*
X39547018Y-85874436D02*
X39789875Y-85874436D01*
X39789875Y-85874436D02*
X40113684Y-85950627D01*
X40113684Y-85950627D02*
X40275589Y-86026817D01*
X40275589Y-86026817D02*
X40437494Y-86179198D01*
X40437494Y-86179198D02*
X40518446Y-86407770D01*
X40518446Y-86407770D02*
X40518446Y-86560151D01*
X40518446Y-86560151D02*
X40437494Y-86788722D01*
X40437494Y-86788722D02*
X40356541Y-86864913D01*
X38818446Y-87550627D02*
X40518446Y-87550627D01*
X40518446Y-87550627D02*
X38818446Y-88464913D01*
X38818446Y-88464913D02*
X40518446Y-88464913D01*
X40518446Y-88998245D02*
X40518446Y-89912531D01*
X38818446Y-89455388D02*
X40518446Y-89455388D01*
X38818446Y-91360151D02*
X39627970Y-90826817D01*
X38818446Y-90445865D02*
X40518446Y-90445865D01*
X40518446Y-90445865D02*
X40518446Y-91055389D01*
X40518446Y-91055389D02*
X40437494Y-91207770D01*
X40437494Y-91207770D02*
X40356541Y-91283960D01*
X40356541Y-91283960D02*
X40194637Y-91360151D01*
X40194637Y-91360151D02*
X39951779Y-91360151D01*
X39951779Y-91360151D02*
X39789875Y-91283960D01*
X39789875Y-91283960D02*
X39708922Y-91207770D01*
X39708922Y-91207770D02*
X39627970Y-91055389D01*
X39627970Y-91055389D02*
X39627970Y-90445865D01*
X38818446Y-92807770D02*
X38818446Y-92045865D01*
X38818446Y-92045865D02*
X40518446Y-92045865D01*
X84426816Y-85381553D02*
X83893482Y-84572029D01*
X83512530Y-85381553D02*
X83512530Y-83681553D01*
X83512530Y-83681553D02*
X84122054Y-83681553D01*
X84122054Y-83681553D02*
X84274435Y-83762505D01*
X84274435Y-83762505D02*
X84350625Y-83843458D01*
X84350625Y-83843458D02*
X84426816Y-84005362D01*
X84426816Y-84005362D02*
X84426816Y-84248220D01*
X84426816Y-84248220D02*
X84350625Y-84410124D01*
X84350625Y-84410124D02*
X84274435Y-84491077D01*
X84274435Y-84491077D02*
X84122054Y-84572029D01*
X84122054Y-84572029D02*
X83512530Y-84572029D01*
X85112530Y-84491077D02*
X85645863Y-84491077D01*
X85874435Y-85381553D02*
X85112530Y-85381553D01*
X85112530Y-85381553D02*
X85112530Y-83681553D01*
X85112530Y-83681553D02*
X85874435Y-83681553D01*
X87322054Y-85381553D02*
X86560149Y-85381553D01*
X86560149Y-85381553D02*
X86560149Y-83681553D01*
X87779196Y-84895839D02*
X88541101Y-84895839D01*
X87626815Y-85381553D02*
X88160149Y-83681553D01*
X88160149Y-83681553D02*
X88693482Y-85381553D01*
X89531578Y-84572029D02*
X89531578Y-85381553D01*
X88998244Y-83681553D02*
X89531578Y-84572029D01*
X89531578Y-84572029D02*
X90064911Y-83681553D01*
X92731579Y-85219648D02*
X92655388Y-85300601D01*
X92655388Y-85300601D02*
X92426817Y-85381553D01*
X92426817Y-85381553D02*
X92274436Y-85381553D01*
X92274436Y-85381553D02*
X92045864Y-85300601D01*
X92045864Y-85300601D02*
X91893483Y-85138696D01*
X91893483Y-85138696D02*
X91817293Y-84976791D01*
X91817293Y-84976791D02*
X91741102Y-84652981D01*
X91741102Y-84652981D02*
X91741102Y-84410124D01*
X91741102Y-84410124D02*
X91817293Y-84086315D01*
X91817293Y-84086315D02*
X91893483Y-83924410D01*
X91893483Y-83924410D02*
X92045864Y-83762505D01*
X92045864Y-83762505D02*
X92274436Y-83681553D01*
X92274436Y-83681553D02*
X92426817Y-83681553D01*
X92426817Y-83681553D02*
X92655388Y-83762505D01*
X92655388Y-83762505D02*
X92731579Y-83843458D01*
X93417293Y-85381553D02*
X93417293Y-83681553D01*
X93417293Y-83681553D02*
X94331579Y-85381553D01*
X94331579Y-85381553D02*
X94331579Y-83681553D01*
X94864911Y-83681553D02*
X95779197Y-83681553D01*
X95322054Y-85381553D02*
X95322054Y-83681553D01*
X97226817Y-85381553D02*
X96693483Y-84572029D01*
X96312531Y-85381553D02*
X96312531Y-83681553D01*
X96312531Y-83681553D02*
X96922055Y-83681553D01*
X96922055Y-83681553D02*
X97074436Y-83762505D01*
X97074436Y-83762505D02*
X97150626Y-83843458D01*
X97150626Y-83843458D02*
X97226817Y-84005362D01*
X97226817Y-84005362D02*
X97226817Y-84248220D01*
X97226817Y-84248220D02*
X97150626Y-84410124D01*
X97150626Y-84410124D02*
X97074436Y-84491077D01*
X97074436Y-84491077D02*
X96922055Y-84572029D01*
X96922055Y-84572029D02*
X96312531Y-84572029D01*
X98674436Y-85381553D02*
X97912531Y-85381553D01*
X97912531Y-85381553D02*
X97912531Y-83681553D01*
X38618446Y-64750625D02*
X38618446Y-63836339D01*
X38618446Y-64293482D02*
X40318446Y-64293482D01*
X40318446Y-64293482D02*
X40075589Y-64141101D01*
X40075589Y-64141101D02*
X39913684Y-63988720D01*
X39913684Y-63988720D02*
X39832732Y-63836339D01*
X40156541Y-65360149D02*
X40237494Y-65436340D01*
X40237494Y-65436340D02*
X40318446Y-65588721D01*
X40318446Y-65588721D02*
X40318446Y-65969673D01*
X40318446Y-65969673D02*
X40237494Y-66122054D01*
X40237494Y-66122054D02*
X40156541Y-66198245D01*
X40156541Y-66198245D02*
X39994637Y-66274435D01*
X39994637Y-66274435D02*
X39832732Y-66274435D01*
X39832732Y-66274435D02*
X39589875Y-66198245D01*
X39589875Y-66198245D02*
X38618446Y-65283959D01*
X38618446Y-65283959D02*
X38618446Y-66274435D01*
X40318446Y-66731578D02*
X38618446Y-67264912D01*
X38618446Y-67264912D02*
X40318446Y-67798245D01*
D12*
X131281142Y-55429819D02*
X130947809Y-54953628D01*
X130709714Y-55429819D02*
X130709714Y-54429819D01*
X130709714Y-54429819D02*
X131090666Y-54429819D01*
X131090666Y-54429819D02*
X131185904Y-54477438D01*
X131185904Y-54477438D02*
X131233523Y-54525057D01*
X131233523Y-54525057D02*
X131281142Y-54620295D01*
X131281142Y-54620295D02*
X131281142Y-54763152D01*
X131281142Y-54763152D02*
X131233523Y-54858390D01*
X131233523Y-54858390D02*
X131185904Y-54906009D01*
X131185904Y-54906009D02*
X131090666Y-54953628D01*
X131090666Y-54953628D02*
X130709714Y-54953628D01*
X132233523Y-55429819D02*
X131662095Y-55429819D01*
X131947809Y-55429819D02*
X131947809Y-54429819D01*
X131947809Y-54429819D02*
X131852571Y-54572676D01*
X131852571Y-54572676D02*
X131757333Y-54667914D01*
X131757333Y-54667914D02*
X131662095Y-54715533D01*
X133138285Y-54429819D02*
X132662095Y-54429819D01*
X132662095Y-54429819D02*
X132614476Y-54906009D01*
X132614476Y-54906009D02*
X132662095Y-54858390D01*
X132662095Y-54858390D02*
X132757333Y-54810771D01*
X132757333Y-54810771D02*
X132995428Y-54810771D01*
X132995428Y-54810771D02*
X133090666Y-54858390D01*
X133090666Y-54858390D02*
X133138285Y-54906009D01*
X133138285Y-54906009D02*
X133185904Y-55001247D01*
X133185904Y-55001247D02*
X133185904Y-55239342D01*
X133185904Y-55239342D02*
X133138285Y-55334580D01*
X133138285Y-55334580D02*
X133090666Y-55382200D01*
X133090666Y-55382200D02*
X132995428Y-55429819D01*
X132995428Y-55429819D02*
X132757333Y-55429819D01*
X132757333Y-55429819D02*
X132662095Y-55382200D01*
X132662095Y-55382200D02*
X132614476Y-55334580D01*
X116492381Y-75956276D02*
X116858095Y-75956276D01*
X116675238Y-76596276D02*
X116675238Y-75956276D01*
X117071428Y-76596276D02*
X117071428Y-75956276D01*
X117071428Y-75956276D02*
X117315238Y-75956276D01*
X117315238Y-75956276D02*
X117376190Y-75986752D01*
X117376190Y-75986752D02*
X117406667Y-76017228D01*
X117406667Y-76017228D02*
X117437143Y-76078180D01*
X117437143Y-76078180D02*
X117437143Y-76169609D01*
X117437143Y-76169609D02*
X117406667Y-76230561D01*
X117406667Y-76230561D02*
X117376190Y-76261038D01*
X117376190Y-76261038D02*
X117315238Y-76291514D01*
X117315238Y-76291514D02*
X117071428Y-76291514D01*
X117680952Y-76017228D02*
X117711428Y-75986752D01*
X117711428Y-75986752D02*
X117772381Y-75956276D01*
X117772381Y-75956276D02*
X117924762Y-75956276D01*
X117924762Y-75956276D02*
X117985714Y-75986752D01*
X117985714Y-75986752D02*
X118016190Y-76017228D01*
X118016190Y-76017228D02*
X118046667Y-76078180D01*
X118046667Y-76078180D02*
X118046667Y-76139133D01*
X118046667Y-76139133D02*
X118016190Y-76230561D01*
X118016190Y-76230561D02*
X117650476Y-76596276D01*
X117650476Y-76596276D02*
X118046667Y-76596276D01*
X128992381Y-63456276D02*
X129358095Y-63456276D01*
X129175238Y-64096276D02*
X129175238Y-63456276D01*
X129571428Y-64096276D02*
X129571428Y-63456276D01*
X129571428Y-63456276D02*
X129815238Y-63456276D01*
X129815238Y-63456276D02*
X129876190Y-63486752D01*
X129876190Y-63486752D02*
X129906667Y-63517228D01*
X129906667Y-63517228D02*
X129937143Y-63578180D01*
X129937143Y-63578180D02*
X129937143Y-63669609D01*
X129937143Y-63669609D02*
X129906667Y-63730561D01*
X129906667Y-63730561D02*
X129876190Y-63761038D01*
X129876190Y-63761038D02*
X129815238Y-63791514D01*
X129815238Y-63791514D02*
X129571428Y-63791514D01*
X130516190Y-63456276D02*
X130211428Y-63456276D01*
X130211428Y-63456276D02*
X130180952Y-63761038D01*
X130180952Y-63761038D02*
X130211428Y-63730561D01*
X130211428Y-63730561D02*
X130272381Y-63700085D01*
X130272381Y-63700085D02*
X130424762Y-63700085D01*
X130424762Y-63700085D02*
X130485714Y-63730561D01*
X130485714Y-63730561D02*
X130516190Y-63761038D01*
X130516190Y-63761038D02*
X130546667Y-63821990D01*
X130546667Y-63821990D02*
X130546667Y-63974371D01*
X130546667Y-63974371D02*
X130516190Y-64035323D01*
X130516190Y-64035323D02*
X130485714Y-64065800D01*
X130485714Y-64065800D02*
X130424762Y-64096276D01*
X130424762Y-64096276D02*
X130272381Y-64096276D01*
X130272381Y-64096276D02*
X130211428Y-64065800D01*
X130211428Y-64065800D02*
X130180952Y-64035323D01*
X144572466Y-20739009D02*
X144239133Y-20739009D01*
X144239133Y-21262819D02*
X144239133Y-20262819D01*
X144239133Y-20262819D02*
X144715323Y-20262819D01*
X145524847Y-20596152D02*
X145524847Y-21262819D01*
X145286752Y-20215200D02*
X145048657Y-20929485D01*
X145048657Y-20929485D02*
X145667704Y-20929485D01*
X79913142Y-86359580D02*
X79865523Y-86407200D01*
X79865523Y-86407200D02*
X79722666Y-86454819D01*
X79722666Y-86454819D02*
X79627428Y-86454819D01*
X79627428Y-86454819D02*
X79484571Y-86407200D01*
X79484571Y-86407200D02*
X79389333Y-86311961D01*
X79389333Y-86311961D02*
X79341714Y-86216723D01*
X79341714Y-86216723D02*
X79294095Y-86026247D01*
X79294095Y-86026247D02*
X79294095Y-85883390D01*
X79294095Y-85883390D02*
X79341714Y-85692914D01*
X79341714Y-85692914D02*
X79389333Y-85597676D01*
X79389333Y-85597676D02*
X79484571Y-85502438D01*
X79484571Y-85502438D02*
X79627428Y-85454819D01*
X79627428Y-85454819D02*
X79722666Y-85454819D01*
X79722666Y-85454819D02*
X79865523Y-85502438D01*
X79865523Y-85502438D02*
X79913142Y-85550057D01*
X80294095Y-85550057D02*
X80341714Y-85502438D01*
X80341714Y-85502438D02*
X80436952Y-85454819D01*
X80436952Y-85454819D02*
X80675047Y-85454819D01*
X80675047Y-85454819D02*
X80770285Y-85502438D01*
X80770285Y-85502438D02*
X80817904Y-85550057D01*
X80817904Y-85550057D02*
X80865523Y-85645295D01*
X80865523Y-85645295D02*
X80865523Y-85740533D01*
X80865523Y-85740533D02*
X80817904Y-85883390D01*
X80817904Y-85883390D02*
X80246476Y-86454819D01*
X80246476Y-86454819D02*
X80865523Y-86454819D01*
X81436952Y-85883390D02*
X81341714Y-85835771D01*
X81341714Y-85835771D02*
X81294095Y-85788152D01*
X81294095Y-85788152D02*
X81246476Y-85692914D01*
X81246476Y-85692914D02*
X81246476Y-85645295D01*
X81246476Y-85645295D02*
X81294095Y-85550057D01*
X81294095Y-85550057D02*
X81341714Y-85502438D01*
X81341714Y-85502438D02*
X81436952Y-85454819D01*
X81436952Y-85454819D02*
X81627428Y-85454819D01*
X81627428Y-85454819D02*
X81722666Y-85502438D01*
X81722666Y-85502438D02*
X81770285Y-85550057D01*
X81770285Y-85550057D02*
X81817904Y-85645295D01*
X81817904Y-85645295D02*
X81817904Y-85692914D01*
X81817904Y-85692914D02*
X81770285Y-85788152D01*
X81770285Y-85788152D02*
X81722666Y-85835771D01*
X81722666Y-85835771D02*
X81627428Y-85883390D01*
X81627428Y-85883390D02*
X81436952Y-85883390D01*
X81436952Y-85883390D02*
X81341714Y-85931009D01*
X81341714Y-85931009D02*
X81294095Y-85978628D01*
X81294095Y-85978628D02*
X81246476Y-86073866D01*
X81246476Y-86073866D02*
X81246476Y-86264342D01*
X81246476Y-86264342D02*
X81294095Y-86359580D01*
X81294095Y-86359580D02*
X81341714Y-86407200D01*
X81341714Y-86407200D02*
X81436952Y-86454819D01*
X81436952Y-86454819D02*
X81627428Y-86454819D01*
X81627428Y-86454819D02*
X81722666Y-86407200D01*
X81722666Y-86407200D02*
X81770285Y-86359580D01*
X81770285Y-86359580D02*
X81817904Y-86264342D01*
X81817904Y-86264342D02*
X81817904Y-86073866D01*
X81817904Y-86073866D02*
X81770285Y-85978628D01*
X81770285Y-85978628D02*
X81722666Y-85931009D01*
X81722666Y-85931009D02*
X81627428Y-85883390D01*
X128992381Y-41637276D02*
X129358095Y-41637276D01*
X129175238Y-42277276D02*
X129175238Y-41637276D01*
X129571428Y-42277276D02*
X129571428Y-41637276D01*
X129571428Y-41637276D02*
X129815238Y-41637276D01*
X129815238Y-41637276D02*
X129876190Y-41667752D01*
X129876190Y-41667752D02*
X129906667Y-41698228D01*
X129906667Y-41698228D02*
X129937143Y-41759180D01*
X129937143Y-41759180D02*
X129937143Y-41850609D01*
X129937143Y-41850609D02*
X129906667Y-41911561D01*
X129906667Y-41911561D02*
X129876190Y-41942038D01*
X129876190Y-41942038D02*
X129815238Y-41972514D01*
X129815238Y-41972514D02*
X129571428Y-41972514D01*
X130302857Y-41911561D02*
X130241905Y-41881085D01*
X130241905Y-41881085D02*
X130211428Y-41850609D01*
X130211428Y-41850609D02*
X130180952Y-41789657D01*
X130180952Y-41789657D02*
X130180952Y-41759180D01*
X130180952Y-41759180D02*
X130211428Y-41698228D01*
X130211428Y-41698228D02*
X130241905Y-41667752D01*
X130241905Y-41667752D02*
X130302857Y-41637276D01*
X130302857Y-41637276D02*
X130424762Y-41637276D01*
X130424762Y-41637276D02*
X130485714Y-41667752D01*
X130485714Y-41667752D02*
X130516190Y-41698228D01*
X130516190Y-41698228D02*
X130546667Y-41759180D01*
X130546667Y-41759180D02*
X130546667Y-41789657D01*
X130546667Y-41789657D02*
X130516190Y-41850609D01*
X130516190Y-41850609D02*
X130485714Y-41881085D01*
X130485714Y-41881085D02*
X130424762Y-41911561D01*
X130424762Y-41911561D02*
X130302857Y-41911561D01*
X130302857Y-41911561D02*
X130241905Y-41942038D01*
X130241905Y-41942038D02*
X130211428Y-41972514D01*
X130211428Y-41972514D02*
X130180952Y-42033466D01*
X130180952Y-42033466D02*
X130180952Y-42155371D01*
X130180952Y-42155371D02*
X130211428Y-42216323D01*
X130211428Y-42216323D02*
X130241905Y-42246800D01*
X130241905Y-42246800D02*
X130302857Y-42277276D01*
X130302857Y-42277276D02*
X130424762Y-42277276D01*
X130424762Y-42277276D02*
X130485714Y-42246800D01*
X130485714Y-42246800D02*
X130516190Y-42216323D01*
X130516190Y-42216323D02*
X130546667Y-42155371D01*
X130546667Y-42155371D02*
X130546667Y-42033466D01*
X130546667Y-42033466D02*
X130516190Y-41972514D01*
X130516190Y-41972514D02*
X130485714Y-41942038D01*
X130485714Y-41942038D02*
X130424762Y-41911561D01*
X132254819Y-32950857D02*
X131778628Y-33284190D01*
X132254819Y-33522285D02*
X131254819Y-33522285D01*
X131254819Y-33522285D02*
X131254819Y-33141333D01*
X131254819Y-33141333D02*
X131302438Y-33046095D01*
X131302438Y-33046095D02*
X131350057Y-32998476D01*
X131350057Y-32998476D02*
X131445295Y-32950857D01*
X131445295Y-32950857D02*
X131588152Y-32950857D01*
X131588152Y-32950857D02*
X131683390Y-32998476D01*
X131683390Y-32998476D02*
X131731009Y-33046095D01*
X131731009Y-33046095D02*
X131778628Y-33141333D01*
X131778628Y-33141333D02*
X131778628Y-33522285D01*
X132254819Y-31998476D02*
X132254819Y-32569904D01*
X132254819Y-32284190D02*
X131254819Y-32284190D01*
X131254819Y-32284190D02*
X131397676Y-32379428D01*
X131397676Y-32379428D02*
X131492914Y-32474666D01*
X131492914Y-32474666D02*
X131540533Y-32569904D01*
X131254819Y-31665142D02*
X131254819Y-30998476D01*
X131254819Y-30998476D02*
X132254819Y-31427047D01*
X141664580Y-58900857D02*
X141712200Y-58948476D01*
X141712200Y-58948476D02*
X141759819Y-59091333D01*
X141759819Y-59091333D02*
X141759819Y-59186571D01*
X141759819Y-59186571D02*
X141712200Y-59329428D01*
X141712200Y-59329428D02*
X141616961Y-59424666D01*
X141616961Y-59424666D02*
X141521723Y-59472285D01*
X141521723Y-59472285D02*
X141331247Y-59519904D01*
X141331247Y-59519904D02*
X141188390Y-59519904D01*
X141188390Y-59519904D02*
X140997914Y-59472285D01*
X140997914Y-59472285D02*
X140902676Y-59424666D01*
X140902676Y-59424666D02*
X140807438Y-59329428D01*
X140807438Y-59329428D02*
X140759819Y-59186571D01*
X140759819Y-59186571D02*
X140759819Y-59091333D01*
X140759819Y-59091333D02*
X140807438Y-58948476D01*
X140807438Y-58948476D02*
X140855057Y-58900857D01*
X140855057Y-58519904D02*
X140807438Y-58472285D01*
X140807438Y-58472285D02*
X140759819Y-58377047D01*
X140759819Y-58377047D02*
X140759819Y-58138952D01*
X140759819Y-58138952D02*
X140807438Y-58043714D01*
X140807438Y-58043714D02*
X140855057Y-57996095D01*
X140855057Y-57996095D02*
X140950295Y-57948476D01*
X140950295Y-57948476D02*
X141045533Y-57948476D01*
X141045533Y-57948476D02*
X141188390Y-57996095D01*
X141188390Y-57996095D02*
X141759819Y-58567523D01*
X141759819Y-58567523D02*
X141759819Y-57948476D01*
X140759819Y-57615142D02*
X140759819Y-56996095D01*
X140759819Y-56996095D02*
X141140771Y-57329428D01*
X141140771Y-57329428D02*
X141140771Y-57186571D01*
X141140771Y-57186571D02*
X141188390Y-57091333D01*
X141188390Y-57091333D02*
X141236009Y-57043714D01*
X141236009Y-57043714D02*
X141331247Y-56996095D01*
X141331247Y-56996095D02*
X141569342Y-56996095D01*
X141569342Y-56996095D02*
X141664580Y-57043714D01*
X141664580Y-57043714D02*
X141712200Y-57091333D01*
X141712200Y-57091333D02*
X141759819Y-57186571D01*
X141759819Y-57186571D02*
X141759819Y-57472285D01*
X141759819Y-57472285D02*
X141712200Y-57567523D01*
X141712200Y-57567523D02*
X141664580Y-57615142D01*
X141072466Y-67239009D02*
X140739133Y-67239009D01*
X140739133Y-67762819D02*
X140739133Y-66762819D01*
X140739133Y-66762819D02*
X141215323Y-66762819D01*
X141548657Y-66858057D02*
X141596276Y-66810438D01*
X141596276Y-66810438D02*
X141691514Y-66762819D01*
X141691514Y-66762819D02*
X141929609Y-66762819D01*
X141929609Y-66762819D02*
X142024847Y-66810438D01*
X142024847Y-66810438D02*
X142072466Y-66858057D01*
X142072466Y-66858057D02*
X142120085Y-66953295D01*
X142120085Y-66953295D02*
X142120085Y-67048533D01*
X142120085Y-67048533D02*
X142072466Y-67191390D01*
X142072466Y-67191390D02*
X141501038Y-67762819D01*
X141501038Y-67762819D02*
X142120085Y-67762819D01*
X92466666Y-75254819D02*
X92466666Y-75969104D01*
X92466666Y-75969104D02*
X92419047Y-76111961D01*
X92419047Y-76111961D02*
X92323809Y-76207200D01*
X92323809Y-76207200D02*
X92180952Y-76254819D01*
X92180952Y-76254819D02*
X92085714Y-76254819D01*
X92847619Y-75254819D02*
X93514285Y-75254819D01*
X93514285Y-75254819D02*
X93085714Y-76254819D01*
X47866666Y-60254819D02*
X47866666Y-60969104D01*
X47866666Y-60969104D02*
X47819047Y-61111961D01*
X47819047Y-61111961D02*
X47723809Y-61207200D01*
X47723809Y-61207200D02*
X47580952Y-61254819D01*
X47580952Y-61254819D02*
X47485714Y-61254819D01*
X48866666Y-61254819D02*
X48295238Y-61254819D01*
X48580952Y-61254819D02*
X48580952Y-60254819D01*
X48580952Y-60254819D02*
X48485714Y-60397676D01*
X48485714Y-60397676D02*
X48390476Y-60492914D01*
X48390476Y-60492914D02*
X48295238Y-60540533D01*
X161747580Y-114926857D02*
X161795200Y-114974476D01*
X161795200Y-114974476D02*
X161842819Y-115117333D01*
X161842819Y-115117333D02*
X161842819Y-115212571D01*
X161842819Y-115212571D02*
X161795200Y-115355428D01*
X161795200Y-115355428D02*
X161699961Y-115450666D01*
X161699961Y-115450666D02*
X161604723Y-115498285D01*
X161604723Y-115498285D02*
X161414247Y-115545904D01*
X161414247Y-115545904D02*
X161271390Y-115545904D01*
X161271390Y-115545904D02*
X161080914Y-115498285D01*
X161080914Y-115498285D02*
X160985676Y-115450666D01*
X160985676Y-115450666D02*
X160890438Y-115355428D01*
X160890438Y-115355428D02*
X160842819Y-115212571D01*
X160842819Y-115212571D02*
X160842819Y-115117333D01*
X160842819Y-115117333D02*
X160890438Y-114974476D01*
X160890438Y-114974476D02*
X160938057Y-114926857D01*
X161842819Y-113974476D02*
X161842819Y-114545904D01*
X161842819Y-114260190D02*
X160842819Y-114260190D01*
X160842819Y-114260190D02*
X160985676Y-114355428D01*
X160985676Y-114355428D02*
X161080914Y-114450666D01*
X161080914Y-114450666D02*
X161128533Y-114545904D01*
X160938057Y-113593523D02*
X160890438Y-113545904D01*
X160890438Y-113545904D02*
X160842819Y-113450666D01*
X160842819Y-113450666D02*
X160842819Y-113212571D01*
X160842819Y-113212571D02*
X160890438Y-113117333D01*
X160890438Y-113117333D02*
X160938057Y-113069714D01*
X160938057Y-113069714D02*
X161033295Y-113022095D01*
X161033295Y-113022095D02*
X161128533Y-113022095D01*
X161128533Y-113022095D02*
X161271390Y-113069714D01*
X161271390Y-113069714D02*
X161842819Y-113641142D01*
X161842819Y-113641142D02*
X161842819Y-113022095D01*
X88440419Y-138133333D02*
X88392800Y-138085714D01*
X88392800Y-138085714D02*
X88345180Y-137942857D01*
X88345180Y-137942857D02*
X88345180Y-137847619D01*
X88345180Y-137847619D02*
X88392800Y-137704762D01*
X88392800Y-137704762D02*
X88488038Y-137609524D01*
X88488038Y-137609524D02*
X88583276Y-137561905D01*
X88583276Y-137561905D02*
X88773752Y-137514286D01*
X88773752Y-137514286D02*
X88916609Y-137514286D01*
X88916609Y-137514286D02*
X89107085Y-137561905D01*
X89107085Y-137561905D02*
X89202323Y-137609524D01*
X89202323Y-137609524D02*
X89297561Y-137704762D01*
X89297561Y-137704762D02*
X89345180Y-137847619D01*
X89345180Y-137847619D02*
X89345180Y-137942857D01*
X89345180Y-137942857D02*
X89297561Y-138085714D01*
X89297561Y-138085714D02*
X89249942Y-138133333D01*
X88345180Y-139133333D02*
X88821371Y-138800000D01*
X88345180Y-138561905D02*
X89345180Y-138561905D01*
X89345180Y-138561905D02*
X89345180Y-138942857D01*
X89345180Y-138942857D02*
X89297561Y-139038095D01*
X89297561Y-139038095D02*
X89249942Y-139085714D01*
X89249942Y-139085714D02*
X89154704Y-139133333D01*
X89154704Y-139133333D02*
X89011847Y-139133333D01*
X89011847Y-139133333D02*
X88916609Y-139085714D01*
X88916609Y-139085714D02*
X88868990Y-139038095D01*
X88868990Y-139038095D02*
X88821371Y-138942857D01*
X88821371Y-138942857D02*
X88821371Y-138561905D01*
X89011847Y-139990476D02*
X88345180Y-139990476D01*
X89392800Y-139752381D02*
X88678514Y-139514286D01*
X88678514Y-139514286D02*
X88678514Y-140133333D01*
X165928642Y-112324819D02*
X165595309Y-111848628D01*
X165357214Y-112324819D02*
X165357214Y-111324819D01*
X165357214Y-111324819D02*
X165738166Y-111324819D01*
X165738166Y-111324819D02*
X165833404Y-111372438D01*
X165833404Y-111372438D02*
X165881023Y-111420057D01*
X165881023Y-111420057D02*
X165928642Y-111515295D01*
X165928642Y-111515295D02*
X165928642Y-111658152D01*
X165928642Y-111658152D02*
X165881023Y-111753390D01*
X165881023Y-111753390D02*
X165833404Y-111801009D01*
X165833404Y-111801009D02*
X165738166Y-111848628D01*
X165738166Y-111848628D02*
X165357214Y-111848628D01*
X166881023Y-112324819D02*
X166309595Y-112324819D01*
X166595309Y-112324819D02*
X166595309Y-111324819D01*
X166595309Y-111324819D02*
X166500071Y-111467676D01*
X166500071Y-111467676D02*
X166404833Y-111562914D01*
X166404833Y-111562914D02*
X166309595Y-111610533D01*
X167833404Y-112324819D02*
X167261976Y-112324819D01*
X167547690Y-112324819D02*
X167547690Y-111324819D01*
X167547690Y-111324819D02*
X167452452Y-111467676D01*
X167452452Y-111467676D02*
X167357214Y-111562914D01*
X167357214Y-111562914D02*
X167261976Y-111610533D01*
X124204761Y-67358057D02*
X124109523Y-67310438D01*
X124109523Y-67310438D02*
X124014285Y-67215200D01*
X124014285Y-67215200D02*
X123871428Y-67072342D01*
X123871428Y-67072342D02*
X123776190Y-67024723D01*
X123776190Y-67024723D02*
X123680952Y-67024723D01*
X123728571Y-67262819D02*
X123633333Y-67215200D01*
X123633333Y-67215200D02*
X123538095Y-67119961D01*
X123538095Y-67119961D02*
X123490476Y-66929485D01*
X123490476Y-66929485D02*
X123490476Y-66596152D01*
X123490476Y-66596152D02*
X123538095Y-66405676D01*
X123538095Y-66405676D02*
X123633333Y-66310438D01*
X123633333Y-66310438D02*
X123728571Y-66262819D01*
X123728571Y-66262819D02*
X123919047Y-66262819D01*
X123919047Y-66262819D02*
X124014285Y-66310438D01*
X124014285Y-66310438D02*
X124109523Y-66405676D01*
X124109523Y-66405676D02*
X124157142Y-66596152D01*
X124157142Y-66596152D02*
X124157142Y-66929485D01*
X124157142Y-66929485D02*
X124109523Y-67119961D01*
X124109523Y-67119961D02*
X124014285Y-67215200D01*
X124014285Y-67215200D02*
X123919047Y-67262819D01*
X123919047Y-67262819D02*
X123728571Y-67262819D01*
X125014285Y-66596152D02*
X125014285Y-67262819D01*
X124776190Y-66215200D02*
X124538095Y-66929485D01*
X124538095Y-66929485D02*
X125157142Y-66929485D01*
X175133333Y-91762819D02*
X174800000Y-91286628D01*
X174561905Y-91762819D02*
X174561905Y-90762819D01*
X174561905Y-90762819D02*
X174942857Y-90762819D01*
X174942857Y-90762819D02*
X175038095Y-90810438D01*
X175038095Y-90810438D02*
X175085714Y-90858057D01*
X175085714Y-90858057D02*
X175133333Y-90953295D01*
X175133333Y-90953295D02*
X175133333Y-91096152D01*
X175133333Y-91096152D02*
X175085714Y-91191390D01*
X175085714Y-91191390D02*
X175038095Y-91239009D01*
X175038095Y-91239009D02*
X174942857Y-91286628D01*
X174942857Y-91286628D02*
X174561905Y-91286628D01*
X176038095Y-90762819D02*
X175561905Y-90762819D01*
X175561905Y-90762819D02*
X175514286Y-91239009D01*
X175514286Y-91239009D02*
X175561905Y-91191390D01*
X175561905Y-91191390D02*
X175657143Y-91143771D01*
X175657143Y-91143771D02*
X175895238Y-91143771D01*
X175895238Y-91143771D02*
X175990476Y-91191390D01*
X175990476Y-91191390D02*
X176038095Y-91239009D01*
X176038095Y-91239009D02*
X176085714Y-91334247D01*
X176085714Y-91334247D02*
X176085714Y-91572342D01*
X176085714Y-91572342D02*
X176038095Y-91667580D01*
X176038095Y-91667580D02*
X175990476Y-91715200D01*
X175990476Y-91715200D02*
X175895238Y-91762819D01*
X175895238Y-91762819D02*
X175657143Y-91762819D01*
X175657143Y-91762819D02*
X175561905Y-91715200D01*
X175561905Y-91715200D02*
X175514286Y-91667580D01*
X64957142Y-76159580D02*
X64909523Y-76207200D01*
X64909523Y-76207200D02*
X64766666Y-76254819D01*
X64766666Y-76254819D02*
X64671428Y-76254819D01*
X64671428Y-76254819D02*
X64528571Y-76207200D01*
X64528571Y-76207200D02*
X64433333Y-76111961D01*
X64433333Y-76111961D02*
X64385714Y-76016723D01*
X64385714Y-76016723D02*
X64338095Y-75826247D01*
X64338095Y-75826247D02*
X64338095Y-75683390D01*
X64338095Y-75683390D02*
X64385714Y-75492914D01*
X64385714Y-75492914D02*
X64433333Y-75397676D01*
X64433333Y-75397676D02*
X64528571Y-75302438D01*
X64528571Y-75302438D02*
X64671428Y-75254819D01*
X64671428Y-75254819D02*
X64766666Y-75254819D01*
X64766666Y-75254819D02*
X64909523Y-75302438D01*
X64909523Y-75302438D02*
X64957142Y-75350057D01*
X65909523Y-76254819D02*
X65338095Y-76254819D01*
X65623809Y-76254819D02*
X65623809Y-75254819D01*
X65623809Y-75254819D02*
X65528571Y-75397676D01*
X65528571Y-75397676D02*
X65433333Y-75492914D01*
X65433333Y-75492914D02*
X65338095Y-75540533D01*
X66528571Y-75254819D02*
X66623809Y-75254819D01*
X66623809Y-75254819D02*
X66719047Y-75302438D01*
X66719047Y-75302438D02*
X66766666Y-75350057D01*
X66766666Y-75350057D02*
X66814285Y-75445295D01*
X66814285Y-75445295D02*
X66861904Y-75635771D01*
X66861904Y-75635771D02*
X66861904Y-75873866D01*
X66861904Y-75873866D02*
X66814285Y-76064342D01*
X66814285Y-76064342D02*
X66766666Y-76159580D01*
X66766666Y-76159580D02*
X66719047Y-76207200D01*
X66719047Y-76207200D02*
X66623809Y-76254819D01*
X66623809Y-76254819D02*
X66528571Y-76254819D01*
X66528571Y-76254819D02*
X66433333Y-76207200D01*
X66433333Y-76207200D02*
X66385714Y-76159580D01*
X66385714Y-76159580D02*
X66338095Y-76064342D01*
X66338095Y-76064342D02*
X66290476Y-75873866D01*
X66290476Y-75873866D02*
X66290476Y-75635771D01*
X66290476Y-75635771D02*
X66338095Y-75445295D01*
X66338095Y-75445295D02*
X66385714Y-75350057D01*
X66385714Y-75350057D02*
X66433333Y-75302438D01*
X66433333Y-75302438D02*
X66528571Y-75254819D01*
X168657142Y-79262819D02*
X168323809Y-78786628D01*
X168085714Y-79262819D02*
X168085714Y-78262819D01*
X168085714Y-78262819D02*
X168466666Y-78262819D01*
X168466666Y-78262819D02*
X168561904Y-78310438D01*
X168561904Y-78310438D02*
X168609523Y-78358057D01*
X168609523Y-78358057D02*
X168657142Y-78453295D01*
X168657142Y-78453295D02*
X168657142Y-78596152D01*
X168657142Y-78596152D02*
X168609523Y-78691390D01*
X168609523Y-78691390D02*
X168561904Y-78739009D01*
X168561904Y-78739009D02*
X168466666Y-78786628D01*
X168466666Y-78786628D02*
X168085714Y-78786628D01*
X169514285Y-78596152D02*
X169514285Y-79262819D01*
X169276190Y-78215200D02*
X169038095Y-78929485D01*
X169038095Y-78929485D02*
X169657142Y-78929485D01*
X170180952Y-78691390D02*
X170085714Y-78643771D01*
X170085714Y-78643771D02*
X170038095Y-78596152D01*
X170038095Y-78596152D02*
X169990476Y-78500914D01*
X169990476Y-78500914D02*
X169990476Y-78453295D01*
X169990476Y-78453295D02*
X170038095Y-78358057D01*
X170038095Y-78358057D02*
X170085714Y-78310438D01*
X170085714Y-78310438D02*
X170180952Y-78262819D01*
X170180952Y-78262819D02*
X170371428Y-78262819D01*
X170371428Y-78262819D02*
X170466666Y-78310438D01*
X170466666Y-78310438D02*
X170514285Y-78358057D01*
X170514285Y-78358057D02*
X170561904Y-78453295D01*
X170561904Y-78453295D02*
X170561904Y-78500914D01*
X170561904Y-78500914D02*
X170514285Y-78596152D01*
X170514285Y-78596152D02*
X170466666Y-78643771D01*
X170466666Y-78643771D02*
X170371428Y-78691390D01*
X170371428Y-78691390D02*
X170180952Y-78691390D01*
X170180952Y-78691390D02*
X170085714Y-78739009D01*
X170085714Y-78739009D02*
X170038095Y-78786628D01*
X170038095Y-78786628D02*
X169990476Y-78881866D01*
X169990476Y-78881866D02*
X169990476Y-79072342D01*
X169990476Y-79072342D02*
X170038095Y-79167580D01*
X170038095Y-79167580D02*
X170085714Y-79215200D01*
X170085714Y-79215200D02*
X170180952Y-79262819D01*
X170180952Y-79262819D02*
X170371428Y-79262819D01*
X170371428Y-79262819D02*
X170466666Y-79215200D01*
X170466666Y-79215200D02*
X170514285Y-79167580D01*
X170514285Y-79167580D02*
X170561904Y-79072342D01*
X170561904Y-79072342D02*
X170561904Y-78881866D01*
X170561904Y-78881866D02*
X170514285Y-78786628D01*
X170514285Y-78786628D02*
X170466666Y-78739009D01*
X170466666Y-78739009D02*
X170371428Y-78691390D01*
X186966666Y-52262819D02*
X186966666Y-52977104D01*
X186966666Y-52977104D02*
X186919047Y-53119961D01*
X186919047Y-53119961D02*
X186823809Y-53215200D01*
X186823809Y-53215200D02*
X186680952Y-53262819D01*
X186680952Y-53262819D02*
X186585714Y-53262819D01*
X187347619Y-52262819D02*
X187966666Y-52262819D01*
X187966666Y-52262819D02*
X187633333Y-52643771D01*
X187633333Y-52643771D02*
X187776190Y-52643771D01*
X187776190Y-52643771D02*
X187871428Y-52691390D01*
X187871428Y-52691390D02*
X187919047Y-52739009D01*
X187919047Y-52739009D02*
X187966666Y-52834247D01*
X187966666Y-52834247D02*
X187966666Y-53072342D01*
X187966666Y-53072342D02*
X187919047Y-53167580D01*
X187919047Y-53167580D02*
X187871428Y-53215200D01*
X187871428Y-53215200D02*
X187776190Y-53262819D01*
X187776190Y-53262819D02*
X187490476Y-53262819D01*
X187490476Y-53262819D02*
X187395238Y-53215200D01*
X187395238Y-53215200D02*
X187347619Y-53167580D01*
X142072466Y-41739009D02*
X141739133Y-41739009D01*
X141739133Y-42262819D02*
X141739133Y-41262819D01*
X141739133Y-41262819D02*
X142215323Y-41262819D01*
X142501038Y-41262819D02*
X143120085Y-41262819D01*
X143120085Y-41262819D02*
X142786752Y-41643771D01*
X142786752Y-41643771D02*
X142929609Y-41643771D01*
X142929609Y-41643771D02*
X143024847Y-41691390D01*
X143024847Y-41691390D02*
X143072466Y-41739009D01*
X143072466Y-41739009D02*
X143120085Y-41834247D01*
X143120085Y-41834247D02*
X143120085Y-42072342D01*
X143120085Y-42072342D02*
X143072466Y-42167580D01*
X143072466Y-42167580D02*
X143024847Y-42215200D01*
X143024847Y-42215200D02*
X142929609Y-42262819D01*
X142929609Y-42262819D02*
X142643895Y-42262819D01*
X142643895Y-42262819D02*
X142548657Y-42215200D01*
X142548657Y-42215200D02*
X142501038Y-42167580D01*
X128492381Y-88456276D02*
X128858095Y-88456276D01*
X128675238Y-89096276D02*
X128675238Y-88456276D01*
X129071428Y-89096276D02*
X129071428Y-88456276D01*
X129071428Y-88456276D02*
X129315238Y-88456276D01*
X129315238Y-88456276D02*
X129376190Y-88486752D01*
X129376190Y-88486752D02*
X129406667Y-88517228D01*
X129406667Y-88517228D02*
X129437143Y-88578180D01*
X129437143Y-88578180D02*
X129437143Y-88669609D01*
X129437143Y-88669609D02*
X129406667Y-88730561D01*
X129406667Y-88730561D02*
X129376190Y-88761038D01*
X129376190Y-88761038D02*
X129315238Y-88791514D01*
X129315238Y-88791514D02*
X129071428Y-88791514D01*
X129985714Y-88669609D02*
X129985714Y-89096276D01*
X129833333Y-88425800D02*
X129680952Y-88882942D01*
X129680952Y-88882942D02*
X130077143Y-88882942D01*
X138157142Y-53667580D02*
X138109523Y-53715200D01*
X138109523Y-53715200D02*
X137966666Y-53762819D01*
X137966666Y-53762819D02*
X137871428Y-53762819D01*
X137871428Y-53762819D02*
X137728571Y-53715200D01*
X137728571Y-53715200D02*
X137633333Y-53619961D01*
X137633333Y-53619961D02*
X137585714Y-53524723D01*
X137585714Y-53524723D02*
X137538095Y-53334247D01*
X137538095Y-53334247D02*
X137538095Y-53191390D01*
X137538095Y-53191390D02*
X137585714Y-53000914D01*
X137585714Y-53000914D02*
X137633333Y-52905676D01*
X137633333Y-52905676D02*
X137728571Y-52810438D01*
X137728571Y-52810438D02*
X137871428Y-52762819D01*
X137871428Y-52762819D02*
X137966666Y-52762819D01*
X137966666Y-52762819D02*
X138109523Y-52810438D01*
X138109523Y-52810438D02*
X138157142Y-52858057D01*
X139109523Y-53762819D02*
X138538095Y-53762819D01*
X138823809Y-53762819D02*
X138823809Y-52762819D01*
X138823809Y-52762819D02*
X138728571Y-52905676D01*
X138728571Y-52905676D02*
X138633333Y-53000914D01*
X138633333Y-53000914D02*
X138538095Y-53048533D01*
X139442857Y-52762819D02*
X140061904Y-52762819D01*
X140061904Y-52762819D02*
X139728571Y-53143771D01*
X139728571Y-53143771D02*
X139871428Y-53143771D01*
X139871428Y-53143771D02*
X139966666Y-53191390D01*
X139966666Y-53191390D02*
X140014285Y-53239009D01*
X140014285Y-53239009D02*
X140061904Y-53334247D01*
X140061904Y-53334247D02*
X140061904Y-53572342D01*
X140061904Y-53572342D02*
X140014285Y-53667580D01*
X140014285Y-53667580D02*
X139966666Y-53715200D01*
X139966666Y-53715200D02*
X139871428Y-53762819D01*
X139871428Y-53762819D02*
X139585714Y-53762819D01*
X139585714Y-53762819D02*
X139490476Y-53715200D01*
X139490476Y-53715200D02*
X139442857Y-53667580D01*
X188966666Y-94762819D02*
X188966666Y-95477104D01*
X188966666Y-95477104D02*
X188919047Y-95619961D01*
X188919047Y-95619961D02*
X188823809Y-95715200D01*
X188823809Y-95715200D02*
X188680952Y-95762819D01*
X188680952Y-95762819D02*
X188585714Y-95762819D01*
X189871428Y-94762819D02*
X189680952Y-94762819D01*
X189680952Y-94762819D02*
X189585714Y-94810438D01*
X189585714Y-94810438D02*
X189538095Y-94858057D01*
X189538095Y-94858057D02*
X189442857Y-95000914D01*
X189442857Y-95000914D02*
X189395238Y-95191390D01*
X189395238Y-95191390D02*
X189395238Y-95572342D01*
X189395238Y-95572342D02*
X189442857Y-95667580D01*
X189442857Y-95667580D02*
X189490476Y-95715200D01*
X189490476Y-95715200D02*
X189585714Y-95762819D01*
X189585714Y-95762819D02*
X189776190Y-95762819D01*
X189776190Y-95762819D02*
X189871428Y-95715200D01*
X189871428Y-95715200D02*
X189919047Y-95667580D01*
X189919047Y-95667580D02*
X189966666Y-95572342D01*
X189966666Y-95572342D02*
X189966666Y-95334247D01*
X189966666Y-95334247D02*
X189919047Y-95239009D01*
X189919047Y-95239009D02*
X189871428Y-95191390D01*
X189871428Y-95191390D02*
X189776190Y-95143771D01*
X189776190Y-95143771D02*
X189585714Y-95143771D01*
X189585714Y-95143771D02*
X189490476Y-95191390D01*
X189490476Y-95191390D02*
X189442857Y-95239009D01*
X189442857Y-95239009D02*
X189395238Y-95334247D01*
X114789876Y-54115618D02*
X114789876Y-53749904D01*
X115429876Y-53932761D02*
X114789876Y-53932761D01*
X115429876Y-53536571D02*
X114789876Y-53536571D01*
X114789876Y-53536571D02*
X114789876Y-53292761D01*
X114789876Y-53292761D02*
X114820352Y-53231809D01*
X114820352Y-53231809D02*
X114850828Y-53201332D01*
X114850828Y-53201332D02*
X114911780Y-53170856D01*
X114911780Y-53170856D02*
X115003209Y-53170856D01*
X115003209Y-53170856D02*
X115064161Y-53201332D01*
X115064161Y-53201332D02*
X115094638Y-53231809D01*
X115094638Y-53231809D02*
X115125114Y-53292761D01*
X115125114Y-53292761D02*
X115125114Y-53536571D01*
X114789876Y-52957523D02*
X114789876Y-52561332D01*
X114789876Y-52561332D02*
X115033685Y-52774666D01*
X115033685Y-52774666D02*
X115033685Y-52683237D01*
X115033685Y-52683237D02*
X115064161Y-52622285D01*
X115064161Y-52622285D02*
X115094638Y-52591809D01*
X115094638Y-52591809D02*
X115155590Y-52561332D01*
X115155590Y-52561332D02*
X115307971Y-52561332D01*
X115307971Y-52561332D02*
X115368923Y-52591809D01*
X115368923Y-52591809D02*
X115399400Y-52622285D01*
X115399400Y-52622285D02*
X115429876Y-52683237D01*
X115429876Y-52683237D02*
X115429876Y-52866094D01*
X115429876Y-52866094D02*
X115399400Y-52927047D01*
X115399400Y-52927047D02*
X115368923Y-52957523D01*
X163874819Y-114926857D02*
X163398628Y-115260190D01*
X163874819Y-115498285D02*
X162874819Y-115498285D01*
X162874819Y-115498285D02*
X162874819Y-115117333D01*
X162874819Y-115117333D02*
X162922438Y-115022095D01*
X162922438Y-115022095D02*
X162970057Y-114974476D01*
X162970057Y-114974476D02*
X163065295Y-114926857D01*
X163065295Y-114926857D02*
X163208152Y-114926857D01*
X163208152Y-114926857D02*
X163303390Y-114974476D01*
X163303390Y-114974476D02*
X163351009Y-115022095D01*
X163351009Y-115022095D02*
X163398628Y-115117333D01*
X163398628Y-115117333D02*
X163398628Y-115498285D01*
X163874819Y-113974476D02*
X163874819Y-114545904D01*
X163874819Y-114260190D02*
X162874819Y-114260190D01*
X162874819Y-114260190D02*
X163017676Y-114355428D01*
X163017676Y-114355428D02*
X163112914Y-114450666D01*
X163112914Y-114450666D02*
X163160533Y-114545904D01*
X162874819Y-113355428D02*
X162874819Y-113260190D01*
X162874819Y-113260190D02*
X162922438Y-113164952D01*
X162922438Y-113164952D02*
X162970057Y-113117333D01*
X162970057Y-113117333D02*
X163065295Y-113069714D01*
X163065295Y-113069714D02*
X163255771Y-113022095D01*
X163255771Y-113022095D02*
X163493866Y-113022095D01*
X163493866Y-113022095D02*
X163684342Y-113069714D01*
X163684342Y-113069714D02*
X163779580Y-113117333D01*
X163779580Y-113117333D02*
X163827200Y-113164952D01*
X163827200Y-113164952D02*
X163874819Y-113260190D01*
X163874819Y-113260190D02*
X163874819Y-113355428D01*
X163874819Y-113355428D02*
X163827200Y-113450666D01*
X163827200Y-113450666D02*
X163779580Y-113498285D01*
X163779580Y-113498285D02*
X163684342Y-113545904D01*
X163684342Y-113545904D02*
X163493866Y-113593523D01*
X163493866Y-113593523D02*
X163255771Y-113593523D01*
X163255771Y-113593523D02*
X163065295Y-113545904D01*
X163065295Y-113545904D02*
X162970057Y-113498285D01*
X162970057Y-113498285D02*
X162922438Y-113450666D01*
X162922438Y-113450666D02*
X162874819Y-113355428D01*
X130519142Y-80262819D02*
X130185809Y-79786628D01*
X129947714Y-80262819D02*
X129947714Y-79262819D01*
X129947714Y-79262819D02*
X130328666Y-79262819D01*
X130328666Y-79262819D02*
X130423904Y-79310438D01*
X130423904Y-79310438D02*
X130471523Y-79358057D01*
X130471523Y-79358057D02*
X130519142Y-79453295D01*
X130519142Y-79453295D02*
X130519142Y-79596152D01*
X130519142Y-79596152D02*
X130471523Y-79691390D01*
X130471523Y-79691390D02*
X130423904Y-79739009D01*
X130423904Y-79739009D02*
X130328666Y-79786628D01*
X130328666Y-79786628D02*
X129947714Y-79786628D01*
X131471523Y-80262819D02*
X130900095Y-80262819D01*
X131185809Y-80262819D02*
X131185809Y-79262819D01*
X131185809Y-79262819D02*
X131090571Y-79405676D01*
X131090571Y-79405676D02*
X130995333Y-79500914D01*
X130995333Y-79500914D02*
X130900095Y-79548533D01*
X131852476Y-79358057D02*
X131900095Y-79310438D01*
X131900095Y-79310438D02*
X131995333Y-79262819D01*
X131995333Y-79262819D02*
X132233428Y-79262819D01*
X132233428Y-79262819D02*
X132328666Y-79310438D01*
X132328666Y-79310438D02*
X132376285Y-79358057D01*
X132376285Y-79358057D02*
X132423904Y-79453295D01*
X132423904Y-79453295D02*
X132423904Y-79548533D01*
X132423904Y-79548533D02*
X132376285Y-79691390D01*
X132376285Y-79691390D02*
X131804857Y-80262819D01*
X131804857Y-80262819D02*
X132423904Y-80262819D01*
X48416666Y-95782819D02*
X48416666Y-96497104D01*
X48416666Y-96497104D02*
X48369047Y-96639961D01*
X48369047Y-96639961D02*
X48273809Y-96735200D01*
X48273809Y-96735200D02*
X48130952Y-96782819D01*
X48130952Y-96782819D02*
X48035714Y-96782819D01*
X49035714Y-96211390D02*
X48940476Y-96163771D01*
X48940476Y-96163771D02*
X48892857Y-96116152D01*
X48892857Y-96116152D02*
X48845238Y-96020914D01*
X48845238Y-96020914D02*
X48845238Y-95973295D01*
X48845238Y-95973295D02*
X48892857Y-95878057D01*
X48892857Y-95878057D02*
X48940476Y-95830438D01*
X48940476Y-95830438D02*
X49035714Y-95782819D01*
X49035714Y-95782819D02*
X49226190Y-95782819D01*
X49226190Y-95782819D02*
X49321428Y-95830438D01*
X49321428Y-95830438D02*
X49369047Y-95878057D01*
X49369047Y-95878057D02*
X49416666Y-95973295D01*
X49416666Y-95973295D02*
X49416666Y-96020914D01*
X49416666Y-96020914D02*
X49369047Y-96116152D01*
X49369047Y-96116152D02*
X49321428Y-96163771D01*
X49321428Y-96163771D02*
X49226190Y-96211390D01*
X49226190Y-96211390D02*
X49035714Y-96211390D01*
X49035714Y-96211390D02*
X48940476Y-96259009D01*
X48940476Y-96259009D02*
X48892857Y-96306628D01*
X48892857Y-96306628D02*
X48845238Y-96401866D01*
X48845238Y-96401866D02*
X48845238Y-96592342D01*
X48845238Y-96592342D02*
X48892857Y-96687580D01*
X48892857Y-96687580D02*
X48940476Y-96735200D01*
X48940476Y-96735200D02*
X49035714Y-96782819D01*
X49035714Y-96782819D02*
X49226190Y-96782819D01*
X49226190Y-96782819D02*
X49321428Y-96735200D01*
X49321428Y-96735200D02*
X49369047Y-96687580D01*
X49369047Y-96687580D02*
X49416666Y-96592342D01*
X49416666Y-96592342D02*
X49416666Y-96401866D01*
X49416666Y-96401866D02*
X49369047Y-96306628D01*
X49369047Y-96306628D02*
X49321428Y-96259009D01*
X49321428Y-96259009D02*
X49226190Y-96211390D01*
X130519142Y-77781819D02*
X130185809Y-77305628D01*
X129947714Y-77781819D02*
X129947714Y-76781819D01*
X129947714Y-76781819D02*
X130328666Y-76781819D01*
X130328666Y-76781819D02*
X130423904Y-76829438D01*
X130423904Y-76829438D02*
X130471523Y-76877057D01*
X130471523Y-76877057D02*
X130519142Y-76972295D01*
X130519142Y-76972295D02*
X130519142Y-77115152D01*
X130519142Y-77115152D02*
X130471523Y-77210390D01*
X130471523Y-77210390D02*
X130423904Y-77258009D01*
X130423904Y-77258009D02*
X130328666Y-77305628D01*
X130328666Y-77305628D02*
X129947714Y-77305628D01*
X131471523Y-77781819D02*
X130900095Y-77781819D01*
X131185809Y-77781819D02*
X131185809Y-76781819D01*
X131185809Y-76781819D02*
X131090571Y-76924676D01*
X131090571Y-76924676D02*
X130995333Y-77019914D01*
X130995333Y-77019914D02*
X130900095Y-77067533D01*
X131804857Y-76781819D02*
X132423904Y-76781819D01*
X132423904Y-76781819D02*
X132090571Y-77162771D01*
X132090571Y-77162771D02*
X132233428Y-77162771D01*
X132233428Y-77162771D02*
X132328666Y-77210390D01*
X132328666Y-77210390D02*
X132376285Y-77258009D01*
X132376285Y-77258009D02*
X132423904Y-77353247D01*
X132423904Y-77353247D02*
X132423904Y-77591342D01*
X132423904Y-77591342D02*
X132376285Y-77686580D01*
X132376285Y-77686580D02*
X132328666Y-77734200D01*
X132328666Y-77734200D02*
X132233428Y-77781819D01*
X132233428Y-77781819D02*
X131947714Y-77781819D01*
X131947714Y-77781819D02*
X131852476Y-77734200D01*
X131852476Y-77734200D02*
X131804857Y-77686580D01*
X117992381Y-32956276D02*
X118358095Y-32956276D01*
X118175238Y-33596276D02*
X118175238Y-32956276D01*
X118571428Y-33596276D02*
X118571428Y-32956276D01*
X118571428Y-32956276D02*
X118815238Y-32956276D01*
X118815238Y-32956276D02*
X118876190Y-32986752D01*
X118876190Y-32986752D02*
X118906667Y-33017228D01*
X118906667Y-33017228D02*
X118937143Y-33078180D01*
X118937143Y-33078180D02*
X118937143Y-33169609D01*
X118937143Y-33169609D02*
X118906667Y-33230561D01*
X118906667Y-33230561D02*
X118876190Y-33261038D01*
X118876190Y-33261038D02*
X118815238Y-33291514D01*
X118815238Y-33291514D02*
X118571428Y-33291514D01*
X119150476Y-32956276D02*
X119577143Y-32956276D01*
X119577143Y-32956276D02*
X119302857Y-33596276D01*
X148392381Y-46848276D02*
X148758095Y-46848276D01*
X148575238Y-47488276D02*
X148575238Y-46848276D01*
X148971428Y-47488276D02*
X148971428Y-46848276D01*
X148971428Y-46848276D02*
X149215238Y-46848276D01*
X149215238Y-46848276D02*
X149276190Y-46878752D01*
X149276190Y-46878752D02*
X149306667Y-46909228D01*
X149306667Y-46909228D02*
X149337143Y-46970180D01*
X149337143Y-46970180D02*
X149337143Y-47061609D01*
X149337143Y-47061609D02*
X149306667Y-47122561D01*
X149306667Y-47122561D02*
X149276190Y-47153038D01*
X149276190Y-47153038D02*
X149215238Y-47183514D01*
X149215238Y-47183514D02*
X148971428Y-47183514D01*
X149885714Y-46848276D02*
X149763809Y-46848276D01*
X149763809Y-46848276D02*
X149702857Y-46878752D01*
X149702857Y-46878752D02*
X149672381Y-46909228D01*
X149672381Y-46909228D02*
X149611428Y-47000657D01*
X149611428Y-47000657D02*
X149580952Y-47122561D01*
X149580952Y-47122561D02*
X149580952Y-47366371D01*
X149580952Y-47366371D02*
X149611428Y-47427323D01*
X149611428Y-47427323D02*
X149641905Y-47457800D01*
X149641905Y-47457800D02*
X149702857Y-47488276D01*
X149702857Y-47488276D02*
X149824762Y-47488276D01*
X149824762Y-47488276D02*
X149885714Y-47457800D01*
X149885714Y-47457800D02*
X149916190Y-47427323D01*
X149916190Y-47427323D02*
X149946667Y-47366371D01*
X149946667Y-47366371D02*
X149946667Y-47213990D01*
X149946667Y-47213990D02*
X149916190Y-47153038D01*
X149916190Y-47153038D02*
X149885714Y-47122561D01*
X149885714Y-47122561D02*
X149824762Y-47092085D01*
X149824762Y-47092085D02*
X149702857Y-47092085D01*
X149702857Y-47092085D02*
X149641905Y-47122561D01*
X149641905Y-47122561D02*
X149611428Y-47153038D01*
X149611428Y-47153038D02*
X149580952Y-47213990D01*
X165133333Y-98262819D02*
X164800000Y-97786628D01*
X164561905Y-98262819D02*
X164561905Y-97262819D01*
X164561905Y-97262819D02*
X164942857Y-97262819D01*
X164942857Y-97262819D02*
X165038095Y-97310438D01*
X165038095Y-97310438D02*
X165085714Y-97358057D01*
X165085714Y-97358057D02*
X165133333Y-97453295D01*
X165133333Y-97453295D02*
X165133333Y-97596152D01*
X165133333Y-97596152D02*
X165085714Y-97691390D01*
X165085714Y-97691390D02*
X165038095Y-97739009D01*
X165038095Y-97739009D02*
X164942857Y-97786628D01*
X164942857Y-97786628D02*
X164561905Y-97786628D01*
X165704762Y-97691390D02*
X165609524Y-97643771D01*
X165609524Y-97643771D02*
X165561905Y-97596152D01*
X165561905Y-97596152D02*
X165514286Y-97500914D01*
X165514286Y-97500914D02*
X165514286Y-97453295D01*
X165514286Y-97453295D02*
X165561905Y-97358057D01*
X165561905Y-97358057D02*
X165609524Y-97310438D01*
X165609524Y-97310438D02*
X165704762Y-97262819D01*
X165704762Y-97262819D02*
X165895238Y-97262819D01*
X165895238Y-97262819D02*
X165990476Y-97310438D01*
X165990476Y-97310438D02*
X166038095Y-97358057D01*
X166038095Y-97358057D02*
X166085714Y-97453295D01*
X166085714Y-97453295D02*
X166085714Y-97500914D01*
X166085714Y-97500914D02*
X166038095Y-97596152D01*
X166038095Y-97596152D02*
X165990476Y-97643771D01*
X165990476Y-97643771D02*
X165895238Y-97691390D01*
X165895238Y-97691390D02*
X165704762Y-97691390D01*
X165704762Y-97691390D02*
X165609524Y-97739009D01*
X165609524Y-97739009D02*
X165561905Y-97786628D01*
X165561905Y-97786628D02*
X165514286Y-97881866D01*
X165514286Y-97881866D02*
X165514286Y-98072342D01*
X165514286Y-98072342D02*
X165561905Y-98167580D01*
X165561905Y-98167580D02*
X165609524Y-98215200D01*
X165609524Y-98215200D02*
X165704762Y-98262819D01*
X165704762Y-98262819D02*
X165895238Y-98262819D01*
X165895238Y-98262819D02*
X165990476Y-98215200D01*
X165990476Y-98215200D02*
X166038095Y-98167580D01*
X166038095Y-98167580D02*
X166085714Y-98072342D01*
X166085714Y-98072342D02*
X166085714Y-97881866D01*
X166085714Y-97881866D02*
X166038095Y-97786628D01*
X166038095Y-97786628D02*
X165990476Y-97739009D01*
X165990476Y-97739009D02*
X165895238Y-97691390D01*
X167657142Y-98262819D02*
X167323809Y-97786628D01*
X167085714Y-98262819D02*
X167085714Y-97262819D01*
X167085714Y-97262819D02*
X167466666Y-97262819D01*
X167466666Y-97262819D02*
X167561904Y-97310438D01*
X167561904Y-97310438D02*
X167609523Y-97358057D01*
X167609523Y-97358057D02*
X167657142Y-97453295D01*
X167657142Y-97453295D02*
X167657142Y-97596152D01*
X167657142Y-97596152D02*
X167609523Y-97691390D01*
X167609523Y-97691390D02*
X167561904Y-97739009D01*
X167561904Y-97739009D02*
X167466666Y-97786628D01*
X167466666Y-97786628D02*
X167085714Y-97786628D01*
X168514285Y-97596152D02*
X168514285Y-98262819D01*
X168276190Y-97215200D02*
X168038095Y-97929485D01*
X168038095Y-97929485D02*
X168657142Y-97929485D01*
X169466666Y-97262819D02*
X169276190Y-97262819D01*
X169276190Y-97262819D02*
X169180952Y-97310438D01*
X169180952Y-97310438D02*
X169133333Y-97358057D01*
X169133333Y-97358057D02*
X169038095Y-97500914D01*
X169038095Y-97500914D02*
X168990476Y-97691390D01*
X168990476Y-97691390D02*
X168990476Y-98072342D01*
X168990476Y-98072342D02*
X169038095Y-98167580D01*
X169038095Y-98167580D02*
X169085714Y-98215200D01*
X169085714Y-98215200D02*
X169180952Y-98262819D01*
X169180952Y-98262819D02*
X169371428Y-98262819D01*
X169371428Y-98262819D02*
X169466666Y-98215200D01*
X169466666Y-98215200D02*
X169514285Y-98167580D01*
X169514285Y-98167580D02*
X169561904Y-98072342D01*
X169561904Y-98072342D02*
X169561904Y-97834247D01*
X169561904Y-97834247D02*
X169514285Y-97739009D01*
X169514285Y-97739009D02*
X169466666Y-97691390D01*
X169466666Y-97691390D02*
X169371428Y-97643771D01*
X169371428Y-97643771D02*
X169180952Y-97643771D01*
X169180952Y-97643771D02*
X169085714Y-97691390D01*
X169085714Y-97691390D02*
X169038095Y-97739009D01*
X169038095Y-97739009D02*
X168990476Y-97834247D01*
X137207142Y-78702580D02*
X137159523Y-78750200D01*
X137159523Y-78750200D02*
X137016666Y-78797819D01*
X137016666Y-78797819D02*
X136921428Y-78797819D01*
X136921428Y-78797819D02*
X136778571Y-78750200D01*
X136778571Y-78750200D02*
X136683333Y-78654961D01*
X136683333Y-78654961D02*
X136635714Y-78559723D01*
X136635714Y-78559723D02*
X136588095Y-78369247D01*
X136588095Y-78369247D02*
X136588095Y-78226390D01*
X136588095Y-78226390D02*
X136635714Y-78035914D01*
X136635714Y-78035914D02*
X136683333Y-77940676D01*
X136683333Y-77940676D02*
X136778571Y-77845438D01*
X136778571Y-77845438D02*
X136921428Y-77797819D01*
X136921428Y-77797819D02*
X137016666Y-77797819D01*
X137016666Y-77797819D02*
X137159523Y-77845438D01*
X137159523Y-77845438D02*
X137207142Y-77893057D01*
X138159523Y-78797819D02*
X137588095Y-78797819D01*
X137873809Y-78797819D02*
X137873809Y-77797819D01*
X137873809Y-77797819D02*
X137778571Y-77940676D01*
X137778571Y-77940676D02*
X137683333Y-78035914D01*
X137683333Y-78035914D02*
X137588095Y-78083533D01*
X139111904Y-78797819D02*
X138540476Y-78797819D01*
X138826190Y-78797819D02*
X138826190Y-77797819D01*
X138826190Y-77797819D02*
X138730952Y-77940676D01*
X138730952Y-77940676D02*
X138635714Y-78035914D01*
X138635714Y-78035914D02*
X138540476Y-78083533D01*
X72478033Y-147231580D02*
X72430414Y-147279200D01*
X72430414Y-147279200D02*
X72287557Y-147326819D01*
X72287557Y-147326819D02*
X72192319Y-147326819D01*
X72192319Y-147326819D02*
X72049462Y-147279200D01*
X72049462Y-147279200D02*
X71954224Y-147183961D01*
X71954224Y-147183961D02*
X71906605Y-147088723D01*
X71906605Y-147088723D02*
X71858986Y-146898247D01*
X71858986Y-146898247D02*
X71858986Y-146755390D01*
X71858986Y-146755390D02*
X71906605Y-146564914D01*
X71906605Y-146564914D02*
X71954224Y-146469676D01*
X71954224Y-146469676D02*
X72049462Y-146374438D01*
X72049462Y-146374438D02*
X72192319Y-146326819D01*
X72192319Y-146326819D02*
X72287557Y-146326819D01*
X72287557Y-146326819D02*
X72430414Y-146374438D01*
X72430414Y-146374438D02*
X72478033Y-146422057D01*
X72858986Y-146422057D02*
X72906605Y-146374438D01*
X72906605Y-146374438D02*
X73001843Y-146326819D01*
X73001843Y-146326819D02*
X73239938Y-146326819D01*
X73239938Y-146326819D02*
X73335176Y-146374438D01*
X73335176Y-146374438D02*
X73382795Y-146422057D01*
X73382795Y-146422057D02*
X73430414Y-146517295D01*
X73430414Y-146517295D02*
X73430414Y-146612533D01*
X73430414Y-146612533D02*
X73382795Y-146755390D01*
X73382795Y-146755390D02*
X72811367Y-147326819D01*
X72811367Y-147326819D02*
X73430414Y-147326819D01*
X141014580Y-36500857D02*
X141062200Y-36548476D01*
X141062200Y-36548476D02*
X141109819Y-36691333D01*
X141109819Y-36691333D02*
X141109819Y-36786571D01*
X141109819Y-36786571D02*
X141062200Y-36929428D01*
X141062200Y-36929428D02*
X140966961Y-37024666D01*
X140966961Y-37024666D02*
X140871723Y-37072285D01*
X140871723Y-37072285D02*
X140681247Y-37119904D01*
X140681247Y-37119904D02*
X140538390Y-37119904D01*
X140538390Y-37119904D02*
X140347914Y-37072285D01*
X140347914Y-37072285D02*
X140252676Y-37024666D01*
X140252676Y-37024666D02*
X140157438Y-36929428D01*
X140157438Y-36929428D02*
X140109819Y-36786571D01*
X140109819Y-36786571D02*
X140109819Y-36691333D01*
X140109819Y-36691333D02*
X140157438Y-36548476D01*
X140157438Y-36548476D02*
X140205057Y-36500857D01*
X140205057Y-36119904D02*
X140157438Y-36072285D01*
X140157438Y-36072285D02*
X140109819Y-35977047D01*
X140109819Y-35977047D02*
X140109819Y-35738952D01*
X140109819Y-35738952D02*
X140157438Y-35643714D01*
X140157438Y-35643714D02*
X140205057Y-35596095D01*
X140205057Y-35596095D02*
X140300295Y-35548476D01*
X140300295Y-35548476D02*
X140395533Y-35548476D01*
X140395533Y-35548476D02*
X140538390Y-35596095D01*
X140538390Y-35596095D02*
X141109819Y-36167523D01*
X141109819Y-36167523D02*
X141109819Y-35548476D01*
X141109819Y-34596095D02*
X141109819Y-35167523D01*
X141109819Y-34881809D02*
X140109819Y-34881809D01*
X140109819Y-34881809D02*
X140252676Y-34977047D01*
X140252676Y-34977047D02*
X140347914Y-35072285D01*
X140347914Y-35072285D02*
X140395533Y-35167523D01*
X124735761Y-45493057D02*
X124640523Y-45445438D01*
X124640523Y-45445438D02*
X124545285Y-45350200D01*
X124545285Y-45350200D02*
X124402428Y-45207342D01*
X124402428Y-45207342D02*
X124307190Y-45159723D01*
X124307190Y-45159723D02*
X124211952Y-45159723D01*
X124259571Y-45397819D02*
X124164333Y-45350200D01*
X124164333Y-45350200D02*
X124069095Y-45254961D01*
X124069095Y-45254961D02*
X124021476Y-45064485D01*
X124021476Y-45064485D02*
X124021476Y-44731152D01*
X124021476Y-44731152D02*
X124069095Y-44540676D01*
X124069095Y-44540676D02*
X124164333Y-44445438D01*
X124164333Y-44445438D02*
X124259571Y-44397819D01*
X124259571Y-44397819D02*
X124450047Y-44397819D01*
X124450047Y-44397819D02*
X124545285Y-44445438D01*
X124545285Y-44445438D02*
X124640523Y-44540676D01*
X124640523Y-44540676D02*
X124688142Y-44731152D01*
X124688142Y-44731152D02*
X124688142Y-45064485D01*
X124688142Y-45064485D02*
X124640523Y-45254961D01*
X124640523Y-45254961D02*
X124545285Y-45350200D01*
X124545285Y-45350200D02*
X124450047Y-45397819D01*
X124450047Y-45397819D02*
X124259571Y-45397819D01*
X125545285Y-44397819D02*
X125354809Y-44397819D01*
X125354809Y-44397819D02*
X125259571Y-44445438D01*
X125259571Y-44445438D02*
X125211952Y-44493057D01*
X125211952Y-44493057D02*
X125116714Y-44635914D01*
X125116714Y-44635914D02*
X125069095Y-44826390D01*
X125069095Y-44826390D02*
X125069095Y-45207342D01*
X125069095Y-45207342D02*
X125116714Y-45302580D01*
X125116714Y-45302580D02*
X125164333Y-45350200D01*
X125164333Y-45350200D02*
X125259571Y-45397819D01*
X125259571Y-45397819D02*
X125450047Y-45397819D01*
X125450047Y-45397819D02*
X125545285Y-45350200D01*
X125545285Y-45350200D02*
X125592904Y-45302580D01*
X125592904Y-45302580D02*
X125640523Y-45207342D01*
X125640523Y-45207342D02*
X125640523Y-44969247D01*
X125640523Y-44969247D02*
X125592904Y-44874009D01*
X125592904Y-44874009D02*
X125545285Y-44826390D01*
X125545285Y-44826390D02*
X125450047Y-44778771D01*
X125450047Y-44778771D02*
X125259571Y-44778771D01*
X125259571Y-44778771D02*
X125164333Y-44826390D01*
X125164333Y-44826390D02*
X125116714Y-44874009D01*
X125116714Y-44874009D02*
X125069095Y-44969247D01*
X85368015Y-64439021D02*
X85368015Y-63040848D01*
X86166971Y-64439021D02*
X85567754Y-63640065D01*
X86166971Y-63040848D02*
X85368015Y-63839804D01*
X86699608Y-63174008D02*
X86766188Y-63107428D01*
X86766188Y-63107428D02*
X86899347Y-63040848D01*
X86899347Y-63040848D02*
X87232246Y-63040848D01*
X87232246Y-63040848D02*
X87365405Y-63107428D01*
X87365405Y-63107428D02*
X87431985Y-63174008D01*
X87431985Y-63174008D02*
X87498564Y-63307167D01*
X87498564Y-63307167D02*
X87498564Y-63440326D01*
X87498564Y-63440326D02*
X87431985Y-63640065D01*
X87431985Y-63640065D02*
X86633029Y-64439021D01*
X86633029Y-64439021D02*
X87498564Y-64439021D01*
X114612333Y-93180580D02*
X114564714Y-93228200D01*
X114564714Y-93228200D02*
X114421857Y-93275819D01*
X114421857Y-93275819D02*
X114326619Y-93275819D01*
X114326619Y-93275819D02*
X114183762Y-93228200D01*
X114183762Y-93228200D02*
X114088524Y-93132961D01*
X114088524Y-93132961D02*
X114040905Y-93037723D01*
X114040905Y-93037723D02*
X113993286Y-92847247D01*
X113993286Y-92847247D02*
X113993286Y-92704390D01*
X113993286Y-92704390D02*
X114040905Y-92513914D01*
X114040905Y-92513914D02*
X114088524Y-92418676D01*
X114088524Y-92418676D02*
X114183762Y-92323438D01*
X114183762Y-92323438D02*
X114326619Y-92275819D01*
X114326619Y-92275819D02*
X114421857Y-92275819D01*
X114421857Y-92275819D02*
X114564714Y-92323438D01*
X114564714Y-92323438D02*
X114612333Y-92371057D01*
X115469476Y-92275819D02*
X115279000Y-92275819D01*
X115279000Y-92275819D02*
X115183762Y-92323438D01*
X115183762Y-92323438D02*
X115136143Y-92371057D01*
X115136143Y-92371057D02*
X115040905Y-92513914D01*
X115040905Y-92513914D02*
X114993286Y-92704390D01*
X114993286Y-92704390D02*
X114993286Y-93085342D01*
X114993286Y-93085342D02*
X115040905Y-93180580D01*
X115040905Y-93180580D02*
X115088524Y-93228200D01*
X115088524Y-93228200D02*
X115183762Y-93275819D01*
X115183762Y-93275819D02*
X115374238Y-93275819D01*
X115374238Y-93275819D02*
X115469476Y-93228200D01*
X115469476Y-93228200D02*
X115517095Y-93180580D01*
X115517095Y-93180580D02*
X115564714Y-93085342D01*
X115564714Y-93085342D02*
X115564714Y-92847247D01*
X115564714Y-92847247D02*
X115517095Y-92752009D01*
X115517095Y-92752009D02*
X115469476Y-92704390D01*
X115469476Y-92704390D02*
X115374238Y-92656771D01*
X115374238Y-92656771D02*
X115183762Y-92656771D01*
X115183762Y-92656771D02*
X115088524Y-92704390D01*
X115088524Y-92704390D02*
X115040905Y-92752009D01*
X115040905Y-92752009D02*
X114993286Y-92847247D01*
X162877142Y-85419980D02*
X162829523Y-85467600D01*
X162829523Y-85467600D02*
X162686666Y-85515219D01*
X162686666Y-85515219D02*
X162591428Y-85515219D01*
X162591428Y-85515219D02*
X162448571Y-85467600D01*
X162448571Y-85467600D02*
X162353333Y-85372361D01*
X162353333Y-85372361D02*
X162305714Y-85277123D01*
X162305714Y-85277123D02*
X162258095Y-85086647D01*
X162258095Y-85086647D02*
X162258095Y-84943790D01*
X162258095Y-84943790D02*
X162305714Y-84753314D01*
X162305714Y-84753314D02*
X162353333Y-84658076D01*
X162353333Y-84658076D02*
X162448571Y-84562838D01*
X162448571Y-84562838D02*
X162591428Y-84515219D01*
X162591428Y-84515219D02*
X162686666Y-84515219D01*
X162686666Y-84515219D02*
X162829523Y-84562838D01*
X162829523Y-84562838D02*
X162877142Y-84610457D01*
X163829523Y-85515219D02*
X163258095Y-85515219D01*
X163543809Y-85515219D02*
X163543809Y-84515219D01*
X163543809Y-84515219D02*
X163448571Y-84658076D01*
X163448571Y-84658076D02*
X163353333Y-84753314D01*
X163353333Y-84753314D02*
X163258095Y-84800933D01*
X164734285Y-84515219D02*
X164258095Y-84515219D01*
X164258095Y-84515219D02*
X164210476Y-84991409D01*
X164210476Y-84991409D02*
X164258095Y-84943790D01*
X164258095Y-84943790D02*
X164353333Y-84896171D01*
X164353333Y-84896171D02*
X164591428Y-84896171D01*
X164591428Y-84896171D02*
X164686666Y-84943790D01*
X164686666Y-84943790D02*
X164734285Y-84991409D01*
X164734285Y-84991409D02*
X164781904Y-85086647D01*
X164781904Y-85086647D02*
X164781904Y-85324742D01*
X164781904Y-85324742D02*
X164734285Y-85419980D01*
X164734285Y-85419980D02*
X164686666Y-85467600D01*
X164686666Y-85467600D02*
X164591428Y-85515219D01*
X164591428Y-85515219D02*
X164353333Y-85515219D01*
X164353333Y-85515219D02*
X164258095Y-85467600D01*
X164258095Y-85467600D02*
X164210476Y-85419980D01*
X77186666Y-33811009D02*
X76853333Y-33811009D01*
X76853333Y-34334819D02*
X76853333Y-33334819D01*
X76853333Y-33334819D02*
X77329523Y-33334819D01*
X78234285Y-34334819D02*
X77662857Y-34334819D01*
X77948571Y-34334819D02*
X77948571Y-33334819D01*
X77948571Y-33334819D02*
X77853333Y-33477676D01*
X77853333Y-33477676D02*
X77758095Y-33572914D01*
X77758095Y-33572914D02*
X77662857Y-33620533D01*
X112651761Y-89888657D02*
X112556523Y-89841038D01*
X112556523Y-89841038D02*
X112461285Y-89745800D01*
X112461285Y-89745800D02*
X112318428Y-89602942D01*
X112318428Y-89602942D02*
X112223190Y-89555323D01*
X112223190Y-89555323D02*
X112127952Y-89555323D01*
X112175571Y-89793419D02*
X112080333Y-89745800D01*
X112080333Y-89745800D02*
X111985095Y-89650561D01*
X111985095Y-89650561D02*
X111937476Y-89460085D01*
X111937476Y-89460085D02*
X111937476Y-89126752D01*
X111937476Y-89126752D02*
X111985095Y-88936276D01*
X111985095Y-88936276D02*
X112080333Y-88841038D01*
X112080333Y-88841038D02*
X112175571Y-88793419D01*
X112175571Y-88793419D02*
X112366047Y-88793419D01*
X112366047Y-88793419D02*
X112461285Y-88841038D01*
X112461285Y-88841038D02*
X112556523Y-88936276D01*
X112556523Y-88936276D02*
X112604142Y-89126752D01*
X112604142Y-89126752D02*
X112604142Y-89460085D01*
X112604142Y-89460085D02*
X112556523Y-89650561D01*
X112556523Y-89650561D02*
X112461285Y-89745800D01*
X112461285Y-89745800D02*
X112366047Y-89793419D01*
X112366047Y-89793419D02*
X112175571Y-89793419D01*
X113556523Y-89793419D02*
X112985095Y-89793419D01*
X113270809Y-89793419D02*
X113270809Y-88793419D01*
X113270809Y-88793419D02*
X113175571Y-88936276D01*
X113175571Y-88936276D02*
X113080333Y-89031514D01*
X113080333Y-89031514D02*
X112985095Y-89079133D01*
X173863333Y-80262819D02*
X173530000Y-79786628D01*
X173291905Y-80262819D02*
X173291905Y-79262819D01*
X173291905Y-79262819D02*
X173672857Y-79262819D01*
X173672857Y-79262819D02*
X173768095Y-79310438D01*
X173768095Y-79310438D02*
X173815714Y-79358057D01*
X173815714Y-79358057D02*
X173863333Y-79453295D01*
X173863333Y-79453295D02*
X173863333Y-79596152D01*
X173863333Y-79596152D02*
X173815714Y-79691390D01*
X173815714Y-79691390D02*
X173768095Y-79739009D01*
X173768095Y-79739009D02*
X173672857Y-79786628D01*
X173672857Y-79786628D02*
X173291905Y-79786628D01*
X174339524Y-80262819D02*
X174530000Y-80262819D01*
X174530000Y-80262819D02*
X174625238Y-80215200D01*
X174625238Y-80215200D02*
X174672857Y-80167580D01*
X174672857Y-80167580D02*
X174768095Y-80024723D01*
X174768095Y-80024723D02*
X174815714Y-79834247D01*
X174815714Y-79834247D02*
X174815714Y-79453295D01*
X174815714Y-79453295D02*
X174768095Y-79358057D01*
X174768095Y-79358057D02*
X174720476Y-79310438D01*
X174720476Y-79310438D02*
X174625238Y-79262819D01*
X174625238Y-79262819D02*
X174434762Y-79262819D01*
X174434762Y-79262819D02*
X174339524Y-79310438D01*
X174339524Y-79310438D02*
X174291905Y-79358057D01*
X174291905Y-79358057D02*
X174244286Y-79453295D01*
X174244286Y-79453295D02*
X174244286Y-79691390D01*
X174244286Y-79691390D02*
X174291905Y-79786628D01*
X174291905Y-79786628D02*
X174339524Y-79834247D01*
X174339524Y-79834247D02*
X174434762Y-79881866D01*
X174434762Y-79881866D02*
X174625238Y-79881866D01*
X174625238Y-79881866D02*
X174720476Y-79834247D01*
X174720476Y-79834247D02*
X174768095Y-79786628D01*
X174768095Y-79786628D02*
X174815714Y-79691390D01*
X142992381Y-72448276D02*
X143358095Y-72448276D01*
X143175238Y-73088276D02*
X143175238Y-72448276D01*
X143571428Y-73088276D02*
X143571428Y-72448276D01*
X143571428Y-72448276D02*
X143815238Y-72448276D01*
X143815238Y-72448276D02*
X143876190Y-72478752D01*
X143876190Y-72478752D02*
X143906667Y-72509228D01*
X143906667Y-72509228D02*
X143937143Y-72570180D01*
X143937143Y-72570180D02*
X143937143Y-72661609D01*
X143937143Y-72661609D02*
X143906667Y-72722561D01*
X143906667Y-72722561D02*
X143876190Y-72753038D01*
X143876190Y-72753038D02*
X143815238Y-72783514D01*
X143815238Y-72783514D02*
X143571428Y-72783514D01*
X144546667Y-73088276D02*
X144180952Y-73088276D01*
X144363809Y-73088276D02*
X144363809Y-72448276D01*
X144363809Y-72448276D02*
X144302857Y-72539704D01*
X144302857Y-72539704D02*
X144241905Y-72600657D01*
X144241905Y-72600657D02*
X144180952Y-72631133D01*
X123679361Y-92253657D02*
X123584123Y-92206038D01*
X123584123Y-92206038D02*
X123488885Y-92110800D01*
X123488885Y-92110800D02*
X123346028Y-91967942D01*
X123346028Y-91967942D02*
X123250790Y-91920323D01*
X123250790Y-91920323D02*
X123155552Y-91920323D01*
X123203171Y-92158419D02*
X123107933Y-92110800D01*
X123107933Y-92110800D02*
X123012695Y-92015561D01*
X123012695Y-92015561D02*
X122965076Y-91825085D01*
X122965076Y-91825085D02*
X122965076Y-91491752D01*
X122965076Y-91491752D02*
X123012695Y-91301276D01*
X123012695Y-91301276D02*
X123107933Y-91206038D01*
X123107933Y-91206038D02*
X123203171Y-91158419D01*
X123203171Y-91158419D02*
X123393647Y-91158419D01*
X123393647Y-91158419D02*
X123488885Y-91206038D01*
X123488885Y-91206038D02*
X123584123Y-91301276D01*
X123584123Y-91301276D02*
X123631742Y-91491752D01*
X123631742Y-91491752D02*
X123631742Y-91825085D01*
X123631742Y-91825085D02*
X123584123Y-92015561D01*
X123584123Y-92015561D02*
X123488885Y-92110800D01*
X123488885Y-92110800D02*
X123393647Y-92158419D01*
X123393647Y-92158419D02*
X123203171Y-92158419D01*
X124012695Y-91253657D02*
X124060314Y-91206038D01*
X124060314Y-91206038D02*
X124155552Y-91158419D01*
X124155552Y-91158419D02*
X124393647Y-91158419D01*
X124393647Y-91158419D02*
X124488885Y-91206038D01*
X124488885Y-91206038D02*
X124536504Y-91253657D01*
X124536504Y-91253657D02*
X124584123Y-91348895D01*
X124584123Y-91348895D02*
X124584123Y-91444133D01*
X124584123Y-91444133D02*
X124536504Y-91586990D01*
X124536504Y-91586990D02*
X123965076Y-92158419D01*
X123965076Y-92158419D02*
X124584123Y-92158419D01*
X149024381Y-26249876D02*
X149390095Y-26249876D01*
X149207238Y-26889876D02*
X149207238Y-26249876D01*
X149603428Y-26889876D02*
X149603428Y-26249876D01*
X149603428Y-26249876D02*
X149847238Y-26249876D01*
X149847238Y-26249876D02*
X149908190Y-26280352D01*
X149908190Y-26280352D02*
X149938667Y-26310828D01*
X149938667Y-26310828D02*
X149969143Y-26371780D01*
X149969143Y-26371780D02*
X149969143Y-26463209D01*
X149969143Y-26463209D02*
X149938667Y-26524161D01*
X149938667Y-26524161D02*
X149908190Y-26554638D01*
X149908190Y-26554638D02*
X149847238Y-26585114D01*
X149847238Y-26585114D02*
X149603428Y-26585114D01*
X150273905Y-26889876D02*
X150395809Y-26889876D01*
X150395809Y-26889876D02*
X150456762Y-26859400D01*
X150456762Y-26859400D02*
X150487238Y-26828923D01*
X150487238Y-26828923D02*
X150548190Y-26737495D01*
X150548190Y-26737495D02*
X150578667Y-26615590D01*
X150578667Y-26615590D02*
X150578667Y-26371780D01*
X150578667Y-26371780D02*
X150548190Y-26310828D01*
X150548190Y-26310828D02*
X150517714Y-26280352D01*
X150517714Y-26280352D02*
X150456762Y-26249876D01*
X150456762Y-26249876D02*
X150334857Y-26249876D01*
X150334857Y-26249876D02*
X150273905Y-26280352D01*
X150273905Y-26280352D02*
X150243428Y-26310828D01*
X150243428Y-26310828D02*
X150212952Y-26371780D01*
X150212952Y-26371780D02*
X150212952Y-26524161D01*
X150212952Y-26524161D02*
X150243428Y-26585114D01*
X150243428Y-26585114D02*
X150273905Y-26615590D01*
X150273905Y-26615590D02*
X150334857Y-26646066D01*
X150334857Y-26646066D02*
X150456762Y-26646066D01*
X150456762Y-26646066D02*
X150517714Y-26615590D01*
X150517714Y-26615590D02*
X150548190Y-26585114D01*
X150548190Y-26585114D02*
X150578667Y-26524161D01*
X178014642Y-89985219D02*
X177681309Y-89509028D01*
X177443214Y-89985219D02*
X177443214Y-88985219D01*
X177443214Y-88985219D02*
X177824166Y-88985219D01*
X177824166Y-88985219D02*
X177919404Y-89032838D01*
X177919404Y-89032838D02*
X177967023Y-89080457D01*
X177967023Y-89080457D02*
X178014642Y-89175695D01*
X178014642Y-89175695D02*
X178014642Y-89318552D01*
X178014642Y-89318552D02*
X177967023Y-89413790D01*
X177967023Y-89413790D02*
X177919404Y-89461409D01*
X177919404Y-89461409D02*
X177824166Y-89509028D01*
X177824166Y-89509028D02*
X177443214Y-89509028D01*
X178871785Y-89318552D02*
X178871785Y-89985219D01*
X178633690Y-88937600D02*
X178395595Y-89651885D01*
X178395595Y-89651885D02*
X179014642Y-89651885D01*
X179871785Y-88985219D02*
X179395595Y-88985219D01*
X179395595Y-88985219D02*
X179347976Y-89461409D01*
X179347976Y-89461409D02*
X179395595Y-89413790D01*
X179395595Y-89413790D02*
X179490833Y-89366171D01*
X179490833Y-89366171D02*
X179728928Y-89366171D01*
X179728928Y-89366171D02*
X179824166Y-89413790D01*
X179824166Y-89413790D02*
X179871785Y-89461409D01*
X179871785Y-89461409D02*
X179919404Y-89556647D01*
X179919404Y-89556647D02*
X179919404Y-89794742D01*
X179919404Y-89794742D02*
X179871785Y-89889980D01*
X179871785Y-89889980D02*
X179824166Y-89937600D01*
X179824166Y-89937600D02*
X179728928Y-89985219D01*
X179728928Y-89985219D02*
X179490833Y-89985219D01*
X179490833Y-89985219D02*
X179395595Y-89937600D01*
X179395595Y-89937600D02*
X179347976Y-89889980D01*
X125638095Y-54254819D02*
X125638095Y-55064342D01*
X125638095Y-55064342D02*
X125685714Y-55159580D01*
X125685714Y-55159580D02*
X125733333Y-55207200D01*
X125733333Y-55207200D02*
X125828571Y-55254819D01*
X125828571Y-55254819D02*
X126019047Y-55254819D01*
X126019047Y-55254819D02*
X126114285Y-55207200D01*
X126114285Y-55207200D02*
X126161904Y-55159580D01*
X126161904Y-55159580D02*
X126209523Y-55064342D01*
X126209523Y-55064342D02*
X126209523Y-54254819D01*
X126590476Y-54254819D02*
X127209523Y-54254819D01*
X127209523Y-54254819D02*
X126876190Y-54635771D01*
X126876190Y-54635771D02*
X127019047Y-54635771D01*
X127019047Y-54635771D02*
X127114285Y-54683390D01*
X127114285Y-54683390D02*
X127161904Y-54731009D01*
X127161904Y-54731009D02*
X127209523Y-54826247D01*
X127209523Y-54826247D02*
X127209523Y-55064342D01*
X127209523Y-55064342D02*
X127161904Y-55159580D01*
X127161904Y-55159580D02*
X127114285Y-55207200D01*
X127114285Y-55207200D02*
X127019047Y-55254819D01*
X127019047Y-55254819D02*
X126733333Y-55254819D01*
X126733333Y-55254819D02*
X126638095Y-55207200D01*
X126638095Y-55207200D02*
X126590476Y-55159580D01*
X177839642Y-83685219D02*
X177506309Y-83209028D01*
X177268214Y-83685219D02*
X177268214Y-82685219D01*
X177268214Y-82685219D02*
X177649166Y-82685219D01*
X177649166Y-82685219D02*
X177744404Y-82732838D01*
X177744404Y-82732838D02*
X177792023Y-82780457D01*
X177792023Y-82780457D02*
X177839642Y-82875695D01*
X177839642Y-82875695D02*
X177839642Y-83018552D01*
X177839642Y-83018552D02*
X177792023Y-83113790D01*
X177792023Y-83113790D02*
X177744404Y-83161409D01*
X177744404Y-83161409D02*
X177649166Y-83209028D01*
X177649166Y-83209028D02*
X177268214Y-83209028D01*
X178696785Y-83018552D02*
X178696785Y-83685219D01*
X178458690Y-82637600D02*
X178220595Y-83351885D01*
X178220595Y-83351885D02*
X178839642Y-83351885D01*
X179125357Y-82685219D02*
X179792023Y-82685219D01*
X179792023Y-82685219D02*
X179363452Y-83685219D01*
X140664580Y-83900857D02*
X140712200Y-83948476D01*
X140712200Y-83948476D02*
X140759819Y-84091333D01*
X140759819Y-84091333D02*
X140759819Y-84186571D01*
X140759819Y-84186571D02*
X140712200Y-84329428D01*
X140712200Y-84329428D02*
X140616961Y-84424666D01*
X140616961Y-84424666D02*
X140521723Y-84472285D01*
X140521723Y-84472285D02*
X140331247Y-84519904D01*
X140331247Y-84519904D02*
X140188390Y-84519904D01*
X140188390Y-84519904D02*
X139997914Y-84472285D01*
X139997914Y-84472285D02*
X139902676Y-84424666D01*
X139902676Y-84424666D02*
X139807438Y-84329428D01*
X139807438Y-84329428D02*
X139759819Y-84186571D01*
X139759819Y-84186571D02*
X139759819Y-84091333D01*
X139759819Y-84091333D02*
X139807438Y-83948476D01*
X139807438Y-83948476D02*
X139855057Y-83900857D01*
X139855057Y-83519904D02*
X139807438Y-83472285D01*
X139807438Y-83472285D02*
X139759819Y-83377047D01*
X139759819Y-83377047D02*
X139759819Y-83138952D01*
X139759819Y-83138952D02*
X139807438Y-83043714D01*
X139807438Y-83043714D02*
X139855057Y-82996095D01*
X139855057Y-82996095D02*
X139950295Y-82948476D01*
X139950295Y-82948476D02*
X140045533Y-82948476D01*
X140045533Y-82948476D02*
X140188390Y-82996095D01*
X140188390Y-82996095D02*
X140759819Y-83567523D01*
X140759819Y-83567523D02*
X140759819Y-82948476D01*
X140093152Y-82091333D02*
X140759819Y-82091333D01*
X139712200Y-82329428D02*
X140426485Y-82567523D01*
X140426485Y-82567523D02*
X140426485Y-81948476D01*
X169619819Y-89606104D02*
X170429342Y-89606104D01*
X170429342Y-89606104D02*
X170524580Y-89558485D01*
X170524580Y-89558485D02*
X170572200Y-89510866D01*
X170572200Y-89510866D02*
X170619819Y-89415628D01*
X170619819Y-89415628D02*
X170619819Y-89225152D01*
X170619819Y-89225152D02*
X170572200Y-89129914D01*
X170572200Y-89129914D02*
X170524580Y-89082295D01*
X170524580Y-89082295D02*
X170429342Y-89034676D01*
X170429342Y-89034676D02*
X169619819Y-89034676D01*
X169619819Y-88129914D02*
X169619819Y-88320390D01*
X169619819Y-88320390D02*
X169667438Y-88415628D01*
X169667438Y-88415628D02*
X169715057Y-88463247D01*
X169715057Y-88463247D02*
X169857914Y-88558485D01*
X169857914Y-88558485D02*
X170048390Y-88606104D01*
X170048390Y-88606104D02*
X170429342Y-88606104D01*
X170429342Y-88606104D02*
X170524580Y-88558485D01*
X170524580Y-88558485D02*
X170572200Y-88510866D01*
X170572200Y-88510866D02*
X170619819Y-88415628D01*
X170619819Y-88415628D02*
X170619819Y-88225152D01*
X170619819Y-88225152D02*
X170572200Y-88129914D01*
X170572200Y-88129914D02*
X170524580Y-88082295D01*
X170524580Y-88082295D02*
X170429342Y-88034676D01*
X170429342Y-88034676D02*
X170191247Y-88034676D01*
X170191247Y-88034676D02*
X170096009Y-88082295D01*
X170096009Y-88082295D02*
X170048390Y-88129914D01*
X170048390Y-88129914D02*
X170000771Y-88225152D01*
X170000771Y-88225152D02*
X170000771Y-88415628D01*
X170000771Y-88415628D02*
X170048390Y-88510866D01*
X170048390Y-88510866D02*
X170096009Y-88558485D01*
X170096009Y-88558485D02*
X170191247Y-88606104D01*
X166013019Y-91561999D02*
X166251114Y-91561999D01*
X166155876Y-91800094D02*
X166251114Y-91561999D01*
X166251114Y-91561999D02*
X166155876Y-91323904D01*
X166441590Y-91704856D02*
X166251114Y-91561999D01*
X166251114Y-91561999D02*
X166441590Y-91419142D01*
X166013019Y-91561999D02*
X166251114Y-91561999D01*
X166155876Y-91800094D02*
X166251114Y-91561999D01*
X166251114Y-91561999D02*
X166155876Y-91323904D01*
X166441590Y-91704856D02*
X166251114Y-91561999D01*
X166251114Y-91561999D02*
X166441590Y-91419142D01*
X134657142Y-37262819D02*
X134323809Y-36786628D01*
X134085714Y-37262819D02*
X134085714Y-36262819D01*
X134085714Y-36262819D02*
X134466666Y-36262819D01*
X134466666Y-36262819D02*
X134561904Y-36310438D01*
X134561904Y-36310438D02*
X134609523Y-36358057D01*
X134609523Y-36358057D02*
X134657142Y-36453295D01*
X134657142Y-36453295D02*
X134657142Y-36596152D01*
X134657142Y-36596152D02*
X134609523Y-36691390D01*
X134609523Y-36691390D02*
X134561904Y-36739009D01*
X134561904Y-36739009D02*
X134466666Y-36786628D01*
X134466666Y-36786628D02*
X134085714Y-36786628D01*
X134990476Y-36262819D02*
X135609523Y-36262819D01*
X135609523Y-36262819D02*
X135276190Y-36643771D01*
X135276190Y-36643771D02*
X135419047Y-36643771D01*
X135419047Y-36643771D02*
X135514285Y-36691390D01*
X135514285Y-36691390D02*
X135561904Y-36739009D01*
X135561904Y-36739009D02*
X135609523Y-36834247D01*
X135609523Y-36834247D02*
X135609523Y-37072342D01*
X135609523Y-37072342D02*
X135561904Y-37167580D01*
X135561904Y-37167580D02*
X135514285Y-37215200D01*
X135514285Y-37215200D02*
X135419047Y-37262819D01*
X135419047Y-37262819D02*
X135133333Y-37262819D01*
X135133333Y-37262819D02*
X135038095Y-37215200D01*
X135038095Y-37215200D02*
X134990476Y-37167580D01*
X136466666Y-36262819D02*
X136276190Y-36262819D01*
X136276190Y-36262819D02*
X136180952Y-36310438D01*
X136180952Y-36310438D02*
X136133333Y-36358057D01*
X136133333Y-36358057D02*
X136038095Y-36500914D01*
X136038095Y-36500914D02*
X135990476Y-36691390D01*
X135990476Y-36691390D02*
X135990476Y-37072342D01*
X135990476Y-37072342D02*
X136038095Y-37167580D01*
X136038095Y-37167580D02*
X136085714Y-37215200D01*
X136085714Y-37215200D02*
X136180952Y-37262819D01*
X136180952Y-37262819D02*
X136371428Y-37262819D01*
X136371428Y-37262819D02*
X136466666Y-37215200D01*
X136466666Y-37215200D02*
X136514285Y-37167580D01*
X136514285Y-37167580D02*
X136561904Y-37072342D01*
X136561904Y-37072342D02*
X136561904Y-36834247D01*
X136561904Y-36834247D02*
X136514285Y-36739009D01*
X136514285Y-36739009D02*
X136466666Y-36691390D01*
X136466666Y-36691390D02*
X136371428Y-36643771D01*
X136371428Y-36643771D02*
X136180952Y-36643771D01*
X136180952Y-36643771D02*
X136085714Y-36691390D01*
X136085714Y-36691390D02*
X136038095Y-36739009D01*
X136038095Y-36739009D02*
X135990476Y-36834247D01*
X116693333Y-68288580D02*
X116645714Y-68336200D01*
X116645714Y-68336200D02*
X116502857Y-68383819D01*
X116502857Y-68383819D02*
X116407619Y-68383819D01*
X116407619Y-68383819D02*
X116264762Y-68336200D01*
X116264762Y-68336200D02*
X116169524Y-68240961D01*
X116169524Y-68240961D02*
X116121905Y-68145723D01*
X116121905Y-68145723D02*
X116074286Y-67955247D01*
X116074286Y-67955247D02*
X116074286Y-67812390D01*
X116074286Y-67812390D02*
X116121905Y-67621914D01*
X116121905Y-67621914D02*
X116169524Y-67526676D01*
X116169524Y-67526676D02*
X116264762Y-67431438D01*
X116264762Y-67431438D02*
X116407619Y-67383819D01*
X116407619Y-67383819D02*
X116502857Y-67383819D01*
X116502857Y-67383819D02*
X116645714Y-67431438D01*
X116645714Y-67431438D02*
X116693333Y-67479057D01*
X117026667Y-67383819D02*
X117693333Y-67383819D01*
X117693333Y-67383819D02*
X117264762Y-68383819D01*
X118338333Y-44502580D02*
X118290714Y-44550200D01*
X118290714Y-44550200D02*
X118147857Y-44597819D01*
X118147857Y-44597819D02*
X118052619Y-44597819D01*
X118052619Y-44597819D02*
X117909762Y-44550200D01*
X117909762Y-44550200D02*
X117814524Y-44454961D01*
X117814524Y-44454961D02*
X117766905Y-44359723D01*
X117766905Y-44359723D02*
X117719286Y-44169247D01*
X117719286Y-44169247D02*
X117719286Y-44026390D01*
X117719286Y-44026390D02*
X117766905Y-43835914D01*
X117766905Y-43835914D02*
X117814524Y-43740676D01*
X117814524Y-43740676D02*
X117909762Y-43645438D01*
X117909762Y-43645438D02*
X118052619Y-43597819D01*
X118052619Y-43597819D02*
X118147857Y-43597819D01*
X118147857Y-43597819D02*
X118290714Y-43645438D01*
X118290714Y-43645438D02*
X118338333Y-43693057D01*
X118909762Y-44026390D02*
X118814524Y-43978771D01*
X118814524Y-43978771D02*
X118766905Y-43931152D01*
X118766905Y-43931152D02*
X118719286Y-43835914D01*
X118719286Y-43835914D02*
X118719286Y-43788295D01*
X118719286Y-43788295D02*
X118766905Y-43693057D01*
X118766905Y-43693057D02*
X118814524Y-43645438D01*
X118814524Y-43645438D02*
X118909762Y-43597819D01*
X118909762Y-43597819D02*
X119100238Y-43597819D01*
X119100238Y-43597819D02*
X119195476Y-43645438D01*
X119195476Y-43645438D02*
X119243095Y-43693057D01*
X119243095Y-43693057D02*
X119290714Y-43788295D01*
X119290714Y-43788295D02*
X119290714Y-43835914D01*
X119290714Y-43835914D02*
X119243095Y-43931152D01*
X119243095Y-43931152D02*
X119195476Y-43978771D01*
X119195476Y-43978771D02*
X119100238Y-44026390D01*
X119100238Y-44026390D02*
X118909762Y-44026390D01*
X118909762Y-44026390D02*
X118814524Y-44074009D01*
X118814524Y-44074009D02*
X118766905Y-44121628D01*
X118766905Y-44121628D02*
X118719286Y-44216866D01*
X118719286Y-44216866D02*
X118719286Y-44407342D01*
X118719286Y-44407342D02*
X118766905Y-44502580D01*
X118766905Y-44502580D02*
X118814524Y-44550200D01*
X118814524Y-44550200D02*
X118909762Y-44597819D01*
X118909762Y-44597819D02*
X119100238Y-44597819D01*
X119100238Y-44597819D02*
X119195476Y-44550200D01*
X119195476Y-44550200D02*
X119243095Y-44502580D01*
X119243095Y-44502580D02*
X119290714Y-44407342D01*
X119290714Y-44407342D02*
X119290714Y-44216866D01*
X119290714Y-44216866D02*
X119243095Y-44121628D01*
X119243095Y-44121628D02*
X119195476Y-44074009D01*
X119195476Y-44074009D02*
X119100238Y-44026390D01*
X64753333Y-43139580D02*
X64705714Y-43187200D01*
X64705714Y-43187200D02*
X64562857Y-43234819D01*
X64562857Y-43234819D02*
X64467619Y-43234819D01*
X64467619Y-43234819D02*
X64324762Y-43187200D01*
X64324762Y-43187200D02*
X64229524Y-43091961D01*
X64229524Y-43091961D02*
X64181905Y-42996723D01*
X64181905Y-42996723D02*
X64134286Y-42806247D01*
X64134286Y-42806247D02*
X64134286Y-42663390D01*
X64134286Y-42663390D02*
X64181905Y-42472914D01*
X64181905Y-42472914D02*
X64229524Y-42377676D01*
X64229524Y-42377676D02*
X64324762Y-42282438D01*
X64324762Y-42282438D02*
X64467619Y-42234819D01*
X64467619Y-42234819D02*
X64562857Y-42234819D01*
X64562857Y-42234819D02*
X64705714Y-42282438D01*
X64705714Y-42282438D02*
X64753333Y-42330057D01*
X65229524Y-43234819D02*
X65420000Y-43234819D01*
X65420000Y-43234819D02*
X65515238Y-43187200D01*
X65515238Y-43187200D02*
X65562857Y-43139580D01*
X65562857Y-43139580D02*
X65658095Y-42996723D01*
X65658095Y-42996723D02*
X65705714Y-42806247D01*
X65705714Y-42806247D02*
X65705714Y-42425295D01*
X65705714Y-42425295D02*
X65658095Y-42330057D01*
X65658095Y-42330057D02*
X65610476Y-42282438D01*
X65610476Y-42282438D02*
X65515238Y-42234819D01*
X65515238Y-42234819D02*
X65324762Y-42234819D01*
X65324762Y-42234819D02*
X65229524Y-42282438D01*
X65229524Y-42282438D02*
X65181905Y-42330057D01*
X65181905Y-42330057D02*
X65134286Y-42425295D01*
X65134286Y-42425295D02*
X65134286Y-42663390D01*
X65134286Y-42663390D02*
X65181905Y-42758628D01*
X65181905Y-42758628D02*
X65229524Y-42806247D01*
X65229524Y-42806247D02*
X65324762Y-42853866D01*
X65324762Y-42853866D02*
X65515238Y-42853866D01*
X65515238Y-42853866D02*
X65610476Y-42806247D01*
X65610476Y-42806247D02*
X65658095Y-42758628D01*
X65658095Y-42758628D02*
X65705714Y-42663390D01*
X135069642Y-84762819D02*
X134736309Y-84286628D01*
X134498214Y-84762819D02*
X134498214Y-83762819D01*
X134498214Y-83762819D02*
X134879166Y-83762819D01*
X134879166Y-83762819D02*
X134974404Y-83810438D01*
X134974404Y-83810438D02*
X135022023Y-83858057D01*
X135022023Y-83858057D02*
X135069642Y-83953295D01*
X135069642Y-83953295D02*
X135069642Y-84096152D01*
X135069642Y-84096152D02*
X135022023Y-84191390D01*
X135022023Y-84191390D02*
X134974404Y-84239009D01*
X134974404Y-84239009D02*
X134879166Y-84286628D01*
X134879166Y-84286628D02*
X134498214Y-84286628D01*
X135402976Y-83762819D02*
X136022023Y-83762819D01*
X136022023Y-83762819D02*
X135688690Y-84143771D01*
X135688690Y-84143771D02*
X135831547Y-84143771D01*
X135831547Y-84143771D02*
X135926785Y-84191390D01*
X135926785Y-84191390D02*
X135974404Y-84239009D01*
X135974404Y-84239009D02*
X136022023Y-84334247D01*
X136022023Y-84334247D02*
X136022023Y-84572342D01*
X136022023Y-84572342D02*
X135974404Y-84667580D01*
X135974404Y-84667580D02*
X135926785Y-84715200D01*
X135926785Y-84715200D02*
X135831547Y-84762819D01*
X135831547Y-84762819D02*
X135545833Y-84762819D01*
X135545833Y-84762819D02*
X135450595Y-84715200D01*
X135450595Y-84715200D02*
X135402976Y-84667580D01*
X136402976Y-83858057D02*
X136450595Y-83810438D01*
X136450595Y-83810438D02*
X136545833Y-83762819D01*
X136545833Y-83762819D02*
X136783928Y-83762819D01*
X136783928Y-83762819D02*
X136879166Y-83810438D01*
X136879166Y-83810438D02*
X136926785Y-83858057D01*
X136926785Y-83858057D02*
X136974404Y-83953295D01*
X136974404Y-83953295D02*
X136974404Y-84048533D01*
X136974404Y-84048533D02*
X136926785Y-84191390D01*
X136926785Y-84191390D02*
X136355357Y-84762819D01*
X136355357Y-84762819D02*
X136974404Y-84762819D01*
X125238095Y-29454819D02*
X125238095Y-30264342D01*
X125238095Y-30264342D02*
X125285714Y-30359580D01*
X125285714Y-30359580D02*
X125333333Y-30407200D01*
X125333333Y-30407200D02*
X125428571Y-30454819D01*
X125428571Y-30454819D02*
X125619047Y-30454819D01*
X125619047Y-30454819D02*
X125714285Y-30407200D01*
X125714285Y-30407200D02*
X125761904Y-30359580D01*
X125761904Y-30359580D02*
X125809523Y-30264342D01*
X125809523Y-30264342D02*
X125809523Y-29454819D01*
X126714285Y-29788152D02*
X126714285Y-30454819D01*
X126476190Y-29407200D02*
X126238095Y-30121485D01*
X126238095Y-30121485D02*
X126857142Y-30121485D01*
X115204761Y-42983057D02*
X115109523Y-42935438D01*
X115109523Y-42935438D02*
X115014285Y-42840200D01*
X115014285Y-42840200D02*
X114871428Y-42697342D01*
X114871428Y-42697342D02*
X114776190Y-42649723D01*
X114776190Y-42649723D02*
X114680952Y-42649723D01*
X114728571Y-42887819D02*
X114633333Y-42840200D01*
X114633333Y-42840200D02*
X114538095Y-42744961D01*
X114538095Y-42744961D02*
X114490476Y-42554485D01*
X114490476Y-42554485D02*
X114490476Y-42221152D01*
X114490476Y-42221152D02*
X114538095Y-42030676D01*
X114538095Y-42030676D02*
X114633333Y-41935438D01*
X114633333Y-41935438D02*
X114728571Y-41887819D01*
X114728571Y-41887819D02*
X114919047Y-41887819D01*
X114919047Y-41887819D02*
X115014285Y-41935438D01*
X115014285Y-41935438D02*
X115109523Y-42030676D01*
X115109523Y-42030676D02*
X115157142Y-42221152D01*
X115157142Y-42221152D02*
X115157142Y-42554485D01*
X115157142Y-42554485D02*
X115109523Y-42744961D01*
X115109523Y-42744961D02*
X115014285Y-42840200D01*
X115014285Y-42840200D02*
X114919047Y-42887819D01*
X114919047Y-42887819D02*
X114728571Y-42887819D01*
X116061904Y-41887819D02*
X115585714Y-41887819D01*
X115585714Y-41887819D02*
X115538095Y-42364009D01*
X115538095Y-42364009D02*
X115585714Y-42316390D01*
X115585714Y-42316390D02*
X115680952Y-42268771D01*
X115680952Y-42268771D02*
X115919047Y-42268771D01*
X115919047Y-42268771D02*
X116014285Y-42316390D01*
X116014285Y-42316390D02*
X116061904Y-42364009D01*
X116061904Y-42364009D02*
X116109523Y-42459247D01*
X116109523Y-42459247D02*
X116109523Y-42697342D01*
X116109523Y-42697342D02*
X116061904Y-42792580D01*
X116061904Y-42792580D02*
X116014285Y-42840200D01*
X116014285Y-42840200D02*
X115919047Y-42887819D01*
X115919047Y-42887819D02*
X115680952Y-42887819D01*
X115680952Y-42887819D02*
X115585714Y-42840200D01*
X115585714Y-42840200D02*
X115538095Y-42792580D01*
X135657142Y-59762819D02*
X135323809Y-59286628D01*
X135085714Y-59762819D02*
X135085714Y-58762819D01*
X135085714Y-58762819D02*
X135466666Y-58762819D01*
X135466666Y-58762819D02*
X135561904Y-58810438D01*
X135561904Y-58810438D02*
X135609523Y-58858057D01*
X135609523Y-58858057D02*
X135657142Y-58953295D01*
X135657142Y-58953295D02*
X135657142Y-59096152D01*
X135657142Y-59096152D02*
X135609523Y-59191390D01*
X135609523Y-59191390D02*
X135561904Y-59239009D01*
X135561904Y-59239009D02*
X135466666Y-59286628D01*
X135466666Y-59286628D02*
X135085714Y-59286628D01*
X135990476Y-58762819D02*
X136609523Y-58762819D01*
X136609523Y-58762819D02*
X136276190Y-59143771D01*
X136276190Y-59143771D02*
X136419047Y-59143771D01*
X136419047Y-59143771D02*
X136514285Y-59191390D01*
X136514285Y-59191390D02*
X136561904Y-59239009D01*
X136561904Y-59239009D02*
X136609523Y-59334247D01*
X136609523Y-59334247D02*
X136609523Y-59572342D01*
X136609523Y-59572342D02*
X136561904Y-59667580D01*
X136561904Y-59667580D02*
X136514285Y-59715200D01*
X136514285Y-59715200D02*
X136419047Y-59762819D01*
X136419047Y-59762819D02*
X136133333Y-59762819D01*
X136133333Y-59762819D02*
X136038095Y-59715200D01*
X136038095Y-59715200D02*
X135990476Y-59667580D01*
X137514285Y-58762819D02*
X137038095Y-58762819D01*
X137038095Y-58762819D02*
X136990476Y-59239009D01*
X136990476Y-59239009D02*
X137038095Y-59191390D01*
X137038095Y-59191390D02*
X137133333Y-59143771D01*
X137133333Y-59143771D02*
X137371428Y-59143771D01*
X137371428Y-59143771D02*
X137466666Y-59191390D01*
X137466666Y-59191390D02*
X137514285Y-59239009D01*
X137514285Y-59239009D02*
X137561904Y-59334247D01*
X137561904Y-59334247D02*
X137561904Y-59572342D01*
X137561904Y-59572342D02*
X137514285Y-59667580D01*
X137514285Y-59667580D02*
X137466666Y-59715200D01*
X137466666Y-59715200D02*
X137371428Y-59762819D01*
X137371428Y-59762819D02*
X137133333Y-59762819D01*
X137133333Y-59762819D02*
X137038095Y-59715200D01*
X137038095Y-59715200D02*
X136990476Y-59667580D01*
X113159761Y-65050057D02*
X113064523Y-65002438D01*
X113064523Y-65002438D02*
X112969285Y-64907200D01*
X112969285Y-64907200D02*
X112826428Y-64764342D01*
X112826428Y-64764342D02*
X112731190Y-64716723D01*
X112731190Y-64716723D02*
X112635952Y-64716723D01*
X112683571Y-64954819D02*
X112588333Y-64907200D01*
X112588333Y-64907200D02*
X112493095Y-64811961D01*
X112493095Y-64811961D02*
X112445476Y-64621485D01*
X112445476Y-64621485D02*
X112445476Y-64288152D01*
X112445476Y-64288152D02*
X112493095Y-64097676D01*
X112493095Y-64097676D02*
X112588333Y-64002438D01*
X112588333Y-64002438D02*
X112683571Y-63954819D01*
X112683571Y-63954819D02*
X112874047Y-63954819D01*
X112874047Y-63954819D02*
X112969285Y-64002438D01*
X112969285Y-64002438D02*
X113064523Y-64097676D01*
X113064523Y-64097676D02*
X113112142Y-64288152D01*
X113112142Y-64288152D02*
X113112142Y-64621485D01*
X113112142Y-64621485D02*
X113064523Y-64811961D01*
X113064523Y-64811961D02*
X112969285Y-64907200D01*
X112969285Y-64907200D02*
X112874047Y-64954819D01*
X112874047Y-64954819D02*
X112683571Y-64954819D01*
X113445476Y-63954819D02*
X114064523Y-63954819D01*
X114064523Y-63954819D02*
X113731190Y-64335771D01*
X113731190Y-64335771D02*
X113874047Y-64335771D01*
X113874047Y-64335771D02*
X113969285Y-64383390D01*
X113969285Y-64383390D02*
X114016904Y-64431009D01*
X114016904Y-64431009D02*
X114064523Y-64526247D01*
X114064523Y-64526247D02*
X114064523Y-64764342D01*
X114064523Y-64764342D02*
X114016904Y-64859580D01*
X114016904Y-64859580D02*
X113969285Y-64907200D01*
X113969285Y-64907200D02*
X113874047Y-64954819D01*
X113874047Y-64954819D02*
X113588333Y-64954819D01*
X113588333Y-64954819D02*
X113493095Y-64907200D01*
X113493095Y-64907200D02*
X113445476Y-64859580D01*
X79957142Y-89254819D02*
X79623809Y-88778628D01*
X79385714Y-89254819D02*
X79385714Y-88254819D01*
X79385714Y-88254819D02*
X79766666Y-88254819D01*
X79766666Y-88254819D02*
X79861904Y-88302438D01*
X79861904Y-88302438D02*
X79909523Y-88350057D01*
X79909523Y-88350057D02*
X79957142Y-88445295D01*
X79957142Y-88445295D02*
X79957142Y-88588152D01*
X79957142Y-88588152D02*
X79909523Y-88683390D01*
X79909523Y-88683390D02*
X79861904Y-88731009D01*
X79861904Y-88731009D02*
X79766666Y-88778628D01*
X79766666Y-88778628D02*
X79385714Y-88778628D01*
X80814285Y-88588152D02*
X80814285Y-89254819D01*
X80576190Y-88207200D02*
X80338095Y-88921485D01*
X80338095Y-88921485D02*
X80957142Y-88921485D01*
X81766666Y-88588152D02*
X81766666Y-89254819D01*
X81528571Y-88207200D02*
X81290476Y-88921485D01*
X81290476Y-88921485D02*
X81909523Y-88921485D01*
X131281142Y-52762819D02*
X130947809Y-52286628D01*
X130709714Y-52762819D02*
X130709714Y-51762819D01*
X130709714Y-51762819D02*
X131090666Y-51762819D01*
X131090666Y-51762819D02*
X131185904Y-51810438D01*
X131185904Y-51810438D02*
X131233523Y-51858057D01*
X131233523Y-51858057D02*
X131281142Y-51953295D01*
X131281142Y-51953295D02*
X131281142Y-52096152D01*
X131281142Y-52096152D02*
X131233523Y-52191390D01*
X131233523Y-52191390D02*
X131185904Y-52239009D01*
X131185904Y-52239009D02*
X131090666Y-52286628D01*
X131090666Y-52286628D02*
X130709714Y-52286628D01*
X132233523Y-52762819D02*
X131662095Y-52762819D01*
X131947809Y-52762819D02*
X131947809Y-51762819D01*
X131947809Y-51762819D02*
X131852571Y-51905676D01*
X131852571Y-51905676D02*
X131757333Y-52000914D01*
X131757333Y-52000914D02*
X131662095Y-52048533D01*
X133090666Y-52096152D02*
X133090666Y-52762819D01*
X132852571Y-51715200D02*
X132614476Y-52429485D01*
X132614476Y-52429485D02*
X133233523Y-52429485D01*
X137557142Y-31167580D02*
X137509523Y-31215200D01*
X137509523Y-31215200D02*
X137366666Y-31262819D01*
X137366666Y-31262819D02*
X137271428Y-31262819D01*
X137271428Y-31262819D02*
X137128571Y-31215200D01*
X137128571Y-31215200D02*
X137033333Y-31119961D01*
X137033333Y-31119961D02*
X136985714Y-31024723D01*
X136985714Y-31024723D02*
X136938095Y-30834247D01*
X136938095Y-30834247D02*
X136938095Y-30691390D01*
X136938095Y-30691390D02*
X136985714Y-30500914D01*
X136985714Y-30500914D02*
X137033333Y-30405676D01*
X137033333Y-30405676D02*
X137128571Y-30310438D01*
X137128571Y-30310438D02*
X137271428Y-30262819D01*
X137271428Y-30262819D02*
X137366666Y-30262819D01*
X137366666Y-30262819D02*
X137509523Y-30310438D01*
X137509523Y-30310438D02*
X137557142Y-30358057D01*
X138509523Y-31262819D02*
X137938095Y-31262819D01*
X138223809Y-31262819D02*
X138223809Y-30262819D01*
X138223809Y-30262819D02*
X138128571Y-30405676D01*
X138128571Y-30405676D02*
X138033333Y-30500914D01*
X138033333Y-30500914D02*
X137938095Y-30548533D01*
X139366666Y-30596152D02*
X139366666Y-31262819D01*
X139128571Y-30215200D02*
X138890476Y-30929485D01*
X138890476Y-30929485D02*
X139509523Y-30929485D01*
X133744642Y-28262819D02*
X133411309Y-27786628D01*
X133173214Y-28262819D02*
X133173214Y-27262819D01*
X133173214Y-27262819D02*
X133554166Y-27262819D01*
X133554166Y-27262819D02*
X133649404Y-27310438D01*
X133649404Y-27310438D02*
X133697023Y-27358057D01*
X133697023Y-27358057D02*
X133744642Y-27453295D01*
X133744642Y-27453295D02*
X133744642Y-27596152D01*
X133744642Y-27596152D02*
X133697023Y-27691390D01*
X133697023Y-27691390D02*
X133649404Y-27739009D01*
X133649404Y-27739009D02*
X133554166Y-27786628D01*
X133554166Y-27786628D02*
X133173214Y-27786628D01*
X134697023Y-28262819D02*
X134125595Y-28262819D01*
X134411309Y-28262819D02*
X134411309Y-27262819D01*
X134411309Y-27262819D02*
X134316071Y-27405676D01*
X134316071Y-27405676D02*
X134220833Y-27500914D01*
X134220833Y-27500914D02*
X134125595Y-27548533D01*
X135554166Y-27262819D02*
X135363690Y-27262819D01*
X135363690Y-27262819D02*
X135268452Y-27310438D01*
X135268452Y-27310438D02*
X135220833Y-27358057D01*
X135220833Y-27358057D02*
X135125595Y-27500914D01*
X135125595Y-27500914D02*
X135077976Y-27691390D01*
X135077976Y-27691390D02*
X135077976Y-28072342D01*
X135077976Y-28072342D02*
X135125595Y-28167580D01*
X135125595Y-28167580D02*
X135173214Y-28215200D01*
X135173214Y-28215200D02*
X135268452Y-28262819D01*
X135268452Y-28262819D02*
X135458928Y-28262819D01*
X135458928Y-28262819D02*
X135554166Y-28215200D01*
X135554166Y-28215200D02*
X135601785Y-28167580D01*
X135601785Y-28167580D02*
X135649404Y-28072342D01*
X135649404Y-28072342D02*
X135649404Y-27834247D01*
X135649404Y-27834247D02*
X135601785Y-27739009D01*
X135601785Y-27739009D02*
X135554166Y-27691390D01*
X135554166Y-27691390D02*
X135458928Y-27643771D01*
X135458928Y-27643771D02*
X135268452Y-27643771D01*
X135268452Y-27643771D02*
X135173214Y-27691390D01*
X135173214Y-27691390D02*
X135125595Y-27739009D01*
X135125595Y-27739009D02*
X135077976Y-27834247D01*
X125306895Y-79254819D02*
X125306895Y-80064342D01*
X125306895Y-80064342D02*
X125354514Y-80159580D01*
X125354514Y-80159580D02*
X125402133Y-80207200D01*
X125402133Y-80207200D02*
X125497371Y-80254819D01*
X125497371Y-80254819D02*
X125687847Y-80254819D01*
X125687847Y-80254819D02*
X125783085Y-80207200D01*
X125783085Y-80207200D02*
X125830704Y-80159580D01*
X125830704Y-80159580D02*
X125878323Y-80064342D01*
X125878323Y-80064342D02*
X125878323Y-79254819D01*
X126306895Y-79350057D02*
X126354514Y-79302438D01*
X126354514Y-79302438D02*
X126449752Y-79254819D01*
X126449752Y-79254819D02*
X126687847Y-79254819D01*
X126687847Y-79254819D02*
X126783085Y-79302438D01*
X126783085Y-79302438D02*
X126830704Y-79350057D01*
X126830704Y-79350057D02*
X126878323Y-79445295D01*
X126878323Y-79445295D02*
X126878323Y-79540533D01*
X126878323Y-79540533D02*
X126830704Y-79683390D01*
X126830704Y-79683390D02*
X126259276Y-80254819D01*
X126259276Y-80254819D02*
X126878323Y-80254819D01*
X79913142Y-84054819D02*
X79579809Y-83578628D01*
X79341714Y-84054819D02*
X79341714Y-83054819D01*
X79341714Y-83054819D02*
X79722666Y-83054819D01*
X79722666Y-83054819D02*
X79817904Y-83102438D01*
X79817904Y-83102438D02*
X79865523Y-83150057D01*
X79865523Y-83150057D02*
X79913142Y-83245295D01*
X79913142Y-83245295D02*
X79913142Y-83388152D01*
X79913142Y-83388152D02*
X79865523Y-83483390D01*
X79865523Y-83483390D02*
X79817904Y-83531009D01*
X79817904Y-83531009D02*
X79722666Y-83578628D01*
X79722666Y-83578628D02*
X79341714Y-83578628D01*
X80770285Y-83388152D02*
X80770285Y-84054819D01*
X80532190Y-83007200D02*
X80294095Y-83721485D01*
X80294095Y-83721485D02*
X80913142Y-83721485D01*
X81198857Y-83054819D02*
X81817904Y-83054819D01*
X81817904Y-83054819D02*
X81484571Y-83435771D01*
X81484571Y-83435771D02*
X81627428Y-83435771D01*
X81627428Y-83435771D02*
X81722666Y-83483390D01*
X81722666Y-83483390D02*
X81770285Y-83531009D01*
X81770285Y-83531009D02*
X81817904Y-83626247D01*
X81817904Y-83626247D02*
X81817904Y-83864342D01*
X81817904Y-83864342D02*
X81770285Y-83959580D01*
X81770285Y-83959580D02*
X81722666Y-84007200D01*
X81722666Y-84007200D02*
X81627428Y-84054819D01*
X81627428Y-84054819D02*
X81341714Y-84054819D01*
X81341714Y-84054819D02*
X81246476Y-84007200D01*
X81246476Y-84007200D02*
X81198857Y-83959580D01*
X66217580Y-138834666D02*
X66265200Y-138882285D01*
X66265200Y-138882285D02*
X66312819Y-139025142D01*
X66312819Y-139025142D02*
X66312819Y-139120380D01*
X66312819Y-139120380D02*
X66265200Y-139263237D01*
X66265200Y-139263237D02*
X66169961Y-139358475D01*
X66169961Y-139358475D02*
X66074723Y-139406094D01*
X66074723Y-139406094D02*
X65884247Y-139453713D01*
X65884247Y-139453713D02*
X65741390Y-139453713D01*
X65741390Y-139453713D02*
X65550914Y-139406094D01*
X65550914Y-139406094D02*
X65455676Y-139358475D01*
X65455676Y-139358475D02*
X65360438Y-139263237D01*
X65360438Y-139263237D02*
X65312819Y-139120380D01*
X65312819Y-139120380D02*
X65312819Y-139025142D01*
X65312819Y-139025142D02*
X65360438Y-138882285D01*
X65360438Y-138882285D02*
X65408057Y-138834666D01*
X66312819Y-137882285D02*
X66312819Y-138453713D01*
X66312819Y-138167999D02*
X65312819Y-138167999D01*
X65312819Y-138167999D02*
X65455676Y-138263237D01*
X65455676Y-138263237D02*
X65550914Y-138358475D01*
X65550914Y-138358475D02*
X65598533Y-138453713D01*
X165657142Y-80262819D02*
X165323809Y-79786628D01*
X165085714Y-80262819D02*
X165085714Y-79262819D01*
X165085714Y-79262819D02*
X165466666Y-79262819D01*
X165466666Y-79262819D02*
X165561904Y-79310438D01*
X165561904Y-79310438D02*
X165609523Y-79358057D01*
X165609523Y-79358057D02*
X165657142Y-79453295D01*
X165657142Y-79453295D02*
X165657142Y-79596152D01*
X165657142Y-79596152D02*
X165609523Y-79691390D01*
X165609523Y-79691390D02*
X165561904Y-79739009D01*
X165561904Y-79739009D02*
X165466666Y-79786628D01*
X165466666Y-79786628D02*
X165085714Y-79786628D01*
X166609523Y-80262819D02*
X166038095Y-80262819D01*
X166323809Y-80262819D02*
X166323809Y-79262819D01*
X166323809Y-79262819D02*
X166228571Y-79405676D01*
X166228571Y-79405676D02*
X166133333Y-79500914D01*
X166133333Y-79500914D02*
X166038095Y-79548533D01*
X167180952Y-79691390D02*
X167085714Y-79643771D01*
X167085714Y-79643771D02*
X167038095Y-79596152D01*
X167038095Y-79596152D02*
X166990476Y-79500914D01*
X166990476Y-79500914D02*
X166990476Y-79453295D01*
X166990476Y-79453295D02*
X167038095Y-79358057D01*
X167038095Y-79358057D02*
X167085714Y-79310438D01*
X167085714Y-79310438D02*
X167180952Y-79262819D01*
X167180952Y-79262819D02*
X167371428Y-79262819D01*
X167371428Y-79262819D02*
X167466666Y-79310438D01*
X167466666Y-79310438D02*
X167514285Y-79358057D01*
X167514285Y-79358057D02*
X167561904Y-79453295D01*
X167561904Y-79453295D02*
X167561904Y-79500914D01*
X167561904Y-79500914D02*
X167514285Y-79596152D01*
X167514285Y-79596152D02*
X167466666Y-79643771D01*
X167466666Y-79643771D02*
X167371428Y-79691390D01*
X167371428Y-79691390D02*
X167180952Y-79691390D01*
X167180952Y-79691390D02*
X167085714Y-79739009D01*
X167085714Y-79739009D02*
X167038095Y-79786628D01*
X167038095Y-79786628D02*
X166990476Y-79881866D01*
X166990476Y-79881866D02*
X166990476Y-80072342D01*
X166990476Y-80072342D02*
X167038095Y-80167580D01*
X167038095Y-80167580D02*
X167085714Y-80215200D01*
X167085714Y-80215200D02*
X167180952Y-80262819D01*
X167180952Y-80262819D02*
X167371428Y-80262819D01*
X167371428Y-80262819D02*
X167466666Y-80215200D01*
X167466666Y-80215200D02*
X167514285Y-80167580D01*
X167514285Y-80167580D02*
X167561904Y-80072342D01*
X167561904Y-80072342D02*
X167561904Y-79881866D01*
X167561904Y-79881866D02*
X167514285Y-79786628D01*
X167514285Y-79786628D02*
X167466666Y-79739009D01*
X167466666Y-79739009D02*
X167371428Y-79691390D01*
X93466666Y-28454819D02*
X93466666Y-29169104D01*
X93466666Y-29169104D02*
X93419047Y-29311961D01*
X93419047Y-29311961D02*
X93323809Y-29407200D01*
X93323809Y-29407200D02*
X93180952Y-29454819D01*
X93180952Y-29454819D02*
X93085714Y-29454819D01*
X93895238Y-28550057D02*
X93942857Y-28502438D01*
X93942857Y-28502438D02*
X94038095Y-28454819D01*
X94038095Y-28454819D02*
X94276190Y-28454819D01*
X94276190Y-28454819D02*
X94371428Y-28502438D01*
X94371428Y-28502438D02*
X94419047Y-28550057D01*
X94419047Y-28550057D02*
X94466666Y-28645295D01*
X94466666Y-28645295D02*
X94466666Y-28740533D01*
X94466666Y-28740533D02*
X94419047Y-28883390D01*
X94419047Y-28883390D02*
X93847619Y-29454819D01*
X93847619Y-29454819D02*
X94466666Y-29454819D01*
D13*
%TO.C,R15*%
X135439564Y-54073000D02*
X134985436Y-54073000D01*
X135439564Y-55543000D02*
X134985436Y-55543000D01*
D14*
%TO.C,TP2*%
X118743600Y-78703600D02*
G75*
G02*
X116203600Y-78703600I-1270000J0D01*
G01*
X116203600Y-78703600D02*
G75*
G02*
X118743600Y-78703600I1270000J0D01*
G01*
%TO.C,TP5*%
X131300000Y-61443000D02*
G75*
G02*
X128760000Y-61443000I-1270000J0D01*
G01*
X128760000Y-61443000D02*
G75*
G02*
X131300000Y-61443000I1270000J0D01*
G01*
D15*
%TO.C,F4*%
X142092797Y-25497100D02*
X147718803Y-25497100D01*
X147718803Y-22118900D02*
X142092797Y-22118900D01*
D13*
%TO.C,C28*%
X77387252Y-84633000D02*
X76864748Y-84633000D01*
X77387252Y-86103000D02*
X76864748Y-86103000D01*
D14*
%TO.C,TP8*%
X131300000Y-39624000D02*
G75*
G02*
X128760000Y-39624000I-1270000J0D01*
G01*
X128760000Y-39624000D02*
G75*
G02*
X131300000Y-39624000I1270000J0D01*
G01*
D13*
%TO.C,R17*%
X134614564Y-31573000D02*
X134160436Y-31573000D01*
X134614564Y-33043000D02*
X134160436Y-33043000D01*
%TO.C,C23*%
X138890000Y-57996748D02*
X138890000Y-58519252D01*
X140360000Y-57996748D02*
X140360000Y-58519252D01*
D15*
%TO.C,F2*%
X138592797Y-71997100D02*
X144218803Y-71997100D01*
X144218803Y-68618900D02*
X138592797Y-68618900D01*
D14*
%TO.C,J7*%
X81768500Y-69934000D02*
X81768500Y-82434000D01*
X81768500Y-82434000D02*
X100808500Y-82434000D01*
X100808500Y-69934000D02*
X81768500Y-69934000D01*
X100808500Y-82434000D02*
X100808500Y-69934000D01*
D10*
X80768500Y-74534000D02*
G75*
G02*
X80568500Y-74534000I-100000J0D01*
G01*
X80568500Y-74534000D02*
G75*
G02*
X80768500Y-74534000I100000J0D01*
G01*
D14*
%TO.C,J1*%
X41950000Y-51490000D02*
X41950000Y-70530000D01*
X41950000Y-70530000D02*
X54450000Y-70530000D01*
X54450000Y-51490000D02*
X41950000Y-51490000D01*
X54450000Y-70530000D02*
X54450000Y-51490000D01*
D10*
X49950000Y-50390000D02*
G75*
G02*
X49750000Y-50390000I-100000J0D01*
G01*
X49750000Y-50390000D02*
G75*
G02*
X49950000Y-50390000I100000J0D01*
G01*
D13*
%TO.C,C12*%
X160878000Y-110854420D02*
X160878000Y-111135580D01*
X161898000Y-110854420D02*
X161898000Y-111135580D01*
D15*
%TO.C,CR4*%
X75584260Y-135658100D02*
X75078800Y-135658100D01*
X75584260Y-136597900D02*
X75078800Y-136597900D01*
X75584260Y-138198100D02*
X75078800Y-138198100D01*
X75584260Y-139137900D02*
X75078800Y-139137900D01*
X75584260Y-140738100D02*
X75078800Y-140738100D01*
X75584260Y-141677900D02*
X75078800Y-141677900D01*
D13*
%TO.C,R11*%
X166798564Y-109485000D02*
X166344436Y-109485000D01*
X166798564Y-110955000D02*
X166344436Y-110955000D01*
D14*
%TO.C,Q4*%
X120800000Y-65938000D02*
X126800000Y-65938000D01*
X126800000Y-60778000D02*
X120800000Y-60778000D01*
D10*
X128025000Y-65263000D02*
G75*
G02*
X127825000Y-65263000I-100000J0D01*
G01*
X127825000Y-65263000D02*
G75*
G02*
X128025000Y-65263000I100000J0D01*
G01*
D13*
%TO.C,R5*%
X174335000Y-88740836D02*
X174335000Y-89194964D01*
X175805000Y-88740836D02*
X175805000Y-89194964D01*
D14*
%TO.C,C10*%
X56384000Y-66308000D02*
X56384000Y-74238000D01*
X56384000Y-77378000D02*
X56384000Y-85308000D01*
X56384000Y-85308000D02*
X71384000Y-85308000D01*
X71384000Y-66308000D02*
X56384000Y-66308000D01*
X71384000Y-85308000D02*
X75384000Y-81308000D01*
X75384000Y-70308000D02*
X71384000Y-66308000D01*
X75384000Y-74238000D02*
X75384000Y-70308000D01*
X75384000Y-81308000D02*
X75384000Y-77378000D01*
D10*
X76134000Y-77958000D02*
G75*
G02*
X75934000Y-77958000I-100000J0D01*
G01*
X75934000Y-77958000D02*
G75*
G02*
X76134000Y-77958000I100000J0D01*
G01*
D13*
%TO.C,R48*%
X168835000Y-82694964D02*
X168835000Y-82240836D01*
X170305000Y-82694964D02*
X170305000Y-82240836D01*
D14*
%TO.C,J3*%
X182050000Y-31770500D02*
X182050000Y-50820500D01*
X182050000Y-50820500D02*
X194550000Y-50820500D01*
X194550000Y-31770500D02*
X182050000Y-31770500D01*
X194550000Y-50820500D02*
X194550000Y-31770500D01*
D10*
X186750000Y-51920500D02*
G75*
G02*
X186550000Y-51920500I-100000J0D01*
G01*
X186550000Y-51920500D02*
G75*
G02*
X186750000Y-51920500I100000J0D01*
G01*
D15*
%TO.C,F3*%
X139592797Y-46497100D02*
X145218803Y-46497100D01*
X145218803Y-43118900D02*
X139592797Y-43118900D01*
D14*
%TO.C,TP4*%
X130743600Y-86703600D02*
G75*
G02*
X128203600Y-86703600I-1270000J0D01*
G01*
X128203600Y-86703600D02*
G75*
G02*
X130743600Y-86703600I1270000J0D01*
G01*
D13*
%TO.C,C13*%
X139040580Y-54298000D02*
X138759420Y-54298000D01*
X139040580Y-55318000D02*
X138759420Y-55318000D01*
D14*
%TO.C,J6*%
X182800000Y-82270500D02*
X182800000Y-93770500D01*
X182800000Y-93770500D02*
X194800000Y-93770500D01*
X194800000Y-82270500D02*
X182800000Y-82270500D01*
X194800000Y-93770500D02*
X194800000Y-82270500D01*
D10*
X187600000Y-81770500D02*
G75*
G02*
X187400000Y-81770500I-100000J0D01*
G01*
X187400000Y-81770500D02*
G75*
G02*
X187600000Y-81770500I100000J0D01*
G01*
D14*
%TO.C,TP3*%
X118618000Y-53340000D02*
G75*
G02*
X116078000Y-53340000I-1270000J0D01*
G01*
X116078000Y-53340000D02*
G75*
G02*
X118618000Y-53340000I1270000J0D01*
G01*
D13*
%TO.C,R10*%
X162685000Y-110604436D02*
X162685000Y-111058564D01*
X164155000Y-110604436D02*
X164155000Y-111058564D01*
%TO.C,R12*%
X134439564Y-79073000D02*
X133985436Y-79073000D01*
X134439564Y-80543000D02*
X133985436Y-80543000D01*
D14*
%TO.C,J8*%
X42000000Y-76320500D02*
X42000000Y-95360500D01*
X42000000Y-95360500D02*
X54500000Y-95360500D01*
X54500000Y-76320500D02*
X42000000Y-76320500D01*
X54500000Y-95360500D02*
X54500000Y-76320500D01*
D10*
X50000000Y-75220500D02*
G75*
G02*
X49800000Y-75220500I-100000J0D01*
G01*
X49800000Y-75220500D02*
G75*
G02*
X50000000Y-75220500I100000J0D01*
G01*
D13*
%TO.C,R13*%
X134439564Y-76573000D02*
X133985436Y-76573000D01*
X134439564Y-78043000D02*
X133985436Y-78043000D01*
D14*
%TO.C,TP7*%
X120300000Y-30893000D02*
G75*
G02*
X117760000Y-30893000I-1270000J0D01*
G01*
X117760000Y-30893000D02*
G75*
G02*
X120300000Y-30893000I1270000J0D01*
G01*
%TO.C,TP6*%
X148570000Y-48808000D02*
G75*
G02*
X146030000Y-48808000I-1270000J0D01*
G01*
X146030000Y-48808000D02*
G75*
G02*
X148570000Y-48808000I1270000J0D01*
G01*
D13*
%TO.C,R8*%
X164835000Y-95065836D02*
X164835000Y-95519964D01*
X166305000Y-95065836D02*
X166305000Y-95519964D01*
%TO.C,R46*%
X167295000Y-95065836D02*
X167295000Y-95519964D01*
X168765000Y-95065836D02*
X168765000Y-95519964D01*
%TO.C,C11*%
X137990580Y-79298000D02*
X137709420Y-79298000D01*
X137990580Y-80318000D02*
X137709420Y-80318000D01*
%TO.C,C2*%
X71909700Y-144060748D02*
X71909700Y-144583252D01*
X73379700Y-144060748D02*
X73379700Y-144583252D01*
%TO.C,C21*%
X138240000Y-35596748D02*
X138240000Y-36119252D01*
X139710000Y-35596748D02*
X139710000Y-36119252D01*
D14*
%TO.C,Q6*%
X121300000Y-43888000D02*
X127300000Y-43888000D01*
X127300000Y-38728000D02*
X121300000Y-38728000D01*
D10*
X128525000Y-43213000D02*
G75*
G02*
X128325000Y-43213000I-100000J0D01*
G01*
X128325000Y-43213000D02*
G75*
G02*
X128525000Y-43213000I100000J0D01*
G01*
D14*
%TO.C,K2*%
X78181000Y-35545000D02*
X78181000Y-53145000D01*
X78181000Y-53145000D02*
X82451000Y-53145000D01*
X82451000Y-53145000D02*
X82451000Y-68055000D01*
X82451000Y-68055000D02*
X98961000Y-68055000D01*
X98961000Y-48345000D02*
X98961000Y-68055000D01*
X105611000Y-35545000D02*
X78181000Y-35545000D01*
X105611000Y-48345000D02*
X98961000Y-48345000D01*
X105611000Y-48345000D02*
X105611000Y-35545000D01*
D11*
X81691000Y-61045000D02*
G75*
G02*
X81391000Y-61045000I-150000J0D01*
G01*
X81391000Y-61045000D02*
G75*
G02*
X81691000Y-61045000I150000J0D01*
G01*
D13*
%TO.C,C6*%
X115542748Y-89175000D02*
X116965252Y-89175000D01*
X115542748Y-91895000D02*
X116965252Y-91895000D01*
%TO.C,C15*%
X163781252Y-82645400D02*
X163258748Y-82645400D01*
X163781252Y-84115400D02*
X163258748Y-84115400D01*
D15*
%TO.C,F1*%
X72830900Y-30961197D02*
X72830900Y-36587203D01*
X76209100Y-36587203D02*
X76209100Y-30961197D01*
D14*
%TO.C,Q1*%
X112473600Y-88283600D02*
X118473600Y-88283600D01*
X118473600Y-83123600D02*
X112473600Y-83123600D01*
D10*
X119698600Y-87608600D02*
G75*
G02*
X119498600Y-87608600I-100000J0D01*
G01*
X119498600Y-87608600D02*
G75*
G02*
X119698600Y-87608600I100000J0D01*
G01*
D13*
%TO.C,R9*%
X173065000Y-82694964D02*
X173065000Y-82240836D01*
X174535000Y-82694964D02*
X174535000Y-82240836D01*
D14*
%TO.C,TP1*%
X147070000Y-74308000D02*
G75*
G02*
X144530000Y-74308000I-1270000J0D01*
G01*
X144530000Y-74308000D02*
G75*
G02*
X147070000Y-74308000I1270000J0D01*
G01*
%TO.C,Q2*%
X120243600Y-90648600D02*
X126243600Y-90648600D01*
X126243600Y-85488600D02*
X120243600Y-85488600D01*
D10*
X127468600Y-89973600D02*
G75*
G02*
X127268600Y-89973600I-100000J0D01*
G01*
X127268600Y-89973600D02*
G75*
G02*
X127468600Y-89973600I100000J0D01*
G01*
D14*
%TO.C,TP9*%
X151070000Y-28808000D02*
G75*
G02*
X148530000Y-28808000I-1270000J0D01*
G01*
X148530000Y-28808000D02*
G75*
G02*
X151070000Y-28808000I1270000J0D01*
G01*
D13*
%TO.C,R45*%
X178884564Y-87145400D02*
X178430436Y-87145400D01*
X178884564Y-88615400D02*
X178430436Y-88615400D01*
D14*
%TO.C,U3*%
X128380200Y-50895000D02*
X124870200Y-50895000D01*
X128380200Y-58895000D02*
X124870200Y-58895000D01*
D10*
X130650200Y-58395000D02*
G75*
G02*
X130450200Y-58395000I-100000J0D01*
G01*
X130450200Y-58395000D02*
G75*
G02*
X130650200Y-58395000I100000J0D01*
G01*
D13*
%TO.C,R47*%
X178255436Y-84145400D02*
X178709564Y-84145400D01*
X178255436Y-85615400D02*
X178709564Y-85615400D01*
%TO.C,C24*%
X137890000Y-82996748D02*
X137890000Y-83519252D01*
X139360000Y-82996748D02*
X139360000Y-83519252D01*
D15*
%TO.C,U6*%
X167536100Y-86723300D02*
X167536100Y-90965100D01*
X172793900Y-90965100D02*
X172793900Y-86723300D01*
D13*
%TO.C,R36*%
X135335436Y-34073000D02*
X135789564Y-34073000D01*
X135335436Y-35543000D02*
X135789564Y-35543000D01*
%TO.C,C7*%
X116148748Y-64283000D02*
X117571252Y-64283000D01*
X116148748Y-67003000D02*
X117571252Y-67003000D01*
%TO.C,C8*%
X117793748Y-45083000D02*
X119216252Y-45083000D01*
X117793748Y-47803000D02*
X119216252Y-47803000D01*
D14*
%TO.C,C9*%
X56670000Y-44280000D02*
X56670000Y-52210000D01*
X56670000Y-55350000D02*
X56670000Y-63280000D01*
X56670000Y-63280000D02*
X71670000Y-63280000D01*
X71670000Y-44280000D02*
X56670000Y-44280000D01*
X71670000Y-63280000D02*
X75670000Y-59280000D01*
X75670000Y-48280000D02*
X71670000Y-44280000D01*
X75670000Y-52210000D02*
X75670000Y-48280000D01*
X75670000Y-59280000D02*
X75670000Y-55350000D01*
D10*
X76420000Y-55930000D02*
G75*
G02*
X76220000Y-55930000I-100000J0D01*
G01*
X76220000Y-55930000D02*
G75*
G02*
X76420000Y-55930000I100000J0D01*
G01*
D13*
%TO.C,R32*%
X135485436Y-81573000D02*
X135939564Y-81573000D01*
X135485436Y-83043000D02*
X135939564Y-83043000D01*
D14*
%TO.C,U4*%
X128380200Y-28920400D02*
X124870200Y-28920400D01*
X128380200Y-36920400D02*
X124870200Y-36920400D01*
D10*
X130650200Y-36420400D02*
G75*
G02*
X130450200Y-36420400I-100000J0D01*
G01*
X130450200Y-36420400D02*
G75*
G02*
X130650200Y-36420400I100000J0D01*
G01*
D14*
%TO.C,Q5*%
X112760000Y-41378000D02*
X118760000Y-41378000D01*
X118760000Y-36218000D02*
X112760000Y-36218000D01*
D10*
X119985000Y-40703000D02*
G75*
G02*
X119785000Y-40703000I-100000J0D01*
G01*
X119785000Y-40703000D02*
G75*
G02*
X119985000Y-40703000I100000J0D01*
G01*
D13*
%TO.C,R35*%
X136310436Y-56573000D02*
X136764564Y-56573000D01*
X136310436Y-58043000D02*
X136764564Y-58043000D01*
D14*
%TO.C,Q3*%
X113030000Y-63523000D02*
X119030000Y-63523000D01*
X119030000Y-58363000D02*
X113030000Y-58363000D01*
D10*
X120255000Y-62848000D02*
G75*
G02*
X120055000Y-62848000I-100000J0D01*
G01*
X120055000Y-62848000D02*
G75*
G02*
X120255000Y-62848000I100000J0D01*
G01*
D13*
%TO.C,R44*%
X77390564Y-87133000D02*
X76936436Y-87133000D01*
X77390564Y-88603000D02*
X76936436Y-88603000D01*
%TO.C,R14*%
X135439564Y-51573000D02*
X134985436Y-51573000D01*
X135439564Y-53043000D02*
X134985436Y-53043000D01*
%TO.C,C14*%
X138340580Y-31798000D02*
X138059420Y-31798000D01*
X138340580Y-32818000D02*
X138059420Y-32818000D01*
%TO.C,R16*%
X134614564Y-29073000D02*
X134160436Y-29073000D01*
X134614564Y-30543000D02*
X134160436Y-30543000D01*
D14*
%TO.C,U2*%
X127823800Y-76203600D02*
X124313800Y-76203600D01*
X127823800Y-84203600D02*
X124313800Y-84203600D01*
D10*
X130093800Y-83703600D02*
G75*
G02*
X129893800Y-83703600I-100000J0D01*
G01*
X129893800Y-83703600D02*
G75*
G02*
X130093800Y-83703600I100000J0D01*
G01*
D13*
%TO.C,R43*%
X76936436Y-82053000D02*
X77390564Y-82053000D01*
X76936436Y-83523000D02*
X77390564Y-83523000D01*
%TO.C,C1*%
X68619252Y-137933000D02*
X68096748Y-137933000D01*
X68619252Y-139403000D02*
X68096748Y-139403000D01*
%TO.C,R18*%
X166335000Y-82694964D02*
X166335000Y-82240836D01*
X167805000Y-82694964D02*
X167805000Y-82240836D01*
D14*
%TO.C,J2*%
X84467500Y-21150000D02*
X84467500Y-33650000D01*
X84467500Y-33650000D02*
X103507500Y-33650000D01*
X103507500Y-21150000D02*
X84467500Y-21150000D01*
X103507500Y-33650000D02*
X103507500Y-21150000D01*
D10*
X104707500Y-29050000D02*
G75*
G02*
X104507500Y-29050000I-100000J0D01*
G01*
X104507500Y-29050000D02*
G75*
G02*
X104707500Y-29050000I100000J0D01*
G01*
%TD*%
M02*
