%TF.GenerationSoftware,KiCad,Pcbnew,9.0.0*%
%TF.CreationDate,2025-05-26T21:52:58-04:00*%
%TF.ProjectId,Custom Inverter PCB,43757374-6f6d-4204-996e-766572746572,2*%
%TF.SameCoordinates,Original*%
%TF.FileFunction,Soldermask,Top*%
%TF.FilePolarity,Negative*%
%FSLAX46Y46*%
G04 Gerber Fmt 4.6, Leading zero omitted, Abs format (unit mm)*
G04 Created by KiCad (PCBNEW 9.0.0) date 2025-05-26 21:52:58*
%MOMM*%
%LPD*%
G01*
G04 APERTURE LIST*
G04 Aperture macros list*
%AMRoundRect*
0 Rectangle with rounded corners*
0 $1 Rounding radius*
0 $2 $3 $4 $5 $6 $7 $8 $9 X,Y pos of 4 corners*
0 Add a 4 corners polygon primitive as box body*
4,1,4,$2,$3,$4,$5,$6,$7,$8,$9,$2,$3,0*
0 Add four circle primitives for the rounded corners*
1,1,$1+$1,$2,$3*
1,1,$1+$1,$4,$5*
1,1,$1+$1,$6,$7*
1,1,$1+$1,$8,$9*
0 Add four rect primitives between the rounded corners*
20,1,$1+$1,$2,$3,$4,$5,0*
20,1,$1+$1,$4,$5,$6,$7,0*
20,1,$1+$1,$6,$7,$8,$9,0*
20,1,$1+$1,$8,$9,$2,$3,0*%
G04 Aperture macros list end*
%ADD10C,0.010000*%
%ADD11RoundRect,0.250000X0.262500X0.450000X-0.262500X0.450000X-0.262500X-0.450000X0.262500X-0.450000X0*%
%ADD12C,1.734000*%
%ADD13R,2.514600X3.225800*%
%ADD14RoundRect,0.250000X0.250000X0.475000X-0.250000X0.475000X-0.250000X-0.475000X0.250000X-0.475000X0*%
%ADD15RoundRect,0.250000X-0.475000X0.250000X-0.475000X-0.250000X0.475000X-0.250000X0.475000X0.250000X0*%
%ADD16RoundRect,0.102000X-0.975000X-0.975000X0.975000X-0.975000X0.975000X0.975000X-0.975000X0.975000X0*%
%ADD17C,2.154000*%
%ADD18RoundRect,0.102000X-0.975000X0.975000X-0.975000X-0.975000X0.975000X-0.975000X0.975000X0.975000X0*%
%ADD19RoundRect,0.225000X-0.250000X0.225000X-0.250000X-0.225000X0.250000X-0.225000X0.250000X0.225000X0*%
%ADD20R,3.911600X0.990600*%
%ADD21R,3.911600X1.346200*%
%ADD22R,11.455400X10.464800*%
%ADD23RoundRect,0.102000X0.686000X1.625000X-0.686000X1.625000X-0.686000X-1.625000X0.686000X-1.625000X0*%
%ADD24RoundRect,0.102000X0.686000X0.355000X-0.686000X0.355000X-0.686000X-0.355000X0.686000X-0.355000X0*%
%ADD25RoundRect,0.250000X-0.450000X0.262500X-0.450000X-0.262500X0.450000X-0.262500X0.450000X0.262500X0*%
%ADD26RoundRect,0.102000X3.750000X1.250000X-3.750000X1.250000X-3.750000X-1.250000X3.750000X-1.250000X0*%
%ADD27RoundRect,0.250000X0.450000X-0.262500X0.450000X0.262500X-0.450000X0.262500X-0.450000X-0.262500X0*%
%ADD28RoundRect,0.102000X0.975000X-0.975000X0.975000X0.975000X-0.975000X0.975000X-0.975000X-0.975000X0*%
%ADD29RoundRect,0.225000X0.225000X0.250000X-0.225000X0.250000X-0.225000X-0.250000X0.225000X-0.250000X0*%
%ADD30RoundRect,0.102000X-0.754000X0.754000X-0.754000X-0.754000X0.754000X-0.754000X0.754000X0.754000X0*%
%ADD31C,1.712000*%
%ADD32RoundRect,0.102000X-0.817500X-0.817500X0.817500X-0.817500X0.817500X0.817500X-0.817500X0.817500X0*%
%ADD33C,1.839000*%
%ADD34C,3.174000*%
%ADD35C,3.280000*%
%ADD36RoundRect,0.250000X-0.325000X-1.100000X0.325000X-1.100000X0.325000X1.100000X-0.325000X1.100000X0*%
%ADD37R,3.225800X2.514600*%
%ADD38RoundRect,0.102000X0.650000X0.200000X-0.650000X0.200000X-0.650000X-0.200000X0.650000X-0.200000X0*%
%ADD39RoundRect,0.250000X-0.262500X-0.450000X0.262500X-0.450000X0.262500X0.450000X-0.262500X0.450000X0*%
%ADD40R,0.558800X1.981200*%
%ADD41RoundRect,0.102000X0.975000X0.975000X-0.975000X0.975000X-0.975000X-0.975000X0.975000X-0.975000X0*%
%ADD42C,3.175000*%
%ADD43C,1.728000*%
%ADD44C,1.929000*%
G04 APERTURE END LIST*
D10*
%TO.C,Q4*%
X124884000Y-65718000D02*
X120244000Y-65718000D01*
X120244000Y-64808000D01*
X120834000Y-64808000D01*
X120834000Y-64448000D01*
X120244000Y-64448000D01*
X120244000Y-63538000D01*
X120834000Y-63538000D01*
X120834000Y-63178000D01*
X120244000Y-63178000D01*
X120244000Y-62268000D01*
X120834000Y-62268000D01*
X120834000Y-61908000D01*
X120244000Y-61908000D01*
X120244000Y-60998000D01*
X124884000Y-60998000D01*
X124884000Y-65718000D01*
G36*
X124884000Y-65718000D02*
G01*
X120244000Y-65718000D01*
X120244000Y-64808000D01*
X120834000Y-64808000D01*
X120834000Y-64448000D01*
X120244000Y-64448000D01*
X120244000Y-63538000D01*
X120834000Y-63538000D01*
X120834000Y-63178000D01*
X120244000Y-63178000D01*
X120244000Y-62268000D01*
X120834000Y-62268000D01*
X120834000Y-61908000D01*
X120244000Y-61908000D01*
X120244000Y-60998000D01*
X124884000Y-60998000D01*
X124884000Y-65718000D01*
G37*
%TO.C,Q6*%
X125384000Y-43668000D02*
X120744000Y-43668000D01*
X120744000Y-42758000D01*
X121334000Y-42758000D01*
X121334000Y-42398000D01*
X120744000Y-42398000D01*
X120744000Y-41488000D01*
X121334000Y-41488000D01*
X121334000Y-41128000D01*
X120744000Y-41128000D01*
X120744000Y-40218000D01*
X121334000Y-40218000D01*
X121334000Y-39858000D01*
X120744000Y-39858000D01*
X120744000Y-38948000D01*
X125384000Y-38948000D01*
X125384000Y-43668000D01*
G36*
X125384000Y-43668000D02*
G01*
X120744000Y-43668000D01*
X120744000Y-42758000D01*
X121334000Y-42758000D01*
X121334000Y-42398000D01*
X120744000Y-42398000D01*
X120744000Y-41488000D01*
X121334000Y-41488000D01*
X121334000Y-41128000D01*
X120744000Y-41128000D01*
X120744000Y-40218000D01*
X121334000Y-40218000D01*
X121334000Y-39858000D01*
X120744000Y-39858000D01*
X120744000Y-38948000D01*
X125384000Y-38948000D01*
X125384000Y-43668000D01*
G37*
%TO.C,Q1*%
X116557600Y-88063600D02*
X111917600Y-88063600D01*
X111917600Y-87153600D01*
X112507600Y-87153600D01*
X112507600Y-86793600D01*
X111917600Y-86793600D01*
X111917600Y-85883600D01*
X112507600Y-85883600D01*
X112507600Y-85523600D01*
X111917600Y-85523600D01*
X111917600Y-84613600D01*
X112507600Y-84613600D01*
X112507600Y-84253600D01*
X111917600Y-84253600D01*
X111917600Y-83343600D01*
X116557600Y-83343600D01*
X116557600Y-88063600D01*
G36*
X116557600Y-88063600D02*
G01*
X111917600Y-88063600D01*
X111917600Y-87153600D01*
X112507600Y-87153600D01*
X112507600Y-86793600D01*
X111917600Y-86793600D01*
X111917600Y-85883600D01*
X112507600Y-85883600D01*
X112507600Y-85523600D01*
X111917600Y-85523600D01*
X111917600Y-84613600D01*
X112507600Y-84613600D01*
X112507600Y-84253600D01*
X111917600Y-84253600D01*
X111917600Y-83343600D01*
X116557600Y-83343600D01*
X116557600Y-88063600D01*
G37*
%TO.C,Q2*%
X124327600Y-90428600D02*
X119687600Y-90428600D01*
X119687600Y-89518600D01*
X120277600Y-89518600D01*
X120277600Y-89158600D01*
X119687600Y-89158600D01*
X119687600Y-88248600D01*
X120277600Y-88248600D01*
X120277600Y-87888600D01*
X119687600Y-87888600D01*
X119687600Y-86978600D01*
X120277600Y-86978600D01*
X120277600Y-86618600D01*
X119687600Y-86618600D01*
X119687600Y-85708600D01*
X124327600Y-85708600D01*
X124327600Y-90428600D01*
G36*
X124327600Y-90428600D02*
G01*
X119687600Y-90428600D01*
X119687600Y-89518600D01*
X120277600Y-89518600D01*
X120277600Y-89158600D01*
X119687600Y-89158600D01*
X119687600Y-88248600D01*
X120277600Y-88248600D01*
X120277600Y-87888600D01*
X119687600Y-87888600D01*
X119687600Y-86978600D01*
X120277600Y-86978600D01*
X120277600Y-86618600D01*
X119687600Y-86618600D01*
X119687600Y-85708600D01*
X124327600Y-85708600D01*
X124327600Y-90428600D01*
G37*
%TO.C,U3*%
X130110200Y-51695000D02*
X129460200Y-51695000D01*
X129460200Y-52095000D01*
X130110200Y-52095000D01*
X130110200Y-52695000D01*
X128600200Y-52695000D01*
X128600200Y-51095000D01*
X130110200Y-51095000D01*
X130110200Y-51695000D01*
G36*
X130110200Y-51695000D02*
G01*
X129460200Y-51695000D01*
X129460200Y-52095000D01*
X130110200Y-52095000D01*
X130110200Y-52695000D01*
X128600200Y-52695000D01*
X128600200Y-51095000D01*
X130110200Y-51095000D01*
X130110200Y-51695000D01*
G37*
X130110200Y-57695000D02*
X129460200Y-57695000D01*
X129460200Y-58095000D01*
X130110200Y-58095000D01*
X130110200Y-58695000D01*
X128600200Y-58695000D01*
X128600200Y-57095000D01*
X130110200Y-57095000D01*
X130110200Y-57695000D01*
G36*
X130110200Y-57695000D02*
G01*
X129460200Y-57695000D01*
X129460200Y-58095000D01*
X130110200Y-58095000D01*
X130110200Y-58695000D01*
X128600200Y-58695000D01*
X128600200Y-57095000D01*
X130110200Y-57095000D01*
X130110200Y-57695000D01*
G37*
X124650200Y-53565000D02*
X123225200Y-53565000D01*
X123215200Y-53565000D01*
X123204200Y-53566000D01*
X123194200Y-53567000D01*
X123183200Y-53569000D01*
X123173200Y-53572000D01*
X123163200Y-53575000D01*
X123153200Y-53578000D01*
X123144200Y-53582000D01*
X123134200Y-53587000D01*
X123125200Y-53592000D01*
X123116200Y-53597000D01*
X123107200Y-53603000D01*
X123099200Y-53610000D01*
X123091200Y-53616000D01*
X123084200Y-53624000D01*
X123076200Y-53631000D01*
X123070200Y-53639000D01*
X123063200Y-53647000D01*
X123057200Y-53656000D01*
X123052200Y-53665000D01*
X123047200Y-53674000D01*
X123042200Y-53684000D01*
X123038200Y-53693000D01*
X123035200Y-53703000D01*
X123032200Y-53713000D01*
X123029200Y-53723000D01*
X123027200Y-53734000D01*
X123026200Y-53744000D01*
X123025200Y-53755000D01*
X123025200Y-53765000D01*
X123025200Y-55525000D01*
X123025200Y-55541000D01*
X123023200Y-55556000D01*
X123021200Y-55572000D01*
X123018200Y-55587000D01*
X123015200Y-55603000D01*
X123010200Y-55618000D01*
X123005200Y-55633000D01*
X122999200Y-55647000D01*
X122992200Y-55661000D01*
X122985200Y-55675000D01*
X122977200Y-55688000D01*
X122968200Y-55701000D01*
X122958200Y-55714000D01*
X122948200Y-55726000D01*
X122937200Y-55737000D01*
X122926200Y-55748000D01*
X122914200Y-55758000D01*
X122901200Y-55768000D01*
X122888200Y-55777000D01*
X122875200Y-55785000D01*
X122861200Y-55792000D01*
X122847200Y-55799000D01*
X122833200Y-55805000D01*
X122818200Y-55810000D01*
X122803200Y-55815000D01*
X122787200Y-55818000D01*
X122772200Y-55821000D01*
X122756200Y-55823000D01*
X122741200Y-55825000D01*
X122725200Y-55825000D01*
X120950200Y-55825000D01*
X120950200Y-50295000D01*
X124650200Y-50295000D01*
X124650200Y-53565000D01*
G36*
X124650200Y-53565000D02*
G01*
X123225200Y-53565000D01*
X123215200Y-53565000D01*
X123204200Y-53566000D01*
X123194200Y-53567000D01*
X123183200Y-53569000D01*
X123173200Y-53572000D01*
X123163200Y-53575000D01*
X123153200Y-53578000D01*
X123144200Y-53582000D01*
X123134200Y-53587000D01*
X123125200Y-53592000D01*
X123116200Y-53597000D01*
X123107200Y-53603000D01*
X123099200Y-53610000D01*
X123091200Y-53616000D01*
X123084200Y-53624000D01*
X123076200Y-53631000D01*
X123070200Y-53639000D01*
X123063200Y-53647000D01*
X123057200Y-53656000D01*
X123052200Y-53665000D01*
X123047200Y-53674000D01*
X123042200Y-53684000D01*
X123038200Y-53693000D01*
X123035200Y-53703000D01*
X123032200Y-53713000D01*
X123029200Y-53723000D01*
X123027200Y-53734000D01*
X123026200Y-53744000D01*
X123025200Y-53755000D01*
X123025200Y-53765000D01*
X123025200Y-55525000D01*
X123025200Y-55541000D01*
X123023200Y-55556000D01*
X123021200Y-55572000D01*
X123018200Y-55587000D01*
X123015200Y-55603000D01*
X123010200Y-55618000D01*
X123005200Y-55633000D01*
X122999200Y-55647000D01*
X122992200Y-55661000D01*
X122985200Y-55675000D01*
X122977200Y-55688000D01*
X122968200Y-55701000D01*
X122958200Y-55714000D01*
X122948200Y-55726000D01*
X122937200Y-55737000D01*
X122926200Y-55748000D01*
X122914200Y-55758000D01*
X122901200Y-55768000D01*
X122888200Y-55777000D01*
X122875200Y-55785000D01*
X122861200Y-55792000D01*
X122847200Y-55799000D01*
X122833200Y-55805000D01*
X122818200Y-55810000D01*
X122803200Y-55815000D01*
X122787200Y-55818000D01*
X122772200Y-55821000D01*
X122756200Y-55823000D01*
X122741200Y-55825000D01*
X122725200Y-55825000D01*
X120950200Y-55825000D01*
X120950200Y-50295000D01*
X124650200Y-50295000D01*
X124650200Y-53565000D01*
G37*
X124650200Y-59495000D02*
X120950200Y-59495000D01*
X120950200Y-56225000D01*
X123125200Y-56225000D01*
X123135200Y-56225000D01*
X123146200Y-56224000D01*
X123156200Y-56223000D01*
X123167200Y-56221000D01*
X123177200Y-56218000D01*
X123187200Y-56215000D01*
X123197200Y-56212000D01*
X123206200Y-56208000D01*
X123216200Y-56203000D01*
X123225200Y-56198000D01*
X123234200Y-56193000D01*
X123243200Y-56187000D01*
X123251200Y-56180000D01*
X123259200Y-56174000D01*
X123266200Y-56166000D01*
X123274200Y-56159000D01*
X123280200Y-56151000D01*
X123287200Y-56143000D01*
X123293200Y-56134000D01*
X123298200Y-56125000D01*
X123303200Y-56116000D01*
X123308200Y-56106000D01*
X123312200Y-56097000D01*
X123315200Y-56087000D01*
X123318200Y-56077000D01*
X123321200Y-56067000D01*
X123323200Y-56056000D01*
X123324200Y-56046000D01*
X123325200Y-56035000D01*
X123325200Y-56025000D01*
X123325200Y-54265000D01*
X123325200Y-54249000D01*
X123327200Y-54234000D01*
X123329200Y-54218000D01*
X123332200Y-54203000D01*
X123335200Y-54187000D01*
X123340200Y-54172000D01*
X123345200Y-54157000D01*
X123351200Y-54143000D01*
X123358200Y-54129000D01*
X123365200Y-54115000D01*
X123373200Y-54102000D01*
X123382200Y-54089000D01*
X123392200Y-54076000D01*
X123402200Y-54064000D01*
X123413200Y-54053000D01*
X123424200Y-54042000D01*
X123436200Y-54032000D01*
X123449200Y-54022000D01*
X123462200Y-54013000D01*
X123475200Y-54005000D01*
X123489200Y-53998000D01*
X123503200Y-53991000D01*
X123517200Y-53985000D01*
X123532200Y-53980000D01*
X123547200Y-53975000D01*
X123563200Y-53972000D01*
X123578200Y-53969000D01*
X123594200Y-53967000D01*
X123609200Y-53965000D01*
X123625200Y-53965000D01*
X124650200Y-53965000D01*
X124650200Y-59495000D01*
G36*
X124650200Y-59495000D02*
G01*
X120950200Y-59495000D01*
X120950200Y-56225000D01*
X123125200Y-56225000D01*
X123135200Y-56225000D01*
X123146200Y-56224000D01*
X123156200Y-56223000D01*
X123167200Y-56221000D01*
X123177200Y-56218000D01*
X123187200Y-56215000D01*
X123197200Y-56212000D01*
X123206200Y-56208000D01*
X123216200Y-56203000D01*
X123225200Y-56198000D01*
X123234200Y-56193000D01*
X123243200Y-56187000D01*
X123251200Y-56180000D01*
X123259200Y-56174000D01*
X123266200Y-56166000D01*
X123274200Y-56159000D01*
X123280200Y-56151000D01*
X123287200Y-56143000D01*
X123293200Y-56134000D01*
X123298200Y-56125000D01*
X123303200Y-56116000D01*
X123308200Y-56106000D01*
X123312200Y-56097000D01*
X123315200Y-56087000D01*
X123318200Y-56077000D01*
X123321200Y-56067000D01*
X123323200Y-56056000D01*
X123324200Y-56046000D01*
X123325200Y-56035000D01*
X123325200Y-56025000D01*
X123325200Y-54265000D01*
X123325200Y-54249000D01*
X123327200Y-54234000D01*
X123329200Y-54218000D01*
X123332200Y-54203000D01*
X123335200Y-54187000D01*
X123340200Y-54172000D01*
X123345200Y-54157000D01*
X123351200Y-54143000D01*
X123358200Y-54129000D01*
X123365200Y-54115000D01*
X123373200Y-54102000D01*
X123382200Y-54089000D01*
X123392200Y-54076000D01*
X123402200Y-54064000D01*
X123413200Y-54053000D01*
X123424200Y-54042000D01*
X123436200Y-54032000D01*
X123449200Y-54022000D01*
X123462200Y-54013000D01*
X123475200Y-54005000D01*
X123489200Y-53998000D01*
X123503200Y-53991000D01*
X123517200Y-53985000D01*
X123532200Y-53980000D01*
X123547200Y-53975000D01*
X123563200Y-53972000D01*
X123578200Y-53969000D01*
X123594200Y-53967000D01*
X123609200Y-53965000D01*
X123625200Y-53965000D01*
X124650200Y-53965000D01*
X124650200Y-59495000D01*
G37*
%TO.C,U4*%
X130110200Y-29720400D02*
X129460200Y-29720400D01*
X129460200Y-30120400D01*
X130110200Y-30120400D01*
X130110200Y-30720400D01*
X128600200Y-30720400D01*
X128600200Y-29120400D01*
X130110200Y-29120400D01*
X130110200Y-29720400D01*
G36*
X130110200Y-29720400D02*
G01*
X129460200Y-29720400D01*
X129460200Y-30120400D01*
X130110200Y-30120400D01*
X130110200Y-30720400D01*
X128600200Y-30720400D01*
X128600200Y-29120400D01*
X130110200Y-29120400D01*
X130110200Y-29720400D01*
G37*
X130110200Y-35720400D02*
X129460200Y-35720400D01*
X129460200Y-36120400D01*
X130110200Y-36120400D01*
X130110200Y-36720400D01*
X128600200Y-36720400D01*
X128600200Y-35120400D01*
X130110200Y-35120400D01*
X130110200Y-35720400D01*
G36*
X130110200Y-35720400D02*
G01*
X129460200Y-35720400D01*
X129460200Y-36120400D01*
X130110200Y-36120400D01*
X130110200Y-36720400D01*
X128600200Y-36720400D01*
X128600200Y-35120400D01*
X130110200Y-35120400D01*
X130110200Y-35720400D01*
G37*
X124650200Y-31590400D02*
X123225200Y-31590400D01*
X123215200Y-31590400D01*
X123204200Y-31591400D01*
X123194200Y-31592400D01*
X123183200Y-31594400D01*
X123173200Y-31597400D01*
X123163200Y-31600400D01*
X123153200Y-31603400D01*
X123144200Y-31607400D01*
X123134200Y-31612400D01*
X123125200Y-31617400D01*
X123116200Y-31622400D01*
X123107200Y-31628400D01*
X123099200Y-31635400D01*
X123091200Y-31641400D01*
X123084200Y-31649400D01*
X123076200Y-31656400D01*
X123070200Y-31664400D01*
X123063200Y-31672400D01*
X123057200Y-31681400D01*
X123052200Y-31690400D01*
X123047200Y-31699400D01*
X123042200Y-31709400D01*
X123038200Y-31718400D01*
X123035200Y-31728400D01*
X123032200Y-31738400D01*
X123029200Y-31748400D01*
X123027200Y-31759400D01*
X123026200Y-31769400D01*
X123025200Y-31780400D01*
X123025200Y-31790400D01*
X123025200Y-33550400D01*
X123025200Y-33566400D01*
X123023200Y-33581400D01*
X123021200Y-33597400D01*
X123018200Y-33612400D01*
X123015200Y-33628400D01*
X123010200Y-33643400D01*
X123005200Y-33658400D01*
X122999200Y-33672400D01*
X122992200Y-33686400D01*
X122985200Y-33700400D01*
X122977200Y-33713400D01*
X122968200Y-33726400D01*
X122958200Y-33739400D01*
X122948200Y-33751400D01*
X122937200Y-33762400D01*
X122926200Y-33773400D01*
X122914200Y-33783400D01*
X122901200Y-33793400D01*
X122888200Y-33802400D01*
X122875200Y-33810400D01*
X122861200Y-33817400D01*
X122847200Y-33824400D01*
X122833200Y-33830400D01*
X122818200Y-33835400D01*
X122803200Y-33840400D01*
X122787200Y-33843400D01*
X122772200Y-33846400D01*
X122756200Y-33848400D01*
X122741200Y-33850400D01*
X122725200Y-33850400D01*
X120950200Y-33850400D01*
X120950200Y-28320400D01*
X124650200Y-28320400D01*
X124650200Y-31590400D01*
G36*
X124650200Y-31590400D02*
G01*
X123225200Y-31590400D01*
X123215200Y-31590400D01*
X123204200Y-31591400D01*
X123194200Y-31592400D01*
X123183200Y-31594400D01*
X123173200Y-31597400D01*
X123163200Y-31600400D01*
X123153200Y-31603400D01*
X123144200Y-31607400D01*
X123134200Y-31612400D01*
X123125200Y-31617400D01*
X123116200Y-31622400D01*
X123107200Y-31628400D01*
X123099200Y-31635400D01*
X123091200Y-31641400D01*
X123084200Y-31649400D01*
X123076200Y-31656400D01*
X123070200Y-31664400D01*
X123063200Y-31672400D01*
X123057200Y-31681400D01*
X123052200Y-31690400D01*
X123047200Y-31699400D01*
X123042200Y-31709400D01*
X123038200Y-31718400D01*
X123035200Y-31728400D01*
X123032200Y-31738400D01*
X123029200Y-31748400D01*
X123027200Y-31759400D01*
X123026200Y-31769400D01*
X123025200Y-31780400D01*
X123025200Y-31790400D01*
X123025200Y-33550400D01*
X123025200Y-33566400D01*
X123023200Y-33581400D01*
X123021200Y-33597400D01*
X123018200Y-33612400D01*
X123015200Y-33628400D01*
X123010200Y-33643400D01*
X123005200Y-33658400D01*
X122999200Y-33672400D01*
X122992200Y-33686400D01*
X122985200Y-33700400D01*
X122977200Y-33713400D01*
X122968200Y-33726400D01*
X122958200Y-33739400D01*
X122948200Y-33751400D01*
X122937200Y-33762400D01*
X122926200Y-33773400D01*
X122914200Y-33783400D01*
X122901200Y-33793400D01*
X122888200Y-33802400D01*
X122875200Y-33810400D01*
X122861200Y-33817400D01*
X122847200Y-33824400D01*
X122833200Y-33830400D01*
X122818200Y-33835400D01*
X122803200Y-33840400D01*
X122787200Y-33843400D01*
X122772200Y-33846400D01*
X122756200Y-33848400D01*
X122741200Y-33850400D01*
X122725200Y-33850400D01*
X120950200Y-33850400D01*
X120950200Y-28320400D01*
X124650200Y-28320400D01*
X124650200Y-31590400D01*
G37*
X124650200Y-37520400D02*
X120950200Y-37520400D01*
X120950200Y-34250400D01*
X123125200Y-34250400D01*
X123135200Y-34250400D01*
X123146200Y-34249400D01*
X123156200Y-34248400D01*
X123167200Y-34246400D01*
X123177200Y-34243400D01*
X123187200Y-34240400D01*
X123197200Y-34237400D01*
X123206200Y-34233400D01*
X123216200Y-34228400D01*
X123225200Y-34223400D01*
X123234200Y-34218400D01*
X123243200Y-34212400D01*
X123251200Y-34205400D01*
X123259200Y-34199400D01*
X123266200Y-34191400D01*
X123274200Y-34184400D01*
X123280200Y-34176400D01*
X123287200Y-34168400D01*
X123293200Y-34159400D01*
X123298200Y-34150400D01*
X123303200Y-34141400D01*
X123308200Y-34131400D01*
X123312200Y-34122400D01*
X123315200Y-34112400D01*
X123318200Y-34102400D01*
X123321200Y-34092400D01*
X123323200Y-34081400D01*
X123324200Y-34071400D01*
X123325200Y-34060400D01*
X123325200Y-34050400D01*
X123325200Y-32290400D01*
X123325200Y-32274400D01*
X123327200Y-32259400D01*
X123329200Y-32243400D01*
X123332200Y-32228400D01*
X123335200Y-32212400D01*
X123340200Y-32197400D01*
X123345200Y-32182400D01*
X123351200Y-32168400D01*
X123358200Y-32154400D01*
X123365200Y-32140400D01*
X123373200Y-32127400D01*
X123382200Y-32114400D01*
X123392200Y-32101400D01*
X123402200Y-32089400D01*
X123413200Y-32078400D01*
X123424200Y-32067400D01*
X123436200Y-32057400D01*
X123449200Y-32047400D01*
X123462200Y-32038400D01*
X123475200Y-32030400D01*
X123489200Y-32023400D01*
X123503200Y-32016400D01*
X123517200Y-32010400D01*
X123532200Y-32005400D01*
X123547200Y-32000400D01*
X123563200Y-31997400D01*
X123578200Y-31994400D01*
X123594200Y-31992400D01*
X123609200Y-31990400D01*
X123625200Y-31990400D01*
X124650200Y-31990400D01*
X124650200Y-37520400D01*
G36*
X124650200Y-37520400D02*
G01*
X120950200Y-37520400D01*
X120950200Y-34250400D01*
X123125200Y-34250400D01*
X123135200Y-34250400D01*
X123146200Y-34249400D01*
X123156200Y-34248400D01*
X123167200Y-34246400D01*
X123177200Y-34243400D01*
X123187200Y-34240400D01*
X123197200Y-34237400D01*
X123206200Y-34233400D01*
X123216200Y-34228400D01*
X123225200Y-34223400D01*
X123234200Y-34218400D01*
X123243200Y-34212400D01*
X123251200Y-34205400D01*
X123259200Y-34199400D01*
X123266200Y-34191400D01*
X123274200Y-34184400D01*
X123280200Y-34176400D01*
X123287200Y-34168400D01*
X123293200Y-34159400D01*
X123298200Y-34150400D01*
X123303200Y-34141400D01*
X123308200Y-34131400D01*
X123312200Y-34122400D01*
X123315200Y-34112400D01*
X123318200Y-34102400D01*
X123321200Y-34092400D01*
X123323200Y-34081400D01*
X123324200Y-34071400D01*
X123325200Y-34060400D01*
X123325200Y-34050400D01*
X123325200Y-32290400D01*
X123325200Y-32274400D01*
X123327200Y-32259400D01*
X123329200Y-32243400D01*
X123332200Y-32228400D01*
X123335200Y-32212400D01*
X123340200Y-32197400D01*
X123345200Y-32182400D01*
X123351200Y-32168400D01*
X123358200Y-32154400D01*
X123365200Y-32140400D01*
X123373200Y-32127400D01*
X123382200Y-32114400D01*
X123392200Y-32101400D01*
X123402200Y-32089400D01*
X123413200Y-32078400D01*
X123424200Y-32067400D01*
X123436200Y-32057400D01*
X123449200Y-32047400D01*
X123462200Y-32038400D01*
X123475200Y-32030400D01*
X123489200Y-32023400D01*
X123503200Y-32016400D01*
X123517200Y-32010400D01*
X123532200Y-32005400D01*
X123547200Y-32000400D01*
X123563200Y-31997400D01*
X123578200Y-31994400D01*
X123594200Y-31992400D01*
X123609200Y-31990400D01*
X123625200Y-31990400D01*
X124650200Y-31990400D01*
X124650200Y-37520400D01*
G37*
%TO.C,Q5*%
X116844000Y-41158000D02*
X112204000Y-41158000D01*
X112204000Y-40248000D01*
X112794000Y-40248000D01*
X112794000Y-39888000D01*
X112204000Y-39888000D01*
X112204000Y-38978000D01*
X112794000Y-38978000D01*
X112794000Y-38618000D01*
X112204000Y-38618000D01*
X112204000Y-37708000D01*
X112794000Y-37708000D01*
X112794000Y-37348000D01*
X112204000Y-37348000D01*
X112204000Y-36438000D01*
X116844000Y-36438000D01*
X116844000Y-41158000D01*
G36*
X116844000Y-41158000D02*
G01*
X112204000Y-41158000D01*
X112204000Y-40248000D01*
X112794000Y-40248000D01*
X112794000Y-39888000D01*
X112204000Y-39888000D01*
X112204000Y-38978000D01*
X112794000Y-38978000D01*
X112794000Y-38618000D01*
X112204000Y-38618000D01*
X112204000Y-37708000D01*
X112794000Y-37708000D01*
X112794000Y-37348000D01*
X112204000Y-37348000D01*
X112204000Y-36438000D01*
X116844000Y-36438000D01*
X116844000Y-41158000D01*
G37*
%TO.C,Q3*%
X117114000Y-63303000D02*
X112474000Y-63303000D01*
X112474000Y-62393000D01*
X113064000Y-62393000D01*
X113064000Y-62033000D01*
X112474000Y-62033000D01*
X112474000Y-61123000D01*
X113064000Y-61123000D01*
X113064000Y-60763000D01*
X112474000Y-60763000D01*
X112474000Y-59853000D01*
X113064000Y-59853000D01*
X113064000Y-59493000D01*
X112474000Y-59493000D01*
X112474000Y-58583000D01*
X117114000Y-58583000D01*
X117114000Y-63303000D01*
G36*
X117114000Y-63303000D02*
G01*
X112474000Y-63303000D01*
X112474000Y-62393000D01*
X113064000Y-62393000D01*
X113064000Y-62033000D01*
X112474000Y-62033000D01*
X112474000Y-61123000D01*
X113064000Y-61123000D01*
X113064000Y-60763000D01*
X112474000Y-60763000D01*
X112474000Y-59853000D01*
X113064000Y-59853000D01*
X113064000Y-59493000D01*
X112474000Y-59493000D01*
X112474000Y-58583000D01*
X117114000Y-58583000D01*
X117114000Y-63303000D01*
G37*
%TO.C,U2*%
X129553800Y-77003600D02*
X128903800Y-77003600D01*
X128903800Y-77403600D01*
X129553800Y-77403600D01*
X129553800Y-78003600D01*
X128043800Y-78003600D01*
X128043800Y-76403600D01*
X129553800Y-76403600D01*
X129553800Y-77003600D01*
G36*
X129553800Y-77003600D02*
G01*
X128903800Y-77003600D01*
X128903800Y-77403600D01*
X129553800Y-77403600D01*
X129553800Y-78003600D01*
X128043800Y-78003600D01*
X128043800Y-76403600D01*
X129553800Y-76403600D01*
X129553800Y-77003600D01*
G37*
X129553800Y-83003600D02*
X128903800Y-83003600D01*
X128903800Y-83403600D01*
X129553800Y-83403600D01*
X129553800Y-84003600D01*
X128043800Y-84003600D01*
X128043800Y-82403600D01*
X129553800Y-82403600D01*
X129553800Y-83003600D01*
G36*
X129553800Y-83003600D02*
G01*
X128903800Y-83003600D01*
X128903800Y-83403600D01*
X129553800Y-83403600D01*
X129553800Y-84003600D01*
X128043800Y-84003600D01*
X128043800Y-82403600D01*
X129553800Y-82403600D01*
X129553800Y-83003600D01*
G37*
X124093800Y-78873600D02*
X122668800Y-78873600D01*
X122658800Y-78873600D01*
X122647800Y-78874600D01*
X122637800Y-78875600D01*
X122626800Y-78877600D01*
X122616800Y-78880600D01*
X122606800Y-78883600D01*
X122596800Y-78886600D01*
X122587800Y-78890600D01*
X122577800Y-78895600D01*
X122568800Y-78900600D01*
X122559800Y-78905600D01*
X122550800Y-78911600D01*
X122542800Y-78918600D01*
X122534800Y-78924600D01*
X122527800Y-78932600D01*
X122519800Y-78939600D01*
X122513800Y-78947600D01*
X122506800Y-78955600D01*
X122500800Y-78964600D01*
X122495800Y-78973600D01*
X122490800Y-78982600D01*
X122485800Y-78992600D01*
X122481800Y-79001600D01*
X122478800Y-79011600D01*
X122475800Y-79021600D01*
X122472800Y-79031600D01*
X122470800Y-79042600D01*
X122469800Y-79052600D01*
X122468800Y-79063600D01*
X122468800Y-79073600D01*
X122468800Y-80833600D01*
X122468800Y-80849600D01*
X122466800Y-80864600D01*
X122464800Y-80880600D01*
X122461800Y-80895600D01*
X122458800Y-80911600D01*
X122453800Y-80926600D01*
X122448800Y-80941600D01*
X122442800Y-80955600D01*
X122435800Y-80969600D01*
X122428800Y-80983600D01*
X122420800Y-80996600D01*
X122411800Y-81009600D01*
X122401800Y-81022600D01*
X122391800Y-81034600D01*
X122380800Y-81045600D01*
X122369800Y-81056600D01*
X122357800Y-81066600D01*
X122344800Y-81076600D01*
X122331800Y-81085600D01*
X122318800Y-81093600D01*
X122304800Y-81100600D01*
X122290800Y-81107600D01*
X122276800Y-81113600D01*
X122261800Y-81118600D01*
X122246800Y-81123600D01*
X122230800Y-81126600D01*
X122215800Y-81129600D01*
X122199800Y-81131600D01*
X122184800Y-81133600D01*
X122168800Y-81133600D01*
X120393800Y-81133600D01*
X120393800Y-75603600D01*
X124093800Y-75603600D01*
X124093800Y-78873600D01*
G36*
X124093800Y-78873600D02*
G01*
X122668800Y-78873600D01*
X122658800Y-78873600D01*
X122647800Y-78874600D01*
X122637800Y-78875600D01*
X122626800Y-78877600D01*
X122616800Y-78880600D01*
X122606800Y-78883600D01*
X122596800Y-78886600D01*
X122587800Y-78890600D01*
X122577800Y-78895600D01*
X122568800Y-78900600D01*
X122559800Y-78905600D01*
X122550800Y-78911600D01*
X122542800Y-78918600D01*
X122534800Y-78924600D01*
X122527800Y-78932600D01*
X122519800Y-78939600D01*
X122513800Y-78947600D01*
X122506800Y-78955600D01*
X122500800Y-78964600D01*
X122495800Y-78973600D01*
X122490800Y-78982600D01*
X122485800Y-78992600D01*
X122481800Y-79001600D01*
X122478800Y-79011600D01*
X122475800Y-79021600D01*
X122472800Y-79031600D01*
X122470800Y-79042600D01*
X122469800Y-79052600D01*
X122468800Y-79063600D01*
X122468800Y-79073600D01*
X122468800Y-80833600D01*
X122468800Y-80849600D01*
X122466800Y-80864600D01*
X122464800Y-80880600D01*
X122461800Y-80895600D01*
X122458800Y-80911600D01*
X122453800Y-80926600D01*
X122448800Y-80941600D01*
X122442800Y-80955600D01*
X122435800Y-80969600D01*
X122428800Y-80983600D01*
X122420800Y-80996600D01*
X122411800Y-81009600D01*
X122401800Y-81022600D01*
X122391800Y-81034600D01*
X122380800Y-81045600D01*
X122369800Y-81056600D01*
X122357800Y-81066600D01*
X122344800Y-81076600D01*
X122331800Y-81085600D01*
X122318800Y-81093600D01*
X122304800Y-81100600D01*
X122290800Y-81107600D01*
X122276800Y-81113600D01*
X122261800Y-81118600D01*
X122246800Y-81123600D01*
X122230800Y-81126600D01*
X122215800Y-81129600D01*
X122199800Y-81131600D01*
X122184800Y-81133600D01*
X122168800Y-81133600D01*
X120393800Y-81133600D01*
X120393800Y-75603600D01*
X124093800Y-75603600D01*
X124093800Y-78873600D01*
G37*
X124093800Y-84803600D02*
X120393800Y-84803600D01*
X120393800Y-81533600D01*
X122568800Y-81533600D01*
X122578800Y-81533600D01*
X122589800Y-81532600D01*
X122599800Y-81531600D01*
X122610800Y-81529600D01*
X122620800Y-81526600D01*
X122630800Y-81523600D01*
X122640800Y-81520600D01*
X122649800Y-81516600D01*
X122659800Y-81511600D01*
X122668800Y-81506600D01*
X122677800Y-81501600D01*
X122686800Y-81495600D01*
X122694800Y-81488600D01*
X122702800Y-81482600D01*
X122709800Y-81474600D01*
X122717800Y-81467600D01*
X122723800Y-81459600D01*
X122730800Y-81451600D01*
X122736800Y-81442600D01*
X122741800Y-81433600D01*
X122746800Y-81424600D01*
X122751800Y-81414600D01*
X122755800Y-81405600D01*
X122758800Y-81395600D01*
X122761800Y-81385600D01*
X122764800Y-81375600D01*
X122766800Y-81364600D01*
X122767800Y-81354600D01*
X122768800Y-81343600D01*
X122768800Y-81333600D01*
X122768800Y-79573600D01*
X122768800Y-79557600D01*
X122770800Y-79542600D01*
X122772800Y-79526600D01*
X122775800Y-79511600D01*
X122778800Y-79495600D01*
X122783800Y-79480600D01*
X122788800Y-79465600D01*
X122794800Y-79451600D01*
X122801800Y-79437600D01*
X122808800Y-79423600D01*
X122816800Y-79410600D01*
X122825800Y-79397600D01*
X122835800Y-79384600D01*
X122845800Y-79372600D01*
X122856800Y-79361600D01*
X122867800Y-79350600D01*
X122879800Y-79340600D01*
X122892800Y-79330600D01*
X122905800Y-79321600D01*
X122918800Y-79313600D01*
X122932800Y-79306600D01*
X122946800Y-79299600D01*
X122960800Y-79293600D01*
X122975800Y-79288600D01*
X122990800Y-79283600D01*
X123006800Y-79280600D01*
X123021800Y-79277600D01*
X123037800Y-79275600D01*
X123052800Y-79273600D01*
X123068800Y-79273600D01*
X124093800Y-79273600D01*
X124093800Y-84803600D01*
G36*
X124093800Y-84803600D02*
G01*
X120393800Y-84803600D01*
X120393800Y-81533600D01*
X122568800Y-81533600D01*
X122578800Y-81533600D01*
X122589800Y-81532600D01*
X122599800Y-81531600D01*
X122610800Y-81529600D01*
X122620800Y-81526600D01*
X122630800Y-81523600D01*
X122640800Y-81520600D01*
X122649800Y-81516600D01*
X122659800Y-81511600D01*
X122668800Y-81506600D01*
X122677800Y-81501600D01*
X122686800Y-81495600D01*
X122694800Y-81488600D01*
X122702800Y-81482600D01*
X122709800Y-81474600D01*
X122717800Y-81467600D01*
X122723800Y-81459600D01*
X122730800Y-81451600D01*
X122736800Y-81442600D01*
X122741800Y-81433600D01*
X122746800Y-81424600D01*
X122751800Y-81414600D01*
X122755800Y-81405600D01*
X122758800Y-81395600D01*
X122761800Y-81385600D01*
X122764800Y-81375600D01*
X122766800Y-81364600D01*
X122767800Y-81354600D01*
X122768800Y-81343600D01*
X122768800Y-81333600D01*
X122768800Y-79573600D01*
X122768800Y-79557600D01*
X122770800Y-79542600D01*
X122772800Y-79526600D01*
X122775800Y-79511600D01*
X122778800Y-79495600D01*
X122783800Y-79480600D01*
X122788800Y-79465600D01*
X122794800Y-79451600D01*
X122801800Y-79437600D01*
X122808800Y-79423600D01*
X122816800Y-79410600D01*
X122825800Y-79397600D01*
X122835800Y-79384600D01*
X122845800Y-79372600D01*
X122856800Y-79361600D01*
X122867800Y-79350600D01*
X122879800Y-79340600D01*
X122892800Y-79330600D01*
X122905800Y-79321600D01*
X122918800Y-79313600D01*
X122932800Y-79306600D01*
X122946800Y-79299600D01*
X122960800Y-79293600D01*
X122975800Y-79288600D01*
X122990800Y-79283600D01*
X123006800Y-79280600D01*
X123021800Y-79277600D01*
X123037800Y-79275600D01*
X123052800Y-79273600D01*
X123068800Y-79273600D01*
X124093800Y-79273600D01*
X124093800Y-84803600D01*
G37*
%TD*%
D11*
%TO.C,R15*%
X136125000Y-54808000D03*
X134300000Y-54808000D03*
%TD*%
D12*
%TO.C,TP2*%
X117473600Y-78703600D03*
%TD*%
%TO.C,TP5*%
X130030000Y-61443000D03*
%TD*%
D13*
%TO.C,F4*%
X140511600Y-23808000D03*
X149300000Y-23808000D03*
%TD*%
D14*
%TO.C,C28*%
X78076000Y-85368000D03*
X76176000Y-85368000D03*
%TD*%
D12*
%TO.C,TP8*%
X130030000Y-39624000D03*
%TD*%
D11*
%TO.C,R17*%
X135300000Y-32308000D03*
X133475000Y-32308000D03*
%TD*%
D15*
%TO.C,C23*%
X139625000Y-57308000D03*
X139625000Y-59208000D03*
%TD*%
D13*
%TO.C,F2*%
X137011600Y-70308000D03*
X145800000Y-70308000D03*
%TD*%
D16*
%TO.C,J7*%
X86528500Y-74534000D03*
D17*
X96048500Y-74534000D03*
%TD*%
D18*
%TO.C,J1*%
X49850000Y-56250000D03*
D17*
X49850000Y-65770000D03*
%TD*%
D19*
%TO.C,C12*%
X161388000Y-110220000D03*
X161388000Y-111770000D03*
%TD*%
D20*
%TO.C,CR4*%
X72767400Y-136128000D03*
D21*
X72767400Y-138668000D03*
D20*
X72767400Y-141208000D03*
D22*
X81644700Y-138668000D03*
%TD*%
D11*
%TO.C,R11*%
X167484000Y-110220000D03*
X165659000Y-110220000D03*
%TD*%
D23*
%TO.C,Q4*%
X126570000Y-63993000D03*
D24*
X126570000Y-61453000D03*
%TD*%
D25*
%TO.C,R5*%
X175070000Y-88055400D03*
X175070000Y-89880400D03*
%TD*%
D26*
%TO.C,C10*%
X72634000Y-75808000D03*
X59134000Y-75808000D03*
%TD*%
D27*
%TO.C,R48*%
X169570000Y-83380400D03*
X169570000Y-81555400D03*
%TD*%
D28*
%TO.C,J3*%
X186650000Y-47650500D03*
D17*
X186650000Y-41300500D03*
X186650000Y-34950500D03*
%TD*%
D13*
%TO.C,F3*%
X138011600Y-44808000D03*
X146800000Y-44808000D03*
%TD*%
D12*
%TO.C,TP4*%
X129473600Y-86703600D03*
%TD*%
D29*
%TO.C,C13*%
X139675000Y-54808000D03*
X138125000Y-54808000D03*
%TD*%
D30*
%TO.C,J6*%
X187500000Y-85020500D03*
D31*
X187500000Y-87520500D03*
X187500000Y-90020500D03*
X187500000Y-92520500D03*
%TD*%
D12*
%TO.C,TP3*%
X117348000Y-53340000D03*
%TD*%
D25*
%TO.C,R10*%
X163420000Y-109919000D03*
X163420000Y-111744000D03*
%TD*%
D11*
%TO.C,R12*%
X135125000Y-79808000D03*
X133300000Y-79808000D03*
%TD*%
D18*
%TO.C,J8*%
X49900000Y-81080500D03*
D17*
X49900000Y-90600500D03*
%TD*%
D11*
%TO.C,R13*%
X135125000Y-77308000D03*
X133300000Y-77308000D03*
%TD*%
D12*
%TO.C,TP7*%
X119030000Y-30893000D03*
%TD*%
%TO.C,TP6*%
X147300000Y-48808000D03*
%TD*%
D25*
%TO.C,R8*%
X165570000Y-94380400D03*
X165570000Y-96205400D03*
%TD*%
%TO.C,R46*%
X168030000Y-94380400D03*
X168030000Y-96205400D03*
%TD*%
D29*
%TO.C,C11*%
X138625000Y-79808000D03*
X137075000Y-79808000D03*
%TD*%
D15*
%TO.C,C2*%
X72644700Y-143372000D03*
X72644700Y-145272000D03*
%TD*%
%TO.C,C21*%
X138975000Y-34908000D03*
X138975000Y-36808000D03*
%TD*%
D23*
%TO.C,Q6*%
X127070000Y-41943000D03*
D24*
X127070000Y-39403000D03*
%TD*%
D32*
%TO.C,K2*%
X86261000Y-60945000D03*
D33*
X96421000Y-60945000D03*
D34*
X82451000Y-48245000D03*
D35*
X100231000Y-45705000D03*
%TD*%
D36*
%TO.C,C6*%
X114779000Y-90535000D03*
X117729000Y-90535000D03*
%TD*%
D14*
%TO.C,C15*%
X164470000Y-83380400D03*
X162570000Y-83380400D03*
%TD*%
D37*
%TO.C,F1*%
X74520000Y-29380000D03*
X74520000Y-38168400D03*
%TD*%
D23*
%TO.C,Q1*%
X118243600Y-86338600D03*
D24*
X118243600Y-83798600D03*
%TD*%
D27*
%TO.C,R9*%
X173800000Y-83380400D03*
X173800000Y-81555400D03*
%TD*%
D12*
%TO.C,TP1*%
X145800000Y-74308000D03*
%TD*%
D23*
%TO.C,Q2*%
X126013600Y-88703600D03*
D24*
X126013600Y-86163600D03*
%TD*%
D12*
%TO.C,TP9*%
X149800000Y-28808000D03*
%TD*%
D11*
%TO.C,R45*%
X179570000Y-87880400D03*
X177745000Y-87880400D03*
%TD*%
D38*
%TO.C,U3*%
X129350200Y-56395000D03*
X129350200Y-55395000D03*
X129350200Y-54395000D03*
X129350200Y-53395000D03*
%TD*%
D39*
%TO.C,R47*%
X177570000Y-84880400D03*
X179395000Y-84880400D03*
%TD*%
D15*
%TO.C,C24*%
X138625000Y-82308000D03*
X138625000Y-84208000D03*
%TD*%
D40*
%TO.C,U6*%
X168260000Y-91308000D03*
X169530000Y-91308000D03*
X170800000Y-91308000D03*
X172070000Y-91308000D03*
X172070000Y-86380400D03*
X170800000Y-86380400D03*
X169530000Y-86380400D03*
X168260000Y-86380400D03*
%TD*%
D39*
%TO.C,R36*%
X134650000Y-34808000D03*
X136475000Y-34808000D03*
%TD*%
D36*
%TO.C,C7*%
X115385000Y-65643000D03*
X118335000Y-65643000D03*
%TD*%
%TO.C,C8*%
X117030000Y-46443000D03*
X119980000Y-46443000D03*
%TD*%
D26*
%TO.C,C9*%
X72920000Y-53780000D03*
X59420000Y-53780000D03*
%TD*%
D39*
%TO.C,R32*%
X134800000Y-82308000D03*
X136625000Y-82308000D03*
%TD*%
D38*
%TO.C,U4*%
X129350200Y-34420400D03*
X129350200Y-33420400D03*
X129350200Y-32420400D03*
X129350200Y-31420400D03*
%TD*%
D23*
%TO.C,Q5*%
X118530000Y-39433000D03*
D24*
X118530000Y-36893000D03*
%TD*%
D39*
%TO.C,R35*%
X135625000Y-57308000D03*
X137450000Y-57308000D03*
%TD*%
D23*
%TO.C,Q3*%
X118800000Y-61578000D03*
D24*
X118800000Y-59038000D03*
%TD*%
D11*
%TO.C,R44*%
X78076000Y-87868000D03*
X76251000Y-87868000D03*
%TD*%
%TO.C,R14*%
X136125000Y-52308000D03*
X134300000Y-52308000D03*
%TD*%
D29*
%TO.C,C14*%
X138975000Y-32308000D03*
X137425000Y-32308000D03*
%TD*%
D11*
%TO.C,R16*%
X135300000Y-29808000D03*
X133475000Y-29808000D03*
%TD*%
D38*
%TO.C,U2*%
X128793800Y-81703600D03*
X128793800Y-80703600D03*
X128793800Y-79703600D03*
X128793800Y-78703600D03*
%TD*%
D39*
%TO.C,R43*%
X76251000Y-82788000D03*
X78076000Y-82788000D03*
%TD*%
D14*
%TO.C,C1*%
X69308000Y-138668000D03*
X67408000Y-138668000D03*
%TD*%
D27*
%TO.C,R18*%
X167070000Y-83380400D03*
X167070000Y-81555400D03*
%TD*%
D41*
%TO.C,J2*%
X98747500Y-29050000D03*
D17*
X89227500Y-29050000D03*
%TD*%
D42*
%TO.C,U5*%
X190754000Y-99314000D03*
X39624000Y-99314000D03*
X190754000Y-152654000D03*
X39624000Y-152654000D03*
D43*
X87884000Y-103124000D03*
X90424000Y-103124000D03*
X92964000Y-103124000D03*
X95504000Y-103124000D03*
X98044000Y-103124000D03*
X100584000Y-103124000D03*
X103124000Y-103124000D03*
X105664000Y-103124000D03*
X108204000Y-103124000D03*
X110744000Y-103124000D03*
X110744000Y-148844000D03*
X108204000Y-148844000D03*
X105664000Y-148844000D03*
X103124000Y-148844000D03*
X100584000Y-148844000D03*
X98044000Y-148844000D03*
X95504000Y-148844000D03*
X92964000Y-148844000D03*
X90424000Y-148844000D03*
X87884000Y-148844000D03*
X87884000Y-105664000D03*
X90424000Y-105664000D03*
X92964000Y-105664000D03*
X95504000Y-105664000D03*
X98044000Y-105664000D03*
X100584000Y-105664000D03*
X103124000Y-105664000D03*
X105664000Y-105664000D03*
X108204000Y-105664000D03*
X110744000Y-105664000D03*
X110744000Y-146304000D03*
X108204000Y-146304000D03*
X105664000Y-146304000D03*
X103124000Y-146304000D03*
X100584000Y-146304000D03*
X98044000Y-146304000D03*
X95504000Y-146304000D03*
X92964000Y-146304000D03*
X90424000Y-146304000D03*
X87884000Y-146304000D03*
X151384000Y-103124000D03*
X153924000Y-103124000D03*
X156464000Y-103124000D03*
X159004000Y-103124000D03*
X161544000Y-103124000D03*
X164084000Y-103124000D03*
X166624000Y-103124000D03*
X169164000Y-103124000D03*
X171704000Y-103124000D03*
X174244000Y-103124000D03*
X174244000Y-148844000D03*
X171704000Y-148844000D03*
X169164000Y-148844000D03*
X166624000Y-148844000D03*
X164084000Y-148844000D03*
X161544000Y-148844000D03*
X159004000Y-148844000D03*
X156464000Y-148844000D03*
X153924000Y-148844000D03*
X151384000Y-148844000D03*
X151384000Y-105664000D03*
X153924000Y-105664000D03*
X156464000Y-105664000D03*
X159004000Y-105664000D03*
X161544000Y-105664000D03*
X164084000Y-105664000D03*
X166624000Y-105664000D03*
X169164000Y-105664000D03*
X171704000Y-105664000D03*
X174244000Y-105664000D03*
X174244000Y-146304000D03*
X171704000Y-146304000D03*
X169164000Y-146304000D03*
X166624000Y-146304000D03*
X164084000Y-146304000D03*
X161544000Y-146304000D03*
X159004000Y-146304000D03*
X156464000Y-146304000D03*
X153924000Y-146304000D03*
X151384000Y-146304000D03*
X133604000Y-146304000D03*
X133604000Y-148844000D03*
X136144000Y-146304000D03*
X136144000Y-148844000D03*
X138684000Y-146304000D03*
X138684000Y-148844000D03*
X141224000Y-146304000D03*
X141224000Y-148844000D03*
X143764000Y-146304000D03*
X143764000Y-148844000D03*
X186918600Y-133604000D03*
X186944000Y-131064000D03*
X186944000Y-128524000D03*
X186944000Y-125984000D03*
X186944000Y-123444000D03*
X186918600Y-118364000D03*
X186944000Y-115824000D03*
X186944000Y-113284000D03*
X186944000Y-110744000D03*
X186944000Y-108204000D03*
D44*
X186944000Y-143764000D03*
X186944000Y-141224000D03*
X186944000Y-138684000D03*
X128524000Y-103124000D03*
X131064000Y-103124000D03*
X120904000Y-148844000D03*
X118364000Y-148844000D03*
X115824000Y-148844000D03*
X120904000Y-103124000D03*
X118364000Y-103124000D03*
X115824000Y-103124000D03*
X184404000Y-148844000D03*
X181864000Y-148844000D03*
X179324000Y-148844000D03*
X184404000Y-103124000D03*
X181864000Y-103124000D03*
X179324000Y-103124000D03*
%TD*%
M02*
