G04 Layer_Color=8388736*
%FSAX25Y25*%
%MOIN*%
G70*
G01*
G75*
%ADD49C,0.00800*%
%ADD50C,0.01000*%
%ADD51C,0.00600*%
%ADD83C,0.00700*%
%ADD158R,0.12500X0.12500*%
%ADD159R,0.37500X0.12500*%
G36*
X0395804Y0137941D02*
X0395889Y0137931D01*
X0395975Y0137912D01*
X0396080Y0137893D01*
X0396194Y0137874D01*
X0396432Y0137798D01*
X0396556Y0137741D01*
X0396689Y0137684D01*
X0396813Y0137608D01*
X0396937Y0137522D01*
X0397060Y0137427D01*
X0397175Y0137313D01*
X0397184Y0137303D01*
X0397203Y0137284D01*
X0397232Y0137246D01*
X0397270Y0137198D01*
X0397317Y0137132D01*
X0397365Y0137056D01*
X0397422Y0136960D01*
X0397479Y0136856D01*
X0397527Y0136732D01*
X0397584Y0136599D01*
X0397632Y0136456D01*
X0397679Y0136294D01*
X0397717Y0136123D01*
X0397746Y0135942D01*
X0397765Y0135742D01*
X0397774Y0135532D01*
Y0135523D01*
Y0135475D01*
Y0135409D01*
X0397765Y0135323D01*
X0394300D01*
Y0135313D01*
Y0135285D01*
X0394309Y0135247D01*
Y0135199D01*
X0394319Y0135133D01*
X0394328Y0135056D01*
X0394366Y0134885D01*
X0394423Y0134695D01*
X0394499Y0134504D01*
X0394595Y0134314D01*
X0394728Y0134142D01*
X0394747Y0134123D01*
X0394795Y0134076D01*
X0394880Y0134019D01*
X0394994Y0133943D01*
X0395137Y0133866D01*
X0395299Y0133809D01*
X0395490Y0133762D01*
X0395699Y0133743D01*
X0395775D01*
X0395851Y0133752D01*
X0395956Y0133771D01*
X0396070Y0133800D01*
X0396194Y0133838D01*
X0396318Y0133885D01*
X0396442Y0133962D01*
X0396451Y0133971D01*
X0396489Y0134009D01*
X0396546Y0134057D01*
X0396622Y0134142D01*
X0396699Y0134238D01*
X0396784Y0134371D01*
X0396860Y0134523D01*
X0396937Y0134695D01*
X0397746Y0134590D01*
Y0134580D01*
X0397736Y0134561D01*
X0397727Y0134523D01*
X0397708Y0134476D01*
X0397689Y0134409D01*
X0397660Y0134342D01*
X0397584Y0134181D01*
X0397489Y0134009D01*
X0397365Y0133819D01*
X0397213Y0133647D01*
X0397032Y0133486D01*
X0397022D01*
X0397013Y0133467D01*
X0396975Y0133448D01*
X0396937Y0133429D01*
X0396889Y0133400D01*
X0396822Y0133362D01*
X0396756Y0133324D01*
X0396670Y0133295D01*
X0396480Y0133219D01*
X0396251Y0133152D01*
X0395985Y0133114D01*
X0395699Y0133095D01*
X0395604D01*
X0395528Y0133105D01*
X0395442Y0133114D01*
X0395347Y0133124D01*
X0395233Y0133143D01*
X0395118Y0133171D01*
X0394861Y0133248D01*
X0394718Y0133295D01*
X0394585Y0133352D01*
X0394452Y0133429D01*
X0394319Y0133514D01*
X0394195Y0133609D01*
X0394081Y0133714D01*
X0394071Y0133724D01*
X0394052Y0133743D01*
X0394023Y0133781D01*
X0393985Y0133828D01*
X0393947Y0133895D01*
X0393890Y0133971D01*
X0393843Y0134066D01*
X0393785Y0134171D01*
X0393728Y0134285D01*
X0393681Y0134419D01*
X0393624Y0134561D01*
X0393585Y0134723D01*
X0393547Y0134895D01*
X0393519Y0135075D01*
X0393500Y0135266D01*
X0393490Y0135475D01*
Y0135485D01*
Y0135523D01*
Y0135590D01*
X0393500Y0135666D01*
X0393509Y0135770D01*
X0393519Y0135885D01*
X0393538Y0136008D01*
X0393566Y0136151D01*
X0393633Y0136437D01*
X0393690Y0136589D01*
X0393747Y0136741D01*
X0393814Y0136894D01*
X0393890Y0137037D01*
X0393985Y0137179D01*
X0394090Y0137303D01*
X0394100Y0137313D01*
X0394119Y0137332D01*
X0394157Y0137360D01*
X0394195Y0137408D01*
X0394261Y0137455D01*
X0394328Y0137513D01*
X0394414Y0137570D01*
X0394509Y0137627D01*
X0394614Y0137684D01*
X0394737Y0137751D01*
X0394861Y0137798D01*
X0395004Y0137846D01*
X0395147Y0137893D01*
X0395309Y0137922D01*
X0395480Y0137941D01*
X0395651Y0137951D01*
X0395737D01*
X0395804Y0137941D01*
D02*
G37*
G36*
X0312846Y0139597D02*
X0312932D01*
X0313123Y0139588D01*
X0313332Y0139559D01*
X0313541Y0139531D01*
X0313751Y0139483D01*
X0313846Y0139455D01*
X0313932Y0139426D01*
X0313941D01*
X0313951Y0139417D01*
X0314008Y0139398D01*
X0314084Y0139350D01*
X0314189Y0139283D01*
X0314303Y0139198D01*
X0314427Y0139093D01*
X0314541Y0138969D01*
X0314646Y0138817D01*
X0314655Y0138798D01*
X0314693Y0138741D01*
X0314731Y0138655D01*
X0314789Y0138531D01*
X0314836Y0138388D01*
X0314884Y0138227D01*
X0314912Y0138046D01*
X0314922Y0137855D01*
Y0137846D01*
Y0137827D01*
Y0137789D01*
X0314912Y0137741D01*
Y0137684D01*
X0314903Y0137617D01*
X0314865Y0137455D01*
X0314817Y0137275D01*
X0314731Y0137084D01*
X0314627Y0136884D01*
X0314550Y0136789D01*
X0314474Y0136703D01*
X0314465Y0136694D01*
X0314455Y0136684D01*
X0314427Y0136656D01*
X0314389Y0136627D01*
X0314341Y0136589D01*
X0314284Y0136551D01*
X0314217Y0136503D01*
X0314141Y0136456D01*
X0314046Y0136408D01*
X0313951Y0136351D01*
X0313837Y0136303D01*
X0313713Y0136256D01*
X0313579Y0136218D01*
X0313437Y0136170D01*
X0313284Y0136142D01*
X0313113Y0136113D01*
X0313132Y0136104D01*
X0313170Y0136085D01*
X0313227Y0136056D01*
X0313303Y0136008D01*
X0313475Y0135913D01*
X0313551Y0135847D01*
X0313627Y0135789D01*
X0313646Y0135770D01*
X0313694Y0135732D01*
X0313760Y0135656D01*
X0313856Y0135551D01*
X0313960Y0135428D01*
X0314074Y0135285D01*
X0314198Y0135123D01*
X0314322Y0134942D01*
X0315436Y0133200D01*
X0314379D01*
X0313532Y0134523D01*
Y0134533D01*
X0313513Y0134552D01*
X0313494Y0134580D01*
X0313465Y0134618D01*
X0313399Y0134723D01*
X0313313Y0134856D01*
X0313218Y0134999D01*
X0313113Y0135142D01*
X0313008Y0135285D01*
X0312913Y0135409D01*
X0312903Y0135418D01*
X0312875Y0135456D01*
X0312827Y0135513D01*
X0312770Y0135580D01*
X0312637Y0135723D01*
X0312561Y0135780D01*
X0312485Y0135837D01*
X0312475Y0135847D01*
X0312456Y0135856D01*
X0312418Y0135875D01*
X0312361Y0135904D01*
X0312237Y0135961D01*
X0312094Y0136008D01*
X0312085D01*
X0312066Y0136018D01*
X0312028D01*
X0311980Y0136027D01*
X0311913Y0136037D01*
X0311837D01*
X0311742Y0136047D01*
X0310647D01*
Y0133200D01*
X0309800D01*
Y0139607D01*
X0312780D01*
X0312846Y0139597D01*
D02*
G37*
G36*
X0331848Y0133200D02*
X0331144D01*
Y0133876D01*
X0331134Y0133866D01*
X0331115Y0133847D01*
X0331087Y0133800D01*
X0331039Y0133752D01*
X0330992Y0133695D01*
X0330925Y0133628D01*
X0330839Y0133562D01*
X0330753Y0133486D01*
X0330649Y0133409D01*
X0330535Y0133343D01*
X0330420Y0133276D01*
X0330287Y0133219D01*
X0330144Y0133171D01*
X0329992Y0133133D01*
X0329830Y0133105D01*
X0329659Y0133095D01*
X0329592D01*
X0329506Y0133105D01*
X0329411Y0133114D01*
X0329287Y0133133D01*
X0329164Y0133162D01*
X0329021Y0133200D01*
X0328888Y0133248D01*
X0328869Y0133257D01*
X0328831Y0133276D01*
X0328764Y0133314D01*
X0328688Y0133362D01*
X0328602Y0133419D01*
X0328516Y0133486D01*
X0328440Y0133562D01*
X0328364Y0133647D01*
X0328355Y0133657D01*
X0328335Y0133695D01*
X0328307Y0133743D01*
X0328269Y0133809D01*
X0328231Y0133895D01*
X0328193Y0133990D01*
X0328155Y0134104D01*
X0328126Y0134228D01*
Y0134238D01*
X0328116Y0134276D01*
X0328107Y0134323D01*
Y0134409D01*
X0328097Y0134504D01*
X0328088Y0134637D01*
X0328078Y0134790D01*
Y0134961D01*
Y0137846D01*
X0328869D01*
Y0135266D01*
Y0135256D01*
Y0135237D01*
Y0135209D01*
Y0135171D01*
Y0135056D01*
X0328878Y0134933D01*
Y0134790D01*
X0328888Y0134647D01*
X0328897Y0134523D01*
X0328916Y0134428D01*
Y0134419D01*
X0328935Y0134380D01*
X0328954Y0134323D01*
X0328983Y0134257D01*
X0329021Y0134181D01*
X0329068Y0134095D01*
X0329135Y0134019D01*
X0329221Y0133943D01*
X0329230Y0133933D01*
X0329268Y0133914D01*
X0329316Y0133885D01*
X0329392Y0133857D01*
X0329478Y0133828D01*
X0329583Y0133800D01*
X0329697Y0133781D01*
X0329821Y0133771D01*
X0329878D01*
X0329944Y0133781D01*
X0330040Y0133790D01*
X0330135Y0133819D01*
X0330249Y0133847D01*
X0330363Y0133895D01*
X0330477Y0133952D01*
X0330487Y0133962D01*
X0330525Y0133990D01*
X0330582Y0134028D01*
X0330649Y0134085D01*
X0330725Y0134152D01*
X0330801Y0134238D01*
X0330868Y0134333D01*
X0330925Y0134438D01*
X0330934Y0134457D01*
X0330944Y0134495D01*
X0330963Y0134571D01*
X0330992Y0134666D01*
X0331020Y0134799D01*
X0331039Y0134952D01*
X0331049Y0135142D01*
X0331058Y0135352D01*
Y0137846D01*
X0331848D01*
Y0133200D01*
D02*
G37*
G36*
X0347061Y0139617D02*
X0347185Y0139597D01*
X0347328Y0139578D01*
X0347480Y0139540D01*
X0347633Y0139483D01*
X0347785Y0139417D01*
X0347804Y0139407D01*
X0347851Y0139378D01*
X0347918Y0139331D01*
X0348013Y0139264D01*
X0348109Y0139179D01*
X0348223Y0139074D01*
X0348327Y0138960D01*
X0348423Y0138817D01*
X0348432Y0138798D01*
X0348461Y0138750D01*
X0348508Y0138664D01*
X0348565Y0138550D01*
X0348632Y0138417D01*
X0348699Y0138255D01*
X0348765Y0138065D01*
X0348822Y0137865D01*
Y0137855D01*
X0348832Y0137836D01*
X0348842Y0137808D01*
X0348851Y0137760D01*
X0348861Y0137703D01*
X0348870Y0137636D01*
X0348889Y0137560D01*
X0348899Y0137465D01*
X0348918Y0137360D01*
X0348927Y0137246D01*
X0348937Y0137122D01*
X0348956Y0136989D01*
X0348965Y0136846D01*
Y0136694D01*
X0348975Y0136522D01*
Y0136351D01*
Y0136342D01*
Y0136303D01*
Y0136246D01*
Y0136161D01*
X0348965Y0136065D01*
Y0135961D01*
X0348956Y0135837D01*
X0348946Y0135704D01*
X0348918Y0135418D01*
X0348870Y0135114D01*
X0348813Y0134809D01*
X0348775Y0134666D01*
X0348737Y0134533D01*
Y0134523D01*
X0348727Y0134504D01*
X0348708Y0134466D01*
X0348699Y0134419D01*
X0348670Y0134361D01*
X0348642Y0134295D01*
X0348565Y0134142D01*
X0348470Y0133971D01*
X0348346Y0133790D01*
X0348204Y0133619D01*
X0348042Y0133467D01*
X0348032D01*
X0348023Y0133448D01*
X0347994Y0133429D01*
X0347956Y0133409D01*
X0347861Y0133352D01*
X0347728Y0133286D01*
X0347556Y0133210D01*
X0347356Y0133152D01*
X0347137Y0133114D01*
X0346880Y0133095D01*
X0346795D01*
X0346728Y0133105D01*
X0346652Y0133114D01*
X0346557Y0133133D01*
X0346462Y0133152D01*
X0346357Y0133181D01*
X0346243Y0133210D01*
X0346119Y0133257D01*
X0345995Y0133305D01*
X0345881Y0133371D01*
X0345757Y0133448D01*
X0345643Y0133533D01*
X0345529Y0133638D01*
X0345424Y0133752D01*
X0345414Y0133762D01*
X0345395Y0133790D01*
X0345367Y0133838D01*
X0345329Y0133905D01*
X0345281Y0133990D01*
X0345224Y0134104D01*
X0345167Y0134228D01*
X0345110Y0134380D01*
X0345053Y0134552D01*
X0344995Y0134742D01*
X0344938Y0134952D01*
X0344891Y0135190D01*
X0344853Y0135447D01*
X0344824Y0135723D01*
X0344805Y0136027D01*
X0344795Y0136351D01*
Y0136361D01*
Y0136399D01*
Y0136456D01*
Y0136541D01*
X0344805Y0136637D01*
Y0136751D01*
X0344815Y0136875D01*
X0344824Y0137008D01*
X0344853Y0137294D01*
X0344891Y0137598D01*
X0344948Y0137903D01*
X0344986Y0138046D01*
X0345024Y0138179D01*
Y0138189D01*
X0345034Y0138207D01*
X0345053Y0138246D01*
X0345072Y0138293D01*
X0345091Y0138350D01*
X0345119Y0138417D01*
X0345205Y0138569D01*
X0345300Y0138741D01*
X0345414Y0138921D01*
X0345557Y0139093D01*
X0345719Y0139245D01*
X0345728D01*
X0345738Y0139264D01*
X0345767Y0139283D01*
X0345805Y0139302D01*
X0345852Y0139331D01*
X0345900Y0139369D01*
X0346043Y0139436D01*
X0346204Y0139502D01*
X0346404Y0139569D01*
X0346633Y0139607D01*
X0346880Y0139626D01*
X0346966D01*
X0347061Y0139617D01*
D02*
G37*
G36*
X0382856Y0137941D02*
X0382933Y0137931D01*
X0383028Y0137922D01*
X0383133Y0137903D01*
X0383256Y0137874D01*
X0383504Y0137798D01*
X0383628Y0137751D01*
X0383761Y0137684D01*
X0383894Y0137617D01*
X0384027Y0137532D01*
X0384151Y0137436D01*
X0384265Y0137322D01*
X0384275Y0137313D01*
X0384294Y0137294D01*
X0384323Y0137256D01*
X0384361Y0137208D01*
X0384408Y0137141D01*
X0384456Y0137065D01*
X0384513Y0136970D01*
X0384570Y0136865D01*
X0384627Y0136751D01*
X0384684Y0136618D01*
X0384732Y0136475D01*
X0384780Y0136323D01*
X0384818Y0136151D01*
X0384846Y0135970D01*
X0384865Y0135780D01*
X0384875Y0135580D01*
Y0135571D01*
Y0135542D01*
Y0135494D01*
Y0135437D01*
X0384865Y0135361D01*
Y0135266D01*
X0384856Y0135171D01*
X0384837Y0135066D01*
X0384808Y0134847D01*
X0384760Y0134609D01*
X0384694Y0134380D01*
X0384599Y0134171D01*
Y0134161D01*
X0384589Y0134152D01*
X0384570Y0134123D01*
X0384551Y0134085D01*
X0384484Y0133990D01*
X0384399Y0133876D01*
X0384294Y0133752D01*
X0384161Y0133619D01*
X0383999Y0133486D01*
X0383818Y0133371D01*
X0383808D01*
X0383799Y0133362D01*
X0383770Y0133343D01*
X0383732Y0133333D01*
X0383685Y0133305D01*
X0383628Y0133286D01*
X0383485Y0133238D01*
X0383313Y0133181D01*
X0383123Y0133143D01*
X0382914Y0133105D01*
X0382695Y0133095D01*
X0382599D01*
X0382533Y0133105D01*
X0382447Y0133114D01*
X0382352Y0133124D01*
X0382247Y0133143D01*
X0382133Y0133171D01*
X0381885Y0133248D01*
X0381752Y0133295D01*
X0381619Y0133352D01*
X0381495Y0133429D01*
X0381362Y0133514D01*
X0381238Y0133609D01*
X0381124Y0133714D01*
X0381114Y0133724D01*
X0381095Y0133743D01*
X0381067Y0133781D01*
X0381029Y0133828D01*
X0380981Y0133895D01*
X0380933Y0133971D01*
X0380876Y0134066D01*
X0380829Y0134181D01*
X0380772Y0134295D01*
X0380715Y0134428D01*
X0380667Y0134580D01*
X0380619Y0134742D01*
X0380581Y0134914D01*
X0380553Y0135104D01*
X0380534Y0135304D01*
X0380524Y0135523D01*
Y0135542D01*
Y0135580D01*
X0380534Y0135647D01*
Y0135732D01*
X0380543Y0135837D01*
X0380562Y0135961D01*
X0380581Y0136094D01*
X0380610Y0136246D01*
X0380648Y0136399D01*
X0380695Y0136551D01*
X0380753Y0136713D01*
X0380829Y0136865D01*
X0380905Y0137018D01*
X0381000Y0137170D01*
X0381114Y0137303D01*
X0381238Y0137427D01*
X0381248Y0137436D01*
X0381267Y0137446D01*
X0381295Y0137475D01*
X0381343Y0137513D01*
X0381400Y0137551D01*
X0381476Y0137589D01*
X0381552Y0137636D01*
X0381647Y0137693D01*
X0381743Y0137741D01*
X0381857Y0137789D01*
X0382104Y0137865D01*
X0382390Y0137931D01*
X0382533Y0137941D01*
X0382695Y0137951D01*
X0382790D01*
X0382856Y0137941D01*
D02*
G37*
G36*
X0343758Y0138769D02*
X0341207D01*
X0340864Y0137046D01*
X0340873Y0137056D01*
X0340892Y0137065D01*
X0340921Y0137084D01*
X0340959Y0137113D01*
X0341016Y0137141D01*
X0341073Y0137179D01*
X0341226Y0137256D01*
X0341406Y0137322D01*
X0341616Y0137389D01*
X0341835Y0137436D01*
X0341949Y0137455D01*
X0342149D01*
X0342206Y0137446D01*
X0342273Y0137436D01*
X0342358Y0137427D01*
X0342454Y0137408D01*
X0342558Y0137379D01*
X0342777Y0137313D01*
X0342892Y0137265D01*
X0343015Y0137208D01*
X0343139Y0137141D01*
X0343253Y0137056D01*
X0343368Y0136970D01*
X0343482Y0136865D01*
X0343491Y0136856D01*
X0343510Y0136837D01*
X0343539Y0136808D01*
X0343577Y0136760D01*
X0343615Y0136703D01*
X0343663Y0136637D01*
X0343720Y0136551D01*
X0343777Y0136465D01*
X0343825Y0136361D01*
X0343882Y0136246D01*
X0343929Y0136123D01*
X0343977Y0135989D01*
X0344005Y0135847D01*
X0344034Y0135694D01*
X0344053Y0135542D01*
X0344062Y0135371D01*
Y0135361D01*
Y0135333D01*
Y0135285D01*
X0344053Y0135228D01*
X0344043Y0135152D01*
X0344034Y0135066D01*
X0344024Y0134961D01*
X0343996Y0134856D01*
X0343939Y0134618D01*
X0343844Y0134371D01*
X0343786Y0134238D01*
X0343720Y0134114D01*
X0343644Y0133990D01*
X0343548Y0133866D01*
X0343539Y0133857D01*
X0343520Y0133838D01*
X0343482Y0133800D01*
X0343434Y0133743D01*
X0343377Y0133686D01*
X0343301Y0133619D01*
X0343215Y0133552D01*
X0343110Y0133486D01*
X0342996Y0133409D01*
X0342873Y0133343D01*
X0342730Y0133276D01*
X0342587Y0133219D01*
X0342425Y0133171D01*
X0342254Y0133133D01*
X0342063Y0133105D01*
X0341873Y0133095D01*
X0341787D01*
X0341730Y0133105D01*
X0341654Y0133114D01*
X0341568Y0133124D01*
X0341473Y0133133D01*
X0341368Y0133152D01*
X0341140Y0133210D01*
X0340902Y0133305D01*
X0340778Y0133352D01*
X0340664Y0133419D01*
X0340550Y0133495D01*
X0340445Y0133581D01*
X0340435Y0133590D01*
X0340426Y0133600D01*
X0340397Y0133628D01*
X0340359Y0133667D01*
X0340312Y0133714D01*
X0340264Y0133781D01*
X0340216Y0133847D01*
X0340159Y0133923D01*
X0340102Y0134019D01*
X0340045Y0134114D01*
X0339950Y0134333D01*
X0339864Y0134590D01*
X0339836Y0134733D01*
X0339817Y0134885D01*
X0340645Y0134942D01*
Y0134933D01*
Y0134914D01*
X0340654Y0134885D01*
X0340664Y0134847D01*
X0340692Y0134733D01*
X0340731Y0134609D01*
X0340788Y0134457D01*
X0340854Y0134304D01*
X0340949Y0134161D01*
X0341064Y0134038D01*
X0341083Y0134028D01*
X0341121Y0133990D01*
X0341197Y0133943D01*
X0341292Y0133895D01*
X0341406Y0133838D01*
X0341549Y0133790D01*
X0341702Y0133752D01*
X0341873Y0133743D01*
X0341930D01*
X0341968Y0133752D01*
X0342073Y0133762D01*
X0342206Y0133800D01*
X0342358Y0133847D01*
X0342520Y0133923D01*
X0342682Y0134028D01*
X0342758Y0134095D01*
X0342834Y0134171D01*
Y0134181D01*
X0342853Y0134190D01*
X0342873Y0134219D01*
X0342892Y0134247D01*
X0342958Y0134342D01*
X0343034Y0134476D01*
X0343101Y0134637D01*
X0343168Y0134828D01*
X0343206Y0135056D01*
X0343225Y0135304D01*
Y0135313D01*
Y0135333D01*
Y0135371D01*
X0343215Y0135418D01*
Y0135475D01*
X0343206Y0135542D01*
X0343177Y0135694D01*
X0343129Y0135866D01*
X0343063Y0136037D01*
X0342968Y0136208D01*
X0342844Y0136370D01*
X0342825Y0136389D01*
X0342777Y0136427D01*
X0342692Y0136494D01*
X0342577Y0136570D01*
X0342444Y0136637D01*
X0342273Y0136703D01*
X0342073Y0136741D01*
X0341854Y0136760D01*
X0341787D01*
X0341721Y0136751D01*
X0341625Y0136741D01*
X0341521Y0136713D01*
X0341406Y0136684D01*
X0341283Y0136637D01*
X0341168Y0136580D01*
X0341159Y0136570D01*
X0341121Y0136551D01*
X0341064Y0136503D01*
X0340997Y0136456D01*
X0340921Y0136389D01*
X0340845Y0136313D01*
X0340769Y0136218D01*
X0340702Y0136123D01*
X0339959Y0136227D01*
X0340578Y0139521D01*
X0343758D01*
Y0138769D01*
D02*
G37*
G36*
X0362693Y0133200D02*
X0361903D01*
Y0139607D01*
X0362693D01*
Y0133200D01*
D02*
G37*
G36*
X0360722D02*
X0359932D01*
Y0137846D01*
X0360722D01*
Y0133200D01*
D02*
G37*
G36*
X0371975Y0135456D02*
X0372841D01*
Y0134733D01*
X0371975D01*
Y0133200D01*
X0371185D01*
Y0134733D01*
X0368396D01*
Y0135456D01*
X0371337Y0139607D01*
X0371975D01*
Y0135456D01*
D02*
G37*
G36*
X0318320Y0137941D02*
X0318454Y0137931D01*
X0318616Y0137912D01*
X0318777Y0137893D01*
X0318930Y0137855D01*
X0319082Y0137808D01*
X0319101Y0137798D01*
X0319139Y0137779D01*
X0319206Y0137751D01*
X0319291Y0137713D01*
X0319377Y0137655D01*
X0319472Y0137598D01*
X0319549Y0137532D01*
X0319625Y0137455D01*
X0319634Y0137446D01*
X0319653Y0137417D01*
X0319682Y0137370D01*
X0319720Y0137313D01*
X0319767Y0137236D01*
X0319806Y0137141D01*
X0319844Y0137037D01*
X0319872Y0136922D01*
Y0136913D01*
X0319882Y0136884D01*
X0319891Y0136827D01*
X0319901Y0136760D01*
Y0136656D01*
X0319910Y0136532D01*
X0319920Y0136380D01*
Y0136199D01*
Y0135142D01*
Y0135133D01*
Y0135094D01*
Y0135037D01*
Y0134971D01*
Y0134876D01*
Y0134780D01*
X0319929Y0134561D01*
Y0134323D01*
X0319939Y0134095D01*
X0319948Y0133990D01*
Y0133895D01*
X0319958Y0133819D01*
X0319967Y0133752D01*
Y0133743D01*
X0319977Y0133705D01*
X0319986Y0133647D01*
X0320005Y0133581D01*
X0320034Y0133495D01*
X0320072Y0133400D01*
X0320158Y0133200D01*
X0319339D01*
X0319330Y0133210D01*
X0319320Y0133248D01*
X0319301Y0133295D01*
X0319272Y0133362D01*
X0319244Y0133448D01*
X0319225Y0133552D01*
X0319206Y0133657D01*
X0319187Y0133781D01*
X0319168Y0133762D01*
X0319111Y0133724D01*
X0319025Y0133657D01*
X0318920Y0133571D01*
X0318787Y0133486D01*
X0318644Y0133400D01*
X0318492Y0133314D01*
X0318339Y0133248D01*
X0318320Y0133238D01*
X0318273Y0133229D01*
X0318187Y0133200D01*
X0318082Y0133171D01*
X0317949Y0133143D01*
X0317806Y0133124D01*
X0317645Y0133105D01*
X0317473Y0133095D01*
X0317397D01*
X0317349Y0133105D01*
X0317283D01*
X0317207Y0133114D01*
X0317035Y0133143D01*
X0316845Y0133191D01*
X0316654Y0133248D01*
X0316464Y0133343D01*
X0316293Y0133467D01*
X0316274Y0133486D01*
X0316226Y0133533D01*
X0316159Y0133619D01*
X0316093Y0133724D01*
X0316017Y0133866D01*
X0315950Y0134028D01*
X0315902Y0134209D01*
X0315893Y0134314D01*
X0315883Y0134419D01*
Y0134438D01*
Y0134476D01*
X0315893Y0134542D01*
X0315902Y0134628D01*
X0315921Y0134723D01*
X0315950Y0134828D01*
X0315988Y0134942D01*
X0316036Y0135047D01*
X0316045Y0135056D01*
X0316064Y0135094D01*
X0316093Y0135142D01*
X0316140Y0135209D01*
X0316197Y0135285D01*
X0316274Y0135361D01*
X0316350Y0135428D01*
X0316435Y0135494D01*
X0316445Y0135504D01*
X0316483Y0135523D01*
X0316531Y0135551D01*
X0316607Y0135590D01*
X0316692Y0135637D01*
X0316788Y0135675D01*
X0316892Y0135723D01*
X0317007Y0135761D01*
X0317016D01*
X0317054Y0135770D01*
X0317111Y0135780D01*
X0317188Y0135799D01*
X0317283Y0135818D01*
X0317407Y0135837D01*
X0317549Y0135856D01*
X0317711Y0135875D01*
X0317721D01*
X0317749Y0135885D01*
X0317806D01*
X0317873Y0135894D01*
X0317949Y0135904D01*
X0318035Y0135923D01*
X0318140Y0135932D01*
X0318244Y0135951D01*
X0318482Y0135989D01*
X0318711Y0136037D01*
X0318930Y0136094D01*
X0319034Y0136123D01*
X0319120Y0136151D01*
Y0136161D01*
Y0136180D01*
X0319130Y0136237D01*
Y0136303D01*
Y0136332D01*
Y0136351D01*
Y0136361D01*
Y0136370D01*
Y0136427D01*
X0319120Y0136513D01*
X0319101Y0136618D01*
X0319073Y0136732D01*
X0319034Y0136846D01*
X0318977Y0136941D01*
X0318901Y0137027D01*
X0318892Y0137037D01*
X0318844Y0137075D01*
X0318777Y0137113D01*
X0318673Y0137170D01*
X0318549Y0137217D01*
X0318387Y0137265D01*
X0318206Y0137294D01*
X0317997Y0137303D01*
X0317911D01*
X0317806Y0137294D01*
X0317692Y0137275D01*
X0317559Y0137256D01*
X0317416Y0137217D01*
X0317292Y0137170D01*
X0317178Y0137103D01*
X0317168Y0137094D01*
X0317130Y0137065D01*
X0317083Y0137018D01*
X0317026Y0136951D01*
X0316969Y0136856D01*
X0316902Y0136732D01*
X0316845Y0136589D01*
X0316788Y0136418D01*
X0316017Y0136522D01*
Y0136532D01*
X0316026Y0136541D01*
X0316036Y0136608D01*
X0316064Y0136694D01*
X0316102Y0136808D01*
X0316150Y0136932D01*
X0316207Y0137065D01*
X0316274Y0137189D01*
X0316359Y0137313D01*
X0316369Y0137322D01*
X0316407Y0137360D01*
X0316455Y0137417D01*
X0316540Y0137484D01*
X0316635Y0137560D01*
X0316750Y0137636D01*
X0316892Y0137713D01*
X0317054Y0137779D01*
X0317064D01*
X0317073Y0137789D01*
X0317102Y0137798D01*
X0317140Y0137808D01*
X0317235Y0137836D01*
X0317359Y0137865D01*
X0317511Y0137893D01*
X0317692Y0137922D01*
X0317892Y0137941D01*
X0318111Y0137951D01*
X0318206D01*
X0318320Y0137941D01*
D02*
G37*
G36*
X0326898Y0133200D02*
X0326108D01*
Y0137846D01*
X0326898D01*
Y0133200D01*
D02*
G37*
G36*
X0391110Y0137941D02*
X0391215Y0137931D01*
X0391329Y0137912D01*
X0391463Y0137884D01*
X0391596Y0137846D01*
X0391729Y0137798D01*
X0391748Y0137789D01*
X0391786Y0137770D01*
X0391853Y0137741D01*
X0391929Y0137693D01*
X0392015Y0137636D01*
X0392100Y0137570D01*
X0392186Y0137484D01*
X0392253Y0137398D01*
X0392262Y0137389D01*
X0392281Y0137351D01*
X0392310Y0137303D01*
X0392348Y0137236D01*
X0392395Y0137151D01*
X0392434Y0137046D01*
X0392472Y0136941D01*
X0392500Y0136818D01*
Y0136808D01*
X0392510Y0136779D01*
X0392519Y0136722D01*
X0392529Y0136637D01*
Y0136532D01*
X0392538Y0136408D01*
X0392548Y0136246D01*
Y0136056D01*
Y0133200D01*
X0391758D01*
Y0136018D01*
Y0136027D01*
Y0136037D01*
Y0136094D01*
Y0136180D01*
X0391748Y0136294D01*
X0391739Y0136408D01*
X0391720Y0136532D01*
X0391691Y0136646D01*
X0391663Y0136741D01*
Y0136751D01*
X0391643Y0136779D01*
X0391624Y0136827D01*
X0391586Y0136875D01*
X0391539Y0136941D01*
X0391482Y0136998D01*
X0391415Y0137065D01*
X0391329Y0137122D01*
X0391320Y0137132D01*
X0391291Y0137141D01*
X0391244Y0137170D01*
X0391177Y0137198D01*
X0391101Y0137217D01*
X0391006Y0137246D01*
X0390901Y0137256D01*
X0390787Y0137265D01*
X0390701D01*
X0390615Y0137246D01*
X0390492Y0137227D01*
X0390358Y0137189D01*
X0390215Y0137132D01*
X0390073Y0137046D01*
X0389930Y0136941D01*
X0389911Y0136922D01*
X0389873Y0136875D01*
X0389844Y0136837D01*
X0389816Y0136789D01*
X0389787Y0136732D01*
X0389749Y0136665D01*
X0389711Y0136589D01*
X0389682Y0136503D01*
X0389654Y0136408D01*
X0389625Y0136294D01*
X0389606Y0136170D01*
X0389587Y0136037D01*
X0389568Y0135894D01*
Y0135732D01*
Y0133200D01*
X0388778D01*
Y0137846D01*
X0389492D01*
Y0137179D01*
X0389501Y0137189D01*
X0389521Y0137217D01*
X0389549Y0137256D01*
X0389587Y0137303D01*
X0389635Y0137360D01*
X0389701Y0137427D01*
X0389777Y0137494D01*
X0389863Y0137570D01*
X0389958Y0137636D01*
X0390073Y0137703D01*
X0390196Y0137770D01*
X0390320Y0137827D01*
X0390463Y0137884D01*
X0390615Y0137922D01*
X0390787Y0137941D01*
X0390958Y0137951D01*
X0391025D01*
X0391110Y0137941D01*
D02*
G37*
G36*
X0400583D02*
X0400687Y0137922D01*
X0400811Y0137884D01*
X0400945Y0137846D01*
X0401097Y0137779D01*
X0401249Y0137693D01*
X0400963Y0136970D01*
X0400954Y0136979D01*
X0400916Y0136998D01*
X0400859Y0137027D01*
X0400783Y0137056D01*
X0400697Y0137084D01*
X0400602Y0137113D01*
X0400497Y0137132D01*
X0400392Y0137141D01*
X0400345D01*
X0400297Y0137132D01*
X0400240Y0137122D01*
X0400164Y0137103D01*
X0400088Y0137075D01*
X0400002Y0137037D01*
X0399926Y0136979D01*
X0399916Y0136970D01*
X0399897Y0136951D01*
X0399859Y0136913D01*
X0399812Y0136865D01*
X0399764Y0136808D01*
X0399726Y0136732D01*
X0399678Y0136646D01*
X0399640Y0136551D01*
X0399631Y0136532D01*
X0399621Y0136475D01*
X0399602Y0136389D01*
X0399583Y0136275D01*
X0399555Y0136142D01*
X0399535Y0135989D01*
X0399526Y0135809D01*
X0399517Y0135628D01*
Y0133200D01*
X0398726D01*
Y0137846D01*
X0399440D01*
Y0137151D01*
X0399450Y0137160D01*
X0399488Y0137217D01*
X0399535Y0137303D01*
X0399602Y0137408D01*
X0399678Y0137513D01*
X0399764Y0137627D01*
X0399850Y0137722D01*
X0399935Y0137789D01*
X0399945Y0137798D01*
X0399973Y0137817D01*
X0400021Y0137836D01*
X0400088Y0137874D01*
X0400164Y0137903D01*
X0400249Y0137922D01*
X0400335Y0137941D01*
X0400440Y0137951D01*
X0400507D01*
X0400583Y0137941D01*
D02*
G37*
G36*
X0324870Y0133200D02*
X0324137D01*
Y0133781D01*
X0324128Y0133771D01*
X0324118Y0133752D01*
X0324090Y0133714D01*
X0324051Y0133676D01*
X0324004Y0133619D01*
X0323947Y0133562D01*
X0323880Y0133505D01*
X0323804Y0133438D01*
X0323718Y0133371D01*
X0323623Y0133314D01*
X0323518Y0133257D01*
X0323395Y0133200D01*
X0323271Y0133162D01*
X0323137Y0133124D01*
X0322985Y0133105D01*
X0322833Y0133095D01*
X0322776D01*
X0322738Y0133105D01*
X0322633Y0133114D01*
X0322500Y0133133D01*
X0322338Y0133171D01*
X0322166Y0133229D01*
X0321995Y0133295D01*
X0321814Y0133400D01*
X0321805D01*
X0321795Y0133419D01*
X0321738Y0133457D01*
X0321652Y0133524D01*
X0321548Y0133619D01*
X0321433Y0133743D01*
X0321310Y0133885D01*
X0321195Y0134057D01*
X0321091Y0134247D01*
Y0134257D01*
X0321081Y0134276D01*
X0321072Y0134304D01*
X0321053Y0134342D01*
X0321034Y0134399D01*
X0321015Y0134457D01*
X0320967Y0134609D01*
X0320919Y0134799D01*
X0320881Y0135018D01*
X0320853Y0135256D01*
X0320843Y0135513D01*
Y0135523D01*
Y0135542D01*
Y0135580D01*
Y0135628D01*
X0320853Y0135694D01*
Y0135761D01*
X0320872Y0135932D01*
X0320900Y0136123D01*
X0320938Y0136342D01*
X0320995Y0136551D01*
X0321072Y0136770D01*
Y0136779D01*
X0321081Y0136799D01*
X0321100Y0136827D01*
X0321119Y0136865D01*
X0321167Y0136970D01*
X0321243Y0137094D01*
X0321338Y0137236D01*
X0321462Y0137379D01*
X0321595Y0137522D01*
X0321757Y0137646D01*
X0321767D01*
X0321776Y0137655D01*
X0321805Y0137674D01*
X0321843Y0137693D01*
X0321938Y0137741D01*
X0322062Y0137798D01*
X0322214Y0137855D01*
X0322395Y0137903D01*
X0322585Y0137941D01*
X0322795Y0137951D01*
X0322861D01*
X0322947Y0137941D01*
X0323042Y0137931D01*
X0323157Y0137903D01*
X0323290Y0137874D01*
X0323414Y0137827D01*
X0323537Y0137770D01*
X0323556Y0137760D01*
X0323594Y0137741D01*
X0323652Y0137703D01*
X0323728Y0137646D01*
X0323813Y0137579D01*
X0323909Y0137503D01*
X0323994Y0137417D01*
X0324080Y0137313D01*
Y0139607D01*
X0324870D01*
Y0133200D01*
D02*
G37*
G36*
X0360722Y0138712D02*
X0359932D01*
Y0139607D01*
X0360722D01*
Y0138712D01*
D02*
G37*
G36*
X0326898D02*
X0326108D01*
Y0139607D01*
X0326898D01*
Y0138712D01*
D02*
G37*
G36*
X0387645Y0137941D02*
X0387750Y0137922D01*
X0387874Y0137884D01*
X0388007Y0137846D01*
X0388159Y0137779D01*
X0388311Y0137693D01*
X0388026Y0136970D01*
X0388016Y0136979D01*
X0387978Y0136998D01*
X0387921Y0137027D01*
X0387845Y0137056D01*
X0387759Y0137084D01*
X0387664Y0137113D01*
X0387559Y0137132D01*
X0387455Y0137141D01*
X0387407D01*
X0387359Y0137132D01*
X0387302Y0137122D01*
X0387226Y0137103D01*
X0387150Y0137075D01*
X0387064Y0137037D01*
X0386988Y0136979D01*
X0386979Y0136970D01*
X0386960Y0136951D01*
X0386922Y0136913D01*
X0386874Y0136865D01*
X0386826Y0136808D01*
X0386788Y0136732D01*
X0386741Y0136646D01*
X0386703Y0136551D01*
X0386693Y0136532D01*
X0386684Y0136475D01*
X0386665Y0136389D01*
X0386645Y0136275D01*
X0386617Y0136142D01*
X0386598Y0135989D01*
X0386588Y0135809D01*
X0386579Y0135628D01*
Y0133200D01*
X0385789D01*
Y0137846D01*
X0386503D01*
Y0137151D01*
X0386512Y0137160D01*
X0386550Y0137217D01*
X0386598Y0137303D01*
X0386665Y0137408D01*
X0386741Y0137513D01*
X0386826Y0137627D01*
X0386912Y0137722D01*
X0386998Y0137789D01*
X0387007Y0137798D01*
X0387036Y0137817D01*
X0387083Y0137836D01*
X0387150Y0137874D01*
X0387226Y0137903D01*
X0387312Y0137922D01*
X0387398Y0137941D01*
X0387502Y0137951D01*
X0387569D01*
X0387645Y0137941D01*
D02*
G37*
G36*
X0334800D02*
X0334923Y0137931D01*
X0335076Y0137912D01*
X0335237Y0137884D01*
X0335399Y0137846D01*
X0335561Y0137789D01*
X0335571D01*
X0335580Y0137779D01*
X0335628Y0137760D01*
X0335704Y0137722D01*
X0335790Y0137674D01*
X0335894Y0137617D01*
X0335989Y0137541D01*
X0336085Y0137455D01*
X0336170Y0137360D01*
X0336180Y0137351D01*
X0336199Y0137313D01*
X0336237Y0137256D01*
X0336285Y0137170D01*
X0336323Y0137065D01*
X0336370Y0136951D01*
X0336408Y0136808D01*
X0336446Y0136646D01*
X0335675Y0136541D01*
Y0136561D01*
X0335666Y0136599D01*
X0335647Y0136665D01*
X0335618Y0136741D01*
X0335571Y0136827D01*
X0335523Y0136922D01*
X0335447Y0137018D01*
X0335361Y0137094D01*
X0335352Y0137103D01*
X0335314Y0137122D01*
X0335257Y0137160D01*
X0335180Y0137198D01*
X0335085Y0137236D01*
X0334961Y0137275D01*
X0334819Y0137294D01*
X0334657Y0137303D01*
X0334571D01*
X0334476Y0137294D01*
X0334362Y0137284D01*
X0334228Y0137256D01*
X0334105Y0137227D01*
X0333981Y0137179D01*
X0333886Y0137122D01*
X0333876Y0137113D01*
X0333847Y0137094D01*
X0333809Y0137056D01*
X0333771Y0136998D01*
X0333733Y0136941D01*
X0333695Y0136865D01*
X0333667Y0136789D01*
X0333657Y0136703D01*
Y0136694D01*
Y0136675D01*
X0333667Y0136646D01*
Y0136608D01*
X0333695Y0136522D01*
X0333752Y0136427D01*
X0333762Y0136418D01*
X0333771Y0136408D01*
X0333828Y0136351D01*
X0333867Y0136323D01*
X0333914Y0136284D01*
X0333981Y0136246D01*
X0334047Y0136218D01*
X0334057D01*
X0334076Y0136208D01*
X0334114Y0136199D01*
X0334181Y0136170D01*
X0334276Y0136142D01*
X0334390Y0136113D01*
X0334466Y0136085D01*
X0334552Y0136065D01*
X0334638Y0136037D01*
X0334742Y0136008D01*
X0334752D01*
X0334781Y0135999D01*
X0334819Y0135989D01*
X0334876Y0135970D01*
X0334942Y0135951D01*
X0335028Y0135932D01*
X0335199Y0135885D01*
X0335390Y0135828D01*
X0335590Y0135761D01*
X0335761Y0135704D01*
X0335837Y0135675D01*
X0335904Y0135647D01*
X0335923Y0135637D01*
X0335961Y0135618D01*
X0336018Y0135590D01*
X0336094Y0135542D01*
X0336180Y0135485D01*
X0336266Y0135409D01*
X0336351Y0135323D01*
X0336427Y0135228D01*
X0336437Y0135218D01*
X0336456Y0135180D01*
X0336485Y0135123D01*
X0336523Y0135047D01*
X0336561Y0134952D01*
X0336589Y0134837D01*
X0336608Y0134704D01*
X0336618Y0134561D01*
Y0134542D01*
Y0134495D01*
X0336608Y0134419D01*
X0336589Y0134323D01*
X0336561Y0134209D01*
X0336513Y0134085D01*
X0336456Y0133952D01*
X0336380Y0133819D01*
X0336370Y0133800D01*
X0336342Y0133762D01*
X0336285Y0133695D01*
X0336209Y0133619D01*
X0336113Y0133533D01*
X0335999Y0133438D01*
X0335866Y0133352D01*
X0335713Y0133276D01*
X0335694Y0133267D01*
X0335637Y0133248D01*
X0335552Y0133219D01*
X0335428Y0133191D01*
X0335285Y0133152D01*
X0335123Y0133124D01*
X0334942Y0133105D01*
X0334742Y0133095D01*
X0334657D01*
X0334590Y0133105D01*
X0334514D01*
X0334428Y0133114D01*
X0334228Y0133143D01*
X0334009Y0133191D01*
X0333781Y0133248D01*
X0333562Y0133343D01*
X0333457Y0133400D01*
X0333362Y0133467D01*
X0333352D01*
X0333343Y0133486D01*
X0333286Y0133543D01*
X0333210Y0133628D01*
X0333105Y0133752D01*
X0333010Y0133905D01*
X0332905Y0134104D01*
X0332819Y0134333D01*
X0332762Y0134590D01*
X0333543Y0134714D01*
Y0134704D01*
Y0134695D01*
X0333552Y0134637D01*
X0333581Y0134552D01*
X0333610Y0134447D01*
X0333657Y0134333D01*
X0333714Y0134209D01*
X0333800Y0134095D01*
X0333895Y0133990D01*
X0333914Y0133981D01*
X0333952Y0133952D01*
X0334019Y0133914D01*
X0334114Y0133866D01*
X0334238Y0133819D01*
X0334381Y0133781D01*
X0334552Y0133752D01*
X0334742Y0133743D01*
X0334828D01*
X0334923Y0133752D01*
X0335047Y0133771D01*
X0335171Y0133800D01*
X0335304Y0133838D01*
X0335428Y0133885D01*
X0335542Y0133962D01*
X0335552Y0133971D01*
X0335580Y0134000D01*
X0335628Y0134047D01*
X0335675Y0134104D01*
X0335723Y0134181D01*
X0335771Y0134276D01*
X0335799Y0134371D01*
X0335809Y0134476D01*
Y0134485D01*
Y0134523D01*
X0335799Y0134571D01*
X0335780Y0134628D01*
X0335752Y0134695D01*
X0335704Y0134761D01*
X0335647Y0134837D01*
X0335571Y0134895D01*
X0335561Y0134904D01*
X0335533Y0134914D01*
X0335485Y0134933D01*
X0335409Y0134971D01*
X0335304Y0135009D01*
X0335161Y0135047D01*
X0335085Y0135075D01*
X0334990Y0135104D01*
X0334885Y0135133D01*
X0334771Y0135161D01*
X0334761D01*
X0334733Y0135171D01*
X0334685Y0135180D01*
X0334628Y0135199D01*
X0334561Y0135218D01*
X0334476Y0135237D01*
X0334295Y0135294D01*
X0334095Y0135352D01*
X0333895Y0135418D01*
X0333714Y0135475D01*
X0333638Y0135513D01*
X0333571Y0135542D01*
X0333552Y0135551D01*
X0333514Y0135571D01*
X0333457Y0135609D01*
X0333381Y0135656D01*
X0333305Y0135723D01*
X0333219Y0135799D01*
X0333134Y0135885D01*
X0333067Y0135980D01*
X0333057Y0135989D01*
X0333038Y0136027D01*
X0333010Y0136085D01*
X0332981Y0136170D01*
X0332953Y0136256D01*
X0332924Y0136370D01*
X0332905Y0136484D01*
X0332895Y0136608D01*
Y0136627D01*
Y0136665D01*
X0332905Y0136722D01*
X0332915Y0136799D01*
X0332924Y0136884D01*
X0332953Y0136979D01*
X0332981Y0137084D01*
X0333029Y0137179D01*
X0333038Y0137189D01*
X0333057Y0137227D01*
X0333086Y0137275D01*
X0333134Y0137332D01*
X0333191Y0137408D01*
X0333257Y0137484D01*
X0333333Y0137560D01*
X0333419Y0137627D01*
X0333429Y0137636D01*
X0333457Y0137646D01*
X0333495Y0137674D01*
X0333552Y0137703D01*
X0333619Y0137741D01*
X0333705Y0137779D01*
X0333800Y0137817D01*
X0333914Y0137855D01*
X0333933D01*
X0333971Y0137874D01*
X0334038Y0137884D01*
X0334124Y0137903D01*
X0334228Y0137922D01*
X0334343Y0137931D01*
X0334466Y0137951D01*
X0334695D01*
X0334800Y0137941D01*
D02*
G37*
G36*
X0378344D02*
X0378411D01*
X0378487Y0137931D01*
X0378658Y0137903D01*
X0378849Y0137855D01*
X0379058Y0137789D01*
X0379258Y0137693D01*
X0379448Y0137560D01*
X0379458D01*
X0379467Y0137541D01*
X0379524Y0137494D01*
X0379610Y0137398D01*
X0379705Y0137284D01*
X0379810Y0137132D01*
X0379915Y0136941D01*
X0380000Y0136722D01*
X0380067Y0136475D01*
X0379306Y0136361D01*
Y0136370D01*
X0379296Y0136380D01*
X0379287Y0136437D01*
X0379258Y0136522D01*
X0379210Y0136627D01*
X0379163Y0136741D01*
X0379096Y0136856D01*
X0379010Y0136970D01*
X0378915Y0137065D01*
X0378906Y0137075D01*
X0378868Y0137103D01*
X0378811Y0137141D01*
X0378725Y0137189D01*
X0378630Y0137227D01*
X0378515Y0137265D01*
X0378392Y0137294D01*
X0378249Y0137303D01*
X0378192D01*
X0378154Y0137294D01*
X0378039Y0137284D01*
X0377906Y0137246D01*
X0377754Y0137198D01*
X0377592Y0137122D01*
X0377440Y0137018D01*
X0377363Y0136951D01*
X0377287Y0136875D01*
X0377268Y0136856D01*
X0377259Y0136827D01*
X0377230Y0136789D01*
X0377202Y0136751D01*
X0377173Y0136694D01*
X0377145Y0136627D01*
X0377106Y0136541D01*
X0377068Y0136456D01*
X0377040Y0136361D01*
X0377011Y0136246D01*
X0376983Y0136123D01*
X0376964Y0135989D01*
X0376945Y0135847D01*
X0376925Y0135694D01*
Y0135523D01*
Y0135513D01*
Y0135485D01*
Y0135437D01*
X0376935Y0135371D01*
Y0135294D01*
X0376945Y0135209D01*
X0376973Y0134999D01*
X0377011Y0134780D01*
X0377078Y0134552D01*
X0377164Y0134342D01*
X0377221Y0134247D01*
X0377278Y0134161D01*
X0377297Y0134142D01*
X0377344Y0134095D01*
X0377421Y0134028D01*
X0377525Y0133952D01*
X0377659Y0133876D01*
X0377820Y0133809D01*
X0378001Y0133762D01*
X0378106Y0133752D01*
X0378211Y0133743D01*
X0378287D01*
X0378373Y0133762D01*
X0378477Y0133781D01*
X0378601Y0133809D01*
X0378725Y0133857D01*
X0378849Y0133923D01*
X0378972Y0134019D01*
X0378982Y0134028D01*
X0379020Y0134076D01*
X0379077Y0134142D01*
X0379144Y0134238D01*
X0379210Y0134361D01*
X0379277Y0134514D01*
X0379334Y0134695D01*
X0379372Y0134904D01*
X0380143Y0134799D01*
Y0134790D01*
X0380134Y0134761D01*
X0380124Y0134723D01*
X0380115Y0134666D01*
X0380096Y0134599D01*
X0380077Y0134523D01*
X0380010Y0134342D01*
X0379924Y0134142D01*
X0379810Y0133933D01*
X0379667Y0133724D01*
X0379486Y0133543D01*
X0379477D01*
X0379467Y0133524D01*
X0379439Y0133505D01*
X0379391Y0133476D01*
X0379344Y0133438D01*
X0379287Y0133400D01*
X0379210Y0133362D01*
X0379134Y0133324D01*
X0378953Y0133238D01*
X0378734Y0133162D01*
X0378487Y0133114D01*
X0378354Y0133105D01*
X0378211Y0133095D01*
X0378116D01*
X0378058Y0133105D01*
X0377973Y0133114D01*
X0377877Y0133124D01*
X0377782Y0133143D01*
X0377668Y0133171D01*
X0377421Y0133248D01*
X0377297Y0133295D01*
X0377173Y0133352D01*
X0377040Y0133429D01*
X0376916Y0133514D01*
X0376802Y0133609D01*
X0376688Y0133714D01*
X0376678Y0133724D01*
X0376659Y0133743D01*
X0376630Y0133781D01*
X0376602Y0133828D01*
X0376554Y0133895D01*
X0376507Y0133971D01*
X0376459Y0134066D01*
X0376402Y0134171D01*
X0376345Y0134285D01*
X0376297Y0134419D01*
X0376250Y0134571D01*
X0376202Y0134733D01*
X0376173Y0134904D01*
X0376145Y0135094D01*
X0376126Y0135294D01*
X0376116Y0135504D01*
Y0135513D01*
Y0135542D01*
Y0135580D01*
Y0135628D01*
X0376126Y0135694D01*
Y0135770D01*
X0376145Y0135951D01*
X0376173Y0136151D01*
X0376221Y0136380D01*
X0376278Y0136599D01*
X0376364Y0136818D01*
Y0136827D01*
X0376373Y0136846D01*
X0376392Y0136875D01*
X0376411Y0136913D01*
X0376469Y0137008D01*
X0376554Y0137132D01*
X0376659Y0137275D01*
X0376783Y0137408D01*
X0376935Y0137551D01*
X0377116Y0137665D01*
X0377125D01*
X0377135Y0137674D01*
X0377164Y0137693D01*
X0377202Y0137713D01*
X0377306Y0137760D01*
X0377440Y0137808D01*
X0377611Y0137865D01*
X0377792Y0137903D01*
X0378001Y0137941D01*
X0378220Y0137951D01*
X0378296D01*
X0378344Y0137941D01*
D02*
G37*
G36*
X0403439D02*
X0403562Y0137931D01*
X0403715Y0137912D01*
X0403877Y0137884D01*
X0404038Y0137846D01*
X0404200Y0137789D01*
X0404210D01*
X0404219Y0137779D01*
X0404267Y0137760D01*
X0404343Y0137722D01*
X0404429Y0137674D01*
X0404533Y0137617D01*
X0404629Y0137541D01*
X0404724Y0137455D01*
X0404810Y0137360D01*
X0404819Y0137351D01*
X0404838Y0137313D01*
X0404876Y0137256D01*
X0404924Y0137170D01*
X0404962Y0137065D01*
X0405010Y0136951D01*
X0405048Y0136808D01*
X0405086Y0136646D01*
X0404315Y0136541D01*
Y0136561D01*
X0404305Y0136599D01*
X0404286Y0136665D01*
X0404257Y0136741D01*
X0404210Y0136827D01*
X0404162Y0136922D01*
X0404086Y0137018D01*
X0404000Y0137094D01*
X0403991Y0137103D01*
X0403953Y0137122D01*
X0403896Y0137160D01*
X0403820Y0137198D01*
X0403724Y0137236D01*
X0403601Y0137275D01*
X0403458Y0137294D01*
X0403296Y0137303D01*
X0403210D01*
X0403115Y0137294D01*
X0403001Y0137284D01*
X0402868Y0137256D01*
X0402744Y0137227D01*
X0402620Y0137179D01*
X0402525Y0137122D01*
X0402515Y0137113D01*
X0402487Y0137094D01*
X0402449Y0137056D01*
X0402411Y0136998D01*
X0402373Y0136941D01*
X0402334Y0136865D01*
X0402306Y0136789D01*
X0402296Y0136703D01*
Y0136694D01*
Y0136675D01*
X0402306Y0136646D01*
Y0136608D01*
X0402334Y0136522D01*
X0402391Y0136427D01*
X0402401Y0136418D01*
X0402411Y0136408D01*
X0402468Y0136351D01*
X0402506Y0136323D01*
X0402553Y0136284D01*
X0402620Y0136246D01*
X0402687Y0136218D01*
X0402696D01*
X0402715Y0136208D01*
X0402753Y0136199D01*
X0402820Y0136170D01*
X0402915Y0136142D01*
X0403029Y0136113D01*
X0403105Y0136085D01*
X0403191Y0136065D01*
X0403277Y0136037D01*
X0403382Y0136008D01*
X0403391D01*
X0403420Y0135999D01*
X0403458Y0135989D01*
X0403515Y0135970D01*
X0403581Y0135951D01*
X0403667Y0135932D01*
X0403839Y0135885D01*
X0404029Y0135828D01*
X0404229Y0135761D01*
X0404400Y0135704D01*
X0404476Y0135675D01*
X0404543Y0135647D01*
X0404562Y0135637D01*
X0404600Y0135618D01*
X0404657Y0135590D01*
X0404733Y0135542D01*
X0404819Y0135485D01*
X0404905Y0135409D01*
X0404990Y0135323D01*
X0405067Y0135228D01*
X0405076Y0135218D01*
X0405095Y0135180D01*
X0405124Y0135123D01*
X0405162Y0135047D01*
X0405200Y0134952D01*
X0405229Y0134837D01*
X0405247Y0134704D01*
X0405257Y0134561D01*
Y0134542D01*
Y0134495D01*
X0405247Y0134419D01*
X0405229Y0134323D01*
X0405200Y0134209D01*
X0405152Y0134085D01*
X0405095Y0133952D01*
X0405019Y0133819D01*
X0405010Y0133800D01*
X0404981Y0133762D01*
X0404924Y0133695D01*
X0404848Y0133619D01*
X0404752Y0133533D01*
X0404638Y0133438D01*
X0404505Y0133352D01*
X0404353Y0133276D01*
X0404334Y0133267D01*
X0404277Y0133248D01*
X0404191Y0133219D01*
X0404067Y0133191D01*
X0403924Y0133152D01*
X0403762Y0133124D01*
X0403581Y0133105D01*
X0403382Y0133095D01*
X0403296D01*
X0403229Y0133105D01*
X0403153D01*
X0403067Y0133114D01*
X0402868Y0133143D01*
X0402649Y0133191D01*
X0402420Y0133248D01*
X0402201Y0133343D01*
X0402096Y0133400D01*
X0402001Y0133467D01*
X0401992D01*
X0401982Y0133486D01*
X0401925Y0133543D01*
X0401849Y0133628D01*
X0401744Y0133752D01*
X0401649Y0133905D01*
X0401544Y0134104D01*
X0401459Y0134333D01*
X0401401Y0134590D01*
X0402182Y0134714D01*
Y0134704D01*
Y0134695D01*
X0402192Y0134637D01*
X0402220Y0134552D01*
X0402249Y0134447D01*
X0402296Y0134333D01*
X0402353Y0134209D01*
X0402439Y0134095D01*
X0402534Y0133990D01*
X0402553Y0133981D01*
X0402591Y0133952D01*
X0402658Y0133914D01*
X0402753Y0133866D01*
X0402877Y0133819D01*
X0403020Y0133781D01*
X0403191Y0133752D01*
X0403382Y0133743D01*
X0403467D01*
X0403562Y0133752D01*
X0403686Y0133771D01*
X0403810Y0133800D01*
X0403943Y0133838D01*
X0404067Y0133885D01*
X0404181Y0133962D01*
X0404191Y0133971D01*
X0404219Y0134000D01*
X0404267Y0134047D01*
X0404315Y0134104D01*
X0404362Y0134181D01*
X0404410Y0134276D01*
X0404438Y0134371D01*
X0404448Y0134476D01*
Y0134485D01*
Y0134523D01*
X0404438Y0134571D01*
X0404419Y0134628D01*
X0404391Y0134695D01*
X0404343Y0134761D01*
X0404286Y0134837D01*
X0404210Y0134895D01*
X0404200Y0134904D01*
X0404172Y0134914D01*
X0404124Y0134933D01*
X0404048Y0134971D01*
X0403943Y0135009D01*
X0403800Y0135047D01*
X0403724Y0135075D01*
X0403629Y0135104D01*
X0403524Y0135133D01*
X0403410Y0135161D01*
X0403401D01*
X0403372Y0135171D01*
X0403325Y0135180D01*
X0403267Y0135199D01*
X0403201Y0135218D01*
X0403115Y0135237D01*
X0402934Y0135294D01*
X0402734Y0135352D01*
X0402534Y0135418D01*
X0402353Y0135475D01*
X0402277Y0135513D01*
X0402211Y0135542D01*
X0402192Y0135551D01*
X0402153Y0135571D01*
X0402096Y0135609D01*
X0402020Y0135656D01*
X0401944Y0135723D01*
X0401858Y0135799D01*
X0401773Y0135885D01*
X0401706Y0135980D01*
X0401697Y0135989D01*
X0401678Y0136027D01*
X0401649Y0136085D01*
X0401620Y0136170D01*
X0401592Y0136256D01*
X0401563Y0136370D01*
X0401544Y0136484D01*
X0401535Y0136608D01*
Y0136627D01*
Y0136665D01*
X0401544Y0136722D01*
X0401554Y0136799D01*
X0401563Y0136884D01*
X0401592Y0136979D01*
X0401620Y0137084D01*
X0401668Y0137179D01*
X0401678Y0137189D01*
X0401697Y0137227D01*
X0401725Y0137275D01*
X0401773Y0137332D01*
X0401830Y0137408D01*
X0401896Y0137484D01*
X0401973Y0137560D01*
X0402058Y0137627D01*
X0402068Y0137636D01*
X0402096Y0137646D01*
X0402135Y0137674D01*
X0402192Y0137703D01*
X0402258Y0137741D01*
X0402344Y0137779D01*
X0402439Y0137817D01*
X0402553Y0137855D01*
X0402572D01*
X0402610Y0137874D01*
X0402677Y0137884D01*
X0402763Y0137903D01*
X0402868Y0137922D01*
X0402982Y0137931D01*
X0403105Y0137951D01*
X0403334D01*
X0403439Y0137941D01*
D02*
G37*
G36*
X0357457D02*
X0357514D01*
X0357581Y0137931D01*
X0357733Y0137903D01*
X0357905Y0137855D01*
X0358085Y0137789D01*
X0358257Y0137693D01*
X0358409Y0137560D01*
X0358428Y0137541D01*
X0358466Y0137484D01*
X0358523Y0137398D01*
X0358599Y0137275D01*
X0358666Y0137103D01*
X0358695Y0137008D01*
X0358723Y0136903D01*
X0358742Y0136789D01*
X0358761Y0136656D01*
X0358780Y0136522D01*
Y0136380D01*
Y0133200D01*
X0357990D01*
Y0136123D01*
Y0136132D01*
Y0136142D01*
Y0136199D01*
Y0136284D01*
X0357981Y0136380D01*
X0357971Y0136494D01*
X0357962Y0136608D01*
X0357943Y0136713D01*
X0357914Y0136799D01*
Y0136808D01*
X0357895Y0136837D01*
X0357876Y0136875D01*
X0357847Y0136922D01*
X0357809Y0136970D01*
X0357762Y0137027D01*
X0357705Y0137084D01*
X0357638Y0137132D01*
X0357628Y0137141D01*
X0357600Y0137151D01*
X0357562Y0137170D01*
X0357505Y0137198D01*
X0357438Y0137227D01*
X0357352Y0137246D01*
X0357267Y0137256D01*
X0357162Y0137265D01*
X0357143D01*
X0357086Y0137256D01*
X0356991Y0137246D01*
X0356876Y0137227D01*
X0356753Y0137179D01*
X0356610Y0137122D01*
X0356477Y0137046D01*
X0356343Y0136932D01*
X0356334Y0136913D01*
X0356296Y0136875D01*
X0356239Y0136789D01*
X0356181Y0136684D01*
X0356124Y0136532D01*
X0356067Y0136361D01*
X0356029Y0136142D01*
X0356020Y0135894D01*
Y0133200D01*
X0355229D01*
Y0136208D01*
Y0136218D01*
Y0136227D01*
Y0136256D01*
Y0136294D01*
X0355220Y0136389D01*
X0355210Y0136503D01*
X0355182Y0136627D01*
X0355153Y0136760D01*
X0355106Y0136884D01*
X0355039Y0136998D01*
X0355030Y0137008D01*
X0355001Y0137037D01*
X0354953Y0137084D01*
X0354887Y0137132D01*
X0354801Y0137179D01*
X0354696Y0137227D01*
X0354563Y0137256D01*
X0354411Y0137265D01*
X0354354D01*
X0354287Y0137256D01*
X0354211Y0137246D01*
X0354116Y0137217D01*
X0354011Y0137189D01*
X0353897Y0137141D01*
X0353792Y0137084D01*
X0353782Y0137075D01*
X0353744Y0137056D01*
X0353697Y0137008D01*
X0353640Y0136960D01*
X0353573Y0136884D01*
X0353506Y0136799D01*
X0353440Y0136694D01*
X0353383Y0136570D01*
X0353373Y0136551D01*
X0353363Y0136513D01*
X0353344Y0136427D01*
X0353325Y0136323D01*
X0353297Y0136189D01*
X0353278Y0136018D01*
X0353268Y0135828D01*
X0353259Y0135599D01*
Y0133200D01*
X0352469D01*
Y0137846D01*
X0353173D01*
Y0137189D01*
X0353183Y0137208D01*
X0353211Y0137246D01*
X0353259Y0137313D01*
X0353325Y0137389D01*
X0353411Y0137475D01*
X0353506Y0137570D01*
X0353630Y0137655D01*
X0353754Y0137741D01*
X0353773Y0137751D01*
X0353820Y0137770D01*
X0353897Y0137808D01*
X0354001Y0137846D01*
X0354125Y0137884D01*
X0354268Y0137922D01*
X0354420Y0137941D01*
X0354592Y0137951D01*
X0354677D01*
X0354772Y0137941D01*
X0354887Y0137922D01*
X0355020Y0137893D01*
X0355163Y0137855D01*
X0355296Y0137808D01*
X0355429Y0137732D01*
X0355448Y0137722D01*
X0355486Y0137693D01*
X0355544Y0137646D01*
X0355610Y0137579D01*
X0355696Y0137494D01*
X0355772Y0137389D01*
X0355848Y0137265D01*
X0355905Y0137132D01*
X0355915Y0137141D01*
X0355934Y0137170D01*
X0355962Y0137208D01*
X0356010Y0137256D01*
X0356058Y0137322D01*
X0356124Y0137389D01*
X0356201Y0137465D01*
X0356296Y0137541D01*
X0356391Y0137617D01*
X0356496Y0137693D01*
X0356619Y0137760D01*
X0356743Y0137827D01*
X0356886Y0137874D01*
X0357029Y0137912D01*
X0357181Y0137941D01*
X0357343Y0137951D01*
X0357410D01*
X0357457Y0137941D01*
D02*
G37*
G36*
X0365016Y0133200D02*
Y0133191D01*
Y0133181D01*
Y0133124D01*
X0365006Y0133029D01*
X0364997Y0132924D01*
X0364968Y0132791D01*
X0364940Y0132667D01*
X0364892Y0132534D01*
X0364835Y0132410D01*
X0364826Y0132400D01*
X0364807Y0132362D01*
X0364759Y0132305D01*
X0364702Y0132238D01*
X0364626Y0132162D01*
X0364530Y0132077D01*
X0364416Y0132001D01*
X0364283Y0131934D01*
X0364064Y0132267D01*
X0364073Y0132277D01*
X0364102Y0132286D01*
X0364150Y0132315D01*
X0364207Y0132353D01*
X0364264Y0132400D01*
X0364321Y0132457D01*
X0364378Y0132524D01*
X0364426Y0132600D01*
X0364435Y0132610D01*
X0364445Y0132638D01*
X0364464Y0132686D01*
X0364492Y0132753D01*
X0364511Y0132838D01*
X0364530Y0132943D01*
X0364549Y0133067D01*
X0364559Y0133200D01*
X0364121D01*
Y0134095D01*
X0365016D01*
Y0133200D01*
D02*
G37*
%LPC*%
G36*
X0395670Y0137303D02*
X0395613D01*
X0395575Y0137294D01*
X0395480Y0137284D01*
X0395347Y0137256D01*
X0395204Y0137217D01*
X0395052Y0137151D01*
X0394890Y0137056D01*
X0394747Y0136932D01*
X0394728Y0136913D01*
X0394690Y0136865D01*
X0394633Y0136789D01*
X0394566Y0136675D01*
X0394490Y0136541D01*
X0394423Y0136370D01*
X0394376Y0136180D01*
X0394347Y0135970D01*
X0396946D01*
Y0135980D01*
Y0135999D01*
X0396937Y0136027D01*
Y0136065D01*
X0396918Y0136170D01*
X0396889Y0136294D01*
X0396851Y0136437D01*
X0396794Y0136589D01*
X0396727Y0136722D01*
X0396641Y0136846D01*
Y0136856D01*
X0396622Y0136865D01*
X0396575Y0136922D01*
X0396489Y0136989D01*
X0396384Y0137075D01*
X0396242Y0137160D01*
X0396080Y0137236D01*
X0395889Y0137284D01*
X0395785Y0137294D01*
X0395670Y0137303D01*
D02*
G37*
G36*
X0312675Y0138902D02*
X0310647D01*
Y0136779D01*
X0312561D01*
X0312666Y0136789D01*
X0312799Y0136799D01*
X0312942Y0136808D01*
X0313094Y0136827D01*
X0313237Y0136856D01*
X0313370Y0136894D01*
X0313389Y0136903D01*
X0313427Y0136913D01*
X0313484Y0136951D01*
X0313560Y0136989D01*
X0313637Y0137046D01*
X0313722Y0137103D01*
X0313808Y0137189D01*
X0313875Y0137275D01*
X0313884Y0137284D01*
X0313903Y0137322D01*
X0313932Y0137379D01*
X0313960Y0137446D01*
X0313989Y0137532D01*
X0314017Y0137636D01*
X0314036Y0137741D01*
X0314046Y0137855D01*
Y0137865D01*
Y0137874D01*
X0314036Y0137931D01*
X0314027Y0138017D01*
X0314008Y0138122D01*
X0313960Y0138236D01*
X0313903Y0138369D01*
X0313827Y0138493D01*
X0313713Y0138607D01*
X0313694Y0138617D01*
X0313646Y0138655D01*
X0313570Y0138703D01*
X0313456Y0138760D01*
X0313313Y0138807D01*
X0313132Y0138855D01*
X0312923Y0138893D01*
X0312675Y0138902D01*
D02*
G37*
G36*
X0346871Y0138979D02*
X0346823D01*
X0346785Y0138969D01*
X0346680Y0138950D01*
X0346557Y0138921D01*
X0346423Y0138864D01*
X0346281Y0138779D01*
X0346204Y0138731D01*
X0346138Y0138664D01*
X0346071Y0138598D01*
X0346005Y0138512D01*
Y0138503D01*
X0345986Y0138484D01*
X0345967Y0138445D01*
X0345938Y0138398D01*
X0345909Y0138331D01*
X0345881Y0138246D01*
X0345843Y0138141D01*
X0345805Y0138027D01*
X0345767Y0137884D01*
X0345728Y0137732D01*
X0345700Y0137560D01*
X0345671Y0137360D01*
X0345643Y0137141D01*
X0345624Y0136903D01*
X0345614Y0136646D01*
X0345605Y0136361D01*
Y0136342D01*
Y0136294D01*
Y0136208D01*
X0345614Y0136104D01*
Y0135980D01*
X0345624Y0135837D01*
X0345633Y0135675D01*
X0345652Y0135504D01*
X0345690Y0135152D01*
X0345757Y0134809D01*
X0345795Y0134647D01*
X0345843Y0134495D01*
X0345900Y0134371D01*
X0345967Y0134257D01*
Y0134247D01*
X0345986Y0134238D01*
X0346033Y0134181D01*
X0346109Y0134095D01*
X0346223Y0134000D01*
X0346357Y0133905D01*
X0346509Y0133819D01*
X0346690Y0133762D01*
X0346785Y0133752D01*
X0346880Y0133743D01*
X0346937D01*
X0346976Y0133752D01*
X0347071Y0133771D01*
X0347195Y0133809D01*
X0347347Y0133866D01*
X0347499Y0133962D01*
X0347575Y0134019D01*
X0347652Y0134085D01*
X0347728Y0134171D01*
X0347794Y0134257D01*
Y0134266D01*
X0347813Y0134285D01*
X0347832Y0134314D01*
X0347851Y0134361D01*
X0347880Y0134428D01*
X0347909Y0134504D01*
X0347947Y0134599D01*
X0347985Y0134714D01*
X0348013Y0134847D01*
X0348051Y0134999D01*
X0348080Y0135171D01*
X0348109Y0135361D01*
X0348128Y0135580D01*
X0348147Y0135818D01*
X0348166Y0136075D01*
Y0136361D01*
Y0136380D01*
Y0136427D01*
Y0136513D01*
X0348156Y0136618D01*
Y0136741D01*
X0348147Y0136884D01*
X0348137Y0137046D01*
X0348118Y0137208D01*
X0348080Y0137560D01*
X0348013Y0137903D01*
X0347966Y0138065D01*
X0347918Y0138217D01*
X0347861Y0138341D01*
X0347794Y0138455D01*
Y0138465D01*
X0347775Y0138474D01*
X0347728Y0138541D01*
X0347652Y0138617D01*
X0347537Y0138722D01*
X0347404Y0138817D01*
X0347252Y0138893D01*
X0347071Y0138960D01*
X0346976Y0138969D01*
X0346871Y0138979D01*
D02*
G37*
G36*
X0382799Y0137303D02*
X0382638D01*
X0382599Y0137294D01*
X0382485Y0137284D01*
X0382352Y0137246D01*
X0382200Y0137198D01*
X0382028Y0137113D01*
X0381866Y0137008D01*
X0381790Y0136932D01*
X0381714Y0136856D01*
Y0136846D01*
X0381695Y0136837D01*
X0381676Y0136808D01*
X0381657Y0136770D01*
X0381628Y0136722D01*
X0381590Y0136675D01*
X0381562Y0136599D01*
X0381524Y0136522D01*
X0381486Y0136437D01*
X0381457Y0136342D01*
X0381419Y0136227D01*
X0381390Y0136113D01*
X0381371Y0135980D01*
X0381352Y0135837D01*
X0381333Y0135685D01*
Y0135523D01*
Y0135513D01*
Y0135485D01*
Y0135437D01*
X0381343Y0135380D01*
Y0135304D01*
X0381352Y0135218D01*
X0381381Y0135018D01*
X0381429Y0134799D01*
X0381495Y0134580D01*
X0381590Y0134371D01*
X0381647Y0134266D01*
X0381714Y0134181D01*
X0381724D01*
X0381733Y0134161D01*
X0381781Y0134114D01*
X0381866Y0134038D01*
X0381981Y0133962D01*
X0382123Y0133885D01*
X0382295Y0133809D01*
X0382485Y0133762D01*
X0382590Y0133752D01*
X0382695Y0133743D01*
X0382752D01*
X0382790Y0133752D01*
X0382904Y0133762D01*
X0383037Y0133800D01*
X0383190Y0133847D01*
X0383361Y0133923D01*
X0383523Y0134038D01*
X0383599Y0134104D01*
X0383675Y0134181D01*
Y0134190D01*
X0383694Y0134200D01*
X0383713Y0134228D01*
X0383732Y0134266D01*
X0383770Y0134314D01*
X0383799Y0134371D01*
X0383837Y0134438D01*
X0383875Y0134523D01*
X0383904Y0134609D01*
X0383942Y0134714D01*
X0383980Y0134818D01*
X0384008Y0134942D01*
X0384027Y0135075D01*
X0384047Y0135218D01*
X0384066Y0135380D01*
Y0135542D01*
Y0135551D01*
Y0135580D01*
Y0135628D01*
X0384056Y0135685D01*
Y0135761D01*
X0384047Y0135837D01*
X0384018Y0136027D01*
X0383970Y0136246D01*
X0383894Y0136465D01*
X0383799Y0136675D01*
X0383732Y0136770D01*
X0383666Y0136856D01*
Y0136865D01*
X0383647Y0136875D01*
X0383599Y0136922D01*
X0383513Y0136998D01*
X0383399Y0137084D01*
X0383256Y0137160D01*
X0383095Y0137236D01*
X0382904Y0137284D01*
X0382799Y0137303D01*
D02*
G37*
G36*
X0371185Y0138322D02*
X0369167Y0135456D01*
X0371185D01*
Y0138322D01*
D02*
G37*
G36*
X0319120Y0135532D02*
X0319111D01*
X0319101Y0135523D01*
X0319073Y0135513D01*
X0319034Y0135504D01*
X0318996Y0135485D01*
X0318939Y0135466D01*
X0318873Y0135447D01*
X0318796Y0135428D01*
X0318711Y0135399D01*
X0318616Y0135380D01*
X0318501Y0135352D01*
X0318387Y0135333D01*
X0318263Y0135304D01*
X0318130Y0135275D01*
X0317978Y0135256D01*
X0317825Y0135228D01*
X0317806D01*
X0317749Y0135218D01*
X0317664Y0135199D01*
X0317559Y0135180D01*
X0317330Y0135133D01*
X0317226Y0135104D01*
X0317140Y0135075D01*
X0317130D01*
X0317111Y0135056D01*
X0317073Y0135037D01*
X0317026Y0135009D01*
X0316921Y0134933D01*
X0316826Y0134818D01*
Y0134809D01*
X0316807Y0134790D01*
X0316797Y0134752D01*
X0316778Y0134704D01*
X0316740Y0134590D01*
X0316731Y0134523D01*
X0316721Y0134447D01*
Y0134438D01*
Y0134399D01*
X0316731Y0134333D01*
X0316750Y0134266D01*
X0316778Y0134181D01*
X0316826Y0134095D01*
X0316883Y0134009D01*
X0316959Y0133923D01*
X0316969Y0133914D01*
X0317007Y0133895D01*
X0317054Y0133857D01*
X0317140Y0133819D01*
X0317235Y0133781D01*
X0317349Y0133743D01*
X0317492Y0133724D01*
X0317654Y0133714D01*
X0317730D01*
X0317816Y0133724D01*
X0317930Y0133743D01*
X0318054Y0133762D01*
X0318187Y0133790D01*
X0318330Y0133838D01*
X0318463Y0133905D01*
X0318482Y0133914D01*
X0318520Y0133943D01*
X0318587Y0133990D01*
X0318663Y0134047D01*
X0318749Y0134123D01*
X0318844Y0134219D01*
X0318920Y0134333D01*
X0318996Y0134457D01*
X0319006Y0134466D01*
X0319015Y0134504D01*
X0319034Y0134571D01*
X0319063Y0134657D01*
X0319082Y0134761D01*
X0319101Y0134895D01*
X0319111Y0135056D01*
X0319120Y0135237D01*
Y0135532D01*
D02*
G37*
G36*
X0322976Y0137303D02*
X0322833D01*
X0322795Y0137294D01*
X0322700Y0137284D01*
X0322576Y0137246D01*
X0322433Y0137198D01*
X0322290Y0137122D01*
X0322147Y0137008D01*
X0322071Y0136941D01*
X0322005Y0136865D01*
X0321986Y0136846D01*
X0321976Y0136818D01*
X0321948Y0136779D01*
X0321919Y0136741D01*
X0321890Y0136684D01*
X0321862Y0136618D01*
X0321833Y0136532D01*
X0321795Y0136446D01*
X0321767Y0136351D01*
X0321738Y0136237D01*
X0321709Y0136113D01*
X0321681Y0135980D01*
X0321671Y0135837D01*
X0321652Y0135685D01*
Y0135513D01*
Y0135504D01*
Y0135475D01*
Y0135428D01*
X0321662Y0135371D01*
Y0135294D01*
X0321671Y0135209D01*
X0321700Y0135009D01*
X0321748Y0134799D01*
X0321805Y0134571D01*
X0321900Y0134361D01*
X0321957Y0134266D01*
X0322024Y0134181D01*
X0322043Y0134161D01*
X0322090Y0134114D01*
X0322166Y0134038D01*
X0322281Y0133962D01*
X0322405Y0133885D01*
X0322557Y0133809D01*
X0322728Y0133762D01*
X0322814Y0133752D01*
X0322909Y0133743D01*
X0322957D01*
X0322995Y0133752D01*
X0323090Y0133762D01*
X0323214Y0133800D01*
X0323357Y0133847D01*
X0323499Y0133923D01*
X0323652Y0134028D01*
X0323728Y0134085D01*
X0323794Y0134161D01*
Y0134171D01*
X0323813Y0134181D01*
X0323833Y0134209D01*
X0323851Y0134238D01*
X0323880Y0134285D01*
X0323909Y0134342D01*
X0323937Y0134409D01*
X0323975Y0134476D01*
X0324013Y0134561D01*
X0324042Y0134657D01*
X0324071Y0134761D01*
X0324099Y0134885D01*
X0324128Y0135009D01*
X0324137Y0135142D01*
X0324156Y0135294D01*
Y0135447D01*
Y0135456D01*
Y0135485D01*
Y0135542D01*
X0324147Y0135609D01*
Y0135685D01*
X0324137Y0135770D01*
X0324128Y0135875D01*
X0324109Y0135980D01*
X0324071Y0136218D01*
X0324004Y0136446D01*
X0323909Y0136665D01*
X0323851Y0136770D01*
X0323785Y0136856D01*
Y0136865D01*
X0323766Y0136875D01*
X0323718Y0136922D01*
X0323642Y0136998D01*
X0323537Y0137084D01*
X0323404Y0137160D01*
X0323252Y0137236D01*
X0323071Y0137284D01*
X0322976Y0137303D01*
D02*
G37*
%LPD*%
G54D49*
X0126900Y0067551D02*
Y0073549D01*
X0128899Y0071549D01*
X0130899Y0073549D01*
Y0067551D01*
X0136897D02*
X0132898D01*
X0136897Y0071549D01*
Y0072549D01*
X0135897Y0073549D01*
X0133898D01*
X0132898Y0072549D01*
X0144894Y0073549D02*
Y0067551D01*
X0147893D01*
X0148893Y0068550D01*
Y0069550D01*
X0147893Y0070550D01*
X0144894D01*
X0147893D01*
X0148893Y0071549D01*
Y0072549D01*
X0147893Y0073549D01*
X0144894D01*
X0151892Y0067551D02*
X0153891D01*
X0154891Y0068550D01*
Y0070550D01*
X0153891Y0071549D01*
X0151892D01*
X0150892Y0070550D01*
Y0068550D01*
X0151892Y0067551D01*
X0157890Y0071549D02*
X0159889D01*
X0160889Y0070550D01*
Y0067551D01*
X0157890D01*
X0156890Y0068550D01*
X0157890Y0069550D01*
X0160889D01*
X0162888Y0071549D02*
Y0067551D01*
Y0069550D01*
X0163888Y0070550D01*
X0164888Y0071549D01*
X0165887D01*
X0172885Y0073549D02*
Y0067551D01*
X0169886D01*
X0168886Y0068550D01*
Y0070550D01*
X0169886Y0071549D01*
X0172885D01*
X0180883Y0073549D02*
Y0067551D01*
X0183882D01*
X0184881Y0068550D01*
Y0072549D01*
X0183882Y0073549D01*
X0180883D01*
X0186881Y0067551D02*
X0188880D01*
X0187880D01*
Y0071549D01*
X0186881D01*
X0191879Y0067551D02*
Y0071549D01*
X0192879D01*
X0193878Y0070550D01*
Y0067551D01*
Y0070550D01*
X0194878Y0071549D01*
X0195878Y0070550D01*
Y0067551D01*
X0200876D02*
X0198877D01*
X0197877Y0068550D01*
Y0070550D01*
X0198877Y0071549D01*
X0200876D01*
X0201876Y0070550D01*
Y0069550D01*
X0197877D01*
X0203875Y0067551D02*
Y0071549D01*
X0206874D01*
X0207874Y0070550D01*
Y0067551D01*
X0209873D02*
X0212872D01*
X0213872Y0068550D01*
X0212872Y0069550D01*
X0210873D01*
X0209873Y0070550D01*
X0210873Y0071549D01*
X0213872D01*
X0215871Y0067551D02*
X0217871D01*
X0216871D01*
Y0071549D01*
X0215871D01*
X0221869Y0067551D02*
X0223869D01*
X0224868Y0068550D01*
Y0070550D01*
X0223869Y0071549D01*
X0221869D01*
X0220870Y0070550D01*
Y0068550D01*
X0221869Y0067551D01*
X0226868D02*
Y0071549D01*
X0229867D01*
X0230866Y0070550D01*
Y0067551D01*
X0232866D02*
X0235865D01*
X0236864Y0068550D01*
X0235865Y0069550D01*
X0233865D01*
X0232866Y0070550D01*
X0233865Y0071549D01*
X0236864D01*
X0567400Y0087833D02*
Y0093831D01*
X0571399Y0087833D01*
Y0093831D01*
X0574398Y0087833D02*
X0576397D01*
X0577397Y0088833D01*
Y0090832D01*
X0576397Y0091832D01*
X0574398D01*
X0573398Y0090832D01*
Y0088833D01*
X0574398Y0087833D01*
X0580396Y0092832D02*
Y0091832D01*
X0579396D01*
X0581395D01*
X0580396D01*
Y0088833D01*
X0581395Y0087833D01*
X0590393Y0093831D02*
X0592392D01*
X0591392D01*
Y0087833D01*
X0590393D01*
X0592392D01*
X0595391D02*
Y0091832D01*
X0598390D01*
X0599390Y0090832D01*
Y0087833D01*
X0607387Y0093831D02*
Y0089833D01*
X0609386Y0087833D01*
X0611386Y0089833D01*
Y0093831D01*
X0616384Y0087833D02*
X0614385D01*
X0613385Y0088833D01*
Y0090832D01*
X0614385Y0091832D01*
X0616384D01*
X0617384Y0090832D01*
Y0089833D01*
X0613385D01*
X0619383Y0091832D02*
Y0087833D01*
Y0089833D01*
X0620383Y0090832D01*
X0621383Y0091832D01*
X0622382D01*
X0625381Y0087833D02*
X0628380D01*
X0629380Y0088833D01*
X0628380Y0089833D01*
X0626381D01*
X0625381Y0090832D01*
X0626381Y0091832D01*
X0629380D01*
X0631379Y0087833D02*
X0633379D01*
X0632379D01*
Y0091832D01*
X0631379D01*
X0637377Y0087833D02*
X0639377D01*
X0640376Y0088833D01*
Y0090832D01*
X0639377Y0091832D01*
X0637377D01*
X0636378Y0090832D01*
Y0088833D01*
X0637377Y0087833D01*
X0642376D02*
Y0091832D01*
X0645375D01*
X0646374Y0090832D01*
Y0087833D01*
X0652373Y0092832D02*
X0651373Y0093831D01*
X0649373D01*
X0648374Y0092832D01*
Y0088833D01*
X0649373Y0087833D01*
X0651373D01*
X0652373Y0088833D01*
X0655372Y0087833D02*
X0657371D01*
X0658371Y0088833D01*
Y0090832D01*
X0657371Y0091832D01*
X0655372D01*
X0654372Y0090832D01*
Y0088833D01*
X0655372Y0087833D01*
X0660370D02*
Y0091832D01*
X0663369D01*
X0664369Y0090832D01*
Y0087833D01*
X0667368Y0092832D02*
Y0091832D01*
X0666368D01*
X0668367D01*
X0667368D01*
Y0088833D01*
X0668367Y0087833D01*
X0671366Y0091832D02*
Y0087833D01*
Y0089833D01*
X0672366Y0090832D01*
X0673366Y0091832D01*
X0674365D01*
X0678364Y0087833D02*
X0680364D01*
X0681363Y0088833D01*
Y0090832D01*
X0680364Y0091832D01*
X0678364D01*
X0677364Y0090832D01*
Y0088833D01*
X0678364Y0087833D01*
X0683362D02*
X0685362D01*
X0684362D01*
Y0093831D01*
X0683362D01*
X0520799Y0092832D02*
X0519799Y0093831D01*
X0517800D01*
X0516800Y0092832D01*
Y0091832D01*
X0517800Y0090832D01*
X0519799D01*
X0520799Y0089833D01*
Y0088833D01*
X0519799Y0087833D01*
X0517800D01*
X0516800Y0088833D01*
X0522798Y0093831D02*
Y0089833D01*
X0524797Y0087833D01*
X0526797Y0089833D01*
Y0093831D01*
X0528796Y0087833D02*
Y0093831D01*
X0532795Y0087833D01*
Y0093831D01*
X0540792Y0087833D02*
Y0093831D01*
X0543791D01*
X0544791Y0092832D01*
Y0090832D01*
X0543791Y0089833D01*
X0540792D01*
X0542792D02*
X0544791Y0087833D01*
X0550789Y0093831D02*
X0546790D01*
Y0087833D01*
X0550789D01*
X0546790Y0090832D02*
X0548790D01*
X0552788Y0093831D02*
Y0089833D01*
X0554788Y0087833D01*
X0556787Y0089833D01*
Y0093831D01*
X0558786Y0091832D02*
X0559786D01*
Y0090832D01*
X0558786D01*
Y0091832D01*
Y0088833D02*
X0559786D01*
Y0087833D01*
X0558786D01*
Y0088833D01*
X0433000Y0087833D02*
Y0093831D01*
X0435999D01*
X0436999Y0092832D01*
Y0090832D01*
X0435999Y0089833D01*
X0433000D01*
X0434999D02*
X0436999Y0087833D01*
X0442997Y0093831D02*
X0438998D01*
Y0087833D01*
X0442997D01*
X0438998Y0090832D02*
X0440997D01*
X0444996Y0093831D02*
Y0089833D01*
X0446995Y0087833D01*
X0448995Y0089833D01*
Y0093831D01*
X0450994Y0091832D02*
X0451994D01*
Y0090832D01*
X0450994D01*
Y0091832D01*
Y0088833D02*
X0451994D01*
Y0087833D01*
X0450994D01*
Y0088833D01*
X0126900Y0046966D02*
Y0052965D01*
X0128899Y0050965D01*
X0130899Y0052965D01*
Y0046966D01*
X0136897Y0051965D02*
X0135897Y0052965D01*
X0133898D01*
X0132898Y0051965D01*
Y0047966D01*
X0133898Y0046966D01*
X0135897D01*
X0136897Y0047966D01*
X0138896Y0052965D02*
Y0047966D01*
X0139896Y0046966D01*
X0141895D01*
X0142895Y0047966D01*
Y0052965D01*
X0144894Y0051965D02*
X0145894Y0052965D01*
X0147893D01*
X0148893Y0051965D01*
Y0047966D01*
X0147893Y0046966D01*
X0145894D01*
X0144894Y0047966D01*
Y0051965D01*
X0154891Y0046966D02*
X0150892D01*
X0154891Y0050965D01*
Y0051965D01*
X0153891Y0052965D01*
X0151892D01*
X0150892Y0051965D01*
X0160889Y0052965D02*
X0156890D01*
Y0049966D01*
X0158890Y0050965D01*
X0159889D01*
X0160889Y0049966D01*
Y0047966D01*
X0159889Y0046966D01*
X0157890D01*
X0156890Y0047966D01*
X0162888Y0046966D02*
Y0050965D01*
X0164888Y0052965D01*
X0166887Y0050965D01*
Y0046966D01*
Y0049966D01*
X0162888D01*
X0168886Y0046966D02*
Y0047966D01*
X0169886D01*
Y0046966D01*
X0168886D01*
X0177884Y0051965D02*
X0176884Y0052965D01*
X0174884D01*
X0173885Y0051965D01*
Y0047966D01*
X0174884Y0046966D01*
X0176884D01*
X0177884Y0047966D01*
Y0049966D01*
X0175884D01*
X0179883Y0046966D02*
Y0052965D01*
X0181882Y0050965D01*
X0183882Y0052965D01*
Y0046966D01*
X0189880D02*
X0185881D01*
X0189880Y0050965D01*
Y0051965D01*
X0188880Y0052965D01*
X0186881D01*
X0185881Y0051965D01*
X0384149Y0046966D02*
Y0052965D01*
X0381150Y0049966D01*
X0385149D01*
X0387148Y0046966D02*
X0391147Y0050965D01*
X0393146Y0046966D02*
X0395146D01*
X0394146D01*
Y0052965D01*
X0393146Y0051965D01*
X0398145D02*
X0399144Y0052965D01*
X0401144D01*
X0402143Y0051965D01*
Y0050965D01*
X0401144Y0049966D01*
X0400144D01*
X0401144D01*
X0402143Y0048966D01*
Y0047966D01*
X0401144Y0046966D01*
X0399144D01*
X0398145Y0047966D01*
X0404143Y0046966D02*
X0408141Y0050965D01*
X0414139Y0046966D02*
X0410141D01*
X0414139Y0050965D01*
Y0051965D01*
X0413140Y0052965D01*
X0411140D01*
X0410141Y0051965D01*
X0416139D02*
X0417138Y0052965D01*
X0419138D01*
X0420137Y0051965D01*
Y0047966D01*
X0419138Y0046966D01*
X0417138D01*
X0416139Y0047966D01*
Y0051965D01*
X0422137Y0046966D02*
X0424136D01*
X0423136D01*
Y0052965D01*
X0422137Y0051965D01*
X0427135D02*
X0428135Y0052965D01*
X0430134D01*
X0431134Y0051965D01*
Y0050965D01*
X0430134Y0049966D01*
X0431134Y0048966D01*
Y0047966D01*
X0430134Y0046966D01*
X0428135D01*
X0427135Y0047966D01*
Y0048966D01*
X0428135Y0049966D01*
X0427135Y0050965D01*
Y0051965D01*
X0428135Y0049966D02*
X0430134D01*
X0298199Y0051965D02*
X0297199Y0052965D01*
X0295200D01*
X0294200Y0051965D01*
Y0047966D01*
X0295200Y0046966D01*
X0297199D01*
X0298199Y0047966D01*
Y0049966D01*
X0296199D01*
X0304197Y0052965D02*
X0300198D01*
Y0046966D01*
X0304197D01*
X0300198Y0049966D02*
X0302197D01*
X0306196Y0046966D02*
Y0052965D01*
X0310195Y0046966D01*
Y0052965D01*
X0316193D02*
X0312194D01*
Y0046966D01*
X0316193D01*
X0312194Y0049966D02*
X0314194D01*
X0318192Y0046966D02*
Y0052965D01*
X0321191D01*
X0322191Y0051965D01*
Y0049966D01*
X0321191Y0048966D01*
X0318192D01*
X0320192D02*
X0322191Y0046966D01*
X0324190D02*
Y0050965D01*
X0326190Y0052965D01*
X0328189Y0050965D01*
Y0046966D01*
Y0049966D01*
X0324190D01*
X0330188Y0052965D02*
X0334187D01*
X0332188D01*
Y0046966D01*
X0340185Y0052965D02*
X0336186D01*
Y0046966D01*
X0340185D01*
X0336186Y0049966D02*
X0338186D01*
X0342184Y0052965D02*
Y0046966D01*
X0345183D01*
X0346183Y0047966D01*
Y0051965D01*
X0345183Y0052965D01*
X0342184D01*
X0372175Y0050965D02*
X0373175D01*
Y0049966D01*
X0372175D01*
Y0050965D01*
Y0047966D02*
X0373175D01*
Y0046966D01*
X0372175D01*
Y0047966D01*
X0046350Y0087833D02*
Y0091832D01*
X0048349Y0093831D01*
X0050349Y0091832D01*
Y0087833D01*
Y0090832D01*
X0046350D01*
X0052348Y0093831D02*
Y0087833D01*
X0056347D01*
X0058346Y0093831D02*
Y0087833D01*
X0062345D01*
X0070342D02*
Y0091832D01*
X0072342Y0093831D01*
X0074341Y0091832D01*
Y0087833D01*
Y0090832D01*
X0070342D01*
X0076340Y0087833D02*
Y0093831D01*
X0079339D01*
X0080339Y0092832D01*
Y0090832D01*
X0079339Y0089833D01*
X0076340D01*
X0078340D02*
X0080339Y0087833D01*
X0082338Y0093831D02*
X0086337D01*
X0084338D01*
Y0087833D01*
X0088336Y0093831D02*
Y0087833D01*
X0090336Y0089833D01*
X0092335Y0087833D01*
Y0093831D01*
X0097334D02*
X0095334D01*
X0094335Y0092832D01*
Y0088833D01*
X0095334Y0087833D01*
X0097334D01*
X0098333Y0088833D01*
Y0092832D01*
X0097334Y0093831D01*
X0100332Y0087833D02*
Y0093831D01*
X0103332D01*
X0104331Y0092832D01*
Y0090832D01*
X0103332Y0089833D01*
X0100332D01*
X0102332D02*
X0104331Y0087833D01*
X0106331Y0093831D02*
Y0087833D01*
Y0089833D01*
X0110329Y0093831D01*
X0107330Y0090832D01*
X0110329Y0087833D01*
X0118327Y0093831D02*
Y0089833D01*
X0120326Y0087833D01*
X0122325Y0089833D01*
Y0093831D01*
X0124325D02*
X0126324D01*
X0125324D01*
Y0087833D01*
X0124325D01*
X0126324D01*
X0133322Y0093831D02*
X0129323D01*
Y0087833D01*
X0133322D01*
X0129323Y0090832D02*
X0131323D01*
X0135321Y0093831D02*
Y0087833D01*
X0137321Y0089833D01*
X0139320Y0087833D01*
Y0093831D01*
X0145318D02*
X0141319D01*
Y0087833D01*
X0145318D01*
X0141319Y0090832D02*
X0143319D01*
X0147317Y0093831D02*
Y0087833D01*
X0150316D01*
X0151316Y0088833D01*
Y0092832D01*
X0150316Y0093831D01*
X0147317D01*
X0163312D02*
X0159313D01*
Y0090832D01*
X0161313D01*
X0159313D01*
Y0087833D01*
X0165312D02*
Y0093831D01*
X0168310D01*
X0169310Y0092832D01*
Y0090832D01*
X0168310Y0089833D01*
X0165312D01*
X0167311D02*
X0169310Y0087833D01*
X0174309Y0093831D02*
X0172309D01*
X0171310Y0092832D01*
Y0088833D01*
X0172309Y0087833D01*
X0174309D01*
X0175308Y0088833D01*
Y0092832D01*
X0174309Y0093831D01*
X0177308Y0087833D02*
Y0093831D01*
X0179307Y0091832D01*
X0181306Y0093831D01*
Y0087833D01*
X0189304Y0093831D02*
X0193303D01*
X0191303D01*
Y0087833D01*
X0198301Y0093831D02*
X0196301D01*
X0195302Y0092832D01*
Y0088833D01*
X0196301Y0087833D01*
X0198301D01*
X0199301Y0088833D01*
Y0092832D01*
X0198301Y0093831D01*
X0201300Y0087833D02*
Y0093831D01*
X0204299D01*
X0205299Y0092832D01*
Y0090832D01*
X0204299Y0089833D01*
X0201300D01*
X0217295Y0092832D02*
X0216295Y0093831D01*
X0214296D01*
X0213296Y0092832D01*
Y0091832D01*
X0214296Y0090832D01*
X0216295D01*
X0217295Y0089833D01*
Y0088833D01*
X0216295Y0087833D01*
X0214296D01*
X0213296Y0088833D01*
X0219294Y0093831D02*
X0221293D01*
X0220294D01*
Y0087833D01*
X0219294D01*
X0221293D01*
X0224292Y0093831D02*
Y0087833D01*
X0227291D01*
X0228291Y0088833D01*
Y0092832D01*
X0227291Y0093831D01*
X0224292D01*
X0234289D02*
X0230291D01*
Y0087833D01*
X0234289D01*
X0230291Y0090832D02*
X0232290D01*
X0462150Y0087833D02*
Y0091832D01*
X0464149Y0093831D01*
X0466149Y0091832D01*
Y0087833D01*
Y0090832D01*
X0462150D01*
X0348550Y0087833D02*
Y0093831D01*
X0350549Y0091832D01*
X0352549Y0093831D01*
Y0087833D01*
X0358547Y0092832D02*
X0357547Y0093831D01*
X0355548D01*
X0354548Y0092832D01*
Y0088833D01*
X0355548Y0087833D01*
X0357547D01*
X0358547Y0088833D01*
X0360546Y0093831D02*
Y0088833D01*
X0361546Y0087833D01*
X0363545D01*
X0364545Y0088833D01*
Y0093831D01*
X0366544Y0092832D02*
X0367544Y0093831D01*
X0369543D01*
X0370543Y0092832D01*
Y0088833D01*
X0369543Y0087833D01*
X0367544D01*
X0366544Y0088833D01*
Y0092832D01*
X0376541Y0087833D02*
X0372542D01*
X0376541Y0091832D01*
Y0092832D01*
X0375541Y0093831D01*
X0373542D01*
X0372542Y0092832D01*
X0382539Y0093831D02*
X0378540D01*
Y0090832D01*
X0380540Y0091832D01*
X0381539D01*
X0382539Y0090832D01*
Y0088833D01*
X0381539Y0087833D01*
X0379540D01*
X0378540Y0088833D01*
X0294000Y0093831D02*
Y0087833D01*
X0296999D01*
X0297999Y0088833D01*
Y0089833D01*
X0296999Y0090832D01*
X0294000D01*
X0296999D01*
X0297999Y0091832D01*
Y0092832D01*
X0296999Y0093831D01*
X0294000D01*
X0302997D02*
X0300998D01*
X0299998Y0092832D01*
Y0088833D01*
X0300998Y0087833D01*
X0302997D01*
X0303997Y0088833D01*
Y0092832D01*
X0302997Y0093831D01*
X0305996Y0087833D02*
Y0091832D01*
X0307996Y0093831D01*
X0309995Y0091832D01*
Y0087833D01*
Y0090832D01*
X0305996D01*
X0311994Y0087833D02*
Y0093831D01*
X0314993D01*
X0315993Y0092832D01*
Y0090832D01*
X0314993Y0089833D01*
X0311994D01*
X0313994D02*
X0315993Y0087833D01*
X0317992Y0093831D02*
Y0087833D01*
X0320991D01*
X0321991Y0088833D01*
Y0092832D01*
X0320991Y0093831D01*
X0317992D01*
X0330988Y0087833D02*
Y0093831D01*
X0332987D02*
Y0087833D01*
X0329988Y0091832D02*
X0332987D01*
X0333987D01*
X0329988Y0089833D02*
X0333987D01*
X0335986Y0091832D02*
X0336986D01*
Y0090832D01*
X0335986D01*
Y0091832D01*
Y0088833D02*
X0336986D01*
Y0087833D01*
X0335986D01*
Y0088833D01*
X0046350Y0073549D02*
Y0067551D01*
X0050349D01*
X0052348D02*
Y0071549D01*
X0054347Y0073549D01*
X0056347Y0071549D01*
Y0067551D01*
Y0070550D01*
X0052348D01*
X0058346Y0073549D02*
Y0072549D01*
X0060346Y0070550D01*
X0062345Y0072549D01*
Y0073549D01*
X0060346Y0070550D02*
Y0067551D01*
X0068343Y0073549D02*
X0064344D01*
Y0067551D01*
X0068343D01*
X0064344Y0070550D02*
X0066343D01*
X0070342Y0067551D02*
Y0073549D01*
X0073341D01*
X0074341Y0072549D01*
Y0070550D01*
X0073341Y0069550D01*
X0070342D01*
X0072342D02*
X0074341Y0067551D01*
X0082338D02*
Y0073549D01*
X0086337Y0067551D01*
Y0073549D01*
X0088336Y0067551D02*
Y0071549D01*
X0090336Y0073549D01*
X0092335Y0071549D01*
Y0067551D01*
Y0070550D01*
X0088336D01*
X0094335Y0067551D02*
Y0073549D01*
X0096334Y0071549D01*
X0098333Y0073549D01*
Y0067551D01*
X0104331Y0073549D02*
X0100332D01*
Y0067551D01*
X0104331D01*
X0100332Y0070550D02*
X0102332D01*
X0112329Y0069550D02*
X0116327D01*
X0112329Y0071549D02*
X0116327D01*
X0046350Y0046966D02*
Y0052965D01*
X0049349D01*
X0050349Y0051965D01*
Y0049966D01*
X0049349Y0048966D01*
X0046350D01*
X0052348Y0052965D02*
Y0046966D01*
X0056347D01*
X0061345Y0052965D02*
X0059346D01*
X0058346Y0051965D01*
Y0047966D01*
X0059346Y0046966D01*
X0061345D01*
X0062345Y0047966D01*
Y0051965D01*
X0061345Y0052965D01*
X0064344D02*
X0068343D01*
X0066343D01*
Y0046966D01*
X0076340D02*
Y0052965D01*
X0080339Y0046966D01*
Y0052965D01*
X0082338Y0046966D02*
Y0050965D01*
X0084338Y0052965D01*
X0086337Y0050965D01*
Y0046966D01*
Y0049966D01*
X0082338D01*
X0088336Y0046966D02*
Y0052965D01*
X0090336Y0050965D01*
X0092335Y0052965D01*
Y0046966D01*
X0098333Y0052965D02*
X0094335D01*
Y0046966D01*
X0098333D01*
X0094335Y0049966D02*
X0096334D01*
X0106331Y0048966D02*
X0110329D01*
X0106331Y0050965D02*
X0110329D01*
X0454050Y0051965D02*
X0455050Y0052965D01*
X0457049D01*
X0458049Y0051965D01*
Y0050965D01*
X0457049Y0049966D01*
X0458049Y0048966D01*
Y0047966D01*
X0457049Y0046966D01*
X0455050D01*
X0454050Y0047966D01*
Y0048966D01*
X0455050Y0049966D01*
X0454050Y0050965D01*
Y0051965D01*
X0455050Y0049966D02*
X0457049D01*
X0460048Y0050965D02*
X0461048D01*
Y0049966D01*
X0460048D01*
Y0050965D01*
Y0047966D02*
X0461048D01*
Y0046966D01*
X0460048D01*
Y0047966D01*
X0468046Y0046966D02*
Y0052965D01*
X0465046Y0049966D01*
X0469045D01*
X0471044Y0052965D02*
X0475043D01*
Y0051965D01*
X0471044Y0047966D01*
Y0046966D01*
X0477043Y0050965D02*
X0478042D01*
Y0049966D01*
X0477043D01*
Y0050965D01*
Y0047966D02*
X0478042D01*
Y0046966D01*
X0477043D01*
Y0047966D01*
X0482041Y0046966D02*
X0484040D01*
X0483041D01*
Y0052965D01*
X0482041Y0051965D01*
X0487039D02*
X0488039Y0052965D01*
X0490038D01*
X0491038Y0051965D01*
Y0050965D01*
X0490038Y0049966D01*
X0489039D01*
X0490038D01*
X0491038Y0048966D01*
Y0047966D01*
X0490038Y0046966D01*
X0488039D01*
X0487039Y0047966D01*
X0499035Y0046966D02*
Y0050965D01*
X0501035Y0052965D01*
X0503034Y0050965D01*
Y0046966D01*
Y0049966D01*
X0499035D01*
X0505033Y0046966D02*
Y0052965D01*
X0507033Y0050965D01*
X0509032Y0052965D01*
Y0046966D01*
X0580500Y0052965D02*
X0584499D01*
X0582499D01*
Y0046966D01*
X0590497Y0052965D02*
X0586498D01*
Y0046966D01*
X0590497D01*
X0586498Y0049966D02*
X0588497D01*
X0592496Y0052965D02*
X0596495Y0046966D01*
Y0052965D02*
X0592496Y0046966D01*
X0598494D02*
Y0050965D01*
X0600493Y0052965D01*
X0602493Y0050965D01*
Y0046966D01*
Y0049966D01*
X0598494D01*
X0608491Y0051965D02*
X0607491Y0052965D01*
X0605492D01*
X0604492Y0051965D01*
Y0050965D01*
X0605492Y0049966D01*
X0607491D01*
X0608491Y0048966D01*
Y0047966D01*
X0607491Y0046966D01*
X0605492D01*
X0604492Y0047966D01*
X0616488Y0052965D02*
X0618488D01*
X0617488D01*
Y0046966D01*
X0616488D01*
X0618488D01*
X0621487D02*
Y0052965D01*
X0625486Y0046966D01*
Y0052965D01*
X0631484Y0051965D02*
X0630484Y0052965D01*
X0628484D01*
X0627485Y0051965D01*
Y0050965D01*
X0628484Y0049966D01*
X0630484D01*
X0631484Y0048966D01*
Y0047966D01*
X0630484Y0046966D01*
X0628484D01*
X0627485Y0047966D01*
X0633483Y0052965D02*
X0637482D01*
X0635482D01*
Y0046966D01*
X0639481D02*
Y0052965D01*
X0642480D01*
X0643480Y0051965D01*
Y0049966D01*
X0642480Y0048966D01*
X0639481D01*
X0641480D02*
X0643480Y0046966D01*
X0645479Y0052965D02*
Y0047966D01*
X0646479Y0046966D01*
X0648478D01*
X0649478Y0047966D01*
Y0052965D01*
X0651477Y0046966D02*
Y0052965D01*
X0653476Y0050965D01*
X0655476Y0052965D01*
Y0046966D01*
X0661474Y0052965D02*
X0657475D01*
Y0046966D01*
X0661474D01*
X0657475Y0049966D02*
X0659474D01*
X0663473Y0046966D02*
Y0052965D01*
X0667472Y0046966D01*
Y0052965D01*
X0669471D02*
X0673470D01*
X0671471D01*
Y0046966D01*
X0679468Y0051965D02*
X0678468Y0052965D01*
X0676469D01*
X0675469Y0051965D01*
Y0050965D01*
X0676469Y0049966D01*
X0678468D01*
X0679468Y0048966D01*
Y0047966D01*
X0678468Y0046966D01*
X0676469D01*
X0675469Y0047966D01*
X0294000Y0073498D02*
X0297999D01*
X0295999D01*
Y0067500D01*
X0299998Y0073498D02*
X0301997D01*
X0300998D01*
Y0067500D01*
X0299998D01*
X0301997D01*
X0304996Y0073498D02*
Y0067500D01*
X0307996D01*
X0308995Y0068500D01*
Y0072498D01*
X0307996Y0073498D01*
X0304996D01*
X0317992Y0067500D02*
Y0073498D01*
X0319992D02*
Y0067500D01*
X0316993Y0071499D02*
X0319992D01*
X0320991D01*
X0316993Y0069499D02*
X0320991D01*
X0322991Y0071499D02*
X0323990D01*
Y0070499D01*
X0322991D01*
Y0071499D01*
Y0068500D02*
X0323990D01*
Y0067500D01*
X0322991D01*
Y0068500D01*
X0348550Y0067500D02*
Y0073498D01*
X0352549Y0067500D01*
Y0073498D01*
X0354548Y0067500D02*
X0358547Y0071499D01*
X0360546Y0067500D02*
Y0071499D01*
X0362545Y0073498D01*
X0364545Y0071499D01*
Y0067500D01*
Y0070499D01*
X0360546D01*
X0127200Y0067400D02*
Y0073398D01*
X0129199Y0071399D01*
X0131199Y0073398D01*
Y0067400D01*
X0133198D02*
X0135197D01*
X0134198D01*
Y0073398D01*
X0133198Y0072398D01*
X0138196Y0067400D02*
X0140196D01*
X0139196D01*
Y0073398D01*
X0138196Y0072398D01*
X0153192D02*
X0152192Y0073398D01*
X0150193D01*
X0149193Y0072398D01*
Y0068400D01*
X0150193Y0067400D01*
X0152192D01*
X0153192Y0068400D01*
Y0070399D01*
X0151192D01*
X0158190Y0067400D02*
X0156191D01*
X0155191Y0068400D01*
Y0070399D01*
X0156191Y0071399D01*
X0158190D01*
X0159190Y0070399D01*
Y0069399D01*
X0155191D01*
X0161189Y0071399D02*
Y0067400D01*
Y0069399D01*
X0162189Y0070399D01*
X0163188Y0071399D01*
X0164188D01*
X0167187Y0073398D02*
Y0067400D01*
X0170186D01*
X0171186Y0068400D01*
Y0069399D01*
Y0070399D01*
X0170186Y0071399D01*
X0167187D01*
X0176184Y0067400D02*
X0174185D01*
X0173185Y0068400D01*
Y0070399D01*
X0174185Y0071399D01*
X0176184D01*
X0177184Y0070399D01*
Y0069399D01*
X0173185D01*
X0179183Y0071399D02*
Y0067400D01*
Y0069399D01*
X0180183Y0070399D01*
X0181183Y0071399D01*
X0182182D01*
X0191179Y0073398D02*
X0193179D01*
X0192179D01*
Y0067400D01*
X0191179D01*
X0193179D01*
X0196178D02*
Y0071399D01*
X0199177D01*
X0200176Y0070399D01*
Y0067400D01*
X0203175D02*
Y0072398D01*
Y0070399D01*
X0202176D01*
X0204175D01*
X0203175D01*
Y0072398D01*
X0204175Y0073398D01*
X0208174Y0067400D02*
X0210173D01*
X0211173Y0068400D01*
Y0070399D01*
X0210173Y0071399D01*
X0208174D01*
X0207174Y0070399D01*
Y0068400D01*
X0208174Y0067400D01*
X0213172Y0071399D02*
Y0067400D01*
Y0069399D01*
X0214172Y0070399D01*
X0215172Y0071399D01*
X0216171D01*
X0219170Y0067400D02*
Y0071399D01*
X0220170D01*
X0221170Y0070399D01*
Y0067400D01*
Y0070399D01*
X0222169Y0071399D01*
X0223169Y0070399D01*
Y0067400D01*
X0226168Y0071399D02*
X0228167D01*
X0229167Y0070399D01*
Y0067400D01*
X0226168D01*
X0225168Y0068400D01*
X0226168Y0069399D01*
X0229167D01*
X0232166Y0072398D02*
Y0071399D01*
X0231166D01*
X0233166D01*
X0232166D01*
Y0068400D01*
X0233166Y0067400D01*
X0236165D02*
X0238164D01*
X0237164D01*
Y0071399D01*
X0236165D01*
X0242163Y0067400D02*
X0244162D01*
X0245162Y0068400D01*
Y0070399D01*
X0244162Y0071399D01*
X0242163D01*
X0241163Y0070399D01*
Y0068400D01*
X0242163Y0067400D01*
X0247161D02*
Y0071399D01*
X0250160D01*
X0251160Y0070399D01*
Y0067400D01*
G54D50*
X0169200Y0106400D02*
Y0112050D01*
X0069200Y0106400D02*
Y0112050D01*
X0145691Y0107400D02*
X0169200D01*
X0069200D02*
X0089509D01*
X0163200Y0109400D02*
X0169200Y0107400D01*
X0163200Y0105400D02*
X0169200Y0107400D01*
X0069200D02*
X0075200Y0105400D01*
X0069200Y0107400D02*
X0075200Y0109400D01*
X0053200Y0768400D02*
X0069200D01*
X0053200Y0153400D02*
X0069200D01*
X0054200Y0479894D02*
Y0768400D01*
Y0153400D02*
Y0438706D01*
X0052200Y0762400D02*
X0054200Y0768400D01*
X0056200Y0762400D01*
X0054200Y0153400D02*
X0056200Y0159400D01*
X0052200D02*
X0054200Y0153400D01*
X0299200Y0144900D02*
Y0153400D01*
X0069200Y0144900D02*
Y0153400D01*
X0203694Y0145900D02*
X0299200D01*
X0069200D02*
X0161506D01*
X0293200Y0147900D02*
X0299200Y0145900D01*
X0293200Y0143900D02*
X0299200Y0145900D01*
X0069200D02*
X0075200Y0143900D01*
X0069200Y0145900D02*
X0075200Y0147900D01*
X0306210Y0146390D02*
X0308700D01*
X0297736Y0154865D02*
X0306210Y0146390D01*
X0297736Y0154865D02*
X0300564Y0149208D01*
X0297736Y0154865D02*
X0303392Y0152036D01*
X0300121Y0593400D02*
X0307043D01*
X0293200D02*
X0300121D01*
X0293200D02*
X0299200Y0591400D01*
X0293200Y0593400D02*
X0299200Y0595400D01*
X0315333Y0613400D02*
X0319361D01*
X0299200D02*
X0315333D01*
X0299200D02*
X0305200Y0611400D01*
X0299200Y0613400D02*
X0305200Y0615400D01*
X0313001Y0573400D02*
X0314077D01*
X0299200D02*
X0313001D01*
X0299200D02*
X0305200Y0571400D01*
X0299200Y0573400D02*
X0305200Y0575400D01*
X0497200Y0080717D02*
Y0101050D01*
X0413200Y0080717D02*
Y0101050D01*
X0040000Y0080717D02*
X0700200D01*
X0040000Y0060383D02*
X0700000D01*
X0040000Y0040050D02*
X0440500D01*
X0040050Y0101050D02*
X0700200D01*
X0040050Y0040050D02*
Y0101050D01*
Y0040050D02*
X0197600D01*
X0040000D02*
Y0101050D01*
X0286500Y0040050D02*
Y0101050D01*
X0700200Y0040050D02*
Y0101050D01*
X0440500Y0040050D02*
X0700200D01*
X0559400Y0039400D02*
Y0059683D01*
G54D51*
X0091109Y0103801D02*
X0093108D01*
X0092108D01*
Y0109799D01*
X0091109Y0108799D01*
X0096107D02*
X0097107Y0109799D01*
X0099106D01*
X0100106Y0108799D01*
Y0104801D01*
X0099106Y0103801D01*
X0097107D01*
X0096107Y0104801D01*
Y0108799D01*
X0102105D02*
X0103105Y0109799D01*
X0105104D01*
X0106104Y0108799D01*
Y0104801D01*
X0105104Y0103801D01*
X0103105D01*
X0102105Y0104801D01*
Y0108799D01*
X0108103D02*
X0109103Y0109799D01*
X0111102D01*
X0112102Y0108799D01*
Y0104801D01*
X0111102Y0103801D01*
X0109103D01*
X0108103Y0104801D01*
Y0108799D01*
X0114101Y0103801D02*
Y0104801D01*
X0115101D01*
Y0103801D01*
X0114101D01*
X0119099Y0108799D02*
X0120099Y0109799D01*
X0122099D01*
X0123098Y0108799D01*
Y0104801D01*
X0122099Y0103801D01*
X0120099D01*
X0119099Y0104801D01*
Y0108799D01*
X0125098D02*
X0126097Y0109799D01*
X0128097D01*
X0129096Y0108799D01*
Y0104801D01*
X0128097Y0103801D01*
X0126097D01*
X0125098Y0104801D01*
Y0108799D01*
X0131096Y0103801D02*
Y0107800D01*
X0132095D01*
X0133095Y0106800D01*
Y0103801D01*
Y0106800D01*
X0134095Y0107800D01*
X0135094Y0106800D01*
Y0103801D01*
X0137094D02*
X0139093D01*
X0138093D01*
Y0107800D01*
X0137094D01*
X0142092Y0103801D02*
X0144091D01*
X0143092D01*
Y0109799D01*
X0142092D01*
X0051801Y0444305D02*
X0052801Y0442306D01*
X0054800Y0440306D01*
X0056799D01*
X0057799Y0441306D01*
Y0443305D01*
X0056799Y0444305D01*
X0055800D01*
X0054800Y0443305D01*
Y0440306D01*
X0057799Y0446304D02*
Y0448304D01*
Y0447304D01*
X0051801D01*
X0052801Y0446304D01*
X0051801Y0455301D02*
Y0451303D01*
X0054800D01*
X0053800Y0453302D01*
Y0454302D01*
X0054800Y0455301D01*
X0056799D01*
X0057799Y0454302D01*
Y0452302D01*
X0056799Y0451303D01*
X0052801Y0457301D02*
X0051801Y0458300D01*
Y0460300D01*
X0052801Y0461299D01*
X0056799D01*
X0057799Y0460300D01*
Y0458300D01*
X0056799Y0457301D01*
X0052801D01*
X0057799Y0463299D02*
X0056799D01*
Y0464298D01*
X0057799D01*
Y0463299D01*
X0052801Y0468297D02*
X0051801Y0469297D01*
Y0471296D01*
X0052801Y0472296D01*
X0056799D01*
X0057799Y0471296D01*
Y0469297D01*
X0056799Y0468297D01*
X0052801D01*
Y0474295D02*
X0051801Y0475295D01*
Y0477294D01*
X0052801Y0478294D01*
X0056799D01*
X0057799Y0477294D01*
Y0475295D01*
X0056799Y0474295D01*
X0052801D01*
X0167105Y0142301D02*
X0163106D01*
X0167105Y0146300D01*
Y0147299D01*
X0166105Y0148299D01*
X0164106D01*
X0163106Y0147299D01*
X0169104D02*
X0170104Y0148299D01*
X0172103D01*
X0173103Y0147299D01*
Y0146300D01*
X0172103Y0145300D01*
X0171104D01*
X0172103D01*
X0173103Y0144300D01*
Y0143301D01*
X0172103Y0142301D01*
X0170104D01*
X0169104Y0143301D01*
X0175102Y0147299D02*
X0176102Y0148299D01*
X0178101D01*
X0179101Y0147299D01*
Y0143301D01*
X0178101Y0142301D01*
X0176102D01*
X0175102Y0143301D01*
Y0147299D01*
X0181100D02*
X0182100Y0148299D01*
X0184099D01*
X0185099Y0147299D01*
Y0143301D01*
X0184099Y0142301D01*
X0182100D01*
X0181100Y0143301D01*
Y0147299D01*
X0187099Y0142301D02*
Y0143301D01*
X0188098D01*
Y0142301D01*
X0187099D01*
X0192097Y0147299D02*
X0193097Y0148299D01*
X0195096D01*
X0196096Y0147299D01*
Y0143301D01*
X0195096Y0142301D01*
X0193097D01*
X0192097Y0143301D01*
Y0147299D01*
X0198095D02*
X0199095Y0148299D01*
X0201094D01*
X0202094Y0147299D01*
Y0143301D01*
X0201094Y0142301D01*
X0199095D01*
X0198095Y0143301D01*
Y0147299D01*
X0309700Y0142791D02*
Y0148789D01*
X0312699D01*
X0313699Y0147789D01*
Y0145790D01*
X0312699Y0144790D01*
X0309700D01*
X0311699D02*
X0313699Y0142791D01*
X0325695Y0148789D02*
X0321696D01*
Y0145790D01*
X0323695Y0146789D01*
X0324695D01*
X0325695Y0145790D01*
Y0143790D01*
X0324695Y0142791D01*
X0322696D01*
X0321696Y0143790D01*
X0327694Y0147789D02*
X0328694Y0148789D01*
X0330693D01*
X0331693Y0147789D01*
Y0143790D01*
X0330693Y0142791D01*
X0328694D01*
X0327694Y0143790D01*
Y0147789D01*
X0333692Y0142791D02*
Y0143790D01*
X0334692D01*
Y0142791D01*
X0333692D01*
X0338691Y0147789D02*
X0339690Y0148789D01*
X0341690D01*
X0342689Y0147789D01*
Y0143790D01*
X0341690Y0142791D01*
X0339690D01*
X0338691Y0143790D01*
Y0147789D01*
X0344689D02*
X0345688Y0148789D01*
X0347688D01*
X0348687Y0147789D01*
Y0143790D01*
X0347688Y0142791D01*
X0345688D01*
X0344689Y0143790D01*
Y0147789D01*
X0308043Y0589801D02*
Y0595799D01*
X0311042D01*
X0312042Y0594799D01*
Y0592800D01*
X0311042Y0591800D01*
X0308043D01*
X0310042D02*
X0312042Y0589801D01*
X0320039D02*
X0322038D01*
X0321039D01*
Y0595799D01*
X0320039Y0594799D01*
X0325037D02*
X0326037Y0595799D01*
X0328036D01*
X0329036Y0594799D01*
Y0593800D01*
X0328036Y0592800D01*
X0329036Y0591800D01*
Y0590801D01*
X0328036Y0589801D01*
X0326037D01*
X0325037Y0590801D01*
Y0591800D01*
X0326037Y0592800D01*
X0325037Y0593800D01*
Y0594799D01*
X0326037Y0592800D02*
X0328036D01*
X0331035Y0589801D02*
X0333035D01*
X0332035D01*
Y0595799D01*
X0331035Y0594799D01*
X0336034Y0589801D02*
Y0590801D01*
X0337034D01*
Y0589801D01*
X0336034D01*
X0345031Y0595799D02*
X0343032Y0594799D01*
X0341032Y0592800D01*
Y0590801D01*
X0342032Y0589801D01*
X0344031D01*
X0345031Y0590801D01*
Y0591800D01*
X0344031Y0592800D01*
X0341032D01*
X0347030Y0595799D02*
X0351029D01*
Y0594799D01*
X0347030Y0590801D01*
Y0589801D01*
X0320361Y0609801D02*
Y0615799D01*
X0323360D01*
X0324360Y0614799D01*
Y0612800D01*
X0323360Y0611800D01*
X0320361D01*
X0322361D02*
X0324360Y0609801D01*
X0332357D02*
X0334357D01*
X0333357D01*
Y0615799D01*
X0332357Y0614799D01*
X0337356D02*
X0338355Y0615799D01*
X0340355D01*
X0341354Y0614799D01*
Y0613800D01*
X0340355Y0612800D01*
X0341354Y0611800D01*
Y0610801D01*
X0340355Y0609801D01*
X0338355D01*
X0337356Y0610801D01*
Y0611800D01*
X0338355Y0612800D01*
X0337356Y0613800D01*
Y0614799D01*
X0338355Y0612800D02*
X0340355D01*
X0343354Y0609801D02*
X0345353D01*
X0344354D01*
Y0615799D01*
X0343354Y0614799D01*
X0348352Y0609801D02*
Y0610801D01*
X0349352D01*
Y0609801D01*
X0348352D01*
X0357349Y0615799D02*
X0355350Y0614799D01*
X0353351Y0612800D01*
Y0610801D01*
X0354350Y0609801D01*
X0356350D01*
X0357349Y0610801D01*
Y0611800D01*
X0356350Y0612800D01*
X0353351D01*
X0359349Y0615799D02*
X0363347D01*
Y0614799D01*
X0359349Y0610801D01*
Y0609801D01*
X0315077Y0569801D02*
Y0575799D01*
X0318076D01*
X0319076Y0574799D01*
Y0572800D01*
X0318076Y0571800D01*
X0315077D01*
X0317076D02*
X0319076Y0569801D01*
X0327073D02*
X0329072D01*
X0328073D01*
Y0575799D01*
X0327073Y0574799D01*
X0332072D02*
X0333071Y0575799D01*
X0335071D01*
X0336070Y0574799D01*
Y0573800D01*
X0335071Y0572800D01*
X0336070Y0571800D01*
Y0570801D01*
X0335071Y0569801D01*
X0333071D01*
X0332072Y0570801D01*
Y0571800D01*
X0333071Y0572800D01*
X0332072Y0573800D01*
Y0574799D01*
X0333071Y0572800D02*
X0335071D01*
X0338070Y0569801D02*
X0340069D01*
X0339069D01*
Y0575799D01*
X0338070Y0574799D01*
X0343068Y0569801D02*
Y0570801D01*
X0344068D01*
Y0569801D01*
X0343068D01*
X0352065Y0575799D02*
X0350066Y0574799D01*
X0348066Y0572800D01*
Y0570801D01*
X0349066Y0569801D01*
X0351065D01*
X0352065Y0570801D01*
Y0571800D01*
X0351065Y0572800D01*
X0348066D01*
X0354064Y0575799D02*
X0358063D01*
Y0574799D01*
X0354064Y0570801D01*
Y0569801D01*
G54D83*
X0069200Y0138400D02*
X0169200D01*
X0069200Y0113400D02*
X0169200D01*
X0069200Y0125900D02*
X0169200D01*
X0069200Y0113400D02*
Y0138400D01*
X0081700Y0113400D02*
Y0138400D01*
X0094200Y0113400D02*
Y0138400D01*
X0119200Y0113400D02*
Y0138400D01*
X0144200Y0113400D02*
Y0138400D01*
X0169200Y0113400D02*
Y0138400D01*
G54D158*
X0075450Y0132150D02*
D03*
G54D159*
X0100450Y0119650D02*
D03*
M02*
