G04 Layer_Physical_Order=1*
G04 Layer_Color=255*
%FSAX25Y25*%
%MOIN*%
G70*
G01*
G75*
G04:AMPARAMS|DCode=10|XSize=11.81mil|YSize=57.09mil|CornerRadius=0mil|HoleSize=0mil|Usage=FLASHONLY|Rotation=45.000|XOffset=0mil|YOffset=0mil|HoleType=Round|Shape=Round|*
%AMOVALD10*
21,1,0.04528,0.01181,0.00000,0.00000,135.0*
1,1,0.01181,0.01601,-0.01601*
1,1,0.01181,-0.01601,0.01601*
%
%ADD10OVALD10*%

G04:AMPARAMS|DCode=11|XSize=11.81mil|YSize=57.09mil|CornerRadius=0mil|HoleSize=0mil|Usage=FLASHONLY|Rotation=315.000|XOffset=0mil|YOffset=0mil|HoleType=Round|Shape=Round|*
%AMOVALD11*
21,1,0.04528,0.01181,0.00000,0.00000,45.0*
1,1,0.01181,-0.01601,-0.01601*
1,1,0.01181,0.01601,0.01601*
%
%ADD11OVALD11*%

G04:AMPARAMS|DCode=12|XSize=17.72mil|YSize=54.33mil|CornerRadius=1.95mil|HoleSize=0mil|Usage=FLASHONLY|Rotation=0.000|XOffset=0mil|YOffset=0mil|HoleType=Round|Shape=RoundedRectangle|*
%AMROUNDEDRECTD12*
21,1,0.01772,0.05043,0,0,0.0*
21,1,0.01382,0.05433,0,0,0.0*
1,1,0.00390,0.00691,-0.02522*
1,1,0.00390,-0.00691,-0.02522*
1,1,0.00390,-0.00691,0.02522*
1,1,0.00390,0.00691,0.02522*
%
%ADD12ROUNDEDRECTD12*%
G04:AMPARAMS|DCode=13|XSize=54.13mil|YSize=74.8mil|CornerRadius=1.89mil|HoleSize=0mil|Usage=FLASHONLY|Rotation=0.000|XOffset=0mil|YOffset=0mil|HoleType=Round|Shape=RoundedRectangle|*
%AMROUNDEDRECTD13*
21,1,0.05413,0.07101,0,0,0.0*
21,1,0.05034,0.07480,0,0,0.0*
1,1,0.00379,0.02517,-0.03551*
1,1,0.00379,-0.02517,-0.03551*
1,1,0.00379,-0.02517,0.03551*
1,1,0.00379,0.02517,0.03551*
%
%ADD13ROUNDEDRECTD13*%
G04:AMPARAMS|DCode=14|XSize=58.07mil|YSize=82.68mil|CornerRadius=2.03mil|HoleSize=0mil|Usage=FLASHONLY|Rotation=0.000|XOffset=0mil|YOffset=0mil|HoleType=Round|Shape=RoundedRectangle|*
%AMROUNDEDRECTD14*
21,1,0.05807,0.07861,0,0,0.0*
21,1,0.05401,0.08268,0,0,0.0*
1,1,0.00407,0.02700,-0.03931*
1,1,0.00407,-0.02700,-0.03931*
1,1,0.00407,-0.02700,0.03931*
1,1,0.00407,0.02700,0.03931*
%
%ADD14ROUNDEDRECTD14*%
%ADD15O,0.04724X0.01575*%
%ADD16O,0.01772X0.05512*%
G04:AMPARAMS|DCode=17|XSize=23.62mil|YSize=39.37mil|CornerRadius=2.01mil|HoleSize=0mil|Usage=FLASHONLY|Rotation=180.000|XOffset=0mil|YOffset=0mil|HoleType=Round|Shape=RoundedRectangle|*
%AMROUNDEDRECTD17*
21,1,0.02362,0.03535,0,0,180.0*
21,1,0.01961,0.03937,0,0,180.0*
1,1,0.00402,-0.00980,0.01768*
1,1,0.00402,0.00980,0.01768*
1,1,0.00402,0.00980,-0.01768*
1,1,0.00402,-0.00980,-0.01768*
%
%ADD17ROUNDEDRECTD17*%
%ADD18O,0.05512X0.00787*%
%ADD19O,0.00787X0.05512*%
%ADD20R,0.06299X0.03937*%
%ADD21R,0.02992X0.05000*%
%ADD22R,0.03740X0.03937*%
%ADD23R,0.03937X0.03740*%
%ADD24R,0.04724X0.04331*%
%ADD25C,0.03937*%
%ADD26R,0.10630X0.05118*%
%ADD27R,0.02362X0.03150*%
%ADD28R,0.03150X0.02362*%
G04:AMPARAMS|DCode=29|XSize=11.81mil|YSize=23.62mil|CornerRadius=1.95mil|HoleSize=0mil|Usage=FLASHONLY|Rotation=0.000|XOffset=0mil|YOffset=0mil|HoleType=Round|Shape=RoundedRectangle|*
%AMROUNDEDRECTD29*
21,1,0.01181,0.01972,0,0,0.0*
21,1,0.00791,0.02362,0,0,0.0*
1,1,0.00390,0.00396,-0.00986*
1,1,0.00390,-0.00396,-0.00986*
1,1,0.00390,-0.00396,0.00986*
1,1,0.00390,0.00396,0.00986*
%
%ADD29ROUNDEDRECTD29*%
G04:AMPARAMS|DCode=30|XSize=64.96mil|YSize=94.49mil|CornerRadius=1.95mil|HoleSize=0mil|Usage=FLASHONLY|Rotation=270.000|XOffset=0mil|YOffset=0mil|HoleType=Round|Shape=RoundedRectangle|*
%AMROUNDEDRECTD30*
21,1,0.06496,0.09059,0,0,270.0*
21,1,0.06106,0.09449,0,0,270.0*
1,1,0.00390,-0.04530,-0.03053*
1,1,0.00390,-0.04530,0.03053*
1,1,0.00390,0.04530,0.03053*
1,1,0.00390,0.04530,-0.03053*
%
%ADD30ROUNDEDRECTD30*%
%ADD31R,0.06299X0.03937*%
G04:AMPARAMS|DCode=32|XSize=57.09mil|YSize=39.37mil|CornerRadius=1.97mil|HoleSize=0mil|Usage=FLASHONLY|Rotation=270.000|XOffset=0mil|YOffset=0mil|HoleType=Round|Shape=RoundedRectangle|*
%AMROUNDEDRECTD32*
21,1,0.05709,0.03543,0,0,270.0*
21,1,0.05315,0.03937,0,0,270.0*
1,1,0.00394,-0.01772,-0.02657*
1,1,0.00394,-0.01772,0.02657*
1,1,0.00394,0.01772,0.02657*
1,1,0.00394,0.01772,-0.02657*
%
%ADD32ROUNDEDRECTD32*%
G04:AMPARAMS|DCode=33|XSize=35.43mil|YSize=51.18mil|CornerRadius=1.95mil|HoleSize=0mil|Usage=FLASHONLY|Rotation=270.000|XOffset=0mil|YOffset=0mil|HoleType=Round|Shape=RoundedRectangle|*
%AMROUNDEDRECTD33*
21,1,0.03543,0.04728,0,0,270.0*
21,1,0.03154,0.05118,0,0,270.0*
1,1,0.00390,-0.02364,-0.01577*
1,1,0.00390,-0.02364,0.01577*
1,1,0.00390,0.02364,0.01577*
1,1,0.00390,0.02364,-0.01577*
%
%ADD33ROUNDEDRECTD33*%
%ADD34R,0.12598X0.03937*%
%ADD35R,0.04803X0.03602*%
%ADD36R,0.13386X0.06299*%
G04:AMPARAMS|DCode=37|XSize=9.84mil|YSize=21.65mil|CornerRadius=1.97mil|HoleSize=0mil|Usage=FLASHONLY|Rotation=270.000|XOffset=0mil|YOffset=0mil|HoleType=Round|Shape=RoundedRectangle|*
%AMROUNDEDRECTD37*
21,1,0.00984,0.01772,0,0,270.0*
21,1,0.00591,0.02165,0,0,270.0*
1,1,0.00394,-0.00886,-0.00295*
1,1,0.00394,-0.00886,0.00295*
1,1,0.00394,0.00886,0.00295*
1,1,0.00394,0.00886,-0.00295*
%
%ADD37ROUNDEDRECTD37*%
G04:AMPARAMS|DCode=38|XSize=7.87mil|YSize=21.65mil|CornerRadius=1.97mil|HoleSize=0mil|Usage=FLASHONLY|Rotation=270.000|XOffset=0mil|YOffset=0mil|HoleType=Round|Shape=RoundedRectangle|*
%AMROUNDEDRECTD38*
21,1,0.00787,0.01772,0,0,270.0*
21,1,0.00394,0.02165,0,0,270.0*
1,1,0.00394,-0.00886,-0.00197*
1,1,0.00394,-0.00886,0.00197*
1,1,0.00394,0.00886,0.00197*
1,1,0.00394,0.00886,-0.00197*
%
%ADD38ROUNDEDRECTD38*%
%ADD39R,0.02913X0.10984*%
%ADD40R,0.04724X0.05512*%
%ADD41O,0.02165X0.04921*%
%ADD42R,0.04724X0.04724*%
%ADD43R,0.06299X0.04921*%
G04:AMPARAMS|DCode=44|XSize=7.87mil|YSize=11.81mil|CornerRadius=1.97mil|HoleSize=0mil|Usage=FLASHONLY|Rotation=270.000|XOffset=0mil|YOffset=0mil|HoleType=Round|Shape=RoundedRectangle|*
%AMROUNDEDRECTD44*
21,1,0.00787,0.00787,0,0,270.0*
21,1,0.00394,0.01181,0,0,270.0*
1,1,0.00394,-0.00394,-0.00197*
1,1,0.00394,-0.00394,0.00197*
1,1,0.00394,0.00394,0.00197*
1,1,0.00394,0.00394,-0.00197*
%
%ADD44ROUNDEDRECTD44*%
G04:AMPARAMS|DCode=45|XSize=7.87mil|YSize=13.78mil|CornerRadius=1.97mil|HoleSize=0mil|Usage=FLASHONLY|Rotation=270.000|XOffset=0mil|YOffset=0mil|HoleType=Round|Shape=RoundedRectangle|*
%AMROUNDEDRECTD45*
21,1,0.00787,0.00984,0,0,270.0*
21,1,0.00394,0.01378,0,0,270.0*
1,1,0.00394,-0.00492,-0.00197*
1,1,0.00394,-0.00492,0.00197*
1,1,0.00394,0.00492,0.00197*
1,1,0.00394,0.00492,-0.00197*
%
%ADD45ROUNDEDRECTD45*%
G04:AMPARAMS|DCode=46|XSize=25.59mil|YSize=88.58mil|CornerRadius=1.92mil|HoleSize=0mil|Usage=FLASHONLY|Rotation=270.000|XOffset=0mil|YOffset=0mil|HoleType=Round|Shape=RoundedRectangle|*
%AMROUNDEDRECTD46*
21,1,0.02559,0.08474,0,0,270.0*
21,1,0.02175,0.08858,0,0,270.0*
1,1,0.00384,-0.04237,-0.01088*
1,1,0.00384,-0.04237,0.01088*
1,1,0.00384,0.04237,0.01088*
1,1,0.00384,0.04237,-0.01088*
%
%ADD46ROUNDEDRECTD46*%
%ADD47C,0.00500*%
%ADD48C,0.05000*%
%ADD49C,0.00800*%
%ADD50C,0.01000*%
%ADD51C,0.00600*%
%ADD52C,0.02500*%
%ADD53C,0.02000*%
%ADD54C,0.01200*%
%ADD55C,0.06102*%
G04:AMPARAMS|DCode=56|XSize=61.02mil|YSize=61.02mil|CornerRadius=1.83mil|HoleSize=0mil|Usage=FLASHONLY|Rotation=270.000|XOffset=0mil|YOffset=0mil|HoleType=Round|Shape=RoundedRectangle|*
%AMROUNDEDRECTD56*
21,1,0.06102,0.05736,0,0,270.0*
21,1,0.05736,0.06102,0,0,270.0*
1,1,0.00366,-0.02868,-0.02868*
1,1,0.00366,-0.02868,0.02868*
1,1,0.00366,0.02868,0.02868*
1,1,0.00366,0.02868,-0.02868*
%
%ADD56ROUNDEDRECTD56*%
%ADD57C,0.12000*%
G04:AMPARAMS|DCode=58|XSize=82.68mil|YSize=55.12mil|CornerRadius=27.56mil|HoleSize=0mil|Usage=FLASHONLY|Rotation=270.000|XOffset=0mil|YOffset=0mil|HoleType=Round|Shape=RoundedRectangle|*
%AMROUNDEDRECTD58*
21,1,0.08268,0.00000,0,0,270.0*
21,1,0.02756,0.05512,0,0,270.0*
1,1,0.05512,0.00000,-0.01378*
1,1,0.05512,0.00000,0.01378*
1,1,0.05512,0.00000,0.01378*
1,1,0.05512,0.00000,-0.01378*
%
%ADD58ROUNDEDRECTD58*%
%ADD59C,0.03900*%
%ADD60C,0.08000*%
G04:AMPARAMS|DCode=61|XSize=64.96mil|YSize=64.96mil|CornerRadius=1.95mil|HoleSize=0mil|Usage=FLASHONLY|Rotation=180.000|XOffset=0mil|YOffset=0mil|HoleType=Round|Shape=RoundedRectangle|*
%AMROUNDEDRECTD61*
21,1,0.06496,0.06106,0,0,180.0*
21,1,0.06106,0.06496,0,0,180.0*
1,1,0.00390,-0.03053,0.03053*
1,1,0.00390,0.03053,0.03053*
1,1,0.00390,0.03053,-0.03053*
1,1,0.00390,-0.03053,-0.03053*
%
%ADD61ROUNDEDRECTD61*%
%ADD62C,0.06496*%
%ADD63R,0.06496X0.06496*%
G04:AMPARAMS|DCode=64|XSize=64.96mil|YSize=64.96mil|CornerRadius=1.95mil|HoleSize=0mil|Usage=FLASHONLY|Rotation=270.000|XOffset=0mil|YOffset=0mil|HoleType=Round|Shape=RoundedRectangle|*
%AMROUNDEDRECTD64*
21,1,0.06496,0.06106,0,0,270.0*
21,1,0.06106,0.06496,0,0,270.0*
1,1,0.00390,-0.03053,-0.03053*
1,1,0.00390,-0.03053,0.03053*
1,1,0.00390,0.03053,0.03053*
1,1,0.00390,0.03053,-0.03053*
%
%ADD64ROUNDEDRECTD64*%
%ADD65R,0.06496X0.06496*%
%ADD66C,0.02200*%
%ADD67C,0.01968*%
G36*
X0135200Y0632282D02*
X0135200Y0628400D01*
X0137200Y0626400D01*
X0137200Y0616400D01*
X0135881D01*
Y0616762D01*
X0131826D01*
X0131635Y0616666D01*
X0131502Y0616665D01*
X0131370Y0616672D01*
X0131344Y0616663D01*
X0131302Y0616669D01*
X0131103Y0616762D01*
X0128700D01*
X0126263D01*
X0126067Y0616674D01*
X0125970Y0616707D01*
X0125200Y0617388D01*
X0125200Y0620525D01*
X0125699Y0620899D01*
X0126463Y0621419D01*
Y0621419D01*
X0126463Y0621419D01*
X0130612D01*
X0131213Y0621419D01*
X0132088Y0621719D01*
X0132562D01*
Y0623400D01*
Y0625081D01*
X0132088D01*
X0131213Y0625381D01*
X0130915D01*
X0130133Y0626381D01*
X0130137Y0626400D01*
X0129990Y0627141D01*
X0129840Y0627365D01*
X0130114Y0628319D01*
X0130686Y0628559D01*
X0130940Y0628508D01*
Y0630987D01*
X0131940D01*
Y0631987D01*
X0133635D01*
Y0632468D01*
X0134494Y0632891D01*
X0135200Y0632282D01*
D02*
G37*
G36*
X0093365Y0733235D02*
Y0731913D01*
X0093263Y0731400D01*
X0093410Y0730659D01*
X0093830Y0730030D01*
X0094459Y0729610D01*
X0095200Y0729463D01*
X0095941Y0729610D01*
X0096570Y0730030D01*
X0107200Y0719400D01*
X0117638D01*
X0118287Y0719188D01*
X0118519Y0718512D01*
Y0718038D01*
X0121881D01*
Y0718512D01*
X0122113Y0719188D01*
X0122762Y0719400D01*
X0129330D01*
X0129606Y0718819D01*
X0129705Y0718400D01*
X0129610Y0718258D01*
X0129557Y0717988D01*
Y0717900D01*
X0134499D01*
Y0716900D01*
X0135499D01*
Y0715107D01*
X0138200D01*
Y0713693D01*
X0135499D01*
Y0711900D01*
Y0710107D01*
X0138200D01*
Y0708693D01*
X0135499D01*
Y0706900D01*
X0133499D01*
Y0708693D01*
X0130262D01*
X0129992Y0708639D01*
X0129763Y0708487D01*
X0129610Y0708258D01*
X0129557Y0707988D01*
Y0706400D01*
X0108862D01*
Y0710999D01*
X0102538D01*
Y0709257D01*
X0098334D01*
X0097866Y0709164D01*
X0097825Y0709137D01*
X0095219D01*
Y0704988D01*
X0095219Y0704387D01*
X0095519Y0703512D01*
Y0703038D01*
X0098881D01*
Y0703512D01*
X0099181Y0704387D01*
X0099181Y0704988D01*
Y0706326D01*
X0102538D01*
Y0705068D01*
X0104562D01*
X0104945Y0704145D01*
X0103532Y0702732D01*
X0102538D01*
Y0701738D01*
X0094200Y0693400D01*
Y0678400D01*
X0091200Y0675400D01*
X0089948D01*
Y0677400D01*
X0086200D01*
X0082452D01*
Y0675400D01*
X0080200D01*
X0074200Y0681400D01*
Y0714795D01*
X0074519Y0715663D01*
X0075200Y0715663D01*
X0078481D01*
Y0716202D01*
X0080303D01*
X0080529Y0715203D01*
X0079986Y0714584D01*
X0079391Y0714186D01*
X0077540Y0712335D01*
X0077142Y0711740D01*
X0077003Y0711038D01*
Y0708181D01*
X0076463D01*
Y0704219D01*
X0076463D01*
Y0703281D01*
X0076463D01*
Y0699319D01*
X0076463D01*
Y0698381D01*
X0076463D01*
Y0694419D01*
X0080612D01*
X0081213Y0694419D01*
X0082088Y0694719D01*
X0082562D01*
Y0696400D01*
Y0698081D01*
X0082088D01*
X0081213Y0698381D01*
Y0699319D01*
X0082088Y0699619D01*
X0082562D01*
Y0701300D01*
Y0702981D01*
X0082334D01*
X0081477Y0703718D01*
X0081561Y0704219D01*
X0085937D01*
Y0704226D01*
X0086937Y0704658D01*
X0087159Y0704510D01*
X0087900Y0704363D01*
X0088641Y0704510D01*
X0089270Y0704930D01*
X0089690Y0705559D01*
X0089837Y0706300D01*
X0089690Y0707041D01*
X0089270Y0707670D01*
X0089073Y0707802D01*
X0089491Y0708725D01*
X0089523Y0708727D01*
X0090039Y0708624D01*
X0090780Y0708772D01*
X0091408Y0709192D01*
X0091828Y0709820D01*
X0091976Y0710561D01*
X0091828Y0711303D01*
X0091466Y0711845D01*
Y0712888D01*
X0091449Y0712976D01*
Y0713874D01*
X0091371Y0714263D01*
X0091225Y0714481D01*
X0091447Y0714630D01*
X0091667Y0714959D01*
X0091744Y0715347D01*
Y0718322D01*
X0091759Y0718400D01*
X0091744Y0718478D01*
Y0721453D01*
X0091667Y0721841D01*
X0091447Y0722170D01*
X0091225Y0722319D01*
X0091371Y0722537D01*
X0091449Y0722926D01*
Y0723824D01*
X0091466Y0723912D01*
X0091449Y0723999D01*
Y0724898D01*
X0091371Y0725286D01*
X0091151Y0725615D01*
X0091044Y0725688D01*
X0090691Y0726305D01*
X0090533Y0726874D01*
X0090637Y0727400D01*
X0090490Y0728141D01*
X0090070Y0728770D01*
X0089441Y0729190D01*
X0088700Y0729337D01*
X0087959Y0729190D01*
X0087330Y0728770D01*
X0086910Y0728141D01*
X0086763Y0727400D01*
X0086865Y0726888D01*
X0086789Y0726419D01*
X0086485Y0725816D01*
X0085921Y0725650D01*
Y0723912D01*
X0083921D01*
Y0725401D01*
X0083916Y0725399D01*
X0083365D01*
X0083361Y0725401D01*
Y0723912D01*
X0082361D01*
Y0722912D01*
X0081258D01*
X0081282Y0722390D01*
X0080953Y0722170D01*
X0080733Y0721841D01*
X0080656Y0721453D01*
Y0719873D01*
X0079370D01*
X0078481Y0720413D01*
X0078181Y0721288D01*
Y0721762D01*
X0076500D01*
Y0722762D01*
X0075500D01*
Y0724837D01*
X0075200D01*
X0074819Y0724837D01*
X0074200Y0725581D01*
Y0727400D01*
X0080200Y0733400D01*
X0093200D01*
X0093365Y0733235D01*
D02*
G37*
G36*
X0126838Y0645719D02*
X0127312D01*
X0127988Y0645487D01*
X0128200Y0644838D01*
Y0640400D01*
X0125200Y0637400D01*
X0121332D01*
X0120999Y0638262D01*
X0120999D01*
Y0639731D01*
X0114200D01*
Y0641731D01*
X0120999D01*
Y0642075D01*
X0121117Y0642243D01*
X0121964Y0642786D01*
X0122765Y0642291D01*
Y0640046D01*
X0122819Y0639772D01*
X0122974Y0639540D01*
X0123206Y0639386D01*
X0123460Y0639335D01*
Y0641813D01*
X0124460D01*
Y0642813D01*
X0126155D01*
Y0643581D01*
X0126100Y0643855D01*
X0125945Y0644086D01*
X0125714Y0644241D01*
X0125440Y0644296D01*
X0124679D01*
X0124434Y0644724D01*
X0124838Y0645414D01*
Y0647400D01*
X0126838D01*
Y0645719D01*
D02*
G37*
G36*
X0126719Y0615387D02*
X0127019Y0614512D01*
Y0614038D01*
X0128700D01*
Y0613038D01*
D01*
Y0614038D01*
X0130381D01*
Y0614512D01*
X0130681Y0615387D01*
X0131486Y0615865D01*
X0132219Y0615387D01*
X0132519Y0614487D01*
Y0614038D01*
X0134200D01*
Y0613038D01*
X0135200D01*
Y0609963D01*
Y0606400D01*
X0124200D01*
X0111200Y0593400D01*
X0099200D01*
X0097200Y0595400D01*
Y0611400D01*
X0101700Y0615900D01*
X0125854D01*
X0126719Y0615387D01*
D02*
G37*
G36*
X0125200Y0635400D02*
Y0633469D01*
X0123479D01*
X0123206Y0633414D01*
X0122974Y0633260D01*
X0122819Y0633028D01*
X0122765Y0632754D01*
Y0631987D01*
X0124460D01*
Y0629987D01*
X0122765D01*
Y0629219D01*
X0122819Y0628945D01*
X0122974Y0628714D01*
X0123206Y0628559D01*
X0123479Y0628504D01*
X0125200D01*
X0125200Y0622499D01*
X0125102Y0622441D01*
X0124391Y0622847D01*
X0122200D01*
Y0621546D01*
X0123252D01*
X0123730Y0621546D01*
X0123740Y0621539D01*
X0123926Y0621392D01*
X0124196Y0621038D01*
X0124232Y0620975D01*
X0124403Y0620671D01*
X0124392Y0620640D01*
X0124396Y0620582D01*
X0124384Y0620525D01*
Y0620324D01*
X0123461Y0619400D01*
X0116170Y0619400D01*
X0115315Y0619750D01*
Y0626468D01*
X0108132D01*
X0106200Y0628400D01*
X0106200Y0636400D01*
X0124200D01*
X0125200Y0635400D01*
D02*
G37*
%LPC*%
G36*
X0127700Y0619837D02*
X0127019D01*
Y0618762D01*
X0127700D01*
Y0619837D01*
D02*
G37*
G36*
X0135637Y0622400D02*
X0134562D01*
Y0621719D01*
X0135637D01*
Y0622400D01*
D02*
G37*
G36*
X0130381Y0619837D02*
X0129700D01*
Y0618762D01*
X0130381D01*
Y0619837D01*
D02*
G37*
G36*
X0133200D02*
X0132519D01*
Y0618762D01*
X0133200D01*
Y0619837D01*
D02*
G37*
G36*
X0135881D02*
X0135200D01*
Y0618762D01*
X0135881D01*
Y0619837D01*
D02*
G37*
G36*
X0134562Y0625081D02*
Y0624400D01*
X0135637D01*
Y0625081D01*
X0134562D01*
D02*
G37*
G36*
X0133635Y0629987D02*
X0132940D01*
Y0628508D01*
X0133194Y0628559D01*
X0133426Y0628714D01*
X0133581Y0628945D01*
X0133635Y0629219D01*
Y0629987D01*
D02*
G37*
G36*
X0084562Y0702981D02*
Y0702300D01*
X0085637D01*
Y0702981D01*
X0084562D01*
D02*
G37*
G36*
X0133499Y0710900D02*
X0129557D01*
Y0710812D01*
X0129610Y0710542D01*
X0129763Y0710314D01*
X0129992Y0710161D01*
X0130262Y0710107D01*
X0133499D01*
Y0710900D01*
D02*
G37*
G36*
X0098881Y0701038D02*
X0098200D01*
Y0699963D01*
X0098881D01*
Y0701038D01*
D02*
G37*
G36*
X0085637Y0700300D02*
X0084562D01*
Y0699619D01*
X0085637D01*
Y0700300D01*
D02*
G37*
G36*
X0096200Y0701038D02*
X0095519D01*
Y0699963D01*
X0096200D01*
Y0701038D01*
D02*
G37*
G36*
X0133499Y0713693D02*
X0130262D01*
X0129992Y0713639D01*
X0129763Y0713486D01*
X0129610Y0713258D01*
X0129557Y0712988D01*
Y0712900D01*
X0133499D01*
Y0713693D01*
D02*
G37*
G36*
X0077500Y0724837D02*
Y0723762D01*
X0078181D01*
Y0724837D01*
X0077500D01*
D02*
G37*
G36*
X0081361Y0725244D02*
X0081311Y0725169D01*
X0081260Y0724912D01*
X0081361D01*
Y0725244D01*
D02*
G37*
G36*
X0133499Y0715900D02*
X0129557D01*
Y0715812D01*
X0129610Y0715542D01*
X0129763Y0715314D01*
X0129992Y0715161D01*
X0130262Y0715107D01*
X0133499D01*
Y0715900D01*
D02*
G37*
G36*
X0119200Y0716038D02*
X0118519D01*
Y0714963D01*
X0119200D01*
Y0716038D01*
D02*
G37*
G36*
X0121881D02*
X0121200D01*
Y0714963D01*
X0121881D01*
Y0716038D01*
D02*
G37*
G36*
X0084562Y0698081D02*
Y0697400D01*
X0085637D01*
Y0698081D01*
X0084562D01*
D02*
G37*
G36*
X0089948Y0682148D02*
X0087200D01*
Y0679400D01*
X0089948D01*
Y0682148D01*
D02*
G37*
G36*
X0085637Y0695400D02*
X0084562D01*
Y0694719D01*
X0085637D01*
Y0695400D01*
D02*
G37*
G36*
X0085200Y0682148D02*
X0082452D01*
Y0679400D01*
X0085200D01*
Y0682148D01*
D02*
G37*
G36*
X0126155Y0640813D02*
X0125460D01*
Y0639335D01*
X0125714Y0639386D01*
X0125945Y0639540D01*
X0126100Y0639772D01*
X0126155Y0640046D01*
Y0640813D01*
D02*
G37*
G36*
X0124102Y0613254D02*
X0122200D01*
Y0611953D01*
X0124102D01*
Y0613254D01*
D02*
G37*
G36*
X0108200Y0614750D02*
X0103385D01*
Y0612691D01*
X0108200D01*
Y0614750D01*
D02*
G37*
G36*
X0115015D02*
X0110200D01*
Y0612691D01*
X0115015D01*
Y0614750D01*
D02*
G37*
G36*
X0105200Y0602043D02*
Y0599400D01*
X0107843D01*
X0107474Y0600290D01*
X0106873Y0601073D01*
X0106090Y0601674D01*
X0105200Y0602043D01*
D02*
G37*
G36*
X0108200Y0610691D02*
X0103385D01*
Y0608632D01*
X0108200D01*
Y0610691D01*
D02*
G37*
G36*
X0115015D02*
X0110200D01*
Y0608632D01*
X0115015D01*
Y0610691D01*
D02*
G37*
G36*
X0103200Y0597400D02*
X0100557D01*
X0100926Y0596510D01*
X0101527Y0595727D01*
X0102310Y0595126D01*
X0103200Y0594757D01*
Y0597400D01*
D02*
G37*
G36*
X0107843D02*
X0105200D01*
Y0594757D01*
X0106090Y0595126D01*
X0106873Y0595727D01*
X0107474Y0596510D01*
X0107843Y0597400D01*
D02*
G37*
G36*
X0103200Y0602043D02*
X0102310Y0601674D01*
X0101527Y0601073D01*
X0100926Y0600290D01*
X0100557Y0599400D01*
X0103200D01*
Y0602043D01*
D02*
G37*
G36*
X0130381Y0612038D02*
X0129700D01*
Y0610963D01*
X0130381D01*
Y0612038D01*
D02*
G37*
G36*
X0133200D02*
X0132519D01*
Y0610963D01*
X0133200D01*
Y0612038D01*
D02*
G37*
G36*
X0120200Y0613254D02*
X0118298D01*
Y0611953D01*
X0120200D01*
Y0613254D01*
D02*
G37*
G36*
Y0609953D02*
X0118298D01*
Y0608652D01*
X0120200D01*
Y0609953D01*
D02*
G37*
G36*
X0124102D02*
X0122200D01*
Y0608652D01*
X0124102D01*
Y0609953D01*
D02*
G37*
G36*
X0127700Y0612038D02*
X0127019D01*
Y0610963D01*
X0127700D01*
Y0612038D01*
D02*
G37*
G36*
X0120200Y0622847D02*
X0118298D01*
Y0621546D01*
X0120200D01*
Y0622847D01*
D02*
G37*
G36*
X0113200Y0631069D02*
X0107401D01*
Y0629601D01*
X0113200D01*
Y0631069D01*
D02*
G37*
G36*
X0120999D02*
X0115200D01*
Y0629601D01*
X0120999D01*
Y0631069D01*
D02*
G37*
G36*
X0120200Y0626148D02*
X0118298D01*
Y0624847D01*
X0120200D01*
Y0626148D01*
D02*
G37*
G36*
X0124102D02*
X0122200D01*
Y0624847D01*
X0124102D01*
Y0626148D01*
D02*
G37*
G36*
X0113200Y0634538D02*
X0107401D01*
Y0633069D01*
X0113200D01*
Y0634538D01*
D02*
G37*
G36*
X0120999D02*
X0115200D01*
Y0633069D01*
X0120999D01*
Y0634538D01*
D02*
G37*
%LPD*%
G54D10*
X0179398Y0460609D02*
D03*
X0178006Y0459217D02*
D03*
X0176614Y0457825D02*
D03*
X0175222Y0456433D02*
D03*
X0173830Y0455041D02*
D03*
X0172438Y0453649D02*
D03*
X0171046Y0452257D02*
D03*
X0169654Y0450865D02*
D03*
X0168262Y0449473D02*
D03*
X0166870Y0448081D02*
D03*
X0165478Y0446689D02*
D03*
X0164086Y0445297D02*
D03*
X0162695Y0443905D02*
D03*
X0161302Y0442514D02*
D03*
X0159911Y0441122D02*
D03*
X0158519Y0439730D02*
D03*
X0157127Y0438338D02*
D03*
X0155735Y0436946D02*
D03*
X0154343Y0435554D02*
D03*
X0152951Y0434162D02*
D03*
X0151559Y0432770D02*
D03*
X0150167Y0431378D02*
D03*
X0148775Y0429986D02*
D03*
X0147383Y0428594D02*
D03*
X0145991Y0427202D02*
D03*
X0189002Y0384191D02*
D03*
X0190394Y0385583D02*
D03*
X0191786Y0386975D02*
D03*
X0193178Y0388367D02*
D03*
X0194570Y0389759D02*
D03*
X0195962Y0391151D02*
D03*
X0197354Y0392543D02*
D03*
X0198746Y0393935D02*
D03*
X0200138Y0395327D02*
D03*
X0201530Y0396719D02*
D03*
X0202922Y0398111D02*
D03*
X0204314Y0399503D02*
D03*
X0205705Y0400894D02*
D03*
X0207098Y0402286D02*
D03*
X0208489Y0403678D02*
D03*
X0209881Y0405070D02*
D03*
X0211273Y0406462D02*
D03*
X0212665Y0407854D02*
D03*
X0214057Y0409246D02*
D03*
X0215449Y0410638D02*
D03*
X0216841Y0412030D02*
D03*
X0218233Y0413422D02*
D03*
X0219625Y0414814D02*
D03*
X0221017Y0416206D02*
D03*
X0222409Y0417598D02*
D03*
G54D11*
X0145991D02*
D03*
X0147383Y0416206D02*
D03*
X0148775Y0414814D02*
D03*
X0150167Y0413422D02*
D03*
X0151559Y0412030D02*
D03*
X0152951Y0410638D02*
D03*
X0154343Y0409246D02*
D03*
X0155735Y0407854D02*
D03*
X0157127Y0406462D02*
D03*
X0158519Y0405070D02*
D03*
X0159911Y0403678D02*
D03*
X0161303Y0402286D02*
D03*
X0162695Y0400894D02*
D03*
X0164086Y0399503D02*
D03*
X0165478Y0398111D02*
D03*
X0166870Y0396719D02*
D03*
X0168262Y0395327D02*
D03*
X0169654Y0393935D02*
D03*
X0171046Y0392543D02*
D03*
X0172438Y0391151D02*
D03*
X0173830Y0389759D02*
D03*
X0175222Y0388367D02*
D03*
X0176614Y0386975D02*
D03*
X0178006Y0385583D02*
D03*
X0179398Y0384191D02*
D03*
X0222409Y0427202D02*
D03*
X0221017Y0428594D02*
D03*
X0219625Y0429986D02*
D03*
X0218233Y0431378D02*
D03*
X0216841Y0432770D02*
D03*
X0215449Y0434162D02*
D03*
X0214057Y0435554D02*
D03*
X0212665Y0436946D02*
D03*
X0211273Y0438338D02*
D03*
X0209881Y0439730D02*
D03*
X0208489Y0441122D02*
D03*
X0207098Y0442514D02*
D03*
X0205705Y0443905D02*
D03*
X0204314Y0445297D02*
D03*
X0202922Y0446689D02*
D03*
X0201530Y0448081D02*
D03*
X0200138Y0449473D02*
D03*
X0198746Y0450865D02*
D03*
X0197354Y0452257D02*
D03*
X0195962Y0453649D02*
D03*
X0194570Y0455041D02*
D03*
X0193178Y0456433D02*
D03*
X0191786Y0457825D02*
D03*
X0190394Y0459217D02*
D03*
X0189002Y0460609D02*
D03*
G54D12*
X0118818Y0748219D02*
D03*
X0116259Y0748219D02*
D03*
X0113700Y0748219D02*
D03*
X0111141Y0748219D02*
D03*
X0108582Y0748219D02*
D03*
G54D13*
X0117391Y0758691D02*
D03*
X0110009D02*
D03*
G54D14*
X0123395Y0749636D02*
D03*
X0104005D02*
D03*
G54D15*
X0158979Y0293357D02*
D03*
Y0290798D02*
D03*
Y0288239D02*
D03*
Y0285680D02*
D03*
Y0283120D02*
D03*
Y0280561D02*
D03*
Y0278002D02*
D03*
Y0275443D02*
D03*
X0181421Y0293357D02*
D03*
Y0290798D02*
D03*
Y0288239D02*
D03*
Y0285680D02*
D03*
Y0283120D02*
D03*
Y0280561D02*
D03*
Y0278002D02*
D03*
Y0275443D02*
D03*
X0196979Y0293357D02*
D03*
Y0290798D02*
D03*
Y0288239D02*
D03*
Y0285680D02*
D03*
Y0283120D02*
D03*
Y0280561D02*
D03*
Y0278002D02*
D03*
Y0275443D02*
D03*
X0219421Y0293357D02*
D03*
Y0290798D02*
D03*
Y0288239D02*
D03*
Y0285680D02*
D03*
Y0283120D02*
D03*
Y0280561D02*
D03*
Y0278002D02*
D03*
Y0275443D02*
D03*
G54D16*
X0184243Y0232786D02*
D03*
X0186802D02*
D03*
X0189361D02*
D03*
X0191920D02*
D03*
X0194480D02*
D03*
X0197039D02*
D03*
X0199598D02*
D03*
X0202157D02*
D03*
X0184243Y0256014D02*
D03*
X0186802D02*
D03*
X0189361D02*
D03*
X0191920D02*
D03*
X0194480D02*
D03*
X0197039D02*
D03*
X0199598D02*
D03*
X0202157D02*
D03*
G54D17*
X0279460Y0635813D02*
D03*
X0283200D02*
D03*
X0286940D02*
D03*
Y0624987D02*
D03*
X0283200D02*
D03*
X0279460D02*
D03*
X0223460Y0574987D02*
D03*
X0227200D02*
D03*
X0230940D02*
D03*
Y0585813D02*
D03*
X0227200D02*
D03*
X0223460D02*
D03*
X0124460Y0641813D02*
D03*
X0131940D02*
D03*
Y0630987D02*
D03*
X0128200D02*
D03*
X0124460D02*
D03*
G54D18*
X0198885Y0725809D02*
D03*
Y0724235D02*
D03*
Y0722660D02*
D03*
Y0721085D02*
D03*
Y0719510D02*
D03*
Y0717935D02*
D03*
Y0716361D02*
D03*
Y0714786D02*
D03*
Y0713211D02*
D03*
Y0711636D02*
D03*
Y0710061D02*
D03*
Y0708487D02*
D03*
Y0706912D02*
D03*
Y0705337D02*
D03*
Y0703762D02*
D03*
Y0702187D02*
D03*
Y0700613D02*
D03*
Y0699038D02*
D03*
Y0697463D02*
D03*
Y0695888D02*
D03*
Y0694313D02*
D03*
Y0692739D02*
D03*
Y0691164D02*
D03*
Y0689589D02*
D03*
Y0688014D02*
D03*
Y0686439D02*
D03*
Y0684865D02*
D03*
Y0683290D02*
D03*
Y0681715D02*
D03*
Y0680140D02*
D03*
Y0678565D02*
D03*
Y0676991D02*
D03*
X0259515D02*
D03*
Y0678565D02*
D03*
Y0680140D02*
D03*
Y0681715D02*
D03*
Y0683290D02*
D03*
Y0684865D02*
D03*
Y0686439D02*
D03*
Y0688014D02*
D03*
Y0689589D02*
D03*
Y0691164D02*
D03*
Y0692739D02*
D03*
Y0694313D02*
D03*
Y0695888D02*
D03*
Y0697463D02*
D03*
Y0699038D02*
D03*
Y0700613D02*
D03*
Y0702187D02*
D03*
Y0703762D02*
D03*
Y0705337D02*
D03*
Y0706912D02*
D03*
Y0708487D02*
D03*
Y0710061D02*
D03*
Y0711636D02*
D03*
Y0713211D02*
D03*
Y0714786D02*
D03*
Y0716361D02*
D03*
Y0717935D02*
D03*
Y0719510D02*
D03*
Y0721085D02*
D03*
Y0722660D02*
D03*
Y0724235D02*
D03*
Y0725809D02*
D03*
G54D19*
X0204791Y0671085D02*
D03*
X0206365D02*
D03*
X0207940D02*
D03*
X0209515D02*
D03*
X0211090D02*
D03*
X0212665D02*
D03*
X0214239D02*
D03*
X0215814D02*
D03*
X0217389D02*
D03*
X0218964D02*
D03*
X0220539D02*
D03*
X0222113D02*
D03*
X0223688D02*
D03*
X0225263D02*
D03*
X0226838D02*
D03*
X0228413D02*
D03*
X0229987D02*
D03*
X0231562D02*
D03*
X0233137D02*
D03*
X0234712D02*
D03*
X0236287D02*
D03*
X0237861D02*
D03*
X0239436D02*
D03*
X0241011D02*
D03*
X0242586D02*
D03*
X0244161D02*
D03*
X0245735D02*
D03*
X0247310D02*
D03*
X0248885D02*
D03*
X0250460D02*
D03*
X0252035D02*
D03*
X0253609D02*
D03*
Y0731715D02*
D03*
X0252035D02*
D03*
X0250460D02*
D03*
X0248885D02*
D03*
X0247310D02*
D03*
X0245735D02*
D03*
X0244161D02*
D03*
X0242586D02*
D03*
X0241011D02*
D03*
X0239436D02*
D03*
X0237861D02*
D03*
X0236287D02*
D03*
X0234712D02*
D03*
X0233137D02*
D03*
X0231562D02*
D03*
X0229987D02*
D03*
X0228413D02*
D03*
X0226838D02*
D03*
X0225263D02*
D03*
X0223688D02*
D03*
X0222113D02*
D03*
X0220539D02*
D03*
X0218964D02*
D03*
X0217389D02*
D03*
X0215814D02*
D03*
X0214239D02*
D03*
X0212665D02*
D03*
X0211090D02*
D03*
X0209515D02*
D03*
X0207940D02*
D03*
X0206365D02*
D03*
X0204791D02*
D03*
G54D20*
X0155917Y0239510D02*
D03*
Y0246400D02*
D03*
Y0253290D02*
D03*
X0170484D02*
D03*
Y0246400D02*
D03*
Y0239510D02*
D03*
G54D21*
X0194700Y0309400D02*
D03*
X0189700D02*
D03*
Y0339400D02*
D03*
X0194700D02*
D03*
G54D22*
X0153200Y0363250D02*
D03*
Y0369550D02*
D03*
X0122200Y0384250D02*
D03*
Y0390550D02*
D03*
X0145200Y0481250D02*
D03*
Y0487550D02*
D03*
X0283700Y0368550D02*
D03*
Y0362250D02*
D03*
X0237100Y0568250D02*
D03*
Y0574550D02*
D03*
X0217200Y0568250D02*
D03*
Y0574550D02*
D03*
X0162200Y0362250D02*
D03*
Y0368550D02*
D03*
X0145700Y0267550D02*
D03*
Y0261250D02*
D03*
X0136200Y0492250D02*
D03*
Y0498550D02*
D03*
X0095200Y0742550D02*
D03*
Y0736250D02*
D03*
X0105200Y0407550D02*
D03*
Y0401250D02*
D03*
X0169200Y0362550D02*
D03*
Y0356250D02*
D03*
G54D23*
X0244550Y0196400D02*
D03*
X0250850D02*
D03*
X0130350Y0249400D02*
D03*
X0124050D02*
D03*
X0274550Y0397900D02*
D03*
X0280850D02*
D03*
X0135050Y0239900D02*
D03*
X0141350D02*
D03*
X0140350Y0509400D02*
D03*
X0134050D02*
D03*
X0232050Y0405000D02*
D03*
X0238350D02*
D03*
X0232050Y0411800D02*
D03*
X0238350D02*
D03*
X0276050Y0642400D02*
D03*
X0282350D02*
D03*
X0122050Y0740400D02*
D03*
X0128350D02*
D03*
X0135350Y0423400D02*
D03*
X0129050D02*
D03*
G54D24*
X0163700Y0670534D02*
D03*
Y0662266D02*
D03*
X0105700Y0708034D02*
D03*
Y0699766D02*
D03*
X0222137Y0594250D02*
D03*
Y0602518D02*
D03*
G54D25*
X0081200Y0743400D02*
D03*
X0094200Y0164400D02*
D03*
X0274200D02*
D03*
G54D26*
X0109200Y0611691D02*
D03*
Y0623109D02*
D03*
G54D27*
X0097200Y0702038D02*
D03*
Y0706762D02*
D03*
X0239137Y0596022D02*
D03*
Y0600746D02*
D03*
X0214137Y0596022D02*
D03*
Y0600746D02*
D03*
X0171700Y0664038D02*
D03*
Y0668762D02*
D03*
X0125200Y0722038D02*
D03*
Y0726762D02*
D03*
X0120200Y0721762D02*
D03*
Y0717038D02*
D03*
X0076500Y0722762D02*
D03*
Y0718038D02*
D03*
X0187200Y0721762D02*
D03*
Y0717038D02*
D03*
X0263200Y0751762D02*
D03*
Y0747038D02*
D03*
X0206700Y0754762D02*
D03*
Y0750038D02*
D03*
X0185700Y0754762D02*
D03*
Y0750038D02*
D03*
X0135200Y0743038D02*
D03*
Y0747762D02*
D03*
X0237200Y0581038D02*
D03*
Y0585762D02*
D03*
X0217200Y0581038D02*
D03*
Y0585762D02*
D03*
X0203200Y0478762D02*
D03*
Y0474038D02*
D03*
X0134200Y0617762D02*
D03*
Y0613038D02*
D03*
X0140200Y0747762D02*
D03*
Y0743038D02*
D03*
X0115200Y0726762D02*
D03*
Y0722038D02*
D03*
X0288200Y0646762D02*
D03*
Y0642038D02*
D03*
X0198200Y0474038D02*
D03*
Y0478762D02*
D03*
X0128700Y0613038D02*
D03*
Y0617762D02*
D03*
X0217200Y0639762D02*
D03*
Y0635038D02*
D03*
X0182200Y0722038D02*
D03*
Y0726762D02*
D03*
X0241200Y0231262D02*
D03*
Y0226538D02*
D03*
X0215200D02*
D03*
Y0231262D02*
D03*
G54D28*
X0267838Y0654400D02*
D03*
X0272562D02*
D03*
X0118838Y0696400D02*
D03*
X0123562D02*
D03*
X0118838Y0702400D02*
D03*
X0123562D02*
D03*
X0083562Y0706200D02*
D03*
X0078838D02*
D03*
X0083562Y0701300D02*
D03*
X0078838D02*
D03*
Y0696400D02*
D03*
X0083562D02*
D03*
X0263838Y0742400D02*
D03*
X0268562D02*
D03*
X0191338Y0193400D02*
D03*
X0196062D02*
D03*
X0202838D02*
D03*
X0207562D02*
D03*
X0214338D02*
D03*
X0219062D02*
D03*
X0270562Y0620400D02*
D03*
X0265838D02*
D03*
X0128838Y0623400D02*
D03*
X0133562D02*
D03*
X0265838Y0625400D02*
D03*
X0270562D02*
D03*
X0130562Y0647400D02*
D03*
X0125838D02*
D03*
X0180838Y0696400D02*
D03*
X0185562D02*
D03*
X0180838Y0702400D02*
D03*
X0185562D02*
D03*
X0191338Y0199400D02*
D03*
X0196062D02*
D03*
X0202838D02*
D03*
X0207562D02*
D03*
X0214338D02*
D03*
X0219062D02*
D03*
X0273062Y0635900D02*
D03*
X0268338D02*
D03*
X0265838Y0615400D02*
D03*
X0270562D02*
D03*
X0281838Y0618400D02*
D03*
X0286562D02*
D03*
X0119562Y0647400D02*
D03*
X0114838D02*
D03*
X0245562Y0664400D02*
D03*
X0240838D02*
D03*
X0131838Y0199400D02*
D03*
X0136562D02*
D03*
X0131838Y0193400D02*
D03*
X0136562D02*
D03*
X0142838D02*
D03*
X0147562D02*
D03*
X0142838Y0199400D02*
D03*
X0147562D02*
D03*
X0153838Y0193400D02*
D03*
X0158562D02*
D03*
X0230562Y0253900D02*
D03*
X0225838D02*
D03*
X0153838Y0199400D02*
D03*
X0158562D02*
D03*
X0267838Y0659400D02*
D03*
X0272562D02*
D03*
X0267838Y0664400D02*
D03*
X0272562D02*
D03*
X0267838Y0669400D02*
D03*
X0272562D02*
D03*
G54D29*
X0090039Y0723912D02*
D03*
X0087480D02*
D03*
X0084921D02*
D03*
X0082361D02*
D03*
Y0712888D02*
D03*
X0084921D02*
D03*
X0087480D02*
D03*
X0090039D02*
D03*
X0212200Y0653959D02*
D03*
Y0648841D02*
D03*
G54D30*
X0086200Y0718400D02*
D03*
G54D31*
X0233917Y0289290D02*
D03*
Y0282400D02*
D03*
Y0275510D02*
D03*
X0248483D02*
D03*
Y0282400D02*
D03*
Y0289290D02*
D03*
X0189483Y0567010D02*
D03*
Y0573900D02*
D03*
Y0580790D02*
D03*
X0174917D02*
D03*
Y0573900D02*
D03*
Y0567010D02*
D03*
X0175417Y0548790D02*
D03*
Y0541900D02*
D03*
Y0535010D02*
D03*
X0189983D02*
D03*
Y0541900D02*
D03*
Y0548790D02*
D03*
X0161917Y0331290D02*
D03*
Y0324400D02*
D03*
Y0317510D02*
D03*
X0176483D02*
D03*
Y0324400D02*
D03*
Y0331290D02*
D03*
G54D32*
X0291531Y0580113D02*
D03*
X0291531Y0606687D02*
D03*
G54D33*
X0284444Y0585132D02*
D03*
Y0601668D02*
D03*
G54D34*
X0114200Y0632069D02*
D03*
Y0640731D02*
D03*
G54D35*
X0121200Y0623847D02*
D03*
Y0610953D02*
D03*
G54D36*
X0134200Y0681274D02*
D03*
Y0665526D02*
D03*
G54D37*
X0209543Y0649431D02*
D03*
Y0653368D02*
D03*
X0214857D02*
D03*
Y0649431D02*
D03*
G54D38*
X0209543Y0651400D02*
D03*
X0214857D02*
D03*
G54D39*
X0224200Y0626888D02*
D03*
X0229200D02*
D03*
X0234200D02*
D03*
X0239200D02*
D03*
X0224200Y0642912D02*
D03*
X0229200D02*
D03*
X0234200D02*
D03*
X0239200D02*
D03*
X0244200Y0626888D02*
D03*
Y0642912D02*
D03*
G54D40*
X0276350Y0710069D02*
D03*
Y0718731D02*
D03*
X0270050Y0710069D02*
D03*
Y0718731D02*
D03*
G54D41*
X0220700Y0225565D02*
D03*
X0225700D02*
D03*
X0230700D02*
D03*
X0235700D02*
D03*
X0220700Y0246235D02*
D03*
X0225700D02*
D03*
X0230700D02*
D03*
X0235700D02*
D03*
G54D42*
X0200200Y0748266D02*
D03*
Y0756534D02*
D03*
X0231200Y0602134D02*
D03*
Y0593866D02*
D03*
X0192200Y0748266D02*
D03*
Y0756534D02*
D03*
G54D43*
X0220038Y0394024D02*
D03*
X0234605D02*
D03*
Y0385362D02*
D03*
X0220038D02*
D03*
G54D44*
X0111519Y0735931D02*
D03*
Y0737900D02*
D03*
Y0739868D02*
D03*
X0113881D02*
D03*
Y0737900D02*
D03*
G54D45*
X0113783Y0735931D02*
D03*
G54D46*
X0134499Y0726900D02*
D03*
Y0721900D02*
D03*
Y0716900D02*
D03*
Y0711900D02*
D03*
Y0706900D02*
D03*
Y0701900D02*
D03*
Y0696900D02*
D03*
Y0691900D02*
D03*
X0171901Y0726900D02*
D03*
Y0721900D02*
D03*
Y0716900D02*
D03*
Y0711900D02*
D03*
Y0706900D02*
D03*
Y0701900D02*
D03*
Y0696900D02*
D03*
Y0691900D02*
D03*
G54D47*
X0274700Y0397900D02*
Y0398400D01*
Y0388900D02*
Y0397900D01*
X0265489Y0407611D02*
X0266200Y0406900D01*
X0262415Y0404538D02*
X0265489Y0407611D01*
X0260294Y0406660D02*
X0262415Y0404538D01*
X0260294Y0406660D02*
X0263367Y0409733D01*
X0266441Y0412806D01*
X0264319Y0414927D02*
X0266441Y0412806D01*
X0261246Y0411854D02*
X0264319Y0414927D01*
X0258173Y0408781D02*
X0261246Y0411854D01*
X0256051Y0410902D02*
X0258173Y0408781D01*
X0256051Y0410902D02*
X0259125Y0413975D01*
X0262198Y0417049D01*
X0260076Y0419170D02*
X0262198Y0417049D01*
X0257003Y0416097D02*
X0260076Y0419170D01*
X0253930Y0413024D02*
X0257003Y0416097D01*
X0251809Y0415145D02*
X0253930Y0413024D01*
X0251809Y0415145D02*
X0254882Y0418218D01*
X0257955Y0421291D01*
X0255834Y0423413D02*
X0257955Y0421291D01*
X0252761Y0420339D02*
X0255834Y0423413D01*
X0251700Y0421400D02*
X0252761Y0420339D01*
X0254700Y0565400D02*
X0261200D01*
X0264200Y0568400D01*
X0086644Y0583400D02*
X0150200D01*
X0184810Y0548790D01*
X0189983D01*
X0174700Y0566900D02*
X0176200Y0565400D01*
Y0562400D02*
Y0565400D01*
X0189700Y0564900D02*
Y0567400D01*
X0187200Y0562400D02*
X0189700Y0564900D01*
X0237200Y0567400D02*
X0238200Y0568400D01*
X0237200Y0560900D02*
Y0567400D01*
X0230700Y0554400D02*
X0237200Y0560900D01*
X0230200Y0554400D02*
X0230700D01*
X0241200Y0558400D02*
X0264200D01*
X0195700Y0538900D02*
Y0574400D01*
X0087200Y0582400D02*
X0143200D01*
X0175417Y0550183D01*
Y0548790D02*
Y0550183D01*
X0174064Y0580400D02*
X0175200D01*
X0171064Y0577400D02*
X0174064Y0580400D01*
X0171050Y0577414D02*
X0171064Y0577400D01*
X0171027Y0538909D02*
X0171050Y0538886D01*
X0171027Y0538909D02*
Y0539400D01*
X0175417Y0535010D01*
X0189200Y0580900D02*
X0195700Y0574400D01*
X0191810Y0535010D02*
X0195700Y0538900D01*
X0189983Y0535010D02*
X0191810D01*
X0174917Y0573900D02*
X0181700D01*
X0184200Y0578900D02*
X0189700Y0573400D01*
X0184200Y0578900D02*
Y0608400D01*
X0188200Y0541900D02*
X0189700D01*
X0185700Y0539400D02*
X0188200Y0541900D01*
X0175700D02*
X0176700D01*
X0180200Y0538400D01*
X0167200Y0511400D02*
Y0549400D01*
X0169200Y0512400D02*
Y0551400D01*
X0221700Y0620400D02*
X0238200D01*
X0206200Y0635900D02*
X0221700Y0620400D01*
X0206200Y0635900D02*
Y0651400D01*
X0234200Y0626900D02*
Y0634900D01*
X0244200Y0626400D02*
X0248200Y0630400D01*
X0239200Y0626888D02*
Y0626900D01*
Y0621400D02*
Y0626888D01*
X0238200Y0620400D02*
X0239200Y0621400D01*
X0229200Y0626888D02*
Y0632400D01*
Y0626400D02*
Y0626888D01*
X0228200Y0633400D02*
X0229200Y0632400D01*
X0225700Y0633400D02*
X0228200D01*
X0220700Y0638400D02*
X0225700Y0633400D01*
X0220700Y0638400D02*
Y0652400D01*
X0219732Y0653368D02*
X0220700Y0652400D01*
X0214857Y0653368D02*
X0219732D01*
X0217200Y0639900D02*
X0224200Y0632900D01*
X0217200Y0639900D02*
X0218200Y0640900D01*
Y0651400D01*
X0214857D02*
X0218200D01*
X0224200Y0628400D02*
Y0632900D01*
Y0627400D02*
Y0628400D01*
X0224062Y0628262D02*
X0224200Y0628400D01*
X0078100Y0574856D02*
X0086644Y0583400D01*
X0079200Y0574400D02*
X0087200Y0582400D01*
X0182200Y0251400D02*
X0201200D01*
X0175200Y0258400D02*
X0182200Y0251400D01*
X0170200Y0258400D02*
X0175200D01*
X0191920Y0256014D02*
Y0264680D01*
X0191200Y0265400D02*
X0191920Y0264680D01*
X0191200Y0265400D02*
Y0270400D01*
X0197200Y0256400D02*
Y0268400D01*
X0187598Y0278002D02*
X0197200Y0268400D01*
X0181420Y0278002D02*
X0187598D01*
X0228600Y0429000D02*
X0243200Y0414400D01*
X0224207Y0429000D02*
X0228600D01*
X0222409Y0427202D02*
X0224207Y0429000D01*
X0249200Y0421400D02*
X0251700D01*
X0230700Y0439900D02*
X0249200Y0421400D01*
X0176500Y0283100D02*
X0181600D01*
X0170200Y0289400D02*
X0176500Y0283100D01*
X0170200Y0289400D02*
Y0298834D01*
X0204200Y0291900D02*
Y0326400D01*
X0213200Y0282900D02*
X0219700D01*
X0204200Y0291900D02*
X0213200Y0282900D01*
X0197200Y0277900D02*
X0200700D01*
X0202200Y0279400D01*
Y0329900D01*
X0199700Y0301400D02*
Y0337900D01*
X0197200Y0280400D02*
X0199700D01*
X0200700Y0281400D01*
Y0300400D01*
X0199700Y0301400D02*
X0200700Y0300400D01*
X0209200Y0258400D02*
X0224200D01*
X0193700Y0273900D02*
X0209200Y0258400D01*
X0193700Y0273900D02*
Y0282400D01*
X0194420Y0283120D01*
X0196980D01*
Y0290680D02*
X0197200Y0290900D01*
X0196980Y0288239D02*
Y0290680D01*
X0193598Y0290798D02*
X0196980D01*
Y0291180D02*
Y0293357D01*
X0192700Y0289900D02*
X0193598Y0290798D01*
X0189700Y0284400D02*
Y0295900D01*
X0185700Y0280400D02*
X0189700Y0284400D01*
X0181700Y0280400D02*
X0185700D01*
X0163302Y0278002D02*
X0163700Y0278400D01*
X0166200Y0286400D02*
Y0287400D01*
X0168200Y0323400D02*
X0176090Y0331290D01*
X0168200Y0283900D02*
Y0323400D01*
X0164700Y0280400D02*
X0168200Y0283900D01*
X0158980Y0278002D02*
X0163302D01*
X0166200Y0287400D02*
Y0327006D01*
X0159200Y0280400D02*
X0164700D01*
X0157700Y0285900D02*
X0158700D01*
X0155700Y0283900D02*
X0157700Y0285900D01*
X0155700Y0272900D02*
Y0283900D01*
Y0272900D02*
X0170200Y0258400D01*
X0154700Y0285900D02*
X0157020Y0288220D01*
X0154700Y0258400D02*
Y0285900D01*
X0151200Y0254900D02*
X0154700Y0258400D01*
X0157020Y0288220D02*
X0158980D01*
Y0288239D02*
Y0290798D01*
Y0288220D02*
Y0288239D01*
Y0290798D02*
Y0293357D01*
X0159000Y0283200D02*
X0163000D01*
X0163200Y0283400D01*
X0189700Y0295900D02*
X0198200Y0304400D01*
X0088200Y0288400D02*
X0094200D01*
X0078100Y0298500D02*
X0088200Y0288400D01*
X0078100Y0298500D02*
Y0574856D01*
X0089200Y0298400D02*
X0094200D01*
X0079200Y0308400D02*
X0089200Y0298400D01*
X0079200Y0308400D02*
Y0574400D01*
X0151200Y0249900D02*
X0155200Y0245900D01*
X0151200Y0249900D02*
Y0254900D01*
X0170200Y0245900D02*
X0173200D01*
X0175700Y0248400D01*
X0246500Y0327100D02*
X0248200Y0325400D01*
X0246500Y0327100D02*
Y0417100D01*
X0245400Y0312700D02*
Y0416200D01*
X0244300Y0307300D02*
Y0415189D01*
X0245400Y0312700D02*
X0246700Y0311400D01*
X0256700Y0283400D02*
Y0294900D01*
X0244300Y0307300D02*
X0256700Y0294900D01*
X0254200Y0274900D02*
X0256200Y0272900D01*
X0254200Y0274900D02*
Y0291400D01*
X0235700Y0246235D02*
Y0263400D01*
Y0245900D02*
Y0246235D01*
X0241700Y0269400D02*
Y0287400D01*
X0235700Y0263400D02*
X0241700Y0269400D01*
X0220600Y0246100D02*
Y0254800D01*
X0222200Y0256400D01*
X0225200D01*
X0238200Y0269400D01*
X0262200Y0233400D02*
X0269200D01*
X0259200Y0236400D02*
X0262200Y0233400D01*
X0259200Y0236400D02*
Y0339400D01*
X0269200Y0233400D02*
X0274200Y0228400D01*
X0260200D02*
X0264200D01*
X0252200Y0236400D02*
X0260200Y0228400D01*
X0289200Y0289400D02*
Y0513400D01*
X0274200Y0278400D02*
X0278200D01*
X0289200Y0289400D01*
X0265200D02*
X0269200Y0293400D01*
X0281200D01*
X0287200Y0299400D01*
X0265200D02*
X0269200Y0303400D01*
X0277200D01*
X0283700Y0309900D01*
X0254200Y0178400D02*
Y0186900D01*
X0230700Y0220400D02*
Y0225565D01*
X0225700Y0221900D02*
Y0225565D01*
X0283700Y0309900D02*
Y0362250D01*
X0287200Y0299400D02*
Y0388900D01*
X0252200Y0236400D02*
Y0271794D01*
X0131700Y0186900D02*
Y0199400D01*
X0131838Y0199262D01*
X0131700Y0199400D02*
Y0214900D01*
X0134200Y0178400D02*
Y0184400D01*
X0131700Y0186900D02*
X0134200Y0184400D01*
X0142700Y0186400D02*
Y0199400D01*
X0142838Y0199262D01*
X0142700Y0214900D02*
X0152200Y0224400D01*
X0142700Y0199400D02*
Y0214900D01*
X0144200Y0178400D02*
Y0184900D01*
X0142700Y0186400D02*
X0144200Y0184900D01*
X0153700Y0178900D02*
X0154200Y0178400D01*
X0153700Y0213900D02*
X0162200Y0222400D01*
X0153700Y0199538D02*
Y0213900D01*
Y0178900D02*
Y0199538D01*
X0191338Y0188762D02*
Y0193400D01*
X0191200D02*
Y0212400D01*
X0202700Y0193400D02*
X0202838Y0193538D01*
X0202700Y0188400D02*
Y0193400D01*
X0202838Y0199400D02*
Y0212762D01*
Y0193538D02*
Y0199400D01*
X0214338Y0178038D02*
Y0193400D01*
X0213700Y0199900D02*
X0214338Y0199262D01*
X0213700Y0199900D02*
Y0212900D01*
X0214338Y0193400D02*
Y0199262D01*
X0191338Y0188762D02*
X0194200Y0185900D01*
X0266200Y0406900D02*
X0274700Y0398400D01*
X0230700Y0439900D02*
Y0447400D01*
X0274200Y0388400D02*
X0274700Y0388900D01*
X0245200Y0554400D02*
X0270200D01*
X0244200Y0553400D02*
X0245200Y0554400D01*
X0224039Y0280561D02*
X0224200Y0280400D01*
X0219420Y0280561D02*
X0224039D01*
X0243200Y0302400D02*
Y0414400D01*
X0217200Y0559400D02*
X0228200Y0548400D01*
X0256200D02*
X0264200D01*
X0255200Y0547400D02*
X0256200Y0548400D01*
X0249200Y0349400D02*
Y0358400D01*
X0252200Y0528400D02*
X0264200D01*
X0250200Y0526400D02*
X0252200Y0528400D01*
X0250200Y0524400D02*
Y0526400D01*
X0268200Y0522400D02*
X0274200Y0528400D01*
X0229200Y0522400D02*
X0268200D01*
X0225200Y0518400D02*
X0229200Y0522400D01*
X0195962Y0391151D02*
X0200200Y0386913D01*
X0185961Y0384639D02*
X0194200Y0376400D01*
Y0373400D02*
Y0376400D01*
Y0373400D02*
X0197200Y0370400D01*
X0183700Y0384900D02*
X0192200Y0376400D01*
Y0368400D02*
Y0376400D01*
X0239865Y0225565D02*
X0241200Y0226900D01*
X0239865Y0225565D02*
X0241200Y0226900D01*
X0239865Y0225565D02*
X0241200Y0226900D01*
X0239865Y0225565D02*
X0241200Y0226900D01*
X0239865Y0225565D02*
X0241200Y0226900D01*
X0194700Y0215900D02*
Y0232400D01*
X0191200Y0212400D02*
X0194700Y0215900D01*
X0197200Y0218400D02*
X0202838Y0212762D01*
X0197200Y0218400D02*
Y0232400D01*
X0202157Y0224443D02*
X0213700Y0212900D01*
X0202157Y0224443D02*
Y0232786D01*
X0186802Y0229002D02*
Y0232786D01*
X0184200Y0226400D02*
X0186802Y0229002D01*
X0143200Y0226400D02*
X0184200D01*
X0153838Y0193400D02*
X0154200Y0193038D01*
X0201200Y0251400D02*
X0202200Y0252400D01*
X0151200Y0524400D02*
X0187200Y0488400D01*
X0199200Y0338400D02*
X0199700Y0337900D01*
X0190200Y0398400D02*
X0195200Y0403400D01*
X0190200Y0391400D02*
Y0398400D01*
X0188745Y0389945D02*
X0190200Y0391400D01*
X0191200Y0397400D02*
X0196200Y0402400D01*
X0191200Y0390400D02*
Y0397400D01*
Y0390400D02*
X0193178Y0388422D01*
X0192700Y0396900D02*
X0197200Y0401400D01*
X0192700Y0391629D02*
Y0396900D01*
Y0391629D02*
X0194570Y0389759D01*
X0198200Y0410400D02*
X0203200Y0415400D01*
X0201100Y0417500D02*
Y0417800D01*
Y0417500D02*
X0201200Y0417400D01*
X0198200Y0399400D02*
Y0410400D01*
Y0416400D02*
Y0422400D01*
X0195200Y0403400D02*
Y0417400D01*
X0181420Y0285680D02*
X0186920D01*
X0187200Y0285400D01*
X0186800Y0256800D02*
Y0261100D01*
Y0256800D02*
X0187200Y0256400D01*
X0209200Y0662400D02*
X0209515Y0662715D01*
Y0671085D01*
X0207940Y0664140D02*
Y0671085D01*
X0206200Y0662400D02*
X0207940Y0664140D01*
X0206365Y0664565D02*
Y0671085D01*
X0194200Y0652400D02*
X0206365Y0664565D01*
X0230700Y0538400D02*
X0264200D01*
X0248200Y0488400D02*
X0264200D01*
X0246200Y0470400D02*
X0265200D01*
X0265700Y0470900D01*
X0187700Y0388400D02*
Y0445387D01*
X0185961Y0386661D02*
X0187700Y0388400D01*
X0185961Y0386400D02*
Y0386661D01*
X0169200Y0512400D02*
X0193200Y0488400D01*
X0277700Y0395400D02*
Y0404400D01*
X0220700Y0461400D02*
X0277700Y0404400D01*
X0198200Y0461400D02*
X0220700D01*
X0280850Y0395250D02*
X0287200Y0388900D01*
X0280850Y0395250D02*
Y0397900D01*
X0274700Y0368400D02*
X0274850Y0368550D01*
X0283700D01*
Y0368900D02*
Y0389400D01*
X0277700Y0395400D02*
X0283700Y0389400D01*
X0176200Y0318400D02*
X0177200Y0317400D01*
X0170200Y0318400D02*
X0176200D01*
X0161917Y0331290D02*
X0166200Y0327006D01*
X0157200Y0333400D02*
X0162200Y0338400D01*
X0157200Y0329400D02*
Y0333400D01*
Y0329400D02*
X0162200Y0324400D01*
Y0338400D02*
X0172200D01*
X0182200Y0330117D02*
Y0345400D01*
X0176483Y0324400D02*
X0182200Y0330117D01*
X0176090Y0331290D02*
X0176483D01*
X0182200Y0345400D02*
X0208200Y0371400D01*
X0172200Y0338400D02*
X0206200Y0372400D01*
X0186200Y0357400D02*
Y0379400D01*
X0185961Y0384639D02*
Y0386389D01*
X0204200Y0326400D02*
X0204200Y0328400D01*
X0204200Y0326400D02*
X0204200Y0326400D01*
X0198200Y0304400D02*
Y0336175D01*
X0197200Y0337175D02*
Y0354400D01*
Y0337175D02*
X0198200Y0336175D01*
X0197200Y0354400D02*
X0212200Y0369400D01*
X0189200Y0307400D02*
X0190200Y0308400D01*
X0189200Y0309400D02*
X0190200Y0308400D01*
X0195200Y0356400D02*
X0210200Y0371400D01*
X0206200Y0372400D02*
Y0394832D01*
X0230200Y0433400D02*
X0246500Y0417100D01*
X0238200Y0370400D02*
Y0374400D01*
X0229200Y0361400D02*
X0238200Y0370400D01*
X0192793Y0380400D02*
X0195200D01*
X0189002Y0384191D02*
X0192793Y0380400D01*
X0195361Y0383400D02*
X0196200D01*
X0191786Y0386975D02*
X0195361Y0383400D01*
X0196200Y0402400D02*
Y0414400D01*
X0188745Y0387232D02*
Y0389945D01*
Y0387232D02*
X0190394Y0385583D01*
X0193178Y0388367D02*
Y0388422D01*
X0195348Y0396548D02*
X0198200Y0399400D01*
X0199200Y0404400D02*
X0200200Y0405400D01*
X0199200Y0399048D02*
Y0404400D01*
Y0399048D02*
X0201530Y0396719D01*
X0205768Y0406400D02*
Y0406832D01*
X0205632D02*
X0205768D01*
X0197200Y0460400D02*
X0198200Y0461400D01*
X0208200Y0449184D02*
Y0449400D01*
X0204314Y0445298D02*
X0208200Y0449184D01*
Y0449400D02*
X0210074Y0451274D01*
X0207200Y0450968D02*
Y0451400D01*
X0185200Y0224400D02*
X0189361Y0228561D01*
X0279200Y0533400D02*
Y0581400D01*
X0278200Y0582400D02*
X0279200Y0581400D01*
X0278200Y0582400D02*
Y0601400D01*
X0277932Y0601668D02*
X0284444D01*
X0265838Y0613762D02*
X0277932Y0601668D01*
X0265838Y0613762D02*
Y0615400D01*
X0198200Y0478400D02*
X0204200D01*
X0192050Y0472250D02*
X0198200Y0478400D01*
X0204200D02*
X0207200Y0481400D01*
Y0487400D02*
X0225200Y0505400D01*
X0207200Y0481400D02*
Y0487400D01*
X0176200Y0461023D02*
Y0469400D01*
Y0461023D02*
X0178006Y0459217D01*
X0200200Y0405400D02*
Y0409400D01*
X0205768Y0406400D02*
X0208489Y0403678D01*
X0207314Y0402286D02*
X0210200Y0399400D01*
Y0371400D02*
Y0399400D01*
X0207098Y0402286D02*
X0207314D01*
X0205706Y0400894D02*
X0208200Y0398400D01*
Y0371400D02*
Y0398400D01*
X0202922Y0398111D02*
X0206200Y0394832D01*
X0195348Y0394548D02*
Y0396548D01*
X0237200Y0574550D02*
Y0581038D01*
Y0574400D02*
Y0574550D01*
X0231200Y0574400D02*
X0238200D01*
X0217200Y0574550D02*
Y0581038D01*
Y0574400D02*
Y0574550D01*
Y0574400D02*
X0223200D01*
X0194200Y0618400D02*
Y0652400D01*
X0184200Y0618400D02*
Y0646400D01*
X0204791Y0666991D01*
Y0671085D01*
X0204200Y0375400D02*
Y0389400D01*
X0238200Y0269400D02*
Y0286400D01*
X0191200Y0408400D02*
Y0441400D01*
X0177200Y0276400D02*
X0178157Y0275443D01*
X0181420D01*
X0179398Y0384191D02*
X0181607Y0386400D01*
X0193178Y0388367D02*
X0193233D01*
X0202200Y0372400D02*
Y0390481D01*
X0198746Y0393935D02*
X0202200Y0390481D01*
X0204065Y0389535D02*
X0204200Y0389400D01*
X0204065Y0389535D02*
Y0391400D01*
X0200138Y0395327D02*
X0204065Y0391400D01*
X0209200Y0408535D02*
X0211273Y0406462D01*
X0219625Y0414814D02*
X0222039Y0412400D01*
X0222823Y0414400D02*
X0228200D01*
X0221017Y0416206D02*
X0222823Y0414400D01*
X0221200Y0425993D02*
X0222409Y0427202D01*
X0215962Y0434162D02*
X0219200Y0437400D01*
X0215449Y0434162D02*
X0215962D01*
X0204552Y0434400D02*
X0209881Y0439730D01*
X0201530Y0448081D02*
X0201881D01*
X0191200Y0441400D02*
X0200138Y0449473D01*
X0191786Y0457825D02*
Y0457986D01*
X0192700Y0285400D02*
X0197200D01*
X0250200Y0731400D02*
X0250791Y0731991D01*
X0259200Y0725828D02*
X0261628D01*
X0259200D02*
X0261628D01*
X0259200D02*
X0261628D01*
X0259200D02*
X0261628D01*
X0263200Y0727400D02*
Y0742400D01*
Y0727400D02*
Y0742400D01*
Y0727400D02*
Y0742400D01*
Y0747038D01*
Y0742400D02*
Y0747038D01*
Y0738511D02*
Y0742400D01*
Y0738511D02*
Y0747038D01*
Y0742400D02*
Y0747038D01*
X0215200Y0226900D02*
X0216535Y0225565D01*
X0215200Y0226900D02*
X0216535Y0225565D01*
X0215200Y0226900D02*
X0216535Y0225565D01*
X0215200Y0226900D02*
X0216535Y0225565D01*
X0220700D01*
X0215200Y0226900D02*
X0216535Y0225565D01*
X0263200Y0742400D02*
Y0747038D01*
Y0727400D02*
Y0742400D01*
Y0738511D02*
Y0742400D01*
X0259200Y0725828D02*
X0261628D01*
X0197145Y0460400D02*
X0197200D01*
X0193178Y0456433D02*
X0197145Y0460400D01*
X0255200Y0737400D02*
X0260200D01*
X0248885Y0731715D02*
Y0736085D01*
X0249200Y0736400D01*
X0251539Y0735321D02*
X0255618Y0739400D01*
X0251519Y0735321D02*
X0251539D01*
X0250791Y0734592D02*
X0251519Y0735321D01*
X0250791Y0731991D02*
Y0734592D01*
X0253121Y0735321D02*
X0255200Y0737400D01*
X0253094Y0735321D02*
X0253121D01*
X0252366Y0734592D02*
X0253094Y0735321D01*
X0252366Y0734566D02*
Y0734592D01*
X0252035Y0734235D02*
X0252366Y0734566D01*
X0252035Y0731715D02*
Y0734235D01*
X0255618Y0739400D02*
X0257200D01*
X0254200Y0728400D02*
X0260200D01*
X0253609Y0728991D02*
X0254200Y0728400D01*
X0253609Y0728991D02*
Y0731715D01*
X0263996Y0685196D02*
X0264200Y0685400D01*
X0261628Y0725828D02*
X0263200Y0727400D01*
X0214200Y0178400D02*
Y0178500D01*
X0191920Y0228680D02*
Y0232786D01*
X0162200Y0222400D02*
X0185641D01*
X0189361Y0228561D02*
Y0232786D01*
X0185641Y0222400D02*
X0191920Y0228680D01*
X0152200Y0224400D02*
X0185200D01*
X0214480Y0285680D02*
X0219420D01*
X0214200Y0285400D02*
X0214480Y0285680D01*
X0202200Y0252400D02*
Y0255400D01*
X0194480Y0253680D02*
Y0256014D01*
X0194200Y0256400D02*
Y0262400D01*
X0189200Y0256400D02*
Y0263400D01*
X0235700Y0225565D02*
X0239865D01*
X0235200Y0289400D02*
X0238200Y0286400D01*
X0234200Y0289400D02*
X0235200D01*
X0216802Y0278002D02*
X0219420D01*
X0215200Y0276400D02*
X0216802Y0278002D01*
X0233917Y0271683D02*
Y0275510D01*
Y0271683D02*
X0234200Y0271400D01*
X0219420Y0275443D02*
X0225157D01*
X0232200Y0268400D01*
X0248483Y0275510D02*
X0252200Y0271794D01*
X0181200Y0469300D02*
X0182300Y0470400D01*
X0181200Y0462400D02*
Y0469300D01*
X0179200Y0460400D02*
X0181200Y0462400D01*
X0185200Y0464400D02*
Y0469400D01*
Y0464400D02*
X0189200Y0460400D01*
X0176200Y0469400D02*
X0179050Y0472250D01*
X0212200Y0369400D02*
Y0400400D01*
X0222409Y0417598D02*
X0223211Y0418400D01*
X0227200D01*
X0230200Y0421400D01*
X0228200Y0414400D02*
X0232200Y0418400D01*
X0209200Y0408535D02*
Y0412400D01*
X0206200Y0408752D02*
X0209881Y0405070D01*
X0206200Y0408752D02*
Y0410400D01*
X0249200Y0349400D02*
X0259200Y0339400D01*
X0221017Y0428594D02*
X0222823Y0430400D01*
X0229089D01*
X0244300Y0415189D01*
X0218233Y0431378D02*
X0220255Y0433400D01*
X0230200D01*
X0219625Y0429986D02*
X0221939Y0432300D01*
X0229300D01*
X0245400Y0416200D01*
X0210970Y0435250D02*
X0212665Y0436946D01*
X0204200Y0429400D02*
X0210050Y0435250D01*
X0210970D01*
X0274200Y0528400D02*
X0289200Y0513400D01*
X0204200Y0450400D02*
Y0453400D01*
X0201881Y0448081D02*
X0204200Y0450400D01*
X0219200Y0437400D02*
X0227200D01*
X0202922Y0446689D02*
X0207200Y0450968D01*
X0210074Y0451274D02*
Y0451619D01*
X0232361Y0498400D02*
X0264200D01*
X0221200Y0479400D02*
X0236200Y0494400D01*
X0270200D01*
X0274200Y0498400D01*
X0240200Y0504400D02*
X0270200D01*
X0274200Y0508400D01*
X0268200Y0513400D02*
X0273200Y0518400D01*
X0269200Y0483400D02*
X0274200Y0488400D01*
X0266200Y0470400D02*
X0274200Y0478400D01*
X0179050Y0472250D02*
X0192050D01*
X0225200Y0505400D02*
Y0518400D01*
X0270200Y0554400D02*
X0274200Y0558400D01*
X0234200Y0513400D02*
X0268200D01*
X0217200Y0559400D02*
Y0568250D01*
Y0568400D01*
X0189200Y0480400D02*
Y0489400D01*
X0193200Y0480400D02*
Y0488400D01*
X0206200Y0651400D02*
X0209543D01*
X0210200D01*
X0206200D02*
Y0662400D01*
X0209543Y0649400D02*
Y0649431D01*
X0209200Y0646400D02*
Y0649400D01*
X0209543Y0653368D02*
Y0656743D01*
X0211200Y0658400D01*
Y0671400D01*
X0213200Y0660400D02*
Y0668003D01*
X0211200Y0658400D02*
Y0659400D01*
X0214857Y0653368D02*
X0215200Y0653711D01*
Y0658400D01*
X0213200Y0660400D02*
X0215200Y0658400D01*
X0215814Y0665786D02*
Y0671085D01*
Y0665786D02*
X0216200Y0665400D01*
X0212803Y0668400D02*
X0213200Y0668003D01*
X0212803Y0668400D02*
Y0670797D01*
X0274200Y0528400D02*
X0279200Y0533400D01*
X0279460Y0624660D02*
Y0624987D01*
X0275200Y0620400D02*
X0279460Y0624660D01*
X0270200Y0620400D02*
X0270562D01*
X0275200D01*
X0265838Y0620762D02*
Y0625400D01*
Y0616038D02*
Y0620400D01*
X0275562Y0641762D02*
X0276200Y0642400D01*
X0167200Y0511400D02*
X0189200Y0489400D01*
X0198746Y0450865D02*
X0202080Y0454200D01*
X0202200D01*
X0205600Y0406800D02*
X0205632Y0406832D01*
X0205500Y0406900D02*
X0205600Y0406800D01*
X0205200Y0406900D02*
X0205500D01*
X0180600Y0259000D02*
X0184200Y0255400D01*
X0180400Y0259000D02*
X0180600D01*
X0207031Y0466731D02*
Y0473069D01*
X0204200Y0463900D02*
X0207031Y0466731D01*
Y0473069D02*
X0232361Y0498400D01*
X0197700Y0463900D02*
X0197861D01*
X0204200D01*
X0191786Y0457825D02*
X0197861Y0463900D01*
X0197354Y0452257D02*
X0197557D01*
X0201200Y0455900D01*
Y0459400D01*
X0193200Y0422400D02*
Y0424400D01*
X0198200Y0429400D01*
X0204200D01*
X0196200Y0414400D02*
X0198200Y0416400D01*
X0197200Y0401400D02*
Y0413400D01*
X0201200Y0417400D01*
X0222039Y0412400D02*
X0231200D01*
X0243200Y0302400D02*
X0254200Y0291400D01*
X0243700Y0289400D02*
X0248200D01*
X0241700Y0287400D02*
X0243700Y0289400D01*
Y0285900D02*
X0247200Y0282400D01*
X0194200Y0232900D02*
X0194700Y0232400D01*
X0197039D02*
Y0232786D01*
X0213838Y0193762D02*
X0213950Y0193650D01*
X0131700Y0214900D02*
X0143200Y0226400D01*
X0153700Y0199538D02*
X0153838Y0199400D01*
X0232700Y0282400D02*
X0233917D01*
X0229200Y0285900D02*
X0232700Y0282400D01*
X0229200Y0285900D02*
Y0361400D01*
X0232000Y0405100D02*
X0232050Y0405150D01*
Y0411550D01*
Y0411800D01*
X0231200Y0412400D02*
X0232050Y0411550D01*
X0231100Y0510300D02*
X0234200Y0513400D01*
X0231000Y0510400D02*
X0231100Y0510300D01*
X0230700Y0510400D02*
X0231000D01*
X0228200Y0514900D02*
X0231700Y0518400D01*
X0264200D01*
X0233200Y0483400D02*
X0269200D01*
X0239700Y0478400D02*
X0264200D01*
X0246200Y0508400D02*
X0264200D01*
X0265700Y0470900D02*
X0266200Y0470400D01*
X0195200Y0343900D02*
Y0356400D01*
Y0339400D02*
Y0343900D01*
X0189200Y0304900D02*
Y0307400D01*
X0194700Y0308900D02*
X0195200Y0309400D01*
X0194700Y0304900D02*
Y0308900D01*
X0204200Y0328400D02*
Y0349400D01*
X0182700Y0382900D02*
X0186200Y0379400D01*
X0182700Y0390400D02*
Y0443171D01*
X0194570Y0455041D01*
X0187700Y0445387D02*
X0195962Y0453649D01*
X0181607Y0386400D02*
Y0387993D01*
X0182700Y0382900D02*
Y0388456D01*
X0181200Y0389956D02*
X0182700Y0388456D01*
X0183700Y0384900D02*
Y0389400D01*
X0182700Y0390400D02*
X0183700Y0389400D01*
X0178200Y0395400D02*
Y0420000D01*
Y0395400D02*
X0179700Y0393900D01*
Y0389900D02*
Y0393900D01*
Y0389900D02*
X0181607Y0387993D01*
X0181200Y0389956D02*
Y0450023D01*
X0190394Y0459217D01*
X0157200Y0320400D02*
Y0320900D01*
Y0320400D02*
X0160200Y0317400D01*
X0162200D01*
X0193700Y0439900D02*
Y0440334D01*
Y0439900D02*
X0196200Y0437400D01*
X0198200D01*
X0201200Y0434400D01*
X0204552D01*
X0275562Y0636038D02*
X0275700Y0635900D01*
X0273062D02*
X0275700D01*
X0279700D01*
X0275562Y0636038D02*
Y0641762D01*
X0109231Y0735931D02*
X0111519D01*
X0109200Y0735900D02*
X0109231Y0735931D01*
X0108700Y0735900D02*
X0109200D01*
X0223200Y0585400D02*
Y0585813D01*
X0201700Y0402116D02*
X0204314Y0399503D01*
X0201700Y0402116D02*
Y0403292D01*
X0203200Y0404900D02*
Y0409400D01*
X0201700Y0403400D02*
X0203200Y0404900D01*
X0194200Y0178400D02*
Y0185900D01*
X0202700Y0188400D02*
X0204200Y0186900D01*
Y0178400D02*
Y0186900D01*
X0259200Y0685196D02*
X0263996D01*
X0158759Y0282900D02*
X0158980Y0283120D01*
X0180200Y0488400D02*
Y0492400D01*
X0152200Y0520400D02*
X0180200Y0492400D01*
X0258200Y0669400D02*
X0267700D01*
X0256200Y0659400D02*
X0267700D01*
X0247310Y0666469D02*
Y0671085D01*
X0250460Y0666640D02*
Y0671085D01*
Y0666640D02*
X0252700Y0664400D01*
X0267700D01*
X0248885Y0666715D02*
Y0671085D01*
Y0666715D02*
X0256200Y0659400D01*
X0247310Y0666469D02*
X0247887Y0665892D01*
Y0665713D02*
Y0665892D01*
Y0665713D02*
X0259200Y0654400D01*
X0267700D01*
X0252035Y0671085D02*
Y0673735D01*
X0252891Y0674591D01*
X0254083D01*
X0255200Y0672400D02*
X0258200Y0669400D01*
X0255200Y0672400D02*
Y0673474D01*
X0254083Y0674591D02*
X0255200Y0673474D01*
X0227200Y0450900D02*
X0230700Y0447400D01*
X0211273Y0438338D02*
X0223835Y0450900D01*
X0227200D01*
X0204200Y0453400D02*
X0209200Y0458400D01*
X0244550Y0196400D02*
Y0203050D01*
X0225700Y0221900D02*
X0244550Y0203050D01*
Y0178750D02*
Y0196400D01*
X0244200Y0178400D02*
X0244550Y0178750D01*
X0230700Y0220400D02*
X0250700Y0200400D01*
Y0190400D02*
X0254200Y0186900D01*
X0250700Y0190400D02*
Y0200400D01*
X0192700Y0362400D02*
X0200200Y0369900D01*
Y0386913D01*
X0189200Y0339400D02*
Y0343900D01*
G54D48*
X0104391Y0754591D02*
X0110009D01*
X0104005Y0749636D02*
Y0754205D01*
X0104200Y0754400D01*
X0110009Y0754591D02*
Y0758691D01*
X0117391D01*
X0123395Y0749636D02*
Y0749880D01*
X0123151D02*
X0123395D01*
X0129200D01*
X0117200Y0754400D02*
X0122700D01*
X0117391Y0754591D02*
Y0758691D01*
X0123395Y0749880D02*
Y0753705D01*
X0122700Y0754400D02*
X0123395Y0753705D01*
X0094200Y0318400D02*
Y0338400D01*
X0104200Y0318400D02*
Y0338400D01*
X0129200Y0749880D02*
Y0758640D01*
X0098149Y0749451D02*
X0103820D01*
X0098149D02*
Y0758691D01*
X0129200Y0749880D02*
X0132200D01*
X0138720D01*
G54D49*
X0097850Y0707550D02*
X0105350D01*
X0097850D02*
X0098334Y0708034D01*
X0097200Y0706900D02*
X0097850Y0707550D01*
X0098334Y0708034D02*
X0105700D01*
X0170066Y0670534D02*
X0171700Y0668900D01*
X0163700Y0670534D02*
X0170066D01*
X0171700Y0663900D02*
X0172200Y0663400D01*
X0175700D01*
X0239700Y0591400D02*
Y0595459D01*
X0239137Y0596022D02*
X0239700Y0595459D01*
X0237966Y0602134D02*
X0239200Y0600900D01*
X0231200Y0602134D02*
X0237966D01*
X0215791Y0602400D02*
X0222200D01*
X0214137Y0600746D02*
X0215791Y0602400D01*
X0213700Y0590900D02*
Y0595400D01*
X0214200Y0595900D01*
X0162200Y0461103D02*
Y0495400D01*
X0239200Y0642912D02*
Y0652400D01*
X0234200Y0642912D02*
Y0652400D01*
X0224200Y0642912D02*
Y0652400D01*
X0213200Y0634900D02*
X0213338Y0635038D01*
X0217200D01*
X0212200Y0645900D02*
Y0648841D01*
Y0645900D02*
X0212700Y0645400D01*
X0244200Y0635900D02*
Y0642912D01*
X0163200Y0253400D02*
X0163310Y0253290D01*
X0170483D01*
X0163090D02*
X0163200Y0253400D01*
X0155917Y0253290D02*
X0163090D01*
X0163700Y0239400D02*
X0170700D01*
X0163590Y0239510D02*
X0163700Y0239400D01*
X0155917Y0239510D02*
X0163590D01*
X0139200Y0314400D02*
Y0399671D01*
X0136200Y0311400D02*
X0139200Y0314400D01*
X0136200Y0240900D02*
Y0311400D01*
X0151200Y0309400D02*
Y0361250D01*
X0150700Y0308900D02*
X0151200Y0309400D01*
X0146700Y0239900D02*
X0149700Y0242900D01*
X0148200Y0241400D02*
X0149700Y0242900D01*
X0148450Y0241650D02*
X0149700Y0242900D01*
X0141350Y0239900D02*
X0146700D01*
X0118200Y0294400D02*
Y0395400D01*
X0145200Y0272900D02*
X0145700Y0272400D01*
X0104200Y0248400D02*
X0105200Y0249400D01*
X0124050D01*
X0104200Y0238400D02*
X0106200Y0236400D01*
X0137850D01*
X0141350Y0239900D01*
X0135050D02*
Y0240050D01*
X0135200Y0239900D02*
X0136200Y0240900D01*
X0178338Y0722038D02*
X0182038D01*
X0171901Y0721900D02*
X0178200D01*
X0181700Y0722400D02*
X0190700D01*
X0182038Y0722038D02*
X0182200Y0722200D01*
X0182038Y0722038D02*
X0182200D01*
X0178200Y0721900D02*
X0178338Y0722038D01*
X0170700Y0458072D02*
Y0458100D01*
X0166200Y0462600D02*
X0170700Y0458100D01*
X0166200Y0462600D02*
Y0462900D01*
X0171971Y0456900D02*
X0173830Y0455041D01*
X0171872Y0456900D02*
X0171971D01*
X0170700Y0458072D02*
X0171872Y0456900D01*
X0170200Y0418400D02*
X0172700Y0420900D01*
Y0423400D01*
X0241200Y0231262D02*
Y0234900D01*
Y0230900D02*
Y0231262D01*
X0199600Y0256212D02*
Y0261000D01*
X0199500Y0256112D02*
X0199600Y0256212D01*
X0155200Y0302400D02*
Y0347400D01*
X0151200Y0298400D02*
X0155200Y0302400D01*
X0169152Y0390652D02*
X0169452D01*
X0168200Y0389700D02*
X0169152Y0390652D01*
X0163500Y0389700D02*
X0168200D01*
X0156200Y0382400D02*
X0163500Y0389700D01*
X0156781Y0408900D02*
X0156800D01*
X0156700D02*
X0156781D01*
X0156740Y0408860D02*
X0156781Y0408900D01*
X0155735Y0407854D02*
X0156740Y0408860D01*
X0158700Y0410800D02*
Y0411900D01*
X0156800Y0408900D02*
X0158700Y0410800D01*
X0152200Y0443265D02*
Y0445400D01*
X0287700Y0579900D02*
X0291700D01*
X0198885Y0716361D02*
X0204100D01*
Y0716400D01*
Y0714900D02*
Y0716361D01*
X0198885Y0714786D02*
X0203986D01*
X0204100Y0714900D01*
X0162694Y0400894D02*
X0165700Y0403900D01*
Y0415900D01*
X0144900Y0408400D02*
X0145145D01*
X0150167Y0413422D01*
X0139200Y0399671D02*
X0151559Y0412030D01*
X0145200Y0411900D02*
X0145700D01*
X0148614Y0414814D01*
X0148775D01*
X0268562Y0742400D02*
X0272200D01*
X0151000Y0438903D02*
Y0439200D01*
X0150997Y0438900D02*
X0151000Y0438903D01*
X0136200Y0450913D02*
X0152951Y0434162D01*
X0153340Y0439340D02*
X0155735Y0436946D01*
X0153340Y0439340D02*
Y0440160D01*
X0152200Y0443265D02*
X0157127Y0438338D01*
X0154800Y0443448D02*
X0158519Y0439730D01*
X0149900Y0434700D02*
X0151800Y0432800D01*
X0146900Y0434700D02*
X0149900D01*
X0120200Y0461400D02*
X0146900Y0434700D01*
X0149721Y0431779D02*
X0149821D01*
X0148400Y0433100D02*
X0149721Y0431779D01*
X0146661Y0433100D02*
X0148400D01*
X0134426Y0665500D02*
X0142600D01*
X0134326Y0665400D02*
X0134426Y0665500D01*
X0125600D02*
X0126300D01*
X0126326Y0665526D01*
X0134500Y0660600D02*
Y0665226D01*
X0134200Y0665526D02*
X0134500Y0665226D01*
X0174137Y0449363D02*
Y0451963D01*
X0172451Y0453649D02*
X0174137Y0451963D01*
X0172438Y0453649D02*
X0172451D01*
X0175200Y0442400D02*
Y0448300D01*
X0174137Y0449363D02*
X0175200Y0448300D01*
X0105800Y0641700D02*
X0113231D01*
X0114200Y0640731D01*
X0114800Y0649800D02*
Y0650500D01*
Y0649800D02*
X0114838Y0649762D01*
X0270050Y0718731D02*
Y0723250D01*
X0171600Y0398800D02*
X0171800D01*
X0168262Y0395462D02*
X0171600Y0398800D01*
X0128200Y0630987D02*
Y0634600D01*
X0219477Y0293300D02*
X0223300D01*
X0219420Y0293357D02*
X0219477Y0293300D01*
X0219559Y0288300D02*
X0223300D01*
X0219459Y0288200D02*
X0219559Y0288300D01*
X0163700Y0451252D02*
Y0451900D01*
X0159922Y0441122D02*
X0162700Y0443900D01*
X0157200Y0445900D02*
X0157916D01*
X0161303Y0442514D01*
X0159911Y0441122D02*
X0159922D01*
X0194436Y0711636D02*
X0198885D01*
X0193700Y0710900D02*
X0194436Y0711636D01*
X0187200Y0713400D02*
Y0717038D01*
X0217131Y0585831D02*
X0217200Y0585762D01*
X0237200D02*
Y0589900D01*
X0130200Y0239900D02*
X0134901D01*
X0123200Y0390400D02*
Y0390550D01*
X0156200Y0400400D02*
X0156632D01*
X0151200Y0305400D02*
X0153200Y0307400D01*
X0156632Y0400400D02*
X0159911Y0403678D01*
X0153200Y0363250D02*
X0153350D01*
X0284200Y0584400D02*
Y0585400D01*
X0114838Y0647400D02*
Y0649762D01*
X0109200Y0621109D02*
X0110200Y0622109D01*
X0172200Y0716900D02*
Y0717400D01*
X0136200Y0492250D02*
Y0492400D01*
X0157200Y0463320D02*
X0169654Y0450865D01*
X0162200Y0461103D02*
X0171046Y0452257D01*
X0148200Y0430400D02*
X0151200Y0427400D01*
X0148200Y0423400D02*
X0151200Y0426400D01*
Y0427400D01*
X0170200Y0400087D02*
Y0418400D01*
X0169300Y0399187D02*
X0170200Y0400087D01*
X0169300Y0399148D02*
Y0399187D01*
X0166870Y0396719D02*
X0169300Y0399148D01*
X0158519Y0405070D02*
X0158870D01*
X0146584Y0433178D02*
X0146661Y0433100D01*
X0146516Y0433178D02*
X0146584D01*
X0163700Y0451252D02*
X0166870Y0448081D01*
X0151200Y0404400D02*
Y0406103D01*
X0154343Y0409246D01*
X0139200Y0440400D02*
X0146469Y0433131D01*
X0139200Y0440400D02*
Y0440471D01*
X0136271Y0443400D02*
X0139200Y0440471D01*
X0136200Y0443400D02*
X0136271D01*
X0146469Y0433131D02*
X0146516Y0433178D01*
X0146469Y0433131D02*
X0146469D01*
X0145200Y0481250D02*
Y0481400D01*
X0183200Y0228400D02*
X0184243Y0229443D01*
X0288200Y0607400D02*
X0290818D01*
X0291531Y0606687D01*
X0275200Y0705400D02*
Y0708920D01*
X0276350Y0710069D01*
X0270200Y0705400D02*
Y0706400D01*
X0270050Y0706550D02*
X0270200Y0706400D01*
X0276200Y0718400D02*
X0280200Y0714400D01*
X0270050Y0723250D02*
X0270200Y0723400D01*
X0171901Y0689699D02*
Y0691900D01*
X0122200Y0644400D02*
X0122838D01*
X0119562Y0647400D02*
X0122200Y0644762D01*
X0270050Y0706550D02*
Y0710069D01*
X0146200Y0417389D02*
X0147383Y0416206D01*
X0142002Y0427202D02*
X0145991D01*
X0185562Y0726762D02*
X0186200Y0727400D01*
X0156200Y0423400D02*
X0175200Y0442400D01*
X0164200Y0422400D02*
X0168100Y0418500D01*
X0159200Y0422400D02*
X0164200D01*
X0165478Y0398111D02*
X0168100Y0400732D01*
X0228413Y0734613D02*
X0230200Y0736400D01*
X0228413Y0731715D02*
Y0734613D01*
X0226838Y0736038D02*
X0227200Y0736400D01*
X0226838Y0731715D02*
Y0736038D01*
X0193200Y0703400D02*
X0195987Y0700613D01*
X0198885D01*
X0183200Y0726762D02*
X0185562D01*
X0172200Y0716900D02*
X0186700D01*
X0171901Y0711900D02*
Y0716101D01*
Y0706900D02*
Y0711900D01*
Y0716101D02*
X0172200Y0716400D01*
X0199098Y0702400D02*
X0204200D01*
X0198885Y0702187D02*
X0199098Y0702400D01*
X0255310Y0683290D02*
X0259515D01*
X0233137Y0671085D02*
X0234678D01*
X0228413D02*
Y0675187D01*
X0233137Y0671085D02*
Y0675337D01*
X0203200Y0683400D02*
Y0685400D01*
X0202161Y0686439D02*
X0203200Y0685400D01*
X0198885Y0686439D02*
X0202161D01*
X0225838Y0251262D02*
Y0253900D01*
X0215200Y0231262D02*
Y0234900D01*
X0196980Y0275443D02*
X0201157D01*
X0158980D02*
X0163157D01*
X0119200Y0647400D02*
X0119562D01*
X0171901Y0726900D02*
X0182700D01*
X0219420Y0290798D02*
Y0293180D01*
Y0288239D02*
Y0290798D01*
X0181420D02*
Y0293180D01*
Y0288239D02*
Y0290798D01*
X0230562Y0251262D02*
Y0253900D01*
X0168262Y0395327D02*
Y0395462D01*
X0228522Y0398078D02*
X0232576Y0394024D01*
X0234271D01*
X0169200Y0387913D02*
X0172438Y0391151D01*
X0169200Y0387400D02*
Y0387913D01*
X0168262Y0449338D02*
Y0449473D01*
X0147383Y0428583D02*
Y0428594D01*
X0146200Y0427400D02*
X0147383Y0428583D01*
X0094200Y0408400D02*
X0104200D01*
Y0488400D02*
X0105200Y0487400D01*
X0156200Y0422400D02*
Y0423400D01*
X0152200Y0418400D02*
X0153200Y0419400D01*
X0147200Y0416400D02*
X0149200Y0418400D01*
X0152200D01*
X0138200Y0423400D02*
X0142002Y0427202D01*
X0135350Y0423400D02*
X0138200D01*
X0129050Y0422250D02*
Y0423400D01*
X0184243Y0229443D02*
Y0232786D01*
X0238200Y0411400D02*
X0238350D01*
X0280200Y0585400D02*
X0284200D01*
X0212200Y0653959D02*
Y0655400D01*
X0213007Y0656207D01*
X0286940Y0624987D02*
Y0628140D01*
Y0632660D02*
Y0635813D01*
X0125838Y0647400D02*
X0126200D01*
X0122838Y0644400D02*
X0125838Y0647400D01*
X0102491Y0623109D02*
X0109200D01*
X0110200Y0622109D01*
X0134200Y0665526D02*
X0134326Y0665400D01*
X0126326Y0665526D02*
X0134200D01*
X0151200Y0361250D02*
X0153200Y0363250D01*
Y0388616D02*
X0164086Y0399502D01*
X0122200Y0391550D02*
X0123200Y0390550D01*
X0140850Y0261250D02*
X0145700D01*
X0140200Y0504400D02*
Y0509400D01*
X0152200Y0421400D02*
X0173200Y0442400D01*
Y0444400D01*
X0168262Y0449338D02*
X0173200Y0444400D01*
X0137200Y0512400D02*
X0145200D01*
X0134200Y0509400D02*
X0137200Y0512400D01*
X0120200Y0457400D02*
X0133200Y0444400D01*
X0135200D01*
X0136200Y0443400D01*
X0142200Y0423400D02*
X0148200D01*
X0119350Y0407400D02*
X0135350Y0423400D01*
X0105200Y0407400D02*
X0119350D01*
X0104200Y0408400D02*
X0105200Y0407400D01*
X0127200Y0420400D02*
X0129050Y0422250D01*
X0100200Y0472400D02*
X0104200Y0468400D01*
X0100200Y0472400D02*
Y0516400D01*
X0104200Y0520400D01*
X0098200Y0471400D02*
Y0522400D01*
X0104200Y0528400D01*
X0098200Y0471400D02*
X0108200Y0461400D01*
X0120200D01*
X0225200Y0246735D02*
X0225700Y0246235D01*
X0225200Y0246735D02*
Y0250900D01*
X0230200Y0246735D02*
X0230700Y0246235D01*
X0230200Y0246735D02*
Y0250900D01*
X0226838Y0666762D02*
Y0671085D01*
Y0666762D02*
X0227200Y0666400D01*
X0214200Y0671124D02*
X0214239Y0671085D01*
X0214200Y0671124D02*
Y0675900D01*
X0259476Y0716400D02*
X0259515Y0716361D01*
X0247300Y0731705D02*
X0247310Y0731715D01*
X0214200Y0731676D02*
X0214239Y0731715D01*
X0214200Y0727100D02*
Y0731676D01*
X0228400Y0675200D02*
X0228413Y0675187D01*
X0233100Y0675374D02*
X0233137Y0675337D01*
X0233100Y0675374D02*
Y0675700D01*
X0255300Y0683300D02*
X0255310Y0683290D01*
X0259376Y0716300D02*
X0259476Y0716400D01*
X0254600Y0716300D02*
X0259376D01*
X0247300Y0726800D02*
Y0731705D01*
X0198885Y0683290D02*
X0198895Y0683300D01*
X0150997Y0438900D02*
X0154343Y0435554D01*
X0213900Y0435600D02*
X0214200D01*
X0228400Y0675200D02*
Y0675900D01*
X0254800Y0683300D02*
X0255300D01*
X0198895D02*
X0203500D01*
X0286900Y0628180D02*
X0286940Y0628140D01*
Y0632660D02*
X0287700Y0631900D01*
X0288200Y0642038D02*
X0290500Y0639738D01*
X0253609Y0667491D02*
Y0671085D01*
X0253600Y0667481D02*
X0253609Y0667491D01*
X0253600Y0666500D02*
Y0667481D01*
X0199500Y0256112D02*
X0199598Y0256014D01*
X0105200Y0509400D02*
X0134050D01*
X0104200Y0508400D02*
X0105200Y0509400D01*
X0132050Y0498550D02*
X0136200D01*
X0153200Y0374400D02*
Y0388616D01*
X0169200Y0351400D02*
Y0356250D01*
X0153200Y0307400D02*
Y0352900D01*
X0156200Y0355900D01*
Y0382400D01*
X0211100Y0432800D02*
X0213900Y0435600D01*
X0220038Y0390562D02*
Y0394024D01*
X0234605Y0384495D02*
Y0385362D01*
Y0384495D02*
X0236700Y0382400D01*
Y0378400D02*
Y0382400D01*
X0238200Y0403900D02*
Y0405400D01*
X0218700Y0199400D02*
X0219062D01*
X0223700D01*
X0193700Y0196400D02*
X0196200Y0198900D01*
Y0199400D01*
X0205396Y0196081D02*
X0207700Y0198385D01*
X0205200Y0196038D02*
X0205243Y0196081D01*
X0205320Y0196158D01*
X0205243Y0196081D02*
X0205396Y0195928D01*
X0205424Y0195900D01*
X0205200Y0195676D02*
X0205396Y0195872D01*
X0205424Y0195900D01*
X0205924Y0196400D01*
X0205396Y0195872D02*
Y0195928D01*
Y0196081D01*
X0207700Y0198385D02*
Y0199400D01*
X0134200Y0196400D02*
X0136700Y0198900D01*
Y0199400D01*
X0145200Y0196400D02*
X0147700Y0198900D01*
Y0199400D01*
X0158562D02*
X0163200D01*
X0219420Y0288239D02*
X0219459Y0288200D01*
X0238200Y0403900D02*
X0238500Y0403600D01*
X0236400Y0413200D02*
X0238200Y0411400D01*
X0236400Y0413200D02*
Y0415500D01*
X0208489Y0441122D02*
X0210868Y0443500D01*
X0213500D01*
X0113200Y0702400D02*
X0118700D01*
X0114200Y0696400D02*
X0118838D01*
X0119200D01*
X0104200Y0498400D02*
X0131600D01*
X0131901D02*
X0132050Y0498550D01*
X0131600Y0498400D02*
X0131901D01*
X0136200Y0450913D02*
Y0487500D01*
Y0492250D01*
X0145200Y0476500D02*
Y0481250D01*
X0168100Y0400732D02*
Y0418500D01*
X0211100Y0431800D02*
Y0432800D01*
X0220038Y0390562D02*
X0220800Y0389800D01*
Y0389700D02*
Y0389800D01*
X0235200Y0376900D02*
X0236700Y0378400D01*
X0236300Y0401400D02*
X0238500Y0403600D01*
X0236200Y0401400D02*
X0236300D01*
X0145200Y0402887D02*
X0152951Y0410638D01*
X0127200Y0419400D02*
Y0420400D01*
X0121200Y0382900D02*
X0122200Y0383900D01*
X0121200Y0379900D02*
Y0382900D01*
X0153200Y0369400D02*
Y0369550D01*
Y0374400D01*
X0158200Y0373400D02*
X0160200D01*
X0162200Y0371400D01*
Y0368400D02*
Y0368550D01*
Y0371400D01*
X0145700Y0267400D02*
Y0267550D01*
Y0272400D01*
X0145200Y0272900D02*
Y0402887D01*
X0208422Y0441122D02*
X0208489D01*
X0205200Y0437900D02*
X0208422Y0441122D01*
X0202700Y0436900D02*
X0203700Y0437900D01*
X0205200D01*
X0212700Y0418955D02*
X0218233Y0413422D01*
X0212700Y0418955D02*
Y0419900D01*
X0160200Y0449184D02*
X0164086Y0445298D01*
X0160200Y0449184D02*
Y0449400D01*
X0198200Y0469400D02*
Y0474038D01*
X0203200D02*
X0203700Y0473538D01*
Y0469400D02*
Y0473538D01*
X0227200Y0585813D02*
X0228200Y0584813D01*
Y0581400D02*
Y0584813D01*
X0226700Y0575400D02*
Y0578900D01*
Y0575400D02*
X0227200Y0574900D01*
X0214074Y0590900D02*
X0214137Y0590963D01*
X0213700Y0590900D02*
X0214074D01*
X0278200Y0618400D02*
X0281838D01*
X0286562D02*
X0290200D01*
X0283200Y0624987D02*
Y0628900D01*
X0286900Y0628180D02*
X0287200Y0628480D01*
Y0628900D01*
X0282200Y0634813D02*
X0283200Y0635813D01*
X0282200Y0631900D02*
Y0634813D01*
X0290200Y0639438D02*
X0290500Y0639738D01*
X0290200Y0638900D02*
Y0639438D01*
X0282200Y0642200D02*
Y0646400D01*
X0288200Y0646762D02*
Y0650400D01*
X0268338Y0635900D02*
X0268700Y0635538D01*
Y0632900D02*
Y0635538D01*
X0270562Y0625400D02*
X0274700D01*
X0270562Y0615400D02*
X0274200D01*
X0237200Y0664400D02*
X0240838D01*
X0244161Y0675861D02*
X0244200Y0675900D01*
X0244161Y0671085D02*
Y0675861D01*
X0239436Y0671085D02*
Y0675664D01*
X0239200Y0675900D02*
X0239400Y0675700D01*
X0239436Y0675664D01*
X0254865Y0678565D02*
X0259515D01*
X0254365D02*
X0254700D01*
Y0678600D02*
X0255331D01*
X0254700Y0678400D02*
X0254865Y0678565D01*
X0259515Y0700613D02*
X0263987D01*
X0264200Y0700400D01*
Y0700600D02*
X0264300D01*
X0254838Y0699038D02*
X0259515D01*
X0254700Y0698900D02*
X0254838Y0699038D01*
X0169200Y0362550D02*
Y0367400D01*
Y0362400D02*
X0169275Y0362475D01*
X0145200Y0487550D02*
X0147050D01*
X0150200Y0484400D01*
X0145200Y0512400D02*
X0162200Y0495400D01*
X0109700Y0737900D02*
X0111519D01*
X0108700Y0738900D02*
X0109700Y0737900D01*
X0111200Y0743400D02*
Y0747400D01*
X0108700Y0740900D02*
X0111200Y0743400D01*
X0111141Y0747400D02*
Y0748219D01*
X0111519Y0739869D02*
Y0740719D01*
X0113700Y0742900D01*
X0113881Y0739869D02*
X0115669D01*
X0116700Y0740900D01*
Y0741400D01*
X0116600D02*
Y0741500D01*
X0113881Y0737900D02*
X0117200D01*
X0119000Y0739700D01*
X0116387Y0744900D02*
Y0747713D01*
X0119000Y0739700D02*
Y0742287D01*
X0116387Y0744900D02*
X0119000Y0742287D01*
X0116259Y0747841D02*
Y0748219D01*
X0116200Y0747900D02*
X0116259Y0747841D01*
X0116387Y0747713D01*
X0113783Y0735931D02*
X0123669D01*
X0126200Y0733400D01*
X0129700D02*
X0132200Y0735900D01*
X0126200Y0733400D02*
X0129700D01*
X0132200Y0735900D02*
Y0749880D01*
Y0749900D01*
X0113700Y0742900D02*
Y0748219D01*
X0108700Y0738900D02*
Y0739400D01*
Y0740900D01*
X0216700Y0587400D02*
X0217200Y0586900D01*
X0216700Y0587400D02*
Y0589900D01*
X0217200Y0585762D02*
Y0586900D01*
X0105700Y0695400D02*
Y0699766D01*
Y0707400D02*
Y0707900D01*
X0163700Y0656900D02*
Y0662266D01*
X0200200Y0743400D02*
Y0748266D01*
X0192200Y0743400D02*
Y0748266D01*
X0230940Y0585813D02*
Y0593640D01*
X0231200Y0593900D01*
X0215318Y0602518D02*
X0222137D01*
X0214200Y0601400D02*
X0215318Y0602518D01*
X0223460Y0585813D02*
Y0591140D01*
X0222200Y0592400D02*
X0223460Y0591140D01*
X0222200Y0592400D02*
Y0594400D01*
X0109200Y0618400D02*
Y0621109D01*
X0102283Y0622900D02*
X0102491Y0623109D01*
X0101700Y0622900D02*
X0102283D01*
X0128200Y0623900D02*
X0128700Y0623400D01*
X0128200Y0623900D02*
Y0626400D01*
X0105200Y0396400D02*
Y0401250D01*
X0118200Y0395400D02*
X0144200Y0421400D01*
X0152200D01*
X0122200Y0391550D02*
Y0395400D01*
X0150200D02*
X0154700D01*
X0161700Y0402400D01*
X0131700Y0398400D02*
X0145200Y0411900D01*
X0131700Y0250900D02*
Y0253900D01*
Y0398400D01*
X0130200Y0249400D02*
X0131700Y0250900D01*
X0181420Y0288239D02*
X0181582Y0288400D01*
X0185200D01*
X0185700Y0288900D01*
X0181420Y0293357D02*
X0181464Y0293400D01*
X0185700D01*
X0155200Y0347400D02*
X0158700Y0350900D01*
Y0358900D01*
X0162200Y0362400D01*
X0272562Y0654400D02*
X0277200D01*
X0272562Y0659400D02*
X0277200D01*
X0272562Y0664400D02*
X0277200D01*
X0272562Y0669400D02*
X0277200D01*
X0154800Y0443448D02*
Y0447800D01*
X0145200Y0457400D02*
X0154800Y0447800D01*
X0145200Y0457400D02*
Y0476500D01*
X0140700Y0452800D02*
X0153340Y0440160D01*
X0140700Y0452800D02*
Y0503900D01*
X0140200Y0504400D02*
X0140700Y0503900D01*
X0157200Y0463320D02*
Y0489400D01*
X0162200Y0414400D02*
Y0415400D01*
X0158870Y0405070D02*
X0163200Y0409400D01*
Y0413400D01*
X0162200Y0414400D02*
X0163200Y0413400D01*
X0111700Y0392900D02*
X0142200Y0423400D01*
X0111700Y0264900D02*
Y0392900D01*
X0234605Y0391705D02*
Y0394024D01*
X0232500Y0389600D02*
X0234605Y0391705D01*
X0126900Y0073549D02*
X0130899D01*
X0128899D01*
Y0067551D01*
X0133898D02*
X0135897D01*
X0136897Y0068550D01*
Y0070550D01*
X0135897Y0071549D01*
X0133898D01*
X0132898Y0070550D01*
Y0068550D01*
X0133898Y0067551D01*
X0138896Y0065551D02*
Y0071549D01*
X0141895D01*
X0142895Y0070550D01*
Y0068550D01*
X0141895Y0067551D01*
X0138896D01*
X0154891Y0072549D02*
X0153891Y0073549D01*
X0151892D01*
X0150892Y0072549D01*
Y0071549D01*
X0151892Y0070550D01*
X0153891D01*
X0154891Y0069550D01*
Y0068550D01*
X0153891Y0067551D01*
X0151892D01*
X0150892Y0068550D01*
X0156890Y0067551D02*
X0158890D01*
X0157890D01*
Y0071549D01*
X0156890D01*
X0163888Y0065551D02*
X0164888D01*
X0165887Y0066551D01*
Y0071549D01*
X0162888D01*
X0161889Y0070550D01*
Y0068550D01*
X0162888Y0067551D01*
X0165887D01*
X0167887D02*
Y0071549D01*
X0170886D01*
X0171885Y0070550D01*
Y0067551D01*
X0174884Y0071549D02*
X0176884D01*
X0177884Y0070550D01*
Y0067551D01*
X0174884D01*
X0173885Y0068550D01*
X0174884Y0069550D01*
X0177884D01*
X0179883Y0067551D02*
X0181882D01*
X0180883D01*
Y0073549D01*
X0179883D01*
X0567400Y0087833D02*
Y0093831D01*
X0571399Y0087833D01*
Y0093831D01*
X0574398Y0087833D02*
X0576397D01*
X0577397Y0088833D01*
Y0090832D01*
X0576397Y0091832D01*
X0574398D01*
X0573398Y0090832D01*
Y0088833D01*
X0574398Y0087833D01*
X0580396Y0092832D02*
Y0091832D01*
X0579396D01*
X0581395D01*
X0580396D01*
Y0088833D01*
X0581395Y0087833D01*
X0590393Y0093831D02*
X0592392D01*
X0591392D01*
Y0087833D01*
X0590393D01*
X0592392D01*
X0595391D02*
Y0091832D01*
X0598390D01*
X0599390Y0090832D01*
Y0087833D01*
X0607387Y0093831D02*
Y0089833D01*
X0609386Y0087833D01*
X0611386Y0089833D01*
Y0093831D01*
X0616384Y0087833D02*
X0614385D01*
X0613385Y0088833D01*
Y0090832D01*
X0614385Y0091832D01*
X0616384D01*
X0617384Y0090832D01*
Y0089833D01*
X0613385D01*
X0619383Y0091832D02*
Y0087833D01*
Y0089833D01*
X0620383Y0090832D01*
X0621383Y0091832D01*
X0622382D01*
X0625381Y0087833D02*
X0628380D01*
X0629380Y0088833D01*
X0628380Y0089833D01*
X0626381D01*
X0625381Y0090832D01*
X0626381Y0091832D01*
X0629380D01*
X0631379Y0087833D02*
X0633379D01*
X0632379D01*
Y0091832D01*
X0631379D01*
X0637377Y0087833D02*
X0639377D01*
X0640376Y0088833D01*
Y0090832D01*
X0639377Y0091832D01*
X0637377D01*
X0636378Y0090832D01*
Y0088833D01*
X0637377Y0087833D01*
X0642376D02*
Y0091832D01*
X0645375D01*
X0646374Y0090832D01*
Y0087833D01*
X0652373Y0092832D02*
X0651373Y0093831D01*
X0649373D01*
X0648374Y0092832D01*
Y0088833D01*
X0649373Y0087833D01*
X0651373D01*
X0652373Y0088833D01*
X0655372Y0087833D02*
X0657371D01*
X0658371Y0088833D01*
Y0090832D01*
X0657371Y0091832D01*
X0655372D01*
X0654372Y0090832D01*
Y0088833D01*
X0655372Y0087833D01*
X0660370D02*
Y0091832D01*
X0663369D01*
X0664369Y0090832D01*
Y0087833D01*
X0667368Y0092832D02*
Y0091832D01*
X0666368D01*
X0668367D01*
X0667368D01*
Y0088833D01*
X0668367Y0087833D01*
X0671366Y0091832D02*
Y0087833D01*
Y0089833D01*
X0672366Y0090832D01*
X0673366Y0091832D01*
X0674365D01*
X0678364Y0087833D02*
X0680364D01*
X0681363Y0088833D01*
Y0090832D01*
X0680364Y0091832D01*
X0678364D01*
X0677364Y0090832D01*
Y0088833D01*
X0678364Y0087833D01*
X0683362D02*
X0685362D01*
X0684362D01*
Y0093831D01*
X0683362D01*
X0520799Y0092832D02*
X0519799Y0093831D01*
X0517800D01*
X0516800Y0092832D01*
Y0091832D01*
X0517800Y0090832D01*
X0519799D01*
X0520799Y0089833D01*
Y0088833D01*
X0519799Y0087833D01*
X0517800D01*
X0516800Y0088833D01*
X0522798Y0093831D02*
Y0089833D01*
X0524797Y0087833D01*
X0526797Y0089833D01*
Y0093831D01*
X0528796Y0087833D02*
Y0093831D01*
X0532795Y0087833D01*
Y0093831D01*
X0540792Y0087833D02*
Y0093831D01*
X0543791D01*
X0544791Y0092832D01*
Y0090832D01*
X0543791Y0089833D01*
X0540792D01*
X0542792D02*
X0544791Y0087833D01*
X0550789Y0093831D02*
X0546790D01*
Y0087833D01*
X0550789D01*
X0546790Y0090832D02*
X0548790D01*
X0552788Y0093831D02*
Y0089833D01*
X0554788Y0087833D01*
X0556787Y0089833D01*
Y0093831D01*
X0558786Y0091832D02*
X0559786D01*
Y0090832D01*
X0558786D01*
Y0091832D01*
Y0088833D02*
X0559786D01*
Y0087833D01*
X0558786D01*
Y0088833D01*
X0433000Y0087833D02*
Y0093831D01*
X0435999D01*
X0436999Y0092832D01*
Y0090832D01*
X0435999Y0089833D01*
X0433000D01*
X0434999D02*
X0436999Y0087833D01*
X0442997Y0093831D02*
X0438998D01*
Y0087833D01*
X0442997D01*
X0438998Y0090832D02*
X0440997D01*
X0444996Y0093831D02*
Y0089833D01*
X0446995Y0087833D01*
X0448995Y0089833D01*
Y0093831D01*
X0450994Y0091832D02*
X0451994D01*
Y0090832D01*
X0450994D01*
Y0091832D01*
Y0088833D02*
X0451994D01*
Y0087833D01*
X0450994D01*
Y0088833D01*
X0126900Y0046966D02*
Y0052965D01*
X0128899Y0050965D01*
X0130899Y0052965D01*
Y0046966D01*
X0136897Y0051965D02*
X0135897Y0052965D01*
X0133898D01*
X0132898Y0051965D01*
Y0047966D01*
X0133898Y0046966D01*
X0135897D01*
X0136897Y0047966D01*
X0138896Y0052965D02*
Y0047966D01*
X0139896Y0046966D01*
X0141895D01*
X0142895Y0047966D01*
Y0052965D01*
X0144894Y0051965D02*
X0145894Y0052965D01*
X0147893D01*
X0148893Y0051965D01*
Y0047966D01*
X0147893Y0046966D01*
X0145894D01*
X0144894Y0047966D01*
Y0051965D01*
X0154891Y0046966D02*
X0150892D01*
X0154891Y0050965D01*
Y0051965D01*
X0153891Y0052965D01*
X0151892D01*
X0150892Y0051965D01*
X0160889Y0052965D02*
X0156890D01*
Y0049966D01*
X0158890Y0050965D01*
X0159889D01*
X0160889Y0049966D01*
Y0047966D01*
X0159889Y0046966D01*
X0157890D01*
X0156890Y0047966D01*
X0162888Y0046966D02*
Y0050965D01*
X0164888Y0052965D01*
X0166887Y0050965D01*
Y0046966D01*
Y0049966D01*
X0162888D01*
X0168886Y0046966D02*
Y0047966D01*
X0169886D01*
Y0046966D01*
X0168886D01*
X0177884Y0051965D02*
X0176884Y0052965D01*
X0174884D01*
X0173885Y0051965D01*
Y0047966D01*
X0174884Y0046966D01*
X0176884D01*
X0177884Y0047966D01*
Y0049966D01*
X0175884D01*
X0179883Y0052965D02*
X0183882D01*
X0181882D01*
Y0046966D01*
X0185881Y0052965D02*
Y0046966D01*
X0189880D01*
X0384149D02*
Y0052965D01*
X0381150Y0049966D01*
X0385149D01*
X0387148Y0046966D02*
X0391147Y0050965D01*
X0393146Y0046966D02*
X0395146D01*
X0394146D01*
Y0052965D01*
X0393146Y0051965D01*
X0398145D02*
X0399144Y0052965D01*
X0401144D01*
X0402143Y0051965D01*
Y0050965D01*
X0401144Y0049966D01*
X0400144D01*
X0401144D01*
X0402143Y0048966D01*
Y0047966D01*
X0401144Y0046966D01*
X0399144D01*
X0398145Y0047966D01*
X0404143Y0046966D02*
X0408141Y0050965D01*
X0414139Y0046966D02*
X0410141D01*
X0414139Y0050965D01*
Y0051965D01*
X0413140Y0052965D01*
X0411140D01*
X0410141Y0051965D01*
X0416139D02*
X0417138Y0052965D01*
X0419138D01*
X0420137Y0051965D01*
Y0047966D01*
X0419138Y0046966D01*
X0417138D01*
X0416139Y0047966D01*
Y0051965D01*
X0422137Y0046966D02*
X0424136D01*
X0423136D01*
Y0052965D01*
X0422137Y0051965D01*
X0427135D02*
X0428135Y0052965D01*
X0430134D01*
X0431134Y0051965D01*
Y0050965D01*
X0430134Y0049966D01*
X0431134Y0048966D01*
Y0047966D01*
X0430134Y0046966D01*
X0428135D01*
X0427135Y0047966D01*
Y0048966D01*
X0428135Y0049966D01*
X0427135Y0050965D01*
Y0051965D01*
X0428135Y0049966D02*
X0430134D01*
X0298199Y0051965D02*
X0297199Y0052965D01*
X0295200D01*
X0294200Y0051965D01*
Y0047966D01*
X0295200Y0046966D01*
X0297199D01*
X0298199Y0047966D01*
Y0049966D01*
X0296199D01*
X0304197Y0052965D02*
X0300198D01*
Y0046966D01*
X0304197D01*
X0300198Y0049966D02*
X0302197D01*
X0306196Y0046966D02*
Y0052965D01*
X0310195Y0046966D01*
Y0052965D01*
X0316193D02*
X0312194D01*
Y0046966D01*
X0316193D01*
X0312194Y0049966D02*
X0314194D01*
X0318192Y0046966D02*
Y0052965D01*
X0321191D01*
X0322191Y0051965D01*
Y0049966D01*
X0321191Y0048966D01*
X0318192D01*
X0320192D02*
X0322191Y0046966D01*
X0324190D02*
Y0050965D01*
X0326190Y0052965D01*
X0328189Y0050965D01*
Y0046966D01*
Y0049966D01*
X0324190D01*
X0330188Y0052965D02*
X0334187D01*
X0332188D01*
Y0046966D01*
X0340185Y0052965D02*
X0336186D01*
Y0046966D01*
X0340185D01*
X0336186Y0049966D02*
X0338186D01*
X0342184Y0052965D02*
Y0046966D01*
X0345183D01*
X0346183Y0047966D01*
Y0051965D01*
X0345183Y0052965D01*
X0342184D01*
X0372175Y0050965D02*
X0373175D01*
Y0049966D01*
X0372175D01*
Y0050965D01*
Y0047966D02*
X0373175D01*
Y0046966D01*
X0372175D01*
Y0047966D01*
X0046350Y0087833D02*
Y0091832D01*
X0048349Y0093831D01*
X0050349Y0091832D01*
Y0087833D01*
Y0090832D01*
X0046350D01*
X0052348Y0093831D02*
Y0087833D01*
X0056347D01*
X0058346Y0093831D02*
Y0087833D01*
X0062345D01*
X0070342D02*
Y0091832D01*
X0072342Y0093831D01*
X0074341Y0091832D01*
Y0087833D01*
Y0090832D01*
X0070342D01*
X0076340Y0087833D02*
Y0093831D01*
X0079339D01*
X0080339Y0092832D01*
Y0090832D01*
X0079339Y0089833D01*
X0076340D01*
X0078340D02*
X0080339Y0087833D01*
X0082338Y0093831D02*
X0086337D01*
X0084338D01*
Y0087833D01*
X0088336Y0093831D02*
Y0087833D01*
X0090336Y0089833D01*
X0092335Y0087833D01*
Y0093831D01*
X0097334D02*
X0095334D01*
X0094335Y0092832D01*
Y0088833D01*
X0095334Y0087833D01*
X0097334D01*
X0098333Y0088833D01*
Y0092832D01*
X0097334Y0093831D01*
X0100332Y0087833D02*
Y0093831D01*
X0103332D01*
X0104331Y0092832D01*
Y0090832D01*
X0103332Y0089833D01*
X0100332D01*
X0102332D02*
X0104331Y0087833D01*
X0106331Y0093831D02*
Y0087833D01*
Y0089833D01*
X0110329Y0093831D01*
X0107330Y0090832D01*
X0110329Y0087833D01*
X0118327Y0093831D02*
Y0089833D01*
X0120326Y0087833D01*
X0122325Y0089833D01*
Y0093831D01*
X0124325D02*
X0126324D01*
X0125324D01*
Y0087833D01*
X0124325D01*
X0126324D01*
X0133322Y0093831D02*
X0129323D01*
Y0087833D01*
X0133322D01*
X0129323Y0090832D02*
X0131323D01*
X0135321Y0093831D02*
Y0087833D01*
X0137321Y0089833D01*
X0139320Y0087833D01*
Y0093831D01*
X0145318D02*
X0141319D01*
Y0087833D01*
X0145318D01*
X0141319Y0090832D02*
X0143319D01*
X0147317Y0093831D02*
Y0087833D01*
X0150316D01*
X0151316Y0088833D01*
Y0092832D01*
X0150316Y0093831D01*
X0147317D01*
X0163312D02*
X0159313D01*
Y0090832D01*
X0161313D01*
X0159313D01*
Y0087833D01*
X0165312D02*
Y0093831D01*
X0168310D01*
X0169310Y0092832D01*
Y0090832D01*
X0168310Y0089833D01*
X0165312D01*
X0167311D02*
X0169310Y0087833D01*
X0174309Y0093831D02*
X0172309D01*
X0171310Y0092832D01*
Y0088833D01*
X0172309Y0087833D01*
X0174309D01*
X0175308Y0088833D01*
Y0092832D01*
X0174309Y0093831D01*
X0177308Y0087833D02*
Y0093831D01*
X0179307Y0091832D01*
X0181306Y0093831D01*
Y0087833D01*
X0189304Y0093831D02*
X0193303D01*
X0191303D01*
Y0087833D01*
X0198301Y0093831D02*
X0196301D01*
X0195302Y0092832D01*
Y0088833D01*
X0196301Y0087833D01*
X0198301D01*
X0199301Y0088833D01*
Y0092832D01*
X0198301Y0093831D01*
X0201300Y0087833D02*
Y0093831D01*
X0204299D01*
X0205299Y0092832D01*
Y0090832D01*
X0204299Y0089833D01*
X0201300D01*
X0217295Y0092832D02*
X0216295Y0093831D01*
X0214296D01*
X0213296Y0092832D01*
Y0091832D01*
X0214296Y0090832D01*
X0216295D01*
X0217295Y0089833D01*
Y0088833D01*
X0216295Y0087833D01*
X0214296D01*
X0213296Y0088833D01*
X0219294Y0093831D02*
X0221293D01*
X0220294D01*
Y0087833D01*
X0219294D01*
X0221293D01*
X0224292Y0093831D02*
Y0087833D01*
X0227291D01*
X0228291Y0088833D01*
Y0092832D01*
X0227291Y0093831D01*
X0224292D01*
X0234289D02*
X0230291D01*
Y0087833D01*
X0234289D01*
X0230291Y0090832D02*
X0232290D01*
X0462150Y0087833D02*
Y0091832D01*
X0464149Y0093831D01*
X0466149Y0091832D01*
Y0087833D01*
Y0090832D01*
X0462150D01*
X0348550Y0087833D02*
Y0093831D01*
X0350549Y0091832D01*
X0352549Y0093831D01*
Y0087833D01*
X0358547Y0092832D02*
X0357547Y0093831D01*
X0355548D01*
X0354548Y0092832D01*
Y0088833D01*
X0355548Y0087833D01*
X0357547D01*
X0358547Y0088833D01*
X0360546Y0093831D02*
Y0088833D01*
X0361546Y0087833D01*
X0363545D01*
X0364545Y0088833D01*
Y0093831D01*
X0366544Y0092832D02*
X0367544Y0093831D01*
X0369543D01*
X0370543Y0092832D01*
Y0088833D01*
X0369543Y0087833D01*
X0367544D01*
X0366544Y0088833D01*
Y0092832D01*
X0376541Y0087833D02*
X0372542D01*
X0376541Y0091832D01*
Y0092832D01*
X0375541Y0093831D01*
X0373542D01*
X0372542Y0092832D01*
X0382539Y0093831D02*
X0378540D01*
Y0090832D01*
X0380540Y0091832D01*
X0381539D01*
X0382539Y0090832D01*
Y0088833D01*
X0381539Y0087833D01*
X0379540D01*
X0378540Y0088833D01*
X0294000Y0093831D02*
Y0087833D01*
X0296999D01*
X0297999Y0088833D01*
Y0089833D01*
X0296999Y0090832D01*
X0294000D01*
X0296999D01*
X0297999Y0091832D01*
Y0092832D01*
X0296999Y0093831D01*
X0294000D01*
X0302997D02*
X0300998D01*
X0299998Y0092832D01*
Y0088833D01*
X0300998Y0087833D01*
X0302997D01*
X0303997Y0088833D01*
Y0092832D01*
X0302997Y0093831D01*
X0305996Y0087833D02*
Y0091832D01*
X0307996Y0093831D01*
X0309995Y0091832D01*
Y0087833D01*
Y0090832D01*
X0305996D01*
X0311994Y0087833D02*
Y0093831D01*
X0314993D01*
X0315993Y0092832D01*
Y0090832D01*
X0314993Y0089833D01*
X0311994D01*
X0313994D02*
X0315993Y0087833D01*
X0317992Y0093831D02*
Y0087833D01*
X0320991D01*
X0321991Y0088833D01*
Y0092832D01*
X0320991Y0093831D01*
X0317992D01*
X0330988Y0087833D02*
Y0093831D01*
X0332987D02*
Y0087833D01*
X0329988Y0091832D02*
X0332987D01*
X0333987D01*
X0329988Y0089833D02*
X0333987D01*
X0335986Y0091832D02*
X0336986D01*
Y0090832D01*
X0335986D01*
Y0091832D01*
Y0088833D02*
X0336986D01*
Y0087833D01*
X0335986D01*
Y0088833D01*
X0046350Y0073549D02*
Y0067551D01*
X0050349D01*
X0052348D02*
Y0071549D01*
X0054347Y0073549D01*
X0056347Y0071549D01*
Y0067551D01*
Y0070550D01*
X0052348D01*
X0058346Y0073549D02*
Y0072549D01*
X0060346Y0070550D01*
X0062345Y0072549D01*
Y0073549D01*
X0060346Y0070550D02*
Y0067551D01*
X0068343Y0073549D02*
X0064344D01*
Y0067551D01*
X0068343D01*
X0064344Y0070550D02*
X0066343D01*
X0070342Y0067551D02*
Y0073549D01*
X0073341D01*
X0074341Y0072549D01*
Y0070550D01*
X0073341Y0069550D01*
X0070342D01*
X0072342D02*
X0074341Y0067551D01*
X0082338D02*
Y0073549D01*
X0086337Y0067551D01*
Y0073549D01*
X0088336Y0067551D02*
Y0071549D01*
X0090336Y0073549D01*
X0092335Y0071549D01*
Y0067551D01*
Y0070550D01*
X0088336D01*
X0094335Y0067551D02*
Y0073549D01*
X0096334Y0071549D01*
X0098333Y0073549D01*
Y0067551D01*
X0104331Y0073549D02*
X0100332D01*
Y0067551D01*
X0104331D01*
X0100332Y0070550D02*
X0102332D01*
X0112329Y0069550D02*
X0116327D01*
X0112329Y0071549D02*
X0116327D01*
X0046350Y0046966D02*
Y0052965D01*
X0049349D01*
X0050349Y0051965D01*
Y0049966D01*
X0049349Y0048966D01*
X0046350D01*
X0052348Y0052965D02*
Y0046966D01*
X0056347D01*
X0061345Y0052965D02*
X0059346D01*
X0058346Y0051965D01*
Y0047966D01*
X0059346Y0046966D01*
X0061345D01*
X0062345Y0047966D01*
Y0051965D01*
X0061345Y0052965D01*
X0064344D02*
X0068343D01*
X0066343D01*
Y0046966D01*
X0076340D02*
Y0052965D01*
X0080339Y0046966D01*
Y0052965D01*
X0082338Y0046966D02*
Y0050965D01*
X0084338Y0052965D01*
X0086337Y0050965D01*
Y0046966D01*
Y0049966D01*
X0082338D01*
X0088336Y0046966D02*
Y0052965D01*
X0090336Y0050965D01*
X0092335Y0052965D01*
Y0046966D01*
X0098333Y0052965D02*
X0094335D01*
Y0046966D01*
X0098333D01*
X0094335Y0049966D02*
X0096334D01*
X0106331Y0048966D02*
X0110329D01*
X0106331Y0050965D02*
X0110329D01*
X0454050Y0051965D02*
X0455050Y0052965D01*
X0457049D01*
X0458049Y0051965D01*
Y0050965D01*
X0457049Y0049966D01*
X0458049Y0048966D01*
Y0047966D01*
X0457049Y0046966D01*
X0455050D01*
X0454050Y0047966D01*
Y0048966D01*
X0455050Y0049966D01*
X0454050Y0050965D01*
Y0051965D01*
X0455050Y0049966D02*
X0457049D01*
X0460048Y0050965D02*
X0461048D01*
Y0049966D01*
X0460048D01*
Y0050965D01*
Y0047966D02*
X0461048D01*
Y0046966D01*
X0460048D01*
Y0047966D01*
X0468046Y0046966D02*
Y0052965D01*
X0465046Y0049966D01*
X0469045D01*
X0471044Y0052965D02*
X0475043D01*
Y0051965D01*
X0471044Y0047966D01*
Y0046966D01*
X0477043Y0050965D02*
X0478042D01*
Y0049966D01*
X0477043D01*
Y0050965D01*
Y0047966D02*
X0478042D01*
Y0046966D01*
X0477043D01*
Y0047966D01*
X0482041Y0051965D02*
X0483041Y0052965D01*
X0485040D01*
X0486040Y0051965D01*
Y0047966D01*
X0485040Y0046966D01*
X0483041D01*
X0482041Y0047966D01*
Y0051965D01*
X0488039Y0047966D02*
X0489039Y0046966D01*
X0491038D01*
X0492038Y0047966D01*
Y0051965D01*
X0491038Y0052965D01*
X0489039D01*
X0488039Y0051965D01*
Y0050965D01*
X0489039Y0049966D01*
X0492038D01*
X0500035Y0046966D02*
Y0050965D01*
X0502035Y0052965D01*
X0504034Y0050965D01*
Y0046966D01*
Y0049966D01*
X0500035D01*
X0506033Y0046966D02*
Y0052965D01*
X0508033Y0050965D01*
X0510032Y0052965D01*
Y0046966D01*
X0580500Y0052965D02*
X0584499D01*
X0582499D01*
Y0046966D01*
X0590497Y0052965D02*
X0586498D01*
Y0046966D01*
X0590497D01*
X0586498Y0049966D02*
X0588497D01*
X0592496Y0052965D02*
X0596495Y0046966D01*
Y0052965D02*
X0592496Y0046966D01*
X0598494D02*
Y0050965D01*
X0600493Y0052965D01*
X0602493Y0050965D01*
Y0046966D01*
Y0049966D01*
X0598494D01*
X0608491Y0051965D02*
X0607491Y0052965D01*
X0605492D01*
X0604492Y0051965D01*
Y0050965D01*
X0605492Y0049966D01*
X0607491D01*
X0608491Y0048966D01*
Y0047966D01*
X0607491Y0046966D01*
X0605492D01*
X0604492Y0047966D01*
X0616488Y0052965D02*
X0618488D01*
X0617488D01*
Y0046966D01*
X0616488D01*
X0618488D01*
X0621487D02*
Y0052965D01*
X0625486Y0046966D01*
Y0052965D01*
X0631484Y0051965D02*
X0630484Y0052965D01*
X0628484D01*
X0627485Y0051965D01*
Y0050965D01*
X0628484Y0049966D01*
X0630484D01*
X0631484Y0048966D01*
Y0047966D01*
X0630484Y0046966D01*
X0628484D01*
X0627485Y0047966D01*
X0633483Y0052965D02*
X0637482D01*
X0635482D01*
Y0046966D01*
X0639481D02*
Y0052965D01*
X0642480D01*
X0643480Y0051965D01*
Y0049966D01*
X0642480Y0048966D01*
X0639481D01*
X0641480D02*
X0643480Y0046966D01*
X0645479Y0052965D02*
Y0047966D01*
X0646479Y0046966D01*
X0648478D01*
X0649478Y0047966D01*
Y0052965D01*
X0651477Y0046966D02*
Y0052965D01*
X0653476Y0050965D01*
X0655476Y0052965D01*
Y0046966D01*
X0661474Y0052965D02*
X0657475D01*
Y0046966D01*
X0661474D01*
X0657475Y0049966D02*
X0659474D01*
X0663473Y0046966D02*
Y0052965D01*
X0667472Y0046966D01*
Y0052965D01*
X0669471D02*
X0673470D01*
X0671471D01*
Y0046966D01*
X0679468Y0051965D02*
X0678468Y0052965D01*
X0676469D01*
X0675469Y0051965D01*
Y0050965D01*
X0676469Y0049966D01*
X0678468D01*
X0679468Y0048966D01*
Y0047966D01*
X0678468Y0046966D01*
X0676469D01*
X0675469Y0047966D01*
X0294000Y0073498D02*
X0297999D01*
X0295999D01*
Y0067500D01*
X0299998Y0073498D02*
X0301997D01*
X0300998D01*
Y0067500D01*
X0299998D01*
X0301997D01*
X0304996Y0073498D02*
Y0067500D01*
X0307996D01*
X0308995Y0068500D01*
Y0072498D01*
X0307996Y0073498D01*
X0304996D01*
X0317992Y0067500D02*
Y0073498D01*
X0319992D02*
Y0067500D01*
X0316993Y0071499D02*
X0319992D01*
X0320991D01*
X0316993Y0069499D02*
X0320991D01*
X0322991Y0071499D02*
X0323990D01*
Y0070499D01*
X0322991D01*
Y0071499D01*
Y0068500D02*
X0323990D01*
Y0067500D01*
X0322991D01*
Y0068500D01*
X0348550Y0067500D02*
Y0073498D01*
X0352549Y0067500D01*
Y0073498D01*
X0354548Y0067500D02*
X0358547Y0071499D01*
X0360546Y0067500D02*
Y0071499D01*
X0362545Y0073498D01*
X0364545Y0071499D01*
Y0067500D01*
Y0070499D01*
X0360546D01*
X0127200Y0067400D02*
Y0073398D01*
X0129199Y0071399D01*
X0131199Y0073398D01*
Y0067400D01*
X0133198D02*
X0135197D01*
X0134198D01*
Y0073398D01*
X0133198Y0072398D01*
X0138196Y0067400D02*
X0140196D01*
X0139196D01*
Y0073398D01*
X0138196Y0072398D01*
X0153192D02*
X0152192Y0073398D01*
X0150193D01*
X0149193Y0072398D01*
Y0068400D01*
X0150193Y0067400D01*
X0152192D01*
X0153192Y0068400D01*
Y0070399D01*
X0151192D01*
X0158190Y0067400D02*
X0156191D01*
X0155191Y0068400D01*
Y0070399D01*
X0156191Y0071399D01*
X0158190D01*
X0159190Y0070399D01*
Y0069399D01*
X0155191D01*
X0161189Y0071399D02*
Y0067400D01*
Y0069399D01*
X0162189Y0070399D01*
X0163188Y0071399D01*
X0164188D01*
X0167187Y0073398D02*
Y0067400D01*
X0170186D01*
X0171186Y0068400D01*
Y0069399D01*
Y0070399D01*
X0170186Y0071399D01*
X0167187D01*
X0176184Y0067400D02*
X0174185D01*
X0173185Y0068400D01*
Y0070399D01*
X0174185Y0071399D01*
X0176184D01*
X0177184Y0070399D01*
Y0069399D01*
X0173185D01*
X0179183Y0071399D02*
Y0067400D01*
Y0069399D01*
X0180183Y0070399D01*
X0181183Y0071399D01*
X0182182D01*
X0191179Y0073398D02*
X0193179D01*
X0192179D01*
Y0067400D01*
X0191179D01*
X0193179D01*
X0196178D02*
Y0071399D01*
X0199177D01*
X0200176Y0070399D01*
Y0067400D01*
X0203175D02*
Y0072398D01*
Y0070399D01*
X0202176D01*
X0204175D01*
X0203175D01*
Y0072398D01*
X0204175Y0073398D01*
X0208174Y0067400D02*
X0210173D01*
X0211173Y0068400D01*
Y0070399D01*
X0210173Y0071399D01*
X0208174D01*
X0207174Y0070399D01*
Y0068400D01*
X0208174Y0067400D01*
X0213172Y0071399D02*
Y0067400D01*
Y0069399D01*
X0214172Y0070399D01*
X0215172Y0071399D01*
X0216171D01*
X0219170Y0067400D02*
Y0071399D01*
X0220170D01*
X0221170Y0070399D01*
Y0067400D01*
Y0070399D01*
X0222169Y0071399D01*
X0223169Y0070399D01*
Y0067400D01*
X0226168Y0071399D02*
X0228167D01*
X0229167Y0070399D01*
Y0067400D01*
X0226168D01*
X0225168Y0068400D01*
X0226168Y0069399D01*
X0229167D01*
X0232166Y0072398D02*
Y0071399D01*
X0231166D01*
X0233166D01*
X0232166D01*
Y0068400D01*
X0233166Y0067400D01*
X0236165D02*
X0238164D01*
X0237164D01*
Y0071399D01*
X0236165D01*
X0242163Y0067400D02*
X0244162D01*
X0245162Y0068400D01*
Y0070399D01*
X0244162Y0071399D01*
X0242163D01*
X0241163Y0070399D01*
Y0068400D01*
X0242163Y0067400D01*
X0247161D02*
Y0071399D01*
X0250160D01*
X0251160Y0070399D01*
Y0067400D01*
G54D50*
X0172700Y0458955D02*
Y0459900D01*
Y0458955D02*
X0175222Y0456433D01*
X0161018Y0410382D02*
X0161100Y0410300D01*
X0161018Y0410382D02*
X0161100Y0410300D01*
X0210384Y0445800D02*
X0210600D01*
X0207098Y0442514D02*
X0210384Y0445800D01*
X0157262Y0406462D02*
X0161100Y0410300D01*
X0173830Y0389759D02*
X0177471Y0393400D01*
X0177200Y0457400D02*
X0179200Y0455400D01*
Y0453741D02*
Y0455400D01*
X0095200Y0736250D02*
X0095350Y0736400D01*
X0124062Y0696900D02*
X0134499D01*
X0124062Y0701900D02*
X0134499D01*
X0220038Y0385362D02*
X0221543Y0383857D01*
X0157127Y0406462D02*
X0157262D01*
X0165478Y0446689D02*
X0169200Y0442968D01*
Y0442400D02*
Y0442968D01*
X0220500Y0382814D02*
X0221543Y0383857D01*
X0220500Y0380700D02*
Y0382814D01*
X0216841Y0412030D02*
X0221471Y0407400D01*
X0222200D01*
X0497200Y0080717D02*
Y0101050D01*
X0413200Y0080717D02*
Y0101050D01*
X0040000Y0080717D02*
X0700200D01*
X0040000Y0060383D02*
X0700000D01*
X0040000Y0040050D02*
X0440500D01*
X0040050Y0101050D02*
X0700200D01*
X0040050Y0040050D02*
Y0101050D01*
Y0040050D02*
X0197600D01*
X0040000D02*
Y0101050D01*
X0286500Y0040050D02*
Y0101050D01*
X0700200Y0040050D02*
Y0101050D01*
X0440500Y0040050D02*
X0700200D01*
X0559400Y0039400D02*
Y0059683D01*
G54D51*
X0171500Y0384800D02*
X0171655D01*
X0218200Y0405400D02*
X0222700Y0400900D01*
Y0398400D02*
Y0400900D01*
X0245385Y0721085D02*
X0259515D01*
X0217700Y0693400D02*
X0245385Y0721085D01*
X0205200Y0693400D02*
X0217700D01*
X0244560Y0722660D02*
X0259515D01*
X0219300Y0697400D02*
X0244560Y0722660D01*
X0208200Y0697400D02*
X0219300D01*
X0276500Y0710000D02*
Y0710200D01*
X0272878Y0713822D02*
X0276500Y0710200D01*
X0265600Y0713822D02*
X0272878D01*
X0264989Y0713211D02*
X0265600Y0713822D01*
X0259515Y0713211D02*
X0264989D01*
X0270000Y0716000D02*
Y0718700D01*
Y0716000D02*
X0270100Y0715900D01*
X0265200Y0715400D02*
X0269600D01*
X0270100Y0715900D01*
X0245562Y0664400D02*
Y0671292D01*
X0180700Y0701900D02*
X0181200Y0702400D01*
X0180700Y0701900D02*
X0181200Y0702400D01*
X0180700Y0701900D02*
X0181200Y0702400D01*
X0180700Y0701900D02*
X0181200Y0702400D01*
X0180700Y0696900D02*
X0181200Y0696400D01*
X0180700Y0696900D02*
X0181200Y0696400D01*
X0180700Y0696900D02*
X0181200Y0696400D01*
X0180700Y0696900D02*
X0181200Y0696400D01*
X0185200Y0702400D02*
X0188200Y0699400D01*
X0185200Y0702400D02*
X0185381Y0702219D01*
X0180700Y0696900D02*
X0181200Y0696400D01*
X0180700Y0701900D02*
X0181200Y0702400D01*
X0171901Y0701900D02*
X0180700D01*
X0185200Y0702400D02*
X0185381Y0702219D01*
X0171901Y0696900D02*
X0180700D01*
X0263200Y0751762D02*
Y0758400D01*
X0263885Y0681715D02*
X0264200Y0681400D01*
X0259515Y0681715D02*
X0263885D01*
X0202885Y0721085D02*
X0203200Y0721400D01*
X0198885Y0721085D02*
X0202885D01*
X0195940Y0722660D02*
X0198885D01*
X0204389Y0713211D02*
X0207200Y0710400D01*
X0198885Y0713211D02*
X0204389D01*
X0190200Y0697400D02*
X0194200D01*
X0189200Y0696400D02*
X0190200Y0697400D01*
X0188200Y0699400D02*
X0189200D01*
X0185562Y0696400D02*
X0189200D01*
X0185200D02*
X0185562D01*
X0255436Y0711636D02*
X0259515D01*
X0264586Y0714786D02*
X0265200Y0715400D01*
X0259515Y0714786D02*
X0264586D01*
X0201200Y0439400D02*
X0205706Y0443906D01*
X0214000Y0430200D02*
X0216570Y0432770D01*
X0216841D01*
X0171655Y0384800D02*
X0175222Y0388367D01*
X0214057Y0409246D02*
X0216288Y0407016D01*
X0212665Y0407854D02*
X0215120Y0405400D01*
X0218200D01*
X0216288Y0407016D02*
X0219584D01*
X0228522Y0398078D01*
X0199200Y0232388D02*
X0199598Y0232786D01*
X0255400Y0711600D02*
X0255436Y0711636D01*
X0254800Y0711600D02*
X0255400D01*
X0199200Y0232388D02*
X0199700Y0231888D01*
X0199600Y0231988D02*
Y0237600D01*
X0218562Y0193400D02*
X0219062D01*
X0219200Y0193262D01*
Y0189400D02*
Y0193262D01*
X0136700Y0189400D02*
Y0193400D01*
X0147700D02*
X0148200Y0192900D01*
Y0189400D02*
Y0192900D01*
X0158700Y0189400D02*
Y0193400D01*
X0214000Y0428900D02*
Y0430200D01*
X0225263Y0725963D02*
Y0731715D01*
X0225200Y0725900D02*
X0225263Y0725963D01*
X0209700Y0416400D02*
Y0416900D01*
Y0416400D02*
X0212700Y0413400D01*
X0212694Y0413394D02*
X0215449Y0410638D01*
X0199200Y0439400D02*
X0201200D01*
X0188700Y0729900D02*
X0195940Y0722660D01*
X0207562Y0189538D02*
X0207700Y0189400D01*
X0207562Y0189538D02*
Y0193400D01*
X0196062Y0189538D02*
Y0193400D01*
Y0189538D02*
X0196200Y0189400D01*
X0190562Y0754762D02*
X0192200Y0756400D01*
X0185700Y0754762D02*
X0190562D01*
X0201838D02*
X0206700D01*
X0200200Y0756400D02*
X0201838Y0754762D01*
X0188700Y0729900D02*
Y0742400D01*
X0185700Y0745400D02*
X0188700Y0742400D01*
X0185700Y0745400D02*
Y0748900D01*
X0186200Y0749400D01*
X0206200Y0750400D02*
X0206700Y0749900D01*
X0203200Y0741900D02*
X0206700Y0745400D01*
X0203200Y0721400D02*
Y0741900D01*
X0206700Y0745400D02*
Y0749900D01*
G54D52*
X0110700Y0721900D02*
X0134499D01*
X0128350Y0736550D02*
Y0740400D01*
X0125200Y0726762D02*
X0134361D01*
X0115200D02*
X0125200D01*
X0134361D02*
X0134499Y0726900D01*
X0095350Y0742400D02*
X0106661D01*
X0134499Y0726900D02*
X0140900D01*
X0134499Y0721900D02*
X0140800D01*
X0127700Y0735900D02*
X0128350Y0736550D01*
X0135200Y0738400D02*
Y0743038D01*
X0140200Y0738400D02*
Y0743038D01*
G54D53*
X0077200Y0718038D02*
X0085838D01*
X0111200Y0726400D02*
X0111476D01*
X0111838Y0726762D01*
X0115200D01*
X0134200Y0681274D02*
Y0686400D01*
X0078838Y0706200D02*
Y0711038D01*
X0080688Y0712888D01*
X0082361D01*
X0106661Y0742400D02*
X0108582Y0744321D01*
Y0748219D01*
X0130562Y0647038D02*
Y0647400D01*
Y0647038D02*
X0132200Y0645400D01*
Y0641400D02*
Y0645400D01*
X0134074Y0681400D02*
X0134200Y0681274D01*
X0125700Y0681400D02*
X0134074D01*
X0134200Y0681274D02*
X0134326Y0681400D01*
X0142200D01*
X0134499Y0691900D02*
X0134599Y0691800D01*
X0140900D01*
X0078800Y0701200D02*
X0078838Y0701162D01*
Y0696400D02*
Y0701162D01*
Y0701200D02*
Y0701300D01*
Y0706200D01*
X0095200Y0731400D02*
Y0736250D01*
X0127700Y0691900D02*
X0134499D01*
G54D54*
X0090039Y0710561D02*
Y0712888D01*
X0113581Y0748100D02*
X0113700Y0748219D01*
X0122050Y0740400D02*
Y0741550D01*
X0118818Y0744782D02*
X0122050Y0741550D01*
X0118818Y0744782D02*
Y0748219D01*
X0084921Y0710180D02*
Y0712888D01*
Y0710180D02*
X0085700Y0709400D01*
X0083562Y0706400D02*
X0083662Y0706300D01*
X0087900D01*
X0087480Y0723912D02*
X0088700Y0725132D01*
Y0725250D02*
X0090039Y0723912D01*
X0088700Y0725250D02*
Y0727400D01*
Y0725132D02*
Y0725250D01*
X0085700Y0709400D02*
X0086700D01*
G54D55*
X0094200Y0228400D02*
D03*
Y0258400D02*
D03*
Y0268400D02*
D03*
Y0238400D02*
D03*
Y0248400D02*
D03*
X0104200Y0228400D02*
D03*
Y0238400D02*
D03*
Y0248400D02*
D03*
Y0258400D02*
D03*
Y0268400D02*
D03*
X0094200Y0298400D02*
D03*
Y0278400D02*
D03*
Y0288400D02*
D03*
Y0308400D02*
D03*
X0104200Y0298400D02*
D03*
Y0308400D02*
D03*
Y0278400D02*
D03*
Y0288400D02*
D03*
Y0318400D02*
D03*
X0264200Y0228400D02*
D03*
Y0248400D02*
D03*
Y0238400D02*
D03*
X0274200Y0248400D02*
D03*
X0264200Y0258400D02*
D03*
Y0278400D02*
D03*
Y0268400D02*
D03*
Y0288400D02*
D03*
Y0308400D02*
D03*
Y0298400D02*
D03*
X0274200Y0228400D02*
D03*
Y0238400D02*
D03*
Y0268400D02*
D03*
Y0258400D02*
D03*
Y0278400D02*
D03*
Y0298400D02*
D03*
Y0288400D02*
D03*
Y0308400D02*
D03*
X0264200Y0318400D02*
D03*
X0274200D02*
D03*
X0264200Y0568400D02*
D03*
Y0558400D02*
D03*
Y0548400D02*
D03*
Y0538400D02*
D03*
Y0528400D02*
D03*
Y0518400D02*
D03*
Y0508400D02*
D03*
Y0498400D02*
D03*
Y0488400D02*
D03*
Y0478400D02*
D03*
X0274200Y0568400D02*
D03*
Y0558400D02*
D03*
Y0548400D02*
D03*
Y0538400D02*
D03*
Y0528400D02*
D03*
Y0518400D02*
D03*
Y0508400D02*
D03*
Y0498400D02*
D03*
Y0488400D02*
D03*
Y0478400D02*
D03*
X0094200Y0558400D02*
D03*
Y0548400D02*
D03*
Y0538400D02*
D03*
Y0528400D02*
D03*
Y0518400D02*
D03*
Y0508400D02*
D03*
Y0498400D02*
D03*
Y0488400D02*
D03*
Y0478400D02*
D03*
X0104200Y0568400D02*
D03*
Y0558400D02*
D03*
Y0548400D02*
D03*
Y0538400D02*
D03*
Y0528400D02*
D03*
Y0518400D02*
D03*
Y0508400D02*
D03*
Y0498400D02*
D03*
Y0488400D02*
D03*
Y0478400D02*
D03*
G54D56*
X0094200Y0318400D02*
D03*
Y0568400D02*
D03*
G54D57*
X0289200Y0163400D02*
D03*
X0079200D02*
D03*
X0289200Y0758400D02*
D03*
X0079200D02*
D03*
G54D58*
X0129251Y0758691D02*
D03*
X0098149D02*
D03*
G54D59*
X0287200Y0734400D02*
D03*
X0283200Y0704400D02*
D03*
X0291200D02*
D03*
G54D60*
X0276700Y0340400D02*
D03*
X0219200Y0347400D02*
D03*
X0225200Y0445400D02*
D03*
X0134200Y0438400D02*
D03*
X0161200Y0379400D02*
D03*
X0175200Y0215400D02*
D03*
G54D61*
X0194200Y0618400D02*
D03*
X0154200Y0178500D02*
D03*
X0214200D02*
D03*
G54D62*
X0194200Y0608400D02*
D03*
X0184200Y0618400D02*
D03*
Y0608400D02*
D03*
X0174200Y0618400D02*
D03*
Y0608400D02*
D03*
X0164200Y0618400D02*
D03*
Y0608400D02*
D03*
X0100200Y0668400D02*
D03*
X0094200Y0198400D02*
D03*
Y0208400D02*
D03*
X0274200Y0198400D02*
D03*
Y0208400D02*
D03*
X0094200Y0448400D02*
D03*
Y0458400D02*
D03*
X0274200Y0448400D02*
D03*
Y0458400D02*
D03*
X0086200Y0668400D02*
D03*
X0114200D02*
D03*
X0274200Y0388400D02*
D03*
X0264200Y0378400D02*
D03*
X0274200D02*
D03*
X0264200Y0368400D02*
D03*
X0274200D02*
D03*
X0264200Y0358400D02*
D03*
X0274200D02*
D03*
X0104200Y0598400D02*
D03*
X0094200Y0398400D02*
D03*
X0144200Y0178400D02*
D03*
X0134200D02*
D03*
X0124200D02*
D03*
X0114200D02*
D03*
X0204200D02*
D03*
X0194200D02*
D03*
X0184200D02*
D03*
X0174200D02*
D03*
X0244200D02*
D03*
X0234200D02*
D03*
X0104200Y0348400D02*
D03*
X0094200Y0338400D02*
D03*
X0104200D02*
D03*
G54D63*
X0100200Y0678400D02*
D03*
X0094200Y0188400D02*
D03*
X0274200D02*
D03*
X0094200Y0438400D02*
D03*
X0274200D02*
D03*
X0086200Y0678400D02*
D03*
X0114200D02*
D03*
X0104200Y0588400D02*
D03*
X0094200Y0408400D02*
D03*
G54D64*
X0264200Y0388400D02*
D03*
X0094200Y0348400D02*
D03*
G54D65*
X0254200Y0178400D02*
D03*
G54D66*
X0176200Y0562400D02*
D03*
X0187200D02*
D03*
X0230200Y0554400D02*
D03*
X0241200Y0558400D02*
D03*
X0146200Y0545400D02*
D03*
X0171050Y0577414D02*
D03*
Y0538886D02*
D03*
X0181700Y0573900D02*
D03*
X0185700Y0539400D02*
D03*
X0180200Y0538400D02*
D03*
X0167200Y0549400D02*
D03*
X0234200Y0634900D02*
D03*
X0248200Y0630400D02*
D03*
X0239200Y0652400D02*
D03*
X0234200D02*
D03*
X0224200D02*
D03*
X0213200Y0634900D02*
D03*
X0244200Y0635900D02*
D03*
X0191200Y0270400D02*
D03*
X0170200Y0298834D02*
D03*
X0192700Y0289900D02*
D03*
X0163700Y0278400D02*
D03*
X0166200Y0286400D02*
D03*
X0163200Y0253400D02*
D03*
X0163700Y0239400D02*
D03*
X0150700Y0308900D02*
D03*
X0145200Y0237400D02*
D03*
X0149700Y0242900D02*
D03*
X0111700Y0264900D02*
D03*
X0175700Y0248400D02*
D03*
X0248200Y0325400D02*
D03*
X0246700Y0311400D02*
D03*
X0256700Y0283400D02*
D03*
X0256200Y0272900D02*
D03*
X0224200Y0258400D02*
D03*
X0172700Y0459900D02*
D03*
Y0423400D02*
D03*
X0224200Y0280400D02*
D03*
X0228200Y0548400D02*
D03*
X0255200Y0547400D02*
D03*
X0249200Y0358400D02*
D03*
X0115200Y0302400D02*
D03*
X0118200Y0294400D02*
D03*
X0250200Y0524400D02*
D03*
X0197200Y0370400D02*
D03*
X0192200Y0368400D02*
D03*
X0198000Y0385700D02*
D03*
X0197200Y0377400D02*
D03*
X0199600Y0261000D02*
D03*
X0152200Y0520400D02*
D03*
X0177200Y0393400D02*
D03*
X0203200Y0415400D02*
D03*
X0201100Y0417800D02*
D03*
X0198200Y0422400D02*
D03*
X0195200Y0417400D02*
D03*
X0186700Y0285600D02*
D03*
X0186800Y0261100D02*
D03*
X0175200Y0379700D02*
D03*
X0171500Y0384800D02*
D03*
X0162200Y0415400D02*
D03*
X0152200Y0445400D02*
D03*
X0218200Y0651400D02*
D03*
X0209200Y0662400D02*
D03*
X0230700Y0538400D02*
D03*
X0248200Y0488400D02*
D03*
X0246200Y0470400D02*
D03*
X0161100Y0410300D02*
D03*
X0144900Y0408400D02*
D03*
X0243500Y0716300D02*
D03*
X0272200Y0742400D02*
D03*
X0151000Y0439200D02*
D03*
X0142600Y0665500D02*
D03*
X0125600D02*
D03*
X0134500Y0660600D02*
D03*
X0117000Y0741000D02*
D03*
X0163200Y0283400D02*
D03*
X0114800Y0650500D02*
D03*
X0243200Y0710700D02*
D03*
Y0705800D02*
D03*
X0210600Y0445800D02*
D03*
X0226100Y0410400D02*
D03*
X0171800Y0398800D02*
D03*
X0243700Y0683400D02*
D03*
X0214600D02*
D03*
X0208000Y0724700D02*
D03*
X0192700Y0718400D02*
D03*
X0213200Y0699300D02*
D03*
X0218700Y0717400D02*
D03*
Y0712400D02*
D03*
X0128200Y0634600D02*
D03*
X0223300Y0293300D02*
D03*
Y0288300D02*
D03*
X0163700Y0451900D02*
D03*
X0160200Y0449400D02*
D03*
X0157200Y0445900D02*
D03*
X0187200Y0713400D02*
D03*
X0216700Y0589900D02*
D03*
X0237200D02*
D03*
X0130200Y0239900D02*
D03*
X0156200Y0400400D02*
D03*
X0151200Y0305400D02*
D03*
Y0298400D02*
D03*
X0170200Y0318400D02*
D03*
X0199200Y0338400D02*
D03*
X0192700Y0362400D02*
D03*
X0238200Y0374400D02*
D03*
X0195200Y0380400D02*
D03*
X0196200Y0383400D02*
D03*
X0140200Y0504400D02*
D03*
X0151200Y0404400D02*
D03*
X0207200Y0451400D02*
D03*
X0183200Y0228400D02*
D03*
X0287700Y0579900D02*
D03*
X0288200Y0607400D02*
D03*
X0275200Y0705400D02*
D03*
X0270200D02*
D03*
X0280200Y0714400D02*
D03*
X0270200Y0723400D02*
D03*
X0111200Y0726400D02*
D03*
X0186200Y0357400D02*
D03*
X0200200Y0409400D02*
D03*
X0203200D02*
D03*
X0193200Y0422400D02*
D03*
X0204200Y0375400D02*
D03*
X0202200Y0372400D02*
D03*
X0191200Y0408400D02*
D03*
X0177200Y0276400D02*
D03*
X0159200Y0422400D02*
D03*
X0260200Y0737400D02*
D03*
X0249200Y0736400D02*
D03*
X0257200Y0739400D02*
D03*
X0281200Y0724400D02*
D03*
X0260200Y0728400D02*
D03*
X0264200Y0685400D02*
D03*
Y0681400D02*
D03*
X0235200Y0724400D02*
D03*
X0230200Y0736400D02*
D03*
X0227200D02*
D03*
X0207200Y0710400D02*
D03*
X0194200Y0697400D02*
D03*
X0208200D02*
D03*
X0189200Y0699400D02*
D03*
X0205200Y0693400D02*
D03*
X0204161Y0716361D02*
D03*
X0193200Y0703400D02*
D03*
X0178400Y0722000D02*
D03*
X0190700Y0722400D02*
D03*
X0186200Y0727400D02*
D03*
X0204200Y0702400D02*
D03*
X0293200Y0729400D02*
D03*
Y0709400D02*
D03*
Y0719400D02*
D03*
X0215200Y0234900D02*
D03*
X0201157Y0275443D02*
D03*
X0163157D02*
D03*
X0176200Y0450400D02*
D03*
X0179200Y0453741D02*
D03*
X0090039Y0710561D02*
D03*
X0113200Y0702400D02*
D03*
X0134200Y0686400D02*
D03*
X0113581Y0743400D02*
D03*
X0110700Y0721900D02*
D03*
X0263200Y0758400D02*
D03*
X0169200Y0387400D02*
D03*
X0156200Y0422400D02*
D03*
X0153200Y0419400D02*
D03*
X0214200Y0285400D02*
D03*
X0194200Y0262400D02*
D03*
X0189200Y0263400D02*
D03*
X0215200Y0276400D02*
D03*
X0234200Y0271400D02*
D03*
X0232200Y0268400D02*
D03*
X0182300Y0470400D02*
D03*
X0185200Y0469400D02*
D03*
X0212200Y0400400D02*
D03*
X0230200Y0421400D02*
D03*
X0232200Y0418400D02*
D03*
X0209200Y0412400D02*
D03*
X0206200Y0410400D02*
D03*
X0229200Y0390400D02*
D03*
X0280200Y0585400D02*
D03*
X0209200Y0458400D02*
D03*
X0227200Y0437400D02*
D03*
X0210074Y0451619D02*
D03*
X0189200Y0480400D02*
D03*
X0193200D02*
D03*
X0187200Y0488400D02*
D03*
X0221200Y0479400D02*
D03*
X0233200Y0483400D02*
D03*
X0244200Y0553400D02*
D03*
X0254700Y0565400D02*
D03*
X0169200Y0551900D02*
D03*
X0206200Y0651400D02*
D03*
X0209200Y0646400D02*
D03*
X0212700Y0645400D02*
D03*
X0211200Y0659400D02*
D03*
X0213200Y0656400D02*
D03*
X0216200Y0665400D02*
D03*
X0288200Y0650400D02*
D03*
X0105800Y0641700D02*
D03*
X0122200Y0644400D02*
D03*
X0128200Y0626400D02*
D03*
X0180200Y0488400D02*
D03*
X0140850Y0261250D02*
D03*
X0104200Y0468400D02*
D03*
X0120200Y0457400D02*
D03*
X0150200Y0484400D02*
D03*
X0225200Y0250900D02*
D03*
X0230200D02*
D03*
X0227200Y0666400D02*
D03*
X0214200Y0675900D02*
D03*
Y0727100D02*
D03*
X0233100Y0675700D02*
D03*
X0239400D02*
D03*
X0244200D02*
D03*
X0254700Y0678600D02*
D03*
X0254800Y0698900D02*
D03*
Y0711600D02*
D03*
X0254600Y0716300D02*
D03*
X0247300Y0726800D02*
D03*
X0202200Y0454200D02*
D03*
X0228400Y0675900D02*
D03*
X0254800Y0683300D02*
D03*
X0203500D02*
D03*
X0205200Y0406900D02*
D03*
X0158700Y0411900D02*
D03*
X0264300Y0700600D02*
D03*
X0253600Y0666500D02*
D03*
X0180400Y0259000D02*
D03*
X0193700Y0710900D02*
D03*
X0153200Y0374400D02*
D03*
X0162200Y0357400D02*
D03*
X0169200Y0351400D02*
D03*
X0153200Y0358400D02*
D03*
X0169200Y0367400D02*
D03*
X0158200Y0373400D02*
D03*
X0139700Y0304400D02*
D03*
X0123700Y0254300D02*
D03*
X0180300Y0243300D02*
D03*
X0187800Y0243100D02*
D03*
X0207600Y0255300D02*
D03*
X0199600Y0221000D02*
D03*
Y0237600D02*
D03*
X0149700Y0538400D02*
D03*
X0178200Y0595900D02*
D03*
X0201200Y0459400D02*
D03*
X0197200Y0434900D02*
D03*
X0243700Y0285900D02*
D03*
X0205396Y0196081D02*
D03*
X0219200Y0189400D02*
D03*
X0223700Y0199400D02*
D03*
X0193700Y0196400D02*
D03*
X0134200D02*
D03*
X0145200D02*
D03*
X0136700Y0189400D02*
D03*
X0148200D02*
D03*
X0158700D02*
D03*
X0163200Y0199400D02*
D03*
X0192700Y0285400D02*
D03*
X0236400Y0415500D02*
D03*
X0203400Y0469500D02*
D03*
X0198100D02*
D03*
X0213400Y0443400D02*
D03*
X0114200Y0696400D02*
D03*
X0125700Y0681400D02*
D03*
X0142200D02*
D03*
X0140900Y0726900D02*
D03*
X0140800Y0721900D02*
D03*
X0140900Y0691800D02*
D03*
X0095200Y0731400D02*
D03*
X0127700Y0735900D02*
D03*
X0135200Y0738400D02*
D03*
X0140200D02*
D03*
X0087900Y0706300D02*
D03*
X0133200Y0549800D02*
D03*
X0139300D02*
D03*
X0136400Y0503300D02*
D03*
X0131600Y0498400D02*
D03*
X0136200Y0487500D02*
D03*
X0145200Y0492600D02*
D03*
Y0476500D02*
D03*
X0169200Y0442400D02*
D03*
X0169700Y0430400D02*
D03*
X0174700Y0436400D02*
D03*
X0172700Y0405400D02*
D03*
X0178200Y0420000D02*
D03*
X0199800Y0425900D02*
D03*
X0211100Y0431800D02*
D03*
X0214000Y0428900D02*
D03*
X0230700Y0510400D02*
D03*
X0228200Y0514900D02*
D03*
X0240200Y0504400D02*
D03*
X0239700Y0478400D02*
D03*
X0246200Y0508400D02*
D03*
X0222700Y0398400D02*
D03*
X0220800Y0389700D02*
D03*
X0220500Y0380700D02*
D03*
X0231700Y0375400D02*
D03*
X0235200Y0376900D02*
D03*
X0232500Y0389600D02*
D03*
X0236200Y0401400D02*
D03*
X0222200Y0407400D02*
D03*
X0189200Y0343900D02*
D03*
X0195200D02*
D03*
X0189200Y0329400D02*
D03*
X0195200D02*
D03*
X0157200Y0320900D02*
D03*
X0189200Y0319400D02*
D03*
X0195200D02*
D03*
X0189200Y0304900D02*
D03*
X0194700D02*
D03*
X0204200Y0349400D02*
D03*
X0202200Y0329900D02*
D03*
X0145700Y0256400D02*
D03*
Y0272400D02*
D03*
X0185700Y0389400D02*
D03*
X0185200Y0402400D02*
D03*
X0124200Y0377900D02*
D03*
X0121200Y0379900D02*
D03*
X0165700Y0415900D02*
D03*
X0225200Y0725900D02*
D03*
X0265200Y0710900D02*
D03*
Y0717900D02*
D03*
X0241200Y0234900D02*
D03*
X0127200Y0419400D02*
D03*
Y0435400D02*
D03*
X0138200Y0430400D02*
D03*
X0121200Y0418900D02*
D03*
X0209700Y0416900D02*
D03*
X0212700Y0419900D02*
D03*
X0193700Y0439900D02*
D03*
X0202700Y0436900D02*
D03*
X0199200Y0439400D02*
D03*
X0166200Y0462900D02*
D03*
X0228200Y0581400D02*
D03*
X0226700Y0578900D02*
D03*
X0239700Y0591400D02*
D03*
X0213700Y0590900D02*
D03*
X0278200Y0618400D02*
D03*
X0290200D02*
D03*
X0283200Y0628900D02*
D03*
X0287200D02*
D03*
X0282200Y0631900D02*
D03*
X0287700D02*
D03*
X0290200Y0638900D02*
D03*
X0282200Y0646400D02*
D03*
X0268700Y0632900D02*
D03*
X0274700Y0625400D02*
D03*
X0274200Y0615400D02*
D03*
X0237200Y0664400D02*
D03*
X0132700Y0504400D02*
D03*
X0088700Y0727400D02*
D03*
X0172200Y0688900D02*
D03*
X0086700Y0709400D02*
D03*
X0108700Y0735900D02*
D03*
Y0739400D02*
D03*
X0127700Y0691900D02*
D03*
X0105700Y0695400D02*
D03*
X0163700Y0656900D02*
D03*
X0175700Y0663400D02*
D03*
X0200200Y0743400D02*
D03*
X0192200D02*
D03*
X0109200Y0618400D02*
D03*
X0101700Y0622900D02*
D03*
X0207700Y0189400D02*
D03*
X0196200D02*
D03*
X0105200Y0396400D02*
D03*
X0122200Y0395400D02*
D03*
X0150200D02*
D03*
X0131700Y0253900D02*
D03*
X0185700Y0288900D02*
D03*
Y0293400D02*
D03*
X0264200Y0690900D02*
D03*
X0277200Y0694400D02*
D03*
X0271700Y0676400D02*
D03*
X0257700Y0673900D02*
D03*
X0129200Y0554400D02*
D03*
X0277200Y0654400D02*
D03*
Y0659400D02*
D03*
Y0664400D02*
D03*
Y0669400D02*
D03*
X0131200Y0453900D02*
D03*
X0136200Y0318900D02*
D03*
X0157200Y0489400D02*
D03*
X0151200Y0524400D02*
D03*
X0265200Y0403400D02*
D03*
X0267200Y0418400D02*
D03*
X0249200Y0419400D02*
D03*
X0251200Y0434400D02*
D03*
X0249200Y0427400D02*
D03*
X0217200Y0439400D02*
D03*
X0250200Y0377400D02*
D03*
X0216200Y0369400D02*
D03*
X0224200Y0374400D02*
D03*
X0240200Y0369400D02*
D03*
X0124200Y0365400D02*
D03*
Y0373400D02*
D03*
X0088200Y0258400D02*
D03*
X0089200Y0508400D02*
D03*
X0123200Y0536400D02*
D03*
Y0531400D02*
D03*
X0219200Y0449400D02*
D03*
X0218200Y0459400D02*
D03*
X0193200Y0427400D02*
D03*
X0192700Y0351400D02*
D03*
G54D67*
X0082460Y0718400D02*
D03*
X0089940D02*
D03*
X0086200Y0716136D02*
D03*
Y0720664D02*
D03*
M02*
