G04 Layer_Color=32896*
%FSAX25Y25*%
%MOIN*%
G70*
G01*
G75*
%ADD49C,0.00800*%
%ADD50C,0.01000*%
%ADD160C,0.01500*%
%ADD161C,0.00100*%
G36*
X1080132Y0678400D02*
X1078371D01*
Y0680090D01*
X1078347Y0680066D01*
X1078299Y0680018D01*
X1078228Y0679899D01*
X1078109Y0679780D01*
X1077990Y0679638D01*
X1077823Y0679471D01*
X1077609Y0679304D01*
X1077395Y0679114D01*
X1077133Y0678924D01*
X1076848Y0678757D01*
X1076562Y0678590D01*
X1076229Y0678448D01*
X1075872Y0678329D01*
X1075491Y0678233D01*
X1075086Y0678162D01*
X1074658Y0678138D01*
X1074491D01*
X1074277Y0678162D01*
X1074039Y0678186D01*
X1073730Y0678233D01*
X1073420Y0678305D01*
X1073063Y0678400D01*
X1072730Y0678519D01*
X1072683Y0678543D01*
X1072587Y0678590D01*
X1072421Y0678686D01*
X1072230Y0678805D01*
X1072016Y0678947D01*
X1071802Y0679114D01*
X1071612Y0679304D01*
X1071421Y0679519D01*
X1071397Y0679542D01*
X1071350Y0679638D01*
X1071278Y0679757D01*
X1071183Y0679923D01*
X1071088Y0680137D01*
X1070993Y0680375D01*
X1070898Y0680661D01*
X1070826Y0680970D01*
Y0680994D01*
X1070802Y0681089D01*
X1070779Y0681208D01*
Y0681423D01*
X1070755Y0681661D01*
X1070731Y0681994D01*
X1070707Y0682375D01*
Y0682803D01*
Y0690014D01*
X1072683D01*
Y0683565D01*
Y0683541D01*
Y0683493D01*
Y0683422D01*
Y0683327D01*
Y0683041D01*
X1072706Y0682732D01*
Y0682375D01*
X1072730Y0682018D01*
X1072754Y0681708D01*
X1072802Y0681470D01*
Y0681446D01*
X1072849Y0681351D01*
X1072897Y0681208D01*
X1072968Y0681042D01*
X1073063Y0680851D01*
X1073182Y0680637D01*
X1073349Y0680447D01*
X1073563Y0680256D01*
X1073587Y0680233D01*
X1073682Y0680185D01*
X1073801Y0680114D01*
X1073992Y0680042D01*
X1074206Y0679971D01*
X1074468Y0679899D01*
X1074753Y0679852D01*
X1075063Y0679828D01*
X1075205D01*
X1075372Y0679852D01*
X1075610Y0679876D01*
X1075848Y0679947D01*
X1076134Y0680018D01*
X1076419Y0680137D01*
X1076705Y0680280D01*
X1076729Y0680304D01*
X1076824Y0680375D01*
X1076967Y0680471D01*
X1077133Y0680613D01*
X1077324Y0680780D01*
X1077514Y0680994D01*
X1077681Y0681232D01*
X1077823Y0681494D01*
X1077847Y0681542D01*
X1077871Y0681637D01*
X1077919Y0681827D01*
X1077990Y0682065D01*
X1078061Y0682398D01*
X1078109Y0682779D01*
X1078133Y0683255D01*
X1078157Y0683779D01*
Y0690014D01*
X1080132D01*
Y0678400D01*
D02*
G37*
G36*
X0854151Y0690014D02*
X0856126D01*
Y0688491D01*
X0854151D01*
Y0681684D01*
Y0681661D01*
Y0681542D01*
Y0681399D01*
X0854175Y0681232D01*
X0854199Y0680875D01*
X0854222Y0680709D01*
X0854246Y0680590D01*
X0854270Y0680542D01*
X0854318Y0680447D01*
X0854437Y0680328D01*
X0854579Y0680209D01*
X0854627Y0680185D01*
X0854746Y0680161D01*
X0854960Y0680114D01*
X0855246Y0680090D01*
X0855484D01*
X0855603Y0680114D01*
X0855769D01*
X0856126Y0680161D01*
X0856388Y0678424D01*
X0856341D01*
X0856245Y0678400D01*
X0856079Y0678376D01*
X0855888Y0678352D01*
X0855650Y0678305D01*
X0855412Y0678281D01*
X0854889Y0678257D01*
X0854722D01*
X0854508Y0678281D01*
X0854270Y0678305D01*
X0854008Y0678329D01*
X0853746Y0678400D01*
X0853461Y0678471D01*
X0853223Y0678590D01*
X0853199Y0678614D01*
X0853128Y0678662D01*
X0853032Y0678733D01*
X0852913Y0678828D01*
X0852771Y0678947D01*
X0852652Y0679114D01*
X0852509Y0679281D01*
X0852414Y0679471D01*
Y0679495D01*
X0852366Y0679590D01*
X0852342Y0679733D01*
X0852295Y0679971D01*
X0852247Y0680280D01*
X0852223Y0680471D01*
Y0680685D01*
X0852199Y0680923D01*
X0852176Y0681185D01*
Y0681494D01*
Y0681803D01*
Y0688491D01*
X0850724D01*
Y0690014D01*
X0852176D01*
Y0692870D01*
X0854151Y0694060D01*
Y0690014D01*
D02*
G37*
G36*
X1032032D02*
X1034008D01*
Y0688491D01*
X1032032D01*
Y0681684D01*
Y0681661D01*
Y0681542D01*
Y0681399D01*
X1032056Y0681232D01*
X1032080Y0680875D01*
X1032104Y0680709D01*
X1032127Y0680590D01*
X1032151Y0680542D01*
X1032199Y0680447D01*
X1032318Y0680328D01*
X1032461Y0680209D01*
X1032508Y0680185D01*
X1032627Y0680161D01*
X1032841Y0680114D01*
X1033127Y0680090D01*
X1033365D01*
X1033484Y0680114D01*
X1033651D01*
X1034008Y0680161D01*
X1034269Y0678424D01*
X1034222D01*
X1034127Y0678400D01*
X1033960Y0678376D01*
X1033770Y0678352D01*
X1033532Y0678305D01*
X1033294Y0678281D01*
X1032770Y0678257D01*
X1032603D01*
X1032389Y0678281D01*
X1032151Y0678305D01*
X1031889Y0678329D01*
X1031628Y0678400D01*
X1031342Y0678471D01*
X1031104Y0678590D01*
X1031080Y0678614D01*
X1031009Y0678662D01*
X1030914Y0678733D01*
X1030795Y0678828D01*
X1030652Y0678947D01*
X1030533Y0679114D01*
X1030390Y0679281D01*
X1030295Y0679471D01*
Y0679495D01*
X1030247Y0679590D01*
X1030223Y0679733D01*
X1030176Y0679971D01*
X1030128Y0680280D01*
X1030104Y0680471D01*
Y0680685D01*
X1030081Y0680923D01*
X1030057Y0681185D01*
Y0681494D01*
Y0681803D01*
Y0688491D01*
X1028605D01*
Y0690014D01*
X1030057D01*
Y0692870D01*
X1032032Y0694060D01*
Y0690014D01*
D02*
G37*
G36*
X0993809Y0690252D02*
X0994024Y0690229D01*
X0994238Y0690181D01*
X0994500Y0690133D01*
X0994785Y0690086D01*
X0995380Y0689895D01*
X0995690Y0689753D01*
X0996023Y0689610D01*
X0996332Y0689419D01*
X0996642Y0689205D01*
X0996951Y0688967D01*
X0997237Y0688682D01*
X0997260Y0688658D01*
X0997308Y0688610D01*
X0997379Y0688515D01*
X0997475Y0688396D01*
X0997594Y0688229D01*
X0997713Y0688039D01*
X0997855Y0687801D01*
X0997998Y0687539D01*
X0998117Y0687230D01*
X0998260Y0686897D01*
X0998379Y0686540D01*
X0998498Y0686135D01*
X0998593Y0685707D01*
X0998665Y0685254D01*
X0998712Y0684755D01*
X0998736Y0684231D01*
Y0684207D01*
Y0684088D01*
Y0683922D01*
X0998712Y0683707D01*
X0990049D01*
Y0683684D01*
Y0683612D01*
X0990073Y0683517D01*
Y0683398D01*
X0990097Y0683231D01*
X0990120Y0683041D01*
X0990216Y0682613D01*
X0990358Y0682137D01*
X0990549Y0681661D01*
X0990787Y0681185D01*
X0991120Y0680756D01*
X0991168Y0680709D01*
X0991287Y0680590D01*
X0991501Y0680447D01*
X0991786Y0680256D01*
X0992143Y0680066D01*
X0992548Y0679923D01*
X0993024Y0679804D01*
X0993548Y0679757D01*
X0993738D01*
X0993928Y0679780D01*
X0994190Y0679828D01*
X0994476Y0679899D01*
X0994785Y0679995D01*
X0995095Y0680114D01*
X0995404Y0680304D01*
X0995428Y0680328D01*
X0995523Y0680423D01*
X0995666Y0680542D01*
X0995856Y0680756D01*
X0996047Y0680994D01*
X0996261Y0681327D01*
X0996451Y0681708D01*
X0996642Y0682137D01*
X0998665Y0681875D01*
Y0681851D01*
X0998641Y0681803D01*
X0998617Y0681708D01*
X0998569Y0681589D01*
X0998522Y0681423D01*
X0998450Y0681256D01*
X0998260Y0680851D01*
X0998022Y0680423D01*
X0997713Y0679947D01*
X0997332Y0679519D01*
X0996880Y0679114D01*
X0996856D01*
X0996832Y0679066D01*
X0996737Y0679019D01*
X0996642Y0678971D01*
X0996523Y0678900D01*
X0996356Y0678805D01*
X0996189Y0678709D01*
X0995975Y0678638D01*
X0995499Y0678448D01*
X0994928Y0678281D01*
X0994262Y0678186D01*
X0993548Y0678138D01*
X0993310D01*
X0993119Y0678162D01*
X0992905Y0678186D01*
X0992667Y0678210D01*
X0992381Y0678257D01*
X0992096Y0678329D01*
X0991453Y0678519D01*
X0991096Y0678638D01*
X0990763Y0678781D01*
X0990430Y0678971D01*
X0990097Y0679185D01*
X0989787Y0679423D01*
X0989502Y0679685D01*
X0989478Y0679709D01*
X0989430Y0679757D01*
X0989359Y0679852D01*
X0989264Y0679971D01*
X0989168Y0680137D01*
X0989026Y0680328D01*
X0988907Y0680566D01*
X0988764Y0680828D01*
X0988621Y0681113D01*
X0988502Y0681446D01*
X0988359Y0681803D01*
X0988264Y0682208D01*
X0988169Y0682636D01*
X0988097Y0683089D01*
X0988050Y0683565D01*
X0988026Y0684088D01*
Y0684112D01*
Y0684207D01*
Y0684374D01*
X0988050Y0684564D01*
X0988074Y0684826D01*
X0988097Y0685112D01*
X0988145Y0685421D01*
X0988216Y0685778D01*
X0988383Y0686492D01*
X0988526Y0686873D01*
X0988669Y0687254D01*
X0988835Y0687634D01*
X0989026Y0687991D01*
X0989264Y0688348D01*
X0989525Y0688658D01*
X0989549Y0688682D01*
X0989597Y0688729D01*
X0989692Y0688801D01*
X0989787Y0688920D01*
X0989954Y0689039D01*
X0990120Y0689181D01*
X0990335Y0689324D01*
X0990573Y0689467D01*
X0990834Y0689610D01*
X0991144Y0689776D01*
X0991453Y0689895D01*
X0991810Y0690014D01*
X0992167Y0690133D01*
X0992572Y0690205D01*
X0993000Y0690252D01*
X0993429Y0690276D01*
X0993643D01*
X0993809Y0690252D01*
D02*
G37*
G36*
X0982600Y0678210D02*
Y0678186D01*
X0982576Y0678138D01*
X0982528Y0678019D01*
X0982481Y0677900D01*
X0982433Y0677757D01*
X0982362Y0677567D01*
X0982195Y0677162D01*
X0982028Y0676734D01*
X0981838Y0676282D01*
X0981671Y0675901D01*
X0981576Y0675711D01*
X0981505Y0675568D01*
X0981481Y0675520D01*
X0981410Y0675401D01*
X0981314Y0675235D01*
X0981148Y0675044D01*
X0980981Y0674806D01*
X0980767Y0674568D01*
X0980553Y0674354D01*
X0980291Y0674164D01*
X0980267Y0674140D01*
X0980172Y0674092D01*
X0980029Y0674021D01*
X0979839Y0673926D01*
X0979601Y0673830D01*
X0979315Y0673759D01*
X0979006Y0673711D01*
X0978673Y0673688D01*
X0978577D01*
X0978458Y0673711D01*
X0978292D01*
X0978125Y0673735D01*
X0977911Y0673783D01*
X0977411Y0673926D01*
X0977197Y0675758D01*
X0977221D01*
X0977316Y0675734D01*
X0977435Y0675711D01*
X0977578Y0675663D01*
X0977935Y0675592D01*
X0978316Y0675568D01*
X0978435D01*
X0978530Y0675592D01*
X0978696D01*
X0979030Y0675663D01*
X0979196Y0675734D01*
X0979339Y0675806D01*
X0979363D01*
X0979410Y0675853D01*
X0979482Y0675901D01*
X0979577Y0675972D01*
X0979791Y0676139D01*
X0980005Y0676401D01*
Y0676425D01*
X0980053Y0676472D01*
X0980077Y0676567D01*
X0980148Y0676710D01*
X0980243Y0676901D01*
X0980339Y0677162D01*
X0980458Y0677472D01*
X0980600Y0677876D01*
Y0677900D01*
X0980648Y0677995D01*
X0980696Y0678138D01*
X0980791Y0678352D01*
X0976388Y0690014D01*
X0978482D01*
X0980910Y0683327D01*
Y0683303D01*
X0980934Y0683279D01*
X0980957Y0683208D01*
X0980981Y0683112D01*
X0981076Y0682851D01*
X0981195Y0682517D01*
X0981314Y0682113D01*
X0981457Y0681661D01*
X0981600Y0681185D01*
X0981743Y0680661D01*
Y0680685D01*
X0981767Y0680709D01*
Y0680780D01*
X0981814Y0680875D01*
X0981886Y0681137D01*
X0981981Y0681470D01*
X0982076Y0681851D01*
X0982219Y0682279D01*
X0982385Y0682755D01*
X0982552Y0683231D01*
X0985051Y0690014D01*
X0987003D01*
X0982600Y0678210D01*
D02*
G37*
G36*
X0803790Y0685159D02*
Y0685135D01*
Y0685064D01*
Y0684921D01*
Y0684755D01*
X0803766Y0684564D01*
Y0684326D01*
X0803743Y0684064D01*
X0803719Y0683779D01*
X0803647Y0683160D01*
X0803552Y0682541D01*
X0803433Y0681899D01*
X0803243Y0681327D01*
Y0681304D01*
X0803219Y0681256D01*
X0803195Y0681185D01*
X0803148Y0681089D01*
X0803005Y0680828D01*
X0802791Y0680494D01*
X0802529Y0680137D01*
X0802172Y0679757D01*
X0801767Y0679376D01*
X0801267Y0679019D01*
X0801244D01*
X0801196Y0678971D01*
X0801125Y0678947D01*
X0801006Y0678876D01*
X0800863Y0678805D01*
X0800696Y0678733D01*
X0800506Y0678662D01*
X0800268Y0678590D01*
X0800006Y0678495D01*
X0799720Y0678424D01*
X0799411Y0678352D01*
X0799078Y0678281D01*
X0798745Y0678210D01*
X0798364Y0678186D01*
X0797531Y0678138D01*
X0797317D01*
X0797150Y0678162D01*
X0796960D01*
X0796745Y0678186D01*
X0796484Y0678210D01*
X0796222Y0678233D01*
X0795627Y0678329D01*
X0795032Y0678471D01*
X0794413Y0678638D01*
X0793842Y0678900D01*
X0793818D01*
X0793770Y0678947D01*
X0793699Y0678971D01*
X0793604Y0679043D01*
X0793366Y0679233D01*
X0793056Y0679471D01*
X0792723Y0679780D01*
X0792366Y0680185D01*
X0792057Y0680613D01*
X0791795Y0681137D01*
Y0681161D01*
X0791771Y0681208D01*
X0791747Y0681280D01*
X0791700Y0681399D01*
X0791652Y0681565D01*
X0791605Y0681732D01*
X0791557Y0681946D01*
X0791509Y0682184D01*
X0791438Y0682470D01*
X0791390Y0682779D01*
X0791343Y0683089D01*
X0791295Y0683446D01*
X0791248Y0683850D01*
X0791224Y0684255D01*
X0791200Y0684707D01*
Y0685159D01*
Y0694417D01*
X0793318D01*
Y0685159D01*
Y0685135D01*
Y0685064D01*
Y0684969D01*
Y0684826D01*
X0793342Y0684659D01*
Y0684445D01*
X0793366Y0683993D01*
X0793413Y0683493D01*
X0793485Y0682993D01*
X0793580Y0682517D01*
X0793628Y0682279D01*
X0793699Y0682089D01*
X0793723Y0682041D01*
X0793770Y0681922D01*
X0793866Y0681756D01*
X0794008Y0681518D01*
X0794175Y0681280D01*
X0794413Y0681018D01*
X0794675Y0680780D01*
X0795008Y0680566D01*
X0795056Y0680542D01*
X0795175Y0680494D01*
X0795389Y0680399D01*
X0795651Y0680304D01*
X0796008Y0680209D01*
X0796388Y0680114D01*
X0796841Y0680066D01*
X0797340Y0680042D01*
X0797555D01*
X0797721Y0680066D01*
X0797912D01*
X0798126Y0680090D01*
X0798626Y0680185D01*
X0799173Y0680304D01*
X0799720Y0680494D01*
X0800244Y0680756D01*
X0800482Y0680899D01*
X0800672Y0681089D01*
X0800696Y0681113D01*
X0800720Y0681137D01*
X0800768Y0681208D01*
X0800839Y0681304D01*
X0800910Y0681423D01*
X0800982Y0681589D01*
X0801077Y0681780D01*
X0801172Y0681994D01*
X0801267Y0682256D01*
X0801363Y0682565D01*
X0801434Y0682898D01*
X0801505Y0683255D01*
X0801577Y0683660D01*
X0801624Y0684136D01*
X0801672Y0684612D01*
Y0685159D01*
Y0694417D01*
X0803790D01*
Y0685159D01*
D02*
G37*
G36*
X0970485Y0690252D02*
X0970819Y0690229D01*
X0971223Y0690181D01*
X0971628Y0690133D01*
X0972009Y0690038D01*
X0972389Y0689919D01*
X0972437Y0689895D01*
X0972532Y0689848D01*
X0972699Y0689776D01*
X0972913Y0689681D01*
X0973127Y0689538D01*
X0973365Y0689396D01*
X0973556Y0689229D01*
X0973746Y0689039D01*
X0973770Y0689015D01*
X0973817Y0688943D01*
X0973889Y0688824D01*
X0973984Y0688682D01*
X0974103Y0688491D01*
X0974198Y0688253D01*
X0974293Y0687991D01*
X0974365Y0687706D01*
Y0687682D01*
X0974389Y0687611D01*
X0974412Y0687468D01*
X0974436Y0687301D01*
Y0687039D01*
X0974460Y0686730D01*
X0974484Y0686349D01*
Y0685897D01*
Y0683255D01*
Y0683231D01*
Y0683136D01*
Y0682993D01*
Y0682827D01*
Y0682589D01*
Y0682351D01*
X0974508Y0681803D01*
Y0681208D01*
X0974531Y0680637D01*
X0974555Y0680375D01*
Y0680137D01*
X0974579Y0679947D01*
X0974603Y0679780D01*
Y0679757D01*
X0974627Y0679661D01*
X0974650Y0679519D01*
X0974698Y0679352D01*
X0974769Y0679138D01*
X0974865Y0678900D01*
X0975079Y0678400D01*
X0973032D01*
X0973008Y0678424D01*
X0972984Y0678519D01*
X0972937Y0678638D01*
X0972865Y0678805D01*
X0972794Y0679019D01*
X0972746Y0679281D01*
X0972699Y0679542D01*
X0972651Y0679852D01*
X0972604Y0679804D01*
X0972461Y0679709D01*
X0972247Y0679542D01*
X0971985Y0679328D01*
X0971652Y0679114D01*
X0971295Y0678900D01*
X0970914Y0678686D01*
X0970533Y0678519D01*
X0970485Y0678495D01*
X0970366Y0678471D01*
X0970152Y0678400D01*
X0969890Y0678329D01*
X0969557Y0678257D01*
X0969200Y0678210D01*
X0968796Y0678162D01*
X0968367Y0678138D01*
X0968177D01*
X0968058Y0678162D01*
X0967891D01*
X0967701Y0678186D01*
X0967272Y0678257D01*
X0966796Y0678376D01*
X0966320Y0678519D01*
X0965844Y0678757D01*
X0965416Y0679066D01*
X0965368Y0679114D01*
X0965249Y0679233D01*
X0965083Y0679447D01*
X0964916Y0679709D01*
X0964726Y0680066D01*
X0964559Y0680471D01*
X0964440Y0680923D01*
X0964416Y0681185D01*
X0964393Y0681446D01*
Y0681494D01*
Y0681589D01*
X0964416Y0681756D01*
X0964440Y0681970D01*
X0964488Y0682208D01*
X0964559Y0682470D01*
X0964654Y0682755D01*
X0964773Y0683017D01*
X0964797Y0683041D01*
X0964845Y0683136D01*
X0964916Y0683255D01*
X0965035Y0683422D01*
X0965178Y0683612D01*
X0965368Y0683803D01*
X0965559Y0683969D01*
X0965773Y0684136D01*
X0965797Y0684160D01*
X0965892Y0684207D01*
X0966011Y0684279D01*
X0966201Y0684374D01*
X0966416Y0684493D01*
X0966654Y0684588D01*
X0966915Y0684707D01*
X0967201Y0684802D01*
X0967225D01*
X0967320Y0684826D01*
X0967463Y0684850D01*
X0967653Y0684897D01*
X0967891Y0684945D01*
X0968201Y0684993D01*
X0968558Y0685040D01*
X0968962Y0685088D01*
X0968986D01*
X0969057Y0685112D01*
X0969200D01*
X0969367Y0685135D01*
X0969557Y0685159D01*
X0969771Y0685207D01*
X0970033Y0685231D01*
X0970295Y0685278D01*
X0970890Y0685373D01*
X0971461Y0685492D01*
X0972009Y0685635D01*
X0972270Y0685707D01*
X0972485Y0685778D01*
Y0685802D01*
Y0685849D01*
X0972508Y0685992D01*
Y0686159D01*
Y0686230D01*
Y0686278D01*
Y0686302D01*
Y0686325D01*
Y0686468D01*
X0972485Y0686682D01*
X0972437Y0686944D01*
X0972366Y0687230D01*
X0972270Y0687515D01*
X0972128Y0687753D01*
X0971937Y0687968D01*
X0971913Y0687991D01*
X0971794Y0688087D01*
X0971628Y0688182D01*
X0971366Y0688325D01*
X0971057Y0688444D01*
X0970652Y0688563D01*
X0970200Y0688634D01*
X0969676Y0688658D01*
X0969462D01*
X0969200Y0688634D01*
X0968915Y0688586D01*
X0968581Y0688539D01*
X0968224Y0688444D01*
X0967915Y0688325D01*
X0967629Y0688158D01*
X0967606Y0688134D01*
X0967510Y0688063D01*
X0967391Y0687944D01*
X0967249Y0687777D01*
X0967106Y0687539D01*
X0966939Y0687230D01*
X0966796Y0686873D01*
X0966654Y0686444D01*
X0964726Y0686706D01*
Y0686730D01*
X0964750Y0686754D01*
X0964773Y0686920D01*
X0964845Y0687135D01*
X0964940Y0687420D01*
X0965059Y0687730D01*
X0965202Y0688063D01*
X0965368Y0688372D01*
X0965583Y0688682D01*
X0965606Y0688705D01*
X0965702Y0688801D01*
X0965821Y0688943D01*
X0966035Y0689110D01*
X0966273Y0689300D01*
X0966558Y0689491D01*
X0966915Y0689681D01*
X0967320Y0689848D01*
X0967344D01*
X0967368Y0689872D01*
X0967439Y0689895D01*
X0967534Y0689919D01*
X0967772Y0689991D01*
X0968082Y0690062D01*
X0968462Y0690133D01*
X0968915Y0690205D01*
X0969414Y0690252D01*
X0969962Y0690276D01*
X0970200D01*
X0970485Y0690252D01*
D02*
G37*
G36*
X1041362D02*
X1041695Y0690229D01*
X1042100Y0690181D01*
X1042504Y0690133D01*
X1042885Y0690038D01*
X1043266Y0689919D01*
X1043313Y0689895D01*
X1043409Y0689848D01*
X1043575Y0689776D01*
X1043789Y0689681D01*
X1044004Y0689538D01*
X1044242Y0689396D01*
X1044432Y0689229D01*
X1044622Y0689039D01*
X1044646Y0689015D01*
X1044694Y0688943D01*
X1044765Y0688824D01*
X1044860Y0688682D01*
X1044979Y0688491D01*
X1045075Y0688253D01*
X1045170Y0687991D01*
X1045241Y0687706D01*
Y0687682D01*
X1045265Y0687611D01*
X1045289Y0687468D01*
X1045313Y0687301D01*
Y0687039D01*
X1045336Y0686730D01*
X1045360Y0686349D01*
Y0685897D01*
Y0683255D01*
Y0683231D01*
Y0683136D01*
Y0682993D01*
Y0682827D01*
Y0682589D01*
Y0682351D01*
X1045384Y0681803D01*
Y0681208D01*
X1045408Y0680637D01*
X1045432Y0680375D01*
Y0680137D01*
X1045455Y0679947D01*
X1045479Y0679780D01*
Y0679757D01*
X1045503Y0679661D01*
X1045527Y0679519D01*
X1045574Y0679352D01*
X1045646Y0679138D01*
X1045741Y0678900D01*
X1045955Y0678400D01*
X1043908D01*
X1043885Y0678424D01*
X1043861Y0678519D01*
X1043813Y0678638D01*
X1043742Y0678805D01*
X1043670Y0679019D01*
X1043623Y0679281D01*
X1043575Y0679542D01*
X1043528Y0679852D01*
X1043480Y0679804D01*
X1043337Y0679709D01*
X1043123Y0679542D01*
X1042861Y0679328D01*
X1042528Y0679114D01*
X1042171Y0678900D01*
X1041790Y0678686D01*
X1041409Y0678519D01*
X1041362Y0678495D01*
X1041243Y0678471D01*
X1041029Y0678400D01*
X1040767Y0678329D01*
X1040434Y0678257D01*
X1040077Y0678210D01*
X1039672Y0678162D01*
X1039244Y0678138D01*
X1039053D01*
X1038934Y0678162D01*
X1038768D01*
X1038577Y0678186D01*
X1038149Y0678257D01*
X1037673Y0678376D01*
X1037197Y0678519D01*
X1036721Y0678757D01*
X1036292Y0679066D01*
X1036245Y0679114D01*
X1036126Y0679233D01*
X1035959Y0679447D01*
X1035793Y0679709D01*
X1035602Y0680066D01*
X1035436Y0680471D01*
X1035317Y0680923D01*
X1035293Y0681185D01*
X1035269Y0681446D01*
Y0681494D01*
Y0681589D01*
X1035293Y0681756D01*
X1035317Y0681970D01*
X1035364Y0682208D01*
X1035436Y0682470D01*
X1035531Y0682755D01*
X1035650Y0683017D01*
X1035674Y0683041D01*
X1035721Y0683136D01*
X1035793Y0683255D01*
X1035912Y0683422D01*
X1036054Y0683612D01*
X1036245Y0683803D01*
X1036435Y0683969D01*
X1036649Y0684136D01*
X1036673Y0684160D01*
X1036768Y0684207D01*
X1036887Y0684279D01*
X1037078Y0684374D01*
X1037292Y0684493D01*
X1037530Y0684588D01*
X1037792Y0684707D01*
X1038077Y0684802D01*
X1038101D01*
X1038196Y0684826D01*
X1038339Y0684850D01*
X1038530Y0684897D01*
X1038768Y0684945D01*
X1039077Y0684993D01*
X1039434Y0685040D01*
X1039839Y0685088D01*
X1039862D01*
X1039934Y0685112D01*
X1040077D01*
X1040243Y0685135D01*
X1040434Y0685159D01*
X1040648Y0685207D01*
X1040910Y0685231D01*
X1041171Y0685278D01*
X1041766Y0685373D01*
X1042338Y0685492D01*
X1042885Y0685635D01*
X1043147Y0685707D01*
X1043361Y0685778D01*
Y0685802D01*
Y0685849D01*
X1043385Y0685992D01*
Y0686159D01*
Y0686230D01*
Y0686278D01*
Y0686302D01*
Y0686325D01*
Y0686468D01*
X1043361Y0686682D01*
X1043313Y0686944D01*
X1043242Y0687230D01*
X1043147Y0687515D01*
X1043004Y0687753D01*
X1042814Y0687968D01*
X1042790Y0687991D01*
X1042671Y0688087D01*
X1042504Y0688182D01*
X1042242Y0688325D01*
X1041933Y0688444D01*
X1041528Y0688563D01*
X1041076Y0688634D01*
X1040553Y0688658D01*
X1040338D01*
X1040077Y0688634D01*
X1039791Y0688586D01*
X1039458Y0688539D01*
X1039101Y0688444D01*
X1038791Y0688325D01*
X1038506Y0688158D01*
X1038482Y0688134D01*
X1038387Y0688063D01*
X1038268Y0687944D01*
X1038125Y0687777D01*
X1037982Y0687539D01*
X1037816Y0687230D01*
X1037673Y0686873D01*
X1037530Y0686444D01*
X1035602Y0686706D01*
Y0686730D01*
X1035626Y0686754D01*
X1035650Y0686920D01*
X1035721Y0687135D01*
X1035816Y0687420D01*
X1035935Y0687730D01*
X1036078Y0688063D01*
X1036245Y0688372D01*
X1036459Y0688682D01*
X1036483Y0688705D01*
X1036578Y0688801D01*
X1036697Y0688943D01*
X1036911Y0689110D01*
X1037149Y0689300D01*
X1037435Y0689491D01*
X1037792Y0689681D01*
X1038196Y0689848D01*
X1038220D01*
X1038244Y0689872D01*
X1038315Y0689895D01*
X1038411Y0689919D01*
X1038649Y0689991D01*
X1038958Y0690062D01*
X1039339Y0690133D01*
X1039791Y0690205D01*
X1040291Y0690252D01*
X1040838Y0690276D01*
X1041076D01*
X1041362Y0690252D01*
D02*
G37*
G36*
X1061544Y0685326D02*
X1066185Y0690014D01*
X1068732D01*
X1064305Y0685683D01*
X1069184Y0678400D01*
X1066756D01*
X1062901Y0684326D01*
X1061544Y0682993D01*
Y0678400D01*
X1059569D01*
Y0694417D01*
X1061544D01*
Y0685326D01*
D02*
G37*
G36*
X0863481Y0690252D02*
X0863814Y0690229D01*
X0864218Y0690181D01*
X0864623Y0690133D01*
X0865004Y0690038D01*
X0865385Y0689919D01*
X0865432Y0689895D01*
X0865527Y0689848D01*
X0865694Y0689776D01*
X0865908Y0689681D01*
X0866122Y0689538D01*
X0866360Y0689396D01*
X0866551Y0689229D01*
X0866741Y0689039D01*
X0866765Y0689015D01*
X0866813Y0688943D01*
X0866884Y0688824D01*
X0866979Y0688682D01*
X0867098Y0688491D01*
X0867193Y0688253D01*
X0867289Y0687991D01*
X0867360Y0687706D01*
Y0687682D01*
X0867384Y0687611D01*
X0867408Y0687468D01*
X0867431Y0687301D01*
Y0687039D01*
X0867455Y0686730D01*
X0867479Y0686349D01*
Y0685897D01*
Y0683255D01*
Y0683231D01*
Y0683136D01*
Y0682993D01*
Y0682827D01*
Y0682589D01*
Y0682351D01*
X0867503Y0681803D01*
Y0681208D01*
X0867527Y0680637D01*
X0867550Y0680375D01*
Y0680137D01*
X0867574Y0679947D01*
X0867598Y0679780D01*
Y0679757D01*
X0867622Y0679661D01*
X0867646Y0679519D01*
X0867693Y0679352D01*
X0867765Y0679138D01*
X0867860Y0678900D01*
X0868074Y0678400D01*
X0866027D01*
X0866003Y0678424D01*
X0865980Y0678519D01*
X0865932Y0678638D01*
X0865861Y0678805D01*
X0865789Y0679019D01*
X0865742Y0679281D01*
X0865694Y0679542D01*
X0865646Y0679852D01*
X0865599Y0679804D01*
X0865456Y0679709D01*
X0865242Y0679542D01*
X0864980Y0679328D01*
X0864647Y0679114D01*
X0864290Y0678900D01*
X0863909Y0678686D01*
X0863528Y0678519D01*
X0863481Y0678495D01*
X0863362Y0678471D01*
X0863147Y0678400D01*
X0862886Y0678329D01*
X0862552Y0678257D01*
X0862195Y0678210D01*
X0861791Y0678162D01*
X0861362Y0678138D01*
X0861172D01*
X0861053Y0678162D01*
X0860886D01*
X0860696Y0678186D01*
X0860268Y0678257D01*
X0859792Y0678376D01*
X0859316Y0678519D01*
X0858840Y0678757D01*
X0858411Y0679066D01*
X0858364Y0679114D01*
X0858245Y0679233D01*
X0858078Y0679447D01*
X0857911Y0679709D01*
X0857721Y0680066D01*
X0857554Y0680471D01*
X0857435Y0680923D01*
X0857412Y0681185D01*
X0857388Y0681446D01*
Y0681494D01*
Y0681589D01*
X0857412Y0681756D01*
X0857435Y0681970D01*
X0857483Y0682208D01*
X0857554Y0682470D01*
X0857650Y0682755D01*
X0857769Y0683017D01*
X0857792Y0683041D01*
X0857840Y0683136D01*
X0857911Y0683255D01*
X0858030Y0683422D01*
X0858173Y0683612D01*
X0858364Y0683803D01*
X0858554Y0683969D01*
X0858768Y0684136D01*
X0858792Y0684160D01*
X0858887Y0684207D01*
X0859006Y0684279D01*
X0859197Y0684374D01*
X0859411Y0684493D01*
X0859649Y0684588D01*
X0859911Y0684707D01*
X0860196Y0684802D01*
X0860220D01*
X0860315Y0684826D01*
X0860458Y0684850D01*
X0860648Y0684897D01*
X0860886Y0684945D01*
X0861196Y0684993D01*
X0861553Y0685040D01*
X0861957Y0685088D01*
X0861981D01*
X0862053Y0685112D01*
X0862195D01*
X0862362Y0685135D01*
X0862552Y0685159D01*
X0862767Y0685207D01*
X0863028Y0685231D01*
X0863290Y0685278D01*
X0863885Y0685373D01*
X0864456Y0685492D01*
X0865004Y0685635D01*
X0865266Y0685707D01*
X0865480Y0685778D01*
Y0685802D01*
Y0685849D01*
X0865504Y0685992D01*
Y0686159D01*
Y0686230D01*
Y0686278D01*
Y0686302D01*
Y0686325D01*
Y0686468D01*
X0865480Y0686682D01*
X0865432Y0686944D01*
X0865361Y0687230D01*
X0865266Y0687515D01*
X0865123Y0687753D01*
X0864932Y0687968D01*
X0864909Y0687991D01*
X0864790Y0688087D01*
X0864623Y0688182D01*
X0864361Y0688325D01*
X0864052Y0688444D01*
X0863647Y0688563D01*
X0863195Y0688634D01*
X0862671Y0688658D01*
X0862457D01*
X0862195Y0688634D01*
X0861910Y0688586D01*
X0861577Y0688539D01*
X0861220Y0688444D01*
X0860910Y0688325D01*
X0860625Y0688158D01*
X0860601Y0688134D01*
X0860506Y0688063D01*
X0860387Y0687944D01*
X0860244Y0687777D01*
X0860101Y0687539D01*
X0859934Y0687230D01*
X0859792Y0686873D01*
X0859649Y0686444D01*
X0857721Y0686706D01*
Y0686730D01*
X0857745Y0686754D01*
X0857769Y0686920D01*
X0857840Y0687135D01*
X0857935Y0687420D01*
X0858054Y0687730D01*
X0858197Y0688063D01*
X0858364Y0688372D01*
X0858578Y0688682D01*
X0858602Y0688705D01*
X0858697Y0688801D01*
X0858816Y0688943D01*
X0859030Y0689110D01*
X0859268Y0689300D01*
X0859554Y0689491D01*
X0859911Y0689681D01*
X0860315Y0689848D01*
X0860339D01*
X0860363Y0689872D01*
X0860434Y0689895D01*
X0860529Y0689919D01*
X0860767Y0689991D01*
X0861077Y0690062D01*
X0861458Y0690133D01*
X0861910Y0690205D01*
X0862410Y0690252D01*
X0862957Y0690276D01*
X0863195D01*
X0863481Y0690252D01*
D02*
G37*
G36*
X0900823D02*
X0901156Y0690229D01*
X0901561Y0690181D01*
X0901965Y0690133D01*
X0902346Y0690038D01*
X0902727Y0689919D01*
X0902774Y0689895D01*
X0902870Y0689848D01*
X0903036Y0689776D01*
X0903250Y0689681D01*
X0903465Y0689538D01*
X0903703Y0689396D01*
X0903893Y0689229D01*
X0904083Y0689039D01*
X0904107Y0689015D01*
X0904155Y0688943D01*
X0904226Y0688824D01*
X0904321Y0688682D01*
X0904440Y0688491D01*
X0904536Y0688253D01*
X0904631Y0687991D01*
X0904702Y0687706D01*
Y0687682D01*
X0904726Y0687611D01*
X0904750Y0687468D01*
X0904774Y0687301D01*
Y0687039D01*
X0904797Y0686730D01*
X0904821Y0686349D01*
Y0685897D01*
Y0683255D01*
Y0683231D01*
Y0683136D01*
Y0682993D01*
Y0682827D01*
Y0682589D01*
Y0682351D01*
X0904845Y0681803D01*
Y0681208D01*
X0904869Y0680637D01*
X0904893Y0680375D01*
Y0680137D01*
X0904916Y0679947D01*
X0904940Y0679780D01*
Y0679757D01*
X0904964Y0679661D01*
X0904988Y0679519D01*
X0905035Y0679352D01*
X0905107Y0679138D01*
X0905202Y0678900D01*
X0905416Y0678400D01*
X0903369D01*
X0903346Y0678424D01*
X0903322Y0678519D01*
X0903274Y0678638D01*
X0903203Y0678805D01*
X0903131Y0679019D01*
X0903084Y0679281D01*
X0903036Y0679542D01*
X0902989Y0679852D01*
X0902941Y0679804D01*
X0902798Y0679709D01*
X0902584Y0679542D01*
X0902322Y0679328D01*
X0901989Y0679114D01*
X0901632Y0678900D01*
X0901251Y0678686D01*
X0900870Y0678519D01*
X0900823Y0678495D01*
X0900704Y0678471D01*
X0900490Y0678400D01*
X0900228Y0678329D01*
X0899895Y0678257D01*
X0899538Y0678210D01*
X0899133Y0678162D01*
X0898705Y0678138D01*
X0898514D01*
X0898395Y0678162D01*
X0898229D01*
X0898038Y0678186D01*
X0897610Y0678257D01*
X0897134Y0678376D01*
X0896658Y0678519D01*
X0896182Y0678757D01*
X0895753Y0679066D01*
X0895706Y0679114D01*
X0895587Y0679233D01*
X0895420Y0679447D01*
X0895254Y0679709D01*
X0895063Y0680066D01*
X0894897Y0680471D01*
X0894778Y0680923D01*
X0894754Y0681185D01*
X0894730Y0681446D01*
Y0681494D01*
Y0681589D01*
X0894754Y0681756D01*
X0894778Y0681970D01*
X0894825Y0682208D01*
X0894897Y0682470D01*
X0894992Y0682755D01*
X0895111Y0683017D01*
X0895135Y0683041D01*
X0895182Y0683136D01*
X0895254Y0683255D01*
X0895373Y0683422D01*
X0895515Y0683612D01*
X0895706Y0683803D01*
X0895896Y0683969D01*
X0896110Y0684136D01*
X0896134Y0684160D01*
X0896229Y0684207D01*
X0896348Y0684279D01*
X0896539Y0684374D01*
X0896753Y0684493D01*
X0896991Y0684588D01*
X0897253Y0684707D01*
X0897538Y0684802D01*
X0897562D01*
X0897657Y0684826D01*
X0897800Y0684850D01*
X0897991Y0684897D01*
X0898229Y0684945D01*
X0898538Y0684993D01*
X0898895Y0685040D01*
X0899300Y0685088D01*
X0899323D01*
X0899395Y0685112D01*
X0899538D01*
X0899704Y0685135D01*
X0899895Y0685159D01*
X0900109Y0685207D01*
X0900371Y0685231D01*
X0900632Y0685278D01*
X0901227Y0685373D01*
X0901799Y0685492D01*
X0902346Y0685635D01*
X0902608Y0685707D01*
X0902822Y0685778D01*
Y0685802D01*
Y0685849D01*
X0902846Y0685992D01*
Y0686159D01*
Y0686230D01*
Y0686278D01*
Y0686302D01*
Y0686325D01*
Y0686468D01*
X0902822Y0686682D01*
X0902774Y0686944D01*
X0902703Y0687230D01*
X0902608Y0687515D01*
X0902465Y0687753D01*
X0902275Y0687968D01*
X0902251Y0687991D01*
X0902132Y0688087D01*
X0901965Y0688182D01*
X0901703Y0688325D01*
X0901394Y0688444D01*
X0900989Y0688563D01*
X0900537Y0688634D01*
X0900014Y0688658D01*
X0899799D01*
X0899538Y0688634D01*
X0899252Y0688586D01*
X0898919Y0688539D01*
X0898562Y0688444D01*
X0898252Y0688325D01*
X0897967Y0688158D01*
X0897943Y0688134D01*
X0897848Y0688063D01*
X0897729Y0687944D01*
X0897586Y0687777D01*
X0897443Y0687539D01*
X0897277Y0687230D01*
X0897134Y0686873D01*
X0896991Y0686444D01*
X0895063Y0686706D01*
Y0686730D01*
X0895087Y0686754D01*
X0895111Y0686920D01*
X0895182Y0687135D01*
X0895277Y0687420D01*
X0895396Y0687730D01*
X0895539Y0688063D01*
X0895706Y0688372D01*
X0895920Y0688682D01*
X0895944Y0688705D01*
X0896039Y0688801D01*
X0896158Y0688943D01*
X0896372Y0689110D01*
X0896610Y0689300D01*
X0896896Y0689491D01*
X0897253Y0689681D01*
X0897657Y0689848D01*
X0897681D01*
X0897705Y0689872D01*
X0897776Y0689895D01*
X0897872Y0689919D01*
X0898110Y0689991D01*
X0898419Y0690062D01*
X0898800Y0690133D01*
X0899252Y0690205D01*
X0899752Y0690252D01*
X0900299Y0690276D01*
X0900537D01*
X0900823Y0690252D01*
D02*
G37*
G36*
X0954896Y0680280D02*
X0962774D01*
Y0678400D01*
X0952778D01*
Y0694417D01*
X0954896D01*
Y0680280D01*
D02*
G37*
G36*
X0924647Y0678400D02*
X0922814D01*
Y0679852D01*
X0922790Y0679828D01*
X0922766Y0679780D01*
X0922695Y0679685D01*
X0922600Y0679590D01*
X0922481Y0679447D01*
X0922338Y0679304D01*
X0922171Y0679162D01*
X0921981Y0678995D01*
X0921767Y0678828D01*
X0921529Y0678686D01*
X0921267Y0678543D01*
X0920958Y0678400D01*
X0920648Y0678305D01*
X0920315Y0678210D01*
X0919934Y0678162D01*
X0919553Y0678138D01*
X0919411D01*
X0919315Y0678162D01*
X0919054Y0678186D01*
X0918720Y0678233D01*
X0918316Y0678329D01*
X0917887Y0678471D01*
X0917459Y0678638D01*
X0917007Y0678900D01*
X0916983D01*
X0916959Y0678947D01*
X0916816Y0679043D01*
X0916602Y0679209D01*
X0916340Y0679447D01*
X0916055Y0679757D01*
X0915745Y0680114D01*
X0915460Y0680542D01*
X0915198Y0681018D01*
Y0681042D01*
X0915174Y0681089D01*
X0915150Y0681161D01*
X0915103Y0681256D01*
X0915055Y0681399D01*
X0915008Y0681542D01*
X0914889Y0681922D01*
X0914770Y0682398D01*
X0914674Y0682946D01*
X0914603Y0683541D01*
X0914579Y0684183D01*
Y0684207D01*
Y0684255D01*
Y0684350D01*
Y0684469D01*
X0914603Y0684636D01*
Y0684802D01*
X0914651Y0685231D01*
X0914722Y0685707D01*
X0914817Y0686254D01*
X0914960Y0686778D01*
X0915150Y0687325D01*
Y0687349D01*
X0915174Y0687396D01*
X0915222Y0687468D01*
X0915269Y0687563D01*
X0915388Y0687825D01*
X0915579Y0688134D01*
X0915817Y0688491D01*
X0916126Y0688848D01*
X0916459Y0689205D01*
X0916864Y0689515D01*
X0916888D01*
X0916912Y0689538D01*
X0916983Y0689586D01*
X0917078Y0689634D01*
X0917316Y0689753D01*
X0917626Y0689895D01*
X0918006Y0690038D01*
X0918459Y0690157D01*
X0918935Y0690252D01*
X0919458Y0690276D01*
X0919625D01*
X0919839Y0690252D01*
X0920077Y0690229D01*
X0920363Y0690157D01*
X0920696Y0690086D01*
X0921005Y0689967D01*
X0921315Y0689824D01*
X0921362Y0689800D01*
X0921457Y0689753D01*
X0921600Y0689657D01*
X0921791Y0689515D01*
X0922005Y0689348D01*
X0922243Y0689158D01*
X0922457Y0688943D01*
X0922671Y0688682D01*
Y0694417D01*
X0924647D01*
Y0678400D01*
D02*
G37*
G36*
X0892302D02*
X0890470D01*
Y0679852D01*
X0890446Y0679828D01*
X0890422Y0679780D01*
X0890351Y0679685D01*
X0890256Y0679590D01*
X0890137Y0679447D01*
X0889994Y0679304D01*
X0889827Y0679162D01*
X0889637Y0678995D01*
X0889423Y0678828D01*
X0889185Y0678686D01*
X0888923Y0678543D01*
X0888613Y0678400D01*
X0888304Y0678305D01*
X0887971Y0678210D01*
X0887590Y0678162D01*
X0887209Y0678138D01*
X0887066D01*
X0886971Y0678162D01*
X0886709Y0678186D01*
X0886376Y0678233D01*
X0885972Y0678329D01*
X0885543Y0678471D01*
X0885115Y0678638D01*
X0884663Y0678900D01*
X0884639D01*
X0884615Y0678947D01*
X0884472Y0679043D01*
X0884258Y0679209D01*
X0883996Y0679447D01*
X0883711Y0679757D01*
X0883401Y0680114D01*
X0883116Y0680542D01*
X0882854Y0681018D01*
Y0681042D01*
X0882830Y0681089D01*
X0882806Y0681161D01*
X0882759Y0681256D01*
X0882711Y0681399D01*
X0882663Y0681542D01*
X0882544Y0681922D01*
X0882425Y0682398D01*
X0882330Y0682946D01*
X0882259Y0683541D01*
X0882235Y0684183D01*
Y0684207D01*
Y0684255D01*
Y0684350D01*
Y0684469D01*
X0882259Y0684636D01*
Y0684802D01*
X0882306Y0685231D01*
X0882378Y0685707D01*
X0882473Y0686254D01*
X0882616Y0686778D01*
X0882806Y0687325D01*
Y0687349D01*
X0882830Y0687396D01*
X0882878Y0687468D01*
X0882925Y0687563D01*
X0883044Y0687825D01*
X0883235Y0688134D01*
X0883473Y0688491D01*
X0883782Y0688848D01*
X0884115Y0689205D01*
X0884520Y0689515D01*
X0884544D01*
X0884567Y0689538D01*
X0884639Y0689586D01*
X0884734Y0689634D01*
X0884972Y0689753D01*
X0885281Y0689895D01*
X0885662Y0690038D01*
X0886114Y0690157D01*
X0886590Y0690252D01*
X0887114Y0690276D01*
X0887281D01*
X0887495Y0690252D01*
X0887733Y0690229D01*
X0888018Y0690157D01*
X0888352Y0690086D01*
X0888661Y0689967D01*
X0888970Y0689824D01*
X0889018Y0689800D01*
X0889113Y0689753D01*
X0889256Y0689657D01*
X0889446Y0689515D01*
X0889661Y0689348D01*
X0889899Y0689158D01*
X0890113Y0688943D01*
X0890327Y0688682D01*
Y0694417D01*
X0892302D01*
Y0678400D01*
D02*
G37*
G36*
X1088748Y0690252D02*
X1088890Y0690229D01*
X1089247Y0690181D01*
X1089652Y0690086D01*
X1090080Y0689943D01*
X1090533Y0689753D01*
X1090961Y0689491D01*
X1090985D01*
X1091009Y0689467D01*
X1091151Y0689348D01*
X1091342Y0689181D01*
X1091604Y0688943D01*
X1091889Y0688634D01*
X1092175Y0688253D01*
X1092437Y0687825D01*
X1092675Y0687325D01*
Y0687301D01*
X1092698Y0687254D01*
X1092722Y0687182D01*
X1092770Y0687087D01*
X1092817Y0686944D01*
X1092865Y0686801D01*
X1092984Y0686421D01*
X1093079Y0685968D01*
X1093174Y0685469D01*
X1093246Y0684897D01*
X1093270Y0684279D01*
Y0684255D01*
Y0684207D01*
Y0684112D01*
Y0683969D01*
X1093246Y0683826D01*
Y0683636D01*
X1093198Y0683208D01*
X1093103Y0682708D01*
X1093008Y0682160D01*
X1092841Y0681613D01*
X1092627Y0681066D01*
Y0681042D01*
X1092603Y0680994D01*
X1092556Y0680923D01*
X1092508Y0680828D01*
X1092365Y0680566D01*
X1092151Y0680256D01*
X1091889Y0679899D01*
X1091580Y0679542D01*
X1091199Y0679185D01*
X1090771Y0678876D01*
X1090747D01*
X1090723Y0678852D01*
X1090652Y0678805D01*
X1090556Y0678757D01*
X1090318Y0678638D01*
X1089985Y0678519D01*
X1089604Y0678376D01*
X1089176Y0678257D01*
X1088700Y0678162D01*
X1088200Y0678138D01*
X1088034D01*
X1087843Y0678162D01*
X1087605Y0678186D01*
X1087343Y0678233D01*
X1087058Y0678305D01*
X1086748Y0678400D01*
X1086439Y0678543D01*
X1086415Y0678567D01*
X1086320Y0678614D01*
X1086177Y0678709D01*
X1085987Y0678828D01*
X1085796Y0678971D01*
X1085582Y0679162D01*
X1085368Y0679352D01*
X1085178Y0679590D01*
Y0673949D01*
X1083202D01*
Y0690014D01*
X1085011D01*
Y0688491D01*
X1085035Y0688539D01*
X1085130Y0688634D01*
X1085249Y0688801D01*
X1085416Y0688991D01*
X1085630Y0689205D01*
X1085868Y0689419D01*
X1086130Y0689634D01*
X1086415Y0689824D01*
X1086463Y0689848D01*
X1086558Y0689895D01*
X1086725Y0689967D01*
X1086963Y0690062D01*
X1087248Y0690133D01*
X1087581Y0690205D01*
X1087962Y0690252D01*
X1088367Y0690276D01*
X1088605D01*
X1088748Y0690252D01*
D02*
G37*
G36*
X0939379Y0694441D02*
X0939545D01*
X0939736Y0694417D01*
X0940164Y0694322D01*
X0940664Y0694203D01*
X0941188Y0694013D01*
X0941687Y0693751D01*
X0941925Y0693584D01*
X0942163Y0693394D01*
X0942187D01*
X0942211Y0693346D01*
X0942282Y0693275D01*
X0942354Y0693204D01*
X0942568Y0692966D01*
X0942806Y0692632D01*
X0943068Y0692204D01*
X0943306Y0691704D01*
X0943496Y0691133D01*
X0943639Y0690467D01*
X0941687Y0690324D01*
Y0690348D01*
X0941664Y0690371D01*
X0941640Y0690514D01*
X0941568Y0690705D01*
X0941497Y0690966D01*
X0941378Y0691228D01*
X0941235Y0691514D01*
X0941092Y0691776D01*
X0940926Y0691990D01*
X0940878Y0692037D01*
X0940783Y0692133D01*
X0940616Y0692252D01*
X0940378Y0692418D01*
X0940093Y0692585D01*
X0939760Y0692704D01*
X0939379Y0692799D01*
X0938950Y0692847D01*
X0938784D01*
X0938617Y0692823D01*
X0938379Y0692775D01*
X0938117Y0692728D01*
X0937856Y0692632D01*
X0937570Y0692490D01*
X0937284Y0692323D01*
X0937237Y0692299D01*
X0937142Y0692204D01*
X0936951Y0692037D01*
X0936761Y0691823D01*
X0936523Y0691538D01*
X0936261Y0691181D01*
X0936023Y0690776D01*
X0935809Y0690324D01*
Y0690300D01*
X0935785Y0690276D01*
X0935761Y0690181D01*
X0935714Y0690086D01*
X0935690Y0689943D01*
X0935642Y0689800D01*
X0935595Y0689610D01*
X0935547Y0689372D01*
X0935476Y0689134D01*
X0935428Y0688848D01*
X0935380Y0688563D01*
X0935357Y0688229D01*
X0935309Y0687872D01*
X0935285Y0687492D01*
X0935261Y0687063D01*
Y0686659D01*
X0935285Y0686682D01*
X0935380Y0686801D01*
X0935523Y0686992D01*
X0935737Y0687230D01*
X0935975Y0687492D01*
X0936285Y0687753D01*
X0936618Y0688015D01*
X0936975Y0688229D01*
X0936999D01*
X0937023Y0688253D01*
X0937165Y0688325D01*
X0937356Y0688396D01*
X0937641Y0688515D01*
X0937975Y0688610D01*
X0938332Y0688682D01*
X0938736Y0688753D01*
X0939141Y0688777D01*
X0939331D01*
X0939474Y0688753D01*
X0939641Y0688729D01*
X0939831Y0688705D01*
X0940307Y0688586D01*
X0940831Y0688420D01*
X0941116Y0688301D01*
X0941402Y0688158D01*
X0941664Y0687991D01*
X0941949Y0687801D01*
X0942235Y0687587D01*
X0942497Y0687325D01*
X0942520Y0687301D01*
X0942568Y0687254D01*
X0942616Y0687182D01*
X0942711Y0687063D01*
X0942830Y0686920D01*
X0942949Y0686754D01*
X0943068Y0686540D01*
X0943211Y0686325D01*
X0943330Y0686064D01*
X0943449Y0685778D01*
X0943568Y0685469D01*
X0943687Y0685135D01*
X0943782Y0684778D01*
X0943829Y0684398D01*
X0943877Y0684017D01*
X0943901Y0683588D01*
Y0683565D01*
Y0683517D01*
Y0683446D01*
Y0683327D01*
X0943877Y0683208D01*
Y0683041D01*
X0943829Y0682684D01*
X0943734Y0682256D01*
X0943615Y0681780D01*
X0943449Y0681280D01*
X0943234Y0680780D01*
Y0680756D01*
X0943211Y0680732D01*
X0943163Y0680661D01*
X0943115Y0680566D01*
X0942973Y0680328D01*
X0942782Y0680042D01*
X0942520Y0679733D01*
X0942211Y0679400D01*
X0941854Y0679090D01*
X0941449Y0678805D01*
X0941426D01*
X0941402Y0678781D01*
X0941330Y0678733D01*
X0941259Y0678709D01*
X0941021Y0678590D01*
X0940712Y0678471D01*
X0940331Y0678352D01*
X0939879Y0678233D01*
X0939403Y0678162D01*
X0938879Y0678138D01*
X0938760D01*
X0938641Y0678162D01*
X0938474D01*
X0938260Y0678186D01*
X0938022Y0678233D01*
X0937737Y0678281D01*
X0937451Y0678352D01*
X0937142Y0678448D01*
X0936808Y0678567D01*
X0936475Y0678709D01*
X0936142Y0678900D01*
X0935809Y0679090D01*
X0935476Y0679328D01*
X0935166Y0679614D01*
X0934857Y0679923D01*
X0934833Y0679947D01*
X0934785Y0680018D01*
X0934714Y0680114D01*
X0934619Y0680280D01*
X0934500Y0680471D01*
X0934357Y0680709D01*
X0934238Y0681018D01*
X0934095Y0681351D01*
X0933929Y0681732D01*
X0933810Y0682160D01*
X0933667Y0682660D01*
X0933548Y0683208D01*
X0933453Y0683779D01*
X0933381Y0684421D01*
X0933334Y0685135D01*
X0933310Y0685873D01*
Y0685897D01*
Y0685921D01*
Y0685992D01*
Y0686087D01*
X0933334Y0686325D01*
Y0686635D01*
X0933357Y0687016D01*
X0933405Y0687444D01*
X0933453Y0687944D01*
X0933524Y0688467D01*
X0933619Y0689015D01*
X0933738Y0689562D01*
X0933857Y0690133D01*
X0934024Y0690681D01*
X0934238Y0691228D01*
X0934452Y0691728D01*
X0934714Y0692204D01*
X0935023Y0692632D01*
X0935047Y0692656D01*
X0935095Y0692704D01*
X0935190Y0692799D01*
X0935309Y0692918D01*
X0935452Y0693061D01*
X0935642Y0693204D01*
X0935856Y0693370D01*
X0936094Y0693561D01*
X0936356Y0693727D01*
X0936666Y0693894D01*
X0936999Y0694037D01*
X0937356Y0694179D01*
X0937760Y0694298D01*
X0938165Y0694394D01*
X0938593Y0694441D01*
X0939069Y0694465D01*
X0939260D01*
X0939379Y0694441D01*
D02*
G37*
G36*
X1021013Y0694679D02*
X1021203D01*
X1021632Y0694632D01*
X1022108Y0694560D01*
X1022631Y0694441D01*
X1023179Y0694298D01*
X1023702Y0694108D01*
X1023726D01*
X1023774Y0694084D01*
X1023845Y0694060D01*
X1023940Y0694013D01*
X1024178Y0693870D01*
X1024488Y0693680D01*
X1024821Y0693442D01*
X1025178Y0693156D01*
X1025511Y0692823D01*
X1025797Y0692418D01*
X1025820Y0692371D01*
X1025916Y0692228D01*
X1026035Y0691990D01*
X1026177Y0691704D01*
X1026320Y0691323D01*
X1026439Y0690895D01*
X1026558Y0690419D01*
X1026606Y0689919D01*
X1024583Y0689776D01*
Y0689800D01*
Y0689848D01*
X1024559Y0689919D01*
X1024535Y0690014D01*
X1024488Y0690300D01*
X1024392Y0690633D01*
X1024226Y0690990D01*
X1024035Y0691371D01*
X1023797Y0691728D01*
X1023464Y0692037D01*
X1023417Y0692061D01*
X1023298Y0692156D01*
X1023060Y0692275D01*
X1022750Y0692442D01*
X1022369Y0692585D01*
X1021870Y0692704D01*
X1021298Y0692799D01*
X1020656Y0692823D01*
X1020346D01*
X1020180Y0692799D01*
X1020013Y0692775D01*
X1019585Y0692728D01*
X1019133Y0692656D01*
X1018680Y0692513D01*
X1018252Y0692347D01*
X1018038Y0692228D01*
X1017871Y0692109D01*
X1017824Y0692085D01*
X1017728Y0691990D01*
X1017586Y0691823D01*
X1017443Y0691633D01*
X1017276Y0691371D01*
X1017133Y0691085D01*
X1017038Y0690752D01*
X1016991Y0690395D01*
Y0690348D01*
Y0690252D01*
X1017014Y0690086D01*
X1017062Y0689895D01*
X1017133Y0689681D01*
X1017252Y0689443D01*
X1017395Y0689205D01*
X1017609Y0688991D01*
X1017633Y0688967D01*
X1017752Y0688896D01*
X1017824Y0688848D01*
X1017943Y0688777D01*
X1018062Y0688705D01*
X1018228Y0688634D01*
X1018419Y0688539D01*
X1018657Y0688467D01*
X1018918Y0688348D01*
X1019204Y0688253D01*
X1019537Y0688158D01*
X1019918Y0688039D01*
X1020346Y0687944D01*
X1020799Y0687825D01*
X1020822D01*
X1020918Y0687801D01*
X1021037Y0687777D01*
X1021227Y0687730D01*
X1021441Y0687682D01*
X1021679Y0687611D01*
X1022227Y0687492D01*
X1022798Y0687325D01*
X1023393Y0687158D01*
X1023655Y0687087D01*
X1023916Y0686992D01*
X1024154Y0686897D01*
X1024345Y0686825D01*
X1024369D01*
X1024416Y0686801D01*
X1024488Y0686754D01*
X1024583Y0686706D01*
X1024821Y0686563D01*
X1025130Y0686373D01*
X1025463Y0686135D01*
X1025820Y0685873D01*
X1026130Y0685540D01*
X1026415Y0685183D01*
X1026439Y0685135D01*
X1026511Y0685016D01*
X1026630Y0684802D01*
X1026749Y0684540D01*
X1026868Y0684207D01*
X1026987Y0683826D01*
X1027058Y0683398D01*
X1027082Y0682922D01*
Y0682898D01*
Y0682874D01*
Y0682803D01*
Y0682708D01*
X1027034Y0682446D01*
X1026987Y0682137D01*
X1026891Y0681756D01*
X1026772Y0681351D01*
X1026582Y0680923D01*
X1026344Y0680494D01*
Y0680471D01*
X1026320Y0680447D01*
X1026201Y0680304D01*
X1026035Y0680114D01*
X1025797Y0679852D01*
X1025511Y0679590D01*
X1025130Y0679281D01*
X1024726Y0679019D01*
X1024226Y0678757D01*
X1024202D01*
X1024154Y0678733D01*
X1024083Y0678709D01*
X1023988Y0678662D01*
X1023869Y0678614D01*
X1023702Y0678567D01*
X1023345Y0678448D01*
X1022869Y0678329D01*
X1022369Y0678233D01*
X1021774Y0678162D01*
X1021156Y0678138D01*
X1020799D01*
X1020608Y0678162D01*
X1020394D01*
X1020156Y0678186D01*
X1019894Y0678210D01*
X1019323Y0678281D01*
X1018704Y0678400D01*
X1018085Y0678543D01*
X1017514Y0678757D01*
X1017490D01*
X1017443Y0678781D01*
X1017371Y0678828D01*
X1017276Y0678876D01*
X1017014Y0679019D01*
X1016681Y0679233D01*
X1016300Y0679495D01*
X1015920Y0679828D01*
X1015539Y0680209D01*
X1015206Y0680661D01*
Y0680685D01*
X1015182Y0680709D01*
X1015134Y0680780D01*
X1015087Y0680899D01*
X1015015Y0681018D01*
X1014944Y0681161D01*
X1014777Y0681518D01*
X1014634Y0681946D01*
X1014492Y0682422D01*
X1014396Y0682970D01*
X1014349Y0683565D01*
X1016348Y0683731D01*
Y0683707D01*
Y0683684D01*
X1016372Y0683541D01*
X1016419Y0683303D01*
X1016467Y0683017D01*
X1016562Y0682708D01*
X1016681Y0682375D01*
X1016824Y0682041D01*
X1016991Y0681732D01*
X1017014Y0681708D01*
X1017086Y0681613D01*
X1017205Y0681470D01*
X1017395Y0681304D01*
X1017609Y0681089D01*
X1017895Y0680899D01*
X1018228Y0680685D01*
X1018609Y0680494D01*
X1018633D01*
X1018657Y0680471D01*
X1018799Y0680423D01*
X1019037Y0680352D01*
X1019323Y0680256D01*
X1019680Y0680161D01*
X1020108Y0680090D01*
X1020561Y0680042D01*
X1021060Y0680018D01*
X1021275D01*
X1021489Y0680042D01*
X1021774Y0680066D01*
X1022108Y0680114D01*
X1022465Y0680161D01*
X1022822Y0680256D01*
X1023179Y0680375D01*
X1023226Y0680399D01*
X1023321Y0680447D01*
X1023488Y0680518D01*
X1023702Y0680637D01*
X1023916Y0680780D01*
X1024154Y0680947D01*
X1024369Y0681137D01*
X1024559Y0681351D01*
X1024583Y0681375D01*
X1024630Y0681470D01*
X1024702Y0681589D01*
X1024797Y0681756D01*
X1024892Y0681970D01*
X1024964Y0682208D01*
X1025011Y0682470D01*
X1025035Y0682732D01*
Y0682755D01*
Y0682851D01*
X1025011Y0682993D01*
X1024987Y0683184D01*
X1024940Y0683398D01*
X1024845Y0683612D01*
X1024749Y0683826D01*
X1024607Y0684041D01*
X1024583Y0684064D01*
X1024535Y0684136D01*
X1024416Y0684231D01*
X1024273Y0684374D01*
X1024059Y0684517D01*
X1023821Y0684683D01*
X1023512Y0684850D01*
X1023155Y0684993D01*
X1023131Y0685016D01*
X1023012Y0685040D01*
X1022845Y0685112D01*
X1022703Y0685135D01*
X1022560Y0685183D01*
X1022369Y0685231D01*
X1022179Y0685302D01*
X1021941Y0685373D01*
X1021679Y0685445D01*
X1021394Y0685516D01*
X1021060Y0685588D01*
X1020703Y0685683D01*
X1020299Y0685778D01*
X1020275D01*
X1020204Y0685802D01*
X1020085Y0685826D01*
X1019942Y0685873D01*
X1019751Y0685921D01*
X1019561Y0685968D01*
X1019085Y0686111D01*
X1018561Y0686254D01*
X1018062Y0686421D01*
X1017586Y0686587D01*
X1017395Y0686682D01*
X1017205Y0686778D01*
X1017181D01*
X1017157Y0686801D01*
X1017014Y0686897D01*
X1016824Y0687016D01*
X1016562Y0687182D01*
X1016277Y0687396D01*
X1015991Y0687658D01*
X1015729Y0687944D01*
X1015491Y0688253D01*
X1015467Y0688301D01*
X1015396Y0688420D01*
X1015325Y0688610D01*
X1015229Y0688848D01*
X1015110Y0689134D01*
X1015039Y0689491D01*
X1014968Y0689872D01*
X1014944Y0690276D01*
Y0690300D01*
Y0690324D01*
Y0690395D01*
Y0690490D01*
X1014991Y0690705D01*
X1015039Y0691014D01*
X1015110Y0691371D01*
X1015229Y0691752D01*
X1015396Y0692133D01*
X1015610Y0692537D01*
Y0692561D01*
X1015634Y0692585D01*
X1015729Y0692704D01*
X1015896Y0692894D01*
X1016134Y0693132D01*
X1016419Y0693394D01*
X1016753Y0693680D01*
X1017157Y0693941D01*
X1017633Y0694156D01*
X1017657D01*
X1017705Y0694179D01*
X1017776Y0694203D01*
X1017871Y0694251D01*
X1017990Y0694275D01*
X1018133Y0694322D01*
X1018490Y0694441D01*
X1018942Y0694536D01*
X1019442Y0694608D01*
X1019989Y0694679D01*
X1020561Y0694703D01*
X1020870D01*
X1021013Y0694679D01*
D02*
G37*
G36*
X0843132D02*
X0843322D01*
X0843750Y0694632D01*
X0844226Y0694560D01*
X0844750Y0694441D01*
X0845297Y0694298D01*
X0845821Y0694108D01*
X0845845D01*
X0845892Y0694084D01*
X0845964Y0694060D01*
X0846059Y0694013D01*
X0846297Y0693870D01*
X0846606Y0693680D01*
X0846940Y0693442D01*
X0847297Y0693156D01*
X0847630Y0692823D01*
X0847915Y0692418D01*
X0847939Y0692371D01*
X0848034Y0692228D01*
X0848153Y0691990D01*
X0848296Y0691704D01*
X0848439Y0691323D01*
X0848558Y0690895D01*
X0848677Y0690419D01*
X0848725Y0689919D01*
X0846702Y0689776D01*
Y0689800D01*
Y0689848D01*
X0846678Y0689919D01*
X0846654Y0690014D01*
X0846606Y0690300D01*
X0846511Y0690633D01*
X0846345Y0690990D01*
X0846154Y0691371D01*
X0845916Y0691728D01*
X0845583Y0692037D01*
X0845535Y0692061D01*
X0845416Y0692156D01*
X0845178Y0692275D01*
X0844869Y0692442D01*
X0844488Y0692585D01*
X0843988Y0692704D01*
X0843417Y0692799D01*
X0842775Y0692823D01*
X0842465D01*
X0842299Y0692799D01*
X0842132Y0692775D01*
X0841704Y0692728D01*
X0841251Y0692656D01*
X0840799Y0692513D01*
X0840371Y0692347D01*
X0840157Y0692228D01*
X0839990Y0692109D01*
X0839942Y0692085D01*
X0839847Y0691990D01*
X0839704Y0691823D01*
X0839562Y0691633D01*
X0839395Y0691371D01*
X0839252Y0691085D01*
X0839157Y0690752D01*
X0839109Y0690395D01*
Y0690348D01*
Y0690252D01*
X0839133Y0690086D01*
X0839181Y0689895D01*
X0839252Y0689681D01*
X0839371Y0689443D01*
X0839514Y0689205D01*
X0839728Y0688991D01*
X0839752Y0688967D01*
X0839871Y0688896D01*
X0839942Y0688848D01*
X0840061Y0688777D01*
X0840180Y0688705D01*
X0840347Y0688634D01*
X0840537Y0688539D01*
X0840775Y0688467D01*
X0841037Y0688348D01*
X0841323Y0688253D01*
X0841656Y0688158D01*
X0842037Y0688039D01*
X0842465Y0687944D01*
X0842917Y0687825D01*
X0842941D01*
X0843036Y0687801D01*
X0843155Y0687777D01*
X0843346Y0687730D01*
X0843560Y0687682D01*
X0843798Y0687611D01*
X0844345Y0687492D01*
X0844917Y0687325D01*
X0845512Y0687158D01*
X0845773Y0687087D01*
X0846035Y0686992D01*
X0846273Y0686897D01*
X0846464Y0686825D01*
X0846487D01*
X0846535Y0686801D01*
X0846606Y0686754D01*
X0846702Y0686706D01*
X0846940Y0686563D01*
X0847249Y0686373D01*
X0847582Y0686135D01*
X0847939Y0685873D01*
X0848249Y0685540D01*
X0848534Y0685183D01*
X0848558Y0685135D01*
X0848629Y0685016D01*
X0848748Y0684802D01*
X0848867Y0684540D01*
X0848986Y0684207D01*
X0849105Y0683826D01*
X0849177Y0683398D01*
X0849201Y0682922D01*
Y0682898D01*
Y0682874D01*
Y0682803D01*
Y0682708D01*
X0849153Y0682446D01*
X0849105Y0682137D01*
X0849010Y0681756D01*
X0848891Y0681351D01*
X0848701Y0680923D01*
X0848463Y0680494D01*
Y0680471D01*
X0848439Y0680447D01*
X0848320Y0680304D01*
X0848153Y0680114D01*
X0847915Y0679852D01*
X0847630Y0679590D01*
X0847249Y0679281D01*
X0846844Y0679019D01*
X0846345Y0678757D01*
X0846321D01*
X0846273Y0678733D01*
X0846202Y0678709D01*
X0846107Y0678662D01*
X0845988Y0678614D01*
X0845821Y0678567D01*
X0845464Y0678448D01*
X0844988Y0678329D01*
X0844488Y0678233D01*
X0843893Y0678162D01*
X0843274Y0678138D01*
X0842917D01*
X0842727Y0678162D01*
X0842513D01*
X0842275Y0678186D01*
X0842013Y0678210D01*
X0841442Y0678281D01*
X0840823Y0678400D01*
X0840204Y0678543D01*
X0839633Y0678757D01*
X0839609D01*
X0839562Y0678781D01*
X0839490Y0678828D01*
X0839395Y0678876D01*
X0839133Y0679019D01*
X0838800Y0679233D01*
X0838419Y0679495D01*
X0838038Y0679828D01*
X0837658Y0680209D01*
X0837324Y0680661D01*
Y0680685D01*
X0837301Y0680709D01*
X0837253Y0680780D01*
X0837205Y0680899D01*
X0837134Y0681018D01*
X0837063Y0681161D01*
X0836896Y0681518D01*
X0836753Y0681946D01*
X0836610Y0682422D01*
X0836515Y0682970D01*
X0836468Y0683565D01*
X0838467Y0683731D01*
Y0683707D01*
Y0683684D01*
X0838491Y0683541D01*
X0838538Y0683303D01*
X0838586Y0683017D01*
X0838681Y0682708D01*
X0838800Y0682375D01*
X0838943Y0682041D01*
X0839109Y0681732D01*
X0839133Y0681708D01*
X0839205Y0681613D01*
X0839324Y0681470D01*
X0839514Y0681304D01*
X0839728Y0681089D01*
X0840014Y0680899D01*
X0840347Y0680685D01*
X0840728Y0680494D01*
X0840752D01*
X0840775Y0680471D01*
X0840918Y0680423D01*
X0841156Y0680352D01*
X0841442Y0680256D01*
X0841799Y0680161D01*
X0842227Y0680090D01*
X0842679Y0680042D01*
X0843179Y0680018D01*
X0843393D01*
X0843608Y0680042D01*
X0843893Y0680066D01*
X0844226Y0680114D01*
X0844583Y0680161D01*
X0844940Y0680256D01*
X0845297Y0680375D01*
X0845345Y0680399D01*
X0845440Y0680447D01*
X0845607Y0680518D01*
X0845821Y0680637D01*
X0846035Y0680780D01*
X0846273Y0680947D01*
X0846487Y0681137D01*
X0846678Y0681351D01*
X0846702Y0681375D01*
X0846749Y0681470D01*
X0846821Y0681589D01*
X0846916Y0681756D01*
X0847011Y0681970D01*
X0847082Y0682208D01*
X0847130Y0682470D01*
X0847154Y0682732D01*
Y0682755D01*
Y0682851D01*
X0847130Y0682993D01*
X0847106Y0683184D01*
X0847059Y0683398D01*
X0846963Y0683612D01*
X0846868Y0683826D01*
X0846725Y0684041D01*
X0846702Y0684064D01*
X0846654Y0684136D01*
X0846535Y0684231D01*
X0846392Y0684374D01*
X0846178Y0684517D01*
X0845940Y0684683D01*
X0845631Y0684850D01*
X0845274Y0684993D01*
X0845250Y0685016D01*
X0845131Y0685040D01*
X0844964Y0685112D01*
X0844821Y0685135D01*
X0844679Y0685183D01*
X0844488Y0685231D01*
X0844298Y0685302D01*
X0844060Y0685373D01*
X0843798Y0685445D01*
X0843512Y0685516D01*
X0843179Y0685588D01*
X0842822Y0685683D01*
X0842418Y0685778D01*
X0842394D01*
X0842322Y0685802D01*
X0842203Y0685826D01*
X0842061Y0685873D01*
X0841870Y0685921D01*
X0841680Y0685968D01*
X0841204Y0686111D01*
X0840680Y0686254D01*
X0840180Y0686421D01*
X0839704Y0686587D01*
X0839514Y0686682D01*
X0839324Y0686778D01*
X0839300D01*
X0839276Y0686801D01*
X0839133Y0686897D01*
X0838943Y0687016D01*
X0838681Y0687182D01*
X0838395Y0687396D01*
X0838110Y0687658D01*
X0837848Y0687944D01*
X0837610Y0688253D01*
X0837586Y0688301D01*
X0837515Y0688420D01*
X0837443Y0688610D01*
X0837348Y0688848D01*
X0837229Y0689134D01*
X0837158Y0689491D01*
X0837086Y0689872D01*
X0837063Y0690276D01*
Y0690300D01*
Y0690324D01*
Y0690395D01*
Y0690490D01*
X0837110Y0690705D01*
X0837158Y0691014D01*
X0837229Y0691371D01*
X0837348Y0691752D01*
X0837515Y0692133D01*
X0837729Y0692537D01*
Y0692561D01*
X0837753Y0692585D01*
X0837848Y0692704D01*
X0838015Y0692894D01*
X0838253Y0693132D01*
X0838538Y0693394D01*
X0838871Y0693680D01*
X0839276Y0693941D01*
X0839752Y0694156D01*
X0839776D01*
X0839823Y0694179D01*
X0839895Y0694203D01*
X0839990Y0694251D01*
X0840109Y0694275D01*
X0840252Y0694322D01*
X0840609Y0694441D01*
X0841061Y0694536D01*
X0841561Y0694608D01*
X0842108Y0694679D01*
X0842679Y0694703D01*
X0842989D01*
X0843132Y0694679D01*
D02*
G37*
G36*
X0811382Y0690252D02*
X0811692Y0690229D01*
X0812073Y0690181D01*
X0812477Y0690110D01*
X0812882Y0690014D01*
X0813286Y0689872D01*
X0813310D01*
X0813334Y0689848D01*
X0813453Y0689800D01*
X0813643Y0689705D01*
X0813858Y0689586D01*
X0814119Y0689443D01*
X0814357Y0689253D01*
X0814595Y0689039D01*
X0814810Y0688801D01*
X0814833Y0688777D01*
X0814881Y0688682D01*
X0814976Y0688539D01*
X0815095Y0688325D01*
X0815190Y0688063D01*
X0815309Y0687777D01*
X0815405Y0687420D01*
X0815500Y0687016D01*
X0813572Y0686754D01*
Y0686801D01*
X0813548Y0686897D01*
X0813501Y0687063D01*
X0813429Y0687254D01*
X0813310Y0687468D01*
X0813191Y0687706D01*
X0813001Y0687944D01*
X0812787Y0688134D01*
X0812763Y0688158D01*
X0812668Y0688206D01*
X0812525Y0688301D01*
X0812334Y0688396D01*
X0812096Y0688491D01*
X0811787Y0688586D01*
X0811430Y0688634D01*
X0811025Y0688658D01*
X0810811D01*
X0810573Y0688634D01*
X0810288Y0688610D01*
X0809954Y0688539D01*
X0809645Y0688467D01*
X0809336Y0688348D01*
X0809098Y0688206D01*
X0809074Y0688182D01*
X0809002Y0688134D01*
X0808907Y0688039D01*
X0808812Y0687896D01*
X0808717Y0687753D01*
X0808622Y0687563D01*
X0808550Y0687373D01*
X0808526Y0687158D01*
Y0687135D01*
Y0687087D01*
X0808550Y0687016D01*
Y0686920D01*
X0808622Y0686706D01*
X0808764Y0686468D01*
X0808788Y0686444D01*
X0808812Y0686421D01*
X0808955Y0686278D01*
X0809050Y0686206D01*
X0809169Y0686111D01*
X0809336Y0686016D01*
X0809502Y0685945D01*
X0809526D01*
X0809574Y0685921D01*
X0809669Y0685897D01*
X0809835Y0685826D01*
X0810073Y0685754D01*
X0810359Y0685683D01*
X0810549Y0685611D01*
X0810764Y0685564D01*
X0810978Y0685492D01*
X0811240Y0685421D01*
X0811263D01*
X0811335Y0685397D01*
X0811430Y0685373D01*
X0811573Y0685326D01*
X0811739Y0685278D01*
X0811954Y0685231D01*
X0812382Y0685112D01*
X0812858Y0684969D01*
X0813358Y0684802D01*
X0813786Y0684659D01*
X0813977Y0684588D01*
X0814143Y0684517D01*
X0814191Y0684493D01*
X0814286Y0684445D01*
X0814429Y0684374D01*
X0814619Y0684255D01*
X0814833Y0684112D01*
X0815048Y0683922D01*
X0815262Y0683707D01*
X0815452Y0683469D01*
X0815476Y0683446D01*
X0815524Y0683350D01*
X0815595Y0683208D01*
X0815690Y0683017D01*
X0815785Y0682779D01*
X0815857Y0682494D01*
X0815904Y0682160D01*
X0815928Y0681803D01*
Y0681756D01*
Y0681637D01*
X0815904Y0681446D01*
X0815857Y0681208D01*
X0815785Y0680923D01*
X0815666Y0680613D01*
X0815524Y0680280D01*
X0815333Y0679947D01*
X0815309Y0679899D01*
X0815238Y0679804D01*
X0815095Y0679638D01*
X0814905Y0679447D01*
X0814667Y0679233D01*
X0814381Y0678995D01*
X0814048Y0678781D01*
X0813667Y0678590D01*
X0813620Y0678567D01*
X0813477Y0678519D01*
X0813263Y0678448D01*
X0812953Y0678376D01*
X0812596Y0678281D01*
X0812192Y0678210D01*
X0811739Y0678162D01*
X0811240Y0678138D01*
X0811025D01*
X0810859Y0678162D01*
X0810668D01*
X0810454Y0678186D01*
X0809954Y0678257D01*
X0809407Y0678376D01*
X0808836Y0678519D01*
X0808288Y0678757D01*
X0808027Y0678900D01*
X0807789Y0679066D01*
X0807765D01*
X0807741Y0679114D01*
X0807598Y0679257D01*
X0807408Y0679471D01*
X0807146Y0679780D01*
X0806908Y0680161D01*
X0806646Y0680661D01*
X0806432Y0681232D01*
X0806289Y0681875D01*
X0808241Y0682184D01*
Y0682160D01*
Y0682137D01*
X0808265Y0681994D01*
X0808336Y0681780D01*
X0808407Y0681518D01*
X0808526Y0681232D01*
X0808669Y0680923D01*
X0808883Y0680637D01*
X0809121Y0680375D01*
X0809169Y0680352D01*
X0809264Y0680280D01*
X0809431Y0680185D01*
X0809669Y0680066D01*
X0809978Y0679947D01*
X0810335Y0679852D01*
X0810764Y0679780D01*
X0811240Y0679757D01*
X0811454D01*
X0811692Y0679780D01*
X0812001Y0679828D01*
X0812311Y0679899D01*
X0812644Y0679995D01*
X0812953Y0680114D01*
X0813239Y0680304D01*
X0813263Y0680328D01*
X0813334Y0680399D01*
X0813453Y0680518D01*
X0813572Y0680661D01*
X0813691Y0680851D01*
X0813810Y0681089D01*
X0813881Y0681327D01*
X0813905Y0681589D01*
Y0681613D01*
Y0681708D01*
X0813881Y0681827D01*
X0813834Y0681970D01*
X0813762Y0682137D01*
X0813643Y0682303D01*
X0813501Y0682494D01*
X0813310Y0682636D01*
X0813286Y0682660D01*
X0813215Y0682684D01*
X0813096Y0682732D01*
X0812906Y0682827D01*
X0812644Y0682922D01*
X0812287Y0683017D01*
X0812096Y0683089D01*
X0811858Y0683160D01*
X0811597Y0683231D01*
X0811311Y0683303D01*
X0811287D01*
X0811216Y0683327D01*
X0811097Y0683350D01*
X0810954Y0683398D01*
X0810787Y0683446D01*
X0810573Y0683493D01*
X0810121Y0683636D01*
X0809621Y0683779D01*
X0809121Y0683945D01*
X0808669Y0684088D01*
X0808479Y0684183D01*
X0808312Y0684255D01*
X0808265Y0684279D01*
X0808169Y0684326D01*
X0808027Y0684421D01*
X0807836Y0684540D01*
X0807646Y0684707D01*
X0807432Y0684897D01*
X0807217Y0685112D01*
X0807051Y0685350D01*
X0807027Y0685373D01*
X0806979Y0685469D01*
X0806908Y0685611D01*
X0806837Y0685826D01*
X0806765Y0686040D01*
X0806694Y0686325D01*
X0806646Y0686611D01*
X0806622Y0686920D01*
Y0686968D01*
Y0687063D01*
X0806646Y0687206D01*
X0806670Y0687396D01*
X0806694Y0687611D01*
X0806765Y0687849D01*
X0806837Y0688110D01*
X0806956Y0688348D01*
X0806979Y0688372D01*
X0807027Y0688467D01*
X0807098Y0688586D01*
X0807217Y0688729D01*
X0807360Y0688920D01*
X0807527Y0689110D01*
X0807717Y0689300D01*
X0807931Y0689467D01*
X0807955Y0689491D01*
X0808027Y0689515D01*
X0808122Y0689586D01*
X0808265Y0689657D01*
X0808431Y0689753D01*
X0808645Y0689848D01*
X0808883Y0689943D01*
X0809169Y0690038D01*
X0809217D01*
X0809312Y0690086D01*
X0809478Y0690110D01*
X0809693Y0690157D01*
X0809954Y0690205D01*
X0810240Y0690229D01*
X0810549Y0690276D01*
X0811121D01*
X0811382Y0690252D01*
D02*
G37*
G36*
X1053381D02*
X1053547D01*
X1053738Y0690229D01*
X1054166Y0690157D01*
X1054642Y0690038D01*
X1055166Y0689872D01*
X1055666Y0689634D01*
X1056142Y0689300D01*
X1056165D01*
X1056189Y0689253D01*
X1056332Y0689134D01*
X1056546Y0688896D01*
X1056784Y0688610D01*
X1057046Y0688229D01*
X1057308Y0687753D01*
X1057522Y0687206D01*
X1057689Y0686587D01*
X1055785Y0686302D01*
Y0686325D01*
X1055761Y0686349D01*
X1055737Y0686492D01*
X1055666Y0686706D01*
X1055547Y0686968D01*
X1055428Y0687254D01*
X1055261Y0687539D01*
X1055047Y0687825D01*
X1054809Y0688063D01*
X1054785Y0688087D01*
X1054690Y0688158D01*
X1054547Y0688253D01*
X1054333Y0688372D01*
X1054095Y0688467D01*
X1053809Y0688563D01*
X1053500Y0688634D01*
X1053143Y0688658D01*
X1053000D01*
X1052905Y0688634D01*
X1052619Y0688610D01*
X1052286Y0688515D01*
X1051905Y0688396D01*
X1051501Y0688206D01*
X1051120Y0687944D01*
X1050929Y0687777D01*
X1050739Y0687587D01*
X1050691Y0687539D01*
X1050668Y0687468D01*
X1050596Y0687373D01*
X1050525Y0687277D01*
X1050453Y0687135D01*
X1050382Y0686968D01*
X1050287Y0686754D01*
X1050192Y0686540D01*
X1050120Y0686302D01*
X1050049Y0686016D01*
X1049977Y0685707D01*
X1049930Y0685373D01*
X1049882Y0685016D01*
X1049835Y0684636D01*
Y0684207D01*
Y0684183D01*
Y0684112D01*
Y0683993D01*
X1049858Y0683826D01*
Y0683636D01*
X1049882Y0683422D01*
X1049954Y0682898D01*
X1050049Y0682351D01*
X1050215Y0681780D01*
X1050430Y0681256D01*
X1050572Y0681018D01*
X1050715Y0680804D01*
X1050763Y0680756D01*
X1050882Y0680637D01*
X1051072Y0680471D01*
X1051334Y0680280D01*
X1051667Y0680090D01*
X1052072Y0679923D01*
X1052524Y0679804D01*
X1052786Y0679780D01*
X1053048Y0679757D01*
X1053238D01*
X1053452Y0679804D01*
X1053714Y0679852D01*
X1054023Y0679923D01*
X1054333Y0680042D01*
X1054642Y0680209D01*
X1054952Y0680447D01*
X1054975Y0680471D01*
X1055071Y0680590D01*
X1055213Y0680756D01*
X1055380Y0680994D01*
X1055547Y0681304D01*
X1055713Y0681684D01*
X1055856Y0682137D01*
X1055951Y0682660D01*
X1057879Y0682398D01*
Y0682375D01*
X1057855Y0682303D01*
X1057831Y0682208D01*
X1057808Y0682065D01*
X1057760Y0681899D01*
X1057712Y0681708D01*
X1057546Y0681256D01*
X1057332Y0680756D01*
X1057046Y0680233D01*
X1056689Y0679709D01*
X1056237Y0679257D01*
X1056213D01*
X1056189Y0679209D01*
X1056118Y0679162D01*
X1055999Y0679090D01*
X1055880Y0678995D01*
X1055737Y0678900D01*
X1055547Y0678805D01*
X1055356Y0678709D01*
X1054904Y0678495D01*
X1054357Y0678305D01*
X1053738Y0678186D01*
X1053405Y0678162D01*
X1053048Y0678138D01*
X1052810D01*
X1052667Y0678162D01*
X1052453Y0678186D01*
X1052215Y0678210D01*
X1051977Y0678257D01*
X1051691Y0678329D01*
X1051072Y0678519D01*
X1050763Y0678638D01*
X1050453Y0678781D01*
X1050120Y0678971D01*
X1049811Y0679185D01*
X1049525Y0679423D01*
X1049240Y0679685D01*
X1049216Y0679709D01*
X1049168Y0679757D01*
X1049097Y0679852D01*
X1049025Y0679971D01*
X1048906Y0680137D01*
X1048787Y0680328D01*
X1048668Y0680566D01*
X1048526Y0680828D01*
X1048383Y0681113D01*
X1048264Y0681446D01*
X1048145Y0681827D01*
X1048026Y0682232D01*
X1047954Y0682660D01*
X1047883Y0683136D01*
X1047835Y0683636D01*
X1047812Y0684160D01*
Y0684183D01*
Y0684255D01*
Y0684350D01*
Y0684469D01*
X1047835Y0684636D01*
Y0684826D01*
X1047883Y0685278D01*
X1047954Y0685778D01*
X1048073Y0686349D01*
X1048216Y0686897D01*
X1048430Y0687444D01*
Y0687468D01*
X1048454Y0687515D01*
X1048502Y0687587D01*
X1048549Y0687682D01*
X1048692Y0687920D01*
X1048906Y0688229D01*
X1049168Y0688586D01*
X1049478Y0688920D01*
X1049858Y0689277D01*
X1050311Y0689562D01*
X1050334D01*
X1050358Y0689586D01*
X1050430Y0689634D01*
X1050525Y0689681D01*
X1050787Y0689800D01*
X1051120Y0689919D01*
X1051548Y0690062D01*
X1052000Y0690157D01*
X1052524Y0690252D01*
X1053071Y0690276D01*
X1053262D01*
X1053381Y0690252D01*
D02*
G37*
G36*
X0823378D02*
X0823592Y0690229D01*
X0823806Y0690181D01*
X0824068Y0690133D01*
X0824353Y0690086D01*
X0824948Y0689895D01*
X0825258Y0689753D01*
X0825591Y0689610D01*
X0825900Y0689419D01*
X0826210Y0689205D01*
X0826519Y0688967D01*
X0826805Y0688682D01*
X0826829Y0688658D01*
X0826876Y0688610D01*
X0826948Y0688515D01*
X0827043Y0688396D01*
X0827162Y0688229D01*
X0827281Y0688039D01*
X0827424Y0687801D01*
X0827566Y0687539D01*
X0827685Y0687230D01*
X0827828Y0686897D01*
X0827947Y0686540D01*
X0828066Y0686135D01*
X0828161Y0685707D01*
X0828233Y0685254D01*
X0828280Y0684755D01*
X0828304Y0684231D01*
Y0684207D01*
Y0684088D01*
Y0683922D01*
X0828280Y0683707D01*
X0819617D01*
Y0683684D01*
Y0683612D01*
X0819641Y0683517D01*
Y0683398D01*
X0819665Y0683231D01*
X0819689Y0683041D01*
X0819784Y0682613D01*
X0819927Y0682137D01*
X0820117Y0681661D01*
X0820355Y0681185D01*
X0820688Y0680756D01*
X0820736Y0680709D01*
X0820855Y0680590D01*
X0821069Y0680447D01*
X0821355Y0680256D01*
X0821712Y0680066D01*
X0822116Y0679923D01*
X0822592Y0679804D01*
X0823116Y0679757D01*
X0823306D01*
X0823497Y0679780D01*
X0823758Y0679828D01*
X0824044Y0679899D01*
X0824353Y0679995D01*
X0824663Y0680114D01*
X0824972Y0680304D01*
X0824996Y0680328D01*
X0825091Y0680423D01*
X0825234Y0680542D01*
X0825424Y0680756D01*
X0825615Y0680994D01*
X0825829Y0681327D01*
X0826019Y0681708D01*
X0826210Y0682137D01*
X0828233Y0681875D01*
Y0681851D01*
X0828209Y0681803D01*
X0828185Y0681708D01*
X0828138Y0681589D01*
X0828090Y0681423D01*
X0828019Y0681256D01*
X0827828Y0680851D01*
X0827590Y0680423D01*
X0827281Y0679947D01*
X0826900Y0679519D01*
X0826448Y0679114D01*
X0826424D01*
X0826400Y0679066D01*
X0826305Y0679019D01*
X0826210Y0678971D01*
X0826091Y0678900D01*
X0825924Y0678805D01*
X0825758Y0678709D01*
X0825543Y0678638D01*
X0825067Y0678448D01*
X0824496Y0678281D01*
X0823830Y0678186D01*
X0823116Y0678138D01*
X0822878D01*
X0822687Y0678162D01*
X0822473Y0678186D01*
X0822235Y0678210D01*
X0821950Y0678257D01*
X0821664Y0678329D01*
X0821021Y0678519D01*
X0820664Y0678638D01*
X0820331Y0678781D01*
X0819998Y0678971D01*
X0819665Y0679185D01*
X0819355Y0679423D01*
X0819070Y0679685D01*
X0819046Y0679709D01*
X0818998Y0679757D01*
X0818927Y0679852D01*
X0818832Y0679971D01*
X0818737Y0680137D01*
X0818594Y0680328D01*
X0818475Y0680566D01*
X0818332Y0680828D01*
X0818189Y0681113D01*
X0818070Y0681446D01*
X0817927Y0681803D01*
X0817832Y0682208D01*
X0817737Y0682636D01*
X0817666Y0683089D01*
X0817618Y0683565D01*
X0817594Y0684088D01*
Y0684112D01*
Y0684207D01*
Y0684374D01*
X0817618Y0684564D01*
X0817642Y0684826D01*
X0817666Y0685112D01*
X0817713Y0685421D01*
X0817785Y0685778D01*
X0817951Y0686492D01*
X0818094Y0686873D01*
X0818237Y0687254D01*
X0818403Y0687634D01*
X0818594Y0687991D01*
X0818832Y0688348D01*
X0819094Y0688658D01*
X0819117Y0688682D01*
X0819165Y0688729D01*
X0819260Y0688801D01*
X0819355Y0688920D01*
X0819522Y0689039D01*
X0819689Y0689181D01*
X0819903Y0689324D01*
X0820141Y0689467D01*
X0820403Y0689610D01*
X0820712Y0689776D01*
X0821021Y0689895D01*
X0821378Y0690014D01*
X0821735Y0690133D01*
X0822140Y0690205D01*
X0822568Y0690252D01*
X0822997Y0690276D01*
X0823211D01*
X0823378Y0690252D01*
D02*
G37*
G36*
X0876333D02*
X0876594Y0690229D01*
X0876880Y0690181D01*
X0877213Y0690110D01*
X0877546Y0690014D01*
X0877880Y0689895D01*
X0877927Y0689872D01*
X0878022Y0689824D01*
X0878189Y0689753D01*
X0878379Y0689634D01*
X0878594Y0689491D01*
X0878808Y0689324D01*
X0879022Y0689110D01*
X0879189Y0688896D01*
X0879212Y0688872D01*
X0879260Y0688777D01*
X0879331Y0688658D01*
X0879427Y0688491D01*
X0879546Y0688277D01*
X0879641Y0688015D01*
X0879736Y0687753D01*
X0879807Y0687444D01*
Y0687420D01*
X0879831Y0687349D01*
X0879855Y0687206D01*
X0879879Y0686992D01*
Y0686730D01*
X0879903Y0686421D01*
X0879926Y0686016D01*
Y0685540D01*
Y0678400D01*
X0877951D01*
Y0685445D01*
Y0685469D01*
Y0685492D01*
Y0685635D01*
Y0685849D01*
X0877927Y0686135D01*
X0877903Y0686421D01*
X0877856Y0686730D01*
X0877784Y0687016D01*
X0877713Y0687254D01*
Y0687277D01*
X0877665Y0687349D01*
X0877618Y0687468D01*
X0877523Y0687587D01*
X0877404Y0687753D01*
X0877261Y0687896D01*
X0877094Y0688063D01*
X0876880Y0688206D01*
X0876856Y0688229D01*
X0876785Y0688253D01*
X0876666Y0688325D01*
X0876499Y0688396D01*
X0876309Y0688444D01*
X0876071Y0688515D01*
X0875809Y0688539D01*
X0875523Y0688563D01*
X0875309D01*
X0875095Y0688515D01*
X0874786Y0688467D01*
X0874452Y0688372D01*
X0874095Y0688229D01*
X0873738Y0688015D01*
X0873381Y0687753D01*
X0873334Y0687706D01*
X0873239Y0687587D01*
X0873167Y0687492D01*
X0873096Y0687373D01*
X0873024Y0687230D01*
X0872929Y0687063D01*
X0872834Y0686873D01*
X0872763Y0686659D01*
X0872691Y0686421D01*
X0872620Y0686135D01*
X0872572Y0685826D01*
X0872525Y0685492D01*
X0872477Y0685135D01*
Y0684731D01*
Y0678400D01*
X0870502D01*
Y0690014D01*
X0872287D01*
Y0688348D01*
X0872310Y0688372D01*
X0872358Y0688444D01*
X0872429Y0688539D01*
X0872525Y0688658D01*
X0872644Y0688801D01*
X0872810Y0688967D01*
X0873001Y0689134D01*
X0873215Y0689324D01*
X0873453Y0689491D01*
X0873738Y0689657D01*
X0874048Y0689824D01*
X0874357Y0689967D01*
X0874714Y0690110D01*
X0875095Y0690205D01*
X0875523Y0690252D01*
X0875952Y0690276D01*
X0876118D01*
X0876333Y0690252D01*
D02*
G37*
G36*
X1005757D02*
X1006019Y0690205D01*
X1006328Y0690110D01*
X1006661Y0690014D01*
X1007042Y0689848D01*
X1007423Y0689634D01*
X1006709Y0687825D01*
X1006685Y0687849D01*
X1006590Y0687896D01*
X1006447Y0687968D01*
X1006257Y0688039D01*
X1006043Y0688110D01*
X1005805Y0688182D01*
X1005543Y0688229D01*
X1005281Y0688253D01*
X1005162D01*
X1005043Y0688229D01*
X1004900Y0688206D01*
X1004710Y0688158D01*
X1004519Y0688087D01*
X1004305Y0687991D01*
X1004115Y0687849D01*
X1004091Y0687825D01*
X1004043Y0687777D01*
X1003948Y0687682D01*
X1003829Y0687563D01*
X1003710Y0687420D01*
X1003615Y0687230D01*
X1003496Y0687016D01*
X1003401Y0686778D01*
X1003377Y0686730D01*
X1003353Y0686587D01*
X1003306Y0686373D01*
X1003258Y0686087D01*
X1003187Y0685754D01*
X1003139Y0685373D01*
X1003115Y0684921D01*
X1003091Y0684469D01*
Y0678400D01*
X1001116D01*
Y0690014D01*
X1002901D01*
Y0688277D01*
X1002925Y0688301D01*
X1003020Y0688444D01*
X1003139Y0688658D01*
X1003306Y0688920D01*
X1003496Y0689181D01*
X1003710Y0689467D01*
X1003924Y0689705D01*
X1004139Y0689872D01*
X1004162Y0689895D01*
X1004234Y0689943D01*
X1004353Y0689991D01*
X1004519Y0690086D01*
X1004710Y0690157D01*
X1004924Y0690205D01*
X1005138Y0690252D01*
X1005400Y0690276D01*
X1005567D01*
X1005757Y0690252D01*
D02*
G37*
G36*
X0912461D02*
X0912723Y0690205D01*
X0913032Y0690110D01*
X0913365Y0690014D01*
X0913746Y0689848D01*
X0914127Y0689634D01*
X0913413Y0687825D01*
X0913389Y0687849D01*
X0913294Y0687896D01*
X0913151Y0687968D01*
X0912961Y0688039D01*
X0912747Y0688110D01*
X0912509Y0688182D01*
X0912247Y0688229D01*
X0911985Y0688253D01*
X0911866D01*
X0911747Y0688229D01*
X0911604Y0688206D01*
X0911414Y0688158D01*
X0911223Y0688087D01*
X0911009Y0687991D01*
X0910819Y0687849D01*
X0910795Y0687825D01*
X0910747Y0687777D01*
X0910652Y0687682D01*
X0910533Y0687563D01*
X0910414Y0687420D01*
X0910319Y0687230D01*
X0910200Y0687016D01*
X0910105Y0686778D01*
X0910081Y0686730D01*
X0910057Y0686587D01*
X0910010Y0686373D01*
X0909962Y0686087D01*
X0909891Y0685754D01*
X0909843Y0685373D01*
X0909819Y0684921D01*
X0909795Y0684469D01*
Y0678400D01*
X0907820D01*
Y0690014D01*
X0909605D01*
Y0688277D01*
X0909629Y0688301D01*
X0909724Y0688444D01*
X0909843Y0688658D01*
X0910010Y0688920D01*
X0910200Y0689181D01*
X0910414Y0689467D01*
X0910628Y0689705D01*
X0910843Y0689872D01*
X0910866Y0689895D01*
X0910938Y0689943D01*
X0911057Y0689991D01*
X0911223Y0690086D01*
X0911414Y0690157D01*
X0911628Y0690205D01*
X0911842Y0690252D01*
X0912104Y0690276D01*
X0912271D01*
X0912461Y0690252D01*
D02*
G37*
%LPC*%
G36*
X0993476Y0688658D02*
X0993333D01*
X0993238Y0688634D01*
X0993000Y0688610D01*
X0992667Y0688539D01*
X0992310Y0688444D01*
X0991929Y0688277D01*
X0991525Y0688039D01*
X0991168Y0687730D01*
X0991120Y0687682D01*
X0991025Y0687563D01*
X0990882Y0687373D01*
X0990715Y0687087D01*
X0990525Y0686754D01*
X0990358Y0686325D01*
X0990239Y0685849D01*
X0990168Y0685326D01*
X0996665D01*
Y0685350D01*
Y0685397D01*
X0996642Y0685469D01*
Y0685564D01*
X0996594Y0685826D01*
X0996523Y0686135D01*
X0996427Y0686492D01*
X0996285Y0686873D01*
X0996118Y0687206D01*
X0995904Y0687515D01*
Y0687539D01*
X0995856Y0687563D01*
X0995737Y0687706D01*
X0995523Y0687872D01*
X0995261Y0688087D01*
X0994904Y0688301D01*
X0994500Y0688491D01*
X0994024Y0688610D01*
X0993762Y0688634D01*
X0993476Y0688658D01*
D02*
G37*
G36*
X0972485Y0684231D02*
X0972461D01*
X0972437Y0684207D01*
X0972366Y0684183D01*
X0972270Y0684160D01*
X0972175Y0684112D01*
X0972032Y0684064D01*
X0971866Y0684017D01*
X0971675Y0683969D01*
X0971461Y0683898D01*
X0971223Y0683850D01*
X0970938Y0683779D01*
X0970652Y0683731D01*
X0970343Y0683660D01*
X0970009Y0683588D01*
X0969629Y0683541D01*
X0969248Y0683469D01*
X0969200D01*
X0969057Y0683446D01*
X0968843Y0683398D01*
X0968581Y0683350D01*
X0968010Y0683231D01*
X0967748Y0683160D01*
X0967534Y0683089D01*
X0967510D01*
X0967463Y0683041D01*
X0967368Y0682993D01*
X0967249Y0682922D01*
X0966987Y0682732D01*
X0966749Y0682446D01*
Y0682422D01*
X0966701Y0682375D01*
X0966677Y0682279D01*
X0966630Y0682160D01*
X0966535Y0681875D01*
X0966511Y0681708D01*
X0966487Y0681518D01*
Y0681494D01*
Y0681399D01*
X0966511Y0681232D01*
X0966558Y0681066D01*
X0966630Y0680851D01*
X0966749Y0680637D01*
X0966892Y0680423D01*
X0967082Y0680209D01*
X0967106Y0680185D01*
X0967201Y0680137D01*
X0967320Y0680042D01*
X0967534Y0679947D01*
X0967772Y0679852D01*
X0968058Y0679757D01*
X0968415Y0679709D01*
X0968819Y0679685D01*
X0969010D01*
X0969224Y0679709D01*
X0969510Y0679757D01*
X0969819Y0679804D01*
X0970152Y0679876D01*
X0970509Y0679995D01*
X0970842Y0680161D01*
X0970890Y0680185D01*
X0970985Y0680256D01*
X0971152Y0680375D01*
X0971342Y0680518D01*
X0971556Y0680709D01*
X0971794Y0680947D01*
X0971985Y0681232D01*
X0972175Y0681542D01*
X0972199Y0681565D01*
X0972223Y0681661D01*
X0972270Y0681827D01*
X0972342Y0682041D01*
X0972389Y0682303D01*
X0972437Y0682636D01*
X0972461Y0683041D01*
X0972485Y0683493D01*
Y0684231D01*
D02*
G37*
G36*
X1043361D02*
X1043337D01*
X1043313Y0684207D01*
X1043242Y0684183D01*
X1043147Y0684160D01*
X1043052Y0684112D01*
X1042909Y0684064D01*
X1042742Y0684017D01*
X1042552Y0683969D01*
X1042338Y0683898D01*
X1042100Y0683850D01*
X1041814Y0683779D01*
X1041528Y0683731D01*
X1041219Y0683660D01*
X1040886Y0683588D01*
X1040505Y0683541D01*
X1040124Y0683469D01*
X1040077D01*
X1039934Y0683446D01*
X1039720Y0683398D01*
X1039458Y0683350D01*
X1038887Y0683231D01*
X1038625Y0683160D01*
X1038411Y0683089D01*
X1038387D01*
X1038339Y0683041D01*
X1038244Y0682993D01*
X1038125Y0682922D01*
X1037863Y0682732D01*
X1037625Y0682446D01*
Y0682422D01*
X1037578Y0682375D01*
X1037554Y0682279D01*
X1037506Y0682160D01*
X1037411Y0681875D01*
X1037387Y0681708D01*
X1037363Y0681518D01*
Y0681494D01*
Y0681399D01*
X1037387Y0681232D01*
X1037435Y0681066D01*
X1037506Y0680851D01*
X1037625Y0680637D01*
X1037768Y0680423D01*
X1037958Y0680209D01*
X1037982Y0680185D01*
X1038077Y0680137D01*
X1038196Y0680042D01*
X1038411Y0679947D01*
X1038649Y0679852D01*
X1038934Y0679757D01*
X1039291Y0679709D01*
X1039696Y0679685D01*
X1039886D01*
X1040100Y0679709D01*
X1040386Y0679757D01*
X1040695Y0679804D01*
X1041029Y0679876D01*
X1041386Y0679995D01*
X1041719Y0680161D01*
X1041766Y0680185D01*
X1041862Y0680256D01*
X1042028Y0680375D01*
X1042219Y0680518D01*
X1042433Y0680709D01*
X1042671Y0680947D01*
X1042861Y0681232D01*
X1043052Y0681542D01*
X1043075Y0681565D01*
X1043099Y0681661D01*
X1043147Y0681827D01*
X1043218Y0682041D01*
X1043266Y0682303D01*
X1043313Y0682636D01*
X1043337Y0683041D01*
X1043361Y0683493D01*
Y0684231D01*
D02*
G37*
G36*
X0865480D02*
X0865456D01*
X0865432Y0684207D01*
X0865361Y0684183D01*
X0865266Y0684160D01*
X0865170Y0684112D01*
X0865028Y0684064D01*
X0864861Y0684017D01*
X0864671Y0683969D01*
X0864456Y0683898D01*
X0864218Y0683850D01*
X0863933Y0683779D01*
X0863647Y0683731D01*
X0863338Y0683660D01*
X0863005Y0683588D01*
X0862624Y0683541D01*
X0862243Y0683469D01*
X0862195D01*
X0862053Y0683446D01*
X0861838Y0683398D01*
X0861577Y0683350D01*
X0861005Y0683231D01*
X0860744Y0683160D01*
X0860529Y0683089D01*
X0860506D01*
X0860458Y0683041D01*
X0860363Y0682993D01*
X0860244Y0682922D01*
X0859982Y0682732D01*
X0859744Y0682446D01*
Y0682422D01*
X0859696Y0682375D01*
X0859673Y0682279D01*
X0859625Y0682160D01*
X0859530Y0681875D01*
X0859506Y0681708D01*
X0859482Y0681518D01*
Y0681494D01*
Y0681399D01*
X0859506Y0681232D01*
X0859554Y0681066D01*
X0859625Y0680851D01*
X0859744Y0680637D01*
X0859887Y0680423D01*
X0860077Y0680209D01*
X0860101Y0680185D01*
X0860196Y0680137D01*
X0860315Y0680042D01*
X0860529Y0679947D01*
X0860767Y0679852D01*
X0861053Y0679757D01*
X0861410Y0679709D01*
X0861815Y0679685D01*
X0862005D01*
X0862219Y0679709D01*
X0862505Y0679757D01*
X0862814Y0679804D01*
X0863147Y0679876D01*
X0863504Y0679995D01*
X0863838Y0680161D01*
X0863885Y0680185D01*
X0863980Y0680256D01*
X0864147Y0680375D01*
X0864337Y0680518D01*
X0864552Y0680709D01*
X0864790Y0680947D01*
X0864980Y0681232D01*
X0865170Y0681542D01*
X0865194Y0681565D01*
X0865218Y0681661D01*
X0865266Y0681827D01*
X0865337Y0682041D01*
X0865385Y0682303D01*
X0865432Y0682636D01*
X0865456Y0683041D01*
X0865480Y0683493D01*
Y0684231D01*
D02*
G37*
G36*
X0902822D02*
X0902798D01*
X0902774Y0684207D01*
X0902703Y0684183D01*
X0902608Y0684160D01*
X0902513Y0684112D01*
X0902370Y0684064D01*
X0902203Y0684017D01*
X0902013Y0683969D01*
X0901799Y0683898D01*
X0901561Y0683850D01*
X0901275Y0683779D01*
X0900989Y0683731D01*
X0900680Y0683660D01*
X0900347Y0683588D01*
X0899966Y0683541D01*
X0899585Y0683469D01*
X0899538D01*
X0899395Y0683446D01*
X0899181Y0683398D01*
X0898919Y0683350D01*
X0898348Y0683231D01*
X0898086Y0683160D01*
X0897872Y0683089D01*
X0897848D01*
X0897800Y0683041D01*
X0897705Y0682993D01*
X0897586Y0682922D01*
X0897324Y0682732D01*
X0897086Y0682446D01*
Y0682422D01*
X0897039Y0682375D01*
X0897015Y0682279D01*
X0896967Y0682160D01*
X0896872Y0681875D01*
X0896848Y0681708D01*
X0896824Y0681518D01*
Y0681494D01*
Y0681399D01*
X0896848Y0681232D01*
X0896896Y0681066D01*
X0896967Y0680851D01*
X0897086Y0680637D01*
X0897229Y0680423D01*
X0897419Y0680209D01*
X0897443Y0680185D01*
X0897538Y0680137D01*
X0897657Y0680042D01*
X0897872Y0679947D01*
X0898110Y0679852D01*
X0898395Y0679757D01*
X0898752Y0679709D01*
X0899157Y0679685D01*
X0899347D01*
X0899561Y0679709D01*
X0899847Y0679757D01*
X0900156Y0679804D01*
X0900490Y0679876D01*
X0900847Y0679995D01*
X0901180Y0680161D01*
X0901227Y0680185D01*
X0901323Y0680256D01*
X0901489Y0680375D01*
X0901680Y0680518D01*
X0901894Y0680709D01*
X0902132Y0680947D01*
X0902322Y0681232D01*
X0902513Y0681542D01*
X0902536Y0681565D01*
X0902560Y0681661D01*
X0902608Y0681827D01*
X0902679Y0682041D01*
X0902727Y0682303D01*
X0902774Y0682636D01*
X0902798Y0683041D01*
X0902822Y0683493D01*
Y0684231D01*
D02*
G37*
G36*
X0919910Y0688658D02*
X0919553D01*
X0919458Y0688634D01*
X0919220Y0688610D01*
X0918911Y0688515D01*
X0918554Y0688396D01*
X0918197Y0688206D01*
X0917840Y0687920D01*
X0917649Y0687753D01*
X0917483Y0687563D01*
X0917435Y0687515D01*
X0917411Y0687444D01*
X0917340Y0687349D01*
X0917269Y0687254D01*
X0917197Y0687111D01*
X0917126Y0686944D01*
X0917054Y0686730D01*
X0916959Y0686516D01*
X0916888Y0686278D01*
X0916816Y0685992D01*
X0916745Y0685683D01*
X0916674Y0685350D01*
X0916650Y0684993D01*
X0916602Y0684612D01*
Y0684183D01*
Y0684160D01*
Y0684088D01*
Y0683969D01*
X0916626Y0683826D01*
Y0683636D01*
X0916650Y0683422D01*
X0916721Y0682922D01*
X0916840Y0682398D01*
X0916983Y0681827D01*
X0917221Y0681304D01*
X0917364Y0681066D01*
X0917530Y0680851D01*
X0917578Y0680804D01*
X0917697Y0680685D01*
X0917887Y0680494D01*
X0918173Y0680304D01*
X0918482Y0680114D01*
X0918863Y0679923D01*
X0919292Y0679804D01*
X0919506Y0679780D01*
X0919744Y0679757D01*
X0919863D01*
X0919958Y0679780D01*
X0920196Y0679804D01*
X0920505Y0679899D01*
X0920862Y0680018D01*
X0921219Y0680209D01*
X0921600Y0680471D01*
X0921791Y0680613D01*
X0921957Y0680804D01*
Y0680828D01*
X0922005Y0680851D01*
X0922052Y0680923D01*
X0922100Y0680994D01*
X0922171Y0681113D01*
X0922243Y0681256D01*
X0922314Y0681423D01*
X0922409Y0681589D01*
X0922505Y0681803D01*
X0922576Y0682041D01*
X0922647Y0682303D01*
X0922719Y0682613D01*
X0922790Y0682922D01*
X0922814Y0683255D01*
X0922862Y0683636D01*
Y0684017D01*
Y0684041D01*
Y0684112D01*
Y0684255D01*
X0922838Y0684421D01*
Y0684612D01*
X0922814Y0684826D01*
X0922790Y0685088D01*
X0922743Y0685350D01*
X0922647Y0685945D01*
X0922481Y0686516D01*
X0922243Y0687063D01*
X0922100Y0687325D01*
X0921933Y0687539D01*
Y0687563D01*
X0921886Y0687587D01*
X0921767Y0687706D01*
X0921576Y0687896D01*
X0921315Y0688110D01*
X0920981Y0688301D01*
X0920601Y0688491D01*
X0920148Y0688610D01*
X0919910Y0688658D01*
D02*
G37*
G36*
X0887566D02*
X0887209D01*
X0887114Y0688634D01*
X0886876Y0688610D01*
X0886567Y0688515D01*
X0886210Y0688396D01*
X0885853Y0688206D01*
X0885496Y0687920D01*
X0885305Y0687753D01*
X0885139Y0687563D01*
X0885091Y0687515D01*
X0885067Y0687444D01*
X0884996Y0687349D01*
X0884924Y0687254D01*
X0884853Y0687111D01*
X0884782Y0686944D01*
X0884710Y0686730D01*
X0884615Y0686516D01*
X0884544Y0686278D01*
X0884472Y0685992D01*
X0884401Y0685683D01*
X0884329Y0685350D01*
X0884306Y0684993D01*
X0884258Y0684612D01*
Y0684183D01*
Y0684160D01*
Y0684088D01*
Y0683969D01*
X0884282Y0683826D01*
Y0683636D01*
X0884306Y0683422D01*
X0884377Y0682922D01*
X0884496Y0682398D01*
X0884639Y0681827D01*
X0884877Y0681304D01*
X0885020Y0681066D01*
X0885186Y0680851D01*
X0885234Y0680804D01*
X0885353Y0680685D01*
X0885543Y0680494D01*
X0885829Y0680304D01*
X0886138Y0680114D01*
X0886519Y0679923D01*
X0886947Y0679804D01*
X0887162Y0679780D01*
X0887400Y0679757D01*
X0887519D01*
X0887614Y0679780D01*
X0887852Y0679804D01*
X0888161Y0679899D01*
X0888518Y0680018D01*
X0888875Y0680209D01*
X0889256Y0680471D01*
X0889446Y0680613D01*
X0889613Y0680804D01*
Y0680828D01*
X0889661Y0680851D01*
X0889708Y0680923D01*
X0889756Y0680994D01*
X0889827Y0681113D01*
X0889899Y0681256D01*
X0889970Y0681423D01*
X0890065Y0681589D01*
X0890160Y0681803D01*
X0890232Y0682041D01*
X0890303Y0682303D01*
X0890375Y0682613D01*
X0890446Y0682922D01*
X0890470Y0683255D01*
X0890517Y0683636D01*
Y0684017D01*
Y0684041D01*
Y0684112D01*
Y0684255D01*
X0890494Y0684421D01*
Y0684612D01*
X0890470Y0684826D01*
X0890446Y0685088D01*
X0890398Y0685350D01*
X0890303Y0685945D01*
X0890137Y0686516D01*
X0889899Y0687063D01*
X0889756Y0687325D01*
X0889589Y0687539D01*
Y0687563D01*
X0889542Y0687587D01*
X0889423Y0687706D01*
X0889232Y0687896D01*
X0888970Y0688110D01*
X0888637Y0688301D01*
X0888256Y0688491D01*
X0887804Y0688610D01*
X0887566Y0688658D01*
D02*
G37*
G36*
X1088414Y0688729D02*
X1088057D01*
X1087962Y0688705D01*
X1087724Y0688658D01*
X1087439Y0688586D01*
X1087082Y0688444D01*
X1086701Y0688229D01*
X1086510Y0688087D01*
X1086344Y0687944D01*
X1086153Y0687753D01*
X1085963Y0687539D01*
Y0687515D01*
X1085915Y0687492D01*
X1085868Y0687420D01*
X1085820Y0687325D01*
X1085749Y0687206D01*
X1085654Y0687063D01*
X1085582Y0686873D01*
X1085487Y0686682D01*
X1085392Y0686444D01*
X1085320Y0686206D01*
X1085225Y0685921D01*
X1085154Y0685611D01*
X1085106Y0685278D01*
X1085059Y0684921D01*
X1085011Y0684540D01*
Y0684136D01*
Y0684112D01*
Y0684041D01*
Y0683922D01*
X1085035Y0683779D01*
Y0683588D01*
X1085059Y0683374D01*
X1085130Y0682874D01*
X1085225Y0682351D01*
X1085392Y0681803D01*
X1085606Y0681280D01*
X1085749Y0681042D01*
X1085892Y0680828D01*
X1085939Y0680780D01*
X1086058Y0680661D01*
X1086249Y0680494D01*
X1086510Y0680304D01*
X1086820Y0680090D01*
X1087201Y0679923D01*
X1087629Y0679804D01*
X1087843Y0679780D01*
X1088081Y0679757D01*
X1088200D01*
X1088295Y0679780D01*
X1088533Y0679804D01*
X1088843Y0679899D01*
X1089200Y0680018D01*
X1089581Y0680209D01*
X1089961Y0680494D01*
X1090152Y0680661D01*
X1090318Y0680851D01*
Y0680875D01*
X1090366Y0680899D01*
X1090414Y0680970D01*
X1090461Y0681066D01*
X1090533Y0681185D01*
X1090604Y0681327D01*
X1090699Y0681494D01*
X1090794Y0681708D01*
X1090866Y0681922D01*
X1090961Y0682184D01*
X1091032Y0682470D01*
X1091104Y0682779D01*
X1091151Y0683112D01*
X1091199Y0683493D01*
X1091247Y0683874D01*
Y0684302D01*
Y0684326D01*
Y0684398D01*
Y0684517D01*
X1091223Y0684659D01*
Y0684850D01*
X1091199Y0685064D01*
X1091128Y0685540D01*
X1091032Y0686087D01*
X1090866Y0686635D01*
X1090628Y0687158D01*
X1090485Y0687396D01*
X1090318Y0687611D01*
Y0687634D01*
X1090271Y0687658D01*
X1090152Y0687777D01*
X1089961Y0687968D01*
X1089723Y0688182D01*
X1089390Y0688372D01*
X1089033Y0688563D01*
X1088629Y0688682D01*
X1088414Y0688729D01*
D02*
G37*
G36*
X0938760Y0687039D02*
X0938641D01*
X0938546Y0687016D01*
X0938284Y0686992D01*
X0937975Y0686920D01*
X0937618Y0686801D01*
X0937237Y0686635D01*
X0936856Y0686397D01*
X0936499Y0686064D01*
X0936451Y0686016D01*
X0936356Y0685897D01*
X0936213Y0685683D01*
X0936047Y0685397D01*
X0935856Y0685040D01*
X0935714Y0684612D01*
X0935618Y0684136D01*
X0935571Y0683588D01*
Y0683541D01*
Y0683422D01*
X0935595Y0683208D01*
X0935618Y0682970D01*
X0935666Y0682660D01*
X0935761Y0682327D01*
X0935856Y0681994D01*
X0935999Y0681637D01*
X0936023Y0681589D01*
X0936071Y0681494D01*
X0936166Y0681327D01*
X0936309Y0681113D01*
X0936475Y0680875D01*
X0936689Y0680661D01*
X0936927Y0680423D01*
X0937189Y0680233D01*
X0937237Y0680209D01*
X0937332Y0680161D01*
X0937475Y0680090D01*
X0937689Y0679995D01*
X0937927Y0679899D01*
X0938213Y0679828D01*
X0938522Y0679780D01*
X0938831Y0679757D01*
X0938950D01*
X0939046Y0679780D01*
X0939284Y0679804D01*
X0939569Y0679876D01*
X0939902Y0679995D01*
X0940259Y0680185D01*
X0940640Y0680423D01*
X0940973Y0680756D01*
X0941021Y0680804D01*
X0941116Y0680947D01*
X0941259Y0681161D01*
X0941426Y0681470D01*
X0941592Y0681851D01*
X0941735Y0682327D01*
X0941830Y0682851D01*
X0941878Y0683469D01*
Y0683493D01*
Y0683541D01*
Y0683636D01*
X0941854Y0683731D01*
Y0683874D01*
X0941830Y0684041D01*
X0941759Y0684421D01*
X0941664Y0684826D01*
X0941497Y0685254D01*
X0941283Y0685683D01*
X0940997Y0686064D01*
X0940950Y0686111D01*
X0940831Y0686206D01*
X0940640Y0686373D01*
X0940378Y0686563D01*
X0940069Y0686730D01*
X0939688Y0686897D01*
X0939236Y0686992D01*
X0938760Y0687039D01*
D02*
G37*
G36*
X0823044Y0688658D02*
X0822902D01*
X0822806Y0688634D01*
X0822568Y0688610D01*
X0822235Y0688539D01*
X0821878Y0688444D01*
X0821497Y0688277D01*
X0821093Y0688039D01*
X0820736Y0687730D01*
X0820688Y0687682D01*
X0820593Y0687563D01*
X0820450Y0687373D01*
X0820284Y0687087D01*
X0820093Y0686754D01*
X0819927Y0686325D01*
X0819808Y0685849D01*
X0819736Y0685326D01*
X0826234D01*
Y0685350D01*
Y0685397D01*
X0826210Y0685469D01*
Y0685564D01*
X0826162Y0685826D01*
X0826091Y0686135D01*
X0825996Y0686492D01*
X0825853Y0686873D01*
X0825686Y0687206D01*
X0825472Y0687515D01*
Y0687539D01*
X0825424Y0687563D01*
X0825305Y0687706D01*
X0825091Y0687872D01*
X0824829Y0688087D01*
X0824472Y0688301D01*
X0824068Y0688491D01*
X0823592Y0688610D01*
X0823330Y0688634D01*
X0823044Y0688658D01*
D02*
G37*
%LPD*%
G54D49*
X0126900Y0067551D02*
Y0073549D01*
X0128899Y0071549D01*
X0130899Y0073549D01*
Y0067551D01*
X0132898D02*
X0134897D01*
X0133898D01*
Y0073549D01*
X0132898Y0072549D01*
X0141895Y0067551D02*
X0137896D01*
X0141895Y0071549D01*
Y0072549D01*
X0140895Y0073549D01*
X0138896D01*
X0137896Y0072549D01*
X0153891D02*
X0152892Y0073549D01*
X0150892D01*
X0149893Y0072549D01*
Y0071549D01*
X0150892Y0070550D01*
X0152892D01*
X0153891Y0069550D01*
Y0068550D01*
X0152892Y0067551D01*
X0150892D01*
X0149893Y0068550D01*
X0156890Y0072549D02*
Y0071549D01*
X0155891D01*
X0157890D01*
X0156890D01*
Y0068550D01*
X0157890Y0067551D01*
X0161889Y0071549D02*
X0163888D01*
X0164888Y0070550D01*
Y0067551D01*
X0161889D01*
X0160889Y0068550D01*
X0161889Y0069550D01*
X0164888D01*
X0170886Y0071549D02*
X0167887D01*
X0166887Y0070550D01*
Y0068550D01*
X0167887Y0067551D01*
X0170886D01*
X0172885D02*
Y0073549D01*
Y0069550D02*
X0175884Y0071549D01*
X0172885Y0069550D02*
X0175884Y0067551D01*
X0178883Y0071549D02*
Y0068550D01*
X0179883Y0067551D01*
X0182882D01*
Y0071549D01*
X0184881Y0065551D02*
Y0071549D01*
X0187880D01*
X0188880Y0070550D01*
Y0068550D01*
X0187880Y0067551D01*
X0184881D01*
X0567400Y0087833D02*
Y0093831D01*
X0571399Y0087833D01*
Y0093831D01*
X0574398Y0087833D02*
X0576397D01*
X0577397Y0088833D01*
Y0090832D01*
X0576397Y0091832D01*
X0574398D01*
X0573398Y0090832D01*
Y0088833D01*
X0574398Y0087833D01*
X0580396Y0092832D02*
Y0091832D01*
X0579396D01*
X0581395D01*
X0580396D01*
Y0088833D01*
X0581395Y0087833D01*
X0590393Y0093831D02*
X0592392D01*
X0591392D01*
Y0087833D01*
X0590393D01*
X0592392D01*
X0595391D02*
Y0091832D01*
X0598390D01*
X0599390Y0090832D01*
Y0087833D01*
X0607387Y0093831D02*
Y0089833D01*
X0609386Y0087833D01*
X0611386Y0089833D01*
Y0093831D01*
X0616384Y0087833D02*
X0614385D01*
X0613385Y0088833D01*
Y0090832D01*
X0614385Y0091832D01*
X0616384D01*
X0617384Y0090832D01*
Y0089833D01*
X0613385D01*
X0619383Y0091832D02*
Y0087833D01*
Y0089833D01*
X0620383Y0090832D01*
X0621383Y0091832D01*
X0622382D01*
X0625381Y0087833D02*
X0628380D01*
X0629380Y0088833D01*
X0628380Y0089833D01*
X0626381D01*
X0625381Y0090832D01*
X0626381Y0091832D01*
X0629380D01*
X0631379Y0087833D02*
X0633379D01*
X0632379D01*
Y0091832D01*
X0631379D01*
X0637377Y0087833D02*
X0639377D01*
X0640376Y0088833D01*
Y0090832D01*
X0639377Y0091832D01*
X0637377D01*
X0636378Y0090832D01*
Y0088833D01*
X0637377Y0087833D01*
X0642376D02*
Y0091832D01*
X0645375D01*
X0646374Y0090832D01*
Y0087833D01*
X0652373Y0092832D02*
X0651373Y0093831D01*
X0649373D01*
X0648374Y0092832D01*
Y0088833D01*
X0649373Y0087833D01*
X0651373D01*
X0652373Y0088833D01*
X0655372Y0087833D02*
X0657371D01*
X0658371Y0088833D01*
Y0090832D01*
X0657371Y0091832D01*
X0655372D01*
X0654372Y0090832D01*
Y0088833D01*
X0655372Y0087833D01*
X0660370D02*
Y0091832D01*
X0663369D01*
X0664369Y0090832D01*
Y0087833D01*
X0667368Y0092832D02*
Y0091832D01*
X0666368D01*
X0668367D01*
X0667368D01*
Y0088833D01*
X0668367Y0087833D01*
X0671366Y0091832D02*
Y0087833D01*
Y0089833D01*
X0672366Y0090832D01*
X0673366Y0091832D01*
X0674365D01*
X0678364Y0087833D02*
X0680364D01*
X0681363Y0088833D01*
Y0090832D01*
X0680364Y0091832D01*
X0678364D01*
X0677364Y0090832D01*
Y0088833D01*
X0678364Y0087833D01*
X0683362D02*
X0685362D01*
X0684362D01*
Y0093831D01*
X0683362D01*
X0520799Y0092832D02*
X0519799Y0093831D01*
X0517800D01*
X0516800Y0092832D01*
Y0091832D01*
X0517800Y0090832D01*
X0519799D01*
X0520799Y0089833D01*
Y0088833D01*
X0519799Y0087833D01*
X0517800D01*
X0516800Y0088833D01*
X0522798Y0093831D02*
Y0089833D01*
X0524797Y0087833D01*
X0526797Y0089833D01*
Y0093831D01*
X0528796Y0087833D02*
Y0093831D01*
X0532795Y0087833D01*
Y0093831D01*
X0540792Y0087833D02*
Y0093831D01*
X0543791D01*
X0544791Y0092832D01*
Y0090832D01*
X0543791Y0089833D01*
X0540792D01*
X0542792D02*
X0544791Y0087833D01*
X0550789Y0093831D02*
X0546790D01*
Y0087833D01*
X0550789D01*
X0546790Y0090832D02*
X0548790D01*
X0552788Y0093831D02*
Y0089833D01*
X0554788Y0087833D01*
X0556787Y0089833D01*
Y0093831D01*
X0558786Y0091832D02*
X0559786D01*
Y0090832D01*
X0558786D01*
Y0091832D01*
Y0088833D02*
X0559786D01*
Y0087833D01*
X0558786D01*
Y0088833D01*
X0433000Y0087833D02*
Y0093831D01*
X0435999D01*
X0436999Y0092832D01*
Y0090832D01*
X0435999Y0089833D01*
X0433000D01*
X0434999D02*
X0436999Y0087833D01*
X0442997Y0093831D02*
X0438998D01*
Y0087833D01*
X0442997D01*
X0438998Y0090832D02*
X0440997D01*
X0444996Y0093831D02*
Y0089833D01*
X0446995Y0087833D01*
X0448995Y0089833D01*
Y0093831D01*
X0450994Y0091832D02*
X0451994D01*
Y0090832D01*
X0450994D01*
Y0091832D01*
Y0088833D02*
X0451994D01*
Y0087833D01*
X0450994D01*
Y0088833D01*
X0126900Y0046966D02*
Y0052965D01*
X0128899Y0050965D01*
X0130899Y0052965D01*
Y0046966D01*
X0136897Y0051965D02*
X0135897Y0052965D01*
X0133898D01*
X0132898Y0051965D01*
Y0047966D01*
X0133898Y0046966D01*
X0135897D01*
X0136897Y0047966D01*
X0138896Y0052965D02*
Y0047966D01*
X0139896Y0046966D01*
X0141895D01*
X0142895Y0047966D01*
Y0052965D01*
X0144894Y0051965D02*
X0145894Y0052965D01*
X0147893D01*
X0148893Y0051965D01*
Y0047966D01*
X0147893Y0046966D01*
X0145894D01*
X0144894Y0047966D01*
Y0051965D01*
X0154891Y0046966D02*
X0150892D01*
X0154891Y0050965D01*
Y0051965D01*
X0153891Y0052965D01*
X0151892D01*
X0150892Y0051965D01*
X0160889Y0052965D02*
X0156890D01*
Y0049966D01*
X0158890Y0050965D01*
X0159889D01*
X0160889Y0049966D01*
Y0047966D01*
X0159889Y0046966D01*
X0157890D01*
X0156890Y0047966D01*
X0162888Y0046966D02*
Y0050965D01*
X0164888Y0052965D01*
X0166887Y0050965D01*
Y0046966D01*
Y0049966D01*
X0162888D01*
X0168886Y0046966D02*
Y0047966D01*
X0169886D01*
Y0046966D01*
X0168886D01*
X0177884Y0051965D02*
X0176884Y0052965D01*
X0174884D01*
X0173885Y0051965D01*
Y0047966D01*
X0174884Y0046966D01*
X0176884D01*
X0177884Y0047966D01*
Y0049966D01*
X0175884D01*
X0179883Y0046966D02*
Y0052965D01*
X0181882Y0050965D01*
X0183882Y0052965D01*
Y0046966D01*
X0185881D02*
X0187880D01*
X0186881D01*
Y0052965D01*
X0185881Y0051965D01*
X0194878Y0046966D02*
X0190879D01*
X0194878Y0050965D01*
Y0051965D01*
X0193878Y0052965D01*
X0191879D01*
X0190879Y0051965D01*
X0384149Y0046966D02*
Y0052965D01*
X0381150Y0049966D01*
X0385149D01*
X0387148Y0046966D02*
X0391147Y0050965D01*
X0393146Y0046966D02*
X0395146D01*
X0394146D01*
Y0052965D01*
X0393146Y0051965D01*
X0398145D02*
X0399144Y0052965D01*
X0401144D01*
X0402143Y0051965D01*
Y0050965D01*
X0401144Y0049966D01*
X0400144D01*
X0401144D01*
X0402143Y0048966D01*
Y0047966D01*
X0401144Y0046966D01*
X0399144D01*
X0398145Y0047966D01*
X0404143Y0046966D02*
X0408141Y0050965D01*
X0414139Y0046966D02*
X0410141D01*
X0414139Y0050965D01*
Y0051965D01*
X0413140Y0052965D01*
X0411140D01*
X0410141Y0051965D01*
X0416139D02*
X0417138Y0052965D01*
X0419138D01*
X0420137Y0051965D01*
Y0047966D01*
X0419138Y0046966D01*
X0417138D01*
X0416139Y0047966D01*
Y0051965D01*
X0422137Y0046966D02*
X0424136D01*
X0423136D01*
Y0052965D01*
X0422137Y0051965D01*
X0427135D02*
X0428135Y0052965D01*
X0430134D01*
X0431134Y0051965D01*
Y0050965D01*
X0430134Y0049966D01*
X0431134Y0048966D01*
Y0047966D01*
X0430134Y0046966D01*
X0428135D01*
X0427135Y0047966D01*
Y0048966D01*
X0428135Y0049966D01*
X0427135Y0050965D01*
Y0051965D01*
X0428135Y0049966D02*
X0430134D01*
X0298199Y0051965D02*
X0297199Y0052965D01*
X0295200D01*
X0294200Y0051965D01*
Y0047966D01*
X0295200Y0046966D01*
X0297199D01*
X0298199Y0047966D01*
Y0049966D01*
X0296199D01*
X0304197Y0052965D02*
X0300198D01*
Y0046966D01*
X0304197D01*
X0300198Y0049966D02*
X0302197D01*
X0306196Y0046966D02*
Y0052965D01*
X0310195Y0046966D01*
Y0052965D01*
X0316193D02*
X0312194D01*
Y0046966D01*
X0316193D01*
X0312194Y0049966D02*
X0314194D01*
X0318192Y0046966D02*
Y0052965D01*
X0321191D01*
X0322191Y0051965D01*
Y0049966D01*
X0321191Y0048966D01*
X0318192D01*
X0320192D02*
X0322191Y0046966D01*
X0324190D02*
Y0050965D01*
X0326190Y0052965D01*
X0328189Y0050965D01*
Y0046966D01*
Y0049966D01*
X0324190D01*
X0330188Y0052965D02*
X0334187D01*
X0332188D01*
Y0046966D01*
X0340185Y0052965D02*
X0336186D01*
Y0046966D01*
X0340185D01*
X0336186Y0049966D02*
X0338186D01*
X0342184Y0052965D02*
Y0046966D01*
X0345183D01*
X0346183Y0047966D01*
Y0051965D01*
X0345183Y0052965D01*
X0342184D01*
X0372175Y0050965D02*
X0373175D01*
Y0049966D01*
X0372175D01*
Y0050965D01*
Y0047966D02*
X0373175D01*
Y0046966D01*
X0372175D01*
Y0047966D01*
X0046350Y0087833D02*
Y0091832D01*
X0048349Y0093831D01*
X0050349Y0091832D01*
Y0087833D01*
Y0090832D01*
X0046350D01*
X0052348Y0093831D02*
Y0087833D01*
X0056347D01*
X0058346Y0093831D02*
Y0087833D01*
X0062345D01*
X0070342D02*
Y0091832D01*
X0072342Y0093831D01*
X0074341Y0091832D01*
Y0087833D01*
Y0090832D01*
X0070342D01*
X0076340Y0087833D02*
Y0093831D01*
X0079339D01*
X0080339Y0092832D01*
Y0090832D01*
X0079339Y0089833D01*
X0076340D01*
X0078340D02*
X0080339Y0087833D01*
X0082338Y0093831D02*
X0086337D01*
X0084338D01*
Y0087833D01*
X0088336Y0093831D02*
Y0087833D01*
X0090336Y0089833D01*
X0092335Y0087833D01*
Y0093831D01*
X0097334D02*
X0095334D01*
X0094335Y0092832D01*
Y0088833D01*
X0095334Y0087833D01*
X0097334D01*
X0098333Y0088833D01*
Y0092832D01*
X0097334Y0093831D01*
X0100332Y0087833D02*
Y0093831D01*
X0103332D01*
X0104331Y0092832D01*
Y0090832D01*
X0103332Y0089833D01*
X0100332D01*
X0102332D02*
X0104331Y0087833D01*
X0106331Y0093831D02*
Y0087833D01*
Y0089833D01*
X0110329Y0093831D01*
X0107330Y0090832D01*
X0110329Y0087833D01*
X0118327Y0093831D02*
Y0089833D01*
X0120326Y0087833D01*
X0122325Y0089833D01*
Y0093831D01*
X0124325D02*
X0126324D01*
X0125324D01*
Y0087833D01*
X0124325D01*
X0126324D01*
X0133322Y0093831D02*
X0129323D01*
Y0087833D01*
X0133322D01*
X0129323Y0090832D02*
X0131323D01*
X0135321Y0093831D02*
Y0087833D01*
X0137321Y0089833D01*
X0139320Y0087833D01*
Y0093831D01*
X0145318D02*
X0141319D01*
Y0087833D01*
X0145318D01*
X0141319Y0090832D02*
X0143319D01*
X0147317Y0093831D02*
Y0087833D01*
X0150316D01*
X0151316Y0088833D01*
Y0092832D01*
X0150316Y0093831D01*
X0147317D01*
X0163312D02*
X0159313D01*
Y0090832D01*
X0161313D01*
X0159313D01*
Y0087833D01*
X0165312D02*
Y0093831D01*
X0168310D01*
X0169310Y0092832D01*
Y0090832D01*
X0168310Y0089833D01*
X0165312D01*
X0167311D02*
X0169310Y0087833D01*
X0174309Y0093831D02*
X0172309D01*
X0171310Y0092832D01*
Y0088833D01*
X0172309Y0087833D01*
X0174309D01*
X0175308Y0088833D01*
Y0092832D01*
X0174309Y0093831D01*
X0177308Y0087833D02*
Y0093831D01*
X0179307Y0091832D01*
X0181306Y0093831D01*
Y0087833D01*
X0189304Y0093831D02*
X0193303D01*
X0191303D01*
Y0087833D01*
X0198301Y0093831D02*
X0196301D01*
X0195302Y0092832D01*
Y0088833D01*
X0196301Y0087833D01*
X0198301D01*
X0199301Y0088833D01*
Y0092832D01*
X0198301Y0093831D01*
X0201300Y0087833D02*
Y0093831D01*
X0204299D01*
X0205299Y0092832D01*
Y0090832D01*
X0204299Y0089833D01*
X0201300D01*
X0217295Y0092832D02*
X0216295Y0093831D01*
X0214296D01*
X0213296Y0092832D01*
Y0091832D01*
X0214296Y0090832D01*
X0216295D01*
X0217295Y0089833D01*
Y0088833D01*
X0216295Y0087833D01*
X0214296D01*
X0213296Y0088833D01*
X0219294Y0093831D02*
X0221293D01*
X0220294D01*
Y0087833D01*
X0219294D01*
X0221293D01*
X0224292Y0093831D02*
Y0087833D01*
X0227291D01*
X0228291Y0088833D01*
Y0092832D01*
X0227291Y0093831D01*
X0224292D01*
X0234289D02*
X0230291D01*
Y0087833D01*
X0234289D01*
X0230291Y0090832D02*
X0232290D01*
X0462150Y0087833D02*
Y0091832D01*
X0464149Y0093831D01*
X0466149Y0091832D01*
Y0087833D01*
Y0090832D01*
X0462150D01*
X0348550Y0087833D02*
Y0093831D01*
X0350549Y0091832D01*
X0352549Y0093831D01*
Y0087833D01*
X0358547Y0092832D02*
X0357547Y0093831D01*
X0355548D01*
X0354548Y0092832D01*
Y0088833D01*
X0355548Y0087833D01*
X0357547D01*
X0358547Y0088833D01*
X0360546Y0093831D02*
Y0088833D01*
X0361546Y0087833D01*
X0363545D01*
X0364545Y0088833D01*
Y0093831D01*
X0366544Y0092832D02*
X0367544Y0093831D01*
X0369543D01*
X0370543Y0092832D01*
Y0088833D01*
X0369543Y0087833D01*
X0367544D01*
X0366544Y0088833D01*
Y0092832D01*
X0376541Y0087833D02*
X0372542D01*
X0376541Y0091832D01*
Y0092832D01*
X0375541Y0093831D01*
X0373542D01*
X0372542Y0092832D01*
X0382539Y0093831D02*
X0378540D01*
Y0090832D01*
X0380540Y0091832D01*
X0381539D01*
X0382539Y0090832D01*
Y0088833D01*
X0381539Y0087833D01*
X0379540D01*
X0378540Y0088833D01*
X0294000Y0093831D02*
Y0087833D01*
X0296999D01*
X0297999Y0088833D01*
Y0089833D01*
X0296999Y0090832D01*
X0294000D01*
X0296999D01*
X0297999Y0091832D01*
Y0092832D01*
X0296999Y0093831D01*
X0294000D01*
X0302997D02*
X0300998D01*
X0299998Y0092832D01*
Y0088833D01*
X0300998Y0087833D01*
X0302997D01*
X0303997Y0088833D01*
Y0092832D01*
X0302997Y0093831D01*
X0305996Y0087833D02*
Y0091832D01*
X0307996Y0093831D01*
X0309995Y0091832D01*
Y0087833D01*
Y0090832D01*
X0305996D01*
X0311994Y0087833D02*
Y0093831D01*
X0314993D01*
X0315993Y0092832D01*
Y0090832D01*
X0314993Y0089833D01*
X0311994D01*
X0313994D02*
X0315993Y0087833D01*
X0317992Y0093831D02*
Y0087833D01*
X0320991D01*
X0321991Y0088833D01*
Y0092832D01*
X0320991Y0093831D01*
X0317992D01*
X0330988Y0087833D02*
Y0093831D01*
X0332987D02*
Y0087833D01*
X0329988Y0091832D02*
X0332987D01*
X0333987D01*
X0329988Y0089833D02*
X0333987D01*
X0335986Y0091832D02*
X0336986D01*
Y0090832D01*
X0335986D01*
Y0091832D01*
Y0088833D02*
X0336986D01*
Y0087833D01*
X0335986D01*
Y0088833D01*
X0046350Y0073549D02*
Y0067551D01*
X0050349D01*
X0052348D02*
Y0071549D01*
X0054347Y0073549D01*
X0056347Y0071549D01*
Y0067551D01*
Y0070550D01*
X0052348D01*
X0058346Y0073549D02*
Y0072549D01*
X0060346Y0070550D01*
X0062345Y0072549D01*
Y0073549D01*
X0060346Y0070550D02*
Y0067551D01*
X0068343Y0073549D02*
X0064344D01*
Y0067551D01*
X0068343D01*
X0064344Y0070550D02*
X0066343D01*
X0070342Y0067551D02*
Y0073549D01*
X0073341D01*
X0074341Y0072549D01*
Y0070550D01*
X0073341Y0069550D01*
X0070342D01*
X0072342D02*
X0074341Y0067551D01*
X0082338D02*
Y0073549D01*
X0086337Y0067551D01*
Y0073549D01*
X0088336Y0067551D02*
Y0071549D01*
X0090336Y0073549D01*
X0092335Y0071549D01*
Y0067551D01*
Y0070550D01*
X0088336D01*
X0094335Y0067551D02*
Y0073549D01*
X0096334Y0071549D01*
X0098333Y0073549D01*
Y0067551D01*
X0104331Y0073549D02*
X0100332D01*
Y0067551D01*
X0104331D01*
X0100332Y0070550D02*
X0102332D01*
X0112329Y0069550D02*
X0116327D01*
X0112329Y0071549D02*
X0116327D01*
X0046350Y0046966D02*
Y0052965D01*
X0049349D01*
X0050349Y0051965D01*
Y0049966D01*
X0049349Y0048966D01*
X0046350D01*
X0052348Y0052965D02*
Y0046966D01*
X0056347D01*
X0061345Y0052965D02*
X0059346D01*
X0058346Y0051965D01*
Y0047966D01*
X0059346Y0046966D01*
X0061345D01*
X0062345Y0047966D01*
Y0051965D01*
X0061345Y0052965D01*
X0064344D02*
X0068343D01*
X0066343D01*
Y0046966D01*
X0076340D02*
Y0052965D01*
X0080339Y0046966D01*
Y0052965D01*
X0082338Y0046966D02*
Y0050965D01*
X0084338Y0052965D01*
X0086337Y0050965D01*
Y0046966D01*
Y0049966D01*
X0082338D01*
X0088336Y0046966D02*
Y0052965D01*
X0090336Y0050965D01*
X0092335Y0052965D01*
Y0046966D01*
X0098333Y0052965D02*
X0094335D01*
Y0046966D01*
X0098333D01*
X0094335Y0049966D02*
X0096334D01*
X0106331Y0048966D02*
X0110329D01*
X0106331Y0050965D02*
X0110329D01*
X0454050Y0051965D02*
X0455050Y0052965D01*
X0457049D01*
X0458049Y0051965D01*
Y0050965D01*
X0457049Y0049966D01*
X0458049Y0048966D01*
Y0047966D01*
X0457049Y0046966D01*
X0455050D01*
X0454050Y0047966D01*
Y0048966D01*
X0455050Y0049966D01*
X0454050Y0050965D01*
Y0051965D01*
X0455050Y0049966D02*
X0457049D01*
X0460048Y0050965D02*
X0461048D01*
Y0049966D01*
X0460048D01*
Y0050965D01*
Y0047966D02*
X0461048D01*
Y0046966D01*
X0460048D01*
Y0047966D01*
X0468046Y0046966D02*
Y0052965D01*
X0465046Y0049966D01*
X0469045D01*
X0471044Y0052965D02*
X0475043D01*
Y0051965D01*
X0471044Y0047966D01*
Y0046966D01*
X0477043Y0050965D02*
X0478042D01*
Y0049966D01*
X0477043D01*
Y0050965D01*
Y0047966D02*
X0478042D01*
Y0046966D01*
X0477043D01*
Y0047966D01*
X0482041Y0046966D02*
X0484040D01*
X0483041D01*
Y0052965D01*
X0482041Y0051965D01*
X0487039D02*
X0488039Y0052965D01*
X0490038D01*
X0491038Y0051965D01*
Y0050965D01*
X0490038Y0049966D01*
X0489039D01*
X0490038D01*
X0491038Y0048966D01*
Y0047966D01*
X0490038Y0046966D01*
X0488039D01*
X0487039Y0047966D01*
X0499035Y0046966D02*
Y0050965D01*
X0501035Y0052965D01*
X0503034Y0050965D01*
Y0046966D01*
Y0049966D01*
X0499035D01*
X0505033Y0046966D02*
Y0052965D01*
X0507033Y0050965D01*
X0509032Y0052965D01*
Y0046966D01*
X0580500Y0052965D02*
X0584499D01*
X0582499D01*
Y0046966D01*
X0590497Y0052965D02*
X0586498D01*
Y0046966D01*
X0590497D01*
X0586498Y0049966D02*
X0588497D01*
X0592496Y0052965D02*
X0596495Y0046966D01*
Y0052965D02*
X0592496Y0046966D01*
X0598494D02*
Y0050965D01*
X0600493Y0052965D01*
X0602493Y0050965D01*
Y0046966D01*
Y0049966D01*
X0598494D01*
X0608491Y0051965D02*
X0607491Y0052965D01*
X0605492D01*
X0604492Y0051965D01*
Y0050965D01*
X0605492Y0049966D01*
X0607491D01*
X0608491Y0048966D01*
Y0047966D01*
X0607491Y0046966D01*
X0605492D01*
X0604492Y0047966D01*
X0616488Y0052965D02*
X0618488D01*
X0617488D01*
Y0046966D01*
X0616488D01*
X0618488D01*
X0621487D02*
Y0052965D01*
X0625486Y0046966D01*
Y0052965D01*
X0631484Y0051965D02*
X0630484Y0052965D01*
X0628484D01*
X0627485Y0051965D01*
Y0050965D01*
X0628484Y0049966D01*
X0630484D01*
X0631484Y0048966D01*
Y0047966D01*
X0630484Y0046966D01*
X0628484D01*
X0627485Y0047966D01*
X0633483Y0052965D02*
X0637482D01*
X0635482D01*
Y0046966D01*
X0639481D02*
Y0052965D01*
X0642480D01*
X0643480Y0051965D01*
Y0049966D01*
X0642480Y0048966D01*
X0639481D01*
X0641480D02*
X0643480Y0046966D01*
X0645479Y0052965D02*
Y0047966D01*
X0646479Y0046966D01*
X0648478D01*
X0649478Y0047966D01*
Y0052965D01*
X0651477Y0046966D02*
Y0052965D01*
X0653476Y0050965D01*
X0655476Y0052965D01*
Y0046966D01*
X0661474Y0052965D02*
X0657475D01*
Y0046966D01*
X0661474D01*
X0657475Y0049966D02*
X0659474D01*
X0663473Y0046966D02*
Y0052965D01*
X0667472Y0046966D01*
Y0052965D01*
X0669471D02*
X0673470D01*
X0671471D01*
Y0046966D01*
X0679468Y0051965D02*
X0678468Y0052965D01*
X0676469D01*
X0675469Y0051965D01*
Y0050965D01*
X0676469Y0049966D01*
X0678468D01*
X0679468Y0048966D01*
Y0047966D01*
X0678468Y0046966D01*
X0676469D01*
X0675469Y0047966D01*
X0294000Y0073498D02*
X0297999D01*
X0295999D01*
Y0067500D01*
X0299998Y0073498D02*
X0301997D01*
X0300998D01*
Y0067500D01*
X0299998D01*
X0301997D01*
X0304996Y0073498D02*
Y0067500D01*
X0307996D01*
X0308995Y0068500D01*
Y0072498D01*
X0307996Y0073498D01*
X0304996D01*
X0317992Y0067500D02*
Y0073498D01*
X0319992D02*
Y0067500D01*
X0316993Y0071499D02*
X0319992D01*
X0320991D01*
X0316993Y0069499D02*
X0320991D01*
X0322991Y0071499D02*
X0323990D01*
Y0070499D01*
X0322991D01*
Y0071499D01*
Y0068500D02*
X0323990D01*
Y0067500D01*
X0322991D01*
Y0068500D01*
X0348550Y0067500D02*
Y0073498D01*
X0352549Y0067500D01*
Y0073498D01*
X0354548Y0067500D02*
X0358547Y0071499D01*
X0360546Y0067500D02*
Y0071499D01*
X0362545Y0073498D01*
X0364545Y0071499D01*
Y0067500D01*
Y0070499D01*
X0360546D01*
X0127200Y0067400D02*
Y0073398D01*
X0129199Y0071399D01*
X0131199Y0073398D01*
Y0067400D01*
X0133198D02*
X0135197D01*
X0134198D01*
Y0073398D01*
X0133198Y0072398D01*
X0138196Y0067400D02*
X0140196D01*
X0139196D01*
Y0073398D01*
X0138196Y0072398D01*
X0153192D02*
X0152192Y0073398D01*
X0150193D01*
X0149193Y0072398D01*
Y0068400D01*
X0150193Y0067400D01*
X0152192D01*
X0153192Y0068400D01*
Y0070399D01*
X0151192D01*
X0158190Y0067400D02*
X0156191D01*
X0155191Y0068400D01*
Y0070399D01*
X0156191Y0071399D01*
X0158190D01*
X0159190Y0070399D01*
Y0069399D01*
X0155191D01*
X0161189Y0071399D02*
Y0067400D01*
Y0069399D01*
X0162189Y0070399D01*
X0163188Y0071399D01*
X0164188D01*
X0167187Y0073398D02*
Y0067400D01*
X0170186D01*
X0171186Y0068400D01*
Y0069399D01*
Y0070399D01*
X0170186Y0071399D01*
X0167187D01*
X0176184Y0067400D02*
X0174185D01*
X0173185Y0068400D01*
Y0070399D01*
X0174185Y0071399D01*
X0176184D01*
X0177184Y0070399D01*
Y0069399D01*
X0173185D01*
X0179183Y0071399D02*
Y0067400D01*
Y0069399D01*
X0180183Y0070399D01*
X0181183Y0071399D01*
X0182182D01*
X0191179Y0073398D02*
X0193179D01*
X0192179D01*
Y0067400D01*
X0191179D01*
X0193179D01*
X0196178D02*
Y0071399D01*
X0199177D01*
X0200176Y0070399D01*
Y0067400D01*
X0203175D02*
Y0072398D01*
Y0070399D01*
X0202176D01*
X0204175D01*
X0203175D01*
Y0072398D01*
X0204175Y0073398D01*
X0208174Y0067400D02*
X0210173D01*
X0211173Y0068400D01*
Y0070399D01*
X0210173Y0071399D01*
X0208174D01*
X0207174Y0070399D01*
Y0068400D01*
X0208174Y0067400D01*
X0213172Y0071399D02*
Y0067400D01*
Y0069399D01*
X0214172Y0070399D01*
X0215172Y0071399D01*
X0216171D01*
X0219170Y0067400D02*
Y0071399D01*
X0220170D01*
X0221170Y0070399D01*
Y0067400D01*
Y0070399D01*
X0222169Y0071399D01*
X0223169Y0070399D01*
Y0067400D01*
X0226168Y0071399D02*
X0228167D01*
X0229167Y0070399D01*
Y0067400D01*
X0226168D01*
X0225168Y0068400D01*
X0226168Y0069399D01*
X0229167D01*
X0232166Y0072398D02*
Y0071399D01*
X0231166D01*
X0233166D01*
X0232166D01*
Y0068400D01*
X0233166Y0067400D01*
X0236165D02*
X0238164D01*
X0237164D01*
Y0071399D01*
X0236165D01*
X0242163Y0067400D02*
X0244162D01*
X0245162Y0068400D01*
Y0070399D01*
X0244162Y0071399D01*
X0242163D01*
X0241163Y0070399D01*
Y0068400D01*
X0242163Y0067400D01*
X0247161D02*
Y0071399D01*
X0250160D01*
X0251160Y0070399D01*
Y0067400D01*
G54D50*
X1061670Y0886148D02*
Y0880150D01*
X1064669D01*
X1065668Y0881150D01*
Y0882149D01*
X1064669Y0883149D01*
X1061670D01*
X1064669D01*
X1065668Y0884149D01*
Y0885148D01*
X1064669Y0886148D01*
X1061670D01*
X1068667Y0880150D02*
X1070667D01*
X1071666Y0881150D01*
Y0883149D01*
X1070667Y0884149D01*
X1068667D01*
X1067668Y0883149D01*
Y0881150D01*
X1068667Y0880150D01*
X1074665Y0884149D02*
X1076665D01*
X1077664Y0883149D01*
Y0880150D01*
X1074665D01*
X1073666Y0881150D01*
X1074665Y0882149D01*
X1077664D01*
X1079664Y0884149D02*
Y0880150D01*
Y0882149D01*
X1080663Y0883149D01*
X1081663Y0884149D01*
X1082663D01*
X1089660Y0886148D02*
Y0880150D01*
X1086662D01*
X1085662Y0881150D01*
Y0883149D01*
X1086662Y0884149D01*
X1089660D01*
X1097658Y0886148D02*
Y0880150D01*
X1101657D01*
X1104656Y0884149D02*
X1106655D01*
X1107655Y0883149D01*
Y0880150D01*
X1104656D01*
X1103656Y0881150D01*
X1104656Y0882149D01*
X1107655D01*
X1109654Y0884149D02*
Y0881150D01*
X1110654Y0880150D01*
X1113653D01*
Y0879150D01*
X1112653Y0878151D01*
X1111653D01*
X1113653Y0880150D02*
Y0884149D01*
X1118651Y0880150D02*
X1116652D01*
X1115652Y0881150D01*
Y0883149D01*
X1116652Y0884149D01*
X1118651D01*
X1119651Y0883149D01*
Y0882149D01*
X1115652D01*
X1121650Y0884149D02*
Y0880150D01*
Y0882149D01*
X1122650Y0883149D01*
X1123650Y0884149D01*
X1124649D01*
X1137645Y0885148D02*
X1136645Y0886148D01*
X1134646D01*
X1133646Y0885148D01*
Y0884149D01*
X1134646Y0883149D01*
X1136645D01*
X1137645Y0882149D01*
Y0881150D01*
X1136645Y0880150D01*
X1134646D01*
X1133646Y0881150D01*
X1140644Y0885148D02*
Y0884149D01*
X1139644D01*
X1141644D01*
X1140644D01*
Y0881150D01*
X1141644Y0880150D01*
X1145642Y0884149D02*
X1147642D01*
X1148641Y0883149D01*
Y0880150D01*
X1145642D01*
X1144643Y0881150D01*
X1145642Y0882149D01*
X1148641D01*
X1154640Y0884149D02*
X1151641D01*
X1150641Y0883149D01*
Y0881150D01*
X1151641Y0880150D01*
X1154640D01*
X1156639D02*
Y0886148D01*
Y0882149D02*
X1159638Y0884149D01*
X1156639Y0882149D02*
X1159638Y0880150D01*
X1004683Y0861148D02*
X1005683Y0862148D01*
X1007683D01*
X1008682Y0861148D01*
Y0860149D01*
X1007683Y0859149D01*
X1006683D01*
X1007683D01*
X1008682Y0858149D01*
Y0857150D01*
X1007683Y0856150D01*
X1005683D01*
X1004683Y0857150D01*
X1010682Y0856150D02*
Y0857150D01*
X1011681D01*
Y0856150D01*
X1010682D01*
X1019679Y0862148D02*
X1015680D01*
Y0859149D01*
X1017679Y0860149D01*
X1018679D01*
X1019679Y0859149D01*
Y0857150D01*
X1018679Y0856150D01*
X1016680D01*
X1015680Y0857150D01*
X1007683Y0832150D02*
Y0838148D01*
X1004683Y0835149D01*
X1008682D01*
X1010682Y0832150D02*
Y0833150D01*
X1011681D01*
Y0832150D01*
X1010682D01*
X1019679D02*
X1015680D01*
X1019679Y0836149D01*
Y0837148D01*
X1018679Y0838148D01*
X1016680D01*
X1015680Y0837148D01*
X1007683Y0808150D02*
Y0814148D01*
X1004683Y0811149D01*
X1008682D01*
X1010682Y0808150D02*
Y0809150D01*
X1011681D01*
Y0808150D01*
X1010682D01*
X1019679D02*
X1015680D01*
X1019679Y0812149D01*
Y0813148D01*
X1018679Y0814148D01*
X1016680D01*
X1015680Y0813148D01*
X1007683Y0784150D02*
Y0790148D01*
X1004683Y0787149D01*
X1008682D01*
X1010682Y0784150D02*
Y0785150D01*
X1011681D01*
Y0784150D01*
X1010682D01*
X1019679D02*
X1015680D01*
X1019679Y0788149D01*
Y0789148D01*
X1018679Y0790148D01*
X1016680D01*
X1015680Y0789148D01*
X1007683Y0760150D02*
Y0766148D01*
X1004683Y0763149D01*
X1008682D01*
X1010682Y0760150D02*
Y0761150D01*
X1011681D01*
Y0760150D01*
X1010682D01*
X1019679D02*
X1015680D01*
X1019679Y0764149D01*
Y0765148D01*
X1018679Y0766148D01*
X1016680D01*
X1015680Y0765148D01*
X1007683Y0736150D02*
Y0742148D01*
X1004683Y0739149D01*
X1008682D01*
X1010682Y0736150D02*
Y0737150D01*
X1011681D01*
Y0736150D01*
X1010682D01*
X1019679D02*
X1015680D01*
X1019679Y0740149D01*
Y0741148D01*
X1018679Y0742148D01*
X1016680D01*
X1015680Y0741148D01*
X1004683Y0717148D02*
X1005683Y0718148D01*
X1007683D01*
X1008682Y0717148D01*
Y0716149D01*
X1007683Y0715149D01*
X1006683D01*
X1007683D01*
X1008682Y0714149D01*
Y0713150D01*
X1007683Y0712150D01*
X1005683D01*
X1004683Y0713150D01*
X1010682Y0712150D02*
Y0713150D01*
X1011681D01*
Y0712150D01*
X1010682D01*
X1019679Y0718148D02*
X1015680D01*
Y0715149D01*
X1017679Y0716149D01*
X1018679D01*
X1019679Y0715149D01*
Y0713150D01*
X1018679Y0712150D01*
X1016680D01*
X1015680Y0713150D01*
X1008682Y0885148D02*
X1007683Y0886148D01*
X1005683D01*
X1004683Y0885148D01*
Y0881150D01*
X1005683Y0880150D01*
X1007683D01*
X1008682Y0881150D01*
X1011681Y0880150D02*
X1013681D01*
X1014680Y0881150D01*
Y0883149D01*
X1013681Y0884149D01*
X1011681D01*
X1010682Y0883149D01*
Y0881150D01*
X1011681Y0880150D01*
X1016680D02*
Y0884149D01*
X1019679D01*
X1020678Y0883149D01*
Y0880150D01*
X1022678D02*
X1025677D01*
X1026676Y0881150D01*
X1025677Y0882149D01*
X1023677D01*
X1022678Y0883149D01*
X1023677Y0884149D01*
X1026676D01*
X1029675Y0885148D02*
Y0884149D01*
X1028676D01*
X1030675D01*
X1029675D01*
Y0881150D01*
X1030675Y0880150D01*
X1034674Y0884149D02*
X1036673D01*
X1037673Y0883149D01*
Y0880150D01*
X1034674D01*
X1033674Y0881150D01*
X1034674Y0882149D01*
X1037673D01*
X1039672Y0880150D02*
Y0884149D01*
X1042671D01*
X1043671Y0883149D01*
Y0880150D01*
X1046670Y0885148D02*
Y0884149D01*
X1045670D01*
X1047670D01*
X1046670D01*
Y0881150D01*
X1047670Y0880150D01*
X0939700Y0861148D02*
X0940700Y0862148D01*
X0942699D01*
X0943699Y0861148D01*
Y0857150D01*
X0942699Y0856150D01*
X0940700D01*
X0939700Y0857150D01*
Y0861148D01*
X0945698Y0856150D02*
Y0857150D01*
X0946698D01*
Y0856150D01*
X0945698D01*
X0953695D02*
Y0862148D01*
X0950696Y0859149D01*
X0954695D01*
X0956695Y0861148D02*
X0957694Y0862148D01*
X0959694D01*
X0960693Y0861148D01*
Y0857150D01*
X0959694Y0856150D01*
X0957694D01*
X0956695Y0857150D01*
Y0861148D01*
X0962693Y0856150D02*
Y0860149D01*
X0963692D01*
X0964692Y0859149D01*
Y0856150D01*
Y0859149D01*
X0965692Y0860149D01*
X0966691Y0859149D01*
Y0856150D01*
X0968691D02*
X0970690D01*
X0969690D01*
Y0860149D01*
X0968691D01*
X0973689Y0856150D02*
X0975688D01*
X0974689D01*
Y0862148D01*
X0973689D01*
X0939700Y0844150D02*
X0941699D01*
X0940700D01*
Y0850148D01*
X0939700Y0849148D01*
X0944698Y0844150D02*
Y0845150D01*
X0945698D01*
Y0844150D01*
X0944698D01*
X0952696D02*
Y0850148D01*
X0949697Y0847149D01*
X0953695D01*
X0955695Y0849148D02*
X0956695Y0850148D01*
X0958694D01*
X0959694Y0849148D01*
Y0845150D01*
X0958694Y0844150D01*
X0956695D01*
X0955695Y0845150D01*
Y0849148D01*
X0961693Y0844150D02*
Y0848149D01*
X0962693D01*
X0963692Y0847149D01*
Y0844150D01*
Y0847149D01*
X0964692Y0848149D01*
X0965692Y0847149D01*
Y0844150D01*
X0967691D02*
X0969690D01*
X0968691D01*
Y0848149D01*
X0967691D01*
X0972689Y0844150D02*
X0974689D01*
X0973689D01*
Y0850148D01*
X0972689D01*
X0943699Y0838148D02*
X0941699Y0837148D01*
X0939700Y0835149D01*
Y0833150D01*
X0940700Y0832150D01*
X0942699D01*
X0943699Y0833150D01*
Y0834149D01*
X0942699Y0835149D01*
X0939700D01*
X0945698Y0832150D02*
Y0833150D01*
X0946698D01*
Y0832150D01*
X0945698D01*
X0954695D02*
X0950696D01*
X0954695Y0836149D01*
Y0837148D01*
X0953695Y0838148D01*
X0951696D01*
X0950696Y0837148D01*
X0960693Y0838148D02*
X0956695D01*
Y0835149D01*
X0958694Y0836149D01*
X0959694D01*
X0960693Y0835149D01*
Y0833150D01*
X0959694Y0832150D01*
X0957694D01*
X0956695Y0833150D01*
X0962693Y0832150D02*
Y0836149D01*
X0963692D01*
X0964692Y0835149D01*
Y0832150D01*
Y0835149D01*
X0965692Y0836149D01*
X0966691Y0835149D01*
Y0832150D01*
X0968691D02*
X0970690D01*
X0969690D01*
Y0836149D01*
X0968691D01*
X0973689Y0832150D02*
X0975688D01*
X0974689D01*
Y0838148D01*
X0973689D01*
X0939700Y0820150D02*
X0941699D01*
X0940700D01*
Y0826148D01*
X0939700Y0825148D01*
X0944698Y0820150D02*
Y0821150D01*
X0945698D01*
Y0820150D01*
X0944698D01*
X0952696D02*
Y0826148D01*
X0949697Y0823149D01*
X0953695D01*
X0955695Y0825148D02*
X0956695Y0826148D01*
X0958694D01*
X0959694Y0825148D01*
Y0821150D01*
X0958694Y0820150D01*
X0956695D01*
X0955695Y0821150D01*
Y0825148D01*
X0961693Y0820150D02*
Y0824149D01*
X0962693D01*
X0963692Y0823149D01*
Y0820150D01*
Y0823149D01*
X0964692Y0824149D01*
X0965692Y0823149D01*
Y0820150D01*
X0967691D02*
X0969690D01*
X0968691D01*
Y0824149D01*
X0967691D01*
X0972689Y0820150D02*
X0974689D01*
X0973689D01*
Y0826148D01*
X0972689D01*
X0939700Y0808150D02*
X0941699D01*
X0940700D01*
Y0814148D01*
X0939700Y0813148D01*
X0948697Y0814148D02*
X0946698Y0813148D01*
X0944698Y0811149D01*
Y0809150D01*
X0945698Y0808150D01*
X0947697D01*
X0948697Y0809150D01*
Y0810149D01*
X0947697Y0811149D01*
X0944698D01*
X0950696Y0808150D02*
Y0809150D01*
X0951696D01*
Y0808150D01*
X0950696D01*
X0955695D02*
X0957694D01*
X0956695D01*
Y0814148D01*
X0955695Y0813148D01*
X0960693D02*
X0961693Y0814148D01*
X0963692D01*
X0964692Y0813148D01*
Y0809150D01*
X0963692Y0808150D01*
X0961693D01*
X0960693Y0809150D01*
Y0813148D01*
X0966691Y0808150D02*
Y0812149D01*
X0967691D01*
X0968691Y0811149D01*
Y0808150D01*
Y0811149D01*
X0969690Y0812149D01*
X0970690Y0811149D01*
Y0808150D01*
X0972689D02*
X0974689D01*
X0973689D01*
Y0812149D01*
X0972689D01*
X0977688Y0808150D02*
X0979687D01*
X0978687D01*
Y0814148D01*
X0977688D01*
X0939700Y0796150D02*
X0941699D01*
X0940700D01*
Y0802148D01*
X0939700Y0801148D01*
X0944698Y0796150D02*
Y0797150D01*
X0945698D01*
Y0796150D01*
X0944698D01*
X0952696D02*
Y0802148D01*
X0949697Y0799149D01*
X0953695D01*
X0955695Y0801148D02*
X0956695Y0802148D01*
X0958694D01*
X0959694Y0801148D01*
Y0797150D01*
X0958694Y0796150D01*
X0956695D01*
X0955695Y0797150D01*
Y0801148D01*
X0961693Y0796150D02*
Y0800149D01*
X0962693D01*
X0963692Y0799149D01*
Y0796150D01*
Y0799149D01*
X0964692Y0800149D01*
X0965692Y0799149D01*
Y0796150D01*
X0967691D02*
X0969690D01*
X0968691D01*
Y0800149D01*
X0967691D01*
X0972689Y0796150D02*
X0974689D01*
X0973689D01*
Y0802148D01*
X0972689D01*
X0939700Y0789148D02*
X0940700Y0790148D01*
X0942699D01*
X0943699Y0789148D01*
Y0788149D01*
X0942699Y0787149D01*
X0943699Y0786149D01*
Y0785150D01*
X0942699Y0784150D01*
X0940700D01*
X0939700Y0785150D01*
Y0786149D01*
X0940700Y0787149D01*
X0939700Y0788149D01*
Y0789148D01*
X0940700Y0787149D02*
X0942699D01*
X0945698Y0784150D02*
Y0785150D01*
X0946698D01*
Y0784150D01*
X0945698D01*
X0954695Y0790148D02*
X0950696D01*
Y0787149D01*
X0952696Y0788149D01*
X0953695D01*
X0954695Y0787149D01*
Y0785150D01*
X0953695Y0784150D01*
X0951696D01*
X0950696Y0785150D01*
X0959694Y0784150D02*
Y0790148D01*
X0956695Y0787149D01*
X0960693D01*
X0962693Y0784150D02*
Y0788149D01*
X0963692D01*
X0964692Y0787149D01*
Y0784150D01*
Y0787149D01*
X0965692Y0788149D01*
X0966691Y0787149D01*
Y0784150D01*
X0968691D02*
X0970690D01*
X0969690D01*
Y0788149D01*
X0968691D01*
X0973689Y0784150D02*
X0975688D01*
X0974689D01*
Y0790148D01*
X0973689D01*
X0939700Y0772150D02*
X0941699D01*
X0940700D01*
Y0778148D01*
X0939700Y0777148D01*
X0944698Y0772150D02*
Y0773150D01*
X0945698D01*
Y0772150D01*
X0944698D01*
X0952696D02*
Y0778148D01*
X0949697Y0775149D01*
X0953695D01*
X0955695Y0777148D02*
X0956695Y0778148D01*
X0958694D01*
X0959694Y0777148D01*
Y0773150D01*
X0958694Y0772150D01*
X0956695D01*
X0955695Y0773150D01*
Y0777148D01*
X0961693Y0772150D02*
Y0776149D01*
X0962693D01*
X0963692Y0775149D01*
Y0772150D01*
Y0775149D01*
X0964692Y0776149D01*
X0965692Y0775149D01*
Y0772150D01*
X0967691D02*
X0969690D01*
X0968691D01*
Y0776149D01*
X0967691D01*
X0972689Y0772150D02*
X0974689D01*
X0973689D01*
Y0778148D01*
X0972689D01*
X0939700Y0760150D02*
X0941699D01*
X0940700D01*
Y0766148D01*
X0939700Y0765148D01*
X0948697Y0766148D02*
X0946698Y0765148D01*
X0944698Y0763149D01*
Y0761150D01*
X0945698Y0760150D01*
X0947697D01*
X0948697Y0761150D01*
Y0762149D01*
X0947697Y0763149D01*
X0944698D01*
X0950696Y0760150D02*
Y0761150D01*
X0951696D01*
Y0760150D01*
X0950696D01*
X0955695D02*
X0957694D01*
X0956695D01*
Y0766148D01*
X0955695Y0765148D01*
X0960693D02*
X0961693Y0766148D01*
X0963692D01*
X0964692Y0765148D01*
Y0761150D01*
X0963692Y0760150D01*
X0961693D01*
X0960693Y0761150D01*
Y0765148D01*
X0966691Y0760150D02*
Y0764149D01*
X0967691D01*
X0968691Y0763149D01*
Y0760150D01*
Y0763149D01*
X0969690Y0764149D01*
X0970690Y0763149D01*
Y0760150D01*
X0972689D02*
X0974689D01*
X0973689D01*
Y0764149D01*
X0972689D01*
X0977688Y0760150D02*
X0979687D01*
X0978687D01*
Y0766148D01*
X0977688D01*
X0939700Y0748150D02*
X0941699D01*
X0940700D01*
Y0754148D01*
X0939700Y0753148D01*
X0944698Y0748150D02*
Y0749150D01*
X0945698D01*
Y0748150D01*
X0944698D01*
X0952696D02*
Y0754148D01*
X0949697Y0751149D01*
X0953695D01*
X0955695Y0753148D02*
X0956695Y0754148D01*
X0958694D01*
X0959694Y0753148D01*
Y0749150D01*
X0958694Y0748150D01*
X0956695D01*
X0955695Y0749150D01*
Y0753148D01*
X0961693Y0748150D02*
Y0752149D01*
X0962693D01*
X0963692Y0751149D01*
Y0748150D01*
Y0751149D01*
X0964692Y0752149D01*
X0965692Y0751149D01*
Y0748150D01*
X0967691D02*
X0969690D01*
X0968691D01*
Y0752149D01*
X0967691D01*
X0972689Y0748150D02*
X0974689D01*
X0973689D01*
Y0754148D01*
X0972689D01*
X0943699Y0742148D02*
X0941699Y0741148D01*
X0939700Y0739149D01*
Y0737150D01*
X0940700Y0736150D01*
X0942699D01*
X0943699Y0737150D01*
Y0738149D01*
X0942699Y0739149D01*
X0939700D01*
X0945698Y0736150D02*
Y0737150D01*
X0946698D01*
Y0736150D01*
X0945698D01*
X0954695D02*
X0950696D01*
X0954695Y0740149D01*
Y0741148D01*
X0953695Y0742148D01*
X0951696D01*
X0950696Y0741148D01*
X0960693Y0742148D02*
X0956695D01*
Y0739149D01*
X0958694Y0740149D01*
X0959694D01*
X0960693Y0739149D01*
Y0737150D01*
X0959694Y0736150D01*
X0957694D01*
X0956695Y0737150D01*
X0962693Y0736150D02*
Y0740149D01*
X0963692D01*
X0964692Y0739149D01*
Y0736150D01*
Y0739149D01*
X0965692Y0740149D01*
X0966691Y0739149D01*
Y0736150D01*
X0968691D02*
X0970690D01*
X0969690D01*
Y0740149D01*
X0968691D01*
X0973689Y0736150D02*
X0975688D01*
X0974689D01*
Y0742148D01*
X0973689D01*
X0939700Y0724150D02*
X0941699D01*
X0940700D01*
Y0730148D01*
X0939700Y0729148D01*
X0944698Y0724150D02*
Y0725150D01*
X0945698D01*
Y0724150D01*
X0944698D01*
X0952696D02*
Y0730148D01*
X0949697Y0727149D01*
X0953695D01*
X0955695Y0729148D02*
X0956695Y0730148D01*
X0958694D01*
X0959694Y0729148D01*
Y0725150D01*
X0958694Y0724150D01*
X0956695D01*
X0955695Y0725150D01*
Y0729148D01*
X0961693Y0724150D02*
Y0728149D01*
X0962693D01*
X0963692Y0727149D01*
Y0724150D01*
Y0727149D01*
X0964692Y0728149D01*
X0965692Y0727149D01*
Y0724150D01*
X0967691D02*
X0969690D01*
X0968691D01*
Y0728149D01*
X0967691D01*
X0972689Y0724150D02*
X0974689D01*
X0973689D01*
Y0730148D01*
X0972689D01*
X0939700Y0717148D02*
X0940700Y0718148D01*
X0942699D01*
X0943699Y0717148D01*
Y0713150D01*
X0942699Y0712150D01*
X0940700D01*
X0939700Y0713150D01*
Y0717148D01*
X0945698Y0712150D02*
Y0713150D01*
X0946698D01*
Y0712150D01*
X0945698D01*
X0953695D02*
Y0718148D01*
X0950696Y0715149D01*
X0954695D01*
X0956695Y0717148D02*
X0957694Y0718148D01*
X0959694D01*
X0960693Y0717148D01*
Y0713150D01*
X0959694Y0712150D01*
X0957694D01*
X0956695Y0713150D01*
Y0717148D01*
X0962693Y0712150D02*
Y0716149D01*
X0963692D01*
X0964692Y0715149D01*
Y0712150D01*
Y0715149D01*
X0965692Y0716149D01*
X0966691Y0715149D01*
Y0712150D01*
X0968691D02*
X0970690D01*
X0969690D01*
Y0716149D01*
X0968691D01*
X0973689Y0712150D02*
X0975688D01*
X0974689D01*
Y0718148D01*
X0973689D01*
X0939700Y0886148D02*
X0943699D01*
X0941699D01*
Y0880150D01*
X0945698Y0886148D02*
Y0880150D01*
Y0883149D01*
X0946698Y0884149D01*
X0948697D01*
X0949697Y0883149D01*
Y0880150D01*
X0951696D02*
X0953695D01*
X0952696D01*
Y0884149D01*
X0951696D01*
X0960693D02*
X0957694D01*
X0956695Y0883149D01*
Y0881150D01*
X0957694Y0880150D01*
X0960693D01*
X0962693D02*
Y0886148D01*
Y0882149D02*
X0965692Y0884149D01*
X0962693Y0882149D02*
X0965692Y0880150D01*
X0968691D02*
Y0884149D01*
X0971690D01*
X0972689Y0883149D01*
Y0880150D01*
X0977688D02*
X0975688D01*
X0974689Y0881150D01*
Y0883149D01*
X0975688Y0884149D01*
X0977688D01*
X0978687Y0883149D01*
Y0882149D01*
X0974689D01*
X0980687Y0880150D02*
X0983686D01*
X0984685Y0881150D01*
X0983686Y0882149D01*
X0981686D01*
X0980687Y0883149D01*
X0981686Y0884149D01*
X0984685D01*
X0986685Y0880150D02*
X0989684D01*
X0990683Y0881150D01*
X0989684Y0882149D01*
X0987685D01*
X0986685Y0883149D01*
X0987685Y0884149D01*
X0990683D01*
X0857722Y0861148D02*
X0856722Y0862148D01*
X0854723D01*
X0853723Y0861148D01*
Y0860149D01*
X0854723Y0859149D01*
X0856722D01*
X0857722Y0858149D01*
Y0857150D01*
X0856722Y0856150D01*
X0854723D01*
X0853723Y0857150D01*
X0860721Y0856150D02*
X0862720D01*
X0863720Y0857150D01*
Y0859149D01*
X0862720Y0860149D01*
X0860721D01*
X0859721Y0859149D01*
Y0857150D01*
X0860721Y0856150D01*
X0865719D02*
X0867719D01*
X0866719D01*
Y0862148D01*
X0865719D01*
X0874716D02*
Y0856150D01*
X0871717D01*
X0870718Y0857150D01*
Y0859149D01*
X0871717Y0860149D01*
X0874716D01*
X0879715Y0856150D02*
X0877715D01*
X0876716Y0857150D01*
Y0859149D01*
X0877715Y0860149D01*
X0879715D01*
X0880715Y0859149D01*
Y0858149D01*
X0876716D01*
X0882714Y0860149D02*
Y0856150D01*
Y0858149D01*
X0883714Y0859149D01*
X0884713Y0860149D01*
X0885713D01*
X0894710Y0856150D02*
Y0862148D01*
X0897709D01*
X0898709Y0861148D01*
Y0859149D01*
X0897709Y0858149D01*
X0894710D01*
X0896709D02*
X0898709Y0856150D01*
X0903707D02*
X0901708D01*
X0900708Y0857150D01*
Y0859149D01*
X0901708Y0860149D01*
X0903707D01*
X0904707Y0859149D01*
Y0858149D01*
X0900708D01*
X0906706Y0856150D02*
X0909705D01*
X0910705Y0857150D01*
X0909705Y0858149D01*
X0907706D01*
X0906706Y0859149D01*
X0907706Y0860149D01*
X0910705D01*
X0912704Y0856150D02*
X0914704D01*
X0913704D01*
Y0860149D01*
X0912704D01*
X0917703Y0856150D02*
X0920702D01*
X0921701Y0857150D01*
X0920702Y0858149D01*
X0918702D01*
X0917703Y0859149D01*
X0918702Y0860149D01*
X0921701D01*
X0924700Y0861148D02*
Y0860149D01*
X0923701D01*
X0925700D01*
X0924700D01*
Y0857150D01*
X0925700Y0856150D01*
X0857722Y0849148D02*
X0856722Y0850148D01*
X0854723D01*
X0853723Y0849148D01*
Y0845150D01*
X0854723Y0844150D01*
X0856722D01*
X0857722Y0845150D01*
X0860721Y0844150D02*
X0862720D01*
X0863720Y0845150D01*
Y0847149D01*
X0862720Y0848149D01*
X0860721D01*
X0859721Y0847149D01*
Y0845150D01*
X0860721Y0844150D01*
X0865719Y0842151D02*
Y0848149D01*
X0868718D01*
X0869718Y0847149D01*
Y0845150D01*
X0868718Y0844150D01*
X0865719D01*
X0871717Y0842151D02*
Y0848149D01*
X0874716D01*
X0875716Y0847149D01*
Y0845150D01*
X0874716Y0844150D01*
X0871717D01*
X0880715D02*
X0878715D01*
X0877715Y0845150D01*
Y0847149D01*
X0878715Y0848149D01*
X0880715D01*
X0881714Y0847149D01*
Y0846149D01*
X0877715D01*
X0883714Y0848149D02*
Y0844150D01*
Y0846149D01*
X0884713Y0847149D01*
X0885713Y0848149D01*
X0886713D01*
X0857722Y0838148D02*
X0853723D01*
Y0835149D01*
X0855723D01*
X0853723D01*
Y0832150D01*
X0859721D02*
Y0838148D01*
X0862720D01*
X0863720Y0837148D01*
Y0835149D01*
X0862720Y0834149D01*
X0859721D01*
X0861721D02*
X0863720Y0832150D01*
X0865719Y0835149D02*
X0869718D01*
X0874716Y0832150D02*
Y0838148D01*
X0871717Y0835149D01*
X0875716D01*
X0857722Y0825148D02*
X0856722Y0826148D01*
X0854723D01*
X0853723Y0825148D01*
Y0821150D01*
X0854723Y0820150D01*
X0856722D01*
X0857722Y0821150D01*
X0860721Y0820150D02*
X0862720D01*
X0863720Y0821150D01*
Y0823149D01*
X0862720Y0824149D01*
X0860721D01*
X0859721Y0823149D01*
Y0821150D01*
X0860721Y0820150D01*
X0865719Y0818151D02*
Y0824149D01*
X0868718D01*
X0869718Y0823149D01*
Y0821150D01*
X0868718Y0820150D01*
X0865719D01*
X0871717Y0818151D02*
Y0824149D01*
X0874716D01*
X0875716Y0823149D01*
Y0821150D01*
X0874716Y0820150D01*
X0871717D01*
X0880715D02*
X0878715D01*
X0877715Y0821150D01*
Y0823149D01*
X0878715Y0824149D01*
X0880715D01*
X0881714Y0823149D01*
Y0822149D01*
X0877715D01*
X0883714Y0824149D02*
Y0820150D01*
Y0822149D01*
X0884713Y0823149D01*
X0885713Y0824149D01*
X0886713D01*
X0857722Y0814148D02*
X0853723D01*
Y0811149D01*
X0855723D01*
X0853723D01*
Y0808150D01*
X0859721D02*
Y0814148D01*
X0862720D01*
X0863720Y0813148D01*
Y0811149D01*
X0862720Y0810149D01*
X0859721D01*
X0861721D02*
X0863720Y0808150D01*
X0865719Y0811149D02*
X0869718D01*
X0874716Y0808150D02*
Y0814148D01*
X0871717Y0811149D01*
X0875716D01*
X0857722Y0801148D02*
X0856722Y0802148D01*
X0854723D01*
X0853723Y0801148D01*
Y0797150D01*
X0854723Y0796150D01*
X0856722D01*
X0857722Y0797150D01*
X0860721Y0796150D02*
X0862720D01*
X0863720Y0797150D01*
Y0799149D01*
X0862720Y0800149D01*
X0860721D01*
X0859721Y0799149D01*
Y0797150D01*
X0860721Y0796150D01*
X0865719Y0794151D02*
Y0800149D01*
X0868718D01*
X0869718Y0799149D01*
Y0797150D01*
X0868718Y0796150D01*
X0865719D01*
X0871717Y0794151D02*
Y0800149D01*
X0874716D01*
X0875716Y0799149D01*
Y0797150D01*
X0874716Y0796150D01*
X0871717D01*
X0880715D02*
X0878715D01*
X0877715Y0797150D01*
Y0799149D01*
X0878715Y0800149D01*
X0880715D01*
X0881714Y0799149D01*
Y0798149D01*
X0877715D01*
X0883714Y0800149D02*
Y0796150D01*
Y0798149D01*
X0884713Y0799149D01*
X0885713Y0800149D01*
X0886713D01*
X0857722Y0790148D02*
X0853723D01*
Y0787149D01*
X0855723D01*
X0853723D01*
Y0784150D01*
X0859721D02*
Y0790148D01*
X0862720D01*
X0863720Y0789148D01*
Y0787149D01*
X0862720Y0786149D01*
X0859721D01*
X0861721D02*
X0863720Y0784150D01*
X0865719Y0787149D02*
X0869718D01*
X0874716Y0784150D02*
Y0790148D01*
X0871717Y0787149D01*
X0875716D01*
X0857722Y0777148D02*
X0856722Y0778148D01*
X0854723D01*
X0853723Y0777148D01*
Y0773150D01*
X0854723Y0772150D01*
X0856722D01*
X0857722Y0773150D01*
X0860721Y0772150D02*
X0862720D01*
X0863720Y0773150D01*
Y0775149D01*
X0862720Y0776149D01*
X0860721D01*
X0859721Y0775149D01*
Y0773150D01*
X0860721Y0772150D01*
X0865719Y0770151D02*
Y0776149D01*
X0868718D01*
X0869718Y0775149D01*
Y0773150D01*
X0868718Y0772150D01*
X0865719D01*
X0871717Y0770151D02*
Y0776149D01*
X0874716D01*
X0875716Y0775149D01*
Y0773150D01*
X0874716Y0772150D01*
X0871717D01*
X0880715D02*
X0878715D01*
X0877715Y0773150D01*
Y0775149D01*
X0878715Y0776149D01*
X0880715D01*
X0881714Y0775149D01*
Y0774149D01*
X0877715D01*
X0883714Y0776149D02*
Y0772150D01*
Y0774149D01*
X0884713Y0775149D01*
X0885713Y0776149D01*
X0886713D01*
X0857722Y0766148D02*
X0853723D01*
Y0763149D01*
X0855723D01*
X0853723D01*
Y0760150D01*
X0859721D02*
Y0766148D01*
X0862720D01*
X0863720Y0765148D01*
Y0763149D01*
X0862720Y0762149D01*
X0859721D01*
X0861721D02*
X0863720Y0760150D01*
X0865719Y0763149D02*
X0869718D01*
X0874716Y0760150D02*
Y0766148D01*
X0871717Y0763149D01*
X0875716D01*
X0857722Y0753148D02*
X0856722Y0754148D01*
X0854723D01*
X0853723Y0753148D01*
Y0749150D01*
X0854723Y0748150D01*
X0856722D01*
X0857722Y0749150D01*
X0860721Y0748150D02*
X0862720D01*
X0863720Y0749150D01*
Y0751149D01*
X0862720Y0752149D01*
X0860721D01*
X0859721Y0751149D01*
Y0749150D01*
X0860721Y0748150D01*
X0865719Y0746151D02*
Y0752149D01*
X0868718D01*
X0869718Y0751149D01*
Y0749150D01*
X0868718Y0748150D01*
X0865719D01*
X0871717Y0746151D02*
Y0752149D01*
X0874716D01*
X0875716Y0751149D01*
Y0749150D01*
X0874716Y0748150D01*
X0871717D01*
X0880715D02*
X0878715D01*
X0877715Y0749150D01*
Y0751149D01*
X0878715Y0752149D01*
X0880715D01*
X0881714Y0751149D01*
Y0750149D01*
X0877715D01*
X0883714Y0752149D02*
Y0748150D01*
Y0750149D01*
X0884713Y0751149D01*
X0885713Y0752149D01*
X0886713D01*
X0857722Y0742148D02*
X0853723D01*
Y0739149D01*
X0855723D01*
X0853723D01*
Y0736150D01*
X0859721D02*
Y0742148D01*
X0862720D01*
X0863720Y0741148D01*
Y0739149D01*
X0862720Y0738149D01*
X0859721D01*
X0861721D02*
X0863720Y0736150D01*
X0865719Y0739149D02*
X0869718D01*
X0874716Y0736150D02*
Y0742148D01*
X0871717Y0739149D01*
X0875716D01*
X0857722Y0729148D02*
X0856722Y0730148D01*
X0854723D01*
X0853723Y0729148D01*
Y0725150D01*
X0854723Y0724150D01*
X0856722D01*
X0857722Y0725150D01*
X0860721Y0724150D02*
X0862720D01*
X0863720Y0725150D01*
Y0727149D01*
X0862720Y0728149D01*
X0860721D01*
X0859721Y0727149D01*
Y0725150D01*
X0860721Y0724150D01*
X0865719Y0722151D02*
Y0728149D01*
X0868718D01*
X0869718Y0727149D01*
Y0725150D01*
X0868718Y0724150D01*
X0865719D01*
X0871717Y0722151D02*
Y0728149D01*
X0874716D01*
X0875716Y0727149D01*
Y0725150D01*
X0874716Y0724150D01*
X0871717D01*
X0880715D02*
X0878715D01*
X0877715Y0725150D01*
Y0727149D01*
X0878715Y0728149D01*
X0880715D01*
X0881714Y0727149D01*
Y0726149D01*
X0877715D01*
X0883714Y0728149D02*
Y0724150D01*
Y0726149D01*
X0884713Y0727149D01*
X0885713Y0728149D01*
X0886713D01*
X0857722Y0717148D02*
X0856722Y0718148D01*
X0854723D01*
X0853723Y0717148D01*
Y0716149D01*
X0854723Y0715149D01*
X0856722D01*
X0857722Y0714149D01*
Y0713150D01*
X0856722Y0712150D01*
X0854723D01*
X0853723Y0713150D01*
X0860721Y0712150D02*
X0862720D01*
X0863720Y0713150D01*
Y0715149D01*
X0862720Y0716149D01*
X0860721D01*
X0859721Y0715149D01*
Y0713150D01*
X0860721Y0712150D01*
X0865719D02*
X0867719D01*
X0866719D01*
Y0718148D01*
X0865719D01*
X0874716D02*
Y0712150D01*
X0871717D01*
X0870718Y0713150D01*
Y0715149D01*
X0871717Y0716149D01*
X0874716D01*
X0879715Y0712150D02*
X0877715D01*
X0876716Y0713150D01*
Y0715149D01*
X0877715Y0716149D01*
X0879715D01*
X0880715Y0715149D01*
Y0714149D01*
X0876716D01*
X0882714Y0716149D02*
Y0712150D01*
Y0714149D01*
X0883714Y0715149D01*
X0884713Y0716149D01*
X0885713D01*
X0894710Y0712150D02*
Y0718148D01*
X0897709D01*
X0898709Y0717148D01*
Y0715149D01*
X0897709Y0714149D01*
X0894710D01*
X0896709D02*
X0898709Y0712150D01*
X0903707D02*
X0901708D01*
X0900708Y0713150D01*
Y0715149D01*
X0901708Y0716149D01*
X0903707D01*
X0904707Y0715149D01*
Y0714149D01*
X0900708D01*
X0906706Y0712150D02*
X0909705D01*
X0910705Y0713150D01*
X0909705Y0714149D01*
X0907706D01*
X0906706Y0715149D01*
X0907706Y0716149D01*
X0910705D01*
X0912704Y0712150D02*
X0914704D01*
X0913704D01*
Y0716149D01*
X0912704D01*
X0917703Y0712150D02*
X0920702D01*
X0921701Y0713150D01*
X0920702Y0714149D01*
X0918702D01*
X0917703Y0715149D01*
X0918702Y0716149D01*
X0921701D01*
X0924700Y0717148D02*
Y0716149D01*
X0923701D01*
X0925700D01*
X0924700D01*
Y0713150D01*
X0925700Y0712150D01*
X0853723Y0880150D02*
Y0886148D01*
X0855723Y0884149D01*
X0857722Y0886148D01*
Y0880150D01*
X0860721Y0884149D02*
X0862720D01*
X0863720Y0883149D01*
Y0880150D01*
X0860721D01*
X0859721Y0881150D01*
X0860721Y0882149D01*
X0863720D01*
X0866719Y0885148D02*
Y0884149D01*
X0865719D01*
X0867719D01*
X0866719D01*
Y0881150D01*
X0867719Y0880150D01*
X0873717D02*
X0871717D01*
X0870718Y0881150D01*
Y0883149D01*
X0871717Y0884149D01*
X0873717D01*
X0874716Y0883149D01*
Y0882149D01*
X0870718D01*
X0876716Y0884149D02*
Y0880150D01*
Y0882149D01*
X0877715Y0883149D01*
X0878715Y0884149D01*
X0879715D01*
X0882714Y0880150D02*
X0884713D01*
X0883714D01*
Y0884149D01*
X0882714D01*
X0888712D02*
X0890711D01*
X0891711Y0883149D01*
Y0880150D01*
X0888712D01*
X0887712Y0881150D01*
X0888712Y0882149D01*
X0891711D01*
X0893710Y0880150D02*
X0895710D01*
X0894710D01*
Y0886148D01*
X0893710D01*
X0760749Y0874148D02*
X0764747D01*
X0762748D01*
Y0868150D01*
X0767747D02*
X0769746D01*
X0770746Y0869150D01*
Y0871149D01*
X0769746Y0872149D01*
X0767747D01*
X0766747Y0871149D01*
Y0869150D01*
X0767747Y0868150D01*
X0772745Y0866151D02*
Y0872149D01*
X0775744D01*
X0776744Y0871149D01*
Y0869150D01*
X0775744Y0868150D01*
X0772745D01*
X0787740Y0874148D02*
X0785741D01*
X0784741Y0873148D01*
Y0869150D01*
X0785741Y0868150D01*
X0787740D01*
X0788740Y0869150D01*
Y0873148D01*
X0787740Y0874148D01*
X0790739Y0872149D02*
X0792738Y0868150D01*
X0794738Y0872149D01*
X0799736Y0868150D02*
X0797737D01*
X0796737Y0869150D01*
Y0871149D01*
X0797737Y0872149D01*
X0799736D01*
X0800736Y0871149D01*
Y0870149D01*
X0796737D01*
X0802735Y0872149D02*
Y0868150D01*
Y0870149D01*
X0803735Y0871149D01*
X0804735Y0872149D01*
X0805734D01*
X0808733Y0868150D02*
X0810733D01*
X0809733D01*
Y0874148D01*
X0808733D01*
X0814731Y0872149D02*
X0816731D01*
X0817730Y0871149D01*
Y0868150D01*
X0814731D01*
X0813732Y0869150D01*
X0814731Y0870149D01*
X0817730D01*
X0819730Y0872149D02*
Y0869150D01*
X0820729Y0868150D01*
X0823728D01*
Y0867150D01*
X0822729Y0866151D01*
X0821729D01*
X0823728Y0868150D02*
Y0872149D01*
X0760749Y0862148D02*
X0764747D01*
X0762748D01*
Y0856150D01*
X0767747D02*
X0769746D01*
X0770746Y0857150D01*
Y0859149D01*
X0769746Y0860149D01*
X0767747D01*
X0766747Y0859149D01*
Y0857150D01*
X0767747Y0856150D01*
X0772745Y0854151D02*
Y0860149D01*
X0775744D01*
X0776744Y0859149D01*
Y0857150D01*
X0775744Y0856150D01*
X0772745D01*
X0788740Y0861148D02*
X0787740Y0862148D01*
X0785741D01*
X0784741Y0861148D01*
Y0860149D01*
X0785741Y0859149D01*
X0787740D01*
X0788740Y0858149D01*
Y0857150D01*
X0787740Y0856150D01*
X0785741D01*
X0784741Y0857150D01*
X0791739Y0856150D02*
X0793738D01*
X0794738Y0857150D01*
Y0859149D01*
X0793738Y0860149D01*
X0791739D01*
X0790739Y0859149D01*
Y0857150D01*
X0791739Y0856150D01*
X0796737D02*
X0798736D01*
X0797737D01*
Y0862148D01*
X0796737D01*
X0805734D02*
Y0856150D01*
X0802735D01*
X0801736Y0857150D01*
Y0859149D01*
X0802735Y0860149D01*
X0805734D01*
X0810733Y0856150D02*
X0808733D01*
X0807734Y0857150D01*
Y0859149D01*
X0808733Y0860149D01*
X0810733D01*
X0811732Y0859149D01*
Y0858149D01*
X0807734D01*
X0813732Y0860149D02*
Y0856150D01*
Y0858149D01*
X0814731Y0859149D01*
X0815731Y0860149D01*
X0816731D01*
X0760749Y0850148D02*
X0764747D01*
X0762748D01*
Y0844150D01*
X0767747D02*
X0769746D01*
X0770746Y0845150D01*
Y0847149D01*
X0769746Y0848149D01*
X0767747D01*
X0766747Y0847149D01*
Y0845150D01*
X0767747Y0844150D01*
X0772745Y0842151D02*
Y0848149D01*
X0775744D01*
X0776744Y0847149D01*
Y0845150D01*
X0775744Y0844150D01*
X0772745D01*
X0788740Y0849148D02*
X0787740Y0850148D01*
X0785741D01*
X0784741Y0849148D01*
Y0848149D01*
X0785741Y0847149D01*
X0787740D01*
X0788740Y0846149D01*
Y0845150D01*
X0787740Y0844150D01*
X0785741D01*
X0784741Y0845150D01*
X0790739Y0844150D02*
X0792738D01*
X0791739D01*
Y0848149D01*
X0790739D01*
X0797737Y0842151D02*
X0798736D01*
X0799736Y0843150D01*
Y0848149D01*
X0796737D01*
X0795738Y0847149D01*
Y0845150D01*
X0796737Y0844150D01*
X0799736D01*
X0801736D02*
Y0848149D01*
X0804735D01*
X0805734Y0847149D01*
Y0844150D01*
X0808733Y0848149D02*
X0810733D01*
X0811732Y0847149D01*
Y0844150D01*
X0808733D01*
X0807734Y0845150D01*
X0808733Y0846149D01*
X0811732D01*
X0813732Y0844150D02*
X0815731D01*
X0814731D01*
Y0850148D01*
X0813732D01*
X0760749Y0838148D02*
Y0832150D01*
X0763748D01*
X0764747Y0833150D01*
Y0837148D01*
X0763748Y0838148D01*
X0760749D01*
X0766747Y0832150D02*
X0768746D01*
X0767747D01*
Y0836149D01*
X0766747D01*
X0774744Y0832150D02*
X0772745D01*
X0771745Y0833150D01*
Y0835149D01*
X0772745Y0836149D01*
X0774744D01*
X0775744Y0835149D01*
Y0834149D01*
X0771745D01*
X0777743Y0832150D02*
X0779743D01*
X0778743D01*
Y0838148D01*
X0777743D01*
X0785741Y0832150D02*
X0783741D01*
X0782742Y0833150D01*
Y0835149D01*
X0783741Y0836149D01*
X0785741D01*
X0786740Y0835149D01*
Y0834149D01*
X0782742D01*
X0792738Y0836149D02*
X0789740D01*
X0788740Y0835149D01*
Y0833150D01*
X0789740Y0832150D01*
X0792738D01*
X0795738Y0837148D02*
Y0836149D01*
X0794738D01*
X0796737D01*
X0795738D01*
Y0833150D01*
X0796737Y0832150D01*
X0799736Y0836149D02*
Y0832150D01*
Y0834149D01*
X0800736Y0835149D01*
X0801736Y0836149D01*
X0802735D01*
X0805734Y0832150D02*
X0807734D01*
X0806734D01*
Y0836149D01*
X0805734D01*
X0814731D02*
X0811732D01*
X0810733Y0835149D01*
Y0833150D01*
X0811732Y0832150D01*
X0814731D01*
X0822729D02*
X0824728D01*
X0823728D01*
Y0838148D01*
X0822729Y0837148D01*
X0764747Y0825148D02*
X0763748Y0826148D01*
X0761749D01*
X0760749Y0825148D01*
Y0821150D01*
X0761749Y0820150D01*
X0763748D01*
X0764747Y0821150D01*
Y0823149D01*
X0762748D01*
X0766747Y0820150D02*
Y0826148D01*
X0770746Y0820150D01*
Y0826148D01*
X0772745D02*
Y0820150D01*
X0775744D01*
X0776744Y0821150D01*
Y0825148D01*
X0775744Y0826148D01*
X0772745D01*
X0760749Y0814148D02*
Y0808150D01*
X0763748D01*
X0764747Y0809150D01*
Y0813148D01*
X0763748Y0814148D01*
X0760749D01*
X0766747Y0808150D02*
X0768746D01*
X0767747D01*
Y0812149D01*
X0766747D01*
X0774744Y0808150D02*
X0772745D01*
X0771745Y0809150D01*
Y0811149D01*
X0772745Y0812149D01*
X0774744D01*
X0775744Y0811149D01*
Y0810149D01*
X0771745D01*
X0777743Y0808150D02*
X0779743D01*
X0778743D01*
Y0814148D01*
X0777743D01*
X0785741Y0808150D02*
X0783741D01*
X0782742Y0809150D01*
Y0811149D01*
X0783741Y0812149D01*
X0785741D01*
X0786740Y0811149D01*
Y0810149D01*
X0782742D01*
X0792738Y0812149D02*
X0789740D01*
X0788740Y0811149D01*
Y0809150D01*
X0789740Y0808150D01*
X0792738D01*
X0795738Y0813148D02*
Y0812149D01*
X0794738D01*
X0796737D01*
X0795738D01*
Y0809150D01*
X0796737Y0808150D01*
X0799736Y0812149D02*
Y0808150D01*
Y0810149D01*
X0800736Y0811149D01*
X0801736Y0812149D01*
X0802735D01*
X0805734Y0808150D02*
X0807734D01*
X0806734D01*
Y0812149D01*
X0805734D01*
X0814731D02*
X0811732D01*
X0810733Y0811149D01*
Y0809150D01*
X0811732Y0808150D01*
X0814731D01*
X0826727D02*
X0822729D01*
X0826727Y0812149D01*
Y0813148D01*
X0825728Y0814148D01*
X0823728D01*
X0822729Y0813148D01*
X0760749Y0796150D02*
Y0802148D01*
X0762748Y0800149D01*
X0764747Y0802148D01*
Y0796150D01*
X0766747D02*
X0768746D01*
X0767747D01*
Y0800149D01*
X0766747D01*
X0775744Y0802148D02*
Y0796150D01*
X0772745D01*
X0771745Y0797150D01*
Y0799149D01*
X0772745Y0800149D01*
X0775744D01*
X0781742Y0802148D02*
Y0796150D01*
X0778743D01*
X0777743Y0797150D01*
Y0799149D01*
X0778743Y0800149D01*
X0781742D01*
X0783741Y0796150D02*
X0785741D01*
X0784741D01*
Y0802148D01*
X0783741D01*
X0791739Y0796150D02*
X0789740D01*
X0788740Y0797150D01*
Y0799149D01*
X0789740Y0800149D01*
X0791739D01*
X0792738Y0799149D01*
Y0798149D01*
X0788740D01*
X0804735Y0801148D02*
X0803735Y0802148D01*
X0801736D01*
X0800736Y0801148D01*
Y0800149D01*
X0801736Y0799149D01*
X0803735D01*
X0804735Y0798149D01*
Y0797150D01*
X0803735Y0796150D01*
X0801736D01*
X0800736Y0797150D01*
X0806734Y0796150D02*
X0808733D01*
X0807734D01*
Y0800149D01*
X0806734D01*
X0813732Y0794151D02*
X0814731D01*
X0815731Y0795150D01*
Y0800149D01*
X0812732D01*
X0811732Y0799149D01*
Y0797150D01*
X0812732Y0796150D01*
X0815731D01*
X0817730D02*
Y0800149D01*
X0820729D01*
X0821729Y0799149D01*
Y0796150D01*
X0824728Y0800149D02*
X0826727D01*
X0827727Y0799149D01*
Y0796150D01*
X0824728D01*
X0823728Y0797150D01*
X0824728Y0798149D01*
X0827727D01*
X0829727Y0796150D02*
X0831726D01*
X0830726D01*
Y0802148D01*
X0829727D01*
X0760749Y0790148D02*
Y0784150D01*
X0763748D01*
X0764747Y0785150D01*
Y0789148D01*
X0763748Y0790148D01*
X0760749D01*
X0766747Y0784150D02*
X0768746D01*
X0767747D01*
Y0788149D01*
X0766747D01*
X0774744Y0784150D02*
X0772745D01*
X0771745Y0785150D01*
Y0787149D01*
X0772745Y0788149D01*
X0774744D01*
X0775744Y0787149D01*
Y0786149D01*
X0771745D01*
X0777743Y0784150D02*
X0779743D01*
X0778743D01*
Y0790148D01*
X0777743D01*
X0785741Y0784150D02*
X0783741D01*
X0782742Y0785150D01*
Y0787149D01*
X0783741Y0788149D01*
X0785741D01*
X0786740Y0787149D01*
Y0786149D01*
X0782742D01*
X0792738Y0788149D02*
X0789740D01*
X0788740Y0787149D01*
Y0785150D01*
X0789740Y0784150D01*
X0792738D01*
X0795738Y0789148D02*
Y0788149D01*
X0794738D01*
X0796737D01*
X0795738D01*
Y0785150D01*
X0796737Y0784150D01*
X0799736Y0788149D02*
Y0784150D01*
Y0786149D01*
X0800736Y0787149D01*
X0801736Y0788149D01*
X0802735D01*
X0805734Y0784150D02*
X0807734D01*
X0806734D01*
Y0788149D01*
X0805734D01*
X0814731D02*
X0811732D01*
X0810733Y0787149D01*
Y0785150D01*
X0811732Y0784150D01*
X0814731D01*
X0822729Y0789148D02*
X0823728Y0790148D01*
X0825728D01*
X0826727Y0789148D01*
Y0788149D01*
X0825728Y0787149D01*
X0824728D01*
X0825728D01*
X0826727Y0786149D01*
Y0785150D01*
X0825728Y0784150D01*
X0823728D01*
X0822729Y0785150D01*
X0760749Y0772150D02*
Y0778148D01*
X0763748D01*
X0764747Y0777148D01*
Y0775149D01*
X0763748Y0774149D01*
X0760749D01*
X0766747Y0778148D02*
Y0772150D01*
X0768746Y0774149D01*
X0770746Y0772150D01*
Y0778148D01*
X0772745Y0772150D02*
Y0778148D01*
X0775744D01*
X0776744Y0777148D01*
Y0775149D01*
X0775744Y0774149D01*
X0772745D01*
X0774744D02*
X0776744Y0772150D01*
X0760749Y0766148D02*
Y0760150D01*
X0763748D01*
X0764747Y0761150D01*
Y0765148D01*
X0763748Y0766148D01*
X0760749D01*
X0766747Y0760150D02*
X0768746D01*
X0767747D01*
Y0764149D01*
X0766747D01*
X0774744Y0760150D02*
X0772745D01*
X0771745Y0761150D01*
Y0763149D01*
X0772745Y0764149D01*
X0774744D01*
X0775744Y0763149D01*
Y0762149D01*
X0771745D01*
X0777743Y0760150D02*
X0779743D01*
X0778743D01*
Y0766148D01*
X0777743D01*
X0785741Y0760150D02*
X0783741D01*
X0782742Y0761150D01*
Y0763149D01*
X0783741Y0764149D01*
X0785741D01*
X0786740Y0763149D01*
Y0762149D01*
X0782742D01*
X0792738Y0764149D02*
X0789740D01*
X0788740Y0763149D01*
Y0761150D01*
X0789740Y0760150D01*
X0792738D01*
X0795738Y0765148D02*
Y0764149D01*
X0794738D01*
X0796737D01*
X0795738D01*
Y0761150D01*
X0796737Y0760150D01*
X0799736Y0764149D02*
Y0760150D01*
Y0762149D01*
X0800736Y0763149D01*
X0801736Y0764149D01*
X0802735D01*
X0805734Y0760150D02*
X0807734D01*
X0806734D01*
Y0764149D01*
X0805734D01*
X0814731D02*
X0811732D01*
X0810733Y0763149D01*
Y0761150D01*
X0811732Y0760150D01*
X0814731D01*
X0825728D02*
Y0766148D01*
X0822729Y0763149D01*
X0826727D01*
X0764747Y0753148D02*
X0763748Y0754148D01*
X0761749D01*
X0760749Y0753148D01*
Y0749150D01*
X0761749Y0748150D01*
X0763748D01*
X0764747Y0749150D01*
Y0751149D01*
X0762748D01*
X0766747Y0748150D02*
Y0754148D01*
X0770746Y0748150D01*
Y0754148D01*
X0772745D02*
Y0748150D01*
X0775744D01*
X0776744Y0749150D01*
Y0753148D01*
X0775744Y0754148D01*
X0772745D01*
X0782742Y0748150D02*
X0778743D01*
X0782742Y0752149D01*
Y0753148D01*
X0781742Y0754148D01*
X0779743D01*
X0778743Y0753148D01*
X0760749Y0742148D02*
Y0736150D01*
X0763748D01*
X0764747Y0737150D01*
Y0741148D01*
X0763748Y0742148D01*
X0760749D01*
X0766747Y0736150D02*
X0768746D01*
X0767747D01*
Y0740149D01*
X0766747D01*
X0774744Y0736150D02*
X0772745D01*
X0771745Y0737150D01*
Y0739149D01*
X0772745Y0740149D01*
X0774744D01*
X0775744Y0739149D01*
Y0738149D01*
X0771745D01*
X0777743Y0736150D02*
X0779743D01*
X0778743D01*
Y0742148D01*
X0777743D01*
X0785741Y0736150D02*
X0783741D01*
X0782742Y0737150D01*
Y0739149D01*
X0783741Y0740149D01*
X0785741D01*
X0786740Y0739149D01*
Y0738149D01*
X0782742D01*
X0792738Y0740149D02*
X0789740D01*
X0788740Y0739149D01*
Y0737150D01*
X0789740Y0736150D01*
X0792738D01*
X0795738Y0741148D02*
Y0740149D01*
X0794738D01*
X0796737D01*
X0795738D01*
Y0737150D01*
X0796737Y0736150D01*
X0799736Y0740149D02*
Y0736150D01*
Y0738149D01*
X0800736Y0739149D01*
X0801736Y0740149D01*
X0802735D01*
X0805734Y0736150D02*
X0807734D01*
X0806734D01*
Y0740149D01*
X0805734D01*
X0814731D02*
X0811732D01*
X0810733Y0739149D01*
Y0737150D01*
X0811732Y0736150D01*
X0814731D01*
X0826727Y0742148D02*
X0822729D01*
Y0739149D01*
X0824728Y0740149D01*
X0825728D01*
X0826727Y0739149D01*
Y0737150D01*
X0825728Y0736150D01*
X0823728D01*
X0822729Y0737150D01*
X0760749Y0730148D02*
Y0724150D01*
X0763748D01*
X0764747Y0725150D01*
Y0726149D01*
X0763748Y0727149D01*
X0760749D01*
X0763748D01*
X0764747Y0728149D01*
Y0729148D01*
X0763748Y0730148D01*
X0760749D01*
X0767747Y0724150D02*
X0769746D01*
X0770746Y0725150D01*
Y0727149D01*
X0769746Y0728149D01*
X0767747D01*
X0766747Y0727149D01*
Y0725150D01*
X0767747Y0724150D01*
X0773745Y0729148D02*
Y0728149D01*
X0772745D01*
X0774744D01*
X0773745D01*
Y0725150D01*
X0774744Y0724150D01*
X0778743Y0729148D02*
Y0728149D01*
X0777743D01*
X0779743D01*
X0778743D01*
Y0725150D01*
X0779743Y0724150D01*
X0783741D02*
X0785741D01*
X0786740Y0725150D01*
Y0727149D01*
X0785741Y0728149D01*
X0783741D01*
X0782742Y0727149D01*
Y0725150D01*
X0783741Y0724150D01*
X0788740D02*
Y0728149D01*
X0789740D01*
X0790739Y0727149D01*
Y0724150D01*
Y0727149D01*
X0791739Y0728149D01*
X0792738Y0727149D01*
Y0724150D01*
X0804735Y0729148D02*
X0803735Y0730148D01*
X0801736D01*
X0800736Y0729148D01*
Y0728149D01*
X0801736Y0727149D01*
X0803735D01*
X0804735Y0726149D01*
Y0725150D01*
X0803735Y0724150D01*
X0801736D01*
X0800736Y0725150D01*
X0806734Y0724150D02*
X0808733D01*
X0807734D01*
Y0728149D01*
X0806734D01*
X0813732Y0722151D02*
X0814731D01*
X0815731Y0723150D01*
Y0728149D01*
X0812732D01*
X0811732Y0727149D01*
Y0725150D01*
X0812732Y0724150D01*
X0815731D01*
X0817730D02*
Y0728149D01*
X0820729D01*
X0821729Y0727149D01*
Y0724150D01*
X0824728Y0728149D02*
X0826727D01*
X0827727Y0727149D01*
Y0724150D01*
X0824728D01*
X0823728Y0725150D01*
X0824728Y0726149D01*
X0827727D01*
X0829727Y0724150D02*
X0831726D01*
X0830726D01*
Y0730148D01*
X0829727D01*
X0760749Y0718148D02*
Y0712150D01*
X0763748D01*
X0764747Y0713150D01*
Y0714149D01*
X0763748Y0715149D01*
X0760749D01*
X0763748D01*
X0764747Y0716149D01*
Y0717148D01*
X0763748Y0718148D01*
X0760749D01*
X0767747Y0712150D02*
X0769746D01*
X0770746Y0713150D01*
Y0715149D01*
X0769746Y0716149D01*
X0767747D01*
X0766747Y0715149D01*
Y0713150D01*
X0767747Y0712150D01*
X0773745Y0717148D02*
Y0716149D01*
X0772745D01*
X0774744D01*
X0773745D01*
Y0713150D01*
X0774744Y0712150D01*
X0778743Y0717148D02*
Y0716149D01*
X0777743D01*
X0779743D01*
X0778743D01*
Y0713150D01*
X0779743Y0712150D01*
X0783741D02*
X0785741D01*
X0786740Y0713150D01*
Y0715149D01*
X0785741Y0716149D01*
X0783741D01*
X0782742Y0715149D01*
Y0713150D01*
X0783741Y0712150D01*
X0788740D02*
Y0716149D01*
X0789740D01*
X0790739Y0715149D01*
Y0712150D01*
Y0715149D01*
X0791739Y0716149D01*
X0792738Y0715149D01*
Y0712150D01*
X0804735Y0717148D02*
X0803735Y0718148D01*
X0801736D01*
X0800736Y0717148D01*
Y0716149D01*
X0801736Y0715149D01*
X0803735D01*
X0804735Y0714149D01*
Y0713150D01*
X0803735Y0712150D01*
X0801736D01*
X0800736Y0713150D01*
X0807734Y0712150D02*
X0809733D01*
X0810733Y0713150D01*
Y0715149D01*
X0809733Y0716149D01*
X0807734D01*
X0806734Y0715149D01*
Y0713150D01*
X0807734Y0712150D01*
X0812732D02*
X0814731D01*
X0813732D01*
Y0718148D01*
X0812732D01*
X0821729D02*
Y0712150D01*
X0818730D01*
X0817730Y0713150D01*
Y0715149D01*
X0818730Y0716149D01*
X0821729D01*
X0826727Y0712150D02*
X0824728D01*
X0823728Y0713150D01*
Y0715149D01*
X0824728Y0716149D01*
X0826727D01*
X0827727Y0715149D01*
Y0714149D01*
X0823728D01*
X0829727Y0716149D02*
Y0712150D01*
Y0714149D01*
X0830726Y0715149D01*
X0831726Y0716149D01*
X0832726D01*
X0760749Y0706148D02*
Y0700150D01*
X0763748D01*
X0764747Y0701150D01*
Y0702149D01*
X0763748Y0703149D01*
X0760749D01*
X0763748D01*
X0764747Y0704149D01*
Y0705148D01*
X0763748Y0706148D01*
X0760749D01*
X0767747Y0700150D02*
X0769746D01*
X0770746Y0701150D01*
Y0703149D01*
X0769746Y0704149D01*
X0767747D01*
X0766747Y0703149D01*
Y0701150D01*
X0767747Y0700150D01*
X0773745Y0705148D02*
Y0704149D01*
X0772745D01*
X0774744D01*
X0773745D01*
Y0701150D01*
X0774744Y0700150D01*
X0778743Y0705148D02*
Y0704149D01*
X0777743D01*
X0779743D01*
X0778743D01*
Y0701150D01*
X0779743Y0700150D01*
X0783741D02*
X0785741D01*
X0786740Y0701150D01*
Y0703149D01*
X0785741Y0704149D01*
X0783741D01*
X0782742Y0703149D01*
Y0701150D01*
X0783741Y0700150D01*
X0788740D02*
Y0704149D01*
X0789740D01*
X0790739Y0703149D01*
Y0700150D01*
Y0703149D01*
X0791739Y0704149D01*
X0792738Y0703149D01*
Y0700150D01*
X0803735Y0706148D02*
X0801736D01*
X0800736Y0705148D01*
Y0701150D01*
X0801736Y0700150D01*
X0803735D01*
X0804735Y0701150D01*
Y0705148D01*
X0803735Y0706148D01*
X0806734Y0704149D02*
X0808733Y0700150D01*
X0810733Y0704149D01*
X0815731Y0700150D02*
X0813732D01*
X0812732Y0701150D01*
Y0703149D01*
X0813732Y0704149D01*
X0815731D01*
X0816731Y0703149D01*
Y0702149D01*
X0812732D01*
X0818730Y0704149D02*
Y0700150D01*
Y0702149D01*
X0819730Y0703149D01*
X0820729Y0704149D01*
X0821729D01*
X0824728Y0700150D02*
X0826727D01*
X0825728D01*
Y0706148D01*
X0824728D01*
X0830726Y0704149D02*
X0832726D01*
X0833725Y0703149D01*
Y0700150D01*
X0830726D01*
X0829727Y0701150D01*
X0830726Y0702149D01*
X0833725D01*
X0835725Y0704149D02*
Y0701150D01*
X0836724Y0700150D01*
X0839723D01*
Y0699150D01*
X0838724Y0698151D01*
X0837724D01*
X0839723Y0700150D02*
Y0704149D01*
X0760749Y0880150D02*
Y0886148D01*
X0764747Y0880150D01*
Y0886148D01*
X0767747Y0884149D02*
X0769746D01*
X0770746Y0883149D01*
Y0880150D01*
X0767747D01*
X0766747Y0881150D01*
X0767747Y0882149D01*
X0770746D01*
X0772745Y0880150D02*
Y0884149D01*
X0773745D01*
X0774744Y0883149D01*
Y0880150D01*
Y0883149D01*
X0775744Y0884149D01*
X0776744Y0883149D01*
Y0880150D01*
X0781742D02*
X0779743D01*
X0778743Y0881150D01*
Y0883149D01*
X0779743Y0884149D01*
X0781742D01*
X0782742Y0883149D01*
Y0882149D01*
X0778743D01*
X0719758Y0868150D02*
X0721757D01*
X0720757D01*
Y0874148D01*
X0719758Y0873148D01*
X0723756Y0856150D02*
X0719758D01*
X0723756Y0860149D01*
Y0861148D01*
X0722757Y0862148D01*
X0720757D01*
X0719758Y0861148D01*
Y0849148D02*
X0720757Y0850148D01*
X0722757D01*
X0723756Y0849148D01*
Y0848149D01*
X0722757Y0847149D01*
X0721757D01*
X0722757D01*
X0723756Y0846149D01*
Y0845150D01*
X0722757Y0844150D01*
X0720757D01*
X0719758Y0845150D01*
X0722757Y0832150D02*
Y0838148D01*
X0719758Y0835149D01*
X0723756D01*
Y0826148D02*
X0719758D01*
Y0823149D01*
X0721757Y0824149D01*
X0722757D01*
X0723756Y0823149D01*
Y0821150D01*
X0722757Y0820150D01*
X0720757D01*
X0719758Y0821150D01*
X0723756Y0814148D02*
X0721757Y0813148D01*
X0719758Y0811149D01*
Y0809150D01*
X0720757Y0808150D01*
X0722757D01*
X0723756Y0809150D01*
Y0810149D01*
X0722757Y0811149D01*
X0719758D01*
Y0802148D02*
X0723756D01*
Y0801148D01*
X0719758Y0797150D01*
Y0796150D01*
Y0789148D02*
X0720757Y0790148D01*
X0722757D01*
X0723756Y0789148D01*
Y0788149D01*
X0722757Y0787149D01*
X0723756Y0786149D01*
Y0785150D01*
X0722757Y0784150D01*
X0720757D01*
X0719758Y0785150D01*
Y0786149D01*
X0720757Y0787149D01*
X0719758Y0788149D01*
Y0789148D01*
X0720757Y0787149D02*
X0722757D01*
X0719758Y0773150D02*
X0720757Y0772150D01*
X0722757D01*
X0723756Y0773150D01*
Y0777148D01*
X0722757Y0778148D01*
X0720757D01*
X0719758Y0777148D01*
Y0776149D01*
X0720757Y0775149D01*
X0723756D01*
X0719758Y0760150D02*
X0721757D01*
X0720757D01*
Y0766148D01*
X0719758Y0765148D01*
X0724756D02*
X0725756Y0766148D01*
X0727755D01*
X0728755Y0765148D01*
Y0761150D01*
X0727755Y0760150D01*
X0725756D01*
X0724756Y0761150D01*
Y0765148D01*
X0719758Y0748150D02*
X0721757D01*
X0720757D01*
Y0754148D01*
X0719758Y0753148D01*
X0724756Y0748150D02*
X0726755D01*
X0725756D01*
Y0754148D01*
X0724756Y0753148D01*
X0719758Y0736150D02*
X0721757D01*
X0720757D01*
Y0742148D01*
X0719758Y0741148D01*
X0728755Y0736150D02*
X0724756D01*
X0728755Y0740149D01*
Y0741148D01*
X0727755Y0742148D01*
X0725756D01*
X0724756Y0741148D01*
X0719758Y0724150D02*
X0721757D01*
X0720757D01*
Y0730148D01*
X0719758Y0729148D01*
X0724756D02*
X0725756Y0730148D01*
X0727755D01*
X0728755Y0729148D01*
Y0728149D01*
X0727755Y0727149D01*
X0726755D01*
X0727755D01*
X0728755Y0726149D01*
Y0725150D01*
X0727755Y0724150D01*
X0725756D01*
X0724756Y0725150D01*
X0719758Y0712150D02*
X0721757D01*
X0720757D01*
Y0718148D01*
X0719758Y0717148D01*
X0727755Y0712150D02*
Y0718148D01*
X0724756Y0715149D01*
X0728755D01*
X0719758Y0700150D02*
X0721757D01*
X0720757D01*
Y0706148D01*
X0719758Y0705148D01*
X0728755Y0706148D02*
X0724756D01*
Y0703149D01*
X0726755Y0704149D01*
X0727755D01*
X0728755Y0703149D01*
Y0701150D01*
X0727755Y0700150D01*
X0725756D01*
X0724756Y0701150D01*
X0719758Y0886148D02*
Y0880150D01*
X0723756D01*
X0726755Y0884149D02*
X0728755D01*
X0729754Y0883149D01*
Y0880150D01*
X0726755D01*
X0725756Y0881150D01*
X0726755Y0882149D01*
X0729754D01*
X0731754Y0884149D02*
Y0881150D01*
X0732753Y0880150D01*
X0735752D01*
Y0879150D01*
X0734753Y0878151D01*
X0733753D01*
X0735752Y0880150D02*
Y0884149D01*
X0740751Y0880150D02*
X0738751D01*
X0737752Y0881150D01*
Y0883149D01*
X0738751Y0884149D01*
X0740751D01*
X0741750Y0883149D01*
Y0882149D01*
X0737752D01*
X0743750Y0884149D02*
Y0880150D01*
Y0882149D01*
X0744749Y0883149D01*
X0745749Y0884149D01*
X0746749D01*
X0497200Y0080717D02*
Y0101050D01*
X0413200Y0080717D02*
Y0101050D01*
X0040000Y0080717D02*
X0700200D01*
X0040000Y0060383D02*
X0700000D01*
X0040000Y0040050D02*
X0440500D01*
X0040050Y0101050D02*
X0700200D01*
X0040050Y0040050D02*
Y0101050D01*
Y0040050D02*
X0197600D01*
X0040000D02*
Y0101050D01*
X0286500Y0040050D02*
Y0101050D01*
X0700200Y0040050D02*
Y0101050D01*
X0440500Y0040050D02*
X0700200D01*
X0559400Y0039400D02*
Y0059683D01*
G54D160*
X1167638Y0697150D02*
Y0889150D01*
X1055670Y0865150D02*
X1167638D01*
X1055670Y0853150D02*
X1167638D01*
X1055670Y0841150D02*
X1167638D01*
X1055670Y0829150D02*
X1167638D01*
X1055670Y0817150D02*
X1167638D01*
X1055670Y0805150D02*
X1167638D01*
X1055670Y0793150D02*
X1167638D01*
X1055670Y0781150D02*
X1167638D01*
X1055670Y0769150D02*
X1167638D01*
X1055670Y0757150D02*
X1167638D01*
X1055670Y0745150D02*
X1167638D01*
X1055670Y0733150D02*
X1167638D01*
X1055670Y0721150D02*
X1167638D01*
X1055670Y0709150D02*
X1167638D01*
X1055670Y0697150D02*
X1167638D01*
X1055670D02*
Y0889150D01*
X0998683Y0865150D02*
X1055670D01*
X0998683Y0853150D02*
X1055670D01*
X0998683Y0841150D02*
X1055670D01*
X0998683Y0829150D02*
X1055670D01*
X0998683Y0817150D02*
X1055670D01*
X0998683Y0805150D02*
X1055670D01*
X0998683Y0793150D02*
X1055670D01*
X0998683Y0781150D02*
X1055670D01*
X0998683Y0769150D02*
X1055670D01*
X0998683Y0757150D02*
X1055670D01*
X0998683Y0745150D02*
X1055670D01*
X0998683Y0733150D02*
X1055670D01*
X0998683Y0721150D02*
X1055670D01*
X0998683Y0709150D02*
X1055670D01*
X0998683Y0697150D02*
X1055670D01*
X0998683D02*
Y0889150D01*
X0933700Y0865150D02*
X0998683D01*
X0933700Y0853150D02*
X0998683D01*
X0933700Y0841150D02*
X0998683D01*
X0933700Y0829150D02*
X0998683D01*
X0933700Y0817150D02*
X0998683D01*
X0933700Y0805150D02*
X0998683D01*
X0933700Y0793150D02*
X0998683D01*
X0933700Y0781150D02*
X0998683D01*
X0933700Y0769150D02*
X0998683D01*
X0933700Y0757150D02*
X0998683D01*
X0933700Y0745150D02*
X0998683D01*
X0933700Y0733150D02*
X0998683D01*
X0933700Y0721150D02*
X0998683D01*
X0933700Y0709150D02*
X0998683D01*
X0933700Y0697150D02*
X0998683D01*
X0933700D02*
Y0889150D01*
X0847723Y0865150D02*
X0933700D01*
X0847723Y0853150D02*
X0933700D01*
X0847723Y0841150D02*
X0933700D01*
X0847723Y0829150D02*
X0933700D01*
X0847723Y0817150D02*
X0933700D01*
X0847723Y0805150D02*
X0933700D01*
X0847723Y0793150D02*
X0933700D01*
X0847723Y0781150D02*
X0933700D01*
X0847723Y0769150D02*
X0933700D01*
X0847723Y0757150D02*
X0933700D01*
X0847723Y0745150D02*
X0933700D01*
X0847723Y0733150D02*
X0933700D01*
X0847723Y0721150D02*
X0933700D01*
X0847723Y0709150D02*
X0933700D01*
X0847723Y0697150D02*
X0933700D01*
X0847723D02*
Y0889150D01*
X0754749Y0865150D02*
X0847723D01*
X0754749Y0853150D02*
X0847723D01*
X0754749Y0841150D02*
X0847723D01*
X0754749Y0829150D02*
X0847723D01*
X0754749Y0817150D02*
X0847723D01*
X0754749Y0805150D02*
X0847723D01*
X0754749Y0793150D02*
X0847723D01*
X0754749Y0781150D02*
X0847723D01*
X0754749Y0769150D02*
X0847723D01*
X0754749Y0757150D02*
X0847723D01*
X0754749Y0745150D02*
X0847723D01*
X0754749Y0733150D02*
X0847723D01*
X0754749Y0721150D02*
X0847723D01*
X0754749Y0709150D02*
X0847723D01*
X0754749Y0697150D02*
X0847723D01*
X0754749D02*
Y0889150D01*
X0713758Y0865150D02*
X0754749D01*
X0713758Y0853150D02*
X0754749D01*
X0713758Y0841150D02*
X0754749D01*
X0713758Y0829150D02*
X0754749D01*
X0713758Y0817150D02*
X0754749D01*
X0713758Y0805150D02*
X0754749D01*
X0713758Y0793150D02*
X0754749D01*
X0713758Y0781150D02*
X0754749D01*
X0713758Y0769150D02*
X0754749D01*
X0713758Y0757150D02*
X0754749D01*
X0713758Y0745150D02*
X0754749D01*
X0713758Y0733150D02*
X0754749D01*
X0713758Y0721150D02*
X0754749D01*
X0713758Y0709150D02*
X0754749D01*
X0713758Y0697150D02*
X0754749D01*
X0713758D02*
Y0889150D01*
X1167638D01*
X0713758Y0877150D02*
X1167638D01*
G54D161*
X1055670Y0873182D02*
X1059638Y0877150D01*
X1055670Y0867182D02*
X1065638Y0877150D01*
X1059638Y0865150D02*
X1071638Y0877150D01*
X1065638Y0865150D02*
X1077638Y0877150D01*
X1071638Y0865150D02*
X1083638Y0877150D01*
X1077638Y0865150D02*
X1089638Y0877150D01*
X1083638Y0865150D02*
X1095638Y0877150D01*
X1089638Y0865150D02*
X1101638Y0877150D01*
X1095638Y0865150D02*
X1107638Y0877150D01*
X1101638Y0865150D02*
X1113638Y0877150D01*
X1107638Y0865150D02*
X1119638Y0877150D01*
X1113638Y0865150D02*
X1125638Y0877150D01*
X1119638Y0865150D02*
X1131638Y0877150D01*
X1125638Y0865150D02*
X1137638Y0877150D01*
X1131638Y0865150D02*
X1143638Y0877150D01*
X1137638Y0865150D02*
X1149638Y0877150D01*
X1143638Y0865150D02*
X1155638Y0877150D01*
X1149638Y0865150D02*
X1161638Y0877150D01*
X1155638Y0865150D02*
X1167638Y0877150D01*
X1161638Y0865150D02*
X1167638Y0871150D01*
X1055670Y0861182D02*
X1059638Y0865150D01*
X1055670Y0855182D02*
X1065638Y0865150D01*
X1059638Y0853150D02*
X1071638Y0865150D01*
X1065638Y0853150D02*
X1077638Y0865150D01*
X1071638Y0853150D02*
X1083638Y0865150D01*
X1077638Y0853150D02*
X1089638Y0865150D01*
X1083638Y0853150D02*
X1095638Y0865150D01*
X1089638Y0853150D02*
X1101638Y0865150D01*
X1095638Y0853150D02*
X1107638Y0865150D01*
X1101638Y0853150D02*
X1113638Y0865150D01*
X1107638Y0853150D02*
X1119638Y0865150D01*
X1113638Y0853150D02*
X1125638Y0865150D01*
X1119638Y0853150D02*
X1131638Y0865150D01*
X1125638Y0853150D02*
X1137638Y0865150D01*
X1131638Y0853150D02*
X1143638Y0865150D01*
X1137638Y0853150D02*
X1149638Y0865150D01*
X1143638Y0853150D02*
X1155638Y0865150D01*
X1149638Y0853150D02*
X1161638Y0865150D01*
X1155638Y0853150D02*
X1167638Y0865150D01*
X1161638Y0853150D02*
X1167638Y0859150D01*
X1055670Y0849182D02*
X1059638Y0853150D01*
X1055670Y0843182D02*
X1065638Y0853150D01*
X1059638Y0841150D02*
X1071638Y0853150D01*
X1065638Y0841150D02*
X1077638Y0853150D01*
X1071638Y0841150D02*
X1083638Y0853150D01*
X1077638Y0841150D02*
X1089638Y0853150D01*
X1083638Y0841150D02*
X1095638Y0853150D01*
X1089638Y0841150D02*
X1101638Y0853150D01*
X1095638Y0841150D02*
X1107638Y0853150D01*
X1101638Y0841150D02*
X1113638Y0853150D01*
X1107638Y0841150D02*
X1119638Y0853150D01*
X1113638Y0841150D02*
X1125638Y0853150D01*
X1119638Y0841150D02*
X1131638Y0853150D01*
X1125638Y0841150D02*
X1137638Y0853150D01*
X1131638Y0841150D02*
X1143638Y0853150D01*
X1137638Y0841150D02*
X1149638Y0853150D01*
X1143638Y0841150D02*
X1155638Y0853150D01*
X1149638Y0841150D02*
X1161638Y0853150D01*
X1155638Y0841150D02*
X1167638Y0853150D01*
X1161638Y0841150D02*
X1167638Y0847150D01*
X1055670Y0837182D02*
X1059638Y0841150D01*
X1055670Y0831182D02*
X1065638Y0841150D01*
X1059638Y0829150D02*
X1071638Y0841150D01*
X1065638Y0829150D02*
X1077638Y0841150D01*
X1071638Y0829150D02*
X1083638Y0841150D01*
X1077638Y0829150D02*
X1089638Y0841150D01*
X1083638Y0829150D02*
X1095638Y0841150D01*
X1089638Y0829150D02*
X1101638Y0841150D01*
X1095638Y0829150D02*
X1107638Y0841150D01*
X1101638Y0829150D02*
X1113638Y0841150D01*
X1107638Y0829150D02*
X1119638Y0841150D01*
X1113638Y0829150D02*
X1125638Y0841150D01*
X1119638Y0829150D02*
X1131638Y0841150D01*
X1125638Y0829150D02*
X1137638Y0841150D01*
X1131638Y0829150D02*
X1143638Y0841150D01*
X1137638Y0829150D02*
X1149638Y0841150D01*
X1143638Y0829150D02*
X1155638Y0841150D01*
X1149638Y0829150D02*
X1161638Y0841150D01*
X1155638Y0829150D02*
X1167638Y0841150D01*
X1161638Y0829150D02*
X1167638Y0835150D01*
X1055670Y0825182D02*
X1059638Y0829150D01*
X1055670Y0819182D02*
X1065638Y0829150D01*
X1059638Y0817150D02*
X1071638Y0829150D01*
X1065638Y0817150D02*
X1077638Y0829150D01*
X1071638Y0817150D02*
X1083638Y0829150D01*
X1077638Y0817150D02*
X1089638Y0829150D01*
X1083638Y0817150D02*
X1095638Y0829150D01*
X1089638Y0817150D02*
X1101638Y0829150D01*
X1095638Y0817150D02*
X1107638Y0829150D01*
X1101638Y0817150D02*
X1113638Y0829150D01*
X1107638Y0817150D02*
X1119638Y0829150D01*
X1113638Y0817150D02*
X1125638Y0829150D01*
X1119638Y0817150D02*
X1131638Y0829150D01*
X1125638Y0817150D02*
X1137638Y0829150D01*
X1131638Y0817150D02*
X1143638Y0829150D01*
X1137638Y0817150D02*
X1149638Y0829150D01*
X1143638Y0817150D02*
X1155638Y0829150D01*
X1149638Y0817150D02*
X1161638Y0829150D01*
X1155638Y0817150D02*
X1167638Y0829150D01*
X1161638Y0817150D02*
X1167638Y0823150D01*
X1055670Y0813182D02*
X1059638Y0817150D01*
X1055670Y0807182D02*
X1065638Y0817150D01*
X1059638Y0805150D02*
X1071638Y0817150D01*
X1065638Y0805150D02*
X1077638Y0817150D01*
X1071638Y0805150D02*
X1083638Y0817150D01*
X1077638Y0805150D02*
X1089638Y0817150D01*
X1083638Y0805150D02*
X1095638Y0817150D01*
X1089638Y0805150D02*
X1101638Y0817150D01*
X1095638Y0805150D02*
X1107638Y0817150D01*
X1101638Y0805150D02*
X1113638Y0817150D01*
X1107638Y0805150D02*
X1119638Y0817150D01*
X1113638Y0805150D02*
X1125638Y0817150D01*
X1119638Y0805150D02*
X1131638Y0817150D01*
X1125638Y0805150D02*
X1137638Y0817150D01*
X1131638Y0805150D02*
X1143638Y0817150D01*
X1137638Y0805150D02*
X1149638Y0817150D01*
X1143638Y0805150D02*
X1155638Y0817150D01*
X1149638Y0805150D02*
X1161638Y0817150D01*
X1155638Y0805150D02*
X1167638Y0817150D01*
X1161638Y0805150D02*
X1167638Y0811150D01*
X1055670Y0801182D02*
X1059638Y0805150D01*
X1055670Y0795182D02*
X1065638Y0805150D01*
X1059638Y0793150D02*
X1071638Y0805150D01*
X1065638Y0793150D02*
X1077638Y0805150D01*
X1071638Y0793150D02*
X1083638Y0805150D01*
X1077638Y0793150D02*
X1089638Y0805150D01*
X1083638Y0793150D02*
X1095638Y0805150D01*
X1089638Y0793150D02*
X1101638Y0805150D01*
X1095638Y0793150D02*
X1107638Y0805150D01*
X1101638Y0793150D02*
X1113638Y0805150D01*
X1107638Y0793150D02*
X1119638Y0805150D01*
X1113638Y0793150D02*
X1125638Y0805150D01*
X1119638Y0793150D02*
X1131638Y0805150D01*
X1125638Y0793150D02*
X1137638Y0805150D01*
X1131638Y0793150D02*
X1143638Y0805150D01*
X1137638Y0793150D02*
X1149638Y0805150D01*
X1143638Y0793150D02*
X1155638Y0805150D01*
X1149638Y0793150D02*
X1161638Y0805150D01*
X1155638Y0793150D02*
X1167638Y0805150D01*
X1161638Y0793150D02*
X1167638Y0799150D01*
X1055670Y0789182D02*
X1059638Y0793150D01*
X1055670Y0783182D02*
X1065638Y0793150D01*
X1059638Y0781150D02*
X1071638Y0793150D01*
X1065638Y0781150D02*
X1077638Y0793150D01*
X1071638Y0781150D02*
X1083638Y0793150D01*
X1077638Y0781150D02*
X1089638Y0793150D01*
X1083638Y0781150D02*
X1095638Y0793150D01*
X1089638Y0781150D02*
X1101638Y0793150D01*
X1095638Y0781150D02*
X1107638Y0793150D01*
X1101638Y0781150D02*
X1113638Y0793150D01*
X1107638Y0781150D02*
X1119638Y0793150D01*
X1113638Y0781150D02*
X1125638Y0793150D01*
X1119638Y0781150D02*
X1131638Y0793150D01*
X1125638Y0781150D02*
X1137638Y0793150D01*
X1131638Y0781150D02*
X1143638Y0793150D01*
X1137638Y0781150D02*
X1149638Y0793150D01*
X1143638Y0781150D02*
X1155638Y0793150D01*
X1149638Y0781150D02*
X1161638Y0793150D01*
X1155638Y0781150D02*
X1167638Y0793150D01*
X1161638Y0781150D02*
X1167638Y0787150D01*
X1055670Y0777182D02*
X1059638Y0781150D01*
X1055670Y0771182D02*
X1065638Y0781150D01*
X1059638Y0769150D02*
X1071638Y0781150D01*
X1065638Y0769150D02*
X1077638Y0781150D01*
X1071638Y0769150D02*
X1083638Y0781150D01*
X1077638Y0769150D02*
X1089638Y0781150D01*
X1083638Y0769150D02*
X1095638Y0781150D01*
X1089638Y0769150D02*
X1101638Y0781150D01*
X1095638Y0769150D02*
X1107638Y0781150D01*
X1101638Y0769150D02*
X1113638Y0781150D01*
X1107638Y0769150D02*
X1119638Y0781150D01*
X1113638Y0769150D02*
X1125638Y0781150D01*
X1119638Y0769150D02*
X1131638Y0781150D01*
X1125638Y0769150D02*
X1137638Y0781150D01*
X1131638Y0769150D02*
X1143638Y0781150D01*
X1137638Y0769150D02*
X1149638Y0781150D01*
X1143638Y0769150D02*
X1155638Y0781150D01*
X1149638Y0769150D02*
X1161638Y0781150D01*
X1155638Y0769150D02*
X1167638Y0781150D01*
X1161638Y0769150D02*
X1167638Y0775150D01*
X1055670Y0765182D02*
X1059638Y0769150D01*
X1055670Y0759182D02*
X1065638Y0769150D01*
X1059638Y0757150D02*
X1071638Y0769150D01*
X1065638Y0757150D02*
X1077638Y0769150D01*
X1071638Y0757150D02*
X1083638Y0769150D01*
X1077638Y0757150D02*
X1089638Y0769150D01*
X1083638Y0757150D02*
X1095638Y0769150D01*
X1089638Y0757150D02*
X1101638Y0769150D01*
X1095638Y0757150D02*
X1107638Y0769150D01*
X1101638Y0757150D02*
X1113638Y0769150D01*
X1107638Y0757150D02*
X1119638Y0769150D01*
X1113638Y0757150D02*
X1125638Y0769150D01*
X1119638Y0757150D02*
X1131638Y0769150D01*
X1125638Y0757150D02*
X1137638Y0769150D01*
X1131638Y0757150D02*
X1143638Y0769150D01*
X1137638Y0757150D02*
X1149638Y0769150D01*
X1143638Y0757150D02*
X1155638Y0769150D01*
X1149638Y0757150D02*
X1161638Y0769150D01*
X1155638Y0757150D02*
X1167638Y0769150D01*
X1161638Y0757150D02*
X1167638Y0763150D01*
X1055670Y0753182D02*
X1059638Y0757150D01*
X1055670Y0747182D02*
X1065638Y0757150D01*
X1059638Y0745150D02*
X1071638Y0757150D01*
X1065638Y0745150D02*
X1077638Y0757150D01*
X1071638Y0745150D02*
X1083638Y0757150D01*
X1077638Y0745150D02*
X1089638Y0757150D01*
X1083638Y0745150D02*
X1095638Y0757150D01*
X1089638Y0745150D02*
X1101638Y0757150D01*
X1095638Y0745150D02*
X1107638Y0757150D01*
X1101638Y0745150D02*
X1113638Y0757150D01*
X1107638Y0745150D02*
X1119638Y0757150D01*
X1113638Y0745150D02*
X1125638Y0757150D01*
X1119638Y0745150D02*
X1131638Y0757150D01*
X1125638Y0745150D02*
X1137638Y0757150D01*
X1131638Y0745150D02*
X1143638Y0757150D01*
X1137638Y0745150D02*
X1149638Y0757150D01*
X1143638Y0745150D02*
X1155638Y0757150D01*
X1149638Y0745150D02*
X1161638Y0757150D01*
X1155638Y0745150D02*
X1167638Y0757150D01*
X1161638Y0745150D02*
X1167638Y0751150D01*
X1055670Y0741182D02*
X1059638Y0745150D01*
X1055670Y0735182D02*
X1065638Y0745150D01*
X1059638Y0733150D02*
X1071638Y0745150D01*
X1065638Y0733150D02*
X1077638Y0745150D01*
X1071638Y0733150D02*
X1083638Y0745150D01*
X1077638Y0733150D02*
X1089638Y0745150D01*
X1083638Y0733150D02*
X1095638Y0745150D01*
X1089638Y0733150D02*
X1101638Y0745150D01*
X1095638Y0733150D02*
X1107638Y0745150D01*
X1101638Y0733150D02*
X1113638Y0745150D01*
X1107638Y0733150D02*
X1119638Y0745150D01*
X1113638Y0733150D02*
X1125638Y0745150D01*
X1119638Y0733150D02*
X1131638Y0745150D01*
X1125638Y0733150D02*
X1137638Y0745150D01*
X1131638Y0733150D02*
X1143638Y0745150D01*
X1137638Y0733150D02*
X1149638Y0745150D01*
X1143638Y0733150D02*
X1155638Y0745150D01*
X1149638Y0733150D02*
X1161638Y0745150D01*
X1155638Y0733150D02*
X1167638Y0745150D01*
X1161638Y0733150D02*
X1167638Y0739150D01*
X1055670Y0729182D02*
X1059638Y0733150D01*
X1055670Y0723182D02*
X1065638Y0733150D01*
X1059638Y0721150D02*
X1071638Y0733150D01*
X1065638Y0721150D02*
X1077638Y0733150D01*
X1071638Y0721150D02*
X1083638Y0733150D01*
X1077638Y0721150D02*
X1089638Y0733150D01*
X1083638Y0721150D02*
X1095638Y0733150D01*
X1089638Y0721150D02*
X1101638Y0733150D01*
X1095638Y0721150D02*
X1107638Y0733150D01*
X1101638Y0721150D02*
X1113638Y0733150D01*
X1107638Y0721150D02*
X1119638Y0733150D01*
X1113638Y0721150D02*
X1125638Y0733150D01*
X1119638Y0721150D02*
X1131638Y0733150D01*
X1125638Y0721150D02*
X1137638Y0733150D01*
X1131638Y0721150D02*
X1143638Y0733150D01*
X1137638Y0721150D02*
X1149638Y0733150D01*
X1143638Y0721150D02*
X1155638Y0733150D01*
X1149638Y0721150D02*
X1161638Y0733150D01*
X1155638Y0721150D02*
X1167638Y0733150D01*
X1161638Y0721150D02*
X1167638Y0727150D01*
X1055670Y0717182D02*
X1059638Y0721150D01*
X1055670Y0711182D02*
X1065638Y0721150D01*
X1059638Y0709150D02*
X1071638Y0721150D01*
X1065638Y0709150D02*
X1077638Y0721150D01*
X1071638Y0709150D02*
X1083638Y0721150D01*
X1077638Y0709150D02*
X1089638Y0721150D01*
X1083638Y0709150D02*
X1095638Y0721150D01*
X1089638Y0709150D02*
X1101638Y0721150D01*
X1095638Y0709150D02*
X1107638Y0721150D01*
X1101638Y0709150D02*
X1113638Y0721150D01*
X1107638Y0709150D02*
X1119638Y0721150D01*
X1113638Y0709150D02*
X1125638Y0721150D01*
X1119638Y0709150D02*
X1131638Y0721150D01*
X1125638Y0709150D02*
X1137638Y0721150D01*
X1131638Y0709150D02*
X1143638Y0721150D01*
X1137638Y0709150D02*
X1149638Y0721150D01*
X1143638Y0709150D02*
X1155638Y0721150D01*
X1149638Y0709150D02*
X1161638Y0721150D01*
X1155638Y0709150D02*
X1167638Y0721150D01*
X1161638Y0709150D02*
X1167638Y0715150D01*
X1055670Y0705182D02*
X1059638Y0709150D01*
X1055670Y0699182D02*
X1065638Y0709150D01*
X1059638Y0697150D02*
X1071638Y0709150D01*
X1065638Y0697150D02*
X1077638Y0709150D01*
X1071638Y0697150D02*
X1083638Y0709150D01*
X1077638Y0697150D02*
X1089638Y0709150D01*
X1083638Y0697150D02*
X1095638Y0709150D01*
X1089638Y0697150D02*
X1101638Y0709150D01*
X1095638Y0697150D02*
X1107638Y0709150D01*
X1101638Y0697150D02*
X1113638Y0709150D01*
X1107638Y0697150D02*
X1119638Y0709150D01*
X1113638Y0697150D02*
X1125638Y0709150D01*
X1119638Y0697150D02*
X1131638Y0709150D01*
X1125638Y0697150D02*
X1137638Y0709150D01*
X1131638Y0697150D02*
X1143638Y0709150D01*
X1137638Y0697150D02*
X1149638Y0709150D01*
X1143638Y0697150D02*
X1155638Y0709150D01*
X1149638Y0697150D02*
X1161638Y0709150D01*
X1155638Y0697150D02*
X1167638Y0709150D01*
X1161638Y0697150D02*
X1167638Y0703150D01*
M02*
